G04 #@! TF.GenerationSoftware,KiCad,Pcbnew,(7.99.0-200-gad838e3d73)*
G04 #@! TF.CreationDate,2024-03-15T16:03:47+07:00*
G04 #@! TF.ProjectId,WMS,574d532e-6b69-4636-9164-5f7063625858,rev?*
G04 #@! TF.SameCoordinates,Original*
G04 #@! TF.FileFunction,Soldermask,Bot*
G04 #@! TF.FilePolarity,Negative*
%FSLAX46Y46*%
G04 Gerber Fmt 4.6, Leading zero omitted, Abs format (unit mm)*
G04 Created by KiCad (PCBNEW (7.99.0-200-gad838e3d73)) date 2024-03-15 16:03:47*
%MOMM*%
%LPD*%
G01*
G04 APERTURE LIST*
%ADD10R,1.400000X1.400000*%
%ADD11C,1.400000*%
%ADD12C,2.000000*%
%ADD13R,5.000000X3.500000*%
%ADD14C,2.390000*%
%ADD15C,3.450000*%
%ADD16C,2.200000*%
%ADD17R,1.700000X1.700000*%
%ADD18O,1.700000X1.700000*%
%ADD19O,1.600000X2.000000*%
%ADD20C,1.700000*%
%ADD21R,1.800000X1.800000*%
%ADD22C,1.800000*%
%ADD23O,3.048000X1.850000*%
%ADD24R,2.800000X2.800000*%
G04 APERTURE END LIST*
D10*
X105896399Y-94896399D03*
D11*
X108396400Y-94896400D03*
X110896400Y-94896400D03*
X105896400Y-98196400D03*
X108396400Y-98196400D03*
X110896400Y-98196400D03*
D12*
X188520000Y-86396000D03*
X195020000Y-86396000D03*
X188520000Y-90896000D03*
X195020000Y-90896000D03*
D13*
X160019999Y-89965999D03*
X160019999Y-96415999D03*
X129019999Y-96415999D03*
X129019999Y-89915999D03*
D14*
X79807000Y-56744600D03*
D15*
X88137000Y-72744600D03*
X143337000Y-56744600D03*
D16*
X203276200Y-83235800D03*
D17*
X75183999Y-108457999D03*
D18*
X77723999Y-108457999D03*
X80263999Y-108457999D03*
X82803999Y-108457999D03*
X85343999Y-108457999D03*
X87883999Y-108457999D03*
X90423999Y-108457999D03*
X92963999Y-108457999D03*
X95503999Y-108457999D03*
X98043999Y-108457999D03*
X100583999Y-108457999D03*
X103123999Y-108457999D03*
X105663999Y-108457999D03*
X108203999Y-108457999D03*
X110743999Y-108457999D03*
X113283999Y-108457999D03*
X115823999Y-108457999D03*
X118363999Y-108457999D03*
X120903999Y-108457999D03*
X123443999Y-108457999D03*
X125983999Y-108457999D03*
X128523999Y-108457999D03*
X131063999Y-108457999D03*
X133603999Y-108457999D03*
X136143999Y-108457999D03*
X138683999Y-108457999D03*
X141223999Y-108457999D03*
X143763999Y-108457999D03*
X146303999Y-108457999D03*
X148843999Y-108457999D03*
X151383999Y-108457999D03*
X153923999Y-108457999D03*
X156463999Y-108457999D03*
X159003999Y-108457999D03*
X161543999Y-108457999D03*
X164083999Y-108457999D03*
X166623999Y-108457999D03*
X169163999Y-108457999D03*
X171703999Y-108457999D03*
X174243999Y-108457999D03*
D17*
X110489999Y-90169999D03*
D18*
X107949999Y-90169999D03*
X105409999Y-90169999D03*
D19*
X165099999Y-90169999D03*
X167639999Y-90169999D03*
X170179999Y-90169999D03*
X172719999Y-90169999D03*
D17*
X184403999Y-108457999D03*
D18*
X181863999Y-108457999D03*
X179323999Y-108457999D03*
D16*
X73025000Y-56540400D03*
X203428600Y-112979200D03*
D12*
X188520000Y-78776000D03*
X195020000Y-78776000D03*
X188520000Y-83276000D03*
X195020000Y-83276000D03*
D20*
X75184000Y-81788000D03*
D18*
X77723999Y-81787999D03*
X80263999Y-81787999D03*
X82803999Y-81787999D03*
X85343999Y-81787999D03*
X87883999Y-81787999D03*
X90423999Y-81787999D03*
X92963999Y-81787999D03*
X95503999Y-81787999D03*
X98043999Y-81787999D03*
X100583999Y-81787999D03*
X103123999Y-81787999D03*
X105663999Y-81787999D03*
X108203999Y-81787999D03*
X110743999Y-81787999D03*
X113283999Y-81787999D03*
X115823999Y-81787999D03*
X118363999Y-81787999D03*
X120903999Y-81787999D03*
X123443999Y-81787999D03*
X125983999Y-81787999D03*
X128523999Y-81787999D03*
X131063999Y-81787999D03*
X133603999Y-81787999D03*
X136143999Y-81787999D03*
X138683999Y-81787999D03*
X141223999Y-81787999D03*
X143763999Y-81787999D03*
X146303999Y-81787999D03*
X148843999Y-81787999D03*
X151383999Y-81787999D03*
X153923999Y-81787999D03*
X156463999Y-81787999D03*
X159003999Y-81787999D03*
X161543999Y-81787999D03*
X164083999Y-81787999D03*
X166623999Y-81787999D03*
X169163999Y-81787999D03*
X171703999Y-81787999D03*
X174243999Y-81787999D03*
X174243999Y-104647999D03*
X171703999Y-104647999D03*
X169163999Y-104647999D03*
X166623999Y-104647999D03*
X164083999Y-104647999D03*
X161543999Y-104647999D03*
X159003999Y-104647999D03*
X156463999Y-104647999D03*
X153923999Y-104647999D03*
X151383999Y-104647999D03*
X148843999Y-104647999D03*
X146303999Y-104647999D03*
X143763999Y-104647999D03*
X141223999Y-104647999D03*
X138683999Y-104647999D03*
X136143999Y-104647999D03*
X133603999Y-104647999D03*
X131063999Y-104647999D03*
X128523999Y-104647999D03*
X125983999Y-104647999D03*
X123443999Y-104647999D03*
X120903999Y-104647999D03*
X118363999Y-104647999D03*
X115823999Y-104647999D03*
X113283999Y-104647999D03*
X110743999Y-104647999D03*
X108203999Y-104647999D03*
X105663999Y-104647999D03*
X103123999Y-104647999D03*
X100583999Y-104647999D03*
X98043999Y-104647999D03*
X95503999Y-104647999D03*
X92963999Y-104647999D03*
X90423999Y-104647999D03*
X87883999Y-104647999D03*
X85343999Y-104647999D03*
X82803999Y-104647999D03*
X80263999Y-104647999D03*
X77723999Y-104647999D03*
D20*
X75184000Y-104648000D03*
D18*
X179323999Y-104647999D03*
X181863999Y-104647999D03*
D17*
X184403999Y-104647999D03*
D21*
X180944599Y-97891599D03*
D22*
X183484600Y-97891600D03*
D16*
X72212200Y-112699800D03*
D21*
X171449999Y-97485199D03*
D22*
X173990000Y-97485200D03*
D23*
X188721999Y-96305999D03*
X201221999Y-96305999D03*
X188721999Y-101305999D03*
X201221999Y-101305999D03*
D17*
X105663999Y-112013999D03*
D18*
X108203999Y-112013999D03*
X110743999Y-112013999D03*
X113283999Y-112013999D03*
X115823999Y-112013999D03*
X118363999Y-112013999D03*
X120903999Y-112013999D03*
X123443999Y-112013999D03*
X125983999Y-112013999D03*
X128523999Y-112013999D03*
X131063999Y-112013999D03*
X133603999Y-112013999D03*
X136143999Y-112013999D03*
X138683999Y-112013999D03*
X141223999Y-112013999D03*
X143763999Y-112013999D03*
X146303999Y-112013999D03*
X148843999Y-112013999D03*
D24*
X74929999Y-86359999D03*
X74929999Y-100559999D03*
X97829999Y-86359999D03*
X97829999Y-100859999D03*
X97829999Y-89859999D03*
X97829999Y-97459999D03*
D17*
X75183999Y-77977999D03*
D18*
X77723999Y-77977999D03*
X80263999Y-77977999D03*
X82803999Y-77977999D03*
X85343999Y-77977999D03*
X87883999Y-77977999D03*
X90423999Y-77977999D03*
X92963999Y-77977999D03*
X95503999Y-77977999D03*
X98043999Y-77977999D03*
X100583999Y-77977999D03*
X103123999Y-77977999D03*
X105663999Y-77977999D03*
X108203999Y-77977999D03*
X110743999Y-77977999D03*
X113283999Y-77977999D03*
X115823999Y-77977999D03*
X118363999Y-77977999D03*
X120903999Y-77977999D03*
X123443999Y-77977999D03*
X125983999Y-77977999D03*
X128523999Y-77977999D03*
X131063999Y-77977999D03*
X133603999Y-77977999D03*
X136143999Y-77977999D03*
X138683999Y-77977999D03*
X141223999Y-77977999D03*
X143763999Y-77977999D03*
X146303999Y-77977999D03*
X148843999Y-77977999D03*
X151383999Y-77977999D03*
X153923999Y-77977999D03*
X156463999Y-77977999D03*
X159003999Y-77977999D03*
X161543999Y-77977999D03*
X164083999Y-77977999D03*
X166623999Y-77977999D03*
X169163999Y-77977999D03*
X171703999Y-77977999D03*
X174243999Y-77977999D03*
M02*
