%TF.GenerationSoftware,KiCad,Pcbnew,(7.99.0-200-gad838e3d73)*%
%TF.CreationDate,2024-03-07T11:34:09+07:00*%
%TF.ProjectId,WMS_PCB1,574d535f-5043-4423-912e-6b696361645f,rev?*%
%TF.SameCoordinates,Original*%
%TF.FileFunction,Soldermask,Bot*%
%TF.FilePolarity,Negative*%
%FSLAX46Y46*%
G04 Gerber Fmt 4.6, Leading zero omitted, Abs format (unit mm)*
G04 Created by KiCad (PCBNEW (7.99.0-200-gad838e3d73)) date 2024-03-07 11:34:09*
%MOMM*%
%LPD*%
G01*
G04 APERTURE LIST*
G04 Aperture macros list*
%AMRoundRect*
0 Rectangle with rounded corners*
0 $1 Rounding radius*
0 $2 $3 $4 $5 $6 $7 $8 $9 X,Y pos of 4 corners*
0 Add a 4 corners polygon primitive as box body*
4,1,4,$2,$3,$4,$5,$6,$7,$8,$9,$2,$3,0*
0 Add four circle primitives for the rounded corners*
1,1,$1+$1,$2,$3*
1,1,$1+$1,$4,$5*
1,1,$1+$1,$6,$7*
1,1,$1+$1,$8,$9*
0 Add four rect primitives between the rounded corners*
20,1,$1+$1,$2,$3,$4,$5,0*
20,1,$1+$1,$4,$5,$6,$7,0*
20,1,$1+$1,$6,$7,$8,$9,0*
20,1,$1+$1,$8,$9,$2,$3,0*%
G04 Aperture macros list end*
%ADD10C,2.200000*%
%ADD11R,1.700000X1.700000*%
%ADD12O,1.700000X1.700000*%
%ADD13C,2.000000*%
%ADD14C,1.700000*%
%ADD15R,4.000000X4.000000*%
%ADD16C,4.000000*%
%ADD17RoundRect,0.250000X-0.600000X-0.750000X0.600000X-0.750000X0.600000X0.750000X-0.600000X0.750000X0*%
%ADD18O,1.700000X2.000000*%
%ADD19RoundRect,0.250000X-0.350000X-0.350000X0.350000X-0.350000X0.350000X0.350000X-0.350000X0.350000X0*%
%ADD20C,1.200000*%
%ADD21R,3.500000X5.000000*%
%ADD22R,2.800000X2.800000*%
G04 APERTURE END LIST*
D10*
%TO.C,H3*%
X46482000Y-170942000D03*
%TD*%
D11*
%TO.C,J2*%
X47749999Y-65589999D03*
D12*
X47749999Y-68129999D03*
X47749999Y-70669999D03*
X47749999Y-73209999D03*
X47749999Y-75749999D03*
X47749999Y-78289999D03*
X47749999Y-80829999D03*
X47749999Y-83369999D03*
X47749999Y-85909999D03*
X47749999Y-88449999D03*
X47749999Y-90989999D03*
X47749999Y-93529999D03*
X47749999Y-96069999D03*
X47749999Y-98609999D03*
X47749999Y-101149999D03*
X47749999Y-103689999D03*
X47749999Y-106229999D03*
X47749999Y-108769999D03*
X47749999Y-111309999D03*
X47749999Y-113849999D03*
X47749999Y-116389999D03*
X47749999Y-118929999D03*
X47749999Y-121469999D03*
X47749999Y-124009999D03*
X47749999Y-126549999D03*
X47749999Y-129089999D03*
X47749999Y-131629999D03*
X47749999Y-134169999D03*
X47749999Y-136709999D03*
X47749999Y-139249999D03*
X47749999Y-141789999D03*
X47749999Y-144329999D03*
X47749999Y-146869999D03*
X47749999Y-149409999D03*
X47749999Y-151949999D03*
X47749999Y-154489999D03*
X47749999Y-157029999D03*
X47749999Y-159569999D03*
X47749999Y-162109999D03*
X47749999Y-164649999D03*
%TD*%
D10*
%TO.C,H1*%
X42418000Y-89154000D03*
%TD*%
D13*
%TO.C,SW2*%
X63500000Y-170000000D03*
X63500000Y-176000000D03*
X75500000Y-170000000D03*
X75500000Y-176000000D03*
D14*
X65500000Y-171750000D03*
X69500000Y-171750000D03*
X73500000Y-171750000D03*
X65500000Y-174250000D03*
X69500000Y-174250000D03*
X73500000Y-174250000D03*
%TD*%
D15*
%TO.C,U1*%
X73119499Y-45499999D03*
D16*
X73119500Y-50500000D03*
X22827500Y-52104000D03*
D15*
X22827499Y-57103999D03*
X22827499Y-43387999D03*
D16*
X22827500Y-38388000D03*
%TD*%
D17*
%TO.C,BT1*%
X62500000Y-146500000D03*
D18*
X64999999Y-146499999D03*
%TD*%
D11*
%TO.C,J1*%
X78499999Y-65419999D03*
D12*
X78499999Y-67959999D03*
X78499999Y-70499999D03*
X78499999Y-73039999D03*
X78499999Y-75579999D03*
X78499999Y-78119999D03*
X78499999Y-80659999D03*
X78499999Y-83199999D03*
X78499999Y-85739999D03*
X78499999Y-88279999D03*
X78499999Y-90819999D03*
X78499999Y-93359999D03*
X78499999Y-95899999D03*
X78499999Y-98439999D03*
X78499999Y-100979999D03*
X78499999Y-103519999D03*
X78499999Y-106059999D03*
X78499999Y-108599999D03*
X78499999Y-111139999D03*
X78499999Y-113679999D03*
X78499999Y-116219999D03*
X78499999Y-118759999D03*
X78499999Y-121299999D03*
X78499999Y-123839999D03*
X78499999Y-126379999D03*
X78499999Y-128919999D03*
X78499999Y-131459999D03*
X78499999Y-133999999D03*
X78499999Y-136539999D03*
X78499999Y-139079999D03*
X78499999Y-141619999D03*
X78499999Y-144159999D03*
X78499999Y-146699999D03*
X78499999Y-149239999D03*
X78499999Y-151779999D03*
X78499999Y-154319999D03*
X78499999Y-156859999D03*
X78499999Y-159399999D03*
X78499999Y-161939999D03*
X78499999Y-164479999D03*
%TD*%
D11*
%TO.C,U5*%
X44195999Y-96265999D03*
D12*
X44195999Y-98805999D03*
X44195999Y-101345999D03*
X44195999Y-103885999D03*
X44195999Y-106425999D03*
X44195999Y-108965999D03*
X44195999Y-111505999D03*
X44195999Y-114045999D03*
X44195999Y-116585999D03*
X44195999Y-119125999D03*
X44195999Y-121665999D03*
X44195999Y-124205999D03*
X44195999Y-126745999D03*
X44195999Y-129285999D03*
X44195999Y-131825999D03*
X44195999Y-134365999D03*
X44195999Y-136905999D03*
X44195999Y-139445999D03*
%TD*%
D10*
%TO.C,H2*%
X42418000Y-66294000D03*
%TD*%
D14*
%TO.C,U6*%
X74484000Y-65569000D03*
D12*
X74483999Y-68108999D03*
X74483999Y-70648999D03*
X74483999Y-73188999D03*
X74483999Y-75728999D03*
X74483999Y-78268999D03*
X74483999Y-80808999D03*
X74483999Y-83348999D03*
X74483999Y-85888999D03*
X74483999Y-88428999D03*
X74483999Y-90968999D03*
X74483999Y-93508999D03*
X74483999Y-96048999D03*
X74483999Y-98588999D03*
X74483999Y-101128999D03*
X74483999Y-103668999D03*
X74483999Y-106208999D03*
X74483999Y-108748999D03*
X74483999Y-111288999D03*
X74483999Y-113828999D03*
X74483999Y-116368999D03*
X74483999Y-118908999D03*
X74483999Y-121448999D03*
X74483999Y-123988999D03*
X74483999Y-126528999D03*
X74483999Y-129068999D03*
X74483999Y-131608999D03*
X74483999Y-134148999D03*
X74483999Y-136688999D03*
X74483999Y-139228999D03*
X74483999Y-141768999D03*
X74483999Y-144308999D03*
X74483999Y-146848999D03*
X74483999Y-149388999D03*
X74483999Y-151928999D03*
X74483999Y-154468999D03*
X74483999Y-157008999D03*
X74483999Y-159548999D03*
X74483999Y-162088999D03*
X74483999Y-164628999D03*
X51623999Y-164628999D03*
X51623999Y-162088999D03*
X51623999Y-159548999D03*
X51623999Y-157008999D03*
X51623999Y-154468999D03*
X51623999Y-151928999D03*
X51623999Y-149388999D03*
X51623999Y-146848999D03*
X51623999Y-144308999D03*
X51623999Y-141768999D03*
X51623999Y-139228999D03*
X51623999Y-136688999D03*
X51623999Y-134148999D03*
X51623999Y-131608999D03*
X51623999Y-129068999D03*
X51623999Y-126528999D03*
X51623999Y-123988999D03*
X51623999Y-121448999D03*
X51623999Y-118908999D03*
X51623999Y-116368999D03*
X51623999Y-113828999D03*
X51623999Y-111288999D03*
X51623999Y-108748999D03*
X51623999Y-106208999D03*
X51623999Y-103668999D03*
X51623999Y-101128999D03*
X51623999Y-98588999D03*
X51623999Y-96048999D03*
X51623999Y-93508999D03*
X51623999Y-90968999D03*
X51623999Y-88428999D03*
X51623999Y-85888999D03*
X51623999Y-83348999D03*
X51623999Y-80808999D03*
X51623999Y-78268999D03*
X51623999Y-75728999D03*
X51623999Y-73188999D03*
X51623999Y-70648999D03*
X51623999Y-68108999D03*
D14*
X51624000Y-65569000D03*
D12*
X51623999Y-169708999D03*
X51623999Y-172248999D03*
D11*
X51623999Y-174788999D03*
%TD*%
D19*
%TO.C,J4*%
X57913000Y-68485000D03*
D20*
X57913000Y-70485000D03*
X59913000Y-68485000D03*
X59913000Y-70485000D03*
X61913000Y-68485000D03*
X61913000Y-70485000D03*
X63913000Y-68485000D03*
X63913000Y-70485000D03*
X65913000Y-68485000D03*
X65913000Y-70485000D03*
X67913000Y-68485000D03*
X67913000Y-70485000D03*
%TD*%
D10*
%TO.C,H4*%
X43180000Y-145288000D03*
%TD*%
D21*
%TO.C,U2*%
X66572999Y-78836999D03*
X60122999Y-78836999D03*
X60122999Y-109836999D03*
X66622999Y-109836999D03*
%TD*%
D22*
%TO.C,U3*%
X56055999Y-115872999D03*
X70255999Y-115872999D03*
X56055999Y-138772999D03*
X70555999Y-138772999D03*
X59555999Y-138772999D03*
X67155999Y-138772999D03*
%TD*%
M02*
