%TF.GenerationSoftware,KiCad,Pcbnew,(7.99.0-200-gad838e3d73)*%
%TF.CreationDate,2024-03-07T11:40:56+07:00*%
%TF.ProjectId,WMS_PCB2,574d535f-5043-4423-922e-6b696361645f,rev?*%
%TF.SameCoordinates,Original*%
%TF.FileFunction,Legend,Top*%
%TF.FilePolarity,Positive*%
%FSLAX46Y46*%
G04 Gerber Fmt 4.6, Leading zero omitted, Abs format (unit mm)*
G04 Created by KiCad (PCBNEW (7.99.0-200-gad838e3d73)) date 2024-03-07 11:40:56*
%MOMM*%
%LPD*%
G01*
G04 APERTURE LIST*
%ADD10C,0.150000*%
%ADD11C,0.300000*%
%ADD12C,0.120000*%
%ADD13C,0.100000*%
G04 APERTURE END LIST*
D10*
X233672381Y-97617666D02*
X234148571Y-97617666D01*
X233577143Y-97903380D02*
X233910476Y-96903380D01*
X233910476Y-96903380D02*
X234243809Y-97903380D01*
X235005714Y-97855761D02*
X234910476Y-97903380D01*
X234910476Y-97903380D02*
X234720000Y-97903380D01*
X234720000Y-97903380D02*
X234624762Y-97855761D01*
X234624762Y-97855761D02*
X234577143Y-97808142D01*
X234577143Y-97808142D02*
X234529524Y-97712904D01*
X234529524Y-97712904D02*
X234529524Y-97427190D01*
X234529524Y-97427190D02*
X234577143Y-97331952D01*
X234577143Y-97331952D02*
X234624762Y-97284333D01*
X234624762Y-97284333D02*
X234720000Y-97236714D01*
X234720000Y-97236714D02*
X234910476Y-97236714D01*
X234910476Y-97236714D02*
X235005714Y-97284333D01*
X235862857Y-97236714D02*
X235862857Y-98236714D01*
X235862857Y-97855761D02*
X235767619Y-97903380D01*
X235767619Y-97903380D02*
X235577143Y-97903380D01*
X235577143Y-97903380D02*
X235481905Y-97855761D01*
X235481905Y-97855761D02*
X235434286Y-97808142D01*
X235434286Y-97808142D02*
X235386667Y-97712904D01*
X235386667Y-97712904D02*
X235386667Y-97427190D01*
X235386667Y-97427190D02*
X235434286Y-97331952D01*
X235434286Y-97331952D02*
X235481905Y-97284333D01*
X235481905Y-97284333D02*
X235577143Y-97236714D01*
X235577143Y-97236714D02*
X235767619Y-97236714D01*
X235767619Y-97236714D02*
X235862857Y-97284333D01*
X236767619Y-97236714D02*
X236767619Y-97903380D01*
X236339048Y-97236714D02*
X236339048Y-97760523D01*
X236339048Y-97760523D02*
X236386667Y-97855761D01*
X236386667Y-97855761D02*
X236481905Y-97903380D01*
X236481905Y-97903380D02*
X236624762Y-97903380D01*
X236624762Y-97903380D02*
X236720000Y-97855761D01*
X236720000Y-97855761D02*
X236767619Y-97808142D01*
X237243810Y-97903380D02*
X237243810Y-97236714D01*
X237243810Y-96903380D02*
X237196191Y-96951000D01*
X237196191Y-96951000D02*
X237243810Y-96998619D01*
X237243810Y-96998619D02*
X237291429Y-96951000D01*
X237291429Y-96951000D02*
X237243810Y-96903380D01*
X237243810Y-96903380D02*
X237243810Y-96998619D01*
X237720000Y-97903380D02*
X237720000Y-97236714D01*
X237720000Y-97427190D02*
X237767619Y-97331952D01*
X237767619Y-97331952D02*
X237815238Y-97284333D01*
X237815238Y-97284333D02*
X237910476Y-97236714D01*
X237910476Y-97236714D02*
X238005714Y-97236714D01*
X238720000Y-97855761D02*
X238624762Y-97903380D01*
X238624762Y-97903380D02*
X238434286Y-97903380D01*
X238434286Y-97903380D02*
X238339048Y-97855761D01*
X238339048Y-97855761D02*
X238291429Y-97760523D01*
X238291429Y-97760523D02*
X238291429Y-97379571D01*
X238291429Y-97379571D02*
X238339048Y-97284333D01*
X238339048Y-97284333D02*
X238434286Y-97236714D01*
X238434286Y-97236714D02*
X238624762Y-97236714D01*
X238624762Y-97236714D02*
X238720000Y-97284333D01*
X238720000Y-97284333D02*
X238767619Y-97379571D01*
X238767619Y-97379571D02*
X238767619Y-97474809D01*
X238767619Y-97474809D02*
X238291429Y-97570047D01*
X180360571Y-91503571D02*
X180408190Y-91360714D01*
X180408190Y-91360714D02*
X180455809Y-91313095D01*
X180455809Y-91313095D02*
X180551047Y-91265476D01*
X180551047Y-91265476D02*
X180693904Y-91265476D01*
X180693904Y-91265476D02*
X180789142Y-91313095D01*
X180789142Y-91313095D02*
X180836761Y-91360714D01*
X180836761Y-91360714D02*
X180884380Y-91455952D01*
X180884380Y-91455952D02*
X180884380Y-91836904D01*
X180884380Y-91836904D02*
X179884380Y-91836904D01*
X179884380Y-91836904D02*
X179884380Y-91503571D01*
X179884380Y-91503571D02*
X179932000Y-91408333D01*
X179932000Y-91408333D02*
X179979619Y-91360714D01*
X179979619Y-91360714D02*
X180074857Y-91313095D01*
X180074857Y-91313095D02*
X180170095Y-91313095D01*
X180170095Y-91313095D02*
X180265333Y-91360714D01*
X180265333Y-91360714D02*
X180312952Y-91408333D01*
X180312952Y-91408333D02*
X180360571Y-91503571D01*
X180360571Y-91503571D02*
X180360571Y-91836904D01*
X180360571Y-90836904D02*
X180360571Y-90503571D01*
X180884380Y-90360714D02*
X180884380Y-90836904D01*
X180884380Y-90836904D02*
X179884380Y-90836904D01*
X179884380Y-90836904D02*
X179884380Y-90360714D01*
X180884380Y-89455952D02*
X180884380Y-89932142D01*
X180884380Y-89932142D02*
X179884380Y-89932142D01*
X180598666Y-89170237D02*
X180598666Y-88694047D01*
X180884380Y-89265475D02*
X179884380Y-88932142D01*
X179884380Y-88932142D02*
X180884380Y-88598809D01*
X180884380Y-88265475D02*
X179884380Y-88265475D01*
X180884380Y-87694047D02*
X180312952Y-88122618D01*
X179884380Y-87694047D02*
X180455809Y-88265475D01*
X180598666Y-87313094D02*
X180598666Y-86836904D01*
X180884380Y-87408332D02*
X179884380Y-87074999D01*
X179884380Y-87074999D02*
X180884380Y-86741666D01*
X180884380Y-86408332D02*
X179884380Y-86408332D01*
X179884380Y-86408332D02*
X180884380Y-85836904D01*
X180884380Y-85836904D02*
X179884380Y-85836904D01*
X179932000Y-84836904D02*
X179884380Y-84932142D01*
X179884380Y-84932142D02*
X179884380Y-85074999D01*
X179884380Y-85074999D02*
X179932000Y-85217856D01*
X179932000Y-85217856D02*
X180027238Y-85313094D01*
X180027238Y-85313094D02*
X180122476Y-85360713D01*
X180122476Y-85360713D02*
X180312952Y-85408332D01*
X180312952Y-85408332D02*
X180455809Y-85408332D01*
X180455809Y-85408332D02*
X180646285Y-85360713D01*
X180646285Y-85360713D02*
X180741523Y-85313094D01*
X180741523Y-85313094D02*
X180836761Y-85217856D01*
X180836761Y-85217856D02*
X180884380Y-85074999D01*
X180884380Y-85074999D02*
X180884380Y-84979761D01*
X180884380Y-84979761D02*
X180836761Y-84836904D01*
X180836761Y-84836904D02*
X180789142Y-84789285D01*
X180789142Y-84789285D02*
X180455809Y-84789285D01*
X180455809Y-84789285D02*
X180455809Y-84979761D01*
X244379904Y-97903380D02*
X244046571Y-97427190D01*
X243808476Y-97903380D02*
X243808476Y-96903380D01*
X243808476Y-96903380D02*
X244189428Y-96903380D01*
X244189428Y-96903380D02*
X244284666Y-96951000D01*
X244284666Y-96951000D02*
X244332285Y-96998619D01*
X244332285Y-96998619D02*
X244379904Y-97093857D01*
X244379904Y-97093857D02*
X244379904Y-97236714D01*
X244379904Y-97236714D02*
X244332285Y-97331952D01*
X244332285Y-97331952D02*
X244284666Y-97379571D01*
X244284666Y-97379571D02*
X244189428Y-97427190D01*
X244189428Y-97427190D02*
X243808476Y-97427190D01*
X245189428Y-97855761D02*
X245094190Y-97903380D01*
X245094190Y-97903380D02*
X244903714Y-97903380D01*
X244903714Y-97903380D02*
X244808476Y-97855761D01*
X244808476Y-97855761D02*
X244760857Y-97760523D01*
X244760857Y-97760523D02*
X244760857Y-97379571D01*
X244760857Y-97379571D02*
X244808476Y-97284333D01*
X244808476Y-97284333D02*
X244903714Y-97236714D01*
X244903714Y-97236714D02*
X245094190Y-97236714D01*
X245094190Y-97236714D02*
X245189428Y-97284333D01*
X245189428Y-97284333D02*
X245237047Y-97379571D01*
X245237047Y-97379571D02*
X245237047Y-97474809D01*
X245237047Y-97474809D02*
X244760857Y-97570047D01*
X245618000Y-97855761D02*
X245713238Y-97903380D01*
X245713238Y-97903380D02*
X245903714Y-97903380D01*
X245903714Y-97903380D02*
X245998952Y-97855761D01*
X245998952Y-97855761D02*
X246046571Y-97760523D01*
X246046571Y-97760523D02*
X246046571Y-97712904D01*
X246046571Y-97712904D02*
X245998952Y-97617666D01*
X245998952Y-97617666D02*
X245903714Y-97570047D01*
X245903714Y-97570047D02*
X245760857Y-97570047D01*
X245760857Y-97570047D02*
X245665619Y-97522428D01*
X245665619Y-97522428D02*
X245618000Y-97427190D01*
X245618000Y-97427190D02*
X245618000Y-97379571D01*
X245618000Y-97379571D02*
X245665619Y-97284333D01*
X245665619Y-97284333D02*
X245760857Y-97236714D01*
X245760857Y-97236714D02*
X245903714Y-97236714D01*
X245903714Y-97236714D02*
X245998952Y-97284333D01*
X246856095Y-97855761D02*
X246760857Y-97903380D01*
X246760857Y-97903380D02*
X246570381Y-97903380D01*
X246570381Y-97903380D02*
X246475143Y-97855761D01*
X246475143Y-97855761D02*
X246427524Y-97760523D01*
X246427524Y-97760523D02*
X246427524Y-97379571D01*
X246427524Y-97379571D02*
X246475143Y-97284333D01*
X246475143Y-97284333D02*
X246570381Y-97236714D01*
X246570381Y-97236714D02*
X246760857Y-97236714D01*
X246760857Y-97236714D02*
X246856095Y-97284333D01*
X246856095Y-97284333D02*
X246903714Y-97379571D01*
X246903714Y-97379571D02*
X246903714Y-97474809D01*
X246903714Y-97474809D02*
X246427524Y-97570047D01*
X247189429Y-97236714D02*
X247570381Y-97236714D01*
X247332286Y-96903380D02*
X247332286Y-97760523D01*
X247332286Y-97760523D02*
X247379905Y-97855761D01*
X247379905Y-97855761D02*
X247475143Y-97903380D01*
X247475143Y-97903380D02*
X247570381Y-97903380D01*
X255052380Y-89296904D02*
X254052380Y-89296904D01*
X254052380Y-89296904D02*
X254052380Y-89058809D01*
X254052380Y-89058809D02*
X254100000Y-88915952D01*
X254100000Y-88915952D02*
X254195238Y-88820714D01*
X254195238Y-88820714D02*
X254290476Y-88773095D01*
X254290476Y-88773095D02*
X254480952Y-88725476D01*
X254480952Y-88725476D02*
X254623809Y-88725476D01*
X254623809Y-88725476D02*
X254814285Y-88773095D01*
X254814285Y-88773095D02*
X254909523Y-88820714D01*
X254909523Y-88820714D02*
X255004761Y-88915952D01*
X255004761Y-88915952D02*
X255052380Y-89058809D01*
X255052380Y-89058809D02*
X255052380Y-89296904D01*
X254528571Y-88296904D02*
X254528571Y-87963571D01*
X255052380Y-87820714D02*
X255052380Y-88296904D01*
X255052380Y-88296904D02*
X254052380Y-88296904D01*
X254052380Y-88296904D02*
X254052380Y-87820714D01*
X255052380Y-87392142D02*
X254052380Y-87392142D01*
X254052380Y-87392142D02*
X254052380Y-87011190D01*
X254052380Y-87011190D02*
X254100000Y-86915952D01*
X254100000Y-86915952D02*
X254147619Y-86868333D01*
X254147619Y-86868333D02*
X254242857Y-86820714D01*
X254242857Y-86820714D02*
X254385714Y-86820714D01*
X254385714Y-86820714D02*
X254480952Y-86868333D01*
X254480952Y-86868333D02*
X254528571Y-86915952D01*
X254528571Y-86915952D02*
X254576190Y-87011190D01*
X254576190Y-87011190D02*
X254576190Y-87392142D01*
X254766666Y-86439761D02*
X254766666Y-85963571D01*
X255052380Y-86534999D02*
X254052380Y-86201666D01*
X254052380Y-86201666D02*
X255052380Y-85868333D01*
X255052380Y-85534999D02*
X254052380Y-85534999D01*
X254052380Y-85534999D02*
X255052380Y-84963571D01*
X255052380Y-84963571D02*
X254052380Y-84963571D01*
D11*
G36*
X195961196Y-104345231D02*
G01*
X195994428Y-104411696D01*
X195994428Y-104626590D01*
X195961196Y-104693053D01*
X195908844Y-104719229D01*
X195827398Y-104312000D01*
X195894731Y-104312000D01*
X195961196Y-104345231D01*
G37*
G36*
X195912717Y-102999563D02*
G01*
X195949722Y-103036568D01*
X195994428Y-103125981D01*
X195994428Y-103340876D01*
X195980294Y-103369143D01*
X195308562Y-103369143D01*
X195294428Y-103340874D01*
X195294428Y-103125982D01*
X195339135Y-103036566D01*
X195376138Y-102999563D01*
X195465552Y-102954857D01*
X195823304Y-102954857D01*
X195912717Y-102999563D01*
G37*
G36*
X195912717Y-101642420D02*
G01*
X195949722Y-101679425D01*
X195994428Y-101768838D01*
X195994428Y-101912304D01*
X195949721Y-102001718D01*
X195912716Y-102038722D01*
X195823304Y-102083428D01*
X195465552Y-102083428D01*
X195376137Y-102038720D01*
X195339135Y-102001718D01*
X195294428Y-101912304D01*
X195294428Y-101768839D01*
X195339135Y-101679423D01*
X195376138Y-101642420D01*
X195465552Y-101597714D01*
X195823304Y-101597714D01*
X195912717Y-101642420D01*
G37*
G36*
X195532624Y-98059517D02*
G01*
X195565857Y-98125983D01*
X195565857Y-98439641D01*
X195565756Y-98440572D01*
X195308562Y-98440572D01*
X195294428Y-98412303D01*
X195294428Y-98125982D01*
X195327660Y-98059517D01*
X195394124Y-98026286D01*
X195466161Y-98026286D01*
X195532624Y-98059517D01*
G37*
G36*
X198342717Y-97070990D02*
G01*
X198379722Y-97107995D01*
X198424428Y-97197408D01*
X198424428Y-97340874D01*
X198379721Y-97430288D01*
X198342716Y-97467292D01*
X198253304Y-97511998D01*
X197895552Y-97511998D01*
X197806137Y-97467290D01*
X197769135Y-97430288D01*
X197724428Y-97340874D01*
X197724428Y-97197409D01*
X197769135Y-97107993D01*
X197806138Y-97070990D01*
X197895552Y-97026284D01*
X198253304Y-97026284D01*
X198342717Y-97070990D01*
G37*
G36*
X195994428Y-96768839D02*
G01*
X195994428Y-96983733D01*
X195949721Y-97073147D01*
X195912716Y-97110151D01*
X195823304Y-97154857D01*
X195465552Y-97154857D01*
X195376137Y-97110149D01*
X195339135Y-97073147D01*
X195294428Y-96983733D01*
X195294428Y-96768839D01*
X195308562Y-96740571D01*
X195980294Y-96740571D01*
X195994428Y-96768839D01*
G37*
G36*
X196494428Y-93851943D02*
G01*
X196441895Y-94009543D01*
X196341286Y-94110150D01*
X196234932Y-94163328D01*
X195983107Y-94226285D01*
X195805749Y-94226285D01*
X195553926Y-94163329D01*
X195447569Y-94110151D01*
X195346961Y-94009543D01*
X195294428Y-93851943D01*
X195294428Y-93669142D01*
X196494428Y-93669142D01*
X196494428Y-93851943D01*
G37*
G36*
X198391196Y-93630944D02*
G01*
X198424428Y-93697409D01*
X198424428Y-93912303D01*
X198391196Y-93978766D01*
X198338844Y-94004942D01*
X198257398Y-93597713D01*
X198324731Y-93597713D01*
X198391196Y-93630944D01*
G37*
G36*
X198391196Y-91559516D02*
G01*
X198424428Y-91625981D01*
X198424428Y-91840875D01*
X198391196Y-91907338D01*
X198338844Y-91933514D01*
X198257398Y-91526285D01*
X198324731Y-91526285D01*
X198391196Y-91559516D01*
G37*
G36*
X196494428Y-90555161D02*
G01*
X196449721Y-90644575D01*
X196412716Y-90681579D01*
X196323304Y-90726285D01*
X196179838Y-90726285D01*
X196090424Y-90681578D01*
X196053419Y-90644573D01*
X196008714Y-90555161D01*
X196008714Y-90384038D01*
X196012455Y-90347939D01*
X196008714Y-90340536D01*
X196008714Y-90169142D01*
X196494428Y-90169142D01*
X196494428Y-90555161D01*
G37*
G36*
X200162286Y-106276286D02*
G01*
X194153714Y-106276286D01*
X194153714Y-104393067D01*
X194988998Y-104393067D01*
X194994428Y-104406159D01*
X194994428Y-104653925D01*
X194990567Y-104689688D01*
X195004274Y-104717102D01*
X195012912Y-104746520D01*
X195023624Y-104755802D01*
X195091339Y-104891230D01*
X195136024Y-104939270D01*
X195221367Y-104961092D01*
X195304960Y-104933312D01*
X195360263Y-104864748D01*
X195369718Y-104777168D01*
X195294428Y-104626590D01*
X195294428Y-104411696D01*
X195327660Y-104345231D01*
X195394124Y-104312000D01*
X195521457Y-104312000D01*
X195635145Y-104880438D01*
X195632543Y-104898535D01*
X195643611Y-104922772D01*
X195644428Y-104926853D01*
X195652537Y-104942317D01*
X195669136Y-104978662D01*
X195672849Y-104981048D01*
X195674899Y-104984957D01*
X195709635Y-105004689D01*
X195743241Y-105026286D01*
X195747654Y-105026286D01*
X195751492Y-105028466D01*
X195791389Y-105026286D01*
X195922066Y-105026286D01*
X195957830Y-105030147D01*
X195985245Y-105016439D01*
X196014662Y-105007802D01*
X196023943Y-104997090D01*
X196105901Y-104956111D01*
X196111730Y-104956317D01*
X196144934Y-104936595D01*
X196159373Y-104929376D01*
X196163407Y-104925623D01*
X196187467Y-104911333D01*
X196195028Y-104896209D01*
X196207413Y-104884690D01*
X196214346Y-104857573D01*
X196274980Y-104736305D01*
X196294428Y-104706044D01*
X196294428Y-104675392D01*
X196299858Y-104645218D01*
X196294428Y-104632126D01*
X196294428Y-104384363D01*
X196298289Y-104348599D01*
X196284581Y-104321184D01*
X196275944Y-104291766D01*
X196265232Y-104282484D01*
X196224254Y-104200527D01*
X196224460Y-104194697D01*
X196204732Y-104161484D01*
X196197519Y-104147056D01*
X196193768Y-104143023D01*
X196179476Y-104118961D01*
X196164352Y-104111399D01*
X196152834Y-104099016D01*
X196125717Y-104092081D01*
X196004446Y-104031447D01*
X195974186Y-104012000D01*
X195943534Y-104012000D01*
X195913360Y-104006570D01*
X195900268Y-104012000D01*
X195684059Y-104012000D01*
X195680221Y-104009820D01*
X195640324Y-104012000D01*
X195366790Y-104012000D01*
X195331027Y-104008139D01*
X195303612Y-104021846D01*
X195274194Y-104030484D01*
X195264912Y-104041195D01*
X195182955Y-104082173D01*
X195177127Y-104081968D01*
X195143922Y-104101690D01*
X195129484Y-104108909D01*
X195125449Y-104112661D01*
X195101390Y-104126952D01*
X195093828Y-104142075D01*
X195081444Y-104153595D01*
X195074510Y-104180710D01*
X195013873Y-104301983D01*
X194994428Y-104332242D01*
X194994428Y-104362893D01*
X194988998Y-104393067D01*
X194153714Y-104393067D01*
X194153714Y-103107352D01*
X194988998Y-103107352D01*
X194994428Y-103120444D01*
X194994428Y-103368209D01*
X194990567Y-103403973D01*
X195004274Y-103431388D01*
X195008758Y-103446657D01*
X195002223Y-103454200D01*
X194989686Y-103541392D01*
X195026279Y-103621519D01*
X195100384Y-103669143D01*
X195196982Y-103669143D01*
X195221366Y-103675378D01*
X195240128Y-103669143D01*
X196070339Y-103669143D01*
X196111731Y-103670602D01*
X196114187Y-103669143D01*
X196665996Y-103669143D01*
X196728948Y-103650659D01*
X196786633Y-103584086D01*
X196799170Y-103496894D01*
X196762577Y-103416767D01*
X196688472Y-103369143D01*
X196298123Y-103369143D01*
X196299858Y-103359503D01*
X196294428Y-103346411D01*
X196294428Y-103098647D01*
X196298289Y-103062884D01*
X196284581Y-103035469D01*
X196275944Y-103006051D01*
X196265232Y-102996769D01*
X196215574Y-102897453D01*
X196210210Y-102872792D01*
X196180998Y-102843580D01*
X196152833Y-102813301D01*
X196149992Y-102812574D01*
X196120935Y-102783517D01*
X196108047Y-102761818D01*
X196071095Y-102743342D01*
X196034802Y-102723524D01*
X196031877Y-102723733D01*
X195933016Y-102674302D01*
X195902758Y-102654857D01*
X195872107Y-102654857D01*
X195841932Y-102649427D01*
X195828840Y-102654857D01*
X195438218Y-102654857D01*
X195402455Y-102650996D01*
X195375040Y-102664703D01*
X195345622Y-102673341D01*
X195336340Y-102684052D01*
X195237022Y-102733710D01*
X195212362Y-102739076D01*
X195183154Y-102768283D01*
X195152872Y-102796452D01*
X195152145Y-102799292D01*
X195123088Y-102828350D01*
X195101390Y-102841238D01*
X195082915Y-102878187D01*
X195063096Y-102914484D01*
X195063305Y-102917407D01*
X195013878Y-103016261D01*
X194994428Y-103046527D01*
X194994428Y-103077180D01*
X194988998Y-103107352D01*
X194153714Y-103107352D01*
X194153714Y-101750209D01*
X194988998Y-101750209D01*
X194994428Y-101763301D01*
X194994428Y-101939639D01*
X194990567Y-101975402D01*
X195004274Y-102002816D01*
X195012912Y-102032234D01*
X195023624Y-102041516D01*
X195073282Y-102140830D01*
X195078647Y-102165492D01*
X195107853Y-102194698D01*
X195136024Y-102224984D01*
X195138864Y-102225710D01*
X195167919Y-102254766D01*
X195180809Y-102276467D01*
X195217767Y-102294946D01*
X195254053Y-102314760D01*
X195256977Y-102314550D01*
X195355836Y-102363980D01*
X195386098Y-102383428D01*
X195416750Y-102383428D01*
X195446924Y-102388858D01*
X195460016Y-102383428D01*
X195850638Y-102383428D01*
X195886401Y-102387289D01*
X195913815Y-102373581D01*
X195943234Y-102364944D01*
X195952515Y-102354232D01*
X196051831Y-102304574D01*
X196076493Y-102299210D01*
X196105704Y-102269998D01*
X196135984Y-102241833D01*
X196136710Y-102238992D01*
X196165767Y-102209935D01*
X196187467Y-102197047D01*
X196205941Y-102160097D01*
X196225761Y-102123802D01*
X196225551Y-102120877D01*
X196274980Y-102022019D01*
X196294428Y-101991758D01*
X196294428Y-101961106D01*
X196299858Y-101930932D01*
X196294428Y-101917840D01*
X196294428Y-101741504D01*
X196298289Y-101705741D01*
X196284581Y-101678326D01*
X196275944Y-101648908D01*
X196265232Y-101639626D01*
X196215574Y-101540310D01*
X196210210Y-101515649D01*
X196180998Y-101486437D01*
X196152833Y-101456158D01*
X196149992Y-101455431D01*
X196120935Y-101426374D01*
X196108047Y-101404675D01*
X196071095Y-101386199D01*
X196034802Y-101366381D01*
X196031877Y-101366590D01*
X195933016Y-101317159D01*
X195902758Y-101297714D01*
X195872107Y-101297714D01*
X195841932Y-101292284D01*
X195828840Y-101297714D01*
X195438218Y-101297714D01*
X195402455Y-101293853D01*
X195375040Y-101307560D01*
X195345622Y-101316198D01*
X195336340Y-101326909D01*
X195237022Y-101376567D01*
X195212362Y-101381933D01*
X195183154Y-101411140D01*
X195152872Y-101439309D01*
X195152145Y-101442149D01*
X195123088Y-101471207D01*
X195101390Y-101484095D01*
X195082915Y-101521044D01*
X195063096Y-101557341D01*
X195063305Y-101560264D01*
X195013878Y-101659118D01*
X194994428Y-101689384D01*
X194994428Y-101720037D01*
X194988998Y-101750209D01*
X194153714Y-101750209D01*
X194153714Y-100464495D01*
X194988998Y-100464495D01*
X194994428Y-100477587D01*
X194994428Y-100725352D01*
X194990567Y-100761116D01*
X195004274Y-100788531D01*
X195012912Y-100817948D01*
X195023623Y-100827229D01*
X195091338Y-100962659D01*
X195136024Y-101010699D01*
X195221366Y-101032521D01*
X195304960Y-101004741D01*
X195360263Y-100936178D01*
X195369718Y-100848598D01*
X195294428Y-100698017D01*
X195294428Y-100483125D01*
X195339135Y-100393709D01*
X195376138Y-100356706D01*
X195465552Y-100312000D01*
X195823304Y-100312000D01*
X195912717Y-100356706D01*
X195949722Y-100393711D01*
X195994428Y-100483124D01*
X195994428Y-100698019D01*
X195929190Y-100828496D01*
X195917570Y-100893068D01*
X195951318Y-100974435D01*
X196023698Y-101024642D01*
X196111731Y-101027745D01*
X196187468Y-100982762D01*
X196274981Y-100807731D01*
X196294428Y-100777472D01*
X196294428Y-100746820D01*
X196299858Y-100716646D01*
X196294428Y-100703554D01*
X196294428Y-100455790D01*
X196298289Y-100420027D01*
X196284581Y-100392612D01*
X196275944Y-100363194D01*
X196265232Y-100353912D01*
X196215574Y-100254596D01*
X196210210Y-100229935D01*
X196180998Y-100200723D01*
X196152833Y-100170444D01*
X196149992Y-100169717D01*
X196120935Y-100140660D01*
X196108047Y-100118961D01*
X196071095Y-100100485D01*
X196034802Y-100080667D01*
X196031877Y-100080876D01*
X195933016Y-100031445D01*
X195902758Y-100012000D01*
X195872107Y-100012000D01*
X195841932Y-100006570D01*
X195828840Y-100012000D01*
X195438218Y-100012000D01*
X195402455Y-100008139D01*
X195375040Y-100021846D01*
X195345622Y-100030484D01*
X195336340Y-100041195D01*
X195237022Y-100090853D01*
X195212362Y-100096219D01*
X195183154Y-100125426D01*
X195152872Y-100153595D01*
X195152145Y-100156435D01*
X195123088Y-100185493D01*
X195101390Y-100198381D01*
X195082915Y-100235330D01*
X195063096Y-100271627D01*
X195063305Y-100274550D01*
X195013878Y-100373404D01*
X194994428Y-100403670D01*
X194994428Y-100434323D01*
X194988998Y-100464495D01*
X194153714Y-100464495D01*
X194153714Y-99327106D01*
X194989686Y-99327106D01*
X195026279Y-99407233D01*
X195100384Y-99454857D01*
X195823303Y-99454857D01*
X195912717Y-99499564D01*
X195949722Y-99536569D01*
X195994428Y-99625982D01*
X195994428Y-99754997D01*
X196012912Y-99817949D01*
X196079485Y-99875634D01*
X196166677Y-99888171D01*
X196246804Y-99851578D01*
X196294428Y-99777473D01*
X196294428Y-99598648D01*
X196298289Y-99562885D01*
X196284581Y-99535470D01*
X196275944Y-99506052D01*
X196265232Y-99496770D01*
X196232807Y-99431919D01*
X196286633Y-99369800D01*
X196299170Y-99282608D01*
X196262577Y-99202481D01*
X196188472Y-99154857D01*
X195872105Y-99154857D01*
X195841933Y-99149427D01*
X195828841Y-99154857D01*
X195122860Y-99154857D01*
X195059908Y-99173341D01*
X195002223Y-99239914D01*
X194989686Y-99327106D01*
X194153714Y-99327106D01*
X194153714Y-98107353D01*
X194988998Y-98107353D01*
X194994428Y-98120445D01*
X194994428Y-98439638D01*
X194990567Y-98475402D01*
X195004274Y-98502817D01*
X195008758Y-98518086D01*
X195002223Y-98525629D01*
X194989686Y-98612821D01*
X195026279Y-98692948D01*
X195100384Y-98740572D01*
X195196982Y-98740572D01*
X195221366Y-98746807D01*
X195240128Y-98740572D01*
X195768407Y-98740572D01*
X195792794Y-98746808D01*
X195811559Y-98740572D01*
X195922066Y-98740572D01*
X195957830Y-98744433D01*
X195985245Y-98730725D01*
X196014662Y-98722088D01*
X196023943Y-98711376D01*
X196105901Y-98670397D01*
X196111730Y-98670603D01*
X196144934Y-98650881D01*
X196159373Y-98643662D01*
X196163407Y-98639909D01*
X196187467Y-98625619D01*
X196195028Y-98610495D01*
X196207413Y-98598976D01*
X196214346Y-98571859D01*
X196274980Y-98450591D01*
X196294428Y-98420330D01*
X196294428Y-98389678D01*
X196299858Y-98359504D01*
X196294428Y-98346412D01*
X196294428Y-98327104D01*
X197419686Y-98327104D01*
X197456279Y-98407231D01*
X197530384Y-98454855D01*
X198253303Y-98454855D01*
X198342717Y-98499562D01*
X198379722Y-98536567D01*
X198424428Y-98625980D01*
X198424428Y-98754995D01*
X198442912Y-98817947D01*
X198509485Y-98875632D01*
X198596677Y-98888169D01*
X198676804Y-98851576D01*
X198724428Y-98777471D01*
X198724428Y-98598646D01*
X198728289Y-98562883D01*
X198714581Y-98535468D01*
X198705944Y-98506050D01*
X198695232Y-98496768D01*
X198662807Y-98431917D01*
X198716633Y-98369798D01*
X198729170Y-98282606D01*
X198692577Y-98202479D01*
X198618472Y-98154855D01*
X198302105Y-98154855D01*
X198271933Y-98149425D01*
X198258841Y-98154855D01*
X197552860Y-98154855D01*
X197489908Y-98173339D01*
X197432223Y-98239912D01*
X197419686Y-98327104D01*
X196294428Y-98327104D01*
X196294428Y-98098649D01*
X196298289Y-98062885D01*
X196284581Y-98035470D01*
X196275944Y-98006052D01*
X196265232Y-97996770D01*
X196197519Y-97861342D01*
X196152834Y-97813302D01*
X196067492Y-97791479D01*
X195983898Y-97819258D01*
X195928595Y-97887821D01*
X195919139Y-97975401D01*
X195994428Y-98125982D01*
X195994428Y-98340876D01*
X195961196Y-98407339D01*
X195894731Y-98440572D01*
X195879990Y-98440572D01*
X195865857Y-98412305D01*
X195865857Y-98098648D01*
X195869718Y-98062884D01*
X195856010Y-98035468D01*
X195847373Y-98006052D01*
X195836661Y-97996770D01*
X195795682Y-97914812D01*
X195795888Y-97908984D01*
X195776166Y-97875779D01*
X195768947Y-97861341D01*
X195765194Y-97857306D01*
X195750904Y-97833247D01*
X195735780Y-97825685D01*
X195724261Y-97813301D01*
X195697144Y-97806367D01*
X195575873Y-97745731D01*
X195545615Y-97726286D01*
X195514964Y-97726286D01*
X195484789Y-97720856D01*
X195471697Y-97726286D01*
X195366790Y-97726286D01*
X195331027Y-97722425D01*
X195303612Y-97736132D01*
X195274194Y-97744770D01*
X195264912Y-97755481D01*
X195182955Y-97796459D01*
X195177127Y-97796254D01*
X195143922Y-97815976D01*
X195129484Y-97823195D01*
X195125449Y-97826947D01*
X195101390Y-97841238D01*
X195093828Y-97856361D01*
X195081444Y-97867881D01*
X195074510Y-97894996D01*
X195013873Y-98016269D01*
X194994428Y-98046528D01*
X194994428Y-98077179D01*
X194988998Y-98107353D01*
X194153714Y-98107353D01*
X194153714Y-96750210D01*
X194988998Y-96750210D01*
X194994428Y-96763302D01*
X194994428Y-97011068D01*
X194990567Y-97046831D01*
X195004274Y-97074245D01*
X195012912Y-97103663D01*
X195023624Y-97112945D01*
X195073282Y-97212259D01*
X195078647Y-97236921D01*
X195107853Y-97266127D01*
X195136024Y-97296413D01*
X195138864Y-97297139D01*
X195167919Y-97326195D01*
X195180809Y-97347896D01*
X195217767Y-97366375D01*
X195254053Y-97386189D01*
X195256977Y-97385979D01*
X195355836Y-97435409D01*
X195386098Y-97454857D01*
X195416750Y-97454857D01*
X195446924Y-97460287D01*
X195460016Y-97454857D01*
X195850638Y-97454857D01*
X195886401Y-97458718D01*
X195913815Y-97445010D01*
X195943234Y-97436373D01*
X195952515Y-97425661D01*
X196051831Y-97376003D01*
X196076493Y-97370639D01*
X196105704Y-97341427D01*
X196135984Y-97313262D01*
X196136710Y-97310421D01*
X196165767Y-97281364D01*
X196187467Y-97268476D01*
X196205941Y-97231526D01*
X196225761Y-97195231D01*
X196225551Y-97192306D01*
X196232315Y-97178779D01*
X197418998Y-97178779D01*
X197424428Y-97191871D01*
X197424428Y-97368209D01*
X197420567Y-97403972D01*
X197434274Y-97431386D01*
X197442912Y-97460804D01*
X197453624Y-97470086D01*
X197503282Y-97569400D01*
X197508647Y-97594062D01*
X197537853Y-97623268D01*
X197566024Y-97653554D01*
X197568864Y-97654280D01*
X197597919Y-97683336D01*
X197610809Y-97705037D01*
X197647767Y-97723516D01*
X197684053Y-97743330D01*
X197686977Y-97743120D01*
X197785836Y-97792550D01*
X197816098Y-97811998D01*
X197846750Y-97811998D01*
X197876924Y-97817428D01*
X197890016Y-97811998D01*
X198280638Y-97811998D01*
X198316401Y-97815859D01*
X198343815Y-97802151D01*
X198373234Y-97793514D01*
X198382515Y-97782802D01*
X198481831Y-97733144D01*
X198506493Y-97727780D01*
X198535704Y-97698568D01*
X198565984Y-97670403D01*
X198566710Y-97667562D01*
X198595767Y-97638505D01*
X198617467Y-97625617D01*
X198635941Y-97588667D01*
X198655761Y-97552372D01*
X198655551Y-97549447D01*
X198704980Y-97450589D01*
X198724428Y-97420328D01*
X198724428Y-97389676D01*
X198729858Y-97359502D01*
X198724428Y-97346410D01*
X198724428Y-97170074D01*
X198728289Y-97134311D01*
X198714581Y-97106896D01*
X198705944Y-97077478D01*
X198695232Y-97068196D01*
X198645574Y-96968880D01*
X198640210Y-96944219D01*
X198610998Y-96915007D01*
X198582833Y-96884728D01*
X198579992Y-96884001D01*
X198550935Y-96854944D01*
X198538047Y-96833245D01*
X198501095Y-96814769D01*
X198464802Y-96794951D01*
X198461877Y-96795160D01*
X198363016Y-96745729D01*
X198332758Y-96726284D01*
X198302107Y-96726284D01*
X198271932Y-96720854D01*
X198258840Y-96726284D01*
X197868218Y-96726284D01*
X197832455Y-96722423D01*
X197805040Y-96736130D01*
X197775622Y-96744768D01*
X197766340Y-96755479D01*
X197667022Y-96805137D01*
X197642362Y-96810503D01*
X197613154Y-96839710D01*
X197582872Y-96867879D01*
X197582145Y-96870719D01*
X197553088Y-96899777D01*
X197531390Y-96912665D01*
X197512915Y-96949614D01*
X197493096Y-96985911D01*
X197493305Y-96988834D01*
X197443878Y-97087688D01*
X197424428Y-97117954D01*
X197424428Y-97148607D01*
X197418998Y-97178779D01*
X196232315Y-97178779D01*
X196274980Y-97093448D01*
X196294428Y-97063187D01*
X196294428Y-97032535D01*
X196299858Y-97002361D01*
X196294428Y-96989269D01*
X196294428Y-96741506D01*
X196294529Y-96740571D01*
X196665996Y-96740571D01*
X196728948Y-96722087D01*
X196786633Y-96655514D01*
X196799170Y-96568322D01*
X196762577Y-96488195D01*
X196688472Y-96440571D01*
X196091875Y-96440571D01*
X196067492Y-96434336D01*
X196048729Y-96440571D01*
X195218521Y-96440571D01*
X195177127Y-96439111D01*
X195174669Y-96440571D01*
X195122860Y-96440571D01*
X195059908Y-96459055D01*
X195002223Y-96525628D01*
X194989686Y-96612820D01*
X195012096Y-96661891D01*
X194994428Y-96689385D01*
X194994428Y-96720036D01*
X194988998Y-96750210D01*
X194153714Y-96750210D01*
X194153714Y-96321636D01*
X197418998Y-96321636D01*
X197424428Y-96334728D01*
X197424428Y-96469280D01*
X197442912Y-96532232D01*
X197509485Y-96589917D01*
X197596677Y-96602454D01*
X197676804Y-96565861D01*
X197724428Y-96491756D01*
X197724428Y-96340266D01*
X197757660Y-96273800D01*
X197824124Y-96240569D01*
X198424428Y-96240569D01*
X198424428Y-96469280D01*
X198442912Y-96532232D01*
X198509485Y-96589917D01*
X198596677Y-96602454D01*
X198676804Y-96565861D01*
X198724428Y-96491756D01*
X198724428Y-96240569D01*
X199095996Y-96240569D01*
X199158948Y-96222085D01*
X199216633Y-96155512D01*
X199229170Y-96068320D01*
X199192577Y-95988193D01*
X199118472Y-95940569D01*
X198724428Y-95940569D01*
X198724428Y-95854716D01*
X198705944Y-95791764D01*
X198639371Y-95734079D01*
X198552179Y-95721542D01*
X198472052Y-95758135D01*
X198424428Y-95832240D01*
X198424428Y-95940569D01*
X197796789Y-95940569D01*
X197761025Y-95936708D01*
X197733609Y-95950416D01*
X197704194Y-95959053D01*
X197694912Y-95969764D01*
X197612956Y-96010743D01*
X197607127Y-96010538D01*
X197573913Y-96030265D01*
X197559484Y-96037480D01*
X197555452Y-96041230D01*
X197531390Y-96055522D01*
X197523828Y-96070645D01*
X197511444Y-96082165D01*
X197504510Y-96109280D01*
X197443878Y-96230545D01*
X197424428Y-96260811D01*
X197424428Y-96291464D01*
X197418998Y-96321636D01*
X194153714Y-96321636D01*
X194153714Y-94824502D01*
X194632191Y-94824502D01*
X194667433Y-94905233D01*
X196650598Y-96227342D01*
X196713230Y-96246882D01*
X196798155Y-96223488D01*
X196856952Y-96157894D01*
X196870951Y-96070926D01*
X196835709Y-95990195D01*
X195404298Y-95035922D01*
X197418998Y-95035922D01*
X197424428Y-95049014D01*
X197424428Y-95296779D01*
X197420567Y-95332543D01*
X197434274Y-95359958D01*
X197442912Y-95389375D01*
X197453623Y-95398656D01*
X197521338Y-95534086D01*
X197566024Y-95582126D01*
X197651366Y-95603948D01*
X197734960Y-95576168D01*
X197790263Y-95507605D01*
X197799718Y-95420025D01*
X197724428Y-95269444D01*
X197724428Y-95054552D01*
X197769135Y-94965136D01*
X197806138Y-94928133D01*
X197895552Y-94883427D01*
X198253304Y-94883427D01*
X198342717Y-94928133D01*
X198379722Y-94965138D01*
X198424428Y-95054551D01*
X198424428Y-95269446D01*
X198359190Y-95399923D01*
X198347570Y-95464495D01*
X198381318Y-95545862D01*
X198453698Y-95596069D01*
X198541731Y-95599172D01*
X198617468Y-95554189D01*
X198704981Y-95379158D01*
X198724428Y-95348899D01*
X198724428Y-95318247D01*
X198729858Y-95288073D01*
X198724428Y-95274981D01*
X198724428Y-95027217D01*
X198728289Y-94991454D01*
X198714581Y-94964039D01*
X198705944Y-94934621D01*
X198695232Y-94925339D01*
X198645574Y-94826023D01*
X198640210Y-94801362D01*
X198610998Y-94772150D01*
X198582833Y-94741871D01*
X198579992Y-94741144D01*
X198550935Y-94712087D01*
X198538047Y-94690388D01*
X198501095Y-94671912D01*
X198464802Y-94652094D01*
X198461877Y-94652303D01*
X198363016Y-94602872D01*
X198332758Y-94583427D01*
X198302107Y-94583427D01*
X198271932Y-94577997D01*
X198258840Y-94583427D01*
X197868218Y-94583427D01*
X197832455Y-94579566D01*
X197805040Y-94593273D01*
X197775622Y-94601911D01*
X197766340Y-94612622D01*
X197667022Y-94662280D01*
X197642362Y-94667646D01*
X197613154Y-94696853D01*
X197582872Y-94725022D01*
X197582145Y-94727862D01*
X197553088Y-94756920D01*
X197531390Y-94769808D01*
X197512915Y-94806757D01*
X197493096Y-94843054D01*
X197493305Y-94845977D01*
X197443878Y-94944831D01*
X197424428Y-94975097D01*
X197424428Y-95005750D01*
X197418998Y-95035922D01*
X195404298Y-95035922D01*
X194852544Y-94668086D01*
X194789912Y-94648546D01*
X194704987Y-94671940D01*
X194646190Y-94737534D01*
X194632191Y-94824502D01*
X194153714Y-94824502D01*
X194153714Y-93881936D01*
X194988198Y-93881936D01*
X195001261Y-93921127D01*
X195012912Y-93960805D01*
X195015127Y-93962724D01*
X195070999Y-94130340D01*
X195078647Y-94165493D01*
X195100323Y-94187169D01*
X195117818Y-94212342D01*
X195130913Y-94217759D01*
X195239347Y-94326193D01*
X195252237Y-94347895D01*
X195289207Y-94366380D01*
X195325483Y-94386188D01*
X195328405Y-94385979D01*
X195410592Y-94427072D01*
X195422462Y-94439696D01*
X195449215Y-94446384D01*
X195453779Y-94448666D01*
X195470069Y-94451597D01*
X195726954Y-94515818D01*
X195743241Y-94526285D01*
X195768821Y-94526285D01*
X195771829Y-94527037D01*
X195790334Y-94526285D01*
X195976883Y-94526285D01*
X195995222Y-94532489D01*
X196020038Y-94526285D01*
X196023139Y-94526285D01*
X196040912Y-94521066D01*
X196297744Y-94456858D01*
X196314973Y-94458718D01*
X196339640Y-94446384D01*
X196344589Y-94445147D01*
X196358861Y-94436773D01*
X196480400Y-94376003D01*
X196505064Y-94370638D01*
X196534289Y-94341413D01*
X196564555Y-94313261D01*
X196565281Y-94310421D01*
X196673357Y-94202346D01*
X196701375Y-94179789D01*
X196711068Y-94150709D01*
X196725760Y-94123803D01*
X196724748Y-94109666D01*
X196780783Y-93941559D01*
X196794428Y-93920329D01*
X196794428Y-93879006D01*
X196795922Y-93837691D01*
X196794428Y-93835170D01*
X196794428Y-93678780D01*
X197418998Y-93678780D01*
X197424428Y-93691872D01*
X197424428Y-93939638D01*
X197420567Y-93975401D01*
X197434274Y-94002815D01*
X197442912Y-94032233D01*
X197453624Y-94041515D01*
X197521339Y-94176943D01*
X197566024Y-94224983D01*
X197651367Y-94246805D01*
X197734960Y-94219025D01*
X197790263Y-94150461D01*
X197799718Y-94062881D01*
X197724428Y-93912303D01*
X197724428Y-93697409D01*
X197757660Y-93630944D01*
X197824124Y-93597713D01*
X197951457Y-93597713D01*
X198065145Y-94166151D01*
X198062543Y-94184248D01*
X198073611Y-94208485D01*
X198074428Y-94212566D01*
X198082537Y-94228030D01*
X198099136Y-94264375D01*
X198102849Y-94266761D01*
X198104899Y-94270670D01*
X198139635Y-94290402D01*
X198173241Y-94311999D01*
X198177654Y-94311999D01*
X198181492Y-94314179D01*
X198221389Y-94311999D01*
X198352066Y-94311999D01*
X198387830Y-94315860D01*
X198415245Y-94302152D01*
X198444662Y-94293515D01*
X198453943Y-94282803D01*
X198535901Y-94241824D01*
X198541730Y-94242030D01*
X198574934Y-94222308D01*
X198589373Y-94215089D01*
X198593407Y-94211336D01*
X198617467Y-94197046D01*
X198625028Y-94181922D01*
X198637413Y-94170403D01*
X198644346Y-94143286D01*
X198704980Y-94022018D01*
X198724428Y-93991757D01*
X198724428Y-93961105D01*
X198729858Y-93930931D01*
X198724428Y-93917839D01*
X198724428Y-93670076D01*
X198728289Y-93634312D01*
X198714581Y-93606897D01*
X198705944Y-93577479D01*
X198695232Y-93568197D01*
X198654254Y-93486240D01*
X198654460Y-93480410D01*
X198634732Y-93447197D01*
X198627519Y-93432769D01*
X198623768Y-93428736D01*
X198609476Y-93404674D01*
X198594352Y-93397112D01*
X198582834Y-93384729D01*
X198555717Y-93377794D01*
X198434446Y-93317160D01*
X198404186Y-93297713D01*
X198373534Y-93297713D01*
X198343360Y-93292283D01*
X198330268Y-93297713D01*
X198114059Y-93297713D01*
X198110221Y-93295533D01*
X198070324Y-93297713D01*
X197796790Y-93297713D01*
X197761027Y-93293852D01*
X197733612Y-93307559D01*
X197704194Y-93316197D01*
X197694912Y-93326908D01*
X197612955Y-93367886D01*
X197607127Y-93367681D01*
X197573922Y-93387403D01*
X197559484Y-93394622D01*
X197555449Y-93398374D01*
X197531390Y-93412665D01*
X197523828Y-93427788D01*
X197511444Y-93439308D01*
X197504510Y-93466423D01*
X197443873Y-93587696D01*
X197424428Y-93617955D01*
X197424428Y-93648606D01*
X197418998Y-93678780D01*
X196794428Y-93678780D01*
X196794428Y-93529873D01*
X196799170Y-93496893D01*
X196785329Y-93466586D01*
X196775944Y-93434622D01*
X196767318Y-93427147D01*
X196762577Y-93416766D01*
X196734549Y-93398753D01*
X196709371Y-93376937D01*
X196698073Y-93375312D01*
X196688472Y-93369142D01*
X196655159Y-93369142D01*
X196622179Y-93364400D01*
X196611796Y-93369142D01*
X195155159Y-93369142D01*
X195122179Y-93364400D01*
X195091872Y-93378240D01*
X195059908Y-93387626D01*
X195052433Y-93396251D01*
X195042052Y-93400993D01*
X195024039Y-93429020D01*
X195002223Y-93454199D01*
X195000598Y-93465496D01*
X194994428Y-93475098D01*
X194994428Y-93508411D01*
X194989686Y-93541391D01*
X194994428Y-93551774D01*
X194994428Y-93857479D01*
X194988198Y-93881936D01*
X194153714Y-93881936D01*
X194153714Y-92964494D01*
X197418998Y-92964494D01*
X197452745Y-93045861D01*
X197525125Y-93096068D01*
X197613158Y-93099173D01*
X197688895Y-93054190D01*
X197757660Y-92916658D01*
X197824124Y-92883427D01*
X199095996Y-92883427D01*
X199158948Y-92864943D01*
X199216633Y-92798370D01*
X199229170Y-92711178D01*
X199192577Y-92631051D01*
X199118472Y-92583427D01*
X197796789Y-92583427D01*
X197761025Y-92579566D01*
X197733609Y-92593274D01*
X197704194Y-92601911D01*
X197694912Y-92612622D01*
X197612956Y-92653601D01*
X197607127Y-92653396D01*
X197573913Y-92673123D01*
X197559484Y-92680338D01*
X197555452Y-92684088D01*
X197531390Y-92698380D01*
X197523828Y-92713503D01*
X197511444Y-92725023D01*
X197504510Y-92752138D01*
X197430619Y-92899922D01*
X197418998Y-92964494D01*
X194153714Y-92964494D01*
X194153714Y-92827105D01*
X194989686Y-92827105D01*
X195026279Y-92907232D01*
X195100384Y-92954856D01*
X196665996Y-92954856D01*
X196728948Y-92936372D01*
X196786633Y-92869799D01*
X196799170Y-92782607D01*
X196762577Y-92702480D01*
X196688472Y-92654856D01*
X195122860Y-92654856D01*
X195059908Y-92673340D01*
X195002223Y-92739913D01*
X194989686Y-92827105D01*
X194153714Y-92827105D01*
X194153714Y-91541391D01*
X194989686Y-91541391D01*
X195026279Y-91621518D01*
X195100384Y-91669142D01*
X195780142Y-91669142D01*
X195780142Y-92040710D01*
X195798626Y-92103662D01*
X195865199Y-92161347D01*
X195952391Y-92173884D01*
X196032518Y-92137291D01*
X196080142Y-92063186D01*
X196080142Y-91669142D01*
X196494428Y-91669142D01*
X196494428Y-92254996D01*
X196512912Y-92317948D01*
X196579485Y-92375633D01*
X196666677Y-92388170D01*
X196746804Y-92351577D01*
X196794428Y-92277472D01*
X196794428Y-91607352D01*
X197418998Y-91607352D01*
X197424428Y-91620444D01*
X197424428Y-91868210D01*
X197420567Y-91903973D01*
X197434274Y-91931387D01*
X197442912Y-91960805D01*
X197453624Y-91970087D01*
X197521339Y-92105515D01*
X197566024Y-92153555D01*
X197651367Y-92175377D01*
X197734960Y-92147597D01*
X197790263Y-92079033D01*
X197799718Y-91991453D01*
X197724428Y-91840875D01*
X197724428Y-91625981D01*
X197757660Y-91559516D01*
X197824124Y-91526285D01*
X197951457Y-91526285D01*
X198065145Y-92094723D01*
X198062543Y-92112820D01*
X198073611Y-92137057D01*
X198074428Y-92141138D01*
X198082537Y-92156602D01*
X198099136Y-92192947D01*
X198102849Y-92195333D01*
X198104899Y-92199242D01*
X198139635Y-92218974D01*
X198173241Y-92240571D01*
X198177654Y-92240571D01*
X198181492Y-92242751D01*
X198221389Y-92240571D01*
X198352066Y-92240571D01*
X198387830Y-92244432D01*
X198415245Y-92230724D01*
X198444662Y-92222087D01*
X198453943Y-92211375D01*
X198535901Y-92170396D01*
X198541730Y-92170602D01*
X198574934Y-92150880D01*
X198589373Y-92143661D01*
X198593407Y-92139908D01*
X198617467Y-92125618D01*
X198625028Y-92110494D01*
X198637413Y-92098975D01*
X198644346Y-92071858D01*
X198704980Y-91950590D01*
X198724428Y-91920329D01*
X198724428Y-91889677D01*
X198729858Y-91859503D01*
X198724428Y-91846411D01*
X198724428Y-91598648D01*
X198728289Y-91562884D01*
X198714581Y-91535469D01*
X198705944Y-91506051D01*
X198695232Y-91496769D01*
X198654254Y-91414812D01*
X198654460Y-91408982D01*
X198634732Y-91375769D01*
X198627519Y-91361341D01*
X198623768Y-91357308D01*
X198609476Y-91333246D01*
X198594352Y-91325684D01*
X198582834Y-91313301D01*
X198555717Y-91306366D01*
X198434446Y-91245732D01*
X198404186Y-91226285D01*
X198373534Y-91226285D01*
X198343360Y-91220855D01*
X198330268Y-91226285D01*
X198114059Y-91226285D01*
X198110221Y-91224105D01*
X198070324Y-91226285D01*
X197796790Y-91226285D01*
X197761027Y-91222424D01*
X197733612Y-91236131D01*
X197704194Y-91244769D01*
X197694912Y-91255480D01*
X197612955Y-91296458D01*
X197607127Y-91296253D01*
X197573922Y-91315975D01*
X197559484Y-91323194D01*
X197555449Y-91326946D01*
X197531390Y-91341237D01*
X197523828Y-91356360D01*
X197511444Y-91367880D01*
X197504510Y-91394995D01*
X197443873Y-91516268D01*
X197424428Y-91546527D01*
X197424428Y-91577178D01*
X197418998Y-91607352D01*
X196794428Y-91607352D01*
X196794428Y-91529873D01*
X196799170Y-91496893D01*
X196785329Y-91466586D01*
X196775944Y-91434622D01*
X196767318Y-91427147D01*
X196762577Y-91416766D01*
X196734549Y-91398753D01*
X196709371Y-91376937D01*
X196698073Y-91375312D01*
X196688472Y-91369142D01*
X196655159Y-91369142D01*
X196622179Y-91364400D01*
X196611796Y-91369142D01*
X195940873Y-91369142D01*
X195907893Y-91364400D01*
X195897510Y-91369142D01*
X195122860Y-91369142D01*
X195059908Y-91387626D01*
X195002223Y-91454199D01*
X194989686Y-91541391D01*
X194153714Y-91541391D01*
X194153714Y-90041391D01*
X194989686Y-90041391D01*
X195026279Y-90121518D01*
X195100384Y-90169142D01*
X195708714Y-90169142D01*
X195708714Y-90298187D01*
X195040739Y-90765769D01*
X194999767Y-90817012D01*
X194990687Y-90904631D01*
X195030417Y-90983251D01*
X195106345Y-91027909D01*
X195194365Y-91024427D01*
X195721438Y-90655475D01*
X195727198Y-90675091D01*
X195737909Y-90684372D01*
X195787567Y-90783688D01*
X195792932Y-90808350D01*
X195822137Y-90837555D01*
X195850309Y-90867841D01*
X195853149Y-90868567D01*
X195882206Y-90897624D01*
X195895095Y-90919324D01*
X195932044Y-90937798D01*
X195968340Y-90957618D01*
X195971264Y-90957408D01*
X196070122Y-91006837D01*
X196100384Y-91026285D01*
X196131036Y-91026285D01*
X196161210Y-91031715D01*
X196174302Y-91026285D01*
X196350638Y-91026285D01*
X196386401Y-91030146D01*
X196413815Y-91016438D01*
X196443234Y-91007801D01*
X196452515Y-90997089D01*
X196551831Y-90947431D01*
X196576493Y-90942067D01*
X196605704Y-90912855D01*
X196635984Y-90884690D01*
X196636710Y-90881849D01*
X196665767Y-90852792D01*
X196687467Y-90839904D01*
X196705941Y-90802954D01*
X196725761Y-90766659D01*
X196725551Y-90763734D01*
X196774980Y-90664876D01*
X196794428Y-90634615D01*
X196794428Y-90603963D01*
X196799858Y-90573789D01*
X196794428Y-90560697D01*
X196794428Y-90546830D01*
X197420567Y-90546830D01*
X197434274Y-90574245D01*
X197442912Y-90603662D01*
X197453623Y-90612943D01*
X197503282Y-90712261D01*
X197508647Y-90736922D01*
X197537852Y-90766127D01*
X197566024Y-90796413D01*
X197568864Y-90797139D01*
X197597918Y-90826193D01*
X197610808Y-90847895D01*
X197647774Y-90866378D01*
X197684053Y-90886188D01*
X197686975Y-90885978D01*
X197785836Y-90935409D01*
X197816098Y-90954857D01*
X197846751Y-90954857D01*
X197876923Y-90960287D01*
X197890015Y-90954857D01*
X197994925Y-90954857D01*
X198030688Y-90958718D01*
X198058102Y-90945010D01*
X198087520Y-90936373D01*
X198096802Y-90925660D01*
X198196115Y-90876003D01*
X198220779Y-90870638D01*
X198249999Y-90841417D01*
X198280270Y-90813261D01*
X198280996Y-90810420D01*
X198310052Y-90781364D01*
X198331752Y-90768476D01*
X198350230Y-90731519D01*
X198370045Y-90695232D01*
X198369835Y-90692308D01*
X198410930Y-90610119D01*
X198423553Y-90598251D01*
X198430240Y-90571499D01*
X198432524Y-90566933D01*
X198435456Y-90550635D01*
X198501668Y-90285785D01*
X198554849Y-90179425D01*
X198591854Y-90142419D01*
X198681267Y-90097714D01*
X198753304Y-90097714D01*
X198842717Y-90142420D01*
X198879722Y-90179425D01*
X198924428Y-90268838D01*
X198924428Y-90566229D01*
X198853877Y-90777884D01*
X198851506Y-90843451D01*
X198896421Y-90919228D01*
X198975174Y-90958694D01*
X199062761Y-90949317D01*
X199131375Y-90894075D01*
X199210783Y-90655845D01*
X199224428Y-90634615D01*
X199224428Y-90593292D01*
X199225922Y-90551977D01*
X199224428Y-90549456D01*
X199224428Y-90241504D01*
X199228289Y-90205741D01*
X199214581Y-90178326D01*
X199205944Y-90148908D01*
X199195232Y-90139626D01*
X199145574Y-90040310D01*
X199140210Y-90015649D01*
X199110998Y-89986437D01*
X199082833Y-89956158D01*
X199079992Y-89955431D01*
X199050935Y-89926374D01*
X199038047Y-89904675D01*
X199001095Y-89886199D01*
X198964802Y-89866381D01*
X198961877Y-89866590D01*
X198863016Y-89817159D01*
X198832758Y-89797714D01*
X198802107Y-89797714D01*
X198771932Y-89792284D01*
X198758840Y-89797714D01*
X198653933Y-89797714D01*
X198618170Y-89793853D01*
X198590755Y-89807560D01*
X198561337Y-89816198D01*
X198552055Y-89826909D01*
X198452739Y-89876567D01*
X198428078Y-89881932D01*
X198398866Y-89911143D01*
X198368587Y-89939309D01*
X198367860Y-89942149D01*
X198338803Y-89971206D01*
X198317104Y-89984095D01*
X198298628Y-90021046D01*
X198278810Y-90057340D01*
X198279019Y-90060264D01*
X198237927Y-90142448D01*
X198225303Y-90154319D01*
X198218614Y-90181074D01*
X198216333Y-90185637D01*
X198213401Y-90201924D01*
X198147186Y-90466785D01*
X198094006Y-90573145D01*
X198057002Y-90610150D01*
X197967590Y-90654857D01*
X197895552Y-90654857D01*
X197806141Y-90610151D01*
X197769135Y-90573145D01*
X197724428Y-90483731D01*
X197724428Y-90186341D01*
X197794980Y-89974688D01*
X197797352Y-89909121D01*
X197752437Y-89833344D01*
X197673684Y-89793877D01*
X197586097Y-89803254D01*
X197517482Y-89858496D01*
X197438072Y-90096724D01*
X197424428Y-90117956D01*
X197424428Y-90159269D01*
X197422933Y-90200593D01*
X197424428Y-90203115D01*
X197424428Y-90511066D01*
X197420567Y-90546830D01*
X196794428Y-90546830D01*
X196794428Y-90029873D01*
X196799170Y-89996893D01*
X196785329Y-89966586D01*
X196775944Y-89934622D01*
X196767318Y-89927147D01*
X196762577Y-89916766D01*
X196734549Y-89898753D01*
X196709371Y-89876937D01*
X196698073Y-89875312D01*
X196688472Y-89869142D01*
X196655159Y-89869142D01*
X196622179Y-89864400D01*
X196611796Y-89869142D01*
X195869445Y-89869142D01*
X195836465Y-89864400D01*
X195826082Y-89869142D01*
X195122860Y-89869142D01*
X195059908Y-89887626D01*
X195002223Y-89954199D01*
X194989686Y-90041391D01*
X194153714Y-90041391D01*
X194153714Y-88997714D01*
X200162286Y-88997714D01*
X200162286Y-106276286D01*
G37*
%TO.C,U7*%
X214203780Y-88868143D02*
X215156161Y-88868143D01*
X213156161Y-89534809D02*
X214203780Y-88868143D01*
X214203780Y-88868143D02*
X213156161Y-88201476D01*
X215156161Y-86391952D02*
X214203780Y-87058619D01*
X215156161Y-87534809D02*
X213156161Y-87534809D01*
X213156161Y-87534809D02*
X213156161Y-86772904D01*
X213156161Y-86772904D02*
X213251400Y-86582428D01*
X213251400Y-86582428D02*
X213346638Y-86487190D01*
X213346638Y-86487190D02*
X213537114Y-86391952D01*
X213537114Y-86391952D02*
X213822828Y-86391952D01*
X213822828Y-86391952D02*
X214013304Y-86487190D01*
X214013304Y-86487190D02*
X214108542Y-86582428D01*
X214108542Y-86582428D02*
X214203780Y-86772904D01*
X214203780Y-86772904D02*
X214203780Y-87534809D01*
X215156161Y-85439571D02*
X215156161Y-85058619D01*
X215156161Y-85058619D02*
X215060923Y-84868142D01*
X215060923Y-84868142D02*
X214965685Y-84772904D01*
X214965685Y-84772904D02*
X214679971Y-84582428D01*
X214679971Y-84582428D02*
X214299019Y-84487190D01*
X214299019Y-84487190D02*
X213537114Y-84487190D01*
X213537114Y-84487190D02*
X213346638Y-84582428D01*
X213346638Y-84582428D02*
X213251400Y-84677666D01*
X213251400Y-84677666D02*
X213156161Y-84868142D01*
X213156161Y-84868142D02*
X213156161Y-85249095D01*
X213156161Y-85249095D02*
X213251400Y-85439571D01*
X213251400Y-85439571D02*
X213346638Y-85534809D01*
X213346638Y-85534809D02*
X213537114Y-85630047D01*
X213537114Y-85630047D02*
X214013304Y-85630047D01*
X214013304Y-85630047D02*
X214203780Y-85534809D01*
X214203780Y-85534809D02*
X214299019Y-85439571D01*
X214299019Y-85439571D02*
X214394257Y-85249095D01*
X214394257Y-85249095D02*
X214394257Y-84868142D01*
X214394257Y-84868142D02*
X214299019Y-84677666D01*
X214299019Y-84677666D02*
X214203780Y-84582428D01*
X214203780Y-84582428D02*
X214013304Y-84487190D01*
X213156161Y-83249095D02*
X213156161Y-83058618D01*
X213156161Y-83058618D02*
X213251400Y-82868142D01*
X213251400Y-82868142D02*
X213346638Y-82772904D01*
X213346638Y-82772904D02*
X213537114Y-82677666D01*
X213537114Y-82677666D02*
X213918066Y-82582428D01*
X213918066Y-82582428D02*
X214394257Y-82582428D01*
X214394257Y-82582428D02*
X214775209Y-82677666D01*
X214775209Y-82677666D02*
X214965685Y-82772904D01*
X214965685Y-82772904D02*
X215060923Y-82868142D01*
X215060923Y-82868142D02*
X215156161Y-83058618D01*
X215156161Y-83058618D02*
X215156161Y-83249095D01*
X215156161Y-83249095D02*
X215060923Y-83439571D01*
X215060923Y-83439571D02*
X214965685Y-83534809D01*
X214965685Y-83534809D02*
X214775209Y-83630047D01*
X214775209Y-83630047D02*
X214394257Y-83725285D01*
X214394257Y-83725285D02*
X213918066Y-83725285D01*
X213918066Y-83725285D02*
X213537114Y-83630047D01*
X213537114Y-83630047D02*
X213346638Y-83534809D01*
X213346638Y-83534809D02*
X213251400Y-83439571D01*
X213251400Y-83439571D02*
X213156161Y-83249095D01*
X213156161Y-81915761D02*
X213156161Y-80677666D01*
X213156161Y-80677666D02*
X213918066Y-81344333D01*
X213918066Y-81344333D02*
X213918066Y-81058618D01*
X213918066Y-81058618D02*
X214013304Y-80868142D01*
X214013304Y-80868142D02*
X214108542Y-80772904D01*
X214108542Y-80772904D02*
X214299019Y-80677666D01*
X214299019Y-80677666D02*
X214775209Y-80677666D01*
X214775209Y-80677666D02*
X214965685Y-80772904D01*
X214965685Y-80772904D02*
X215060923Y-80868142D01*
X215060923Y-80868142D02*
X215156161Y-81058618D01*
X215156161Y-81058618D02*
X215156161Y-81630047D01*
X215156161Y-81630047D02*
X215060923Y-81820523D01*
X215060923Y-81820523D02*
X214965685Y-81915761D01*
D10*
%TO.C,R3*%
X237934833Y-108951380D02*
X237601500Y-108475190D01*
X237363405Y-108951380D02*
X237363405Y-107951380D01*
X237363405Y-107951380D02*
X237744357Y-107951380D01*
X237744357Y-107951380D02*
X237839595Y-107999000D01*
X237839595Y-107999000D02*
X237887214Y-108046619D01*
X237887214Y-108046619D02*
X237934833Y-108141857D01*
X237934833Y-108141857D02*
X237934833Y-108284714D01*
X237934833Y-108284714D02*
X237887214Y-108379952D01*
X237887214Y-108379952D02*
X237839595Y-108427571D01*
X237839595Y-108427571D02*
X237744357Y-108475190D01*
X237744357Y-108475190D02*
X237363405Y-108475190D01*
X238268167Y-107951380D02*
X238887214Y-107951380D01*
X238887214Y-107951380D02*
X238553881Y-108332333D01*
X238553881Y-108332333D02*
X238696738Y-108332333D01*
X238696738Y-108332333D02*
X238791976Y-108379952D01*
X238791976Y-108379952D02*
X238839595Y-108427571D01*
X238839595Y-108427571D02*
X238887214Y-108522809D01*
X238887214Y-108522809D02*
X238887214Y-108760904D01*
X238887214Y-108760904D02*
X238839595Y-108856142D01*
X238839595Y-108856142D02*
X238791976Y-108903761D01*
X238791976Y-108903761D02*
X238696738Y-108951380D01*
X238696738Y-108951380D02*
X238411024Y-108951380D01*
X238411024Y-108951380D02*
X238315786Y-108903761D01*
X238315786Y-108903761D02*
X238268167Y-108856142D01*
%TO.C,R4*%
X242807833Y-105651380D02*
X242474500Y-105175190D01*
X242236405Y-105651380D02*
X242236405Y-104651380D01*
X242236405Y-104651380D02*
X242617357Y-104651380D01*
X242617357Y-104651380D02*
X242712595Y-104699000D01*
X242712595Y-104699000D02*
X242760214Y-104746619D01*
X242760214Y-104746619D02*
X242807833Y-104841857D01*
X242807833Y-104841857D02*
X242807833Y-104984714D01*
X242807833Y-104984714D02*
X242760214Y-105079952D01*
X242760214Y-105079952D02*
X242712595Y-105127571D01*
X242712595Y-105127571D02*
X242617357Y-105175190D01*
X242617357Y-105175190D02*
X242236405Y-105175190D01*
X243664976Y-104984714D02*
X243664976Y-105651380D01*
X243426881Y-104603761D02*
X243188786Y-105318047D01*
X243188786Y-105318047D02*
X243807833Y-105318047D01*
%TO.C,SW4*%
X208026667Y-72102261D02*
X208169524Y-72149880D01*
X208169524Y-72149880D02*
X208407619Y-72149880D01*
X208407619Y-72149880D02*
X208502857Y-72102261D01*
X208502857Y-72102261D02*
X208550476Y-72054642D01*
X208550476Y-72054642D02*
X208598095Y-71959404D01*
X208598095Y-71959404D02*
X208598095Y-71864166D01*
X208598095Y-71864166D02*
X208550476Y-71768928D01*
X208550476Y-71768928D02*
X208502857Y-71721309D01*
X208502857Y-71721309D02*
X208407619Y-71673690D01*
X208407619Y-71673690D02*
X208217143Y-71626071D01*
X208217143Y-71626071D02*
X208121905Y-71578452D01*
X208121905Y-71578452D02*
X208074286Y-71530833D01*
X208074286Y-71530833D02*
X208026667Y-71435595D01*
X208026667Y-71435595D02*
X208026667Y-71340357D01*
X208026667Y-71340357D02*
X208074286Y-71245119D01*
X208074286Y-71245119D02*
X208121905Y-71197500D01*
X208121905Y-71197500D02*
X208217143Y-71149880D01*
X208217143Y-71149880D02*
X208455238Y-71149880D01*
X208455238Y-71149880D02*
X208598095Y-71197500D01*
X208931429Y-71149880D02*
X209169524Y-72149880D01*
X209169524Y-72149880D02*
X209360000Y-71435595D01*
X209360000Y-71435595D02*
X209550476Y-72149880D01*
X209550476Y-72149880D02*
X209788572Y-71149880D01*
X210598095Y-71483214D02*
X210598095Y-72149880D01*
X210360000Y-71102261D02*
X210121905Y-71816547D01*
X210121905Y-71816547D02*
X210740952Y-71816547D01*
%TO.C,H7*%
X188722095Y-107911380D02*
X188722095Y-106911380D01*
X188722095Y-107387571D02*
X189293523Y-107387571D01*
X189293523Y-107911380D02*
X189293523Y-106911380D01*
X189674476Y-106911380D02*
X190341142Y-106911380D01*
X190341142Y-106911380D02*
X189912571Y-107911380D01*
%TO.C,H6*%
X246380095Y-67017380D02*
X246380095Y-66017380D01*
X246380095Y-66493571D02*
X246951523Y-66493571D01*
X246951523Y-67017380D02*
X246951523Y-66017380D01*
X247856285Y-66017380D02*
X247665809Y-66017380D01*
X247665809Y-66017380D02*
X247570571Y-66065000D01*
X247570571Y-66065000D02*
X247522952Y-66112619D01*
X247522952Y-66112619D02*
X247427714Y-66255476D01*
X247427714Y-66255476D02*
X247380095Y-66445952D01*
X247380095Y-66445952D02*
X247380095Y-66826904D01*
X247380095Y-66826904D02*
X247427714Y-66922142D01*
X247427714Y-66922142D02*
X247475333Y-66969761D01*
X247475333Y-66969761D02*
X247570571Y-67017380D01*
X247570571Y-67017380D02*
X247761047Y-67017380D01*
X247761047Y-67017380D02*
X247856285Y-66969761D01*
X247856285Y-66969761D02*
X247903904Y-66922142D01*
X247903904Y-66922142D02*
X247951523Y-66826904D01*
X247951523Y-66826904D02*
X247951523Y-66588809D01*
X247951523Y-66588809D02*
X247903904Y-66493571D01*
X247903904Y-66493571D02*
X247856285Y-66445952D01*
X247856285Y-66445952D02*
X247761047Y-66398333D01*
X247761047Y-66398333D02*
X247570571Y-66398333D01*
X247570571Y-66398333D02*
X247475333Y-66445952D01*
X247475333Y-66445952D02*
X247427714Y-66493571D01*
X247427714Y-66493571D02*
X247380095Y-66588809D01*
%TO.C,H8*%
X188722095Y-67017380D02*
X188722095Y-66017380D01*
X188722095Y-66493571D02*
X189293523Y-66493571D01*
X189293523Y-67017380D02*
X189293523Y-66017380D01*
X189912571Y-66445952D02*
X189817333Y-66398333D01*
X189817333Y-66398333D02*
X189769714Y-66350714D01*
X189769714Y-66350714D02*
X189722095Y-66255476D01*
X189722095Y-66255476D02*
X189722095Y-66207857D01*
X189722095Y-66207857D02*
X189769714Y-66112619D01*
X189769714Y-66112619D02*
X189817333Y-66065000D01*
X189817333Y-66065000D02*
X189912571Y-66017380D01*
X189912571Y-66017380D02*
X190103047Y-66017380D01*
X190103047Y-66017380D02*
X190198285Y-66065000D01*
X190198285Y-66065000D02*
X190245904Y-66112619D01*
X190245904Y-66112619D02*
X190293523Y-66207857D01*
X190293523Y-66207857D02*
X190293523Y-66255476D01*
X190293523Y-66255476D02*
X190245904Y-66350714D01*
X190245904Y-66350714D02*
X190198285Y-66398333D01*
X190198285Y-66398333D02*
X190103047Y-66445952D01*
X190103047Y-66445952D02*
X189912571Y-66445952D01*
X189912571Y-66445952D02*
X189817333Y-66493571D01*
X189817333Y-66493571D02*
X189769714Y-66541190D01*
X189769714Y-66541190D02*
X189722095Y-66636428D01*
X189722095Y-66636428D02*
X189722095Y-66826904D01*
X189722095Y-66826904D02*
X189769714Y-66922142D01*
X189769714Y-66922142D02*
X189817333Y-66969761D01*
X189817333Y-66969761D02*
X189912571Y-67017380D01*
X189912571Y-67017380D02*
X190103047Y-67017380D01*
X190103047Y-67017380D02*
X190198285Y-66969761D01*
X190198285Y-66969761D02*
X190245904Y-66922142D01*
X190245904Y-66922142D02*
X190293523Y-66826904D01*
X190293523Y-66826904D02*
X190293523Y-66636428D01*
X190293523Y-66636428D02*
X190245904Y-66541190D01*
X190245904Y-66541190D02*
X190198285Y-66493571D01*
X190198285Y-66493571D02*
X190103047Y-66445952D01*
%TO.C,J5*%
X222852666Y-96997380D02*
X222852666Y-97711666D01*
X222852666Y-97711666D02*
X222805047Y-97854523D01*
X222805047Y-97854523D02*
X222709809Y-97949761D01*
X222709809Y-97949761D02*
X222566952Y-97997380D01*
X222566952Y-97997380D02*
X222471714Y-97997380D01*
X223805047Y-96997380D02*
X223328857Y-96997380D01*
X223328857Y-96997380D02*
X223281238Y-97473571D01*
X223281238Y-97473571D02*
X223328857Y-97425952D01*
X223328857Y-97425952D02*
X223424095Y-97378333D01*
X223424095Y-97378333D02*
X223662190Y-97378333D01*
X223662190Y-97378333D02*
X223757428Y-97425952D01*
X223757428Y-97425952D02*
X223805047Y-97473571D01*
X223805047Y-97473571D02*
X223852666Y-97568809D01*
X223852666Y-97568809D02*
X223852666Y-97806904D01*
X223852666Y-97806904D02*
X223805047Y-97902142D01*
X223805047Y-97902142D02*
X223757428Y-97949761D01*
X223757428Y-97949761D02*
X223662190Y-97997380D01*
X223662190Y-97997380D02*
X223424095Y-97997380D01*
X223424095Y-97997380D02*
X223328857Y-97949761D01*
X223328857Y-97949761D02*
X223281238Y-97902142D01*
%TO.C,H5*%
X246380095Y-107911380D02*
X246380095Y-106911380D01*
X246380095Y-107387571D02*
X246951523Y-107387571D01*
X246951523Y-107911380D02*
X246951523Y-106911380D01*
X247903904Y-106911380D02*
X247427714Y-106911380D01*
X247427714Y-106911380D02*
X247380095Y-107387571D01*
X247380095Y-107387571D02*
X247427714Y-107339952D01*
X247427714Y-107339952D02*
X247522952Y-107292333D01*
X247522952Y-107292333D02*
X247761047Y-107292333D01*
X247761047Y-107292333D02*
X247856285Y-107339952D01*
X247856285Y-107339952D02*
X247903904Y-107387571D01*
X247903904Y-107387571D02*
X247951523Y-107482809D01*
X247951523Y-107482809D02*
X247951523Y-107720904D01*
X247951523Y-107720904D02*
X247903904Y-107816142D01*
X247903904Y-107816142D02*
X247856285Y-107863761D01*
X247856285Y-107863761D02*
X247761047Y-107911380D01*
X247761047Y-107911380D02*
X247522952Y-107911380D01*
X247522952Y-107911380D02*
X247427714Y-107863761D01*
X247427714Y-107863761D02*
X247380095Y-107816142D01*
D12*
%TO.C,U7*%
X190457200Y-92610200D02*
X191057200Y-92610200D01*
X190457200Y-92500200D02*
X190457200Y-92610200D01*
X187867200Y-80235200D02*
X187867200Y-79835200D01*
X188267200Y-80035200D02*
X187867200Y-80235200D01*
X187867200Y-79835200D02*
X188267200Y-80035200D01*
X190457200Y-77070200D02*
X190457200Y-76960200D01*
X190457200Y-76960200D02*
X191057200Y-76960200D01*
D13*
X201006400Y-97836000D02*
X229006400Y-97836000D01*
X229006400Y-97836000D02*
X229006400Y-71836000D01*
X229006400Y-71836000D02*
X201006400Y-71836000D01*
X201006400Y-71836000D02*
X201006400Y-97836000D01*
X186029600Y-76758800D02*
X192659000Y-76758800D01*
X192659000Y-76758800D02*
X192659000Y-92913200D01*
X192659000Y-92913200D02*
X186029600Y-92913200D01*
X186029600Y-92913200D02*
X186029600Y-76758800D01*
D12*
%TO.C,SW1*%
X232212000Y-101358000D02*
X232212000Y-102858000D01*
X233462000Y-105358000D02*
X237962000Y-105358000D01*
X237962000Y-98858000D02*
X233462000Y-98858000D01*
X239212000Y-102858000D02*
X239212000Y-101358000D01*
%TO.C,R3*%
X238328564Y-107669000D02*
X237874436Y-107669000D01*
X238328564Y-106199000D02*
X237874436Y-106199000D01*
%TO.C,R4*%
X242747436Y-106199000D02*
X243201564Y-106199000D01*
X242747436Y-107669000D02*
X243201564Y-107669000D01*
%TO.C,SW4*%
X216660000Y-71882500D02*
X215360000Y-71882500D01*
X216660000Y-70582500D02*
X216660000Y-71882500D01*
X216360000Y-64982500D02*
X216360000Y-70182500D01*
X214310000Y-70932500D02*
X204410000Y-70932500D01*
X204410000Y-64232500D02*
X214310000Y-64232500D01*
X202360000Y-70182500D02*
X202360000Y-64982500D01*
%TO.C,SW3*%
X241864000Y-101358000D02*
X241864000Y-102858000D01*
X243114000Y-105358000D02*
X247614000Y-105358000D01*
X247614000Y-98858000D02*
X243114000Y-98858000D01*
X248864000Y-102858000D02*
X248864000Y-101358000D01*
%TO.C,J5*%
X215326000Y-100030000D02*
X215926000Y-100330000D01*
X215326000Y-100630000D02*
X215326000Y-100030000D01*
X215926000Y-100330000D02*
X215326000Y-100630000D01*
X216126000Y-98720000D02*
X216126000Y-103940000D01*
X216126000Y-101430000D02*
X216986000Y-101430000D01*
X216126000Y-102230000D02*
X216986000Y-102230000D01*
X216126000Y-103940000D02*
X230246000Y-103940000D01*
X216986000Y-99230000D02*
X216986000Y-103430000D01*
X216986000Y-103430000D02*
X229386000Y-103430000D01*
X218156000Y-103940000D02*
X218156000Y-103430000D01*
X218716000Y-98720000D02*
X218716000Y-99230000D01*
X219656000Y-98720000D02*
X219656000Y-99230000D01*
X219656000Y-103940000D02*
X219656000Y-103430000D01*
X226716000Y-98720000D02*
X226716000Y-99230000D01*
X226716000Y-103940000D02*
X226716000Y-103430000D01*
X227656000Y-98720000D02*
X227656000Y-99230000D01*
X228216000Y-103940000D02*
X228216000Y-103430000D01*
X229386000Y-99230000D02*
X216986000Y-99230000D01*
X229386000Y-103430000D02*
X229386000Y-99230000D01*
X230246000Y-98720000D02*
X216126000Y-98720000D01*
X230246000Y-101430000D02*
X229386000Y-101430000D01*
X230246000Y-102230000D02*
X229386000Y-102230000D01*
X230246000Y-103940000D02*
X230246000Y-98720000D01*
%TD*%
M02*
