%TF.GenerationSoftware,KiCad,Pcbnew,(7.99.0-200-gad838e3d73)*%
%TF.CreationDate,2024-03-07T11:40:56+07:00*%
%TF.ProjectId,WMS_PCB2,574d535f-5043-4423-922e-6b696361645f,rev?*%
%TF.SameCoordinates,Original*%
%TF.FileFunction,Copper,L1,Top*%
%TF.FilePolarity,Positive*%
%FSLAX46Y46*%
G04 Gerber Fmt 4.6, Leading zero omitted, Abs format (unit mm)*
G04 Created by KiCad (PCBNEW (7.99.0-200-gad838e3d73)) date 2024-03-07 11:40:56*
%MOMM*%
%LPD*%
G01*
G04 APERTURE LIST*
G04 Aperture macros list*
%AMRoundRect*
0 Rectangle with rounded corners*
0 $1 Rounding radius*
0 $2 $3 $4 $5 $6 $7 $8 $9 X,Y pos of 4 corners*
0 Add a 4 corners polygon primitive as box body*
4,1,4,$2,$3,$4,$5,$6,$7,$8,$9,$2,$3,0*
0 Add four circle primitives for the rounded corners*
1,1,$1+$1,$2,$3*
1,1,$1+$1,$4,$5*
1,1,$1+$1,$6,$7*
1,1,$1+$1,$8,$9*
0 Add four rect primitives between the rounded corners*
20,1,$1+$1,$2,$3,$4,$5,0*
20,1,$1+$1,$4,$5,$6,$7,0*
20,1,$1+$1,$6,$7,$8,$9,0*
20,1,$1+$1,$8,$9,$2,$3,0*%
G04 Aperture macros list end*
%TA.AperFunction,SMDPad,CuDef*%
%ADD10R,1.100000X0.300000*%
%TD*%
%TA.AperFunction,SMDPad,CuDef*%
%ADD11R,3.100000X2.300000*%
%TD*%
%TA.AperFunction,ComponentPad*%
%ADD12C,2.000000*%
%TD*%
%TA.AperFunction,SMDPad,CuDef*%
%ADD13RoundRect,0.250000X0.262500X0.450000X-0.262500X0.450000X-0.262500X-0.450000X0.262500X-0.450000X0*%
%TD*%
%TA.AperFunction,SMDPad,CuDef*%
%ADD14RoundRect,0.250000X-0.262500X-0.450000X0.262500X-0.450000X0.262500X0.450000X-0.262500X0.450000X0*%
%TD*%
%TA.AperFunction,ComponentPad*%
%ADD15C,1.700000*%
%TD*%
%TA.AperFunction,ComponentPad*%
%ADD16RoundRect,0.250000X-0.350000X-0.350000X0.350000X-0.350000X0.350000X0.350000X-0.350000X0.350000X0*%
%TD*%
%TA.AperFunction,ComponentPad*%
%ADD17C,1.200000*%
%TD*%
%TA.AperFunction,ComponentPad*%
%ADD18R,2.000000X2.000000*%
%TD*%
%TA.AperFunction,ComponentPad*%
%ADD19O,2.000000X1.600000*%
%TD*%
%TA.AperFunction,ViaPad*%
%ADD20C,0.800000*%
%TD*%
%TA.AperFunction,Conductor*%
%ADD21C,0.250000*%
%TD*%
%TA.AperFunction,Conductor*%
%ADD22C,0.800000*%
%TD*%
%TA.AperFunction,Conductor*%
%ADD23C,0.400000*%
%TD*%
G04 APERTURE END LIST*
D10*
%TO.P,U7,1,VCC*%
%TO.N,/PCB1 : Subsistem Data Processing\u002C Gateway\u002C Power/POWER_RFID*%
X187067199Y-80035199D03*
%TO.P,U7,2,VCC*%
X187067199Y-80535199D03*
%TO.P,U7,3,GND*%
%TO.N,GND*%
X187067199Y-81035199D03*
%TO.P,U7,4,GND*%
X187067199Y-81535199D03*
%TO.P,U7,5,EN*%
%TO.N,unconnected-(U7-EN-Pad5)*%
X187067199Y-82035199D03*
%TO.P,U7,6,Reserverd*%
%TO.N,unconnected-(U7-Reserverd-Pad6)*%
X187067199Y-82535199D03*
%TO.P,U7,7,Reserverd*%
%TO.N,unconnected-(U7-Reserverd-Pad7)*%
X187067199Y-83035199D03*
%TO.P,U7,8,GND*%
%TO.N,GND*%
X187067199Y-83535199D03*
%TO.P,U7,9,GND*%
X187067199Y-84035199D03*
%TO.P,U7,10,GPIO1*%
%TO.N,unconnected-(U7-GPIO1-Pad10)*%
X187067199Y-84535199D03*
%TO.P,U7,11,GPIO2*%
%TO.N,unconnected-(U7-GPIO2-Pad11)*%
X187067199Y-85035199D03*
%TO.P,U7,12,GND*%
%TO.N,GND*%
X187067199Y-85535199D03*
%TO.P,U7,13,GND*%
X187067199Y-86035199D03*
%TO.P,U7,14,485_Direction*%
%TO.N,unconnected-(U7-485_Direction-Pad14)*%
X187067199Y-86535199D03*
%TO.P,U7,15,Reserverd*%
%TO.N,unconnected-(U7-Reserverd-Pad15)*%
X187067199Y-87035199D03*
%TO.P,U7,16,RXD*%
%TO.N,P12_1*%
X187067199Y-87535199D03*
%TO.P,U7,17,TXD*%
%TO.N,P12_0*%
X187067199Y-88035199D03*
%TO.P,U7,18,Beeper*%
%TO.N,unconnected-(U7-Beeper-Pad18)*%
X187067199Y-88535199D03*
%TO.P,U7,19,GPIO3*%
%TO.N,unconnected-(U7-GPIO3-Pad19)*%
X187067199Y-89035199D03*
%TO.P,U7,20,GPIO4*%
%TO.N,unconnected-(U7-GPIO4-Pad20)*%
X187067199Y-89535199D03*
D11*
%TO.P,U7,MP*%
%TO.N,N/C*%
X188767199Y-91205199D03*
X188767199Y-78365199D03*
%TD*%
D12*
%TO.P,SW1,1,A*%
%TO.N,/PCB1 : Subsistem Data Processing\u002C Gateway\u002C Power/POWER_BUTTON_OUT*%
X232462000Y-99858000D03*
X238962000Y-99858000D03*
%TO.P,SW1,2,B*%
%TO.N,P13_4*%
X232462000Y-104358000D03*
X238962000Y-104358000D03*
%TD*%
D13*
%TO.P,R3,1*%
%TO.N,P13_4*%
X239014000Y-106934000D03*
%TO.P,R3,2*%
%TO.N,GND*%
X237189000Y-106934000D03*
%TD*%
D14*
%TO.P,R4,1*%
%TO.N,P13_6*%
X242062000Y-106934000D03*
%TO.P,R4,2*%
%TO.N,GND*%
X243887000Y-106934000D03*
%TD*%
D12*
%TO.P,SW4,*%
%TO.N,*%
X215360000Y-70582500D03*
X215360000Y-64582500D03*
X203360000Y-70582500D03*
X203360000Y-64582500D03*
D15*
%TO.P,SW4,1,A*%
%TO.N,/PCB1 : Subsistem Data Processing\u002C Gateway\u002C Power/POWER_RFID*%
X213360000Y-68832500D03*
%TO.P,SW4,2,B*%
%TO.N,/PCB1 : Subsistem Data Processing\u002C Gateway\u002C Power/POWER_BUTTON_OUT*%
X209360000Y-68832500D03*
%TO.P,SW4,3,C*%
%TO.N,/PCB1 : Subsistem Data Processing\u002C Gateway\u002C Power/POWER_BARCODE*%
X205360000Y-68832500D03*
%TD*%
D12*
%TO.P,SW3,1,A*%
%TO.N,/PCB1 : Subsistem Data Processing\u002C Gateway\u002C Power/POWER_BUTTON_OUT*%
X242114000Y-99858000D03*
X248614000Y-99858000D03*
%TO.P,SW3,2,B*%
%TO.N,P13_6*%
X242114000Y-104358000D03*
X248614000Y-104358000D03*
%TD*%
D16*
%TO.P,J5,1,Pin_1*%
%TO.N,+5V*%
X218186000Y-100330000D03*
D17*
%TO.P,J5,2,Pin_2*%
%TO.N,GND*%
X218186000Y-102330000D03*
%TO.P,J5,3,Pin_3*%
%TO.N,P12_0*%
X220186000Y-100330000D03*
%TO.P,J5,4,Pin_4*%
%TO.N,P12_1*%
X220186000Y-102330000D03*
%TO.P,J5,5,Pin_5*%
%TO.N,P9_1*%
X222186000Y-100330000D03*
%TO.P,J5,6,Pin_6*%
%TO.N,P9_0*%
X222186000Y-102330000D03*
%TO.P,J5,7,Pin_7*%
%TO.N,P6_0*%
X224186000Y-100330000D03*
%TO.P,J5,8,Pin_8*%
%TO.N,P6_1*%
X224186000Y-102330000D03*
%TO.P,J5,9,Pin_9*%
%TO.N,P9_2*%
X226186000Y-100330000D03*
%TO.P,J5,10,Pin_10*%
%TO.N,P9_4*%
X226186000Y-102330000D03*
%TO.P,J5,11,Pin_11*%
%TO.N,P12_3*%
X228186000Y-100330000D03*
%TO.P,J5,12,Pin_12*%
%TO.N,unconnected-(J5-Pin_12-Pad12)*%
X228186000Y-102330000D03*
%TD*%
D18*
%TO.P,BZ1,1,+*%
%TO.N,P12_3*%
X240537999Y-79501999D03*
D12*
%TO.P,BZ1,2,-*%
%TO.N,GND*%
X232938000Y-79502000D03*
%TD*%
D19*
%TO.P,Brd1,1,GND*%
%TO.N,GND*%
X199135999Y-74167999D03*
%TO.P,Brd1,2,VCC*%
%TO.N,+5V*%
X199135999Y-76707999D03*
%TO.P,Brd1,3,SCL*%
%TO.N,P6_0*%
X199135999Y-79247999D03*
%TO.P,Brd1,4,SDA*%
%TO.N,P6_1*%
X199135999Y-81787999D03*
%TD*%
D20*
%TO.N,GND*%
X220599000Y-93726000D03*
X218567000Y-96266000D03*
%TO.N,P9_2*%
X234188000Y-82677000D03*
%TO.N,P9_0*%
X211836000Y-94742000D03*
X217424000Y-94742000D03*
X214376000Y-94742000D03*
X222504000Y-90043000D03*
X221488000Y-106553000D03*
%TO.N,P9_1*%
X221488000Y-92964000D03*
%TO.N,P12_0*%
X210820000Y-92710000D03*
X205740000Y-92710000D03*
X214630000Y-92710000D03*
%TD*%
D21*
%TO.N,GND*%
X187076400Y-81026000D02*
X187067200Y-81035200D01*
X188048200Y-84035200D02*
X188087000Y-84074000D01*
X188183200Y-83535200D02*
X188214000Y-83566000D01*
X187067200Y-81035200D02*
X185810200Y-81035200D01*
X188022800Y-85535200D02*
X188087000Y-85471000D01*
X185810200Y-81035200D02*
X185801000Y-81026000D01*
X188087000Y-81026000D02*
X187076400Y-81026000D01*
X187067200Y-85535200D02*
X185992200Y-85535200D01*
X187067200Y-84035200D02*
X185966800Y-84035200D01*
X188212800Y-81535200D02*
X188214000Y-81534000D01*
X187067200Y-83535200D02*
X185831800Y-83535200D01*
X187067200Y-84035200D02*
X188048200Y-84035200D01*
X185966800Y-84035200D02*
X185928000Y-84074000D01*
X187067200Y-86035200D02*
X185857200Y-86035200D01*
X187067200Y-85535200D02*
X188022800Y-85535200D01*
X187067200Y-83535200D02*
X188183200Y-83535200D01*
X187067200Y-81535200D02*
X188212800Y-81535200D01*
X188397200Y-86035200D02*
X188468000Y-86106000D01*
X185802200Y-81535200D02*
X185801000Y-81534000D01*
X187067200Y-81535200D02*
X185802200Y-81535200D01*
X185831800Y-83535200D02*
X185801000Y-83566000D01*
X185857200Y-86035200D02*
X185801000Y-85979000D01*
X187067200Y-86035200D02*
X188397200Y-86035200D01*
D22*
%TO.N,+5V*%
X208788000Y-76708000D02*
X215900000Y-83820000D01*
X199136000Y-76708000D02*
X208788000Y-76708000D01*
X215900000Y-83820000D02*
X215900000Y-98044000D01*
X215900000Y-98044000D02*
X218186000Y-100330000D01*
%TO.N,P12_3*%
X228186000Y-99474000D02*
X228186000Y-100330000D01*
X240538000Y-79502000D02*
X229870000Y-90170000D01*
X229870000Y-90170000D02*
X229870000Y-97790000D01*
X229870000Y-97790000D02*
X228186000Y-99474000D01*
D23*
%TO.N,P9_2*%
X234188000Y-82677000D02*
X226186000Y-90679000D01*
X226186000Y-90679000D02*
X226186000Y-100330000D01*
%TO.N,P9_0*%
X214376000Y-94742000D02*
X211836000Y-94742000D01*
X222186000Y-103823000D02*
X222186000Y-102330000D01*
X221488000Y-104521000D02*
X222186000Y-103823000D01*
X221488000Y-106553000D02*
X221488000Y-104521000D01*
X217805000Y-94742000D02*
X217424000Y-94742000D01*
X222504000Y-90043000D02*
X217805000Y-94742000D01*
%TO.N,P9_1*%
X221488000Y-92964000D02*
X221488000Y-99632000D01*
X221488000Y-99632000D02*
X222186000Y-100330000D01*
%TO.N,P13_6*%
X242062000Y-106934000D02*
X242062000Y-104410000D01*
X242062000Y-104410000D02*
X242114000Y-104358000D01*
D22*
X242114000Y-104358000D02*
X248614000Y-104358000D01*
%TO.N,P13_4*%
X232462000Y-104358000D02*
X238962000Y-104358000D01*
X238962000Y-106882000D02*
X239014000Y-106934000D01*
X238962000Y-104358000D02*
X238962000Y-106882000D01*
D21*
%TO.N,P12_1*%
X187067200Y-87535200D02*
X203105200Y-87535200D01*
X220186000Y-103664000D02*
X220186000Y-102330000D01*
X218440000Y-105410000D02*
X220186000Y-103664000D01*
X217170000Y-105410000D02*
X218440000Y-105410000D01*
X203105200Y-87535200D02*
X215900000Y-100330000D01*
X215900000Y-104140000D02*
X217170000Y-105410000D01*
X215900000Y-100330000D02*
X215900000Y-104140000D01*
%TO.N,P12_0*%
X201065200Y-88035200D02*
X205740000Y-92710000D01*
X210820000Y-92710000D02*
X214630000Y-92710000D01*
X187067200Y-88035200D02*
X201065200Y-88035200D01*
D22*
%TO.N,/PCB1 : Subsistem Data Processing\u002C Gateway\u002C Power/POWER_BUTTON_OUT*%
X238962000Y-99858000D02*
X242114000Y-99858000D01*
X238962000Y-99858000D02*
X232462000Y-99858000D01*
X242114000Y-99858000D02*
X248614000Y-99858000D01*
D21*
%TO.N,/PCB1 : Subsistem Data Processing\u002C Gateway\u002C Power/POWER_RFID*%
X187067200Y-80535200D02*
X187067200Y-80035200D01*
X185420000Y-78740000D02*
X185420000Y-76200000D01*
X211837500Y-67310000D02*
X213360000Y-68832500D01*
X194310000Y-74930000D02*
X201930000Y-67310000D01*
X201930000Y-67310000D02*
X211837500Y-67310000D01*
X186690000Y-74930000D02*
X194310000Y-74930000D01*
X187067200Y-80035200D02*
X186715200Y-80035200D01*
X185420000Y-76200000D02*
X186690000Y-74930000D01*
X186715200Y-80035200D02*
X185420000Y-78740000D01*
%TD*%
%TA.AperFunction,Conductor*%
%TO.N,GND*%
G36*
X250439883Y-62747939D02*
G01*
X250480111Y-62774819D01*
X255995181Y-68289888D01*
X256022061Y-68330116D01*
X256031500Y-68377569D01*
X256031500Y-110946431D01*
X256022061Y-110993884D01*
X255995181Y-111034112D01*
X251242111Y-115787181D01*
X251201883Y-115814061D01*
X251154430Y-115823500D01*
X238811570Y-115823500D01*
X238764117Y-115814061D01*
X238723889Y-115787181D01*
X233680708Y-110744000D01*
X245786341Y-110744000D01*
X245806937Y-110979408D01*
X245808336Y-110984630D01*
X245808337Y-110984634D01*
X245866694Y-111202430D01*
X245866697Y-111202438D01*
X245868097Y-111207663D01*
X245967965Y-111421829D01*
X246103505Y-111615401D01*
X246270599Y-111782495D01*
X246464171Y-111918035D01*
X246678337Y-112017903D01*
X246906592Y-112079063D01*
X247083034Y-112094500D01*
X247198258Y-112094500D01*
X247200966Y-112094500D01*
X247377408Y-112079063D01*
X247605663Y-112017903D01*
X247819829Y-111918035D01*
X248013401Y-111782495D01*
X248180495Y-111615401D01*
X248316035Y-111421830D01*
X248415903Y-111207663D01*
X248477063Y-110979408D01*
X248497659Y-110744000D01*
X248477063Y-110508592D01*
X248415903Y-110280337D01*
X248316035Y-110066171D01*
X248180495Y-109872599D01*
X248013401Y-109705505D01*
X247819829Y-109569965D01*
X247605663Y-109470097D01*
X247600438Y-109468697D01*
X247600430Y-109468694D01*
X247382634Y-109410337D01*
X247382630Y-109410336D01*
X247377408Y-109408937D01*
X247372020Y-109408465D01*
X247372017Y-109408465D01*
X247203664Y-109393736D01*
X247203662Y-109393735D01*
X247200966Y-109393500D01*
X247083034Y-109393500D01*
X247080338Y-109393735D01*
X247080335Y-109393736D01*
X246911982Y-109408465D01*
X246911977Y-109408465D01*
X246906592Y-109408937D01*
X246901371Y-109410335D01*
X246901365Y-109410337D01*
X246683569Y-109468694D01*
X246683557Y-109468698D01*
X246678337Y-109470097D01*
X246673432Y-109472383D01*
X246673427Y-109472386D01*
X246469081Y-109567675D01*
X246469077Y-109567677D01*
X246464171Y-109569965D01*
X246459738Y-109573068D01*
X246459731Y-109573073D01*
X246275034Y-109702399D01*
X246275029Y-109702402D01*
X246270599Y-109705505D01*
X246266775Y-109709328D01*
X246266769Y-109709334D01*
X246107336Y-109868767D01*
X246107330Y-109868773D01*
X246103505Y-109872599D01*
X246100406Y-109877023D01*
X246100399Y-109877033D01*
X245971066Y-110061740D01*
X245971061Y-110061747D01*
X245967965Y-110066170D01*
X245965683Y-110071061D01*
X245965678Y-110071072D01*
X245870386Y-110275427D01*
X245870383Y-110275432D01*
X245868097Y-110280337D01*
X245866698Y-110285557D01*
X245866694Y-110285569D01*
X245808337Y-110503365D01*
X245808335Y-110503371D01*
X245806937Y-110508592D01*
X245786341Y-110744000D01*
X233680708Y-110744000D01*
X230387010Y-107450302D01*
X230378423Y-107441715D01*
X230378383Y-107441617D01*
X230378284Y-107441576D01*
X230378000Y-107441458D01*
X230377899Y-107441500D01*
X222176425Y-107441500D01*
X222132981Y-107430829D01*
X236176501Y-107430829D01*
X236176821Y-107437111D01*
X236186305Y-107529959D01*
X236189123Y-107543122D01*
X236239870Y-107696267D01*
X236245932Y-107709266D01*
X236330390Y-107846194D01*
X236339294Y-107857455D01*
X236453044Y-107971205D01*
X236464305Y-107980109D01*
X236601233Y-108064567D01*
X236614232Y-108070629D01*
X236767374Y-108121375D01*
X236780541Y-108124194D01*
X236873390Y-108133680D01*
X236879668Y-108134000D01*
X236922674Y-108134000D01*
X236935549Y-108130549D01*
X236939000Y-108117674D01*
X236939000Y-107200326D01*
X236935549Y-107187450D01*
X236922674Y-107184000D01*
X236192827Y-107184000D01*
X236179951Y-107187450D01*
X236176501Y-107200326D01*
X236176501Y-107430829D01*
X222132981Y-107430829D01*
X222118976Y-107427389D01*
X222074602Y-107388268D01*
X222053403Y-107333040D01*
X222060203Y-107274276D01*
X222092323Y-107227012D01*
X222093871Y-107225888D01*
X222220533Y-107085216D01*
X222315179Y-106921284D01*
X222373674Y-106741256D01*
X222381408Y-106667674D01*
X236176500Y-106667674D01*
X236179950Y-106680549D01*
X236192826Y-106684000D01*
X236922674Y-106684000D01*
X236935549Y-106680549D01*
X236939000Y-106667674D01*
X236939000Y-105750327D01*
X236935549Y-105737451D01*
X236922674Y-105734001D01*
X236879671Y-105734001D01*
X236873388Y-105734321D01*
X236780540Y-105743805D01*
X236767377Y-105746623D01*
X236614232Y-105797370D01*
X236601233Y-105803432D01*
X236464305Y-105887890D01*
X236453044Y-105896794D01*
X236339294Y-106010544D01*
X236330390Y-106021805D01*
X236245932Y-106158733D01*
X236239870Y-106171732D01*
X236189124Y-106324874D01*
X236186305Y-106338041D01*
X236176819Y-106430890D01*
X236176500Y-106437168D01*
X236176500Y-106667674D01*
X222381408Y-106667674D01*
X222393460Y-106553000D01*
X222373674Y-106364744D01*
X222315179Y-106184716D01*
X222220533Y-106020784D01*
X222216185Y-106015955D01*
X222212363Y-106010694D01*
X222213703Y-106009720D01*
X222196749Y-105982080D01*
X222188500Y-105937608D01*
X222188500Y-104862519D01*
X222197939Y-104815066D01*
X222224819Y-104774838D01*
X222278079Y-104721578D01*
X222641655Y-104358000D01*
X230956357Y-104358000D01*
X230956781Y-104363117D01*
X230976467Y-104600701D01*
X230976468Y-104600709D01*
X230976892Y-104605821D01*
X230978149Y-104610788D01*
X230978151Y-104610795D01*
X231022140Y-104784500D01*
X231037937Y-104846881D01*
X231056012Y-104888087D01*
X231135766Y-105069910D01*
X231135769Y-105069916D01*
X231137827Y-105074607D01*
X231140627Y-105078893D01*
X231140631Y-105078900D01*
X231257970Y-105258500D01*
X231273836Y-105282785D01*
X231277310Y-105286559D01*
X231277311Y-105286560D01*
X231438784Y-105461967D01*
X231438787Y-105461970D01*
X231442256Y-105465738D01*
X231638491Y-105618474D01*
X231857190Y-105736828D01*
X232092386Y-105817571D01*
X232337665Y-105858500D01*
X232581201Y-105858500D01*
X232586335Y-105858500D01*
X232831614Y-105817571D01*
X233066810Y-105736828D01*
X233285509Y-105618474D01*
X233481744Y-105465738D01*
X233635681Y-105298517D01*
X233677102Y-105268944D01*
X233726912Y-105258500D01*
X237697088Y-105258500D01*
X237746898Y-105268944D01*
X237788318Y-105298517D01*
X237942256Y-105465738D01*
X237946302Y-105468887D01*
X237946303Y-105468888D01*
X238013662Y-105521315D01*
X238048900Y-105564708D01*
X238061500Y-105619169D01*
X238061500Y-105756882D01*
X238044433Y-105819661D01*
X237997932Y-105865159D01*
X237934795Y-105880852D01*
X237872403Y-105862421D01*
X237776766Y-105803432D01*
X237763767Y-105797370D01*
X237610625Y-105746624D01*
X237597458Y-105743805D01*
X237504609Y-105734319D01*
X237498332Y-105734000D01*
X237455326Y-105734000D01*
X237442450Y-105737450D01*
X237439000Y-105750326D01*
X237439000Y-108117673D01*
X237442450Y-108130548D01*
X237455326Y-108133999D01*
X237498329Y-108133999D01*
X237504611Y-108133678D01*
X237597459Y-108124194D01*
X237610622Y-108121376D01*
X237763767Y-108070629D01*
X237776766Y-108064567D01*
X237913694Y-107980109D01*
X237924950Y-107971209D01*
X238013464Y-107882695D01*
X238069052Y-107850601D01*
X238133239Y-107850601D01*
X238188827Y-107882694D01*
X238282844Y-107976712D01*
X238288985Y-107980500D01*
X238288988Y-107980502D01*
X238298082Y-107986111D01*
X238432166Y-108068814D01*
X238598703Y-108123999D01*
X238701491Y-108134500D01*
X239326508Y-108134499D01*
X239429297Y-108123999D01*
X239595834Y-108068814D01*
X239745156Y-107976712D01*
X239869212Y-107852656D01*
X239961314Y-107703334D01*
X240016499Y-107536797D01*
X240027000Y-107434009D01*
X240026999Y-106433992D01*
X240016499Y-106331203D01*
X239961314Y-106164666D01*
X239884065Y-106039425D01*
X239880961Y-106034392D01*
X239862500Y-105969296D01*
X239862500Y-105619169D01*
X239875100Y-105564708D01*
X239910338Y-105521315D01*
X239981744Y-105465738D01*
X240150164Y-105282785D01*
X240286173Y-105074607D01*
X240386063Y-104846881D01*
X240417794Y-104721577D01*
X240449597Y-104665065D01*
X240505576Y-104632332D01*
X240570424Y-104632332D01*
X240626403Y-104665065D01*
X240658205Y-104721577D01*
X240689937Y-104846881D01*
X240708012Y-104888087D01*
X240787766Y-105069910D01*
X240787769Y-105069916D01*
X240789827Y-105074607D01*
X240792627Y-105078893D01*
X240792631Y-105078900D01*
X240909970Y-105258500D01*
X240925836Y-105282785D01*
X240929310Y-105286559D01*
X240929311Y-105286560D01*
X241090784Y-105461967D01*
X241090787Y-105461970D01*
X241094256Y-105465738D01*
X241290491Y-105618474D01*
X241296517Y-105621735D01*
X241297072Y-105622267D01*
X241299298Y-105623722D01*
X241299024Y-105624140D01*
X241344022Y-105667316D01*
X241361500Y-105730790D01*
X241361500Y-105809270D01*
X241352061Y-105856723D01*
X241325181Y-105896951D01*
X241211893Y-106010238D01*
X241211889Y-106010242D01*
X241206788Y-106015344D01*
X241203003Y-106021480D01*
X241202997Y-106021488D01*
X241118477Y-106158519D01*
X241114686Y-106164666D01*
X241112415Y-106171517D01*
X241112414Y-106171521D01*
X241061631Y-106324774D01*
X241059501Y-106331203D01*
X241058813Y-106337933D01*
X241058812Y-106337940D01*
X241049319Y-106430859D01*
X241049318Y-106430877D01*
X241049000Y-106433991D01*
X241049000Y-106437138D01*
X241049000Y-106437139D01*
X241049000Y-107430859D01*
X241049000Y-107430878D01*
X241049001Y-107434008D01*
X241049320Y-107437140D01*
X241049321Y-107437141D01*
X241058812Y-107530061D01*
X241058813Y-107530069D01*
X241059501Y-107536797D01*
X241114686Y-107703334D01*
X241118477Y-107709480D01*
X241202997Y-107846511D01*
X241203000Y-107846515D01*
X241206788Y-107852656D01*
X241330844Y-107976712D01*
X241336985Y-107980500D01*
X241336988Y-107980502D01*
X241346082Y-107986111D01*
X241480166Y-108068814D01*
X241646703Y-108123999D01*
X241749491Y-108134500D01*
X242374508Y-108134499D01*
X242477297Y-108123999D01*
X242643834Y-108068814D01*
X242793156Y-107976712D01*
X242887175Y-107882692D01*
X242942759Y-107850601D01*
X243006946Y-107850601D01*
X243062534Y-107882695D01*
X243151044Y-107971205D01*
X243162305Y-107980109D01*
X243299233Y-108064567D01*
X243312232Y-108070629D01*
X243465374Y-108121375D01*
X243478541Y-108124194D01*
X243571390Y-108133680D01*
X243577668Y-108134000D01*
X243620674Y-108134000D01*
X243633549Y-108130549D01*
X243637000Y-108117674D01*
X243637000Y-108117673D01*
X244137000Y-108117673D01*
X244140450Y-108130548D01*
X244153326Y-108133999D01*
X244196329Y-108133999D01*
X244202611Y-108133678D01*
X244295459Y-108124194D01*
X244308622Y-108121376D01*
X244461767Y-108070629D01*
X244474766Y-108064567D01*
X244611694Y-107980109D01*
X244622955Y-107971205D01*
X244736705Y-107857455D01*
X244745609Y-107846194D01*
X244830067Y-107709266D01*
X244836129Y-107696267D01*
X244886875Y-107543125D01*
X244889694Y-107529958D01*
X244899180Y-107437109D01*
X244899500Y-107430832D01*
X244899500Y-107200326D01*
X244896049Y-107187450D01*
X244883174Y-107184000D01*
X244153326Y-107184000D01*
X244140450Y-107187450D01*
X244137000Y-107200326D01*
X244137000Y-108117673D01*
X243637000Y-108117673D01*
X243637000Y-106667674D01*
X244137000Y-106667674D01*
X244140450Y-106680549D01*
X244153326Y-106684000D01*
X244883173Y-106684000D01*
X244896048Y-106680549D01*
X244899499Y-106667674D01*
X244899499Y-106437171D01*
X244899178Y-106430888D01*
X244889694Y-106338040D01*
X244886876Y-106324877D01*
X244836129Y-106171732D01*
X244830067Y-106158733D01*
X244745609Y-106021805D01*
X244736705Y-106010544D01*
X244622955Y-105896794D01*
X244611694Y-105887890D01*
X244474766Y-105803432D01*
X244461767Y-105797370D01*
X244308625Y-105746624D01*
X244295458Y-105743805D01*
X244202609Y-105734319D01*
X244196332Y-105734000D01*
X244153326Y-105734000D01*
X244140450Y-105737450D01*
X244137000Y-105750326D01*
X244137000Y-106667674D01*
X243637000Y-106667674D01*
X243637000Y-105750327D01*
X243633549Y-105737451D01*
X243620674Y-105734001D01*
X243577671Y-105734001D01*
X243571388Y-105734321D01*
X243478540Y-105743805D01*
X243465377Y-105746623D01*
X243312232Y-105797370D01*
X243299233Y-105803432D01*
X243162305Y-105887890D01*
X243151049Y-105896790D01*
X243062534Y-105985305D01*
X243006946Y-106017398D01*
X242942759Y-106017398D01*
X242887172Y-105985304D01*
X242798819Y-105896951D01*
X242771939Y-105856723D01*
X242762500Y-105809270D01*
X242762500Y-105787072D01*
X242779977Y-105723598D01*
X242827483Y-105678017D01*
X242937509Y-105618474D01*
X243133744Y-105465738D01*
X243287681Y-105298517D01*
X243329102Y-105268944D01*
X243378912Y-105258500D01*
X247349088Y-105258500D01*
X247398898Y-105268944D01*
X247440318Y-105298517D01*
X247590784Y-105461967D01*
X247590787Y-105461970D01*
X247594256Y-105465738D01*
X247790491Y-105618474D01*
X248009190Y-105736828D01*
X248244386Y-105817571D01*
X248489665Y-105858500D01*
X248733201Y-105858500D01*
X248738335Y-105858500D01*
X248983614Y-105817571D01*
X249218810Y-105736828D01*
X249437509Y-105618474D01*
X249633744Y-105465738D01*
X249802164Y-105282785D01*
X249938173Y-105074607D01*
X250038063Y-104846881D01*
X250099108Y-104605821D01*
X250119643Y-104358000D01*
X250099108Y-104110179D01*
X250038063Y-103869119D01*
X249938173Y-103641393D01*
X249933674Y-103634507D01*
X249864700Y-103528934D01*
X249802164Y-103433215D01*
X249787682Y-103417483D01*
X249637215Y-103254032D01*
X249637211Y-103254029D01*
X249633744Y-103250262D01*
X249437509Y-103097526D01*
X249432997Y-103095084D01*
X249223316Y-102981610D01*
X249223310Y-102981607D01*
X249218810Y-102979172D01*
X249213969Y-102977510D01*
X249213962Y-102977507D01*
X248988465Y-102900094D01*
X248988461Y-102900093D01*
X248983614Y-102898429D01*
X248974768Y-102896952D01*
X248743398Y-102858344D01*
X248743387Y-102858343D01*
X248738335Y-102857500D01*
X248489665Y-102857500D01*
X248484613Y-102858343D01*
X248484601Y-102858344D01*
X248249443Y-102897585D01*
X248249441Y-102897585D01*
X248244386Y-102898429D01*
X248239541Y-102900092D01*
X248239534Y-102900094D01*
X248014037Y-102977507D01*
X248014026Y-102977511D01*
X248009190Y-102979172D01*
X248004693Y-102981605D01*
X248004683Y-102981610D01*
X247795002Y-103095084D01*
X247794995Y-103095088D01*
X247790491Y-103097526D01*
X247786448Y-103100672D01*
X247786440Y-103100678D01*
X247611188Y-103237083D01*
X247594256Y-103250262D01*
X247590793Y-103254023D01*
X247590784Y-103254032D01*
X247440318Y-103417483D01*
X247398898Y-103447056D01*
X247349088Y-103457500D01*
X243378912Y-103457500D01*
X243329102Y-103447056D01*
X243287682Y-103417483D01*
X243137215Y-103254032D01*
X243137211Y-103254029D01*
X243133744Y-103250262D01*
X242937509Y-103097526D01*
X242932997Y-103095084D01*
X242723316Y-102981610D01*
X242723310Y-102981607D01*
X242718810Y-102979172D01*
X242713969Y-102977510D01*
X242713962Y-102977507D01*
X242488465Y-102900094D01*
X242488461Y-102900093D01*
X242483614Y-102898429D01*
X242474768Y-102896952D01*
X242243398Y-102858344D01*
X242243387Y-102858343D01*
X242238335Y-102857500D01*
X241989665Y-102857500D01*
X241984613Y-102858343D01*
X241984601Y-102858344D01*
X241749443Y-102897585D01*
X241749441Y-102897585D01*
X241744386Y-102898429D01*
X241739541Y-102900092D01*
X241739534Y-102900094D01*
X241514037Y-102977507D01*
X241514026Y-102977511D01*
X241509190Y-102979172D01*
X241504693Y-102981605D01*
X241504683Y-102981610D01*
X241295002Y-103095084D01*
X241294995Y-103095088D01*
X241290491Y-103097526D01*
X241286448Y-103100672D01*
X241286440Y-103100678D01*
X241111188Y-103237083D01*
X241094256Y-103250262D01*
X241090793Y-103254023D01*
X241090784Y-103254032D01*
X240929311Y-103429439D01*
X240929305Y-103429446D01*
X240925836Y-103433215D01*
X240923031Y-103437506D01*
X240923028Y-103437512D01*
X240792631Y-103637099D01*
X240792624Y-103637111D01*
X240789827Y-103641393D01*
X240787772Y-103646077D01*
X240787766Y-103646089D01*
X240706134Y-103832193D01*
X240689937Y-103869119D01*
X240688679Y-103874084D01*
X240688678Y-103874089D01*
X240658206Y-103994421D01*
X240626403Y-104050934D01*
X240570423Y-104083667D01*
X240505577Y-104083667D01*
X240449597Y-104050934D01*
X240417794Y-103994421D01*
X240402033Y-103932184D01*
X240386063Y-103869119D01*
X240286173Y-103641393D01*
X240281674Y-103634507D01*
X240212700Y-103528934D01*
X240150164Y-103433215D01*
X240135682Y-103417483D01*
X239985215Y-103254032D01*
X239985211Y-103254029D01*
X239981744Y-103250262D01*
X239785509Y-103097526D01*
X239780997Y-103095084D01*
X239571316Y-102981610D01*
X239571310Y-102981607D01*
X239566810Y-102979172D01*
X239561969Y-102977510D01*
X239561962Y-102977507D01*
X239336465Y-102900094D01*
X239336461Y-102900093D01*
X239331614Y-102898429D01*
X239322768Y-102896952D01*
X239091398Y-102858344D01*
X239091387Y-102858343D01*
X239086335Y-102857500D01*
X238837665Y-102857500D01*
X238832613Y-102858343D01*
X238832601Y-102858344D01*
X238597443Y-102897585D01*
X238597441Y-102897585D01*
X238592386Y-102898429D01*
X238587541Y-102900092D01*
X238587534Y-102900094D01*
X238362037Y-102977507D01*
X238362026Y-102977511D01*
X238357190Y-102979172D01*
X238352693Y-102981605D01*
X238352683Y-102981610D01*
X238143002Y-103095084D01*
X238142995Y-103095088D01*
X238138491Y-103097526D01*
X238134448Y-103100672D01*
X238134440Y-103100678D01*
X237959188Y-103237083D01*
X237942256Y-103250262D01*
X237938793Y-103254023D01*
X237938784Y-103254032D01*
X237788318Y-103417483D01*
X237746898Y-103447056D01*
X237697088Y-103457500D01*
X233726912Y-103457500D01*
X233677102Y-103447056D01*
X233635682Y-103417483D01*
X233485215Y-103254032D01*
X233485211Y-103254029D01*
X233481744Y-103250262D01*
X233285509Y-103097526D01*
X233280997Y-103095084D01*
X233071316Y-102981610D01*
X233071310Y-102981607D01*
X233066810Y-102979172D01*
X233061969Y-102977510D01*
X233061962Y-102977507D01*
X232836465Y-102900094D01*
X232836461Y-102900093D01*
X232831614Y-102898429D01*
X232822768Y-102896952D01*
X232591398Y-102858344D01*
X232591387Y-102858343D01*
X232586335Y-102857500D01*
X232337665Y-102857500D01*
X232332613Y-102858343D01*
X232332601Y-102858344D01*
X232097443Y-102897585D01*
X232097441Y-102897585D01*
X232092386Y-102898429D01*
X232087541Y-102900092D01*
X232087534Y-102900094D01*
X231862037Y-102977507D01*
X231862026Y-102977511D01*
X231857190Y-102979172D01*
X231852693Y-102981605D01*
X231852683Y-102981610D01*
X231643002Y-103095084D01*
X231642995Y-103095088D01*
X231638491Y-103097526D01*
X231634448Y-103100672D01*
X231634440Y-103100678D01*
X231459188Y-103237083D01*
X231442256Y-103250262D01*
X231438793Y-103254023D01*
X231438784Y-103254032D01*
X231277311Y-103429439D01*
X231277305Y-103429446D01*
X231273836Y-103433215D01*
X231271031Y-103437506D01*
X231271028Y-103437512D01*
X231140631Y-103637099D01*
X231140624Y-103637111D01*
X231137827Y-103641393D01*
X231135772Y-103646077D01*
X231135766Y-103646089D01*
X231054134Y-103832193D01*
X231037937Y-103869119D01*
X231036679Y-103874084D01*
X231036678Y-103874089D01*
X230978151Y-104105204D01*
X230978149Y-104105213D01*
X230976892Y-104110179D01*
X230976468Y-104115288D01*
X230976467Y-104115298D01*
X230957613Y-104342837D01*
X230956357Y-104358000D01*
X222641655Y-104358000D01*
X222663731Y-104335924D01*
X222669151Y-104330822D01*
X222714183Y-104290929D01*
X222748355Y-104241420D01*
X222752775Y-104235413D01*
X222789878Y-104188057D01*
X222794034Y-104178821D01*
X222805064Y-104159264D01*
X222810818Y-104150930D01*
X222832152Y-104094673D01*
X222834996Y-104087808D01*
X222859695Y-104032932D01*
X222861522Y-104022959D01*
X222867551Y-104001332D01*
X222871140Y-103991872D01*
X222878387Y-103932181D01*
X222879514Y-103924778D01*
X222884771Y-103896092D01*
X222890358Y-103865606D01*
X222886725Y-103805566D01*
X222886500Y-103798079D01*
X222886500Y-103235319D01*
X222897065Y-103185233D01*
X222926962Y-103143682D01*
X222998523Y-103078445D01*
X223002764Y-103074579D01*
X223074812Y-102979172D01*
X223087046Y-102962972D01*
X223130728Y-102926698D01*
X223186000Y-102913698D01*
X223241272Y-102926698D01*
X223284954Y-102962972D01*
X223365774Y-103069996D01*
X223365779Y-103070001D01*
X223369236Y-103074579D01*
X223373472Y-103078440D01*
X223373476Y-103078445D01*
X223397865Y-103100678D01*
X223519959Y-103211981D01*
X223693363Y-103319348D01*
X223883544Y-103393024D01*
X224084024Y-103430500D01*
X224282247Y-103430500D01*
X224287976Y-103430500D01*
X224488456Y-103393024D01*
X224678637Y-103319348D01*
X224852041Y-103211981D01*
X225002764Y-103074579D01*
X225074812Y-102979172D01*
X225087046Y-102962972D01*
X225130728Y-102926698D01*
X225186000Y-102913698D01*
X225241272Y-102926698D01*
X225284954Y-102962972D01*
X225365774Y-103069996D01*
X225365779Y-103070001D01*
X225369236Y-103074579D01*
X225373472Y-103078440D01*
X225373476Y-103078445D01*
X225397865Y-103100678D01*
X225519959Y-103211981D01*
X225693363Y-103319348D01*
X225883544Y-103393024D01*
X226084024Y-103430500D01*
X226282247Y-103430500D01*
X226287976Y-103430500D01*
X226488456Y-103393024D01*
X226678637Y-103319348D01*
X226852041Y-103211981D01*
X227002764Y-103074579D01*
X227074812Y-102979172D01*
X227087046Y-102962972D01*
X227130728Y-102926698D01*
X227186000Y-102913698D01*
X227241272Y-102926698D01*
X227284954Y-102962972D01*
X227365774Y-103069996D01*
X227365779Y-103070001D01*
X227369236Y-103074579D01*
X227373472Y-103078440D01*
X227373476Y-103078445D01*
X227397865Y-103100678D01*
X227519959Y-103211981D01*
X227693363Y-103319348D01*
X227883544Y-103393024D01*
X228084024Y-103430500D01*
X228282247Y-103430500D01*
X228287976Y-103430500D01*
X228488456Y-103393024D01*
X228678637Y-103319348D01*
X228852041Y-103211981D01*
X229002764Y-103074579D01*
X229125673Y-102911821D01*
X229216582Y-102729250D01*
X229272397Y-102533083D01*
X229291215Y-102330000D01*
X229272397Y-102126917D01*
X229216582Y-101930750D01*
X229125673Y-101748179D01*
X229077176Y-101683959D01*
X229006221Y-101589998D01*
X229006217Y-101589994D01*
X229002764Y-101585421D01*
X228998527Y-101581558D01*
X228998523Y-101581554D01*
X228856275Y-101451879D01*
X228856276Y-101451879D01*
X228852041Y-101448019D01*
X228847170Y-101445003D01*
X228847169Y-101445002D01*
X228831704Y-101435427D01*
X228788652Y-101390339D01*
X228772981Y-101330000D01*
X228788652Y-101269661D01*
X228831704Y-101224573D01*
X228852041Y-101211981D01*
X229002764Y-101074579D01*
X229125673Y-100911821D01*
X229216582Y-100729250D01*
X229272397Y-100533083D01*
X229291215Y-100330000D01*
X229272397Y-100126917D01*
X229216582Y-99930750D01*
X229185267Y-99867862D01*
X229182706Y-99858000D01*
X230956357Y-99858000D01*
X230956781Y-99863117D01*
X230976467Y-100100701D01*
X230976468Y-100100709D01*
X230976892Y-100105821D01*
X230978149Y-100110788D01*
X230978151Y-100110795D01*
X231008686Y-100231373D01*
X231037937Y-100346881D01*
X231039997Y-100351577D01*
X231135766Y-100569910D01*
X231135769Y-100569916D01*
X231137827Y-100574607D01*
X231140627Y-100578893D01*
X231140631Y-100578900D01*
X231235254Y-100723731D01*
X231273836Y-100782785D01*
X231277310Y-100786559D01*
X231277311Y-100786560D01*
X231438784Y-100961967D01*
X231438787Y-100961970D01*
X231442256Y-100965738D01*
X231638491Y-101118474D01*
X231857190Y-101236828D01*
X232092386Y-101317571D01*
X232337665Y-101358500D01*
X232581201Y-101358500D01*
X232586335Y-101358500D01*
X232831614Y-101317571D01*
X233066810Y-101236828D01*
X233285509Y-101118474D01*
X233481744Y-100965738D01*
X233635681Y-100798517D01*
X233677102Y-100768944D01*
X233726912Y-100758500D01*
X237697088Y-100758500D01*
X237746898Y-100768944D01*
X237788318Y-100798517D01*
X237938784Y-100961967D01*
X237938787Y-100961970D01*
X237942256Y-100965738D01*
X238138491Y-101118474D01*
X238357190Y-101236828D01*
X238592386Y-101317571D01*
X238837665Y-101358500D01*
X239081201Y-101358500D01*
X239086335Y-101358500D01*
X239331614Y-101317571D01*
X239566810Y-101236828D01*
X239785509Y-101118474D01*
X239981744Y-100965738D01*
X240135681Y-100798517D01*
X240177102Y-100768944D01*
X240226912Y-100758500D01*
X240849088Y-100758500D01*
X240898898Y-100768944D01*
X240940318Y-100798517D01*
X241090784Y-100961967D01*
X241090787Y-100961970D01*
X241094256Y-100965738D01*
X241290491Y-101118474D01*
X241509190Y-101236828D01*
X241744386Y-101317571D01*
X241989665Y-101358500D01*
X242233201Y-101358500D01*
X242238335Y-101358500D01*
X242483614Y-101317571D01*
X242718810Y-101236828D01*
X242937509Y-101118474D01*
X243133744Y-100965738D01*
X243287681Y-100798517D01*
X243329102Y-100768944D01*
X243378912Y-100758500D01*
X247349088Y-100758500D01*
X247398898Y-100768944D01*
X247440318Y-100798517D01*
X247590784Y-100961967D01*
X247590787Y-100961970D01*
X247594256Y-100965738D01*
X247790491Y-101118474D01*
X248009190Y-101236828D01*
X248244386Y-101317571D01*
X248489665Y-101358500D01*
X248733201Y-101358500D01*
X248738335Y-101358500D01*
X248983614Y-101317571D01*
X249218810Y-101236828D01*
X249437509Y-101118474D01*
X249633744Y-100965738D01*
X249802164Y-100782785D01*
X249938173Y-100574607D01*
X250038063Y-100346881D01*
X250099108Y-100105821D01*
X250119643Y-99858000D01*
X250099108Y-99610179D01*
X250038063Y-99369119D01*
X249938173Y-99141393D01*
X249802164Y-98933215D01*
X249787682Y-98917483D01*
X249637215Y-98754032D01*
X249637211Y-98754029D01*
X249633744Y-98750262D01*
X249437509Y-98597526D01*
X249360083Y-98555625D01*
X249223316Y-98481610D01*
X249223310Y-98481607D01*
X249218810Y-98479172D01*
X249213969Y-98477510D01*
X249213962Y-98477507D01*
X248988465Y-98400094D01*
X248988461Y-98400093D01*
X248983614Y-98398429D01*
X248967158Y-98395683D01*
X248743398Y-98358344D01*
X248743387Y-98358343D01*
X248738335Y-98357500D01*
X248489665Y-98357500D01*
X248484613Y-98358343D01*
X248484601Y-98358344D01*
X248249443Y-98397585D01*
X248249441Y-98397585D01*
X248244386Y-98398429D01*
X248239541Y-98400092D01*
X248239534Y-98400094D01*
X248014037Y-98477507D01*
X248014026Y-98477511D01*
X248009190Y-98479172D01*
X248004693Y-98481605D01*
X248004683Y-98481610D01*
X247795002Y-98595084D01*
X247794995Y-98595088D01*
X247790491Y-98597526D01*
X247786448Y-98600672D01*
X247786440Y-98600678D01*
X247619181Y-98730862D01*
X247594256Y-98750262D01*
X247590793Y-98754023D01*
X247590784Y-98754032D01*
X247440318Y-98917483D01*
X247398898Y-98947056D01*
X247349088Y-98957500D01*
X243378912Y-98957500D01*
X243329102Y-98947056D01*
X243287682Y-98917483D01*
X243137215Y-98754032D01*
X243137211Y-98754029D01*
X243133744Y-98750262D01*
X242937509Y-98597526D01*
X242860083Y-98555625D01*
X242723316Y-98481610D01*
X242723310Y-98481607D01*
X242718810Y-98479172D01*
X242713969Y-98477510D01*
X242713962Y-98477507D01*
X242488465Y-98400094D01*
X242488461Y-98400093D01*
X242483614Y-98398429D01*
X242467158Y-98395683D01*
X242243398Y-98358344D01*
X242243387Y-98358343D01*
X242238335Y-98357500D01*
X241989665Y-98357500D01*
X241984613Y-98358343D01*
X241984601Y-98358344D01*
X241749443Y-98397585D01*
X241749441Y-98397585D01*
X241744386Y-98398429D01*
X241739541Y-98400092D01*
X241739534Y-98400094D01*
X241514037Y-98477507D01*
X241514026Y-98477511D01*
X241509190Y-98479172D01*
X241504693Y-98481605D01*
X241504683Y-98481610D01*
X241295002Y-98595084D01*
X241294995Y-98595088D01*
X241290491Y-98597526D01*
X241286448Y-98600672D01*
X241286440Y-98600678D01*
X241119181Y-98730862D01*
X241094256Y-98750262D01*
X241090793Y-98754023D01*
X241090784Y-98754032D01*
X240940318Y-98917483D01*
X240898898Y-98947056D01*
X240849088Y-98957500D01*
X240226912Y-98957500D01*
X240177102Y-98947056D01*
X240135682Y-98917483D01*
X239985215Y-98754032D01*
X239985211Y-98754029D01*
X239981744Y-98750262D01*
X239785509Y-98597526D01*
X239708083Y-98555625D01*
X239571316Y-98481610D01*
X239571310Y-98481607D01*
X239566810Y-98479172D01*
X239561969Y-98477510D01*
X239561962Y-98477507D01*
X239336465Y-98400094D01*
X239336461Y-98400093D01*
X239331614Y-98398429D01*
X239315158Y-98395683D01*
X239091398Y-98358344D01*
X239091387Y-98358343D01*
X239086335Y-98357500D01*
X238837665Y-98357500D01*
X238832613Y-98358343D01*
X238832601Y-98358344D01*
X238597443Y-98397585D01*
X238597441Y-98397585D01*
X238592386Y-98398429D01*
X238587541Y-98400092D01*
X238587534Y-98400094D01*
X238362037Y-98477507D01*
X238362026Y-98477511D01*
X238357190Y-98479172D01*
X238352693Y-98481605D01*
X238352683Y-98481610D01*
X238143002Y-98595084D01*
X238142995Y-98595088D01*
X238138491Y-98597526D01*
X238134448Y-98600672D01*
X238134440Y-98600678D01*
X237967181Y-98730862D01*
X237942256Y-98750262D01*
X237938793Y-98754023D01*
X237938784Y-98754032D01*
X237788318Y-98917483D01*
X237746898Y-98947056D01*
X237697088Y-98957500D01*
X233726912Y-98957500D01*
X233677102Y-98947056D01*
X233635682Y-98917483D01*
X233485215Y-98754032D01*
X233485211Y-98754029D01*
X233481744Y-98750262D01*
X233285509Y-98597526D01*
X233208083Y-98555625D01*
X233071316Y-98481610D01*
X233071310Y-98481607D01*
X233066810Y-98479172D01*
X233061969Y-98477510D01*
X233061962Y-98477507D01*
X232836465Y-98400094D01*
X232836461Y-98400093D01*
X232831614Y-98398429D01*
X232815158Y-98395683D01*
X232591398Y-98358344D01*
X232591387Y-98358343D01*
X232586335Y-98357500D01*
X232337665Y-98357500D01*
X232332613Y-98358343D01*
X232332601Y-98358344D01*
X232097443Y-98397585D01*
X232097441Y-98397585D01*
X232092386Y-98398429D01*
X232087541Y-98400092D01*
X232087534Y-98400094D01*
X231862037Y-98477507D01*
X231862026Y-98477511D01*
X231857190Y-98479172D01*
X231852693Y-98481605D01*
X231852683Y-98481610D01*
X231643002Y-98595084D01*
X231642995Y-98595088D01*
X231638491Y-98597526D01*
X231634448Y-98600672D01*
X231634440Y-98600678D01*
X231467181Y-98730862D01*
X231442256Y-98750262D01*
X231438793Y-98754023D01*
X231438784Y-98754032D01*
X231277311Y-98929439D01*
X231277305Y-98929446D01*
X231273836Y-98933215D01*
X231271031Y-98937506D01*
X231271028Y-98937512D01*
X231140631Y-99137099D01*
X231140624Y-99137111D01*
X231137827Y-99141393D01*
X231135772Y-99146077D01*
X231135766Y-99146089D01*
X231049100Y-99343670D01*
X231037937Y-99369119D01*
X231036679Y-99374084D01*
X231036678Y-99374089D01*
X230978151Y-99605204D01*
X230978149Y-99605213D01*
X230976892Y-99610179D01*
X230976468Y-99615288D01*
X230976467Y-99615298D01*
X230959645Y-99818318D01*
X230956357Y-99858000D01*
X229182706Y-99858000D01*
X229172400Y-99818318D01*
X229180641Y-99767797D01*
X229208585Y-99724913D01*
X230449743Y-98483755D01*
X230464531Y-98471126D01*
X230475871Y-98462888D01*
X230521257Y-98412480D01*
X230525712Y-98407787D01*
X230540120Y-98393380D01*
X230552964Y-98377517D01*
X230557131Y-98372638D01*
X230602533Y-98322216D01*
X230609536Y-98310084D01*
X230620564Y-98294039D01*
X230625294Y-98288198D01*
X230629383Y-98283149D01*
X230660178Y-98222707D01*
X230663257Y-98217035D01*
X230697179Y-98158284D01*
X230701508Y-98144956D01*
X230708957Y-98126973D01*
X230715320Y-98114488D01*
X230732872Y-98048980D01*
X230734716Y-98042757D01*
X230753666Y-97984437D01*
X230753666Y-97984433D01*
X230755674Y-97978256D01*
X230757138Y-97964317D01*
X230760683Y-97945190D01*
X230764313Y-97931645D01*
X230767862Y-97863906D01*
X230768371Y-97857447D01*
X230770161Y-97840421D01*
X230770161Y-97840413D01*
X230770500Y-97837192D01*
X230770500Y-97816825D01*
X230770670Y-97810336D01*
X230773879Y-97749101D01*
X230773878Y-97749100D01*
X230774219Y-97742612D01*
X230772027Y-97728772D01*
X230770500Y-97709374D01*
X230770500Y-90594361D01*
X230779939Y-90546908D01*
X230806819Y-90506680D01*
X240274680Y-81038818D01*
X240314908Y-81011938D01*
X240362361Y-81002499D01*
X241582561Y-81002499D01*
X241585872Y-81002499D01*
X241645483Y-80996091D01*
X241780331Y-80945796D01*
X241895546Y-80859546D01*
X241981796Y-80744331D01*
X242032091Y-80609483D01*
X242038500Y-80549873D01*
X242038499Y-78454128D01*
X242032091Y-78394517D01*
X241981796Y-78259669D01*
X241895546Y-78144454D01*
X241859449Y-78117432D01*
X241787431Y-78063519D01*
X241787430Y-78063518D01*
X241780331Y-78058204D01*
X241645483Y-78007909D01*
X241637770Y-78007079D01*
X241637767Y-78007079D01*
X241589180Y-78001855D01*
X241589169Y-78001854D01*
X241585873Y-78001500D01*
X241582550Y-78001500D01*
X239493439Y-78001500D01*
X239493420Y-78001500D01*
X239490128Y-78001501D01*
X239486850Y-78001853D01*
X239486838Y-78001854D01*
X239438231Y-78007079D01*
X239438225Y-78007080D01*
X239430517Y-78007909D01*
X239423252Y-78010618D01*
X239423246Y-78010620D01*
X239303980Y-78055104D01*
X239303978Y-78055104D01*
X239295669Y-78058204D01*
X239288572Y-78063516D01*
X239288568Y-78063519D01*
X239187550Y-78139141D01*
X239187546Y-78139144D01*
X239180454Y-78144454D01*
X239175144Y-78151546D01*
X239175141Y-78151550D01*
X239099519Y-78252568D01*
X239099516Y-78252572D01*
X239094204Y-78259669D01*
X239091104Y-78267978D01*
X239091104Y-78267980D01*
X239046620Y-78387247D01*
X239046619Y-78387250D01*
X239043909Y-78394517D01*
X239043079Y-78402227D01*
X239043079Y-78402232D01*
X239037855Y-78450819D01*
X239037854Y-78450831D01*
X239037500Y-78454127D01*
X239037500Y-78457449D01*
X239037500Y-79677638D01*
X239028061Y-79725091D01*
X239001181Y-79765319D01*
X229290263Y-89476236D01*
X229275475Y-89488868D01*
X229269383Y-89493294D01*
X229269379Y-89493296D01*
X229264129Y-89497112D01*
X229259784Y-89501936D01*
X229259781Y-89501940D01*
X229218752Y-89547507D01*
X229214287Y-89552212D01*
X229202178Y-89564320D01*
X229202152Y-89564348D01*
X229199881Y-89566620D01*
X229197849Y-89569128D01*
X229197840Y-89569139D01*
X229187061Y-89582449D01*
X229182852Y-89587377D01*
X229141815Y-89632954D01*
X229141811Y-89632958D01*
X229137467Y-89637784D01*
X229134220Y-89643406D01*
X229134219Y-89643409D01*
X229130458Y-89649924D01*
X229119445Y-89665948D01*
X229114705Y-89671801D01*
X229114699Y-89671809D01*
X229110617Y-89676851D01*
X229107671Y-89682630D01*
X229107668Y-89682637D01*
X229079818Y-89737295D01*
X229076722Y-89742996D01*
X229046070Y-89796087D01*
X229046067Y-89796093D01*
X229042821Y-89801716D01*
X229040815Y-89807887D01*
X229040811Y-89807898D01*
X229038486Y-89815055D01*
X229031045Y-89833018D01*
X229027634Y-89839712D01*
X229027630Y-89839721D01*
X229024680Y-89845512D01*
X229022998Y-89851788D01*
X229022996Y-89851794D01*
X229007127Y-89911015D01*
X229005285Y-89917235D01*
X228986331Y-89975571D01*
X228986329Y-89975576D01*
X228984326Y-89981744D01*
X228983647Y-89988194D01*
X228983646Y-89988204D01*
X228982859Y-89995691D01*
X228979316Y-90014807D01*
X228977368Y-90022076D01*
X228977366Y-90022086D01*
X228975687Y-90028354D01*
X228975347Y-90034839D01*
X228975347Y-90034840D01*
X228972136Y-90096092D01*
X228971628Y-90102553D01*
X228969500Y-90122808D01*
X228969500Y-90126053D01*
X228969500Y-90143174D01*
X228969330Y-90149663D01*
X228967442Y-90185700D01*
X228965781Y-90217388D01*
X228966798Y-90223809D01*
X228967973Y-90231228D01*
X228969500Y-90250626D01*
X228969500Y-97365638D01*
X228960061Y-97413091D01*
X228933181Y-97453319D01*
X227606263Y-98780236D01*
X227591475Y-98792868D01*
X227585383Y-98797294D01*
X227585379Y-98797296D01*
X227580129Y-98801112D01*
X227575784Y-98805936D01*
X227575781Y-98805940D01*
X227534752Y-98851507D01*
X227530287Y-98856212D01*
X227518178Y-98868320D01*
X227518152Y-98868348D01*
X227515881Y-98870620D01*
X227513849Y-98873128D01*
X227513840Y-98873139D01*
X227503061Y-98886449D01*
X227498852Y-98891377D01*
X227457815Y-98936954D01*
X227457811Y-98936958D01*
X227453467Y-98941784D01*
X227450220Y-98947406D01*
X227450219Y-98947409D01*
X227446458Y-98953924D01*
X227435445Y-98969948D01*
X227430705Y-98975801D01*
X227430699Y-98975809D01*
X227426617Y-98980851D01*
X227423671Y-98986630D01*
X227423668Y-98986637D01*
X227395818Y-99041295D01*
X227392722Y-99046996D01*
X227362070Y-99100087D01*
X227362067Y-99100093D01*
X227358821Y-99105716D01*
X227356815Y-99111887D01*
X227356811Y-99111898D01*
X227354486Y-99119055D01*
X227347045Y-99137018D01*
X227343634Y-99143712D01*
X227343630Y-99143721D01*
X227340680Y-99149512D01*
X227338998Y-99155788D01*
X227338996Y-99155794D01*
X227323127Y-99215015D01*
X227321285Y-99221235D01*
X227302331Y-99279571D01*
X227302329Y-99279576D01*
X227300326Y-99285744D01*
X227299647Y-99292194D01*
X227299646Y-99292204D01*
X227298859Y-99299691D01*
X227295316Y-99318807D01*
X227293368Y-99326076D01*
X227293366Y-99326086D01*
X227291687Y-99332354D01*
X227291347Y-99338839D01*
X227291347Y-99338840D01*
X227288136Y-99400092D01*
X227287628Y-99406553D01*
X227285500Y-99426808D01*
X227285500Y-99430053D01*
X227285500Y-99447174D01*
X227285329Y-99453663D01*
X227281781Y-99521388D01*
X227282798Y-99527809D01*
X227283973Y-99535228D01*
X227285500Y-99554626D01*
X227285500Y-99589858D01*
X227270382Y-99649193D01*
X227228715Y-99694061D01*
X227170658Y-99713519D01*
X227110368Y-99702825D01*
X227062546Y-99664585D01*
X227006221Y-99589998D01*
X227006217Y-99589994D01*
X227002764Y-99585421D01*
X226998527Y-99581558D01*
X226998523Y-99581554D01*
X226926962Y-99516318D01*
X226897065Y-99474767D01*
X226886500Y-99424681D01*
X226886500Y-96763961D01*
X226900611Y-96706512D01*
X226939731Y-96662139D01*
X226994959Y-96640939D01*
X227053723Y-96647738D01*
X227102649Y-96680988D01*
X227184170Y-96771526D01*
X227328807Y-96876612D01*
X227492133Y-96949329D01*
X227498491Y-96950680D01*
X227498493Y-96950681D01*
X227534085Y-96958246D01*
X227667009Y-96986500D01*
X227839288Y-96986500D01*
X227845791Y-96986500D01*
X228020667Y-96949329D01*
X228183993Y-96876612D01*
X228328630Y-96771526D01*
X228448259Y-96638665D01*
X228537650Y-96483835D01*
X228592897Y-96313803D01*
X228611585Y-96136000D01*
X228592897Y-95958197D01*
X228537650Y-95788165D01*
X228448259Y-95633335D01*
X228328630Y-95500474D01*
X228257190Y-95448569D01*
X228189247Y-95399205D01*
X228189245Y-95399203D01*
X228183993Y-95395388D01*
X228110255Y-95362558D01*
X228026605Y-95325314D01*
X228026598Y-95325311D01*
X228020667Y-95322671D01*
X228014314Y-95321320D01*
X228014306Y-95321318D01*
X227852153Y-95286852D01*
X227852150Y-95286851D01*
X227845791Y-95285500D01*
X227667009Y-95285500D01*
X227660650Y-95286851D01*
X227660646Y-95286852D01*
X227498493Y-95321318D01*
X227498482Y-95321321D01*
X227492133Y-95322671D01*
X227486204Y-95325310D01*
X227486194Y-95325314D01*
X227334742Y-95392745D01*
X227334734Y-95392749D01*
X227328808Y-95395388D01*
X227323559Y-95399201D01*
X227323553Y-95399205D01*
X227189423Y-95496656D01*
X227189414Y-95496663D01*
X227184170Y-95500474D01*
X227179826Y-95505297D01*
X227179823Y-95505301D01*
X227102650Y-95591011D01*
X227053723Y-95624262D01*
X226994959Y-95631061D01*
X226939731Y-95609861D01*
X226900611Y-95565488D01*
X226886500Y-95508039D01*
X226886500Y-91020519D01*
X226895939Y-90973066D01*
X226922819Y-90932838D01*
X230583712Y-87271945D01*
X234250975Y-83604681D01*
X234279486Y-83583392D01*
X234312869Y-83571075D01*
X234467803Y-83538144D01*
X234640730Y-83461151D01*
X234793871Y-83349888D01*
X234920533Y-83209216D01*
X235015179Y-83045284D01*
X235073674Y-82865256D01*
X235093460Y-82677000D01*
X235073674Y-82488744D01*
X235015179Y-82308716D01*
X234920533Y-82144784D01*
X234793871Y-82004112D01*
X234788613Y-82000292D01*
X234788611Y-82000290D01*
X234645988Y-81896669D01*
X234645987Y-81896668D01*
X234640730Y-81892849D01*
X234634792Y-81890205D01*
X234473745Y-81818501D01*
X234473740Y-81818499D01*
X234467803Y-81815856D01*
X234461444Y-81814504D01*
X234461440Y-81814503D01*
X234289008Y-81777852D01*
X234289005Y-81777851D01*
X234282646Y-81776500D01*
X234093354Y-81776500D01*
X234086995Y-81777851D01*
X234086991Y-81777852D01*
X233914559Y-81814503D01*
X233914552Y-81814505D01*
X233908197Y-81815856D01*
X233902262Y-81818498D01*
X233902254Y-81818501D01*
X233741207Y-81890205D01*
X233741202Y-81890207D01*
X233735270Y-81892849D01*
X233730016Y-81896665D01*
X233730011Y-81896669D01*
X233587388Y-82000290D01*
X233587381Y-82000295D01*
X233582129Y-82004112D01*
X233577784Y-82008937D01*
X233577779Y-82008942D01*
X233459813Y-82139956D01*
X233459808Y-82139962D01*
X233455467Y-82144784D01*
X233452222Y-82150404D01*
X233452218Y-82150410D01*
X233364069Y-82303089D01*
X233364066Y-82303094D01*
X233360821Y-82308716D01*
X233358815Y-82314888D01*
X233358813Y-82314894D01*
X233319521Y-82435823D01*
X233302326Y-82488744D01*
X233301647Y-82495196D01*
X233301646Y-82495205D01*
X233297135Y-82538128D01*
X233285734Y-82578549D01*
X233261495Y-82612846D01*
X225708290Y-90166051D01*
X225702838Y-90171184D01*
X225663431Y-90206096D01*
X225663425Y-90206102D01*
X225657817Y-90211071D01*
X225653560Y-90217236D01*
X225653551Y-90217248D01*
X225623649Y-90260568D01*
X225619213Y-90266597D01*
X225586749Y-90308035D01*
X225586743Y-90308043D01*
X225582122Y-90313943D01*
X225579044Y-90320780D01*
X225579043Y-90320783D01*
X225577962Y-90323185D01*
X225566940Y-90342727D01*
X225565441Y-90344898D01*
X225565437Y-90344904D01*
X225561182Y-90351070D01*
X225558526Y-90358070D01*
X225558522Y-90358080D01*
X225539853Y-90407305D01*
X225536989Y-90414219D01*
X225515382Y-90462229D01*
X225515379Y-90462235D01*
X225512305Y-90469068D01*
X225510953Y-90476439D01*
X225510951Y-90476449D01*
X225510474Y-90479053D01*
X225504456Y-90500643D01*
X225503519Y-90503114D01*
X225503517Y-90503119D01*
X225500860Y-90510128D01*
X225499956Y-90517565D01*
X225499956Y-90517569D01*
X225493610Y-90569827D01*
X225492483Y-90577226D01*
X225482994Y-90629010D01*
X225482993Y-90629018D01*
X225481642Y-90636394D01*
X225482094Y-90643873D01*
X225482094Y-90643881D01*
X225485274Y-90696433D01*
X225485500Y-90703921D01*
X225485500Y-99424681D01*
X225474935Y-99474767D01*
X225445038Y-99516318D01*
X225373476Y-99581554D01*
X225373466Y-99581564D01*
X225369236Y-99585421D01*
X225365787Y-99589987D01*
X225365778Y-99589998D01*
X225284954Y-99697028D01*
X225241271Y-99733301D01*
X225186000Y-99746301D01*
X225130729Y-99733301D01*
X225087046Y-99697028D01*
X225006221Y-99589998D01*
X225006217Y-99589994D01*
X225002764Y-99585421D01*
X224998527Y-99581558D01*
X224998523Y-99581554D01*
X224856275Y-99451879D01*
X224856276Y-99451879D01*
X224852041Y-99448019D01*
X224847171Y-99445004D01*
X224847169Y-99445002D01*
X224683511Y-99343670D01*
X224683512Y-99343670D01*
X224678637Y-99340652D01*
X224673294Y-99338582D01*
X224493803Y-99269047D01*
X224493798Y-99269045D01*
X224488456Y-99266976D01*
X224449153Y-99259629D01*
X224293605Y-99230552D01*
X224293602Y-99230551D01*
X224287976Y-99229500D01*
X224084024Y-99229500D01*
X224078398Y-99230551D01*
X224078394Y-99230552D01*
X223889181Y-99265922D01*
X223889178Y-99265922D01*
X223883544Y-99266976D01*
X223878203Y-99269044D01*
X223878196Y-99269047D01*
X223698705Y-99338582D01*
X223698700Y-99338584D01*
X223693363Y-99340652D01*
X223688491Y-99343668D01*
X223688488Y-99343670D01*
X223524830Y-99445002D01*
X223524822Y-99445007D01*
X223519959Y-99448019D01*
X223515728Y-99451875D01*
X223515724Y-99451879D01*
X223373476Y-99581554D01*
X223373466Y-99581564D01*
X223369236Y-99585421D01*
X223365787Y-99589987D01*
X223365778Y-99589998D01*
X223284954Y-99697028D01*
X223241271Y-99733301D01*
X223186000Y-99746301D01*
X223130729Y-99733301D01*
X223087046Y-99697028D01*
X223006221Y-99589998D01*
X223006217Y-99589994D01*
X223002764Y-99585421D01*
X222998527Y-99581558D01*
X222998523Y-99581554D01*
X222856275Y-99451879D01*
X222856276Y-99451879D01*
X222852041Y-99448019D01*
X222847171Y-99445004D01*
X222847169Y-99445002D01*
X222683511Y-99343670D01*
X222683512Y-99343670D01*
X222678637Y-99340652D01*
X222673294Y-99338582D01*
X222493803Y-99269047D01*
X222493798Y-99269045D01*
X222488456Y-99266976D01*
X222355546Y-99242131D01*
X222289715Y-99229825D01*
X222237773Y-99206890D01*
X222201500Y-99163208D01*
X222188500Y-99107936D01*
X222188500Y-93579392D01*
X222196749Y-93534920D01*
X222213703Y-93507279D01*
X222212363Y-93506306D01*
X222216184Y-93501045D01*
X222220533Y-93496216D01*
X222315179Y-93332284D01*
X222373674Y-93152256D01*
X222393460Y-92964000D01*
X222373674Y-92775744D01*
X222315179Y-92595716D01*
X222220533Y-92431784D01*
X222194681Y-92403073D01*
X222098220Y-92295942D01*
X222098219Y-92295941D01*
X222093871Y-92291112D01*
X222088613Y-92287292D01*
X222088611Y-92287290D01*
X221945988Y-92183669D01*
X221945987Y-92183668D01*
X221940730Y-92179849D01*
X221934792Y-92177205D01*
X221773745Y-92105501D01*
X221773740Y-92105499D01*
X221767803Y-92102856D01*
X221753182Y-92099748D01*
X221716561Y-92091964D01*
X221658171Y-92061730D01*
X221623449Y-92005891D01*
X221622158Y-91940151D01*
X221654660Y-91882995D01*
X222566974Y-90970681D01*
X222595485Y-90949392D01*
X222628869Y-90937075D01*
X222783803Y-90904144D01*
X222956730Y-90827151D01*
X223109871Y-90715888D01*
X223236533Y-90575216D01*
X223331179Y-90411284D01*
X223389674Y-90231256D01*
X223409460Y-90043000D01*
X223389674Y-89854744D01*
X223331179Y-89674716D01*
X223236533Y-89510784D01*
X223211639Y-89483137D01*
X223114220Y-89374942D01*
X223114219Y-89374941D01*
X223109871Y-89370112D01*
X223104613Y-89366292D01*
X223104611Y-89366290D01*
X222961988Y-89262669D01*
X222961987Y-89262668D01*
X222956730Y-89258849D01*
X222906231Y-89236365D01*
X222789745Y-89184501D01*
X222789740Y-89184499D01*
X222783803Y-89181856D01*
X222777444Y-89180504D01*
X222777440Y-89180503D01*
X222605008Y-89143852D01*
X222605005Y-89143851D01*
X222598646Y-89142500D01*
X222409354Y-89142500D01*
X222402995Y-89143851D01*
X222402991Y-89143852D01*
X222230559Y-89180503D01*
X222230552Y-89180505D01*
X222224197Y-89181856D01*
X222218262Y-89184498D01*
X222218254Y-89184501D01*
X222057207Y-89256205D01*
X222057202Y-89256207D01*
X222051270Y-89258849D01*
X222046016Y-89262665D01*
X222046011Y-89262669D01*
X221903388Y-89366290D01*
X221903381Y-89366295D01*
X221898129Y-89370112D01*
X221893784Y-89374937D01*
X221893779Y-89374942D01*
X221775813Y-89505956D01*
X221775808Y-89505962D01*
X221771467Y-89510784D01*
X221768222Y-89516404D01*
X221768218Y-89516410D01*
X221680069Y-89669089D01*
X221680066Y-89669094D01*
X221676821Y-89674716D01*
X221674815Y-89680888D01*
X221674813Y-89680894D01*
X221620334Y-89848563D01*
X221618326Y-89854744D01*
X221617647Y-89861196D01*
X221617646Y-89861205D01*
X221613135Y-89904129D01*
X221601734Y-89944550D01*
X221577495Y-89978847D01*
X217728056Y-93828285D01*
X217675593Y-93859498D01*
X217614594Y-93861894D01*
X217525009Y-93842852D01*
X217525004Y-93842851D01*
X217518646Y-93841500D01*
X217329354Y-93841500D01*
X217322995Y-93842851D01*
X217322991Y-93842852D01*
X217150559Y-93879503D01*
X217150552Y-93879505D01*
X217144197Y-93880856D01*
X217138262Y-93883498D01*
X217138254Y-93883501D01*
X217004650Y-93942986D01*
X216974935Y-93956217D01*
X216914772Y-93966556D01*
X216856965Y-93946933D01*
X216815527Y-93902106D01*
X216800500Y-93842938D01*
X216800500Y-83900626D01*
X216802027Y-83881228D01*
X216802056Y-83881044D01*
X216804219Y-83867388D01*
X216800670Y-83799664D01*
X216800500Y-83793175D01*
X216800500Y-83776050D01*
X216800500Y-83772808D01*
X216798371Y-83752553D01*
X216797862Y-83746095D01*
X216794313Y-83678355D01*
X216790685Y-83664818D01*
X216787138Y-83645674D01*
X216786353Y-83638205D01*
X216785674Y-83631744D01*
X216764714Y-83567237D01*
X216762871Y-83561014D01*
X216747002Y-83501789D01*
X216747001Y-83501788D01*
X216745320Y-83495512D01*
X216738956Y-83483022D01*
X216731506Y-83465036D01*
X216731102Y-83463794D01*
X216727179Y-83451716D01*
X216723926Y-83446083D01*
X216723925Y-83446079D01*
X216693265Y-83392975D01*
X216690178Y-83387292D01*
X216659383Y-83326851D01*
X216650559Y-83315954D01*
X216639541Y-83299922D01*
X216632533Y-83287784D01*
X216620386Y-83274294D01*
X216587145Y-83237376D01*
X216582928Y-83232437D01*
X216580752Y-83229750D01*
X216570120Y-83216620D01*
X216555714Y-83202214D01*
X216551246Y-83197506D01*
X216510217Y-83151939D01*
X216505871Y-83147112D01*
X216500617Y-83143294D01*
X216500614Y-83143292D01*
X216494529Y-83138871D01*
X216479735Y-83126235D01*
X214078747Y-80725248D01*
X232073749Y-80725248D01*
X232081855Y-80736439D01*
X232110717Y-80758903D01*
X232119279Y-80764496D01*
X232328885Y-80877929D01*
X232338239Y-80882032D01*
X232563656Y-80959417D01*
X232573568Y-80961928D01*
X232808643Y-81001155D01*
X232818839Y-81002000D01*
X233057161Y-81002000D01*
X233067356Y-81001155D01*
X233302431Y-80961928D01*
X233312343Y-80959417D01*
X233537760Y-80882032D01*
X233547114Y-80877929D01*
X233756723Y-80764495D01*
X233765281Y-80758903D01*
X233794146Y-80736437D01*
X233802250Y-80725250D01*
X233795589Y-80713142D01*
X232949542Y-79867095D01*
X232938000Y-79860431D01*
X232926457Y-79867095D01*
X232080408Y-80713143D01*
X232073749Y-80725248D01*
X214078747Y-80725248D01*
X212860616Y-79507117D01*
X231433283Y-79507117D01*
X231452962Y-79744618D01*
X231454646Y-79754712D01*
X231513153Y-79985747D01*
X231516472Y-79995414D01*
X231612208Y-80213673D01*
X231617070Y-80222656D01*
X231706999Y-80360304D01*
X231714963Y-80368024D01*
X231724345Y-80362100D01*
X232572904Y-79513542D01*
X232579568Y-79502000D01*
X232579567Y-79501999D01*
X233296431Y-79501999D01*
X233303095Y-79513542D01*
X234151653Y-80362100D01*
X234161034Y-80368024D01*
X234169002Y-80360299D01*
X234258924Y-80222664D01*
X234263792Y-80213669D01*
X234359527Y-79995414D01*
X234362846Y-79985747D01*
X234421353Y-79754712D01*
X234423037Y-79744618D01*
X234442717Y-79507117D01*
X234442717Y-79496883D01*
X234423037Y-79259381D01*
X234421353Y-79249287D01*
X234362846Y-79018252D01*
X234359527Y-79008585D01*
X234263792Y-78790330D01*
X234258924Y-78781335D01*
X234169002Y-78643699D01*
X234161034Y-78635974D01*
X234151653Y-78641898D01*
X233303095Y-79490457D01*
X233296431Y-79501999D01*
X232579567Y-79501999D01*
X232572904Y-79490457D01*
X231724345Y-78641898D01*
X231714964Y-78635974D01*
X231706997Y-78643699D01*
X231617072Y-78781338D01*
X231612207Y-78790328D01*
X231516472Y-79008585D01*
X231513153Y-79018252D01*
X231454646Y-79249287D01*
X231452962Y-79259381D01*
X231433283Y-79496883D01*
X231433283Y-79507117D01*
X212860616Y-79507117D01*
X211632248Y-78278749D01*
X232073748Y-78278749D01*
X232080408Y-78290855D01*
X232926457Y-79136904D01*
X232938000Y-79143568D01*
X232949542Y-79136904D01*
X233795590Y-78290855D01*
X233802250Y-78278749D01*
X233794143Y-78267559D01*
X233765286Y-78245099D01*
X233756719Y-78239503D01*
X233547114Y-78126070D01*
X233537760Y-78121967D01*
X233312343Y-78044582D01*
X233302431Y-78042071D01*
X233067356Y-78002844D01*
X233057161Y-78002000D01*
X232818839Y-78002000D01*
X232808643Y-78002844D01*
X232573568Y-78042071D01*
X232563656Y-78044582D01*
X232338239Y-78121967D01*
X232328885Y-78126070D01*
X232119276Y-78239504D01*
X232110717Y-78245096D01*
X232081854Y-78267560D01*
X232073748Y-78278749D01*
X211632248Y-78278749D01*
X209481764Y-76128265D01*
X209469126Y-76113468D01*
X209464707Y-76107386D01*
X209460888Y-76102129D01*
X209410482Y-76056743D01*
X209405773Y-76052274D01*
X209393679Y-76040180D01*
X209391380Y-76037881D01*
X209388863Y-76035843D01*
X209388859Y-76035839D01*
X209375557Y-76025067D01*
X209370624Y-76020853D01*
X209325048Y-75979817D01*
X209325044Y-75979814D01*
X209320216Y-75975467D01*
X209314589Y-75972218D01*
X209314586Y-75972216D01*
X209308075Y-75968457D01*
X209292038Y-75957435D01*
X209286199Y-75952706D01*
X209286195Y-75952703D01*
X209281149Y-75948617D01*
X209263294Y-75939519D01*
X209220713Y-75917823D01*
X209215008Y-75914725D01*
X209161910Y-75884069D01*
X209161908Y-75884068D01*
X209156284Y-75880821D01*
X209142949Y-75876488D01*
X209124979Y-75869044D01*
X209112488Y-75862680D01*
X209106209Y-75860997D01*
X209106208Y-75860997D01*
X209046976Y-75845125D01*
X209040768Y-75843286D01*
X208976256Y-75822326D01*
X208969795Y-75821646D01*
X208969791Y-75821646D01*
X208962318Y-75820861D01*
X208943187Y-75817315D01*
X208935928Y-75815370D01*
X208935925Y-75815369D01*
X208929646Y-75813687D01*
X208923157Y-75813346D01*
X208923152Y-75813346D01*
X208861908Y-75810136D01*
X208855447Y-75809628D01*
X208838413Y-75807838D01*
X208838404Y-75807837D01*
X208835192Y-75807500D01*
X208831947Y-75807500D01*
X208814826Y-75807500D01*
X208808337Y-75807330D01*
X208747103Y-75804121D01*
X208747101Y-75804121D01*
X208740612Y-75803781D01*
X208734191Y-75804797D01*
X208734190Y-75804798D01*
X208726772Y-75805973D01*
X208707374Y-75807500D01*
X200326048Y-75807500D01*
X200278595Y-75798061D01*
X200238367Y-75771181D01*
X200178968Y-75711782D01*
X200178967Y-75711781D01*
X200175139Y-75707953D01*
X199988734Y-75577432D01*
X199983831Y-75575145D01*
X199983823Y-75575141D01*
X199930134Y-75550106D01*
X199877958Y-75504349D01*
X199858539Y-75437723D01*
X199877959Y-75371098D01*
X199930135Y-75325341D01*
X199983585Y-75300417D01*
X199992912Y-75295032D01*
X200170381Y-75170767D01*
X200178647Y-75163830D01*
X200331830Y-75010647D01*
X200338767Y-75002381D01*
X200463032Y-74824912D01*
X200468420Y-74815580D01*
X200559977Y-74619234D01*
X200563669Y-74609092D01*
X200611179Y-74431780D01*
X200611547Y-74420551D01*
X200600605Y-74418000D01*
X197671395Y-74418000D01*
X197660452Y-74420551D01*
X197660820Y-74431780D01*
X197708330Y-74609092D01*
X197712022Y-74619234D01*
X197803579Y-74815580D01*
X197808967Y-74824912D01*
X197933232Y-75002381D01*
X197940169Y-75010647D01*
X198093352Y-75163830D01*
X198101618Y-75170767D01*
X198279087Y-75295032D01*
X198288423Y-75300422D01*
X198341864Y-75325342D01*
X198394040Y-75371098D01*
X198413460Y-75437723D01*
X198394041Y-75504348D01*
X198341866Y-75550106D01*
X198331371Y-75555000D01*
X198283266Y-75577432D01*
X198278833Y-75580535D01*
X198278826Y-75580540D01*
X198101296Y-75704847D01*
X198101291Y-75704850D01*
X198096861Y-75707953D01*
X198093037Y-75711776D01*
X198093031Y-75711782D01*
X197939782Y-75865031D01*
X197939776Y-75865037D01*
X197935953Y-75868861D01*
X197932850Y-75873291D01*
X197932847Y-75873296D01*
X197808540Y-76050826D01*
X197808535Y-76050833D01*
X197805432Y-76055266D01*
X197803144Y-76060172D01*
X197803142Y-76060176D01*
X197711550Y-76256594D01*
X197711547Y-76256599D01*
X197709261Y-76261504D01*
X197707862Y-76266724D01*
X197707858Y-76266736D01*
X197651764Y-76476083D01*
X197651762Y-76476094D01*
X197650365Y-76481308D01*
X197630532Y-76708000D01*
X197650365Y-76934692D01*
X197651762Y-76939907D01*
X197651764Y-76939916D01*
X197707858Y-77149263D01*
X197707861Y-77149271D01*
X197709261Y-77154496D01*
X197711549Y-77159403D01*
X197711550Y-77159405D01*
X197715244Y-77167327D01*
X197805432Y-77360734D01*
X197935953Y-77547139D01*
X198096861Y-77708047D01*
X198283266Y-77838568D01*
X198288172Y-77840855D01*
X198288176Y-77840858D01*
X198341274Y-77865618D01*
X198393450Y-77911375D01*
X198412869Y-77978000D01*
X198393450Y-78044625D01*
X198341274Y-78090382D01*
X198288176Y-78115141D01*
X198288163Y-78115148D01*
X198283266Y-78117432D01*
X198278833Y-78120535D01*
X198278826Y-78120540D01*
X198101296Y-78244847D01*
X198101291Y-78244850D01*
X198096861Y-78247953D01*
X198093037Y-78251776D01*
X198093031Y-78251782D01*
X197939782Y-78405031D01*
X197939776Y-78405037D01*
X197935953Y-78408861D01*
X197932850Y-78413291D01*
X197932847Y-78413296D01*
X197808540Y-78590826D01*
X197808535Y-78590833D01*
X197805432Y-78595266D01*
X197803144Y-78600172D01*
X197803142Y-78600176D01*
X197711550Y-78796594D01*
X197711547Y-78796599D01*
X197709261Y-78801504D01*
X197707862Y-78806724D01*
X197707858Y-78806736D01*
X197651764Y-79016083D01*
X197651762Y-79016094D01*
X197650365Y-79021308D01*
X197649893Y-79026693D01*
X197649893Y-79026698D01*
X197637217Y-79171587D01*
X197630532Y-79248000D01*
X197650365Y-79474692D01*
X197651762Y-79479907D01*
X197651764Y-79479916D01*
X197707858Y-79689263D01*
X197707861Y-79689271D01*
X197709261Y-79694496D01*
X197711549Y-79699403D01*
X197711550Y-79699405D01*
X197775313Y-79836145D01*
X197805432Y-79900734D01*
X197935953Y-80087139D01*
X198096861Y-80248047D01*
X198283266Y-80378568D01*
X198288172Y-80380855D01*
X198288176Y-80380858D01*
X198341274Y-80405618D01*
X198393450Y-80451375D01*
X198412869Y-80518000D01*
X198393450Y-80584625D01*
X198341274Y-80630382D01*
X198288176Y-80655141D01*
X198288163Y-80655148D01*
X198283266Y-80657432D01*
X198278833Y-80660535D01*
X198278826Y-80660540D01*
X198101296Y-80784847D01*
X198101291Y-80784850D01*
X198096861Y-80787953D01*
X198093037Y-80791776D01*
X198093031Y-80791782D01*
X197939782Y-80945031D01*
X197939776Y-80945037D01*
X197935953Y-80948861D01*
X197932850Y-80953291D01*
X197932847Y-80953296D01*
X197808540Y-81130826D01*
X197808535Y-81130833D01*
X197805432Y-81135266D01*
X197803144Y-81140172D01*
X197803142Y-81140176D01*
X197711550Y-81336594D01*
X197711547Y-81336599D01*
X197709261Y-81341504D01*
X197707862Y-81346724D01*
X197707858Y-81346736D01*
X197651764Y-81556083D01*
X197651762Y-81556094D01*
X197650365Y-81561308D01*
X197649893Y-81566693D01*
X197649893Y-81566698D01*
X197635632Y-81729706D01*
X197630532Y-81788000D01*
X197631004Y-81793395D01*
X197634847Y-81837327D01*
X197650365Y-82014692D01*
X197651762Y-82019907D01*
X197651764Y-82019916D01*
X197707858Y-82229263D01*
X197707861Y-82229271D01*
X197709261Y-82234496D01*
X197805432Y-82440734D01*
X197935953Y-82627139D01*
X198096861Y-82788047D01*
X198283266Y-82918568D01*
X198489504Y-83014739D01*
X198494734Y-83016140D01*
X198494736Y-83016141D01*
X198603500Y-83045284D01*
X198709308Y-83073635D01*
X198879216Y-83088500D01*
X199390075Y-83088500D01*
X199392784Y-83088500D01*
X199562692Y-83073635D01*
X199782496Y-83014739D01*
X199988734Y-82918568D01*
X200175139Y-82788047D01*
X200336047Y-82627139D01*
X200466568Y-82440734D01*
X200562739Y-82234496D01*
X200621635Y-82014692D01*
X200641468Y-81788000D01*
X200621635Y-81561308D01*
X200620235Y-81556083D01*
X200564141Y-81346736D01*
X200564140Y-81346734D01*
X200562739Y-81341504D01*
X200466568Y-81135266D01*
X200336047Y-80948861D01*
X200175139Y-80787953D01*
X199988734Y-80657432D01*
X199930724Y-80630381D01*
X199878549Y-80584625D01*
X199859130Y-80518000D01*
X199878549Y-80451375D01*
X199930725Y-80405618D01*
X199988734Y-80378568D01*
X200175139Y-80248047D01*
X200336047Y-80087139D01*
X200466568Y-79900734D01*
X200562739Y-79694496D01*
X200621635Y-79474692D01*
X200641468Y-79248000D01*
X200621635Y-79021308D01*
X200591554Y-78909042D01*
X200564141Y-78806736D01*
X200564140Y-78806734D01*
X200562739Y-78801504D01*
X200466568Y-78595266D01*
X200336047Y-78408861D01*
X200175139Y-78247953D01*
X200019738Y-78139141D01*
X199993173Y-78120540D01*
X199993171Y-78120539D01*
X199988734Y-78117432D01*
X199930724Y-78090381D01*
X199878549Y-78044625D01*
X199859130Y-77978000D01*
X199878549Y-77911375D01*
X199930725Y-77865618D01*
X199988734Y-77838568D01*
X200175139Y-77708047D01*
X200238367Y-77644818D01*
X200278595Y-77617939D01*
X200326048Y-77608500D01*
X208363639Y-77608500D01*
X208411092Y-77617939D01*
X208451320Y-77644819D01*
X214963181Y-84156681D01*
X214990061Y-84196909D01*
X214999500Y-84244362D01*
X214999500Y-91714795D01*
X214987421Y-91768178D01*
X214953536Y-91811161D01*
X214904447Y-91835369D01*
X214849719Y-91836084D01*
X214809576Y-91827552D01*
X214731008Y-91810852D01*
X214731005Y-91810851D01*
X214724646Y-91809500D01*
X214535354Y-91809500D01*
X214528995Y-91810851D01*
X214528991Y-91810852D01*
X214356559Y-91847503D01*
X214356552Y-91847505D01*
X214350197Y-91848856D01*
X214344262Y-91851498D01*
X214344254Y-91851501D01*
X214183207Y-91923205D01*
X214183202Y-91923207D01*
X214177270Y-91925849D01*
X214172016Y-91929665D01*
X214172011Y-91929669D01*
X214029388Y-92033290D01*
X214029381Y-92033295D01*
X214024129Y-92037112D01*
X214019780Y-92041941D01*
X214019781Y-92041941D01*
X214018399Y-92043476D01*
X214016728Y-92044689D01*
X214014950Y-92046291D01*
X214014781Y-92046104D01*
X213976685Y-92073781D01*
X213926252Y-92084500D01*
X211523748Y-92084500D01*
X211473315Y-92073781D01*
X211435218Y-92046104D01*
X211435050Y-92046291D01*
X211433271Y-92044689D01*
X211431601Y-92043476D01*
X211425871Y-92037112D01*
X211420613Y-92033292D01*
X211420611Y-92033290D01*
X211277988Y-91929669D01*
X211277987Y-91929668D01*
X211272730Y-91925849D01*
X211189500Y-91888792D01*
X211105745Y-91851501D01*
X211105740Y-91851499D01*
X211099803Y-91848856D01*
X211093444Y-91847504D01*
X211093440Y-91847503D01*
X210921008Y-91810852D01*
X210921005Y-91810851D01*
X210914646Y-91809500D01*
X210725354Y-91809500D01*
X210718995Y-91810851D01*
X210718991Y-91810852D01*
X210546559Y-91847503D01*
X210546552Y-91847505D01*
X210540197Y-91848856D01*
X210534262Y-91851498D01*
X210534254Y-91851501D01*
X210373207Y-91923205D01*
X210373202Y-91923207D01*
X210367270Y-91925849D01*
X210362016Y-91929665D01*
X210362011Y-91929669D01*
X210219388Y-92033290D01*
X210219381Y-92033295D01*
X210214129Y-92037112D01*
X210209784Y-92041937D01*
X210209779Y-92041942D01*
X210091813Y-92172956D01*
X210091808Y-92172962D01*
X210087467Y-92177784D01*
X210084222Y-92183404D01*
X210084218Y-92183410D01*
X209996069Y-92336089D01*
X209996066Y-92336094D01*
X209992821Y-92341716D01*
X209990815Y-92347888D01*
X209990813Y-92347894D01*
X209936333Y-92515564D01*
X209936331Y-92515573D01*
X209934326Y-92521744D01*
X209933648Y-92528194D01*
X209933646Y-92528204D01*
X209916650Y-92689926D01*
X209914540Y-92710000D01*
X209915219Y-92716460D01*
X209933646Y-92891795D01*
X209933647Y-92891803D01*
X209934326Y-92898256D01*
X209936331Y-92904428D01*
X209936333Y-92904435D01*
X209990813Y-93072105D01*
X209992821Y-93078284D01*
X209996068Y-93083908D01*
X209996069Y-93083910D01*
X210035528Y-93152256D01*
X210087467Y-93242216D01*
X210091811Y-93247041D01*
X210091813Y-93247043D01*
X210181112Y-93346219D01*
X210214129Y-93382888D01*
X210367270Y-93494151D01*
X210540197Y-93571144D01*
X210725354Y-93610500D01*
X210908143Y-93610500D01*
X210914646Y-93610500D01*
X211099803Y-93571144D01*
X211272730Y-93494151D01*
X211425871Y-93382888D01*
X211431601Y-93376523D01*
X211433271Y-93375310D01*
X211435050Y-93373709D01*
X211435218Y-93373895D01*
X211473315Y-93346219D01*
X211523748Y-93335500D01*
X213926252Y-93335500D01*
X213976685Y-93346219D01*
X214014781Y-93373895D01*
X214014950Y-93373709D01*
X214016728Y-93375310D01*
X214018398Y-93376523D01*
X214024129Y-93382888D01*
X214177270Y-93494151D01*
X214350197Y-93571144D01*
X214413649Y-93584631D01*
X214468124Y-93596210D01*
X214519830Y-93621427D01*
X214563657Y-93610500D01*
X214718143Y-93610500D01*
X214724646Y-93610500D01*
X214849719Y-93583915D01*
X214904447Y-93584631D01*
X214953536Y-93608839D01*
X214987421Y-93651822D01*
X214999500Y-93705205D01*
X214999500Y-93842938D01*
X214984473Y-93902106D01*
X214943035Y-93946933D01*
X214885228Y-93966556D01*
X214825064Y-93956217D01*
X214779003Y-93935709D01*
X214661745Y-93883501D01*
X214661740Y-93883499D01*
X214655803Y-93880856D01*
X214649444Y-93879504D01*
X214649440Y-93879503D01*
X214537876Y-93855790D01*
X214486169Y-93830572D01*
X214442343Y-93841500D01*
X214281354Y-93841500D01*
X214274995Y-93842851D01*
X214274991Y-93842852D01*
X214102559Y-93879503D01*
X214102552Y-93879505D01*
X214096197Y-93880856D01*
X214090262Y-93883498D01*
X214090254Y-93883501D01*
X213929207Y-93955205D01*
X213929202Y-93955207D01*
X213923270Y-93957849D01*
X213840726Y-94017820D01*
X213806163Y-94035431D01*
X213767845Y-94041500D01*
X212444155Y-94041500D01*
X212405837Y-94035431D01*
X212371273Y-94017820D01*
X212288730Y-93957849D01*
X212264213Y-93946933D01*
X212121745Y-93883501D01*
X212121740Y-93883499D01*
X212115803Y-93880856D01*
X212109444Y-93879504D01*
X212109440Y-93879503D01*
X211937008Y-93842852D01*
X211937005Y-93842851D01*
X211930646Y-93841500D01*
X211741354Y-93841500D01*
X211734995Y-93842851D01*
X211734991Y-93842852D01*
X211562559Y-93879503D01*
X211562552Y-93879505D01*
X211556197Y-93880856D01*
X211550262Y-93883498D01*
X211550254Y-93883501D01*
X211389207Y-93955205D01*
X211389202Y-93955207D01*
X211383270Y-93957849D01*
X211378016Y-93961665D01*
X211378011Y-93961669D01*
X211235388Y-94065290D01*
X211235381Y-94065295D01*
X211230129Y-94069112D01*
X211225784Y-94073937D01*
X211225779Y-94073942D01*
X211107813Y-94204956D01*
X211107808Y-94204962D01*
X211103467Y-94209784D01*
X211100221Y-94215405D01*
X211100221Y-94215406D01*
X211023547Y-94348209D01*
X210985050Y-94389310D01*
X210932345Y-94409147D01*
X210876301Y-94403627D01*
X210828479Y-94373889D01*
X207277920Y-90823330D01*
X203602486Y-87147895D01*
X203595042Y-87139714D01*
X203590986Y-87133323D01*
X203541975Y-87087298D01*
X203539178Y-87084587D01*
X203522427Y-87067836D01*
X203519671Y-87065080D01*
X203516490Y-87062612D01*
X203507614Y-87055030D01*
X203481469Y-87030478D01*
X203481467Y-87030476D01*
X203475782Y-87025138D01*
X203468949Y-87021382D01*
X203468943Y-87021377D01*
X203458225Y-87015485D01*
X203441966Y-87004806D01*
X203432295Y-86997304D01*
X203432292Y-86997302D01*
X203426136Y-86992527D01*
X203418979Y-86989429D01*
X203418976Y-86989428D01*
X203386049Y-86975178D01*
X203375563Y-86970041D01*
X203344132Y-86952762D01*
X203344123Y-86952758D01*
X203337292Y-86949003D01*
X203329735Y-86947062D01*
X203329731Y-86947061D01*
X203317888Y-86944020D01*
X203299484Y-86937719D01*
X203288257Y-86932860D01*
X203288250Y-86932858D01*
X203281096Y-86929762D01*
X203273392Y-86928541D01*
X203273390Y-86928541D01*
X203237959Y-86922929D01*
X203226524Y-86920561D01*
X203191771Y-86911638D01*
X203191763Y-86911637D01*
X203184219Y-86909700D01*
X203176423Y-86909700D01*
X203164183Y-86909700D01*
X203144797Y-86908174D01*
X203125004Y-86905040D01*
X203117238Y-86905774D01*
X203117235Y-86905774D01*
X203081524Y-86909150D01*
X203069855Y-86909700D01*
X188236864Y-86909700D01*
X188178810Y-86895271D01*
X188134267Y-86855342D01*
X188113602Y-86799205D01*
X188113547Y-86798703D01*
X188113520Y-86771945D01*
X188117700Y-86733073D01*
X188117699Y-86337328D01*
X188113267Y-86296098D01*
X188113268Y-86269593D01*
X188116844Y-86236332D01*
X188117200Y-86229706D01*
X188117200Y-86201526D01*
X188113411Y-86187386D01*
X188107639Y-86181614D01*
X188086285Y-86170925D01*
X188061949Y-86142155D01*
X188060996Y-86142869D01*
X188016561Y-86083511D01*
X187992322Y-86020252D01*
X188004944Y-85953696D01*
X188050661Y-85903705D01*
X188086226Y-85893605D01*
X188085106Y-85889425D01*
X188113749Y-85881749D01*
X188117200Y-85868874D01*
X188117200Y-85840694D01*
X188116844Y-85834071D01*
X188113015Y-85798459D01*
X188113015Y-85771941D01*
X188116844Y-85736328D01*
X188117200Y-85729706D01*
X188117200Y-85701526D01*
X188113749Y-85688650D01*
X188085106Y-85680975D01*
X188086226Y-85676794D01*
X188050661Y-85666695D01*
X188004944Y-85616704D01*
X187992322Y-85550148D01*
X188016561Y-85486889D01*
X188060996Y-85427531D01*
X188061949Y-85428244D01*
X188086283Y-85399475D01*
X188107640Y-85388784D01*
X188113411Y-85383013D01*
X188117200Y-85368874D01*
X188117200Y-85340696D01*
X188116844Y-85334065D01*
X188113268Y-85300802D01*
X188113268Y-85274294D01*
X188117700Y-85233073D01*
X188117699Y-84837328D01*
X188113520Y-84798454D01*
X188113520Y-84771945D01*
X188117700Y-84733073D01*
X188117699Y-84337328D01*
X188113267Y-84296098D01*
X188113268Y-84269593D01*
X188116844Y-84236332D01*
X188117200Y-84229706D01*
X188117200Y-84201526D01*
X188113411Y-84187386D01*
X188107639Y-84181614D01*
X188086285Y-84170925D01*
X188061949Y-84142155D01*
X188060996Y-84142869D01*
X188016561Y-84083511D01*
X187992322Y-84020252D01*
X188004944Y-83953696D01*
X188050661Y-83903705D01*
X188086226Y-83893605D01*
X188085106Y-83889425D01*
X188113749Y-83881749D01*
X188117200Y-83868874D01*
X188117200Y-83840694D01*
X188116844Y-83834068D01*
X188113015Y-83798457D01*
X188113015Y-83771940D01*
X188116844Y-83736328D01*
X188117200Y-83729706D01*
X188117200Y-83701526D01*
X188113749Y-83688650D01*
X188085106Y-83680975D01*
X188086226Y-83676794D01*
X188050661Y-83666695D01*
X188004944Y-83616704D01*
X187992322Y-83550148D01*
X188016561Y-83486889D01*
X188060996Y-83427531D01*
X188061949Y-83428244D01*
X188086283Y-83399475D01*
X188107640Y-83388784D01*
X188113411Y-83383013D01*
X188117200Y-83368874D01*
X188117200Y-83340696D01*
X188116844Y-83334065D01*
X188113268Y-83300802D01*
X188113268Y-83274294D01*
X188117700Y-83233073D01*
X188117699Y-82837328D01*
X188113520Y-82798454D01*
X188113520Y-82771945D01*
X188117700Y-82733073D01*
X188117699Y-82337328D01*
X188113520Y-82298454D01*
X188113520Y-82271945D01*
X188117700Y-82233073D01*
X188117699Y-81837328D01*
X188113267Y-81796098D01*
X188113268Y-81769593D01*
X188116844Y-81736332D01*
X188117200Y-81729706D01*
X188117200Y-81701526D01*
X188113411Y-81687386D01*
X188107639Y-81681614D01*
X188086285Y-81670925D01*
X188061949Y-81642155D01*
X188060996Y-81642869D01*
X188016561Y-81583511D01*
X187992322Y-81520252D01*
X188004944Y-81453696D01*
X188050661Y-81403705D01*
X188086226Y-81393605D01*
X188085106Y-81389425D01*
X188113749Y-81381749D01*
X188117200Y-81368874D01*
X188117200Y-81340694D01*
X188116844Y-81334068D01*
X188113015Y-81298457D01*
X188113015Y-81271940D01*
X188116844Y-81236328D01*
X188117200Y-81229706D01*
X188117200Y-81201526D01*
X188113749Y-81188650D01*
X188085106Y-81180975D01*
X188086226Y-81176794D01*
X188050661Y-81166695D01*
X188004944Y-81116704D01*
X187992322Y-81050148D01*
X188016561Y-80986889D01*
X188060996Y-80927531D01*
X188061949Y-80928244D01*
X188086283Y-80899475D01*
X188107640Y-80888784D01*
X188113411Y-80883013D01*
X188117200Y-80868874D01*
X188117200Y-80840696D01*
X188116844Y-80834065D01*
X188113268Y-80800802D01*
X188113268Y-80774294D01*
X188117700Y-80733073D01*
X188117699Y-80337328D01*
X188113520Y-80298454D01*
X188113520Y-80271947D01*
X188117700Y-80233073D01*
X188117700Y-80139699D01*
X188134313Y-80077699D01*
X188179700Y-80032312D01*
X188241700Y-80015699D01*
X190361761Y-80015699D01*
X190365072Y-80015699D01*
X190424683Y-80009291D01*
X190559531Y-79958996D01*
X190674746Y-79872746D01*
X190760996Y-79757531D01*
X190811291Y-79622683D01*
X190817700Y-79563073D01*
X190817699Y-77167328D01*
X190811291Y-77107717D01*
X190760996Y-76972869D01*
X190674746Y-76857654D01*
X190559531Y-76771404D01*
X190424683Y-76721109D01*
X190416970Y-76720279D01*
X190416967Y-76720279D01*
X190368380Y-76715055D01*
X190368369Y-76715054D01*
X190365073Y-76714700D01*
X190361750Y-76714700D01*
X187172639Y-76714700D01*
X187172620Y-76714700D01*
X187169328Y-76714701D01*
X187166050Y-76715053D01*
X187166038Y-76715054D01*
X187117431Y-76720279D01*
X187117425Y-76720280D01*
X187109717Y-76721109D01*
X187102452Y-76723818D01*
X187102446Y-76723820D01*
X186983180Y-76768304D01*
X186983178Y-76768304D01*
X186974869Y-76771404D01*
X186967772Y-76776716D01*
X186967768Y-76776719D01*
X186866750Y-76852341D01*
X186866746Y-76852344D01*
X186859654Y-76857654D01*
X186854344Y-76864746D01*
X186854341Y-76864750D01*
X186778719Y-76965768D01*
X186778716Y-76965772D01*
X186773404Y-76972869D01*
X186770304Y-76981178D01*
X186770304Y-76981180D01*
X186725820Y-77100447D01*
X186725819Y-77100450D01*
X186723109Y-77107717D01*
X186722279Y-77115427D01*
X186722279Y-77115432D01*
X186717055Y-77164019D01*
X186717054Y-77164031D01*
X186716700Y-77167327D01*
X186716700Y-77170649D01*
X186716700Y-78852747D01*
X186703185Y-78909042D01*
X186665585Y-78953065D01*
X186612098Y-78975220D01*
X186554382Y-78970678D01*
X186505019Y-78940428D01*
X186081819Y-78517228D01*
X186054939Y-78477000D01*
X186045500Y-78429547D01*
X186045500Y-76510452D01*
X186054939Y-76462999D01*
X186081819Y-76422771D01*
X186912772Y-75591819D01*
X186953000Y-75564939D01*
X187000453Y-75555500D01*
X194232225Y-75555500D01*
X194243280Y-75556021D01*
X194250667Y-75557673D01*
X194317872Y-75555561D01*
X194321768Y-75555500D01*
X194345448Y-75555500D01*
X194349350Y-75555500D01*
X194353313Y-75554999D01*
X194364963Y-75554080D01*
X194408627Y-75552709D01*
X194427861Y-75547119D01*
X194446917Y-75543174D01*
X194466792Y-75540664D01*
X194507395Y-75524587D01*
X194518450Y-75520802D01*
X194560390Y-75508618D01*
X194577629Y-75498422D01*
X194595103Y-75489862D01*
X194606474Y-75485360D01*
X194606476Y-75485358D01*
X194613732Y-75482486D01*
X194649069Y-75456811D01*
X194658824Y-75450403D01*
X194696420Y-75428170D01*
X194710584Y-75414005D01*
X194725379Y-75401368D01*
X194741587Y-75389594D01*
X194769428Y-75355938D01*
X194777279Y-75347309D01*
X196209140Y-73915448D01*
X197660452Y-73915448D01*
X197671395Y-73918000D01*
X198869674Y-73918000D01*
X198882549Y-73914549D01*
X198886000Y-73901674D01*
X199386000Y-73901674D01*
X199389450Y-73914549D01*
X199402326Y-73918000D01*
X200600605Y-73918000D01*
X200611547Y-73915448D01*
X200611179Y-73904219D01*
X200563669Y-73726907D01*
X200559977Y-73716765D01*
X200475685Y-73536000D01*
X201401215Y-73536000D01*
X201401894Y-73542460D01*
X201419223Y-73707341D01*
X201419224Y-73707348D01*
X201419903Y-73713803D01*
X201475150Y-73883835D01*
X201564541Y-74038665D01*
X201684170Y-74171526D01*
X201828807Y-74276612D01*
X201992133Y-74349329D01*
X201998491Y-74350680D01*
X201998493Y-74350681D01*
X202020464Y-74355351D01*
X202167009Y-74386500D01*
X202339288Y-74386500D01*
X202345791Y-74386500D01*
X202520667Y-74349329D01*
X202683993Y-74276612D01*
X202828630Y-74171526D01*
X202948259Y-74038665D01*
X203037650Y-73883835D01*
X203092897Y-73713803D01*
X203111585Y-73536000D01*
X226901215Y-73536000D01*
X226901894Y-73542460D01*
X226919223Y-73707341D01*
X226919224Y-73707348D01*
X226919903Y-73713803D01*
X226975150Y-73883835D01*
X227064541Y-74038665D01*
X227184170Y-74171526D01*
X227328807Y-74276612D01*
X227492133Y-74349329D01*
X227498491Y-74350680D01*
X227498493Y-74350681D01*
X227520464Y-74355351D01*
X227667009Y-74386500D01*
X227839288Y-74386500D01*
X227845791Y-74386500D01*
X228020667Y-74349329D01*
X228183993Y-74276612D01*
X228328630Y-74171526D01*
X228448259Y-74038665D01*
X228537650Y-73883835D01*
X228592897Y-73713803D01*
X228611585Y-73536000D01*
X228592897Y-73358197D01*
X228537650Y-73188165D01*
X228448259Y-73033335D01*
X228328630Y-72900474D01*
X228183993Y-72795388D01*
X228124064Y-72768706D01*
X228026605Y-72725314D01*
X228026598Y-72725311D01*
X228020667Y-72722671D01*
X228014314Y-72721320D01*
X228014306Y-72721318D01*
X227852153Y-72686852D01*
X227852150Y-72686851D01*
X227845791Y-72685500D01*
X227667009Y-72685500D01*
X227660650Y-72686851D01*
X227660646Y-72686852D01*
X227498493Y-72721318D01*
X227498482Y-72721321D01*
X227492133Y-72722671D01*
X227486204Y-72725310D01*
X227486194Y-72725314D01*
X227334742Y-72792745D01*
X227334734Y-72792749D01*
X227328808Y-72795388D01*
X227323559Y-72799201D01*
X227323553Y-72799205D01*
X227189423Y-72896656D01*
X227189414Y-72896663D01*
X227184170Y-72900474D01*
X227179826Y-72905297D01*
X227179823Y-72905301D01*
X227068887Y-73028507D01*
X227068882Y-73028513D01*
X227064541Y-73033335D01*
X227061296Y-73038955D01*
X227061292Y-73038961D01*
X226978398Y-73182538D01*
X226978395Y-73182543D01*
X226975150Y-73188165D01*
X226973144Y-73194337D01*
X226973142Y-73194343D01*
X226930575Y-73325352D01*
X226919903Y-73358197D01*
X226919224Y-73364649D01*
X226919223Y-73364658D01*
X226903833Y-73511087D01*
X226901215Y-73536000D01*
X203111585Y-73536000D01*
X203092897Y-73358197D01*
X203037650Y-73188165D01*
X202948259Y-73033335D01*
X202828630Y-72900474D01*
X202683993Y-72795388D01*
X202624064Y-72768706D01*
X202526605Y-72725314D01*
X202526598Y-72725311D01*
X202520667Y-72722671D01*
X202514314Y-72721320D01*
X202514306Y-72721318D01*
X202352153Y-72686852D01*
X202352150Y-72686851D01*
X202345791Y-72685500D01*
X202167009Y-72685500D01*
X202160650Y-72686851D01*
X202160646Y-72686852D01*
X201998493Y-72721318D01*
X201998482Y-72721321D01*
X201992133Y-72722671D01*
X201986204Y-72725310D01*
X201986194Y-72725314D01*
X201834742Y-72792745D01*
X201834734Y-72792749D01*
X201828808Y-72795388D01*
X201823559Y-72799201D01*
X201823553Y-72799205D01*
X201689423Y-72896656D01*
X201689414Y-72896663D01*
X201684170Y-72900474D01*
X201679826Y-72905297D01*
X201679823Y-72905301D01*
X201568887Y-73028507D01*
X201568882Y-73028513D01*
X201564541Y-73033335D01*
X201561296Y-73038955D01*
X201561292Y-73038961D01*
X201478398Y-73182538D01*
X201478395Y-73182543D01*
X201475150Y-73188165D01*
X201473144Y-73194337D01*
X201473142Y-73194343D01*
X201430575Y-73325352D01*
X201419903Y-73358197D01*
X201419224Y-73364649D01*
X201419223Y-73364658D01*
X201403833Y-73511087D01*
X201401215Y-73536000D01*
X200475685Y-73536000D01*
X200468420Y-73520419D01*
X200463032Y-73511087D01*
X200338767Y-73333618D01*
X200331830Y-73325352D01*
X200178647Y-73172169D01*
X200170381Y-73165232D01*
X199992912Y-73040967D01*
X199983580Y-73035579D01*
X199787231Y-72944020D01*
X199777097Y-72940332D01*
X199567837Y-72884260D01*
X199557206Y-72882386D01*
X199399972Y-72868630D01*
X199389450Y-72871450D01*
X199386000Y-72884326D01*
X199386000Y-73901674D01*
X198886000Y-73901674D01*
X198886000Y-72884326D01*
X198882549Y-72871450D01*
X198872027Y-72868630D01*
X198714793Y-72882386D01*
X198704162Y-72884260D01*
X198494902Y-72940332D01*
X198484768Y-72944020D01*
X198288419Y-73035579D01*
X198279087Y-73040967D01*
X198101618Y-73165232D01*
X198093352Y-73172169D01*
X197940169Y-73325352D01*
X197933232Y-73333618D01*
X197808967Y-73511087D01*
X197803579Y-73520419D01*
X197712022Y-73716765D01*
X197708330Y-73726907D01*
X197660820Y-73904219D01*
X197660452Y-73915448D01*
X196209140Y-73915448D01*
X202152771Y-67971819D01*
X202193000Y-67944939D01*
X202240453Y-67935500D01*
X204101229Y-67935500D01*
X204165557Y-67953491D01*
X204211219Y-68002244D01*
X204224963Y-68067611D01*
X204202803Y-68130622D01*
X204185965Y-68154671D01*
X204183677Y-68159577D01*
X204183675Y-68159581D01*
X204088386Y-68363927D01*
X204088383Y-68363932D01*
X204086097Y-68368837D01*
X204084698Y-68374057D01*
X204084694Y-68374069D01*
X204026337Y-68591865D01*
X204026335Y-68591871D01*
X204024937Y-68597092D01*
X204024465Y-68602477D01*
X204024465Y-68602482D01*
X204018036Y-68675965D01*
X204004341Y-68832500D01*
X204004813Y-68837895D01*
X204004813Y-68837896D01*
X204022419Y-69039131D01*
X204012618Y-69099357D01*
X203975278Y-69147616D01*
X203919442Y-69172223D01*
X203858629Y-69167219D01*
X203734469Y-69124595D01*
X203734460Y-69124592D01*
X203729614Y-69122929D01*
X203720768Y-69121452D01*
X203489398Y-69082844D01*
X203489387Y-69082843D01*
X203484335Y-69082000D01*
X203235665Y-69082000D01*
X203230613Y-69082843D01*
X203230601Y-69082844D01*
X202995443Y-69122085D01*
X202995441Y-69122085D01*
X202990386Y-69122929D01*
X202985541Y-69124592D01*
X202985534Y-69124594D01*
X202760037Y-69202007D01*
X202760026Y-69202011D01*
X202755190Y-69203672D01*
X202750693Y-69206105D01*
X202750683Y-69206110D01*
X202541002Y-69319584D01*
X202540995Y-69319588D01*
X202536491Y-69322026D01*
X202532448Y-69325172D01*
X202532440Y-69325178D01*
X202344304Y-69471611D01*
X202340256Y-69474762D01*
X202336793Y-69478523D01*
X202336784Y-69478532D01*
X202175311Y-69653939D01*
X202175305Y-69653946D01*
X202171836Y-69657715D01*
X202169031Y-69662006D01*
X202169028Y-69662012D01*
X202038631Y-69861599D01*
X202038624Y-69861611D01*
X202035827Y-69865893D01*
X202033772Y-69870577D01*
X202033766Y-69870589D01*
X201937997Y-70088922D01*
X201935937Y-70093619D01*
X201934679Y-70098584D01*
X201934678Y-70098589D01*
X201876151Y-70329704D01*
X201876149Y-70329713D01*
X201874892Y-70334679D01*
X201874468Y-70339788D01*
X201874467Y-70339798D01*
X201859294Y-70522918D01*
X201854357Y-70582500D01*
X201854781Y-70587617D01*
X201874467Y-70825201D01*
X201874468Y-70825209D01*
X201874892Y-70830321D01*
X201876149Y-70835288D01*
X201876151Y-70835295D01*
X201890410Y-70891600D01*
X201935937Y-71071381D01*
X201937997Y-71076077D01*
X202033766Y-71294410D01*
X202033769Y-71294416D01*
X202035827Y-71299107D01*
X202038627Y-71303393D01*
X202038631Y-71303400D01*
X202166675Y-71499385D01*
X202171836Y-71507285D01*
X202175310Y-71511059D01*
X202175311Y-71511060D01*
X202336784Y-71686467D01*
X202336787Y-71686470D01*
X202340256Y-71690238D01*
X202536491Y-71842974D01*
X202755190Y-71961328D01*
X202990386Y-72042071D01*
X203235665Y-72083000D01*
X203479201Y-72083000D01*
X203484335Y-72083000D01*
X203729614Y-72042071D01*
X203964810Y-71961328D01*
X204183509Y-71842974D01*
X204379744Y-71690238D01*
X204548164Y-71507285D01*
X204684173Y-71299107D01*
X204784063Y-71071381D01*
X204845108Y-70830321D01*
X204865643Y-70582500D01*
X204845108Y-70334679D01*
X204831259Y-70279989D01*
X204832027Y-70216219D01*
X204864389Y-70161265D01*
X204919783Y-70129663D01*
X204983556Y-70129772D01*
X205124592Y-70167563D01*
X205360000Y-70188159D01*
X205595408Y-70167563D01*
X205823663Y-70106403D01*
X206037830Y-70006535D01*
X206231401Y-69870995D01*
X206398495Y-69703901D01*
X206534035Y-69510330D01*
X206633903Y-69296163D01*
X206695063Y-69067908D01*
X206715659Y-68832500D01*
X206695063Y-68597092D01*
X206633903Y-68368837D01*
X206534035Y-68154671D01*
X206517196Y-68130622D01*
X206495037Y-68067611D01*
X206508781Y-68002244D01*
X206554443Y-67953491D01*
X206618771Y-67935500D01*
X208101229Y-67935500D01*
X208165557Y-67953491D01*
X208211219Y-68002244D01*
X208224963Y-68067611D01*
X208202803Y-68130622D01*
X208185965Y-68154671D01*
X208183677Y-68159577D01*
X208183675Y-68159581D01*
X208088386Y-68363927D01*
X208088383Y-68363932D01*
X208086097Y-68368837D01*
X208084698Y-68374057D01*
X208084694Y-68374069D01*
X208026337Y-68591865D01*
X208026335Y-68591871D01*
X208024937Y-68597092D01*
X208024465Y-68602477D01*
X208024465Y-68602482D01*
X208018036Y-68675965D01*
X208004341Y-68832500D01*
X208024937Y-69067908D01*
X208026336Y-69073130D01*
X208026337Y-69073134D01*
X208084694Y-69290930D01*
X208084697Y-69290938D01*
X208086097Y-69296163D01*
X208088385Y-69301070D01*
X208088386Y-69301072D01*
X208183678Y-69505427D01*
X208183681Y-69505433D01*
X208185965Y-69510330D01*
X208189064Y-69514757D01*
X208189066Y-69514759D01*
X208318399Y-69699466D01*
X208318402Y-69699470D01*
X208321505Y-69703901D01*
X208488599Y-69870995D01*
X208682170Y-70006535D01*
X208896337Y-70106403D01*
X209124592Y-70167563D01*
X209360000Y-70188159D01*
X209595408Y-70167563D01*
X209823663Y-70106403D01*
X210037830Y-70006535D01*
X210231401Y-69870995D01*
X210398495Y-69703901D01*
X210534035Y-69510330D01*
X210633903Y-69296163D01*
X210695063Y-69067908D01*
X210715659Y-68832500D01*
X210695063Y-68597092D01*
X210633903Y-68368837D01*
X210534035Y-68154671D01*
X210517196Y-68130622D01*
X210495037Y-68067611D01*
X210508781Y-68002244D01*
X210554443Y-67953491D01*
X210618771Y-67935500D01*
X211527048Y-67935500D01*
X211574501Y-67944939D01*
X211614729Y-67971819D01*
X212019762Y-68376852D01*
X212051856Y-68432439D01*
X212051856Y-68496626D01*
X212026337Y-68591865D01*
X212026335Y-68591870D01*
X212024937Y-68597092D01*
X212024465Y-68602477D01*
X212024465Y-68602482D01*
X212018036Y-68675965D01*
X212004341Y-68832500D01*
X212024937Y-69067908D01*
X212026336Y-69073130D01*
X212026337Y-69073134D01*
X212084694Y-69290930D01*
X212084697Y-69290938D01*
X212086097Y-69296163D01*
X212088385Y-69301070D01*
X212088386Y-69301072D01*
X212183678Y-69505427D01*
X212183681Y-69505433D01*
X212185965Y-69510330D01*
X212189064Y-69514757D01*
X212189066Y-69514759D01*
X212318399Y-69699466D01*
X212318402Y-69699470D01*
X212321505Y-69703901D01*
X212488599Y-69870995D01*
X212682170Y-70006535D01*
X212896337Y-70106403D01*
X213124592Y-70167563D01*
X213360000Y-70188159D01*
X213595408Y-70167563D01*
X213736443Y-70129772D01*
X213800215Y-70129663D01*
X213855610Y-70161264D01*
X213887971Y-70216217D01*
X213888741Y-70279987D01*
X213876152Y-70329700D01*
X213876150Y-70329709D01*
X213874892Y-70334679D01*
X213874468Y-70339788D01*
X213874467Y-70339798D01*
X213859294Y-70522918D01*
X213854357Y-70582500D01*
X213854781Y-70587617D01*
X213874467Y-70825201D01*
X213874468Y-70825209D01*
X213874892Y-70830321D01*
X213876149Y-70835288D01*
X213876151Y-70835295D01*
X213890410Y-70891600D01*
X213935937Y-71071381D01*
X213937997Y-71076077D01*
X214033766Y-71294410D01*
X214033769Y-71294416D01*
X214035827Y-71299107D01*
X214038627Y-71303393D01*
X214038631Y-71303400D01*
X214166675Y-71499385D01*
X214171836Y-71507285D01*
X214175310Y-71511059D01*
X214175311Y-71511060D01*
X214336784Y-71686467D01*
X214336787Y-71686470D01*
X214340256Y-71690238D01*
X214536491Y-71842974D01*
X214755190Y-71961328D01*
X214990386Y-72042071D01*
X215235665Y-72083000D01*
X215479201Y-72083000D01*
X215484335Y-72083000D01*
X215729614Y-72042071D01*
X215964810Y-71961328D01*
X216183509Y-71842974D01*
X216379744Y-71690238D01*
X216548164Y-71507285D01*
X216684173Y-71299107D01*
X216784063Y-71071381D01*
X216845108Y-70830321D01*
X216865643Y-70582500D01*
X216845108Y-70334679D01*
X216784063Y-70093619D01*
X216684173Y-69865893D01*
X216677314Y-69855395D01*
X216673789Y-69850000D01*
X245786341Y-69850000D01*
X245786813Y-69855395D01*
X245788449Y-69874100D01*
X245806937Y-70085408D01*
X245808336Y-70090630D01*
X245808337Y-70090634D01*
X245866694Y-70308430D01*
X245866697Y-70308438D01*
X245868097Y-70313663D01*
X245967965Y-70527829D01*
X246103505Y-70721401D01*
X246270599Y-70888495D01*
X246464171Y-71024035D01*
X246678337Y-71123903D01*
X246906592Y-71185063D01*
X247083034Y-71200500D01*
X247198258Y-71200500D01*
X247200966Y-71200500D01*
X247377408Y-71185063D01*
X247605663Y-71123903D01*
X247819829Y-71024035D01*
X248013401Y-70888495D01*
X248180495Y-70721401D01*
X248316035Y-70527830D01*
X248415903Y-70313663D01*
X248477063Y-70085408D01*
X248497659Y-69850000D01*
X248477063Y-69614592D01*
X248415903Y-69386337D01*
X248316035Y-69172171D01*
X248180495Y-68978599D01*
X248013401Y-68811505D01*
X247819829Y-68675965D01*
X247751908Y-68644292D01*
X247610572Y-68578386D01*
X247610570Y-68578385D01*
X247605663Y-68576097D01*
X247600438Y-68574697D01*
X247600430Y-68574694D01*
X247382634Y-68516337D01*
X247382630Y-68516336D01*
X247377408Y-68514937D01*
X247372020Y-68514465D01*
X247372017Y-68514465D01*
X247203664Y-68499736D01*
X247203662Y-68499735D01*
X247200966Y-68499500D01*
X247083034Y-68499500D01*
X247080338Y-68499735D01*
X247080335Y-68499736D01*
X246911982Y-68514465D01*
X246911977Y-68514465D01*
X246906592Y-68514937D01*
X246901371Y-68516335D01*
X246901365Y-68516337D01*
X246683569Y-68574694D01*
X246683557Y-68574698D01*
X246678337Y-68576097D01*
X246673432Y-68578383D01*
X246673427Y-68578386D01*
X246469081Y-68673675D01*
X246469077Y-68673677D01*
X246464171Y-68675965D01*
X246459738Y-68679068D01*
X246459731Y-68679073D01*
X246275034Y-68808399D01*
X246275029Y-68808402D01*
X246270599Y-68811505D01*
X246266775Y-68815328D01*
X246266769Y-68815334D01*
X246107336Y-68974767D01*
X246107330Y-68974773D01*
X246103505Y-68978599D01*
X246100406Y-68983023D01*
X246100399Y-68983033D01*
X245971066Y-69167740D01*
X245971061Y-69167747D01*
X245967965Y-69172170D01*
X245965683Y-69177061D01*
X245965678Y-69177072D01*
X245870386Y-69381427D01*
X245870383Y-69381432D01*
X245868097Y-69386337D01*
X245866698Y-69391557D01*
X245866694Y-69391569D01*
X245808337Y-69609365D01*
X245808335Y-69609371D01*
X245806937Y-69614592D01*
X245806465Y-69619977D01*
X245806465Y-69619982D01*
X245803164Y-69657715D01*
X245786341Y-69850000D01*
X216673789Y-69850000D01*
X216612740Y-69756557D01*
X216548164Y-69657715D01*
X216412487Y-69510330D01*
X216383215Y-69478532D01*
X216383211Y-69478529D01*
X216379744Y-69474762D01*
X216183509Y-69322026D01*
X216178997Y-69319584D01*
X215969316Y-69206110D01*
X215969310Y-69206107D01*
X215964810Y-69203672D01*
X215959969Y-69202010D01*
X215959962Y-69202007D01*
X215734465Y-69124594D01*
X215734461Y-69124593D01*
X215729614Y-69122929D01*
X215720768Y-69121452D01*
X215489398Y-69082844D01*
X215489387Y-69082843D01*
X215484335Y-69082000D01*
X215235665Y-69082000D01*
X215230613Y-69082843D01*
X215230601Y-69082844D01*
X214995443Y-69122085D01*
X214995441Y-69122085D01*
X214990386Y-69122929D01*
X214985544Y-69124591D01*
X214985541Y-69124592D01*
X214861370Y-69167220D01*
X214800557Y-69172223D01*
X214744721Y-69147616D01*
X214707381Y-69099356D01*
X214697580Y-69039133D01*
X214715659Y-68832500D01*
X214695063Y-68597092D01*
X214633903Y-68368837D01*
X214534035Y-68154671D01*
X214398495Y-67961099D01*
X214231401Y-67794005D01*
X214226970Y-67790902D01*
X214226966Y-67790899D01*
X214042259Y-67661566D01*
X214042257Y-67661564D01*
X214037830Y-67658465D01*
X214032933Y-67656181D01*
X214032927Y-67656178D01*
X213828572Y-67560886D01*
X213828570Y-67560885D01*
X213823663Y-67558597D01*
X213818438Y-67557197D01*
X213818430Y-67557194D01*
X213600634Y-67498837D01*
X213600630Y-67498836D01*
X213595408Y-67497437D01*
X213590020Y-67496965D01*
X213590017Y-67496965D01*
X213365395Y-67477313D01*
X213360000Y-67476841D01*
X213354605Y-67477313D01*
X213129985Y-67496965D01*
X213129983Y-67496965D01*
X213124592Y-67497437D01*
X213119373Y-67498835D01*
X213119358Y-67498838D01*
X213024124Y-67524355D01*
X212959938Y-67524354D01*
X212904352Y-67492261D01*
X212334786Y-66922695D01*
X212327342Y-66914514D01*
X212323286Y-66908123D01*
X212274275Y-66862098D01*
X212271478Y-66859387D01*
X212254727Y-66842636D01*
X212251971Y-66839880D01*
X212248790Y-66837412D01*
X212239914Y-66829830D01*
X212213769Y-66805278D01*
X212213767Y-66805276D01*
X212208082Y-66799938D01*
X212201249Y-66796182D01*
X212201243Y-66796177D01*
X212190525Y-66790285D01*
X212174266Y-66779606D01*
X212164595Y-66772104D01*
X212164592Y-66772102D01*
X212158436Y-66767327D01*
X212151279Y-66764229D01*
X212151276Y-66764228D01*
X212118349Y-66749978D01*
X212107863Y-66744841D01*
X212076432Y-66727562D01*
X212076423Y-66727558D01*
X212069592Y-66723803D01*
X212062035Y-66721862D01*
X212062031Y-66721861D01*
X212050188Y-66718820D01*
X212031784Y-66712519D01*
X212020557Y-66707660D01*
X212020550Y-66707658D01*
X212013396Y-66704562D01*
X212005692Y-66703341D01*
X212005690Y-66703341D01*
X211970259Y-66697729D01*
X211958824Y-66695361D01*
X211924071Y-66686438D01*
X211924063Y-66686437D01*
X211916519Y-66684500D01*
X211908723Y-66684500D01*
X211896483Y-66684500D01*
X211877097Y-66682974D01*
X211857304Y-66679840D01*
X211849538Y-66680574D01*
X211849535Y-66680574D01*
X211813824Y-66683950D01*
X211802155Y-66684500D01*
X202007771Y-66684500D01*
X201996718Y-66683979D01*
X201989332Y-66682328D01*
X201981534Y-66682573D01*
X201922144Y-66684439D01*
X201918250Y-66684500D01*
X201890650Y-66684500D01*
X201886799Y-66684986D01*
X201886768Y-66684988D01*
X201886640Y-66685005D01*
X201875029Y-66685918D01*
X201839167Y-66687045D01*
X201839159Y-66687046D01*
X201831373Y-66687291D01*
X201823885Y-66689466D01*
X201823886Y-66689466D01*
X201812134Y-66692880D01*
X201793095Y-66696822D01*
X201780948Y-66698357D01*
X201780940Y-66698358D01*
X201773208Y-66699336D01*
X201765962Y-66702204D01*
X201765957Y-66702206D01*
X201732585Y-66715419D01*
X201721539Y-66719200D01*
X201714048Y-66721377D01*
X201687094Y-66729208D01*
X201687089Y-66729209D01*
X201679610Y-66731383D01*
X201672908Y-66735346D01*
X201672897Y-66735351D01*
X201662364Y-66741581D01*
X201644900Y-66750136D01*
X201633524Y-66754640D01*
X201633517Y-66754643D01*
X201626268Y-66757514D01*
X201619962Y-66762094D01*
X201619957Y-66762098D01*
X201590927Y-66783189D01*
X201581169Y-66789598D01*
X201550298Y-66807856D01*
X201543579Y-66811830D01*
X201538063Y-66817344D01*
X201538056Y-66817351D01*
X201529407Y-66826000D01*
X201514624Y-66838626D01*
X201504727Y-66845817D01*
X201504720Y-66845823D01*
X201498413Y-66850406D01*
X201493446Y-66856408D01*
X201493435Y-66856420D01*
X201470570Y-66884059D01*
X201462710Y-66892697D01*
X194087228Y-74268181D01*
X194047000Y-74295061D01*
X193999547Y-74304500D01*
X186767771Y-74304500D01*
X186756718Y-74303979D01*
X186749332Y-74302328D01*
X186741534Y-74302573D01*
X186682144Y-74304439D01*
X186678250Y-74304500D01*
X186650650Y-74304500D01*
X186646799Y-74304986D01*
X186646768Y-74304988D01*
X186646640Y-74305005D01*
X186635029Y-74305918D01*
X186599172Y-74307045D01*
X186599165Y-74307046D01*
X186591373Y-74307291D01*
X186583888Y-74309465D01*
X186583872Y-74309468D01*
X186572126Y-74312881D01*
X186553083Y-74316825D01*
X186540949Y-74318358D01*
X186540948Y-74318358D01*
X186533208Y-74319336D01*
X186525958Y-74322205D01*
X186525951Y-74322208D01*
X186492598Y-74335413D01*
X186481554Y-74339194D01*
X186447105Y-74349203D01*
X186447095Y-74349207D01*
X186439610Y-74351382D01*
X186432900Y-74355349D01*
X186432898Y-74355351D01*
X186429505Y-74357357D01*
X186422360Y-74361583D01*
X186404900Y-74370136D01*
X186386268Y-74377514D01*
X186379965Y-74382092D01*
X186379958Y-74382097D01*
X186350939Y-74403181D01*
X186341179Y-74409592D01*
X186310294Y-74427857D01*
X186310284Y-74427864D01*
X186303579Y-74431830D01*
X186298063Y-74437345D01*
X186298060Y-74437348D01*
X186289407Y-74446000D01*
X186274624Y-74458626D01*
X186264727Y-74465817D01*
X186264720Y-74465823D01*
X186258413Y-74470406D01*
X186253446Y-74476408D01*
X186253435Y-74476420D01*
X186230570Y-74504059D01*
X186222710Y-74512697D01*
X185032696Y-75702711D01*
X185024511Y-75710159D01*
X185018123Y-75714214D01*
X185012788Y-75719894D01*
X185012783Y-75719899D01*
X184972096Y-75763225D01*
X184969392Y-75766016D01*
X184952628Y-75782780D01*
X184952621Y-75782787D01*
X184949880Y-75785529D01*
X184947500Y-75788596D01*
X184947489Y-75788609D01*
X184947400Y-75788725D01*
X184939842Y-75797570D01*
X184915280Y-75823727D01*
X184915273Y-75823736D01*
X184909938Y-75829418D01*
X184906182Y-75836249D01*
X184906179Y-75836254D01*
X184900285Y-75846975D01*
X184889609Y-75863227D01*
X184882109Y-75872896D01*
X184882101Y-75872907D01*
X184877327Y-75879064D01*
X184874234Y-75886208D01*
X184874229Y-75886219D01*
X184859974Y-75919160D01*
X184854838Y-75929643D01*
X184842160Y-75952706D01*
X184833803Y-75967908D01*
X184831864Y-75975456D01*
X184831863Y-75975461D01*
X184828822Y-75987307D01*
X184822521Y-76005711D01*
X184817658Y-76016948D01*
X184817656Y-76016952D01*
X184814562Y-76024104D01*
X184813342Y-76031803D01*
X184813342Y-76031805D01*
X184807729Y-76067241D01*
X184805361Y-76078676D01*
X184796438Y-76113428D01*
X184796436Y-76113436D01*
X184794500Y-76120981D01*
X184794500Y-76128777D01*
X184794500Y-76141017D01*
X184792974Y-76160402D01*
X184789840Y-76180196D01*
X184790574Y-76187961D01*
X184790574Y-76187964D01*
X184793950Y-76223676D01*
X184794500Y-76235345D01*
X184794500Y-78662225D01*
X184793978Y-78673280D01*
X184792327Y-78680667D01*
X184792571Y-78688453D01*
X184792571Y-78688461D01*
X184794439Y-78747873D01*
X184794500Y-78751768D01*
X184794500Y-78779350D01*
X184794988Y-78783219D01*
X184794989Y-78783225D01*
X184795004Y-78783343D01*
X184795918Y-78794966D01*
X184797045Y-78830830D01*
X184797046Y-78830837D01*
X184797291Y-78838627D01*
X184799467Y-78846119D01*
X184799468Y-78846121D01*
X184802879Y-78857862D01*
X184806825Y-78876915D01*
X184809336Y-78896792D01*
X184812206Y-78904042D01*
X184812208Y-78904048D01*
X184825414Y-78937404D01*
X184829197Y-78948451D01*
X184841382Y-78990390D01*
X184845353Y-78997105D01*
X184845354Y-78997107D01*
X184851581Y-79007637D01*
X184860136Y-79025099D01*
X184864642Y-79036480D01*
X184864643Y-79036483D01*
X184867514Y-79043732D01*
X184889440Y-79073912D01*
X184893181Y-79079060D01*
X184899593Y-79088822D01*
X184917856Y-79119702D01*
X184917859Y-79119707D01*
X184921830Y-79126420D01*
X184927345Y-79131935D01*
X184935990Y-79140580D01*
X184948626Y-79155374D01*
X184955819Y-79165275D01*
X184955823Y-79165279D01*
X184960406Y-79171587D01*
X184966415Y-79176558D01*
X184966416Y-79176559D01*
X184994058Y-79199426D01*
X185002699Y-79207289D01*
X185984348Y-80188939D01*
X186008524Y-80223104D01*
X186019957Y-80263365D01*
X186020879Y-80271941D01*
X186020879Y-80298449D01*
X186017053Y-80334036D01*
X186017052Y-80334050D01*
X186016700Y-80337327D01*
X186016700Y-80340636D01*
X186016700Y-80340637D01*
X186016700Y-80729760D01*
X186016700Y-80729778D01*
X186016701Y-80733072D01*
X186017054Y-80736362D01*
X186017055Y-80736368D01*
X186021131Y-80774294D01*
X186021131Y-80800795D01*
X186017553Y-80834077D01*
X186017200Y-80840683D01*
X186017200Y-80868874D01*
X186020988Y-80883013D01*
X186026757Y-80888782D01*
X186048109Y-80899470D01*
X186072451Y-80928243D01*
X186073404Y-80927531D01*
X186117839Y-80986889D01*
X186142078Y-81050148D01*
X186129456Y-81116704D01*
X186083739Y-81166695D01*
X186048173Y-81176794D01*
X186049294Y-81180975D01*
X186020650Y-81188650D01*
X186017200Y-81201526D01*
X186017200Y-81229718D01*
X186017553Y-81236321D01*
X186021383Y-81271947D01*
X186021383Y-81298450D01*
X186017553Y-81334075D01*
X186017200Y-81340682D01*
X186017200Y-81368874D01*
X186020650Y-81381749D01*
X186049294Y-81389425D01*
X186048173Y-81393605D01*
X186083739Y-81403705D01*
X186129456Y-81453696D01*
X186142078Y-81520252D01*
X186117839Y-81583511D01*
X186073404Y-81642869D01*
X186072452Y-81642156D01*
X186048107Y-81670930D01*
X186026758Y-81681616D01*
X186020988Y-81687386D01*
X186017200Y-81701526D01*
X186017200Y-81729717D01*
X186017553Y-81736320D01*
X186021131Y-81769600D01*
X186021131Y-81796105D01*
X186017053Y-81834036D01*
X186017053Y-81834042D01*
X186016700Y-81837327D01*
X186016700Y-81840636D01*
X186016700Y-81840637D01*
X186016700Y-82229760D01*
X186016700Y-82229778D01*
X186016701Y-82233072D01*
X186017053Y-82236347D01*
X186017054Y-82236365D01*
X186020879Y-82271945D01*
X186020879Y-82298449D01*
X186017053Y-82334036D01*
X186017052Y-82334050D01*
X186016700Y-82337327D01*
X186016700Y-82340636D01*
X186016700Y-82340637D01*
X186016700Y-82729760D01*
X186016700Y-82729778D01*
X186016701Y-82733072D01*
X186017053Y-82736347D01*
X186017054Y-82736365D01*
X186020879Y-82771945D01*
X186020879Y-82798449D01*
X186017053Y-82834036D01*
X186017052Y-82834050D01*
X186016700Y-82837327D01*
X186016700Y-82840636D01*
X186016700Y-82840637D01*
X186016700Y-83229760D01*
X186016700Y-83229778D01*
X186016701Y-83233072D01*
X186017054Y-83236362D01*
X186017055Y-83236368D01*
X186021131Y-83274294D01*
X186021131Y-83300795D01*
X186017553Y-83334077D01*
X186017200Y-83340683D01*
X186017200Y-83368874D01*
X186020988Y-83383013D01*
X186026757Y-83388782D01*
X186048109Y-83399470D01*
X186072451Y-83428243D01*
X186073404Y-83427531D01*
X186117839Y-83486889D01*
X186142078Y-83550148D01*
X186129456Y-83616704D01*
X186083739Y-83666695D01*
X186048173Y-83676794D01*
X186049294Y-83680975D01*
X186020650Y-83688650D01*
X186017200Y-83701526D01*
X186017200Y-83729718D01*
X186017553Y-83736321D01*
X186021383Y-83771947D01*
X186021383Y-83798450D01*
X186017553Y-83834075D01*
X186017200Y-83840682D01*
X186017200Y-83868874D01*
X186020650Y-83881749D01*
X186049294Y-83889425D01*
X186048173Y-83893605D01*
X186083739Y-83903705D01*
X186129456Y-83953696D01*
X186142078Y-84020252D01*
X186117839Y-84083511D01*
X186073404Y-84142869D01*
X186072452Y-84142156D01*
X186048107Y-84170930D01*
X186026758Y-84181616D01*
X186020988Y-84187386D01*
X186017200Y-84201526D01*
X186017200Y-84229717D01*
X186017553Y-84236320D01*
X186021131Y-84269600D01*
X186021131Y-84296105D01*
X186017053Y-84334036D01*
X186017053Y-84334042D01*
X186016700Y-84337327D01*
X186016700Y-84340636D01*
X186016700Y-84340637D01*
X186016700Y-84729760D01*
X186016700Y-84729778D01*
X186016701Y-84733072D01*
X186017053Y-84736347D01*
X186017054Y-84736365D01*
X186020879Y-84771945D01*
X186020879Y-84798449D01*
X186017053Y-84834036D01*
X186017052Y-84834050D01*
X186016700Y-84837327D01*
X186016700Y-84840636D01*
X186016700Y-84840637D01*
X186016700Y-85229760D01*
X186016700Y-85229778D01*
X186016701Y-85233072D01*
X186017054Y-85236362D01*
X186017055Y-85236368D01*
X186021131Y-85274294D01*
X186021131Y-85300795D01*
X186017553Y-85334077D01*
X186017200Y-85340683D01*
X186017200Y-85368874D01*
X186020988Y-85383013D01*
X186026757Y-85388782D01*
X186048109Y-85399470D01*
X186072451Y-85428243D01*
X186073404Y-85427531D01*
X186117839Y-85486889D01*
X186142078Y-85550148D01*
X186129456Y-85616704D01*
X186083739Y-85666695D01*
X186048173Y-85676794D01*
X186049294Y-85680975D01*
X186020650Y-85688650D01*
X186017200Y-85701526D01*
X186017200Y-85729718D01*
X186017553Y-85736322D01*
X186021383Y-85771948D01*
X186021383Y-85798452D01*
X186017553Y-85834077D01*
X186017200Y-85840682D01*
X186017200Y-85868874D01*
X186020650Y-85881749D01*
X186049294Y-85889425D01*
X186048173Y-85893605D01*
X186083739Y-85903705D01*
X186129456Y-85953696D01*
X186142078Y-86020252D01*
X186117839Y-86083511D01*
X186073404Y-86142869D01*
X186072452Y-86142156D01*
X186048107Y-86170930D01*
X186026758Y-86181616D01*
X186020988Y-86187386D01*
X186017200Y-86201526D01*
X186017200Y-86229717D01*
X186017553Y-86236320D01*
X186021131Y-86269600D01*
X186021131Y-86296105D01*
X186017053Y-86334036D01*
X186017053Y-86334042D01*
X186016700Y-86337327D01*
X186016700Y-86340636D01*
X186016700Y-86340637D01*
X186016700Y-86729760D01*
X186016700Y-86729778D01*
X186016701Y-86733072D01*
X186017053Y-86736347D01*
X186017054Y-86736365D01*
X186020879Y-86771945D01*
X186020879Y-86798449D01*
X186017053Y-86834036D01*
X186017052Y-86834050D01*
X186016700Y-86837327D01*
X186016700Y-86840636D01*
X186016700Y-86840637D01*
X186016700Y-87229760D01*
X186016700Y-87229778D01*
X186016701Y-87233072D01*
X186017053Y-87236347D01*
X186017054Y-87236365D01*
X186020879Y-87271945D01*
X186020879Y-87298449D01*
X186017053Y-87334036D01*
X186017052Y-87334050D01*
X186016700Y-87337327D01*
X186016700Y-87340636D01*
X186016700Y-87340637D01*
X186016700Y-87729760D01*
X186016700Y-87729778D01*
X186016701Y-87733072D01*
X186017053Y-87736347D01*
X186017054Y-87736365D01*
X186020879Y-87771945D01*
X186020879Y-87798449D01*
X186017053Y-87834036D01*
X186017052Y-87834050D01*
X186016700Y-87837327D01*
X186016700Y-87840636D01*
X186016700Y-87840637D01*
X186016700Y-88229760D01*
X186016700Y-88229778D01*
X186016701Y-88233072D01*
X186017053Y-88236347D01*
X186017054Y-88236365D01*
X186020879Y-88271945D01*
X186020879Y-88298449D01*
X186017053Y-88334036D01*
X186017052Y-88334050D01*
X186016700Y-88337327D01*
X186016700Y-88340636D01*
X186016700Y-88340637D01*
X186016700Y-88729760D01*
X186016700Y-88729778D01*
X186016701Y-88733072D01*
X186017053Y-88736347D01*
X186017054Y-88736365D01*
X186020879Y-88771945D01*
X186020879Y-88798449D01*
X186017053Y-88834036D01*
X186017052Y-88834050D01*
X186016700Y-88837327D01*
X186016700Y-88840636D01*
X186016700Y-88840637D01*
X186016700Y-89229760D01*
X186016700Y-89229778D01*
X186016701Y-89233072D01*
X186017053Y-89236347D01*
X186017054Y-89236365D01*
X186020879Y-89271945D01*
X186020879Y-89298449D01*
X186017053Y-89334036D01*
X186017052Y-89334050D01*
X186016700Y-89337327D01*
X186016700Y-89340636D01*
X186016700Y-89340637D01*
X186016700Y-89729760D01*
X186016700Y-89729778D01*
X186016701Y-89733072D01*
X186017053Y-89736350D01*
X186017054Y-89736361D01*
X186022279Y-89784968D01*
X186022280Y-89784973D01*
X186023109Y-89792683D01*
X186025819Y-89799949D01*
X186025820Y-89799953D01*
X186048666Y-89861205D01*
X186073404Y-89927531D01*
X186078718Y-89934630D01*
X186078719Y-89934631D01*
X186153735Y-90034840D01*
X186159654Y-90042746D01*
X186274869Y-90128996D01*
X186409717Y-90179291D01*
X186469327Y-90185700D01*
X186592700Y-90185699D01*
X186654699Y-90202312D01*
X186700087Y-90247699D01*
X186716700Y-90309699D01*
X186716700Y-92399760D01*
X186716700Y-92399778D01*
X186716701Y-92403072D01*
X186717053Y-92406350D01*
X186717054Y-92406361D01*
X186722279Y-92454968D01*
X186722280Y-92454973D01*
X186723109Y-92462683D01*
X186725819Y-92469949D01*
X186725820Y-92469953D01*
X186742832Y-92515564D01*
X186773404Y-92597531D01*
X186859654Y-92712746D01*
X186974869Y-92798996D01*
X187109717Y-92849291D01*
X187169327Y-92855700D01*
X190365072Y-92855699D01*
X190424683Y-92849291D01*
X190559531Y-92798996D01*
X190674746Y-92712746D01*
X190760996Y-92597531D01*
X190811291Y-92462683D01*
X190817700Y-92403073D01*
X190817699Y-90007328D01*
X190811291Y-89947717D01*
X190760996Y-89812869D01*
X190674746Y-89697654D01*
X190559531Y-89611404D01*
X190439459Y-89566620D01*
X190431952Y-89563820D01*
X190431950Y-89563819D01*
X190424683Y-89561109D01*
X190416970Y-89560279D01*
X190416967Y-89560279D01*
X190368380Y-89555055D01*
X190368369Y-89555054D01*
X190365073Y-89554700D01*
X190361751Y-89554700D01*
X188241699Y-89554700D01*
X188179699Y-89538087D01*
X188134312Y-89492700D01*
X188117699Y-89430700D01*
X188117699Y-89340638D01*
X188117699Y-89340637D01*
X188117699Y-89337328D01*
X188113520Y-89298454D01*
X188113520Y-89271945D01*
X188117700Y-89233073D01*
X188117699Y-88837328D01*
X188113520Y-88798454D01*
X188113531Y-88771835D01*
X188113586Y-88771332D01*
X188134215Y-88715135D01*
X188178769Y-88675151D01*
X188236863Y-88660700D01*
X200754748Y-88660700D01*
X200802201Y-88670139D01*
X200842429Y-88697019D01*
X204801038Y-92655628D01*
X204825278Y-92689926D01*
X204836678Y-92730347D01*
X204849180Y-92849291D01*
X204854326Y-92898256D01*
X204856331Y-92904428D01*
X204856333Y-92904435D01*
X204910813Y-93072105D01*
X204912821Y-93078284D01*
X204916068Y-93083908D01*
X204916069Y-93083910D01*
X204955528Y-93152256D01*
X205007467Y-93242216D01*
X205011811Y-93247041D01*
X205011813Y-93247043D01*
X205101112Y-93346219D01*
X205134129Y-93382888D01*
X205287270Y-93494151D01*
X205460197Y-93571144D01*
X205645354Y-93610500D01*
X205828143Y-93610500D01*
X205834646Y-93610500D01*
X206019803Y-93571144D01*
X206192730Y-93494151D01*
X206345871Y-93382888D01*
X206472533Y-93242216D01*
X206567179Y-93078284D01*
X206625674Y-92898256D01*
X206645460Y-92710000D01*
X206625674Y-92521744D01*
X206567179Y-92341716D01*
X206472533Y-92177784D01*
X206388539Y-92084500D01*
X206350220Y-92041942D01*
X206350219Y-92041941D01*
X206345871Y-92037112D01*
X206340613Y-92033292D01*
X206340611Y-92033290D01*
X206197988Y-91929669D01*
X206197987Y-91929668D01*
X206192730Y-91925849D01*
X206109500Y-91888792D01*
X206025745Y-91851501D01*
X206025740Y-91851499D01*
X206019803Y-91848856D01*
X206013444Y-91847504D01*
X206013440Y-91847503D01*
X205841008Y-91810852D01*
X205841005Y-91810851D01*
X205834646Y-91809500D01*
X205828143Y-91809500D01*
X205775452Y-91809500D01*
X205727999Y-91800061D01*
X205687771Y-91773181D01*
X202286972Y-88372381D01*
X202256722Y-88323018D01*
X202252180Y-88265302D01*
X202274335Y-88211815D01*
X202318358Y-88174215D01*
X202374653Y-88160700D01*
X202794748Y-88160700D01*
X202842201Y-88170139D01*
X202882429Y-88197019D01*
X215238181Y-100552771D01*
X215265061Y-100592999D01*
X215274500Y-100640452D01*
X215274500Y-104062225D01*
X215273978Y-104073280D01*
X215272327Y-104080667D01*
X215272571Y-104088453D01*
X215272571Y-104088461D01*
X215274439Y-104147873D01*
X215274500Y-104151768D01*
X215274500Y-104179350D01*
X215274988Y-104183219D01*
X215274989Y-104183225D01*
X215275004Y-104183343D01*
X215275918Y-104194966D01*
X215277045Y-104230830D01*
X215277046Y-104230837D01*
X215277291Y-104238627D01*
X215279467Y-104246119D01*
X215279468Y-104246121D01*
X215282879Y-104257862D01*
X215286825Y-104276915D01*
X215289336Y-104296792D01*
X215292206Y-104304042D01*
X215292208Y-104304048D01*
X215305414Y-104337404D01*
X215309197Y-104348451D01*
X215321382Y-104390390D01*
X215325353Y-104397105D01*
X215325354Y-104397107D01*
X215331581Y-104407637D01*
X215340136Y-104425099D01*
X215344642Y-104436480D01*
X215344643Y-104436483D01*
X215347514Y-104443732D01*
X215369440Y-104473912D01*
X215373181Y-104479060D01*
X215379593Y-104488822D01*
X215397856Y-104519702D01*
X215397859Y-104519707D01*
X215401830Y-104526420D01*
X215407345Y-104531935D01*
X215415990Y-104540580D01*
X215428626Y-104555374D01*
X215435819Y-104565275D01*
X215435823Y-104565279D01*
X215440406Y-104571587D01*
X215446415Y-104576558D01*
X215446416Y-104576559D01*
X215474058Y-104599426D01*
X215482699Y-104607289D01*
X216672707Y-105797298D01*
X216680159Y-105805487D01*
X216684214Y-105811877D01*
X216731970Y-105856723D01*
X216733223Y-105857900D01*
X216736020Y-105860611D01*
X216755529Y-105880120D01*
X216758709Y-105882587D01*
X216767571Y-105890155D01*
X216774636Y-105896790D01*
X216793732Y-105914723D01*
X216793734Y-105914724D01*
X216799418Y-105920062D01*
X216806251Y-105923818D01*
X216806252Y-105923819D01*
X216816973Y-105929713D01*
X216833234Y-105940394D01*
X216849064Y-105952673D01*
X216889155Y-105970021D01*
X216899635Y-105975155D01*
X216937908Y-105996197D01*
X216957316Y-106001180D01*
X216975717Y-106007480D01*
X216978844Y-106008833D01*
X216986944Y-106012339D01*
X216986946Y-106012339D01*
X216994104Y-106015437D01*
X217037258Y-106022271D01*
X217048644Y-106024629D01*
X217090981Y-106035500D01*
X217111017Y-106035500D01*
X217130415Y-106037027D01*
X217142486Y-106038939D01*
X217142487Y-106038939D01*
X217150196Y-106040160D01*
X217188276Y-106036560D01*
X217193676Y-106036050D01*
X217205345Y-106035500D01*
X218362225Y-106035500D01*
X218373280Y-106036021D01*
X218380667Y-106037673D01*
X218447872Y-106035561D01*
X218451768Y-106035500D01*
X218475448Y-106035500D01*
X218479350Y-106035500D01*
X218483313Y-106034999D01*
X218494963Y-106034080D01*
X218538627Y-106032709D01*
X218557861Y-106027119D01*
X218576917Y-106023174D01*
X218596792Y-106020664D01*
X218637395Y-106004587D01*
X218648450Y-106000802D01*
X218690390Y-105988618D01*
X218707629Y-105978422D01*
X218725103Y-105969862D01*
X218736474Y-105965360D01*
X218736476Y-105965358D01*
X218743732Y-105962486D01*
X218779069Y-105936811D01*
X218788824Y-105930403D01*
X218826420Y-105908170D01*
X218840584Y-105894005D01*
X218855379Y-105881368D01*
X218871587Y-105869594D01*
X218899428Y-105835938D01*
X218907279Y-105827309D01*
X220573311Y-104161278D01*
X220581481Y-104153844D01*
X220587877Y-104149786D01*
X220633918Y-104100756D01*
X220636564Y-104098025D01*
X220651244Y-104083346D01*
X220709250Y-104050633D01*
X220775815Y-104052647D01*
X220831738Y-104088806D01*
X220860890Y-104148682D01*
X220854862Y-104215004D01*
X220841853Y-104249304D01*
X220838989Y-104256219D01*
X220817382Y-104304229D01*
X220817379Y-104304235D01*
X220814305Y-104311068D01*
X220812953Y-104318439D01*
X220812951Y-104318449D01*
X220812474Y-104321053D01*
X220806456Y-104342643D01*
X220805519Y-104345114D01*
X220805517Y-104345119D01*
X220802860Y-104352128D01*
X220801956Y-104359565D01*
X220801956Y-104359569D01*
X220795610Y-104411827D01*
X220794483Y-104419226D01*
X220784994Y-104471010D01*
X220784993Y-104471018D01*
X220783642Y-104478394D01*
X220784094Y-104485873D01*
X220784094Y-104485881D01*
X220787274Y-104538433D01*
X220787500Y-104545921D01*
X220787500Y-105937608D01*
X220779251Y-105982080D01*
X220762296Y-106009720D01*
X220763637Y-106010694D01*
X220759812Y-106015957D01*
X220755467Y-106020784D01*
X220752220Y-106026407D01*
X220752217Y-106026412D01*
X220664069Y-106179089D01*
X220664066Y-106179094D01*
X220660821Y-106184716D01*
X220658815Y-106190888D01*
X220658813Y-106190894D01*
X220604333Y-106358564D01*
X220604331Y-106358573D01*
X220602326Y-106364744D01*
X220601648Y-106371194D01*
X220601646Y-106371204D01*
X220583962Y-106539464D01*
X220582540Y-106553000D01*
X220583219Y-106559460D01*
X220601646Y-106734795D01*
X220601647Y-106734803D01*
X220602326Y-106741256D01*
X220604331Y-106747428D01*
X220604333Y-106747435D01*
X220658813Y-106915105D01*
X220660821Y-106921284D01*
X220755467Y-107085216D01*
X220882129Y-107225888D01*
X220883676Y-107227012D01*
X220915797Y-107274276D01*
X220922597Y-107333040D01*
X220901398Y-107388268D01*
X220857024Y-107427389D01*
X220799575Y-107441500D01*
X199136099Y-107441500D01*
X199136000Y-107441459D01*
X199135617Y-107441616D01*
X199135617Y-107441617D01*
X199135459Y-107442000D01*
X199135500Y-107442099D01*
X199135500Y-107454025D01*
X199135500Y-112978431D01*
X199126061Y-113025884D01*
X199099181Y-113066112D01*
X194854111Y-117311181D01*
X194813883Y-117338061D01*
X194766430Y-117347500D01*
X188519570Y-117347500D01*
X188472117Y-117338061D01*
X188431889Y-117311181D01*
X181864708Y-110744000D01*
X188128341Y-110744000D01*
X188148937Y-110979408D01*
X188150336Y-110984630D01*
X188150337Y-110984634D01*
X188208694Y-111202430D01*
X188208697Y-111202438D01*
X188210097Y-111207663D01*
X188309965Y-111421829D01*
X188445505Y-111615401D01*
X188612599Y-111782495D01*
X188806171Y-111918035D01*
X189020337Y-112017903D01*
X189248592Y-112079063D01*
X189425034Y-112094500D01*
X189540258Y-112094500D01*
X189542966Y-112094500D01*
X189719408Y-112079063D01*
X189947663Y-112017903D01*
X190161829Y-111918035D01*
X190355401Y-111782495D01*
X190522495Y-111615401D01*
X190658035Y-111421830D01*
X190757903Y-111207663D01*
X190819063Y-110979408D01*
X190839659Y-110744000D01*
X190819063Y-110508592D01*
X190757903Y-110280337D01*
X190658035Y-110066171D01*
X190522495Y-109872599D01*
X190355401Y-109705505D01*
X190161829Y-109569965D01*
X189947663Y-109470097D01*
X189942438Y-109468697D01*
X189942430Y-109468694D01*
X189724634Y-109410337D01*
X189724630Y-109410336D01*
X189719408Y-109408937D01*
X189714020Y-109408465D01*
X189714017Y-109408465D01*
X189545664Y-109393736D01*
X189545662Y-109393735D01*
X189542966Y-109393500D01*
X189425034Y-109393500D01*
X189422338Y-109393735D01*
X189422335Y-109393736D01*
X189253982Y-109408465D01*
X189253977Y-109408465D01*
X189248592Y-109408937D01*
X189243371Y-109410335D01*
X189243365Y-109410337D01*
X189025569Y-109468694D01*
X189025557Y-109468698D01*
X189020337Y-109470097D01*
X189015432Y-109472383D01*
X189015427Y-109472386D01*
X188811081Y-109567675D01*
X188811077Y-109567677D01*
X188806171Y-109569965D01*
X188801738Y-109573068D01*
X188801731Y-109573073D01*
X188617034Y-109702399D01*
X188617029Y-109702402D01*
X188612599Y-109705505D01*
X188608775Y-109709328D01*
X188608769Y-109709334D01*
X188449336Y-109868767D01*
X188449330Y-109868773D01*
X188445505Y-109872599D01*
X188442406Y-109877023D01*
X188442399Y-109877033D01*
X188313066Y-110061740D01*
X188313061Y-110061747D01*
X188309965Y-110066170D01*
X188307683Y-110071061D01*
X188307678Y-110071072D01*
X188212386Y-110275427D01*
X188212383Y-110275432D01*
X188210097Y-110280337D01*
X188208698Y-110285557D01*
X188208694Y-110285569D01*
X188150337Y-110503365D01*
X188150335Y-110503371D01*
X188148937Y-110508592D01*
X188128341Y-110744000D01*
X181864708Y-110744000D01*
X179106819Y-107986111D01*
X179079939Y-107945883D01*
X179070500Y-107898430D01*
X179070500Y-96136000D01*
X201401215Y-96136000D01*
X201401894Y-96142460D01*
X201419223Y-96307341D01*
X201419224Y-96307348D01*
X201419903Y-96313803D01*
X201475150Y-96483835D01*
X201564541Y-96638665D01*
X201684170Y-96771526D01*
X201828807Y-96876612D01*
X201992133Y-96949329D01*
X201998491Y-96950680D01*
X201998493Y-96950681D01*
X202034085Y-96958246D01*
X202167009Y-96986500D01*
X202339288Y-96986500D01*
X202345791Y-96986500D01*
X202520667Y-96949329D01*
X202683993Y-96876612D01*
X202828630Y-96771526D01*
X202948259Y-96638665D01*
X203037650Y-96483835D01*
X203092897Y-96313803D01*
X203111585Y-96136000D01*
X203092897Y-95958197D01*
X203037650Y-95788165D01*
X202948259Y-95633335D01*
X202828630Y-95500474D01*
X202757190Y-95448569D01*
X202689247Y-95399205D01*
X202689245Y-95399203D01*
X202683993Y-95395388D01*
X202610255Y-95362558D01*
X202526605Y-95325314D01*
X202526598Y-95325311D01*
X202520667Y-95322671D01*
X202514314Y-95321320D01*
X202514306Y-95321318D01*
X202352153Y-95286852D01*
X202352150Y-95286851D01*
X202345791Y-95285500D01*
X202167009Y-95285500D01*
X202160650Y-95286851D01*
X202160646Y-95286852D01*
X201998493Y-95321318D01*
X201998482Y-95321321D01*
X201992133Y-95322671D01*
X201986204Y-95325310D01*
X201986194Y-95325314D01*
X201834742Y-95392745D01*
X201834734Y-95392749D01*
X201828808Y-95395388D01*
X201823559Y-95399201D01*
X201823553Y-95399205D01*
X201689423Y-95496656D01*
X201689414Y-95496663D01*
X201684170Y-95500474D01*
X201679826Y-95505297D01*
X201679823Y-95505301D01*
X201568887Y-95628507D01*
X201568882Y-95628513D01*
X201564541Y-95633335D01*
X201561296Y-95638955D01*
X201561292Y-95638961D01*
X201478398Y-95782538D01*
X201478395Y-95782543D01*
X201475150Y-95788165D01*
X201473144Y-95794337D01*
X201473142Y-95794343D01*
X201421911Y-95952016D01*
X201419903Y-95958197D01*
X201419224Y-95964649D01*
X201419223Y-95964658D01*
X201402284Y-96125822D01*
X201401215Y-96136000D01*
X179070500Y-96136000D01*
X179070500Y-74219570D01*
X179079939Y-74172117D01*
X179106819Y-74131889D01*
X180553208Y-72685500D01*
X183388707Y-69850000D01*
X188128341Y-69850000D01*
X188128813Y-69855395D01*
X188130449Y-69874100D01*
X188148937Y-70085408D01*
X188150336Y-70090630D01*
X188150337Y-70090634D01*
X188208694Y-70308430D01*
X188208697Y-70308438D01*
X188210097Y-70313663D01*
X188309965Y-70527829D01*
X188445505Y-70721401D01*
X188612599Y-70888495D01*
X188806171Y-71024035D01*
X189020337Y-71123903D01*
X189248592Y-71185063D01*
X189425034Y-71200500D01*
X189540258Y-71200500D01*
X189542966Y-71200500D01*
X189719408Y-71185063D01*
X189947663Y-71123903D01*
X190161829Y-71024035D01*
X190355401Y-70888495D01*
X190522495Y-70721401D01*
X190658035Y-70527830D01*
X190757903Y-70313663D01*
X190819063Y-70085408D01*
X190839659Y-69850000D01*
X190819063Y-69614592D01*
X190757903Y-69386337D01*
X190658035Y-69172171D01*
X190522495Y-68978599D01*
X190355401Y-68811505D01*
X190161829Y-68675965D01*
X190093908Y-68644292D01*
X189952572Y-68578386D01*
X189952570Y-68578385D01*
X189947663Y-68576097D01*
X189942438Y-68574697D01*
X189942430Y-68574694D01*
X189724634Y-68516337D01*
X189724630Y-68516336D01*
X189719408Y-68514937D01*
X189714020Y-68514465D01*
X189714017Y-68514465D01*
X189545664Y-68499736D01*
X189545662Y-68499735D01*
X189542966Y-68499500D01*
X189425034Y-68499500D01*
X189422338Y-68499735D01*
X189422335Y-68499736D01*
X189253982Y-68514465D01*
X189253977Y-68514465D01*
X189248592Y-68514937D01*
X189243371Y-68516335D01*
X189243365Y-68516337D01*
X189025569Y-68574694D01*
X189025557Y-68574698D01*
X189020337Y-68576097D01*
X189015432Y-68578383D01*
X189015427Y-68578386D01*
X188811081Y-68673675D01*
X188811077Y-68673677D01*
X188806171Y-68675965D01*
X188801738Y-68679068D01*
X188801731Y-68679073D01*
X188617034Y-68808399D01*
X188617029Y-68808402D01*
X188612599Y-68811505D01*
X188608775Y-68815328D01*
X188608769Y-68815334D01*
X188449336Y-68974767D01*
X188449330Y-68974773D01*
X188445505Y-68978599D01*
X188442406Y-68983023D01*
X188442399Y-68983033D01*
X188313066Y-69167740D01*
X188313061Y-69167747D01*
X188309965Y-69172170D01*
X188307683Y-69177061D01*
X188307678Y-69177072D01*
X188212386Y-69381427D01*
X188212383Y-69381432D01*
X188210097Y-69386337D01*
X188208698Y-69391557D01*
X188208694Y-69391569D01*
X188150337Y-69609365D01*
X188150335Y-69609371D01*
X188148937Y-69614592D01*
X188148465Y-69619977D01*
X188148465Y-69619982D01*
X188145164Y-69657715D01*
X188128341Y-69850000D01*
X183388707Y-69850000D01*
X188656206Y-64582500D01*
X201854357Y-64582500D01*
X201854781Y-64587617D01*
X201874467Y-64825201D01*
X201874468Y-64825209D01*
X201874892Y-64830321D01*
X201876149Y-64835288D01*
X201876151Y-64835295D01*
X201934678Y-65066410D01*
X201935937Y-65071381D01*
X201937997Y-65076077D01*
X202033766Y-65294410D01*
X202033769Y-65294416D01*
X202035827Y-65299107D01*
X202038627Y-65303393D01*
X202038631Y-65303400D01*
X202166675Y-65499385D01*
X202171836Y-65507285D01*
X202175310Y-65511059D01*
X202175311Y-65511060D01*
X202336784Y-65686467D01*
X202336787Y-65686470D01*
X202340256Y-65690238D01*
X202536491Y-65842974D01*
X202755190Y-65961328D01*
X202990386Y-66042071D01*
X203235665Y-66083000D01*
X203479201Y-66083000D01*
X203484335Y-66083000D01*
X203729614Y-66042071D01*
X203964810Y-65961328D01*
X204183509Y-65842974D01*
X204379744Y-65690238D01*
X204548164Y-65507285D01*
X204684173Y-65299107D01*
X204784063Y-65071381D01*
X204845108Y-64830321D01*
X204865643Y-64582500D01*
X213854357Y-64582500D01*
X213854781Y-64587617D01*
X213874467Y-64825201D01*
X213874468Y-64825209D01*
X213874892Y-64830321D01*
X213876149Y-64835288D01*
X213876151Y-64835295D01*
X213934678Y-65066410D01*
X213935937Y-65071381D01*
X213937997Y-65076077D01*
X214033766Y-65294410D01*
X214033769Y-65294416D01*
X214035827Y-65299107D01*
X214038627Y-65303393D01*
X214038631Y-65303400D01*
X214166675Y-65499385D01*
X214171836Y-65507285D01*
X214175310Y-65511059D01*
X214175311Y-65511060D01*
X214336784Y-65686467D01*
X214336787Y-65686470D01*
X214340256Y-65690238D01*
X214536491Y-65842974D01*
X214755190Y-65961328D01*
X214990386Y-66042071D01*
X215235665Y-66083000D01*
X215479201Y-66083000D01*
X215484335Y-66083000D01*
X215729614Y-66042071D01*
X215964810Y-65961328D01*
X216183509Y-65842974D01*
X216379744Y-65690238D01*
X216548164Y-65507285D01*
X216684173Y-65299107D01*
X216784063Y-65071381D01*
X216845108Y-64830321D01*
X216865643Y-64582500D01*
X216845108Y-64334679D01*
X216784063Y-64093619D01*
X216684173Y-63865893D01*
X216548164Y-63657715D01*
X216379744Y-63474762D01*
X216183509Y-63322026D01*
X216178997Y-63319584D01*
X215969316Y-63206110D01*
X215969310Y-63206107D01*
X215964810Y-63203672D01*
X215959969Y-63202010D01*
X215959962Y-63202007D01*
X215734465Y-63124594D01*
X215734461Y-63124593D01*
X215729614Y-63122929D01*
X215720768Y-63121452D01*
X215489398Y-63082844D01*
X215489387Y-63082843D01*
X215484335Y-63082000D01*
X215235665Y-63082000D01*
X215230613Y-63082843D01*
X215230601Y-63082844D01*
X214995443Y-63122085D01*
X214995441Y-63122085D01*
X214990386Y-63122929D01*
X214985541Y-63124592D01*
X214985534Y-63124594D01*
X214760037Y-63202007D01*
X214760026Y-63202011D01*
X214755190Y-63203672D01*
X214750693Y-63206105D01*
X214750683Y-63206110D01*
X214541002Y-63319584D01*
X214540995Y-63319588D01*
X214536491Y-63322026D01*
X214532448Y-63325172D01*
X214532440Y-63325178D01*
X214344304Y-63471611D01*
X214340256Y-63474762D01*
X214336793Y-63478523D01*
X214336784Y-63478532D01*
X214175311Y-63653939D01*
X214175305Y-63653946D01*
X214171836Y-63657715D01*
X214169031Y-63662006D01*
X214169028Y-63662012D01*
X214038631Y-63861599D01*
X214038624Y-63861611D01*
X214035827Y-63865893D01*
X214033772Y-63870577D01*
X214033766Y-63870589D01*
X213937997Y-64088922D01*
X213935937Y-64093619D01*
X213934679Y-64098584D01*
X213934678Y-64098589D01*
X213876151Y-64329704D01*
X213876149Y-64329713D01*
X213874892Y-64334679D01*
X213874468Y-64339788D01*
X213874467Y-64339798D01*
X213854781Y-64577383D01*
X213854357Y-64582500D01*
X204865643Y-64582500D01*
X204845108Y-64334679D01*
X204784063Y-64093619D01*
X204684173Y-63865893D01*
X204548164Y-63657715D01*
X204379744Y-63474762D01*
X204183509Y-63322026D01*
X204178997Y-63319584D01*
X203969316Y-63206110D01*
X203969310Y-63206107D01*
X203964810Y-63203672D01*
X203959969Y-63202010D01*
X203959962Y-63202007D01*
X203734465Y-63124594D01*
X203734461Y-63124593D01*
X203729614Y-63122929D01*
X203720768Y-63121452D01*
X203489398Y-63082844D01*
X203489387Y-63082843D01*
X203484335Y-63082000D01*
X203235665Y-63082000D01*
X203230613Y-63082843D01*
X203230601Y-63082844D01*
X202995443Y-63122085D01*
X202995441Y-63122085D01*
X202990386Y-63122929D01*
X202985541Y-63124592D01*
X202985534Y-63124594D01*
X202760037Y-63202007D01*
X202760026Y-63202011D01*
X202755190Y-63203672D01*
X202750693Y-63206105D01*
X202750683Y-63206110D01*
X202541002Y-63319584D01*
X202540995Y-63319588D01*
X202536491Y-63322026D01*
X202532448Y-63325172D01*
X202532440Y-63325178D01*
X202344304Y-63471611D01*
X202340256Y-63474762D01*
X202336793Y-63478523D01*
X202336784Y-63478532D01*
X202175311Y-63653939D01*
X202175305Y-63653946D01*
X202171836Y-63657715D01*
X202169031Y-63662006D01*
X202169028Y-63662012D01*
X202038631Y-63861599D01*
X202038624Y-63861611D01*
X202035827Y-63865893D01*
X202033772Y-63870577D01*
X202033766Y-63870589D01*
X201937997Y-64088922D01*
X201935937Y-64093619D01*
X201934679Y-64098584D01*
X201934678Y-64098589D01*
X201876151Y-64329704D01*
X201876149Y-64329713D01*
X201874892Y-64334679D01*
X201874468Y-64339788D01*
X201874467Y-64339798D01*
X201854781Y-64577383D01*
X201854357Y-64582500D01*
X188656206Y-64582500D01*
X189992282Y-63246424D01*
X189992284Y-63246424D01*
X190463888Y-62774818D01*
X190504116Y-62747939D01*
X190551569Y-62738500D01*
X191007901Y-62738500D01*
X191008099Y-62738500D01*
X250392430Y-62738500D01*
X250439883Y-62747939D01*
G37*
%TD.AperFunction*%
%TA.AperFunction,Conductor*%
G36*
X216684616Y-100121731D02*
G01*
X216734720Y-100152219D01*
X217049181Y-100466680D01*
X217076061Y-100506908D01*
X217085500Y-100554360D01*
X217085500Y-100726858D01*
X217085500Y-100726877D01*
X217085501Y-100730008D01*
X217085820Y-100733139D01*
X217085821Y-100733142D01*
X217095312Y-100826061D01*
X217095313Y-100826069D01*
X217096001Y-100832797D01*
X217098129Y-100839219D01*
X217098130Y-100839223D01*
X217127117Y-100926698D01*
X217151186Y-100999334D01*
X217154977Y-101005480D01*
X217239497Y-101142511D01*
X217239500Y-101142515D01*
X217243288Y-101148656D01*
X217367344Y-101272712D01*
X217373485Y-101276500D01*
X217373488Y-101276502D01*
X217437371Y-101315905D01*
X217516666Y-101364814D01*
X217575069Y-101384167D01*
X217623742Y-101414189D01*
X218174457Y-101964904D01*
X218186000Y-101971568D01*
X218197542Y-101964904D01*
X218748255Y-101414190D01*
X218796927Y-101384168D01*
X218855334Y-101364814D01*
X219004656Y-101272712D01*
X219128712Y-101148656D01*
X219166962Y-101086641D01*
X219207086Y-101046397D01*
X219260951Y-101028278D01*
X219317243Y-101036093D01*
X219364136Y-101068199D01*
X219365778Y-101070001D01*
X219369236Y-101074579D01*
X219519959Y-101211981D01*
X219536997Y-101222530D01*
X219540297Y-101224574D01*
X219583348Y-101269662D01*
X219599018Y-101330000D01*
X219583348Y-101390338D01*
X219540297Y-101435426D01*
X219524832Y-101445002D01*
X219519959Y-101448019D01*
X219515728Y-101451875D01*
X219515724Y-101451879D01*
X219373476Y-101581554D01*
X219373466Y-101581564D01*
X219369236Y-101585421D01*
X219365783Y-101589993D01*
X219365778Y-101589999D01*
X219274317Y-101711113D01*
X219223985Y-101750456D01*
X219160747Y-101759522D01*
X219142986Y-101752455D01*
X219124579Y-101751175D01*
X219110889Y-101758662D01*
X218551096Y-102318456D01*
X218544431Y-102330000D01*
X218551095Y-102341542D01*
X219110890Y-102901337D01*
X219124580Y-102908825D01*
X219142963Y-102907549D01*
X219160754Y-102900473D01*
X219223987Y-102909542D01*
X219274315Y-102948883D01*
X219365778Y-103070001D01*
X219365783Y-103070006D01*
X219369236Y-103074579D01*
X219373472Y-103078440D01*
X219373476Y-103078445D01*
X219519959Y-103211981D01*
X219518580Y-103213493D01*
X219547576Y-103248559D01*
X219560500Y-103303678D01*
X219560500Y-103353548D01*
X219551061Y-103401001D01*
X219524181Y-103441229D01*
X218217228Y-104748181D01*
X218177000Y-104775061D01*
X218129547Y-104784500D01*
X217480453Y-104784500D01*
X217433000Y-104775061D01*
X217392772Y-104748181D01*
X216561819Y-103917228D01*
X216534939Y-103877000D01*
X216525500Y-103829547D01*
X216525500Y-103263778D01*
X217609298Y-103263778D01*
X217617235Y-103271624D01*
X217688712Y-103315880D01*
X217698929Y-103320968D01*
X217878333Y-103390469D01*
X217889318Y-103393594D01*
X218078440Y-103428947D01*
X218089799Y-103430000D01*
X218282201Y-103430000D01*
X218293559Y-103428947D01*
X218482681Y-103393594D01*
X218493666Y-103390469D01*
X218673071Y-103320968D01*
X218683284Y-103315882D01*
X218754764Y-103271623D01*
X218762701Y-103263778D01*
X218756771Y-103254324D01*
X218197542Y-102695095D01*
X218186000Y-102688431D01*
X218174456Y-102695096D01*
X217615228Y-103254323D01*
X217609298Y-103263778D01*
X216525500Y-103263778D01*
X216525500Y-102335709D01*
X217081816Y-102335709D01*
X217099568Y-102527282D01*
X217101666Y-102538504D01*
X217154314Y-102723545D01*
X217158445Y-102734208D01*
X217242645Y-102903305D01*
X217248944Y-102907988D01*
X217261111Y-102901334D01*
X217820904Y-102341542D01*
X217827568Y-102329999D01*
X217820904Y-102318457D01*
X217261112Y-101758665D01*
X217248945Y-101752011D01*
X217242643Y-101756698D01*
X217158445Y-101925791D01*
X217154314Y-101936454D01*
X217101666Y-102121495D01*
X217099568Y-102132717D01*
X217081816Y-102324291D01*
X217081816Y-102335709D01*
X216525500Y-102335709D01*
X216525500Y-100407775D01*
X216526021Y-100396719D01*
X216527673Y-100389333D01*
X216525561Y-100322113D01*
X216525500Y-100318219D01*
X216525500Y-100294542D01*
X216525500Y-100290650D01*
X216524998Y-100286683D01*
X216524081Y-100275027D01*
X216523100Y-100243793D01*
X216535175Y-100186398D01*
X216572277Y-100140973D01*
X216626105Y-100117680D01*
X216684616Y-100121731D01*
G37*
%TD.AperFunction*%
%TA.AperFunction,Conductor*%
G36*
X220577897Y-93128235D02*
G01*
X220611656Y-93180972D01*
X220660821Y-93332284D01*
X220664068Y-93337908D01*
X220664069Y-93337910D01*
X220690037Y-93382888D01*
X220755467Y-93496216D01*
X220759813Y-93501043D01*
X220763637Y-93506306D01*
X220762296Y-93507279D01*
X220779251Y-93534920D01*
X220787500Y-93579392D01*
X220787500Y-99201808D01*
X220773194Y-99259629D01*
X220733577Y-99304108D01*
X220677790Y-99324982D01*
X220618706Y-99317435D01*
X220555410Y-99292914D01*
X220493803Y-99269047D01*
X220493798Y-99269045D01*
X220488456Y-99266976D01*
X220449153Y-99259629D01*
X220293605Y-99230552D01*
X220293602Y-99230551D01*
X220287976Y-99229500D01*
X220084024Y-99229500D01*
X220078398Y-99230551D01*
X220078394Y-99230552D01*
X219889181Y-99265922D01*
X219889178Y-99265922D01*
X219883544Y-99266976D01*
X219878203Y-99269044D01*
X219878196Y-99269047D01*
X219698705Y-99338582D01*
X219698700Y-99338584D01*
X219693363Y-99340652D01*
X219688491Y-99343668D01*
X219688488Y-99343670D01*
X219524830Y-99445002D01*
X219524822Y-99445007D01*
X219519959Y-99448019D01*
X219515728Y-99451875D01*
X219515724Y-99451879D01*
X219373473Y-99581557D01*
X219373465Y-99581565D01*
X219369236Y-99585421D01*
X219365785Y-99589990D01*
X219364133Y-99591803D01*
X219317240Y-99623908D01*
X219260949Y-99631721D01*
X219207085Y-99613602D01*
X219166961Y-99573356D01*
X219132502Y-99517488D01*
X219132500Y-99517485D01*
X219128712Y-99511344D01*
X219004656Y-99387288D01*
X218998515Y-99383500D01*
X218998511Y-99383497D01*
X218861480Y-99298977D01*
X218855334Y-99295186D01*
X218767021Y-99265922D01*
X218695225Y-99242131D01*
X218695224Y-99242130D01*
X218688797Y-99240001D01*
X218682064Y-99239313D01*
X218682059Y-99239312D01*
X218589140Y-99229819D01*
X218589123Y-99229818D01*
X218586009Y-99229500D01*
X218582860Y-99229500D01*
X218410361Y-99229500D01*
X218362908Y-99220061D01*
X218322680Y-99193181D01*
X216836819Y-97707320D01*
X216809939Y-97667092D01*
X216800500Y-97619639D01*
X216800500Y-95641062D01*
X216815527Y-95581894D01*
X216856965Y-95537067D01*
X216914772Y-95517444D01*
X216974935Y-95527782D01*
X217144197Y-95603144D01*
X217329354Y-95642500D01*
X217512143Y-95642500D01*
X217518646Y-95642500D01*
X217703803Y-95603144D01*
X217876730Y-95526151D01*
X218029871Y-95414888D01*
X218030082Y-95414652D01*
X218058643Y-95396021D01*
X218069826Y-95390988D01*
X218076673Y-95388152D01*
X218132930Y-95366818D01*
X218141264Y-95361064D01*
X218160821Y-95350034D01*
X218170057Y-95345878D01*
X218217413Y-95308775D01*
X218223420Y-95304355D01*
X218272929Y-95270183D01*
X218312822Y-95225151D01*
X218317924Y-95219731D01*
X220406047Y-93131608D01*
X220460067Y-93099947D01*
X220522673Y-93098717D01*
X220577897Y-93128235D01*
G37*
%TD.AperFunction*%
%TD*%
M02*
