M48
; DRILL file {KiCad (7.99.0-200-gad838e3d73)} date Thu Mar  7 11:40:59 2024
; FORMAT={-:-/ absolute / inch / decimal}
; #@! TF.CreationDate,2024-03-07T11:40:59+07:00
; #@! TF.GenerationSoftware,Kicad,Pcbnew,(7.99.0-200-gad838e3d73)
; #@! TF.FileFunction,Plated,1,2,PTH
FMAT,2
INCH
; #@! TA.AperFunction,Plated,PTH,ViaDrill
T1C0.0157
; #@! TA.AperFunction,Plated,PTH,ComponentDrill
T2C0.0295
; #@! TA.AperFunction,Plated,PTH,ComponentDrill
T3C0.0354
; #@! TA.AperFunction,Plated,PTH,ComponentDrill
T4C0.0394
; #@! TA.AperFunction,Plated,PTH,ComponentDrill
T5C0.0433
; #@! TA.AperFunction,Plated,PTH,ComponentDrill
T6C0.0472
%
G90
G05
T1
X8.1Y-3.65
X8.3Y-3.65
X8.34Y-3.73
X8.44Y-3.73
X8.45Y-3.65
X8.56Y-3.73
X8.605Y-3.79
X8.685Y-3.69
X8.72Y-3.66
X8.72Y-4.195
X8.76Y-3.545
X9.22Y-3.255
T2
X8.59Y-3.95
X8.59Y-4.0287
X8.6687Y-3.95
X8.6687Y-4.0287
X8.7475Y-3.95
X8.7475Y-4.0287
X8.8262Y-3.95
X8.8262Y-4.0287
X8.905Y-3.95
X8.905Y-4.0287
X8.9837Y-3.95
X8.9837Y-4.0287
T3
X8.085Y-2.7099
X8.2425Y-2.7099
X8.4Y-2.7099
T4
X7.84Y-2.92
X7.84Y-3.02
X7.84Y-3.12
X7.84Y-3.22
X9.1708Y-3.13
X9.47Y-3.13
T5
X9.152Y-3.9314
X9.152Y-4.1086
X9.408Y-3.9314
X9.408Y-4.1086
X9.532Y-3.9314
X9.532Y-4.1086
X9.788Y-3.9314
X9.788Y-4.1086
T6
X8.0063Y-2.5426
X8.0063Y-2.7788
X8.4787Y-2.5426
X8.4787Y-2.7788
T0
M30
