%TF.GenerationSoftware,KiCad,Pcbnew,(7.99.0-200-gad838e3d73)*%
%TF.CreationDate,2024-03-07T11:40:59+07:00*%
%TF.ProjectId,WMS_PCB2,574d535f-5043-4423-922e-6b696361645f,rev?*%
%TF.SameCoordinates,Original*%
%TF.FileFunction,Drillmap*%
%TF.FilePolarity,Positive*%
%FSLAX45Y45*%
G04 Gerber Fmt 4.5, Leading zero omitted, Abs format (unit mm)*
G04 Created by KiCad (PCBNEW (7.99.0-200-gad838e3d73)) date 2024-03-07 11:40:59*
%MOMM*%
%LPD*%
G01*
G04 APERTURE LIST*
%ADD10C,0.100000*%
%ADD11C,0.200000*%
%ADD12C,0.220000*%
G04 APERTURE END LIST*
D10*
X17907000Y-7416800D02*
X18999200Y-6324600D01*
X19050000Y-6273800D02*
X18999200Y-6324600D01*
X19913600Y-10744200D02*
X23037800Y-10744200D01*
X17907000Y-7416800D02*
X17907000Y-10795000D01*
X19481800Y-11734800D02*
X19913600Y-11303000D01*
X17907000Y-10795000D02*
X18846800Y-11734800D01*
X23037800Y-10744200D02*
X23876000Y-11582400D01*
X25044400Y-6273800D02*
X19100800Y-6273800D01*
X19913600Y-11303000D02*
X19913600Y-10744200D01*
X25603200Y-6832600D02*
X25044400Y-6273800D01*
X23876000Y-11582400D02*
X25120600Y-11582400D01*
X25603200Y-11099800D02*
X25603200Y-6832600D01*
X25120600Y-11582400D02*
X25603200Y-11099800D01*
X19100800Y-6273800D02*
X19050000Y-6273800D01*
X18846800Y-11734800D02*
X19481800Y-11734800D01*
D11*
D12*
X18838400Y-6875000D02*
X19058400Y-7095000D01*
X19058400Y-6875000D02*
X18838400Y-7095000D01*
X18838400Y-10964400D02*
X19058400Y-11184400D01*
X19058400Y-10964400D02*
X18838400Y-11184400D01*
X24604200Y-6875000D02*
X24824200Y-7095000D01*
X24824200Y-6875000D02*
X24604200Y-7095000D01*
X24604200Y-10964400D02*
X24824200Y-11184400D01*
X24824200Y-10964400D02*
X24604200Y-11184400D01*
D11*
X18149619Y-12033276D02*
X18149619Y-11833276D01*
X18149619Y-11833276D02*
X18197238Y-11833276D01*
X18197238Y-11833276D02*
X18225810Y-11842800D01*
X18225810Y-11842800D02*
X18244857Y-11861848D01*
X18244857Y-11861848D02*
X18254381Y-11880895D01*
X18254381Y-11880895D02*
X18263905Y-11918990D01*
X18263905Y-11918990D02*
X18263905Y-11947562D01*
X18263905Y-11947562D02*
X18254381Y-11985657D01*
X18254381Y-11985657D02*
X18244857Y-12004705D01*
X18244857Y-12004705D02*
X18225810Y-12023752D01*
X18225810Y-12023752D02*
X18197238Y-12033276D01*
X18197238Y-12033276D02*
X18149619Y-12033276D01*
X18349619Y-12033276D02*
X18349619Y-11899943D01*
X18349619Y-11938038D02*
X18359143Y-11918990D01*
X18359143Y-11918990D02*
X18368667Y-11909467D01*
X18368667Y-11909467D02*
X18387714Y-11899943D01*
X18387714Y-11899943D02*
X18406762Y-11899943D01*
X18473429Y-12033276D02*
X18473429Y-11899943D01*
X18473429Y-11833276D02*
X18463905Y-11842800D01*
X18463905Y-11842800D02*
X18473429Y-11852324D01*
X18473429Y-11852324D02*
X18482952Y-11842800D01*
X18482952Y-11842800D02*
X18473429Y-11833276D01*
X18473429Y-11833276D02*
X18473429Y-11852324D01*
X18597238Y-12033276D02*
X18578190Y-12023752D01*
X18578190Y-12023752D02*
X18568667Y-12004705D01*
X18568667Y-12004705D02*
X18568667Y-11833276D01*
X18702000Y-12033276D02*
X18682952Y-12023752D01*
X18682952Y-12023752D02*
X18673429Y-12004705D01*
X18673429Y-12004705D02*
X18673429Y-11833276D01*
X18898190Y-12033276D02*
X18898190Y-11833276D01*
X18898190Y-11833276D02*
X18964857Y-11976133D01*
X18964857Y-11976133D02*
X19031524Y-11833276D01*
X19031524Y-11833276D02*
X19031524Y-12033276D01*
X19212476Y-12033276D02*
X19212476Y-11928514D01*
X19212476Y-11928514D02*
X19202952Y-11909467D01*
X19202952Y-11909467D02*
X19183905Y-11899943D01*
X19183905Y-11899943D02*
X19145809Y-11899943D01*
X19145809Y-11899943D02*
X19126762Y-11909467D01*
X19212476Y-12023752D02*
X19193429Y-12033276D01*
X19193429Y-12033276D02*
X19145809Y-12033276D01*
X19145809Y-12033276D02*
X19126762Y-12023752D01*
X19126762Y-12023752D02*
X19117238Y-12004705D01*
X19117238Y-12004705D02*
X19117238Y-11985657D01*
X19117238Y-11985657D02*
X19126762Y-11966609D01*
X19126762Y-11966609D02*
X19145809Y-11957086D01*
X19145809Y-11957086D02*
X19193429Y-11957086D01*
X19193429Y-11957086D02*
X19212476Y-11947562D01*
X19307714Y-11899943D02*
X19307714Y-12099943D01*
X19307714Y-11909467D02*
X19326762Y-11899943D01*
X19326762Y-11899943D02*
X19364857Y-11899943D01*
X19364857Y-11899943D02*
X19383905Y-11909467D01*
X19383905Y-11909467D02*
X19393429Y-11918990D01*
X19393429Y-11918990D02*
X19402952Y-11938038D01*
X19402952Y-11938038D02*
X19402952Y-11995181D01*
X19402952Y-11995181D02*
X19393429Y-12014228D01*
X19393429Y-12014228D02*
X19383905Y-12023752D01*
X19383905Y-12023752D02*
X19364857Y-12033276D01*
X19364857Y-12033276D02*
X19326762Y-12033276D01*
X19326762Y-12033276D02*
X19307714Y-12023752D01*
X19488667Y-12014228D02*
X19498190Y-12023752D01*
X19498190Y-12023752D02*
X19488667Y-12033276D01*
X19488667Y-12033276D02*
X19479143Y-12023752D01*
X19479143Y-12023752D02*
X19488667Y-12014228D01*
X19488667Y-12014228D02*
X19488667Y-12033276D01*
X19488667Y-11909467D02*
X19498190Y-11918990D01*
X19498190Y-11918990D02*
X19488667Y-11928514D01*
X19488667Y-11928514D02*
X19479143Y-11918990D01*
X19479143Y-11918990D02*
X19488667Y-11909467D01*
X19488667Y-11909467D02*
X19488667Y-11928514D01*
X17702000Y-12279800D02*
X17902000Y-12479800D01*
X17902000Y-12279800D02*
X17702000Y-12479800D01*
X18140095Y-12272324D02*
X18149619Y-12262800D01*
X18149619Y-12262800D02*
X18168667Y-12253276D01*
X18168667Y-12253276D02*
X18216286Y-12253276D01*
X18216286Y-12253276D02*
X18235333Y-12262800D01*
X18235333Y-12262800D02*
X18244857Y-12272324D01*
X18244857Y-12272324D02*
X18254381Y-12291371D01*
X18254381Y-12291371D02*
X18254381Y-12310419D01*
X18254381Y-12310419D02*
X18244857Y-12338990D01*
X18244857Y-12338990D02*
X18130571Y-12453276D01*
X18130571Y-12453276D02*
X18254381Y-12453276D01*
X18340095Y-12434228D02*
X18349619Y-12443752D01*
X18349619Y-12443752D02*
X18340095Y-12453276D01*
X18340095Y-12453276D02*
X18330571Y-12443752D01*
X18330571Y-12443752D02*
X18340095Y-12434228D01*
X18340095Y-12434228D02*
X18340095Y-12453276D01*
X18425810Y-12272324D02*
X18435333Y-12262800D01*
X18435333Y-12262800D02*
X18454381Y-12253276D01*
X18454381Y-12253276D02*
X18502000Y-12253276D01*
X18502000Y-12253276D02*
X18521048Y-12262800D01*
X18521048Y-12262800D02*
X18530571Y-12272324D01*
X18530571Y-12272324D02*
X18540095Y-12291371D01*
X18540095Y-12291371D02*
X18540095Y-12310419D01*
X18540095Y-12310419D02*
X18530571Y-12338990D01*
X18530571Y-12338990D02*
X18416286Y-12453276D01*
X18416286Y-12453276D02*
X18540095Y-12453276D01*
X18663905Y-12253276D02*
X18682952Y-12253276D01*
X18682952Y-12253276D02*
X18702000Y-12262800D01*
X18702000Y-12262800D02*
X18711524Y-12272324D01*
X18711524Y-12272324D02*
X18721048Y-12291371D01*
X18721048Y-12291371D02*
X18730571Y-12329467D01*
X18730571Y-12329467D02*
X18730571Y-12377086D01*
X18730571Y-12377086D02*
X18721048Y-12415181D01*
X18721048Y-12415181D02*
X18711524Y-12434228D01*
X18711524Y-12434228D02*
X18702000Y-12443752D01*
X18702000Y-12443752D02*
X18682952Y-12453276D01*
X18682952Y-12453276D02*
X18663905Y-12453276D01*
X18663905Y-12453276D02*
X18644857Y-12443752D01*
X18644857Y-12443752D02*
X18635333Y-12434228D01*
X18635333Y-12434228D02*
X18625810Y-12415181D01*
X18625810Y-12415181D02*
X18616286Y-12377086D01*
X18616286Y-12377086D02*
X18616286Y-12329467D01*
X18616286Y-12329467D02*
X18625810Y-12291371D01*
X18625810Y-12291371D02*
X18635333Y-12272324D01*
X18635333Y-12272324D02*
X18644857Y-12262800D01*
X18644857Y-12262800D02*
X18663905Y-12253276D01*
X18854381Y-12253276D02*
X18873429Y-12253276D01*
X18873429Y-12253276D02*
X18892476Y-12262800D01*
X18892476Y-12262800D02*
X18902000Y-12272324D01*
X18902000Y-12272324D02*
X18911524Y-12291371D01*
X18911524Y-12291371D02*
X18921048Y-12329467D01*
X18921048Y-12329467D02*
X18921048Y-12377086D01*
X18921048Y-12377086D02*
X18911524Y-12415181D01*
X18911524Y-12415181D02*
X18902000Y-12434228D01*
X18902000Y-12434228D02*
X18892476Y-12443752D01*
X18892476Y-12443752D02*
X18873429Y-12453276D01*
X18873429Y-12453276D02*
X18854381Y-12453276D01*
X18854381Y-12453276D02*
X18835333Y-12443752D01*
X18835333Y-12443752D02*
X18825810Y-12434228D01*
X18825810Y-12434228D02*
X18816286Y-12415181D01*
X18816286Y-12415181D02*
X18806762Y-12377086D01*
X18806762Y-12377086D02*
X18806762Y-12329467D01*
X18806762Y-12329467D02*
X18816286Y-12291371D01*
X18816286Y-12291371D02*
X18825810Y-12272324D01*
X18825810Y-12272324D02*
X18835333Y-12262800D01*
X18835333Y-12262800D02*
X18854381Y-12253276D01*
X19006762Y-12453276D02*
X19006762Y-12319943D01*
X19006762Y-12338990D02*
X19016286Y-12329467D01*
X19016286Y-12329467D02*
X19035333Y-12319943D01*
X19035333Y-12319943D02*
X19063905Y-12319943D01*
X19063905Y-12319943D02*
X19082952Y-12329467D01*
X19082952Y-12329467D02*
X19092476Y-12348514D01*
X19092476Y-12348514D02*
X19092476Y-12453276D01*
X19092476Y-12348514D02*
X19102000Y-12329467D01*
X19102000Y-12329467D02*
X19121048Y-12319943D01*
X19121048Y-12319943D02*
X19149619Y-12319943D01*
X19149619Y-12319943D02*
X19168667Y-12329467D01*
X19168667Y-12329467D02*
X19178191Y-12348514D01*
X19178191Y-12348514D02*
X19178191Y-12453276D01*
X19273429Y-12453276D02*
X19273429Y-12319943D01*
X19273429Y-12338990D02*
X19282952Y-12329467D01*
X19282952Y-12329467D02*
X19302000Y-12319943D01*
X19302000Y-12319943D02*
X19330572Y-12319943D01*
X19330572Y-12319943D02*
X19349619Y-12329467D01*
X19349619Y-12329467D02*
X19359143Y-12348514D01*
X19359143Y-12348514D02*
X19359143Y-12453276D01*
X19359143Y-12348514D02*
X19368667Y-12329467D01*
X19368667Y-12329467D02*
X19387714Y-12319943D01*
X19387714Y-12319943D02*
X19416286Y-12319943D01*
X19416286Y-12319943D02*
X19435333Y-12329467D01*
X19435333Y-12329467D02*
X19444857Y-12348514D01*
X19444857Y-12348514D02*
X19444857Y-12453276D01*
X19802952Y-12243752D02*
X19631524Y-12500895D01*
X20027714Y-12253276D02*
X20046762Y-12253276D01*
X20046762Y-12253276D02*
X20065810Y-12262800D01*
X20065810Y-12262800D02*
X20075333Y-12272324D01*
X20075333Y-12272324D02*
X20084857Y-12291371D01*
X20084857Y-12291371D02*
X20094381Y-12329467D01*
X20094381Y-12329467D02*
X20094381Y-12377086D01*
X20094381Y-12377086D02*
X20084857Y-12415181D01*
X20084857Y-12415181D02*
X20075333Y-12434228D01*
X20075333Y-12434228D02*
X20065810Y-12443752D01*
X20065810Y-12443752D02*
X20046762Y-12453276D01*
X20046762Y-12453276D02*
X20027714Y-12453276D01*
X20027714Y-12453276D02*
X20008667Y-12443752D01*
X20008667Y-12443752D02*
X19999143Y-12434228D01*
X19999143Y-12434228D02*
X19989619Y-12415181D01*
X19989619Y-12415181D02*
X19980095Y-12377086D01*
X19980095Y-12377086D02*
X19980095Y-12329467D01*
X19980095Y-12329467D02*
X19989619Y-12291371D01*
X19989619Y-12291371D02*
X19999143Y-12272324D01*
X19999143Y-12272324D02*
X20008667Y-12262800D01*
X20008667Y-12262800D02*
X20027714Y-12253276D01*
X20180095Y-12434228D02*
X20189619Y-12443752D01*
X20189619Y-12443752D02*
X20180095Y-12453276D01*
X20180095Y-12453276D02*
X20170572Y-12443752D01*
X20170572Y-12443752D02*
X20180095Y-12434228D01*
X20180095Y-12434228D02*
X20180095Y-12453276D01*
X20313429Y-12253276D02*
X20332476Y-12253276D01*
X20332476Y-12253276D02*
X20351524Y-12262800D01*
X20351524Y-12262800D02*
X20361048Y-12272324D01*
X20361048Y-12272324D02*
X20370572Y-12291371D01*
X20370572Y-12291371D02*
X20380095Y-12329467D01*
X20380095Y-12329467D02*
X20380095Y-12377086D01*
X20380095Y-12377086D02*
X20370572Y-12415181D01*
X20370572Y-12415181D02*
X20361048Y-12434228D01*
X20361048Y-12434228D02*
X20351524Y-12443752D01*
X20351524Y-12443752D02*
X20332476Y-12453276D01*
X20332476Y-12453276D02*
X20313429Y-12453276D01*
X20313429Y-12453276D02*
X20294381Y-12443752D01*
X20294381Y-12443752D02*
X20284857Y-12434228D01*
X20284857Y-12434228D02*
X20275333Y-12415181D01*
X20275333Y-12415181D02*
X20265810Y-12377086D01*
X20265810Y-12377086D02*
X20265810Y-12329467D01*
X20265810Y-12329467D02*
X20275333Y-12291371D01*
X20275333Y-12291371D02*
X20284857Y-12272324D01*
X20284857Y-12272324D02*
X20294381Y-12262800D01*
X20294381Y-12262800D02*
X20313429Y-12253276D01*
X20494381Y-12338990D02*
X20475333Y-12329467D01*
X20475333Y-12329467D02*
X20465810Y-12319943D01*
X20465810Y-12319943D02*
X20456286Y-12300895D01*
X20456286Y-12300895D02*
X20456286Y-12291371D01*
X20456286Y-12291371D02*
X20465810Y-12272324D01*
X20465810Y-12272324D02*
X20475333Y-12262800D01*
X20475333Y-12262800D02*
X20494381Y-12253276D01*
X20494381Y-12253276D02*
X20532476Y-12253276D01*
X20532476Y-12253276D02*
X20551524Y-12262800D01*
X20551524Y-12262800D02*
X20561048Y-12272324D01*
X20561048Y-12272324D02*
X20570572Y-12291371D01*
X20570572Y-12291371D02*
X20570572Y-12300895D01*
X20570572Y-12300895D02*
X20561048Y-12319943D01*
X20561048Y-12319943D02*
X20551524Y-12329467D01*
X20551524Y-12329467D02*
X20532476Y-12338990D01*
X20532476Y-12338990D02*
X20494381Y-12338990D01*
X20494381Y-12338990D02*
X20475333Y-12348514D01*
X20475333Y-12348514D02*
X20465810Y-12358038D01*
X20465810Y-12358038D02*
X20456286Y-12377086D01*
X20456286Y-12377086D02*
X20456286Y-12415181D01*
X20456286Y-12415181D02*
X20465810Y-12434228D01*
X20465810Y-12434228D02*
X20475333Y-12443752D01*
X20475333Y-12443752D02*
X20494381Y-12453276D01*
X20494381Y-12453276D02*
X20532476Y-12453276D01*
X20532476Y-12453276D02*
X20551524Y-12443752D01*
X20551524Y-12443752D02*
X20561048Y-12434228D01*
X20561048Y-12434228D02*
X20570572Y-12415181D01*
X20570572Y-12415181D02*
X20570572Y-12377086D01*
X20570572Y-12377086D02*
X20561048Y-12358038D01*
X20561048Y-12358038D02*
X20551524Y-12348514D01*
X20551524Y-12348514D02*
X20532476Y-12338990D01*
X20742000Y-12253276D02*
X20703905Y-12253276D01*
X20703905Y-12253276D02*
X20684857Y-12262800D01*
X20684857Y-12262800D02*
X20675333Y-12272324D01*
X20675333Y-12272324D02*
X20656286Y-12300895D01*
X20656286Y-12300895D02*
X20646762Y-12338990D01*
X20646762Y-12338990D02*
X20646762Y-12415181D01*
X20646762Y-12415181D02*
X20656286Y-12434228D01*
X20656286Y-12434228D02*
X20665810Y-12443752D01*
X20665810Y-12443752D02*
X20684857Y-12453276D01*
X20684857Y-12453276D02*
X20722953Y-12453276D01*
X20722953Y-12453276D02*
X20742000Y-12443752D01*
X20742000Y-12443752D02*
X20751524Y-12434228D01*
X20751524Y-12434228D02*
X20761048Y-12415181D01*
X20761048Y-12415181D02*
X20761048Y-12367562D01*
X20761048Y-12367562D02*
X20751524Y-12348514D01*
X20751524Y-12348514D02*
X20742000Y-12338990D01*
X20742000Y-12338990D02*
X20722953Y-12329467D01*
X20722953Y-12329467D02*
X20684857Y-12329467D01*
X20684857Y-12329467D02*
X20665810Y-12338990D01*
X20665810Y-12338990D02*
X20656286Y-12348514D01*
X20656286Y-12348514D02*
X20646762Y-12367562D01*
X20932476Y-12253276D02*
X20894381Y-12253276D01*
X20894381Y-12253276D02*
X20875333Y-12262800D01*
X20875333Y-12262800D02*
X20865810Y-12272324D01*
X20865810Y-12272324D02*
X20846762Y-12300895D01*
X20846762Y-12300895D02*
X20837238Y-12338990D01*
X20837238Y-12338990D02*
X20837238Y-12415181D01*
X20837238Y-12415181D02*
X20846762Y-12434228D01*
X20846762Y-12434228D02*
X20856286Y-12443752D01*
X20856286Y-12443752D02*
X20875333Y-12453276D01*
X20875333Y-12453276D02*
X20913429Y-12453276D01*
X20913429Y-12453276D02*
X20932476Y-12443752D01*
X20932476Y-12443752D02*
X20942000Y-12434228D01*
X20942000Y-12434228D02*
X20951524Y-12415181D01*
X20951524Y-12415181D02*
X20951524Y-12367562D01*
X20951524Y-12367562D02*
X20942000Y-12348514D01*
X20942000Y-12348514D02*
X20932476Y-12338990D01*
X20932476Y-12338990D02*
X20913429Y-12329467D01*
X20913429Y-12329467D02*
X20875333Y-12329467D01*
X20875333Y-12329467D02*
X20856286Y-12338990D01*
X20856286Y-12338990D02*
X20846762Y-12348514D01*
X20846762Y-12348514D02*
X20837238Y-12367562D01*
X21027714Y-12253276D02*
X21027714Y-12291371D01*
X21103905Y-12253276D02*
X21103905Y-12291371D01*
X21366762Y-12529467D02*
X21357238Y-12519943D01*
X21357238Y-12519943D02*
X21338191Y-12491371D01*
X21338191Y-12491371D02*
X21328667Y-12472324D01*
X21328667Y-12472324D02*
X21319143Y-12443752D01*
X21319143Y-12443752D02*
X21309619Y-12396133D01*
X21309619Y-12396133D02*
X21309619Y-12358038D01*
X21309619Y-12358038D02*
X21319143Y-12310419D01*
X21319143Y-12310419D02*
X21328667Y-12281848D01*
X21328667Y-12281848D02*
X21338191Y-12262800D01*
X21338191Y-12262800D02*
X21357238Y-12234228D01*
X21357238Y-12234228D02*
X21366762Y-12224705D01*
X21528667Y-12319943D02*
X21528667Y-12453276D01*
X21481048Y-12243752D02*
X21433429Y-12386609D01*
X21433429Y-12386609D02*
X21557238Y-12386609D01*
X21753429Y-12453276D02*
X21753429Y-12253276D01*
X21839143Y-12453276D02*
X21839143Y-12348514D01*
X21839143Y-12348514D02*
X21829619Y-12329467D01*
X21829619Y-12329467D02*
X21810572Y-12319943D01*
X21810572Y-12319943D02*
X21782000Y-12319943D01*
X21782000Y-12319943D02*
X21762953Y-12329467D01*
X21762953Y-12329467D02*
X21753429Y-12338990D01*
X21962953Y-12453276D02*
X21943905Y-12443752D01*
X21943905Y-12443752D02*
X21934381Y-12434228D01*
X21934381Y-12434228D02*
X21924857Y-12415181D01*
X21924857Y-12415181D02*
X21924857Y-12358038D01*
X21924857Y-12358038D02*
X21934381Y-12338990D01*
X21934381Y-12338990D02*
X21943905Y-12329467D01*
X21943905Y-12329467D02*
X21962953Y-12319943D01*
X21962953Y-12319943D02*
X21991524Y-12319943D01*
X21991524Y-12319943D02*
X22010572Y-12329467D01*
X22010572Y-12329467D02*
X22020095Y-12338990D01*
X22020095Y-12338990D02*
X22029619Y-12358038D01*
X22029619Y-12358038D02*
X22029619Y-12415181D01*
X22029619Y-12415181D02*
X22020095Y-12434228D01*
X22020095Y-12434228D02*
X22010572Y-12443752D01*
X22010572Y-12443752D02*
X21991524Y-12453276D01*
X21991524Y-12453276D02*
X21962953Y-12453276D01*
X22143905Y-12453276D02*
X22124857Y-12443752D01*
X22124857Y-12443752D02*
X22115334Y-12424705D01*
X22115334Y-12424705D02*
X22115334Y-12253276D01*
X22296286Y-12443752D02*
X22277238Y-12453276D01*
X22277238Y-12453276D02*
X22239143Y-12453276D01*
X22239143Y-12453276D02*
X22220095Y-12443752D01*
X22220095Y-12443752D02*
X22210572Y-12424705D01*
X22210572Y-12424705D02*
X22210572Y-12348514D01*
X22210572Y-12348514D02*
X22220095Y-12329467D01*
X22220095Y-12329467D02*
X22239143Y-12319943D01*
X22239143Y-12319943D02*
X22277238Y-12319943D01*
X22277238Y-12319943D02*
X22296286Y-12329467D01*
X22296286Y-12329467D02*
X22305810Y-12348514D01*
X22305810Y-12348514D02*
X22305810Y-12367562D01*
X22305810Y-12367562D02*
X22210572Y-12386609D01*
X22382000Y-12443752D02*
X22401048Y-12453276D01*
X22401048Y-12453276D02*
X22439143Y-12453276D01*
X22439143Y-12453276D02*
X22458191Y-12443752D01*
X22458191Y-12443752D02*
X22467714Y-12424705D01*
X22467714Y-12424705D02*
X22467714Y-12415181D01*
X22467714Y-12415181D02*
X22458191Y-12396133D01*
X22458191Y-12396133D02*
X22439143Y-12386609D01*
X22439143Y-12386609D02*
X22410572Y-12386609D01*
X22410572Y-12386609D02*
X22391524Y-12377086D01*
X22391524Y-12377086D02*
X22382000Y-12358038D01*
X22382000Y-12358038D02*
X22382000Y-12348514D01*
X22382000Y-12348514D02*
X22391524Y-12329467D01*
X22391524Y-12329467D02*
X22410572Y-12319943D01*
X22410572Y-12319943D02*
X22439143Y-12319943D01*
X22439143Y-12319943D02*
X22458191Y-12329467D01*
X22534381Y-12529467D02*
X22543905Y-12519943D01*
X22543905Y-12519943D02*
X22562953Y-12491371D01*
X22562953Y-12491371D02*
X22572476Y-12472324D01*
X22572476Y-12472324D02*
X22582000Y-12443752D01*
X22582000Y-12443752D02*
X22591524Y-12396133D01*
X22591524Y-12396133D02*
X22591524Y-12358038D01*
X22591524Y-12358038D02*
X22582000Y-12310419D01*
X22582000Y-12310419D02*
X22572476Y-12281848D01*
X22572476Y-12281848D02*
X22562953Y-12262800D01*
X22562953Y-12262800D02*
X22543905Y-12234228D01*
X22543905Y-12234228D02*
X22534381Y-12224705D01*
X22863905Y-12529467D02*
X22854381Y-12519943D01*
X22854381Y-12519943D02*
X22835333Y-12491371D01*
X22835333Y-12491371D02*
X22825810Y-12472324D01*
X22825810Y-12472324D02*
X22816286Y-12443752D01*
X22816286Y-12443752D02*
X22806762Y-12396133D01*
X22806762Y-12396133D02*
X22806762Y-12358038D01*
X22806762Y-12358038D02*
X22816286Y-12310419D01*
X22816286Y-12310419D02*
X22825810Y-12281848D01*
X22825810Y-12281848D02*
X22835333Y-12262800D01*
X22835333Y-12262800D02*
X22854381Y-12234228D01*
X22854381Y-12234228D02*
X22863905Y-12224705D01*
X22940095Y-12319943D02*
X22940095Y-12453276D01*
X22940095Y-12338990D02*
X22949619Y-12329467D01*
X22949619Y-12329467D02*
X22968667Y-12319943D01*
X22968667Y-12319943D02*
X22997238Y-12319943D01*
X22997238Y-12319943D02*
X23016286Y-12329467D01*
X23016286Y-12329467D02*
X23025810Y-12348514D01*
X23025810Y-12348514D02*
X23025810Y-12453276D01*
X23149619Y-12453276D02*
X23130572Y-12443752D01*
X23130572Y-12443752D02*
X23121048Y-12434228D01*
X23121048Y-12434228D02*
X23111524Y-12415181D01*
X23111524Y-12415181D02*
X23111524Y-12358038D01*
X23111524Y-12358038D02*
X23121048Y-12338990D01*
X23121048Y-12338990D02*
X23130572Y-12329467D01*
X23130572Y-12329467D02*
X23149619Y-12319943D01*
X23149619Y-12319943D02*
X23178191Y-12319943D01*
X23178191Y-12319943D02*
X23197238Y-12329467D01*
X23197238Y-12329467D02*
X23206762Y-12338990D01*
X23206762Y-12338990D02*
X23216286Y-12358038D01*
X23216286Y-12358038D02*
X23216286Y-12415181D01*
X23216286Y-12415181D02*
X23206762Y-12434228D01*
X23206762Y-12434228D02*
X23197238Y-12443752D01*
X23197238Y-12443752D02*
X23178191Y-12453276D01*
X23178191Y-12453276D02*
X23149619Y-12453276D01*
X23273429Y-12319943D02*
X23349619Y-12319943D01*
X23302000Y-12253276D02*
X23302000Y-12424705D01*
X23302000Y-12424705D02*
X23311524Y-12443752D01*
X23311524Y-12443752D02*
X23330572Y-12453276D01*
X23330572Y-12453276D02*
X23349619Y-12453276D01*
X23536286Y-12319943D02*
X23536286Y-12519943D01*
X23536286Y-12329467D02*
X23555333Y-12319943D01*
X23555333Y-12319943D02*
X23593429Y-12319943D01*
X23593429Y-12319943D02*
X23612476Y-12329467D01*
X23612476Y-12329467D02*
X23622000Y-12338990D01*
X23622000Y-12338990D02*
X23631524Y-12358038D01*
X23631524Y-12358038D02*
X23631524Y-12415181D01*
X23631524Y-12415181D02*
X23622000Y-12434228D01*
X23622000Y-12434228D02*
X23612476Y-12443752D01*
X23612476Y-12443752D02*
X23593429Y-12453276D01*
X23593429Y-12453276D02*
X23555333Y-12453276D01*
X23555333Y-12453276D02*
X23536286Y-12443752D01*
X23745810Y-12453276D02*
X23726762Y-12443752D01*
X23726762Y-12443752D02*
X23717238Y-12424705D01*
X23717238Y-12424705D02*
X23717238Y-12253276D01*
X23907714Y-12453276D02*
X23907714Y-12348514D01*
X23907714Y-12348514D02*
X23898191Y-12329467D01*
X23898191Y-12329467D02*
X23879143Y-12319943D01*
X23879143Y-12319943D02*
X23841048Y-12319943D01*
X23841048Y-12319943D02*
X23822000Y-12329467D01*
X23907714Y-12443752D02*
X23888667Y-12453276D01*
X23888667Y-12453276D02*
X23841048Y-12453276D01*
X23841048Y-12453276D02*
X23822000Y-12443752D01*
X23822000Y-12443752D02*
X23812476Y-12424705D01*
X23812476Y-12424705D02*
X23812476Y-12405657D01*
X23812476Y-12405657D02*
X23822000Y-12386609D01*
X23822000Y-12386609D02*
X23841048Y-12377086D01*
X23841048Y-12377086D02*
X23888667Y-12377086D01*
X23888667Y-12377086D02*
X23907714Y-12367562D01*
X23974381Y-12319943D02*
X24050572Y-12319943D01*
X24002953Y-12253276D02*
X24002953Y-12424705D01*
X24002953Y-12424705D02*
X24012476Y-12443752D01*
X24012476Y-12443752D02*
X24031524Y-12453276D01*
X24031524Y-12453276D02*
X24050572Y-12453276D01*
X24193429Y-12443752D02*
X24174381Y-12453276D01*
X24174381Y-12453276D02*
X24136286Y-12453276D01*
X24136286Y-12453276D02*
X24117238Y-12443752D01*
X24117238Y-12443752D02*
X24107714Y-12424705D01*
X24107714Y-12424705D02*
X24107714Y-12348514D01*
X24107714Y-12348514D02*
X24117238Y-12329467D01*
X24117238Y-12329467D02*
X24136286Y-12319943D01*
X24136286Y-12319943D02*
X24174381Y-12319943D01*
X24174381Y-12319943D02*
X24193429Y-12329467D01*
X24193429Y-12329467D02*
X24202953Y-12348514D01*
X24202953Y-12348514D02*
X24202953Y-12367562D01*
X24202953Y-12367562D02*
X24107714Y-12386609D01*
X24374381Y-12453276D02*
X24374381Y-12253276D01*
X24374381Y-12443752D02*
X24355334Y-12453276D01*
X24355334Y-12453276D02*
X24317238Y-12453276D01*
X24317238Y-12453276D02*
X24298191Y-12443752D01*
X24298191Y-12443752D02*
X24288667Y-12434228D01*
X24288667Y-12434228D02*
X24279143Y-12415181D01*
X24279143Y-12415181D02*
X24279143Y-12358038D01*
X24279143Y-12358038D02*
X24288667Y-12338990D01*
X24288667Y-12338990D02*
X24298191Y-12329467D01*
X24298191Y-12329467D02*
X24317238Y-12319943D01*
X24317238Y-12319943D02*
X24355334Y-12319943D01*
X24355334Y-12319943D02*
X24374381Y-12329467D01*
X24450572Y-12529467D02*
X24460095Y-12519943D01*
X24460095Y-12519943D02*
X24479143Y-12491371D01*
X24479143Y-12491371D02*
X24488667Y-12472324D01*
X24488667Y-12472324D02*
X24498191Y-12443752D01*
X24498191Y-12443752D02*
X24507714Y-12396133D01*
X24507714Y-12396133D02*
X24507714Y-12358038D01*
X24507714Y-12358038D02*
X24498191Y-12310419D01*
X24498191Y-12310419D02*
X24488667Y-12281848D01*
X24488667Y-12281848D02*
X24479143Y-12262800D01*
X24479143Y-12262800D02*
X24460095Y-12234228D01*
X24460095Y-12234228D02*
X24450572Y-12224705D01*
M02*
