M48
; DRILL file {KiCad (7.99.0-200-gad838e3d73)} date Thu Mar  7 11:34:15 2024
; FORMAT={-:-/ absolute / inch / decimal}
; #@! TF.CreationDate,2024-03-07T11:34:15+07:00
; #@! TF.GenerationSoftware,Kicad,Pcbnew,(7.99.0-200-gad838e3d73)
; #@! TF.FileFunction,Plated,1,2,PTH
FMAT,2
INCH
; #@! TA.AperFunction,Plated,PTH,ViaDrill
T1C0.0157
; #@! TA.AperFunction,Plated,PTH,ComponentDrill
T2C0.0295
; #@! TA.AperFunction,Plated,PTH,ComponentDrill
T3C0.0354
; #@! TA.AperFunction,Plated,PTH,ComponentDrill
T4C0.0394
; #@! TA.AperFunction,Plated,PTH,ComponentDrill
T5C0.0472
; #@! TA.AperFunction,Plated,PTH,ComponentDrill
T6C0.0492
; #@! TA.AperFunction,Plated,PTH,ComponentDrill
T7C0.0606
; #@! TA.AperFunction,Plated,PTH,ComponentDrill
T8C0.0787
%
G90
G05
T1
X2.2047Y-4.3504
X2.2343Y-4.8327
X2.2441Y-3.9567
X2.45Y-4.1
X2.48Y-4.85
X2.53Y-5.65
X2.6083Y-2.5098
X2.6575Y-3.6319
X2.6969Y-3.6909
X2.6969Y-4.0256
X2.7165Y-4.1634
X2.7559Y-3.376
X2.77Y-5.88
X2.7953Y-5.7874
T2
X2.28Y-2.6963
X2.28Y-2.775
X2.3588Y-2.6963
X2.3588Y-2.775
X2.4375Y-2.6963
X2.4375Y-2.775
X2.5163Y-2.6963
X2.5163Y-2.775
X2.595Y-2.6963
X2.595Y-2.775
X2.6737Y-2.6963
X2.6737Y-2.775
T3
X2.5787Y-6.7618
X2.5787Y-6.8602
X2.7362Y-6.7618
X2.7362Y-6.8602
X2.8937Y-6.7618
X2.8937Y-6.8602
T4
X1.74Y-3.79
X1.74Y-3.89
X1.74Y-3.99
X1.74Y-4.09
X1.74Y-4.19
X1.74Y-4.29
X1.74Y-4.39
X1.74Y-4.49
X1.74Y-4.59
X1.74Y-4.69
X1.74Y-4.79
X1.74Y-4.89
X1.74Y-4.99
X1.74Y-5.09
X1.74Y-5.19
X1.74Y-5.29
X1.74Y-5.39
X1.74Y-5.49
X1.8799Y-2.5823
X1.8799Y-2.6823
X1.8799Y-2.7823
X1.8799Y-2.8823
X1.8799Y-2.9823
X1.8799Y-3.0823
X1.8799Y-3.1823
X1.8799Y-3.2823
X1.8799Y-3.3823
X1.8799Y-3.4823
X1.8799Y-3.5823
X1.8799Y-3.6823
X1.8799Y-3.7823
X1.8799Y-3.8823
X1.8799Y-3.9823
X1.8799Y-4.0823
X1.8799Y-4.1823
X1.8799Y-4.2823
X1.8799Y-4.3823
X1.8799Y-4.4823
X1.8799Y-4.5823
X1.8799Y-4.6823
X1.8799Y-4.7823
X1.8799Y-4.8823
X1.8799Y-4.9823
X1.8799Y-5.0823
X1.8799Y-5.1823
X1.8799Y-5.2823
X1.8799Y-5.3823
X1.8799Y-5.4823
X1.8799Y-5.5823
X1.8799Y-5.6823
X1.8799Y-5.7823
X1.8799Y-5.8823
X1.8799Y-5.9823
X1.8799Y-6.0823
X1.8799Y-6.1823
X1.8799Y-6.2823
X1.8799Y-6.3823
X1.8799Y-6.4823
X2.0324Y-2.5815
X2.0324Y-2.6815
X2.0324Y-2.7815
X2.0324Y-2.8815
X2.0324Y-2.9815
X2.0324Y-3.0815
X2.0324Y-3.1815
X2.0324Y-3.2815
X2.0324Y-3.3815
X2.0324Y-3.4815
X2.0324Y-3.5815
X2.0324Y-3.6815
X2.0324Y-3.7815
X2.0324Y-3.8815
X2.0324Y-3.9815
X2.0324Y-4.0815
X2.0324Y-4.1815
X2.0324Y-4.2815
X2.0324Y-4.3815
X2.0324Y-4.4815
X2.0324Y-4.5815
X2.0324Y-4.6815
X2.0324Y-4.7815
X2.0324Y-4.8815
X2.0324Y-4.9815
X2.0324Y-5.0815
X2.0324Y-5.1815
X2.0324Y-5.2815
X2.0324Y-5.3815
X2.0324Y-5.4815
X2.0324Y-5.5815
X2.0324Y-5.6815
X2.0324Y-5.7815
X2.0324Y-5.8815
X2.0324Y-5.9815
X2.0324Y-6.0815
X2.0324Y-6.1815
X2.0324Y-6.2815
X2.0324Y-6.3815
X2.0324Y-6.4815
X2.0324Y-6.6815
X2.0324Y-6.7815
X2.0324Y-6.8815
X2.4606Y-5.7677
X2.5591Y-5.7677
X2.9324Y-2.5815
X2.9324Y-2.6815
X2.9324Y-2.7815
X2.9324Y-2.8815
X2.9324Y-2.9815
X2.9324Y-3.0815
X2.9324Y-3.1815
X2.9324Y-3.2815
X2.9324Y-3.3815
X2.9324Y-3.4815
X2.9324Y-3.5815
X2.9324Y-3.6815
X2.9324Y-3.7815
X2.9324Y-3.8815
X2.9324Y-3.9815
X2.9324Y-4.0815
X2.9324Y-4.1815
X2.9324Y-4.2815
X2.9324Y-4.3815
X2.9324Y-4.4815
X2.9324Y-4.5815
X2.9324Y-4.6815
X2.9324Y-4.7815
X2.9324Y-4.8815
X2.9324Y-4.9815
X2.9324Y-5.0815
X2.9324Y-5.1815
X2.9324Y-5.2815
X2.9324Y-5.3815
X2.9324Y-5.4815
X2.9324Y-5.5815
X2.9324Y-5.6815
X2.9324Y-5.7815
X2.9324Y-5.8815
X2.9324Y-5.9815
X2.9324Y-6.0815
X2.9324Y-6.1815
X2.9324Y-6.2815
X2.9324Y-6.3815
X2.9324Y-6.4815
X3.0906Y-2.5756
X3.0906Y-2.6756
X3.0906Y-2.7756
X3.0906Y-2.8756
X3.0906Y-2.9756
X3.0906Y-3.0756
X3.0906Y-3.1756
X3.0906Y-3.2756
X3.0906Y-3.3756
X3.0906Y-3.4756
X3.0906Y-3.5756
X3.0906Y-3.6756
X3.0906Y-3.7756
X3.0906Y-3.8756
X3.0906Y-3.9756
X3.0906Y-4.0756
X3.0906Y-4.1756
X3.0906Y-4.2756
X3.0906Y-4.3756
X3.0906Y-4.4756
X3.0906Y-4.5756
X3.0906Y-4.6756
X3.0906Y-4.7756
X3.0906Y-4.8756
X3.0906Y-4.9756
X3.0906Y-5.0756
X3.0906Y-5.1756
X3.0906Y-5.2756
X3.0906Y-5.3756
X3.0906Y-5.4756
X3.0906Y-5.5756
X3.0906Y-5.6756
X3.0906Y-5.7756
X3.0906Y-5.8756
X3.0906Y-5.9756
X3.0906Y-6.0756
X3.0906Y-6.1756
X3.0906Y-6.2756
X3.0906Y-6.3756
X3.0906Y-6.4756
T5
X2.5Y-6.6929
X2.5Y-6.9291
X2.9724Y-6.6929
X2.9724Y-6.9291
T6
X2.367Y-3.1038
X2.367Y-4.3243
X2.621Y-3.1038
X2.623Y-4.3243
T7
X2.2069Y-4.5619
X2.2069Y-5.4635
X2.3447Y-5.4635
X2.6439Y-5.4635
X2.766Y-4.5619
X2.7778Y-5.4635
T8
X0.8987Y-1.5113
X0.8987Y-1.7082
X0.8987Y-2.0513
X0.8987Y-2.2482
X2.8787Y-1.7913
X2.8787Y-1.9882
T0
M30
