%TF.GenerationSoftware,KiCad,Pcbnew,(7.99.0-200-gad838e3d73)*%
%TF.CreationDate,2024-03-07T11:34:17+07:00*%
%TF.ProjectId,WMS_PCB1,574d535f-5043-4423-912e-6b696361645f,rev?*%
%TF.SameCoordinates,Original*%
%TF.FileFunction,Drillmap*%
%TF.FilePolarity,Positive*%
%FSLAX45Y45*%
G04 Gerber Fmt 4.5, Leading zero omitted, Abs format (unit mm)*
G04 Created by KiCad (PCBNEW (7.99.0-200-gad838e3d73)) date 2024-03-07 11:34:17*
%MOMM*%
%LPD*%
G01*
G04 APERTURE LIST*
%ADD10C,0.100000*%
%ADD11C,0.200000*%
%ADD12C,0.040000*%
%ADD13C,0.075000*%
%ADD14C,0.090000*%
%ADD15C,0.120000*%
%ADD16C,0.125000*%
%ADD17C,0.154000*%
G04 APERTURE END LIST*
D10*
X3810000Y-14579600D02*
X3810000Y-8686800D01*
X1549400Y-3124200D02*
X1676400Y-3124200D01*
X8178800Y-16840200D02*
X7721600Y-17297400D01*
X3810000Y-8686800D02*
X4191000Y-8305800D01*
X1549400Y-6553200D02*
X1549400Y-3124200D01*
X6273800Y-17805400D02*
X7569200Y-17805400D01*
X8178800Y-3124200D02*
X8178800Y-16840200D01*
X4191000Y-7264400D02*
X3479800Y-6553200D01*
X4191000Y-8305800D02*
X4191000Y-7264400D01*
X7569200Y-17805400D02*
X7721600Y-17805400D01*
X4140200Y-14909800D02*
X3810000Y-14579600D01*
X1676400Y-3124200D02*
X8178800Y-3124200D01*
X4826000Y-17805400D02*
X6273800Y-17805400D01*
X7721600Y-17297400D02*
X7721600Y-17805400D01*
X3479800Y-6553200D02*
X1549400Y-6553200D01*
X4826000Y-17805400D02*
X4140200Y-17119600D01*
X4140200Y-17119600D02*
X4140200Y-14909800D01*
D11*
D12*
X5580000Y-11030000D02*
X5620000Y-11070000D01*
X5620000Y-11030000D02*
X5580000Y-11070000D01*
X5655000Y-12255000D02*
X5695000Y-12295000D01*
X5695000Y-12255000D02*
X5655000Y-12295000D01*
X5680000Y-10030000D02*
X5720000Y-10070000D01*
X5720000Y-10030000D02*
X5680000Y-10070000D01*
X6203000Y-10394000D02*
X6243000Y-10434000D01*
X6243000Y-10394000D02*
X6203000Y-10434000D01*
X6279200Y-12299000D02*
X6319200Y-12339000D01*
X6319200Y-12299000D02*
X6279200Y-12339000D01*
X6406200Y-14331000D02*
X6446200Y-14371000D01*
X6446200Y-14331000D02*
X6406200Y-14371000D01*
X6605000Y-6355000D02*
X6645000Y-6395000D01*
X6645000Y-6355000D02*
X6605000Y-6395000D01*
X6730000Y-9205000D02*
X6770000Y-9245000D01*
X6770000Y-9205000D02*
X6730000Y-9245000D01*
X6830000Y-9355000D02*
X6870000Y-9395000D01*
X6870000Y-9355000D02*
X6830000Y-9395000D01*
X6830000Y-10205000D02*
X6870000Y-10245000D01*
X6870000Y-10205000D02*
X6830000Y-10245000D01*
X6880000Y-10555000D02*
X6920000Y-10595000D01*
X6920000Y-10555000D02*
X6880000Y-10595000D01*
X6980000Y-8555000D02*
X7020000Y-8595000D01*
X7020000Y-8555000D02*
X6980000Y-8595000D01*
X7015800Y-14915200D02*
X7055800Y-14955200D01*
X7055800Y-14915200D02*
X7015800Y-14955200D01*
X7080000Y-14680000D02*
X7120000Y-14720000D01*
X7120000Y-14680000D02*
X7080000Y-14720000D01*
D13*
X5828800Y-6848500D02*
G75*
G03*
X5828800Y-6848500I-37500J0D01*
G01*
X5828800Y-7048500D02*
G75*
G03*
X5828800Y-7048500I-37500J0D01*
G01*
X6028800Y-6848500D02*
G75*
G03*
X6028800Y-6848500I-37500J0D01*
G01*
X6028800Y-7048500D02*
G75*
G03*
X6028800Y-7048500I-37500J0D01*
G01*
X6228800Y-6848500D02*
G75*
G03*
X6228800Y-6848500I-37500J0D01*
G01*
X6228800Y-7048500D02*
G75*
G03*
X6228800Y-7048500I-37500J0D01*
G01*
X6428800Y-6848500D02*
G75*
G03*
X6428800Y-6848500I-37500J0D01*
G01*
X6428800Y-7048500D02*
G75*
G03*
X6428800Y-7048500I-37500J0D01*
G01*
X6628800Y-6848500D02*
G75*
G03*
X6628800Y-6848500I-37500J0D01*
G01*
X6628800Y-7048500D02*
G75*
G03*
X6628800Y-7048500I-37500J0D01*
G01*
X6828800Y-6848500D02*
G75*
G03*
X6828800Y-6848500I-37500J0D01*
G01*
X6828800Y-7048500D02*
G75*
G03*
X6828800Y-7048500I-37500J0D01*
G01*
D14*
X6550000Y-17130000D02*
X6550000Y-17220000D01*
X6505000Y-17175000D02*
X6595000Y-17175000D01*
X6550000Y-17380000D02*
X6550000Y-17470000D01*
X6505000Y-17425000D02*
X6595000Y-17425000D01*
X6950000Y-17130000D02*
X6950000Y-17220000D01*
X6905000Y-17175000D02*
X6995000Y-17175000D01*
X6950000Y-17380000D02*
X6950000Y-17470000D01*
X6905000Y-17425000D02*
X6995000Y-17425000D01*
X7350000Y-17130000D02*
X7350000Y-17220000D01*
X7305000Y-17175000D02*
X7395000Y-17175000D01*
X7350000Y-17380000D02*
X7350000Y-17470000D01*
X7305000Y-17425000D02*
X7395000Y-17425000D01*
D10*
X4454956Y-9661956D02*
X4454956Y-9591244D01*
X4384244Y-9591244D01*
X4384244Y-9661956D01*
X4454956Y-9661956D01*
X4454956Y-9915956D02*
X4454956Y-9845244D01*
X4384244Y-9845244D01*
X4384244Y-9915956D01*
X4454956Y-9915956D01*
X4454956Y-10169956D02*
X4454956Y-10099244D01*
X4384244Y-10099244D01*
X4384244Y-10169956D01*
X4454956Y-10169956D01*
X4454956Y-10423956D02*
X4454956Y-10353244D01*
X4384244Y-10353244D01*
X4384244Y-10423956D01*
X4454956Y-10423956D01*
X4454956Y-10677956D02*
X4454956Y-10607244D01*
X4384244Y-10607244D01*
X4384244Y-10677956D01*
X4454956Y-10677956D01*
X4454956Y-10931956D02*
X4454956Y-10861244D01*
X4384244Y-10861244D01*
X4384244Y-10931956D01*
X4454956Y-10931956D01*
X4454956Y-11185956D02*
X4454956Y-11115244D01*
X4384244Y-11115244D01*
X4384244Y-11185956D01*
X4454956Y-11185956D01*
X4454956Y-11439956D02*
X4454956Y-11369244D01*
X4384244Y-11369244D01*
X4384244Y-11439956D01*
X4454956Y-11439956D01*
X4454956Y-11693956D02*
X4454956Y-11623244D01*
X4384244Y-11623244D01*
X4384244Y-11693956D01*
X4454956Y-11693956D01*
X4454956Y-11947956D02*
X4454956Y-11877244D01*
X4384244Y-11877244D01*
X4384244Y-11947956D01*
X4454956Y-11947956D01*
X4454956Y-12201956D02*
X4454956Y-12131244D01*
X4384244Y-12131244D01*
X4384244Y-12201956D01*
X4454956Y-12201956D01*
X4454956Y-12455956D02*
X4454956Y-12385244D01*
X4384244Y-12385244D01*
X4384244Y-12455956D01*
X4454956Y-12455956D01*
X4454956Y-12709956D02*
X4454956Y-12639244D01*
X4384244Y-12639244D01*
X4384244Y-12709956D01*
X4454956Y-12709956D01*
X4454956Y-12963956D02*
X4454956Y-12893244D01*
X4384244Y-12893244D01*
X4384244Y-12963956D01*
X4454956Y-12963956D01*
X4454956Y-13217956D02*
X4454956Y-13147244D01*
X4384244Y-13147244D01*
X4384244Y-13217956D01*
X4454956Y-13217956D01*
X4454956Y-13471956D02*
X4454956Y-13401244D01*
X4384244Y-13401244D01*
X4384244Y-13471956D01*
X4454956Y-13471956D01*
X4454956Y-13725956D02*
X4454956Y-13655244D01*
X4384244Y-13655244D01*
X4384244Y-13725956D01*
X4454956Y-13725956D01*
X4454956Y-13979956D02*
X4454956Y-13909244D01*
X4384244Y-13909244D01*
X4384244Y-13979956D01*
X4454956Y-13979956D01*
X4810356Y-6594356D02*
X4810356Y-6523644D01*
X4739644Y-6523644D01*
X4739644Y-6594356D01*
X4810356Y-6594356D01*
X4810356Y-6848356D02*
X4810356Y-6777644D01*
X4739644Y-6777644D01*
X4739644Y-6848356D01*
X4810356Y-6848356D01*
X4810356Y-7102356D02*
X4810356Y-7031644D01*
X4739644Y-7031644D01*
X4739644Y-7102356D01*
X4810356Y-7102356D01*
X4810356Y-7356356D02*
X4810356Y-7285644D01*
X4739644Y-7285644D01*
X4739644Y-7356356D01*
X4810356Y-7356356D01*
X4810356Y-7610356D02*
X4810356Y-7539644D01*
X4739644Y-7539644D01*
X4739644Y-7610356D01*
X4810356Y-7610356D01*
X4810356Y-7864356D02*
X4810356Y-7793644D01*
X4739644Y-7793644D01*
X4739644Y-7864356D01*
X4810356Y-7864356D01*
X4810356Y-8118356D02*
X4810356Y-8047644D01*
X4739644Y-8047644D01*
X4739644Y-8118356D01*
X4810356Y-8118356D01*
X4810356Y-8372356D02*
X4810356Y-8301644D01*
X4739644Y-8301644D01*
X4739644Y-8372356D01*
X4810356Y-8372356D01*
X4810356Y-8626356D02*
X4810356Y-8555644D01*
X4739644Y-8555644D01*
X4739644Y-8626356D01*
X4810356Y-8626356D01*
X4810356Y-8880356D02*
X4810356Y-8809644D01*
X4739644Y-8809644D01*
X4739644Y-8880356D01*
X4810356Y-8880356D01*
X4810356Y-9134356D02*
X4810356Y-9063644D01*
X4739644Y-9063644D01*
X4739644Y-9134356D01*
X4810356Y-9134356D01*
X4810356Y-9388356D02*
X4810356Y-9317644D01*
X4739644Y-9317644D01*
X4739644Y-9388356D01*
X4810356Y-9388356D01*
X4810356Y-9642356D02*
X4810356Y-9571644D01*
X4739644Y-9571644D01*
X4739644Y-9642356D01*
X4810356Y-9642356D01*
X4810356Y-9896356D02*
X4810356Y-9825644D01*
X4739644Y-9825644D01*
X4739644Y-9896356D01*
X4810356Y-9896356D01*
X4810356Y-10150356D02*
X4810356Y-10079644D01*
X4739644Y-10079644D01*
X4739644Y-10150356D01*
X4810356Y-10150356D01*
X4810356Y-10404356D02*
X4810356Y-10333644D01*
X4739644Y-10333644D01*
X4739644Y-10404356D01*
X4810356Y-10404356D01*
X4810356Y-10658356D02*
X4810356Y-10587644D01*
X4739644Y-10587644D01*
X4739644Y-10658356D01*
X4810356Y-10658356D01*
X4810356Y-10912356D02*
X4810356Y-10841644D01*
X4739644Y-10841644D01*
X4739644Y-10912356D01*
X4810356Y-10912356D01*
X4810356Y-11166356D02*
X4810356Y-11095644D01*
X4739644Y-11095644D01*
X4739644Y-11166356D01*
X4810356Y-11166356D01*
X4810356Y-11420356D02*
X4810356Y-11349644D01*
X4739644Y-11349644D01*
X4739644Y-11420356D01*
X4810356Y-11420356D01*
X4810356Y-11674356D02*
X4810356Y-11603644D01*
X4739644Y-11603644D01*
X4739644Y-11674356D01*
X4810356Y-11674356D01*
X4810356Y-11928356D02*
X4810356Y-11857644D01*
X4739644Y-11857644D01*
X4739644Y-11928356D01*
X4810356Y-11928356D01*
X4810356Y-12182356D02*
X4810356Y-12111644D01*
X4739644Y-12111644D01*
X4739644Y-12182356D01*
X4810356Y-12182356D01*
X4810356Y-12436356D02*
X4810356Y-12365644D01*
X4739644Y-12365644D01*
X4739644Y-12436356D01*
X4810356Y-12436356D01*
X4810356Y-12690356D02*
X4810356Y-12619644D01*
X4739644Y-12619644D01*
X4739644Y-12690356D01*
X4810356Y-12690356D01*
X4810356Y-12944356D02*
X4810356Y-12873644D01*
X4739644Y-12873644D01*
X4739644Y-12944356D01*
X4810356Y-12944356D01*
X4810356Y-13198356D02*
X4810356Y-13127644D01*
X4739644Y-13127644D01*
X4739644Y-13198356D01*
X4810356Y-13198356D01*
X4810356Y-13452356D02*
X4810356Y-13381644D01*
X4739644Y-13381644D01*
X4739644Y-13452356D01*
X4810356Y-13452356D01*
X4810356Y-13706356D02*
X4810356Y-13635644D01*
X4739644Y-13635644D01*
X4739644Y-13706356D01*
X4810356Y-13706356D01*
X4810356Y-13960356D02*
X4810356Y-13889644D01*
X4739644Y-13889644D01*
X4739644Y-13960356D01*
X4810356Y-13960356D01*
X4810356Y-14214356D02*
X4810356Y-14143644D01*
X4739644Y-14143644D01*
X4739644Y-14214356D01*
X4810356Y-14214356D01*
X4810356Y-14468356D02*
X4810356Y-14397644D01*
X4739644Y-14397644D01*
X4739644Y-14468356D01*
X4810356Y-14468356D01*
X4810356Y-14722356D02*
X4810356Y-14651644D01*
X4739644Y-14651644D01*
X4739644Y-14722356D01*
X4810356Y-14722356D01*
X4810356Y-14976356D02*
X4810356Y-14905644D01*
X4739644Y-14905644D01*
X4739644Y-14976356D01*
X4810356Y-14976356D01*
X4810356Y-15230356D02*
X4810356Y-15159644D01*
X4739644Y-15159644D01*
X4739644Y-15230356D01*
X4810356Y-15230356D01*
X4810356Y-15484356D02*
X4810356Y-15413644D01*
X4739644Y-15413644D01*
X4739644Y-15484356D01*
X4810356Y-15484356D01*
X4810356Y-15738356D02*
X4810356Y-15667644D01*
X4739644Y-15667644D01*
X4739644Y-15738356D01*
X4810356Y-15738356D01*
X4810356Y-15992356D02*
X4810356Y-15921644D01*
X4739644Y-15921644D01*
X4739644Y-15992356D01*
X4810356Y-15992356D01*
X4810356Y-16246356D02*
X4810356Y-16175644D01*
X4739644Y-16175644D01*
X4739644Y-16246356D01*
X4810356Y-16246356D01*
X4810356Y-16500356D02*
X4810356Y-16429644D01*
X4739644Y-16429644D01*
X4739644Y-16500356D01*
X4810356Y-16500356D01*
X5197756Y-6592256D02*
X5197756Y-6521544D01*
X5127044Y-6521544D01*
X5127044Y-6592256D01*
X5197756Y-6592256D01*
X5197756Y-6846256D02*
X5197756Y-6775544D01*
X5127044Y-6775544D01*
X5127044Y-6846256D01*
X5197756Y-6846256D01*
X5197756Y-7100256D02*
X5197756Y-7029544D01*
X5127044Y-7029544D01*
X5127044Y-7100256D01*
X5197756Y-7100256D01*
X5197756Y-7354256D02*
X5197756Y-7283544D01*
X5127044Y-7283544D01*
X5127044Y-7354256D01*
X5197756Y-7354256D01*
X5197756Y-7608256D02*
X5197756Y-7537544D01*
X5127044Y-7537544D01*
X5127044Y-7608256D01*
X5197756Y-7608256D01*
X5197756Y-7862256D02*
X5197756Y-7791544D01*
X5127044Y-7791544D01*
X5127044Y-7862256D01*
X5197756Y-7862256D01*
X5197756Y-8116256D02*
X5197756Y-8045544D01*
X5127044Y-8045544D01*
X5127044Y-8116256D01*
X5197756Y-8116256D01*
X5197756Y-8370256D02*
X5197756Y-8299544D01*
X5127044Y-8299544D01*
X5127044Y-8370256D01*
X5197756Y-8370256D01*
X5197756Y-8624256D02*
X5197756Y-8553544D01*
X5127044Y-8553544D01*
X5127044Y-8624256D01*
X5197756Y-8624256D01*
X5197756Y-8878256D02*
X5197756Y-8807544D01*
X5127044Y-8807544D01*
X5127044Y-8878256D01*
X5197756Y-8878256D01*
X5197756Y-9132256D02*
X5197756Y-9061544D01*
X5127044Y-9061544D01*
X5127044Y-9132256D01*
X5197756Y-9132256D01*
X5197756Y-9386256D02*
X5197756Y-9315544D01*
X5127044Y-9315544D01*
X5127044Y-9386256D01*
X5197756Y-9386256D01*
X5197756Y-9640256D02*
X5197756Y-9569544D01*
X5127044Y-9569544D01*
X5127044Y-9640256D01*
X5197756Y-9640256D01*
X5197756Y-9894256D02*
X5197756Y-9823544D01*
X5127044Y-9823544D01*
X5127044Y-9894256D01*
X5197756Y-9894256D01*
X5197756Y-10148256D02*
X5197756Y-10077544D01*
X5127044Y-10077544D01*
X5127044Y-10148256D01*
X5197756Y-10148256D01*
X5197756Y-10402256D02*
X5197756Y-10331544D01*
X5127044Y-10331544D01*
X5127044Y-10402256D01*
X5197756Y-10402256D01*
X5197756Y-10656256D02*
X5197756Y-10585544D01*
X5127044Y-10585544D01*
X5127044Y-10656256D01*
X5197756Y-10656256D01*
X5197756Y-10910256D02*
X5197756Y-10839544D01*
X5127044Y-10839544D01*
X5127044Y-10910256D01*
X5197756Y-10910256D01*
X5197756Y-11164256D02*
X5197756Y-11093544D01*
X5127044Y-11093544D01*
X5127044Y-11164256D01*
X5197756Y-11164256D01*
X5197756Y-11418256D02*
X5197756Y-11347544D01*
X5127044Y-11347544D01*
X5127044Y-11418256D01*
X5197756Y-11418256D01*
X5197756Y-11672256D02*
X5197756Y-11601544D01*
X5127044Y-11601544D01*
X5127044Y-11672256D01*
X5197756Y-11672256D01*
X5197756Y-11926256D02*
X5197756Y-11855544D01*
X5127044Y-11855544D01*
X5127044Y-11926256D01*
X5197756Y-11926256D01*
X5197756Y-12180256D02*
X5197756Y-12109544D01*
X5127044Y-12109544D01*
X5127044Y-12180256D01*
X5197756Y-12180256D01*
X5197756Y-12434256D02*
X5197756Y-12363544D01*
X5127044Y-12363544D01*
X5127044Y-12434256D01*
X5197756Y-12434256D01*
X5197756Y-12688256D02*
X5197756Y-12617544D01*
X5127044Y-12617544D01*
X5127044Y-12688256D01*
X5197756Y-12688256D01*
X5197756Y-12942256D02*
X5197756Y-12871544D01*
X5127044Y-12871544D01*
X5127044Y-12942256D01*
X5197756Y-12942256D01*
X5197756Y-13196256D02*
X5197756Y-13125544D01*
X5127044Y-13125544D01*
X5127044Y-13196256D01*
X5197756Y-13196256D01*
X5197756Y-13450256D02*
X5197756Y-13379544D01*
X5127044Y-13379544D01*
X5127044Y-13450256D01*
X5197756Y-13450256D01*
X5197756Y-13704256D02*
X5197756Y-13633544D01*
X5127044Y-13633544D01*
X5127044Y-13704256D01*
X5197756Y-13704256D01*
X5197756Y-13958256D02*
X5197756Y-13887544D01*
X5127044Y-13887544D01*
X5127044Y-13958256D01*
X5197756Y-13958256D01*
X5197756Y-14212256D02*
X5197756Y-14141544D01*
X5127044Y-14141544D01*
X5127044Y-14212256D01*
X5197756Y-14212256D01*
X5197756Y-14466256D02*
X5197756Y-14395544D01*
X5127044Y-14395544D01*
X5127044Y-14466256D01*
X5197756Y-14466256D01*
X5197756Y-14720256D02*
X5197756Y-14649544D01*
X5127044Y-14649544D01*
X5127044Y-14720256D01*
X5197756Y-14720256D01*
X5197756Y-14974256D02*
X5197756Y-14903544D01*
X5127044Y-14903544D01*
X5127044Y-14974256D01*
X5197756Y-14974256D01*
X5197756Y-15228256D02*
X5197756Y-15157544D01*
X5127044Y-15157544D01*
X5127044Y-15228256D01*
X5197756Y-15228256D01*
X5197756Y-15482256D02*
X5197756Y-15411544D01*
X5127044Y-15411544D01*
X5127044Y-15482256D01*
X5197756Y-15482256D01*
X5197756Y-15736256D02*
X5197756Y-15665544D01*
X5127044Y-15665544D01*
X5127044Y-15736256D01*
X5197756Y-15736256D01*
X5197756Y-15990256D02*
X5197756Y-15919544D01*
X5127044Y-15919544D01*
X5127044Y-15990256D01*
X5197756Y-15990256D01*
X5197756Y-16244256D02*
X5197756Y-16173544D01*
X5127044Y-16173544D01*
X5127044Y-16244256D01*
X5197756Y-16244256D01*
X5197756Y-16498256D02*
X5197756Y-16427544D01*
X5127044Y-16427544D01*
X5127044Y-16498256D01*
X5197756Y-16498256D01*
X5197756Y-17006256D02*
X5197756Y-16935544D01*
X5127044Y-16935544D01*
X5127044Y-17006256D01*
X5197756Y-17006256D01*
X5197756Y-17260256D02*
X5197756Y-17189544D01*
X5127044Y-17189544D01*
X5127044Y-17260256D01*
X5197756Y-17260256D01*
X5197756Y-17514256D02*
X5197756Y-17443544D01*
X5127044Y-17443544D01*
X5127044Y-17514256D01*
X5197756Y-17514256D01*
X6285356Y-14685356D02*
X6285356Y-14614644D01*
X6214644Y-14614644D01*
X6214644Y-14685356D01*
X6285356Y-14685356D01*
X6535356Y-14685356D02*
X6535356Y-14614644D01*
X6464644Y-14614644D01*
X6464644Y-14685356D01*
X6535356Y-14685356D01*
X7483756Y-6592256D02*
X7483756Y-6521544D01*
X7413044Y-6521544D01*
X7413044Y-6592256D01*
X7483756Y-6592256D01*
X7483756Y-6846256D02*
X7483756Y-6775544D01*
X7413044Y-6775544D01*
X7413044Y-6846256D01*
X7483756Y-6846256D01*
X7483756Y-7100256D02*
X7483756Y-7029544D01*
X7413044Y-7029544D01*
X7413044Y-7100256D01*
X7483756Y-7100256D01*
X7483756Y-7354256D02*
X7483756Y-7283544D01*
X7413044Y-7283544D01*
X7413044Y-7354256D01*
X7483756Y-7354256D01*
X7483756Y-7608256D02*
X7483756Y-7537544D01*
X7413044Y-7537544D01*
X7413044Y-7608256D01*
X7483756Y-7608256D01*
X7483756Y-7862256D02*
X7483756Y-7791544D01*
X7413044Y-7791544D01*
X7413044Y-7862256D01*
X7483756Y-7862256D01*
X7483756Y-8116256D02*
X7483756Y-8045544D01*
X7413044Y-8045544D01*
X7413044Y-8116256D01*
X7483756Y-8116256D01*
X7483756Y-8370256D02*
X7483756Y-8299544D01*
X7413044Y-8299544D01*
X7413044Y-8370256D01*
X7483756Y-8370256D01*
X7483756Y-8624256D02*
X7483756Y-8553544D01*
X7413044Y-8553544D01*
X7413044Y-8624256D01*
X7483756Y-8624256D01*
X7483756Y-8878256D02*
X7483756Y-8807544D01*
X7413044Y-8807544D01*
X7413044Y-8878256D01*
X7483756Y-8878256D01*
X7483756Y-9132256D02*
X7483756Y-9061544D01*
X7413044Y-9061544D01*
X7413044Y-9132256D01*
X7483756Y-9132256D01*
X7483756Y-9386256D02*
X7483756Y-9315544D01*
X7413044Y-9315544D01*
X7413044Y-9386256D01*
X7483756Y-9386256D01*
X7483756Y-9640256D02*
X7483756Y-9569544D01*
X7413044Y-9569544D01*
X7413044Y-9640256D01*
X7483756Y-9640256D01*
X7483756Y-9894256D02*
X7483756Y-9823544D01*
X7413044Y-9823544D01*
X7413044Y-9894256D01*
X7483756Y-9894256D01*
X7483756Y-10148256D02*
X7483756Y-10077544D01*
X7413044Y-10077544D01*
X7413044Y-10148256D01*
X7483756Y-10148256D01*
X7483756Y-10402256D02*
X7483756Y-10331544D01*
X7413044Y-10331544D01*
X7413044Y-10402256D01*
X7483756Y-10402256D01*
X7483756Y-10656256D02*
X7483756Y-10585544D01*
X7413044Y-10585544D01*
X7413044Y-10656256D01*
X7483756Y-10656256D01*
X7483756Y-10910256D02*
X7483756Y-10839544D01*
X7413044Y-10839544D01*
X7413044Y-10910256D01*
X7483756Y-10910256D01*
X7483756Y-11164256D02*
X7483756Y-11093544D01*
X7413044Y-11093544D01*
X7413044Y-11164256D01*
X7483756Y-11164256D01*
X7483756Y-11418256D02*
X7483756Y-11347544D01*
X7413044Y-11347544D01*
X7413044Y-11418256D01*
X7483756Y-11418256D01*
X7483756Y-11672256D02*
X7483756Y-11601544D01*
X7413044Y-11601544D01*
X7413044Y-11672256D01*
X7483756Y-11672256D01*
X7483756Y-11926256D02*
X7483756Y-11855544D01*
X7413044Y-11855544D01*
X7413044Y-11926256D01*
X7483756Y-11926256D01*
X7483756Y-12180256D02*
X7483756Y-12109544D01*
X7413044Y-12109544D01*
X7413044Y-12180256D01*
X7483756Y-12180256D01*
X7483756Y-12434256D02*
X7483756Y-12363544D01*
X7413044Y-12363544D01*
X7413044Y-12434256D01*
X7483756Y-12434256D01*
X7483756Y-12688256D02*
X7483756Y-12617544D01*
X7413044Y-12617544D01*
X7413044Y-12688256D01*
X7483756Y-12688256D01*
X7483756Y-12942256D02*
X7483756Y-12871544D01*
X7413044Y-12871544D01*
X7413044Y-12942256D01*
X7483756Y-12942256D01*
X7483756Y-13196256D02*
X7483756Y-13125544D01*
X7413044Y-13125544D01*
X7413044Y-13196256D01*
X7483756Y-13196256D01*
X7483756Y-13450256D02*
X7483756Y-13379544D01*
X7413044Y-13379544D01*
X7413044Y-13450256D01*
X7483756Y-13450256D01*
X7483756Y-13704256D02*
X7483756Y-13633544D01*
X7413044Y-13633544D01*
X7413044Y-13704256D01*
X7483756Y-13704256D01*
X7483756Y-13958256D02*
X7483756Y-13887544D01*
X7413044Y-13887544D01*
X7413044Y-13958256D01*
X7483756Y-13958256D01*
X7483756Y-14212256D02*
X7483756Y-14141544D01*
X7413044Y-14141544D01*
X7413044Y-14212256D01*
X7483756Y-14212256D01*
X7483756Y-14466256D02*
X7483756Y-14395544D01*
X7413044Y-14395544D01*
X7413044Y-14466256D01*
X7483756Y-14466256D01*
X7483756Y-14720256D02*
X7483756Y-14649544D01*
X7413044Y-14649544D01*
X7413044Y-14720256D01*
X7483756Y-14720256D01*
X7483756Y-14974256D02*
X7483756Y-14903544D01*
X7413044Y-14903544D01*
X7413044Y-14974256D01*
X7483756Y-14974256D01*
X7483756Y-15228256D02*
X7483756Y-15157544D01*
X7413044Y-15157544D01*
X7413044Y-15228256D01*
X7483756Y-15228256D01*
X7483756Y-15482256D02*
X7483756Y-15411544D01*
X7413044Y-15411544D01*
X7413044Y-15482256D01*
X7483756Y-15482256D01*
X7483756Y-15736256D02*
X7483756Y-15665544D01*
X7413044Y-15665544D01*
X7413044Y-15736256D01*
X7483756Y-15736256D01*
X7483756Y-15990256D02*
X7483756Y-15919544D01*
X7413044Y-15919544D01*
X7413044Y-15990256D01*
X7483756Y-15990256D01*
X7483756Y-16244256D02*
X7483756Y-16173544D01*
X7413044Y-16173544D01*
X7413044Y-16244256D01*
X7483756Y-16244256D01*
X7483756Y-16498256D02*
X7483756Y-16427544D01*
X7413044Y-16427544D01*
X7413044Y-16498256D01*
X7483756Y-16498256D01*
X7885356Y-6577356D02*
X7885356Y-6506644D01*
X7814644Y-6506644D01*
X7814644Y-6577356D01*
X7885356Y-6577356D01*
X7885356Y-6831356D02*
X7885356Y-6760644D01*
X7814644Y-6760644D01*
X7814644Y-6831356D01*
X7885356Y-6831356D01*
X7885356Y-7085356D02*
X7885356Y-7014644D01*
X7814644Y-7014644D01*
X7814644Y-7085356D01*
X7885356Y-7085356D01*
X7885356Y-7339356D02*
X7885356Y-7268644D01*
X7814644Y-7268644D01*
X7814644Y-7339356D01*
X7885356Y-7339356D01*
X7885356Y-7593356D02*
X7885356Y-7522644D01*
X7814644Y-7522644D01*
X7814644Y-7593356D01*
X7885356Y-7593356D01*
X7885356Y-7847356D02*
X7885356Y-7776644D01*
X7814644Y-7776644D01*
X7814644Y-7847356D01*
X7885356Y-7847356D01*
X7885356Y-8101356D02*
X7885356Y-8030644D01*
X7814644Y-8030644D01*
X7814644Y-8101356D01*
X7885356Y-8101356D01*
X7885356Y-8355356D02*
X7885356Y-8284644D01*
X7814644Y-8284644D01*
X7814644Y-8355356D01*
X7885356Y-8355356D01*
X7885356Y-8609356D02*
X7885356Y-8538644D01*
X7814644Y-8538644D01*
X7814644Y-8609356D01*
X7885356Y-8609356D01*
X7885356Y-8863356D02*
X7885356Y-8792644D01*
X7814644Y-8792644D01*
X7814644Y-8863356D01*
X7885356Y-8863356D01*
X7885356Y-9117356D02*
X7885356Y-9046644D01*
X7814644Y-9046644D01*
X7814644Y-9117356D01*
X7885356Y-9117356D01*
X7885356Y-9371356D02*
X7885356Y-9300644D01*
X7814644Y-9300644D01*
X7814644Y-9371356D01*
X7885356Y-9371356D01*
X7885356Y-9625356D02*
X7885356Y-9554644D01*
X7814644Y-9554644D01*
X7814644Y-9625356D01*
X7885356Y-9625356D01*
X7885356Y-9879356D02*
X7885356Y-9808644D01*
X7814644Y-9808644D01*
X7814644Y-9879356D01*
X7885356Y-9879356D01*
X7885356Y-10133356D02*
X7885356Y-10062644D01*
X7814644Y-10062644D01*
X7814644Y-10133356D01*
X7885356Y-10133356D01*
X7885356Y-10387356D02*
X7885356Y-10316644D01*
X7814644Y-10316644D01*
X7814644Y-10387356D01*
X7885356Y-10387356D01*
X7885356Y-10641356D02*
X7885356Y-10570644D01*
X7814644Y-10570644D01*
X7814644Y-10641356D01*
X7885356Y-10641356D01*
X7885356Y-10895356D02*
X7885356Y-10824644D01*
X7814644Y-10824644D01*
X7814644Y-10895356D01*
X7885356Y-10895356D01*
X7885356Y-11149356D02*
X7885356Y-11078644D01*
X7814644Y-11078644D01*
X7814644Y-11149356D01*
X7885356Y-11149356D01*
X7885356Y-11403356D02*
X7885356Y-11332644D01*
X7814644Y-11332644D01*
X7814644Y-11403356D01*
X7885356Y-11403356D01*
X7885356Y-11657356D02*
X7885356Y-11586644D01*
X7814644Y-11586644D01*
X7814644Y-11657356D01*
X7885356Y-11657356D01*
X7885356Y-11911356D02*
X7885356Y-11840644D01*
X7814644Y-11840644D01*
X7814644Y-11911356D01*
X7885356Y-11911356D01*
X7885356Y-12165356D02*
X7885356Y-12094644D01*
X7814644Y-12094644D01*
X7814644Y-12165356D01*
X7885356Y-12165356D01*
X7885356Y-12419356D02*
X7885356Y-12348644D01*
X7814644Y-12348644D01*
X7814644Y-12419356D01*
X7885356Y-12419356D01*
X7885356Y-12673356D02*
X7885356Y-12602644D01*
X7814644Y-12602644D01*
X7814644Y-12673356D01*
X7885356Y-12673356D01*
X7885356Y-12927356D02*
X7885356Y-12856644D01*
X7814644Y-12856644D01*
X7814644Y-12927356D01*
X7885356Y-12927356D01*
X7885356Y-13181356D02*
X7885356Y-13110644D01*
X7814644Y-13110644D01*
X7814644Y-13181356D01*
X7885356Y-13181356D01*
X7885356Y-13435356D02*
X7885356Y-13364644D01*
X7814644Y-13364644D01*
X7814644Y-13435356D01*
X7885356Y-13435356D01*
X7885356Y-13689356D02*
X7885356Y-13618644D01*
X7814644Y-13618644D01*
X7814644Y-13689356D01*
X7885356Y-13689356D01*
X7885356Y-13943356D02*
X7885356Y-13872644D01*
X7814644Y-13872644D01*
X7814644Y-13943356D01*
X7885356Y-13943356D01*
X7885356Y-14197356D02*
X7885356Y-14126644D01*
X7814644Y-14126644D01*
X7814644Y-14197356D01*
X7885356Y-14197356D01*
X7885356Y-14451356D02*
X7885356Y-14380644D01*
X7814644Y-14380644D01*
X7814644Y-14451356D01*
X7885356Y-14451356D01*
X7885356Y-14705356D02*
X7885356Y-14634644D01*
X7814644Y-14634644D01*
X7814644Y-14705356D01*
X7885356Y-14705356D01*
X7885356Y-14959356D02*
X7885356Y-14888644D01*
X7814644Y-14888644D01*
X7814644Y-14959356D01*
X7885356Y-14959356D01*
X7885356Y-15213356D02*
X7885356Y-15142644D01*
X7814644Y-15142644D01*
X7814644Y-15213356D01*
X7885356Y-15213356D01*
X7885356Y-15467356D02*
X7885356Y-15396644D01*
X7814644Y-15396644D01*
X7814644Y-15467356D01*
X7885356Y-15467356D01*
X7885356Y-15721356D02*
X7885356Y-15650644D01*
X7814644Y-15650644D01*
X7814644Y-15721356D01*
X7885356Y-15721356D01*
X7885356Y-15975356D02*
X7885356Y-15904644D01*
X7814644Y-15904644D01*
X7814644Y-15975356D01*
X7885356Y-15975356D01*
X7885356Y-16229356D02*
X7885356Y-16158644D01*
X7814644Y-16158644D01*
X7814644Y-16229356D01*
X7885356Y-16229356D01*
X7885356Y-16483356D02*
X7885356Y-16412644D01*
X7814644Y-16412644D01*
X7814644Y-16483356D01*
X7885356Y-16483356D01*
D15*
X6350000Y-17060000D02*
X6410000Y-17000000D01*
X6350000Y-16940000D01*
X6290000Y-17000000D01*
X6350000Y-17060000D01*
X6350000Y-17660000D02*
X6410000Y-17600000D01*
X6350000Y-17540000D01*
X6290000Y-17600000D01*
X6350000Y-17660000D01*
X7550000Y-17060000D02*
X7610000Y-17000000D01*
X7550000Y-16940000D01*
X7490000Y-17000000D01*
X7550000Y-17060000D01*
X7550000Y-17660000D02*
X7610000Y-17600000D01*
X7550000Y-17540000D01*
X7490000Y-17600000D01*
X7550000Y-17660000D01*
D16*
X5949800Y-7821200D02*
X6074800Y-7946200D01*
X6074800Y-7821200D02*
X5949800Y-7946200D01*
X6074800Y-7883700D02*
G75*
G03*
X6074800Y-7883700I-62500J0D01*
G01*
X5949800Y-10921200D02*
X6074800Y-11046200D01*
X6074800Y-10921200D02*
X5949800Y-11046200D01*
X6074800Y-10983700D02*
G75*
G03*
X6074800Y-10983700I-62500J0D01*
G01*
X6594800Y-7821200D02*
X6719800Y-7946200D01*
X6719800Y-7821200D02*
X6594800Y-7946200D01*
X6719800Y-7883700D02*
G75*
G03*
X6719800Y-7883700I-62500J0D01*
G01*
X6599800Y-10921200D02*
X6724800Y-11046200D01*
X6724800Y-10921200D02*
X6599800Y-11046200D01*
X6724800Y-10983700D02*
G75*
G03*
X6724800Y-10983700I-62500J0D01*
G01*
D17*
X5528600Y-11510300D02*
X5682600Y-11664300D01*
X5682600Y-11510300D02*
X5528600Y-11664300D01*
X5605600Y-11510300D02*
X5605600Y-11664300D01*
X5528600Y-11587300D02*
X5682600Y-11587300D01*
X5528600Y-13800300D02*
X5682600Y-13954300D01*
X5682600Y-13800300D02*
X5528600Y-13954300D01*
X5605600Y-13800300D02*
X5605600Y-13954300D01*
X5528600Y-13877300D02*
X5682600Y-13877300D01*
X5878600Y-13800300D02*
X6032600Y-13954300D01*
X6032600Y-13800300D02*
X5878600Y-13954300D01*
X5955600Y-13800300D02*
X5955600Y-13954300D01*
X5878600Y-13877300D02*
X6032600Y-13877300D01*
X6638600Y-13800300D02*
X6792600Y-13954300D01*
X6792600Y-13800300D02*
X6638600Y-13954300D01*
X6715600Y-13800300D02*
X6715600Y-13954300D01*
X6638600Y-13877300D02*
X6792600Y-13877300D01*
X6948600Y-11510300D02*
X7102600Y-11664300D01*
X7102600Y-11510300D02*
X6948600Y-11664300D01*
X7025600Y-11510300D02*
X7025600Y-11664300D01*
X6948600Y-11587300D02*
X7102600Y-11587300D01*
X6978600Y-13800300D02*
X7132600Y-13954300D01*
X7132600Y-13800300D02*
X6978600Y-13954300D01*
X7055600Y-13800300D02*
X7055600Y-13954300D01*
X6978600Y-13877300D02*
X7132600Y-13877300D01*
D11*
X2182750Y-3738800D02*
X2382750Y-3938800D01*
X2382750Y-3738800D02*
X2182750Y-3938800D01*
X2353461Y-3909511D02*
X2353461Y-3768089D01*
X2212039Y-3768089D01*
X2212039Y-3909511D01*
X2353461Y-3909511D01*
X2182750Y-4238800D02*
X2382750Y-4438800D01*
X2382750Y-4238800D02*
X2182750Y-4438800D01*
X2353461Y-4409511D02*
X2353461Y-4268089D01*
X2212039Y-4268089D01*
X2212039Y-4409511D01*
X2353461Y-4409511D01*
X2182750Y-5110400D02*
X2382750Y-5310400D01*
X2382750Y-5110400D02*
X2182750Y-5310400D01*
X2353461Y-5281111D02*
X2353461Y-5139689D01*
X2212039Y-5139689D01*
X2212039Y-5281111D01*
X2353461Y-5281111D01*
X2182750Y-5610400D02*
X2382750Y-5810400D01*
X2382750Y-5610400D02*
X2182750Y-5810400D01*
X2353461Y-5781111D02*
X2353461Y-5639689D01*
X2212039Y-5639689D01*
X2212039Y-5781111D01*
X2353461Y-5781111D01*
X7211950Y-4450000D02*
X7411950Y-4650000D01*
X7411950Y-4450000D02*
X7211950Y-4650000D01*
X7382661Y-4620711D02*
X7382661Y-4479289D01*
X7241239Y-4479289D01*
X7241239Y-4620711D01*
X7382661Y-4620711D01*
X7211950Y-4950000D02*
X7411950Y-5150000D01*
X7411950Y-4950000D02*
X7211950Y-5150000D01*
X7382661Y-5120711D02*
X7382661Y-4979289D01*
X7241239Y-4979289D01*
X7241239Y-5120711D01*
X7382661Y-5120711D01*
X1792019Y-18103876D02*
X1792019Y-17903876D01*
X1792019Y-17903876D02*
X1839638Y-17903876D01*
X1839638Y-17903876D02*
X1868209Y-17913400D01*
X1868209Y-17913400D02*
X1887257Y-17932448D01*
X1887257Y-17932448D02*
X1896781Y-17951495D01*
X1896781Y-17951495D02*
X1906305Y-17989590D01*
X1906305Y-17989590D02*
X1906305Y-18018162D01*
X1906305Y-18018162D02*
X1896781Y-18056257D01*
X1896781Y-18056257D02*
X1887257Y-18075305D01*
X1887257Y-18075305D02*
X1868209Y-18094352D01*
X1868209Y-18094352D02*
X1839638Y-18103876D01*
X1839638Y-18103876D02*
X1792019Y-18103876D01*
X1992019Y-18103876D02*
X1992019Y-17970543D01*
X1992019Y-18008638D02*
X2001543Y-17989590D01*
X2001543Y-17989590D02*
X2011067Y-17980067D01*
X2011067Y-17980067D02*
X2030114Y-17970543D01*
X2030114Y-17970543D02*
X2049162Y-17970543D01*
X2115829Y-18103876D02*
X2115829Y-17970543D01*
X2115829Y-17903876D02*
X2106305Y-17913400D01*
X2106305Y-17913400D02*
X2115829Y-17922924D01*
X2115829Y-17922924D02*
X2125352Y-17913400D01*
X2125352Y-17913400D02*
X2115829Y-17903876D01*
X2115829Y-17903876D02*
X2115829Y-17922924D01*
X2239638Y-18103876D02*
X2220590Y-18094352D01*
X2220590Y-18094352D02*
X2211067Y-18075305D01*
X2211067Y-18075305D02*
X2211067Y-17903876D01*
X2344400Y-18103876D02*
X2325352Y-18094352D01*
X2325352Y-18094352D02*
X2315829Y-18075305D01*
X2315829Y-18075305D02*
X2315829Y-17903876D01*
X2540590Y-18103876D02*
X2540590Y-17903876D01*
X2540590Y-17903876D02*
X2607257Y-18046733D01*
X2607257Y-18046733D02*
X2673924Y-17903876D01*
X2673924Y-17903876D02*
X2673924Y-18103876D01*
X2854876Y-18103876D02*
X2854876Y-17999114D01*
X2854876Y-17999114D02*
X2845352Y-17980067D01*
X2845352Y-17980067D02*
X2826305Y-17970543D01*
X2826305Y-17970543D02*
X2788209Y-17970543D01*
X2788209Y-17970543D02*
X2769162Y-17980067D01*
X2854876Y-18094352D02*
X2835828Y-18103876D01*
X2835828Y-18103876D02*
X2788209Y-18103876D01*
X2788209Y-18103876D02*
X2769162Y-18094352D01*
X2769162Y-18094352D02*
X2759638Y-18075305D01*
X2759638Y-18075305D02*
X2759638Y-18056257D01*
X2759638Y-18056257D02*
X2769162Y-18037210D01*
X2769162Y-18037210D02*
X2788209Y-18027686D01*
X2788209Y-18027686D02*
X2835828Y-18027686D01*
X2835828Y-18027686D02*
X2854876Y-18018162D01*
X2950114Y-17970543D02*
X2950114Y-18170543D01*
X2950114Y-17980067D02*
X2969162Y-17970543D01*
X2969162Y-17970543D02*
X3007257Y-17970543D01*
X3007257Y-17970543D02*
X3026305Y-17980067D01*
X3026305Y-17980067D02*
X3035828Y-17989590D01*
X3035828Y-17989590D02*
X3045352Y-18008638D01*
X3045352Y-18008638D02*
X3045352Y-18065781D01*
X3045352Y-18065781D02*
X3035828Y-18084829D01*
X3035828Y-18084829D02*
X3026305Y-18094352D01*
X3026305Y-18094352D02*
X3007257Y-18103876D01*
X3007257Y-18103876D02*
X2969162Y-18103876D01*
X2969162Y-18103876D02*
X2950114Y-18094352D01*
X3131067Y-18084829D02*
X3140590Y-18094352D01*
X3140590Y-18094352D02*
X3131067Y-18103876D01*
X3131067Y-18103876D02*
X3121543Y-18094352D01*
X3121543Y-18094352D02*
X3131067Y-18084829D01*
X3131067Y-18084829D02*
X3131067Y-18103876D01*
X3131067Y-17980067D02*
X3140590Y-17989590D01*
X3140590Y-17989590D02*
X3131067Y-17999114D01*
X3131067Y-17999114D02*
X3121543Y-17989590D01*
X3121543Y-17989590D02*
X3131067Y-17980067D01*
X3131067Y-17980067D02*
X3131067Y-17999114D01*
D12*
X1504400Y-18430400D02*
X1544400Y-18470400D01*
X1544400Y-18430400D02*
X1504400Y-18470400D01*
D11*
X1830114Y-18323876D02*
X1849162Y-18323876D01*
X1849162Y-18323876D02*
X1868209Y-18333400D01*
X1868209Y-18333400D02*
X1877733Y-18342924D01*
X1877733Y-18342924D02*
X1887257Y-18361971D01*
X1887257Y-18361971D02*
X1896781Y-18400067D01*
X1896781Y-18400067D02*
X1896781Y-18447686D01*
X1896781Y-18447686D02*
X1887257Y-18485781D01*
X1887257Y-18485781D02*
X1877733Y-18504829D01*
X1877733Y-18504829D02*
X1868209Y-18514352D01*
X1868209Y-18514352D02*
X1849162Y-18523876D01*
X1849162Y-18523876D02*
X1830114Y-18523876D01*
X1830114Y-18523876D02*
X1811067Y-18514352D01*
X1811067Y-18514352D02*
X1801543Y-18504829D01*
X1801543Y-18504829D02*
X1792019Y-18485781D01*
X1792019Y-18485781D02*
X1782495Y-18447686D01*
X1782495Y-18447686D02*
X1782495Y-18400067D01*
X1782495Y-18400067D02*
X1792019Y-18361971D01*
X1792019Y-18361971D02*
X1801543Y-18342924D01*
X1801543Y-18342924D02*
X1811067Y-18333400D01*
X1811067Y-18333400D02*
X1830114Y-18323876D01*
X1982495Y-18504829D02*
X1992019Y-18514352D01*
X1992019Y-18514352D02*
X1982495Y-18523876D01*
X1982495Y-18523876D02*
X1972971Y-18514352D01*
X1972971Y-18514352D02*
X1982495Y-18504829D01*
X1982495Y-18504829D02*
X1982495Y-18523876D01*
X2163448Y-18390543D02*
X2163448Y-18523876D01*
X2115829Y-18314352D02*
X2068209Y-18457210D01*
X2068209Y-18457210D02*
X2192019Y-18457210D01*
X2306305Y-18323876D02*
X2325352Y-18323876D01*
X2325352Y-18323876D02*
X2344400Y-18333400D01*
X2344400Y-18333400D02*
X2353924Y-18342924D01*
X2353924Y-18342924D02*
X2363448Y-18361971D01*
X2363448Y-18361971D02*
X2372971Y-18400067D01*
X2372971Y-18400067D02*
X2372971Y-18447686D01*
X2372971Y-18447686D02*
X2363448Y-18485781D01*
X2363448Y-18485781D02*
X2353924Y-18504829D01*
X2353924Y-18504829D02*
X2344400Y-18514352D01*
X2344400Y-18514352D02*
X2325352Y-18523876D01*
X2325352Y-18523876D02*
X2306305Y-18523876D01*
X2306305Y-18523876D02*
X2287257Y-18514352D01*
X2287257Y-18514352D02*
X2277733Y-18504829D01*
X2277733Y-18504829D02*
X2268210Y-18485781D01*
X2268210Y-18485781D02*
X2258686Y-18447686D01*
X2258686Y-18447686D02*
X2258686Y-18400067D01*
X2258686Y-18400067D02*
X2268210Y-18361971D01*
X2268210Y-18361971D02*
X2277733Y-18342924D01*
X2277733Y-18342924D02*
X2287257Y-18333400D01*
X2287257Y-18333400D02*
X2306305Y-18323876D01*
X2496781Y-18323876D02*
X2515829Y-18323876D01*
X2515829Y-18323876D02*
X2534876Y-18333400D01*
X2534876Y-18333400D02*
X2544400Y-18342924D01*
X2544400Y-18342924D02*
X2553924Y-18361971D01*
X2553924Y-18361971D02*
X2563448Y-18400067D01*
X2563448Y-18400067D02*
X2563448Y-18447686D01*
X2563448Y-18447686D02*
X2553924Y-18485781D01*
X2553924Y-18485781D02*
X2544400Y-18504829D01*
X2544400Y-18504829D02*
X2534876Y-18514352D01*
X2534876Y-18514352D02*
X2515829Y-18523876D01*
X2515829Y-18523876D02*
X2496781Y-18523876D01*
X2496781Y-18523876D02*
X2477733Y-18514352D01*
X2477733Y-18514352D02*
X2468210Y-18504829D01*
X2468210Y-18504829D02*
X2458686Y-18485781D01*
X2458686Y-18485781D02*
X2449162Y-18447686D01*
X2449162Y-18447686D02*
X2449162Y-18400067D01*
X2449162Y-18400067D02*
X2458686Y-18361971D01*
X2458686Y-18361971D02*
X2468210Y-18342924D01*
X2468210Y-18342924D02*
X2477733Y-18333400D01*
X2477733Y-18333400D02*
X2496781Y-18323876D01*
X2649162Y-18523876D02*
X2649162Y-18390543D01*
X2649162Y-18409590D02*
X2658686Y-18400067D01*
X2658686Y-18400067D02*
X2677733Y-18390543D01*
X2677733Y-18390543D02*
X2706305Y-18390543D01*
X2706305Y-18390543D02*
X2725352Y-18400067D01*
X2725352Y-18400067D02*
X2734876Y-18419114D01*
X2734876Y-18419114D02*
X2734876Y-18523876D01*
X2734876Y-18419114D02*
X2744400Y-18400067D01*
X2744400Y-18400067D02*
X2763448Y-18390543D01*
X2763448Y-18390543D02*
X2792019Y-18390543D01*
X2792019Y-18390543D02*
X2811067Y-18400067D01*
X2811067Y-18400067D02*
X2820590Y-18419114D01*
X2820590Y-18419114D02*
X2820590Y-18523876D01*
X2915829Y-18523876D02*
X2915829Y-18390543D01*
X2915829Y-18409590D02*
X2925352Y-18400067D01*
X2925352Y-18400067D02*
X2944400Y-18390543D01*
X2944400Y-18390543D02*
X2972971Y-18390543D01*
X2972971Y-18390543D02*
X2992019Y-18400067D01*
X2992019Y-18400067D02*
X3001543Y-18419114D01*
X3001543Y-18419114D02*
X3001543Y-18523876D01*
X3001543Y-18419114D02*
X3011067Y-18400067D01*
X3011067Y-18400067D02*
X3030114Y-18390543D01*
X3030114Y-18390543D02*
X3058686Y-18390543D01*
X3058686Y-18390543D02*
X3077733Y-18400067D01*
X3077733Y-18400067D02*
X3087257Y-18419114D01*
X3087257Y-18419114D02*
X3087257Y-18523876D01*
X3445352Y-18314352D02*
X3273924Y-18571495D01*
X3670114Y-18323876D02*
X3689162Y-18323876D01*
X3689162Y-18323876D02*
X3708210Y-18333400D01*
X3708210Y-18333400D02*
X3717733Y-18342924D01*
X3717733Y-18342924D02*
X3727257Y-18361971D01*
X3727257Y-18361971D02*
X3736781Y-18400067D01*
X3736781Y-18400067D02*
X3736781Y-18447686D01*
X3736781Y-18447686D02*
X3727257Y-18485781D01*
X3727257Y-18485781D02*
X3717733Y-18504829D01*
X3717733Y-18504829D02*
X3708210Y-18514352D01*
X3708210Y-18514352D02*
X3689162Y-18523876D01*
X3689162Y-18523876D02*
X3670114Y-18523876D01*
X3670114Y-18523876D02*
X3651067Y-18514352D01*
X3651067Y-18514352D02*
X3641543Y-18504829D01*
X3641543Y-18504829D02*
X3632019Y-18485781D01*
X3632019Y-18485781D02*
X3622495Y-18447686D01*
X3622495Y-18447686D02*
X3622495Y-18400067D01*
X3622495Y-18400067D02*
X3632019Y-18361971D01*
X3632019Y-18361971D02*
X3641543Y-18342924D01*
X3641543Y-18342924D02*
X3651067Y-18333400D01*
X3651067Y-18333400D02*
X3670114Y-18323876D01*
X3822495Y-18504829D02*
X3832019Y-18514352D01*
X3832019Y-18514352D02*
X3822495Y-18523876D01*
X3822495Y-18523876D02*
X3812971Y-18514352D01*
X3812971Y-18514352D02*
X3822495Y-18504829D01*
X3822495Y-18504829D02*
X3822495Y-18523876D01*
X3955829Y-18323876D02*
X3974876Y-18323876D01*
X3974876Y-18323876D02*
X3993924Y-18333400D01*
X3993924Y-18333400D02*
X4003448Y-18342924D01*
X4003448Y-18342924D02*
X4012971Y-18361971D01*
X4012971Y-18361971D02*
X4022495Y-18400067D01*
X4022495Y-18400067D02*
X4022495Y-18447686D01*
X4022495Y-18447686D02*
X4012971Y-18485781D01*
X4012971Y-18485781D02*
X4003448Y-18504829D01*
X4003448Y-18504829D02*
X3993924Y-18514352D01*
X3993924Y-18514352D02*
X3974876Y-18523876D01*
X3974876Y-18523876D02*
X3955829Y-18523876D01*
X3955829Y-18523876D02*
X3936781Y-18514352D01*
X3936781Y-18514352D02*
X3927257Y-18504829D01*
X3927257Y-18504829D02*
X3917733Y-18485781D01*
X3917733Y-18485781D02*
X3908210Y-18447686D01*
X3908210Y-18447686D02*
X3908210Y-18400067D01*
X3908210Y-18400067D02*
X3917733Y-18361971D01*
X3917733Y-18361971D02*
X3927257Y-18342924D01*
X3927257Y-18342924D02*
X3936781Y-18333400D01*
X3936781Y-18333400D02*
X3955829Y-18323876D01*
X4212972Y-18523876D02*
X4098686Y-18523876D01*
X4155829Y-18523876D02*
X4155829Y-18323876D01*
X4155829Y-18323876D02*
X4136781Y-18352448D01*
X4136781Y-18352448D02*
X4117733Y-18371495D01*
X4117733Y-18371495D02*
X4098686Y-18381019D01*
X4393924Y-18323876D02*
X4298686Y-18323876D01*
X4298686Y-18323876D02*
X4289162Y-18419114D01*
X4289162Y-18419114D02*
X4298686Y-18409590D01*
X4298686Y-18409590D02*
X4317733Y-18400067D01*
X4317733Y-18400067D02*
X4365353Y-18400067D01*
X4365353Y-18400067D02*
X4384400Y-18409590D01*
X4384400Y-18409590D02*
X4393924Y-18419114D01*
X4393924Y-18419114D02*
X4403448Y-18438162D01*
X4403448Y-18438162D02*
X4403448Y-18485781D01*
X4403448Y-18485781D02*
X4393924Y-18504829D01*
X4393924Y-18504829D02*
X4384400Y-18514352D01*
X4384400Y-18514352D02*
X4365353Y-18523876D01*
X4365353Y-18523876D02*
X4317733Y-18523876D01*
X4317733Y-18523876D02*
X4298686Y-18514352D01*
X4298686Y-18514352D02*
X4289162Y-18504829D01*
X4470114Y-18323876D02*
X4603448Y-18323876D01*
X4603448Y-18323876D02*
X4517733Y-18523876D01*
X4670114Y-18323876D02*
X4670114Y-18361971D01*
X4746305Y-18323876D02*
X4746305Y-18361971D01*
X5009162Y-18600067D02*
X4999638Y-18590543D01*
X4999638Y-18590543D02*
X4980591Y-18561971D01*
X4980591Y-18561971D02*
X4971067Y-18542924D01*
X4971067Y-18542924D02*
X4961543Y-18514352D01*
X4961543Y-18514352D02*
X4952019Y-18466733D01*
X4952019Y-18466733D02*
X4952019Y-18428638D01*
X4952019Y-18428638D02*
X4961543Y-18381019D01*
X4961543Y-18381019D02*
X4971067Y-18352448D01*
X4971067Y-18352448D02*
X4980591Y-18333400D01*
X4980591Y-18333400D02*
X4999638Y-18304829D01*
X4999638Y-18304829D02*
X5009162Y-18295305D01*
X5190114Y-18523876D02*
X5075829Y-18523876D01*
X5132972Y-18523876D02*
X5132972Y-18323876D01*
X5132972Y-18323876D02*
X5113924Y-18352448D01*
X5113924Y-18352448D02*
X5094876Y-18371495D01*
X5094876Y-18371495D02*
X5075829Y-18381019D01*
X5361543Y-18390543D02*
X5361543Y-18523876D01*
X5313924Y-18314352D02*
X5266305Y-18457210D01*
X5266305Y-18457210D02*
X5390114Y-18457210D01*
X5586305Y-18523876D02*
X5586305Y-18323876D01*
X5672019Y-18523876D02*
X5672019Y-18419114D01*
X5672019Y-18419114D02*
X5662495Y-18400067D01*
X5662495Y-18400067D02*
X5643448Y-18390543D01*
X5643448Y-18390543D02*
X5614876Y-18390543D01*
X5614876Y-18390543D02*
X5595829Y-18400067D01*
X5595829Y-18400067D02*
X5586305Y-18409590D01*
X5795829Y-18523876D02*
X5776781Y-18514352D01*
X5776781Y-18514352D02*
X5767257Y-18504829D01*
X5767257Y-18504829D02*
X5757733Y-18485781D01*
X5757733Y-18485781D02*
X5757733Y-18428638D01*
X5757733Y-18428638D02*
X5767257Y-18409590D01*
X5767257Y-18409590D02*
X5776781Y-18400067D01*
X5776781Y-18400067D02*
X5795829Y-18390543D01*
X5795829Y-18390543D02*
X5824400Y-18390543D01*
X5824400Y-18390543D02*
X5843448Y-18400067D01*
X5843448Y-18400067D02*
X5852972Y-18409590D01*
X5852972Y-18409590D02*
X5862495Y-18428638D01*
X5862495Y-18428638D02*
X5862495Y-18485781D01*
X5862495Y-18485781D02*
X5852972Y-18504829D01*
X5852972Y-18504829D02*
X5843448Y-18514352D01*
X5843448Y-18514352D02*
X5824400Y-18523876D01*
X5824400Y-18523876D02*
X5795829Y-18523876D01*
X5976781Y-18523876D02*
X5957733Y-18514352D01*
X5957733Y-18514352D02*
X5948210Y-18495305D01*
X5948210Y-18495305D02*
X5948210Y-18323876D01*
X6129162Y-18514352D02*
X6110114Y-18523876D01*
X6110114Y-18523876D02*
X6072019Y-18523876D01*
X6072019Y-18523876D02*
X6052972Y-18514352D01*
X6052972Y-18514352D02*
X6043448Y-18495305D01*
X6043448Y-18495305D02*
X6043448Y-18419114D01*
X6043448Y-18419114D02*
X6052972Y-18400067D01*
X6052972Y-18400067D02*
X6072019Y-18390543D01*
X6072019Y-18390543D02*
X6110114Y-18390543D01*
X6110114Y-18390543D02*
X6129162Y-18400067D01*
X6129162Y-18400067D02*
X6138686Y-18419114D01*
X6138686Y-18419114D02*
X6138686Y-18438162D01*
X6138686Y-18438162D02*
X6043448Y-18457210D01*
X6214876Y-18514352D02*
X6233924Y-18523876D01*
X6233924Y-18523876D02*
X6272019Y-18523876D01*
X6272019Y-18523876D02*
X6291067Y-18514352D01*
X6291067Y-18514352D02*
X6300591Y-18495305D01*
X6300591Y-18495305D02*
X6300591Y-18485781D01*
X6300591Y-18485781D02*
X6291067Y-18466733D01*
X6291067Y-18466733D02*
X6272019Y-18457210D01*
X6272019Y-18457210D02*
X6243448Y-18457210D01*
X6243448Y-18457210D02*
X6224400Y-18447686D01*
X6224400Y-18447686D02*
X6214876Y-18428638D01*
X6214876Y-18428638D02*
X6214876Y-18419114D01*
X6214876Y-18419114D02*
X6224400Y-18400067D01*
X6224400Y-18400067D02*
X6243448Y-18390543D01*
X6243448Y-18390543D02*
X6272019Y-18390543D01*
X6272019Y-18390543D02*
X6291067Y-18400067D01*
X6367257Y-18600067D02*
X6376781Y-18590543D01*
X6376781Y-18590543D02*
X6395829Y-18561971D01*
X6395829Y-18561971D02*
X6405353Y-18542924D01*
X6405353Y-18542924D02*
X6414876Y-18514352D01*
X6414876Y-18514352D02*
X6424400Y-18466733D01*
X6424400Y-18466733D02*
X6424400Y-18428638D01*
X6424400Y-18428638D02*
X6414876Y-18381019D01*
X6414876Y-18381019D02*
X6405353Y-18352448D01*
X6405353Y-18352448D02*
X6395829Y-18333400D01*
X6395829Y-18333400D02*
X6376781Y-18304829D01*
X6376781Y-18304829D02*
X6367257Y-18295305D01*
D13*
X1544400Y-18714400D02*
G75*
G03*
X1544400Y-18714400I-37500J0D01*
G01*
D11*
X1830114Y-18587876D02*
X1849162Y-18587876D01*
X1849162Y-18587876D02*
X1868209Y-18597400D01*
X1868209Y-18597400D02*
X1877733Y-18606924D01*
X1877733Y-18606924D02*
X1887257Y-18625971D01*
X1887257Y-18625971D02*
X1896781Y-18664067D01*
X1896781Y-18664067D02*
X1896781Y-18711686D01*
X1896781Y-18711686D02*
X1887257Y-18749781D01*
X1887257Y-18749781D02*
X1877733Y-18768829D01*
X1877733Y-18768829D02*
X1868209Y-18778352D01*
X1868209Y-18778352D02*
X1849162Y-18787876D01*
X1849162Y-18787876D02*
X1830114Y-18787876D01*
X1830114Y-18787876D02*
X1811067Y-18778352D01*
X1811067Y-18778352D02*
X1801543Y-18768829D01*
X1801543Y-18768829D02*
X1792019Y-18749781D01*
X1792019Y-18749781D02*
X1782495Y-18711686D01*
X1782495Y-18711686D02*
X1782495Y-18664067D01*
X1782495Y-18664067D02*
X1792019Y-18625971D01*
X1792019Y-18625971D02*
X1801543Y-18606924D01*
X1801543Y-18606924D02*
X1811067Y-18597400D01*
X1811067Y-18597400D02*
X1830114Y-18587876D01*
X1982495Y-18768829D02*
X1992019Y-18778352D01*
X1992019Y-18778352D02*
X1982495Y-18787876D01*
X1982495Y-18787876D02*
X1972971Y-18778352D01*
X1972971Y-18778352D02*
X1982495Y-18768829D01*
X1982495Y-18768829D02*
X1982495Y-18787876D01*
X2058686Y-18587876D02*
X2192019Y-18587876D01*
X2192019Y-18587876D02*
X2106305Y-18787876D01*
X2363448Y-18587876D02*
X2268210Y-18587876D01*
X2268210Y-18587876D02*
X2258686Y-18683114D01*
X2258686Y-18683114D02*
X2268210Y-18673590D01*
X2268210Y-18673590D02*
X2287257Y-18664067D01*
X2287257Y-18664067D02*
X2334876Y-18664067D01*
X2334876Y-18664067D02*
X2353924Y-18673590D01*
X2353924Y-18673590D02*
X2363448Y-18683114D01*
X2363448Y-18683114D02*
X2372971Y-18702162D01*
X2372971Y-18702162D02*
X2372971Y-18749781D01*
X2372971Y-18749781D02*
X2363448Y-18768829D01*
X2363448Y-18768829D02*
X2353924Y-18778352D01*
X2353924Y-18778352D02*
X2334876Y-18787876D01*
X2334876Y-18787876D02*
X2287257Y-18787876D01*
X2287257Y-18787876D02*
X2268210Y-18778352D01*
X2268210Y-18778352D02*
X2258686Y-18768829D01*
X2496781Y-18587876D02*
X2515829Y-18587876D01*
X2515829Y-18587876D02*
X2534876Y-18597400D01*
X2534876Y-18597400D02*
X2544400Y-18606924D01*
X2544400Y-18606924D02*
X2553924Y-18625971D01*
X2553924Y-18625971D02*
X2563448Y-18664067D01*
X2563448Y-18664067D02*
X2563448Y-18711686D01*
X2563448Y-18711686D02*
X2553924Y-18749781D01*
X2553924Y-18749781D02*
X2544400Y-18768829D01*
X2544400Y-18768829D02*
X2534876Y-18778352D01*
X2534876Y-18778352D02*
X2515829Y-18787876D01*
X2515829Y-18787876D02*
X2496781Y-18787876D01*
X2496781Y-18787876D02*
X2477733Y-18778352D01*
X2477733Y-18778352D02*
X2468210Y-18768829D01*
X2468210Y-18768829D02*
X2458686Y-18749781D01*
X2458686Y-18749781D02*
X2449162Y-18711686D01*
X2449162Y-18711686D02*
X2449162Y-18664067D01*
X2449162Y-18664067D02*
X2458686Y-18625971D01*
X2458686Y-18625971D02*
X2468210Y-18606924D01*
X2468210Y-18606924D02*
X2477733Y-18597400D01*
X2477733Y-18597400D02*
X2496781Y-18587876D01*
X2649162Y-18787876D02*
X2649162Y-18654543D01*
X2649162Y-18673590D02*
X2658686Y-18664067D01*
X2658686Y-18664067D02*
X2677733Y-18654543D01*
X2677733Y-18654543D02*
X2706305Y-18654543D01*
X2706305Y-18654543D02*
X2725352Y-18664067D01*
X2725352Y-18664067D02*
X2734876Y-18683114D01*
X2734876Y-18683114D02*
X2734876Y-18787876D01*
X2734876Y-18683114D02*
X2744400Y-18664067D01*
X2744400Y-18664067D02*
X2763448Y-18654543D01*
X2763448Y-18654543D02*
X2792019Y-18654543D01*
X2792019Y-18654543D02*
X2811067Y-18664067D01*
X2811067Y-18664067D02*
X2820590Y-18683114D01*
X2820590Y-18683114D02*
X2820590Y-18787876D01*
X2915829Y-18787876D02*
X2915829Y-18654543D01*
X2915829Y-18673590D02*
X2925352Y-18664067D01*
X2925352Y-18664067D02*
X2944400Y-18654543D01*
X2944400Y-18654543D02*
X2972971Y-18654543D01*
X2972971Y-18654543D02*
X2992019Y-18664067D01*
X2992019Y-18664067D02*
X3001543Y-18683114D01*
X3001543Y-18683114D02*
X3001543Y-18787876D01*
X3001543Y-18683114D02*
X3011067Y-18664067D01*
X3011067Y-18664067D02*
X3030114Y-18654543D01*
X3030114Y-18654543D02*
X3058686Y-18654543D01*
X3058686Y-18654543D02*
X3077733Y-18664067D01*
X3077733Y-18664067D02*
X3087257Y-18683114D01*
X3087257Y-18683114D02*
X3087257Y-18787876D01*
X3445352Y-18578352D02*
X3273924Y-18835495D01*
X3670114Y-18587876D02*
X3689162Y-18587876D01*
X3689162Y-18587876D02*
X3708210Y-18597400D01*
X3708210Y-18597400D02*
X3717733Y-18606924D01*
X3717733Y-18606924D02*
X3727257Y-18625971D01*
X3727257Y-18625971D02*
X3736781Y-18664067D01*
X3736781Y-18664067D02*
X3736781Y-18711686D01*
X3736781Y-18711686D02*
X3727257Y-18749781D01*
X3727257Y-18749781D02*
X3717733Y-18768829D01*
X3717733Y-18768829D02*
X3708210Y-18778352D01*
X3708210Y-18778352D02*
X3689162Y-18787876D01*
X3689162Y-18787876D02*
X3670114Y-18787876D01*
X3670114Y-18787876D02*
X3651067Y-18778352D01*
X3651067Y-18778352D02*
X3641543Y-18768829D01*
X3641543Y-18768829D02*
X3632019Y-18749781D01*
X3632019Y-18749781D02*
X3622495Y-18711686D01*
X3622495Y-18711686D02*
X3622495Y-18664067D01*
X3622495Y-18664067D02*
X3632019Y-18625971D01*
X3632019Y-18625971D02*
X3641543Y-18606924D01*
X3641543Y-18606924D02*
X3651067Y-18597400D01*
X3651067Y-18597400D02*
X3670114Y-18587876D01*
X3822495Y-18768829D02*
X3832019Y-18778352D01*
X3832019Y-18778352D02*
X3822495Y-18787876D01*
X3822495Y-18787876D02*
X3812971Y-18778352D01*
X3812971Y-18778352D02*
X3822495Y-18768829D01*
X3822495Y-18768829D02*
X3822495Y-18787876D01*
X3955829Y-18587876D02*
X3974876Y-18587876D01*
X3974876Y-18587876D02*
X3993924Y-18597400D01*
X3993924Y-18597400D02*
X4003448Y-18606924D01*
X4003448Y-18606924D02*
X4012971Y-18625971D01*
X4012971Y-18625971D02*
X4022495Y-18664067D01*
X4022495Y-18664067D02*
X4022495Y-18711686D01*
X4022495Y-18711686D02*
X4012971Y-18749781D01*
X4012971Y-18749781D02*
X4003448Y-18768829D01*
X4003448Y-18768829D02*
X3993924Y-18778352D01*
X3993924Y-18778352D02*
X3974876Y-18787876D01*
X3974876Y-18787876D02*
X3955829Y-18787876D01*
X3955829Y-18787876D02*
X3936781Y-18778352D01*
X3936781Y-18778352D02*
X3927257Y-18768829D01*
X3927257Y-18768829D02*
X3917733Y-18749781D01*
X3917733Y-18749781D02*
X3908210Y-18711686D01*
X3908210Y-18711686D02*
X3908210Y-18664067D01*
X3908210Y-18664067D02*
X3917733Y-18625971D01*
X3917733Y-18625971D02*
X3927257Y-18606924D01*
X3927257Y-18606924D02*
X3936781Y-18597400D01*
X3936781Y-18597400D02*
X3955829Y-18587876D01*
X4098686Y-18606924D02*
X4108210Y-18597400D01*
X4108210Y-18597400D02*
X4127257Y-18587876D01*
X4127257Y-18587876D02*
X4174876Y-18587876D01*
X4174876Y-18587876D02*
X4193924Y-18597400D01*
X4193924Y-18597400D02*
X4203448Y-18606924D01*
X4203448Y-18606924D02*
X4212972Y-18625971D01*
X4212972Y-18625971D02*
X4212972Y-18645019D01*
X4212972Y-18645019D02*
X4203448Y-18673590D01*
X4203448Y-18673590D02*
X4089162Y-18787876D01*
X4089162Y-18787876D02*
X4212972Y-18787876D01*
X4308210Y-18787876D02*
X4346305Y-18787876D01*
X4346305Y-18787876D02*
X4365353Y-18778352D01*
X4365353Y-18778352D02*
X4374876Y-18768829D01*
X4374876Y-18768829D02*
X4393924Y-18740257D01*
X4393924Y-18740257D02*
X4403448Y-18702162D01*
X4403448Y-18702162D02*
X4403448Y-18625971D01*
X4403448Y-18625971D02*
X4393924Y-18606924D01*
X4393924Y-18606924D02*
X4384400Y-18597400D01*
X4384400Y-18597400D02*
X4365353Y-18587876D01*
X4365353Y-18587876D02*
X4327257Y-18587876D01*
X4327257Y-18587876D02*
X4308210Y-18597400D01*
X4308210Y-18597400D02*
X4298686Y-18606924D01*
X4298686Y-18606924D02*
X4289162Y-18625971D01*
X4289162Y-18625971D02*
X4289162Y-18673590D01*
X4289162Y-18673590D02*
X4298686Y-18692638D01*
X4298686Y-18692638D02*
X4308210Y-18702162D01*
X4308210Y-18702162D02*
X4327257Y-18711686D01*
X4327257Y-18711686D02*
X4365353Y-18711686D01*
X4365353Y-18711686D02*
X4384400Y-18702162D01*
X4384400Y-18702162D02*
X4393924Y-18692638D01*
X4393924Y-18692638D02*
X4403448Y-18673590D01*
X4584400Y-18587876D02*
X4489162Y-18587876D01*
X4489162Y-18587876D02*
X4479638Y-18683114D01*
X4479638Y-18683114D02*
X4489162Y-18673590D01*
X4489162Y-18673590D02*
X4508210Y-18664067D01*
X4508210Y-18664067D02*
X4555829Y-18664067D01*
X4555829Y-18664067D02*
X4574876Y-18673590D01*
X4574876Y-18673590D02*
X4584400Y-18683114D01*
X4584400Y-18683114D02*
X4593924Y-18702162D01*
X4593924Y-18702162D02*
X4593924Y-18749781D01*
X4593924Y-18749781D02*
X4584400Y-18768829D01*
X4584400Y-18768829D02*
X4574876Y-18778352D01*
X4574876Y-18778352D02*
X4555829Y-18787876D01*
X4555829Y-18787876D02*
X4508210Y-18787876D01*
X4508210Y-18787876D02*
X4489162Y-18778352D01*
X4489162Y-18778352D02*
X4479638Y-18768829D01*
X4670114Y-18587876D02*
X4670114Y-18625971D01*
X4746305Y-18587876D02*
X4746305Y-18625971D01*
X5009162Y-18864067D02*
X4999638Y-18854543D01*
X4999638Y-18854543D02*
X4980591Y-18825971D01*
X4980591Y-18825971D02*
X4971067Y-18806924D01*
X4971067Y-18806924D02*
X4961543Y-18778352D01*
X4961543Y-18778352D02*
X4952019Y-18730733D01*
X4952019Y-18730733D02*
X4952019Y-18692638D01*
X4952019Y-18692638D02*
X4961543Y-18645019D01*
X4961543Y-18645019D02*
X4971067Y-18616448D01*
X4971067Y-18616448D02*
X4980591Y-18597400D01*
X4980591Y-18597400D02*
X4999638Y-18568829D01*
X4999638Y-18568829D02*
X5009162Y-18559305D01*
X5190114Y-18787876D02*
X5075829Y-18787876D01*
X5132972Y-18787876D02*
X5132972Y-18587876D01*
X5132972Y-18587876D02*
X5113924Y-18616448D01*
X5113924Y-18616448D02*
X5094876Y-18635495D01*
X5094876Y-18635495D02*
X5075829Y-18645019D01*
X5266305Y-18606924D02*
X5275829Y-18597400D01*
X5275829Y-18597400D02*
X5294876Y-18587876D01*
X5294876Y-18587876D02*
X5342495Y-18587876D01*
X5342495Y-18587876D02*
X5361543Y-18597400D01*
X5361543Y-18597400D02*
X5371067Y-18606924D01*
X5371067Y-18606924D02*
X5380591Y-18625971D01*
X5380591Y-18625971D02*
X5380591Y-18645019D01*
X5380591Y-18645019D02*
X5371067Y-18673590D01*
X5371067Y-18673590D02*
X5256781Y-18787876D01*
X5256781Y-18787876D02*
X5380591Y-18787876D01*
X5586305Y-18787876D02*
X5586305Y-18587876D01*
X5672019Y-18787876D02*
X5672019Y-18683114D01*
X5672019Y-18683114D02*
X5662495Y-18664067D01*
X5662495Y-18664067D02*
X5643448Y-18654543D01*
X5643448Y-18654543D02*
X5614876Y-18654543D01*
X5614876Y-18654543D02*
X5595829Y-18664067D01*
X5595829Y-18664067D02*
X5586305Y-18673590D01*
X5795829Y-18787876D02*
X5776781Y-18778352D01*
X5776781Y-18778352D02*
X5767257Y-18768829D01*
X5767257Y-18768829D02*
X5757733Y-18749781D01*
X5757733Y-18749781D02*
X5757733Y-18692638D01*
X5757733Y-18692638D02*
X5767257Y-18673590D01*
X5767257Y-18673590D02*
X5776781Y-18664067D01*
X5776781Y-18664067D02*
X5795829Y-18654543D01*
X5795829Y-18654543D02*
X5824400Y-18654543D01*
X5824400Y-18654543D02*
X5843448Y-18664067D01*
X5843448Y-18664067D02*
X5852972Y-18673590D01*
X5852972Y-18673590D02*
X5862495Y-18692638D01*
X5862495Y-18692638D02*
X5862495Y-18749781D01*
X5862495Y-18749781D02*
X5852972Y-18768829D01*
X5852972Y-18768829D02*
X5843448Y-18778352D01*
X5843448Y-18778352D02*
X5824400Y-18787876D01*
X5824400Y-18787876D02*
X5795829Y-18787876D01*
X5976781Y-18787876D02*
X5957733Y-18778352D01*
X5957733Y-18778352D02*
X5948210Y-18759305D01*
X5948210Y-18759305D02*
X5948210Y-18587876D01*
X6129162Y-18778352D02*
X6110114Y-18787876D01*
X6110114Y-18787876D02*
X6072019Y-18787876D01*
X6072019Y-18787876D02*
X6052972Y-18778352D01*
X6052972Y-18778352D02*
X6043448Y-18759305D01*
X6043448Y-18759305D02*
X6043448Y-18683114D01*
X6043448Y-18683114D02*
X6052972Y-18664067D01*
X6052972Y-18664067D02*
X6072019Y-18654543D01*
X6072019Y-18654543D02*
X6110114Y-18654543D01*
X6110114Y-18654543D02*
X6129162Y-18664067D01*
X6129162Y-18664067D02*
X6138686Y-18683114D01*
X6138686Y-18683114D02*
X6138686Y-18702162D01*
X6138686Y-18702162D02*
X6043448Y-18721210D01*
X6214876Y-18778352D02*
X6233924Y-18787876D01*
X6233924Y-18787876D02*
X6272019Y-18787876D01*
X6272019Y-18787876D02*
X6291067Y-18778352D01*
X6291067Y-18778352D02*
X6300591Y-18759305D01*
X6300591Y-18759305D02*
X6300591Y-18749781D01*
X6300591Y-18749781D02*
X6291067Y-18730733D01*
X6291067Y-18730733D02*
X6272019Y-18721210D01*
X6272019Y-18721210D02*
X6243448Y-18721210D01*
X6243448Y-18721210D02*
X6224400Y-18711686D01*
X6224400Y-18711686D02*
X6214876Y-18692638D01*
X6214876Y-18692638D02*
X6214876Y-18683114D01*
X6214876Y-18683114D02*
X6224400Y-18664067D01*
X6224400Y-18664067D02*
X6243448Y-18654543D01*
X6243448Y-18654543D02*
X6272019Y-18654543D01*
X6272019Y-18654543D02*
X6291067Y-18664067D01*
X6367257Y-18864067D02*
X6376781Y-18854543D01*
X6376781Y-18854543D02*
X6395829Y-18825971D01*
X6395829Y-18825971D02*
X6405353Y-18806924D01*
X6405353Y-18806924D02*
X6414876Y-18778352D01*
X6414876Y-18778352D02*
X6424400Y-18730733D01*
X6424400Y-18730733D02*
X6424400Y-18692638D01*
X6424400Y-18692638D02*
X6414876Y-18645019D01*
X6414876Y-18645019D02*
X6405353Y-18616448D01*
X6405353Y-18616448D02*
X6395829Y-18597400D01*
X6395829Y-18597400D02*
X6376781Y-18568829D01*
X6376781Y-18568829D02*
X6367257Y-18559305D01*
D14*
X1499400Y-18933400D02*
X1499400Y-19023400D01*
X1454400Y-18978400D02*
X1544400Y-18978400D01*
D11*
X1830114Y-18851876D02*
X1849162Y-18851876D01*
X1849162Y-18851876D02*
X1868209Y-18861400D01*
X1868209Y-18861400D02*
X1877733Y-18870924D01*
X1877733Y-18870924D02*
X1887257Y-18889971D01*
X1887257Y-18889971D02*
X1896781Y-18928067D01*
X1896781Y-18928067D02*
X1896781Y-18975686D01*
X1896781Y-18975686D02*
X1887257Y-19013781D01*
X1887257Y-19013781D02*
X1877733Y-19032829D01*
X1877733Y-19032829D02*
X1868209Y-19042352D01*
X1868209Y-19042352D02*
X1849162Y-19051876D01*
X1849162Y-19051876D02*
X1830114Y-19051876D01*
X1830114Y-19051876D02*
X1811067Y-19042352D01*
X1811067Y-19042352D02*
X1801543Y-19032829D01*
X1801543Y-19032829D02*
X1792019Y-19013781D01*
X1792019Y-19013781D02*
X1782495Y-18975686D01*
X1782495Y-18975686D02*
X1782495Y-18928067D01*
X1782495Y-18928067D02*
X1792019Y-18889971D01*
X1792019Y-18889971D02*
X1801543Y-18870924D01*
X1801543Y-18870924D02*
X1811067Y-18861400D01*
X1811067Y-18861400D02*
X1830114Y-18851876D01*
X1982495Y-19032829D02*
X1992019Y-19042352D01*
X1992019Y-19042352D02*
X1982495Y-19051876D01*
X1982495Y-19051876D02*
X1972971Y-19042352D01*
X1972971Y-19042352D02*
X1982495Y-19032829D01*
X1982495Y-19032829D02*
X1982495Y-19051876D01*
X2087257Y-19051876D02*
X2125352Y-19051876D01*
X2125352Y-19051876D02*
X2144400Y-19042352D01*
X2144400Y-19042352D02*
X2153924Y-19032829D01*
X2153924Y-19032829D02*
X2172971Y-19004257D01*
X2172971Y-19004257D02*
X2182495Y-18966162D01*
X2182495Y-18966162D02*
X2182495Y-18889971D01*
X2182495Y-18889971D02*
X2172971Y-18870924D01*
X2172971Y-18870924D02*
X2163448Y-18861400D01*
X2163448Y-18861400D02*
X2144400Y-18851876D01*
X2144400Y-18851876D02*
X2106305Y-18851876D01*
X2106305Y-18851876D02*
X2087257Y-18861400D01*
X2087257Y-18861400D02*
X2077733Y-18870924D01*
X2077733Y-18870924D02*
X2068209Y-18889971D01*
X2068209Y-18889971D02*
X2068209Y-18937590D01*
X2068209Y-18937590D02*
X2077733Y-18956638D01*
X2077733Y-18956638D02*
X2087257Y-18966162D01*
X2087257Y-18966162D02*
X2106305Y-18975686D01*
X2106305Y-18975686D02*
X2144400Y-18975686D01*
X2144400Y-18975686D02*
X2163448Y-18966162D01*
X2163448Y-18966162D02*
X2172971Y-18956638D01*
X2172971Y-18956638D02*
X2182495Y-18937590D01*
X2306305Y-18851876D02*
X2325352Y-18851876D01*
X2325352Y-18851876D02*
X2344400Y-18861400D01*
X2344400Y-18861400D02*
X2353924Y-18870924D01*
X2353924Y-18870924D02*
X2363448Y-18889971D01*
X2363448Y-18889971D02*
X2372971Y-18928067D01*
X2372971Y-18928067D02*
X2372971Y-18975686D01*
X2372971Y-18975686D02*
X2363448Y-19013781D01*
X2363448Y-19013781D02*
X2353924Y-19032829D01*
X2353924Y-19032829D02*
X2344400Y-19042352D01*
X2344400Y-19042352D02*
X2325352Y-19051876D01*
X2325352Y-19051876D02*
X2306305Y-19051876D01*
X2306305Y-19051876D02*
X2287257Y-19042352D01*
X2287257Y-19042352D02*
X2277733Y-19032829D01*
X2277733Y-19032829D02*
X2268210Y-19013781D01*
X2268210Y-19013781D02*
X2258686Y-18975686D01*
X2258686Y-18975686D02*
X2258686Y-18928067D01*
X2258686Y-18928067D02*
X2268210Y-18889971D01*
X2268210Y-18889971D02*
X2277733Y-18870924D01*
X2277733Y-18870924D02*
X2287257Y-18861400D01*
X2287257Y-18861400D02*
X2306305Y-18851876D01*
X2496781Y-18851876D02*
X2515829Y-18851876D01*
X2515829Y-18851876D02*
X2534876Y-18861400D01*
X2534876Y-18861400D02*
X2544400Y-18870924D01*
X2544400Y-18870924D02*
X2553924Y-18889971D01*
X2553924Y-18889971D02*
X2563448Y-18928067D01*
X2563448Y-18928067D02*
X2563448Y-18975686D01*
X2563448Y-18975686D02*
X2553924Y-19013781D01*
X2553924Y-19013781D02*
X2544400Y-19032829D01*
X2544400Y-19032829D02*
X2534876Y-19042352D01*
X2534876Y-19042352D02*
X2515829Y-19051876D01*
X2515829Y-19051876D02*
X2496781Y-19051876D01*
X2496781Y-19051876D02*
X2477733Y-19042352D01*
X2477733Y-19042352D02*
X2468210Y-19032829D01*
X2468210Y-19032829D02*
X2458686Y-19013781D01*
X2458686Y-19013781D02*
X2449162Y-18975686D01*
X2449162Y-18975686D02*
X2449162Y-18928067D01*
X2449162Y-18928067D02*
X2458686Y-18889971D01*
X2458686Y-18889971D02*
X2468210Y-18870924D01*
X2468210Y-18870924D02*
X2477733Y-18861400D01*
X2477733Y-18861400D02*
X2496781Y-18851876D01*
X2649162Y-19051876D02*
X2649162Y-18918543D01*
X2649162Y-18937590D02*
X2658686Y-18928067D01*
X2658686Y-18928067D02*
X2677733Y-18918543D01*
X2677733Y-18918543D02*
X2706305Y-18918543D01*
X2706305Y-18918543D02*
X2725352Y-18928067D01*
X2725352Y-18928067D02*
X2734876Y-18947114D01*
X2734876Y-18947114D02*
X2734876Y-19051876D01*
X2734876Y-18947114D02*
X2744400Y-18928067D01*
X2744400Y-18928067D02*
X2763448Y-18918543D01*
X2763448Y-18918543D02*
X2792019Y-18918543D01*
X2792019Y-18918543D02*
X2811067Y-18928067D01*
X2811067Y-18928067D02*
X2820590Y-18947114D01*
X2820590Y-18947114D02*
X2820590Y-19051876D01*
X2915829Y-19051876D02*
X2915829Y-18918543D01*
X2915829Y-18937590D02*
X2925352Y-18928067D01*
X2925352Y-18928067D02*
X2944400Y-18918543D01*
X2944400Y-18918543D02*
X2972971Y-18918543D01*
X2972971Y-18918543D02*
X2992019Y-18928067D01*
X2992019Y-18928067D02*
X3001543Y-18947114D01*
X3001543Y-18947114D02*
X3001543Y-19051876D01*
X3001543Y-18947114D02*
X3011067Y-18928067D01*
X3011067Y-18928067D02*
X3030114Y-18918543D01*
X3030114Y-18918543D02*
X3058686Y-18918543D01*
X3058686Y-18918543D02*
X3077733Y-18928067D01*
X3077733Y-18928067D02*
X3087257Y-18947114D01*
X3087257Y-18947114D02*
X3087257Y-19051876D01*
X3445352Y-18842352D02*
X3273924Y-19099495D01*
X3670114Y-18851876D02*
X3689162Y-18851876D01*
X3689162Y-18851876D02*
X3708210Y-18861400D01*
X3708210Y-18861400D02*
X3717733Y-18870924D01*
X3717733Y-18870924D02*
X3727257Y-18889971D01*
X3727257Y-18889971D02*
X3736781Y-18928067D01*
X3736781Y-18928067D02*
X3736781Y-18975686D01*
X3736781Y-18975686D02*
X3727257Y-19013781D01*
X3727257Y-19013781D02*
X3717733Y-19032829D01*
X3717733Y-19032829D02*
X3708210Y-19042352D01*
X3708210Y-19042352D02*
X3689162Y-19051876D01*
X3689162Y-19051876D02*
X3670114Y-19051876D01*
X3670114Y-19051876D02*
X3651067Y-19042352D01*
X3651067Y-19042352D02*
X3641543Y-19032829D01*
X3641543Y-19032829D02*
X3632019Y-19013781D01*
X3632019Y-19013781D02*
X3622495Y-18975686D01*
X3622495Y-18975686D02*
X3622495Y-18928067D01*
X3622495Y-18928067D02*
X3632019Y-18889971D01*
X3632019Y-18889971D02*
X3641543Y-18870924D01*
X3641543Y-18870924D02*
X3651067Y-18861400D01*
X3651067Y-18861400D02*
X3670114Y-18851876D01*
X3822495Y-19032829D02*
X3832019Y-19042352D01*
X3832019Y-19042352D02*
X3822495Y-19051876D01*
X3822495Y-19051876D02*
X3812971Y-19042352D01*
X3812971Y-19042352D02*
X3822495Y-19032829D01*
X3822495Y-19032829D02*
X3822495Y-19051876D01*
X3955829Y-18851876D02*
X3974876Y-18851876D01*
X3974876Y-18851876D02*
X3993924Y-18861400D01*
X3993924Y-18861400D02*
X4003448Y-18870924D01*
X4003448Y-18870924D02*
X4012971Y-18889971D01*
X4012971Y-18889971D02*
X4022495Y-18928067D01*
X4022495Y-18928067D02*
X4022495Y-18975686D01*
X4022495Y-18975686D02*
X4012971Y-19013781D01*
X4012971Y-19013781D02*
X4003448Y-19032829D01*
X4003448Y-19032829D02*
X3993924Y-19042352D01*
X3993924Y-19042352D02*
X3974876Y-19051876D01*
X3974876Y-19051876D02*
X3955829Y-19051876D01*
X3955829Y-19051876D02*
X3936781Y-19042352D01*
X3936781Y-19042352D02*
X3927257Y-19032829D01*
X3927257Y-19032829D02*
X3917733Y-19013781D01*
X3917733Y-19013781D02*
X3908210Y-18975686D01*
X3908210Y-18975686D02*
X3908210Y-18928067D01*
X3908210Y-18928067D02*
X3917733Y-18889971D01*
X3917733Y-18889971D02*
X3927257Y-18870924D01*
X3927257Y-18870924D02*
X3936781Y-18861400D01*
X3936781Y-18861400D02*
X3955829Y-18851876D01*
X4089162Y-18851876D02*
X4212972Y-18851876D01*
X4212972Y-18851876D02*
X4146305Y-18928067D01*
X4146305Y-18928067D02*
X4174876Y-18928067D01*
X4174876Y-18928067D02*
X4193924Y-18937590D01*
X4193924Y-18937590D02*
X4203448Y-18947114D01*
X4203448Y-18947114D02*
X4212972Y-18966162D01*
X4212972Y-18966162D02*
X4212972Y-19013781D01*
X4212972Y-19013781D02*
X4203448Y-19032829D01*
X4203448Y-19032829D02*
X4193924Y-19042352D01*
X4193924Y-19042352D02*
X4174876Y-19051876D01*
X4174876Y-19051876D02*
X4117733Y-19051876D01*
X4117733Y-19051876D02*
X4098686Y-19042352D01*
X4098686Y-19042352D02*
X4089162Y-19032829D01*
X4393924Y-18851876D02*
X4298686Y-18851876D01*
X4298686Y-18851876D02*
X4289162Y-18947114D01*
X4289162Y-18947114D02*
X4298686Y-18937590D01*
X4298686Y-18937590D02*
X4317733Y-18928067D01*
X4317733Y-18928067D02*
X4365353Y-18928067D01*
X4365353Y-18928067D02*
X4384400Y-18937590D01*
X4384400Y-18937590D02*
X4393924Y-18947114D01*
X4393924Y-18947114D02*
X4403448Y-18966162D01*
X4403448Y-18966162D02*
X4403448Y-19013781D01*
X4403448Y-19013781D02*
X4393924Y-19032829D01*
X4393924Y-19032829D02*
X4384400Y-19042352D01*
X4384400Y-19042352D02*
X4365353Y-19051876D01*
X4365353Y-19051876D02*
X4317733Y-19051876D01*
X4317733Y-19051876D02*
X4298686Y-19042352D01*
X4298686Y-19042352D02*
X4289162Y-19032829D01*
X4574876Y-18918543D02*
X4574876Y-19051876D01*
X4527257Y-18842352D02*
X4479638Y-18985210D01*
X4479638Y-18985210D02*
X4603448Y-18985210D01*
X4670114Y-18851876D02*
X4670114Y-18889971D01*
X4746305Y-18851876D02*
X4746305Y-18889971D01*
X5009162Y-19128067D02*
X4999638Y-19118543D01*
X4999638Y-19118543D02*
X4980591Y-19089971D01*
X4980591Y-19089971D02*
X4971067Y-19070924D01*
X4971067Y-19070924D02*
X4961543Y-19042352D01*
X4961543Y-19042352D02*
X4952019Y-18994733D01*
X4952019Y-18994733D02*
X4952019Y-18956638D01*
X4952019Y-18956638D02*
X4961543Y-18909019D01*
X4961543Y-18909019D02*
X4971067Y-18880448D01*
X4971067Y-18880448D02*
X4980591Y-18861400D01*
X4980591Y-18861400D02*
X4999638Y-18832829D01*
X4999638Y-18832829D02*
X5009162Y-18823305D01*
X5171067Y-18851876D02*
X5132972Y-18851876D01*
X5132972Y-18851876D02*
X5113924Y-18861400D01*
X5113924Y-18861400D02*
X5104400Y-18870924D01*
X5104400Y-18870924D02*
X5085353Y-18899495D01*
X5085353Y-18899495D02*
X5075829Y-18937590D01*
X5075829Y-18937590D02*
X5075829Y-19013781D01*
X5075829Y-19013781D02*
X5085353Y-19032829D01*
X5085353Y-19032829D02*
X5094876Y-19042352D01*
X5094876Y-19042352D02*
X5113924Y-19051876D01*
X5113924Y-19051876D02*
X5152019Y-19051876D01*
X5152019Y-19051876D02*
X5171067Y-19042352D01*
X5171067Y-19042352D02*
X5180591Y-19032829D01*
X5180591Y-19032829D02*
X5190114Y-19013781D01*
X5190114Y-19013781D02*
X5190114Y-18966162D01*
X5190114Y-18966162D02*
X5180591Y-18947114D01*
X5180591Y-18947114D02*
X5171067Y-18937590D01*
X5171067Y-18937590D02*
X5152019Y-18928067D01*
X5152019Y-18928067D02*
X5113924Y-18928067D01*
X5113924Y-18928067D02*
X5094876Y-18937590D01*
X5094876Y-18937590D02*
X5085353Y-18947114D01*
X5085353Y-18947114D02*
X5075829Y-18966162D01*
X5395829Y-19051876D02*
X5395829Y-18851876D01*
X5481543Y-19051876D02*
X5481543Y-18947114D01*
X5481543Y-18947114D02*
X5472019Y-18928067D01*
X5472019Y-18928067D02*
X5452972Y-18918543D01*
X5452972Y-18918543D02*
X5424400Y-18918543D01*
X5424400Y-18918543D02*
X5405353Y-18928067D01*
X5405353Y-18928067D02*
X5395829Y-18937590D01*
X5605352Y-19051876D02*
X5586305Y-19042352D01*
X5586305Y-19042352D02*
X5576781Y-19032829D01*
X5576781Y-19032829D02*
X5567257Y-19013781D01*
X5567257Y-19013781D02*
X5567257Y-18956638D01*
X5567257Y-18956638D02*
X5576781Y-18937590D01*
X5576781Y-18937590D02*
X5586305Y-18928067D01*
X5586305Y-18928067D02*
X5605352Y-18918543D01*
X5605352Y-18918543D02*
X5633924Y-18918543D01*
X5633924Y-18918543D02*
X5652972Y-18928067D01*
X5652972Y-18928067D02*
X5662495Y-18937590D01*
X5662495Y-18937590D02*
X5672019Y-18956638D01*
X5672019Y-18956638D02*
X5672019Y-19013781D01*
X5672019Y-19013781D02*
X5662495Y-19032829D01*
X5662495Y-19032829D02*
X5652972Y-19042352D01*
X5652972Y-19042352D02*
X5633924Y-19051876D01*
X5633924Y-19051876D02*
X5605352Y-19051876D01*
X5786305Y-19051876D02*
X5767257Y-19042352D01*
X5767257Y-19042352D02*
X5757733Y-19023305D01*
X5757733Y-19023305D02*
X5757733Y-18851876D01*
X5938686Y-19042352D02*
X5919638Y-19051876D01*
X5919638Y-19051876D02*
X5881543Y-19051876D01*
X5881543Y-19051876D02*
X5862495Y-19042352D01*
X5862495Y-19042352D02*
X5852972Y-19023305D01*
X5852972Y-19023305D02*
X5852972Y-18947114D01*
X5852972Y-18947114D02*
X5862495Y-18928067D01*
X5862495Y-18928067D02*
X5881543Y-18918543D01*
X5881543Y-18918543D02*
X5919638Y-18918543D01*
X5919638Y-18918543D02*
X5938686Y-18928067D01*
X5938686Y-18928067D02*
X5948210Y-18947114D01*
X5948210Y-18947114D02*
X5948210Y-18966162D01*
X5948210Y-18966162D02*
X5852972Y-18985210D01*
X6024400Y-19042352D02*
X6043448Y-19051876D01*
X6043448Y-19051876D02*
X6081543Y-19051876D01*
X6081543Y-19051876D02*
X6100591Y-19042352D01*
X6100591Y-19042352D02*
X6110114Y-19023305D01*
X6110114Y-19023305D02*
X6110114Y-19013781D01*
X6110114Y-19013781D02*
X6100591Y-18994733D01*
X6100591Y-18994733D02*
X6081543Y-18985210D01*
X6081543Y-18985210D02*
X6052972Y-18985210D01*
X6052972Y-18985210D02*
X6033924Y-18975686D01*
X6033924Y-18975686D02*
X6024400Y-18956638D01*
X6024400Y-18956638D02*
X6024400Y-18947114D01*
X6024400Y-18947114D02*
X6033924Y-18928067D01*
X6033924Y-18928067D02*
X6052972Y-18918543D01*
X6052972Y-18918543D02*
X6081543Y-18918543D01*
X6081543Y-18918543D02*
X6100591Y-18928067D01*
X6176781Y-19128067D02*
X6186305Y-19118543D01*
X6186305Y-19118543D02*
X6205353Y-19089971D01*
X6205353Y-19089971D02*
X6214876Y-19070924D01*
X6214876Y-19070924D02*
X6224400Y-19042352D01*
X6224400Y-19042352D02*
X6233924Y-18994733D01*
X6233924Y-18994733D02*
X6233924Y-18956638D01*
X6233924Y-18956638D02*
X6224400Y-18909019D01*
X6224400Y-18909019D02*
X6214876Y-18880448D01*
X6214876Y-18880448D02*
X6205353Y-18861400D01*
X6205353Y-18861400D02*
X6186305Y-18832829D01*
X6186305Y-18832829D02*
X6176781Y-18823305D01*
D10*
X1529756Y-19277756D02*
X1529756Y-19207044D01*
X1459044Y-19207044D01*
X1459044Y-19277756D01*
X1529756Y-19277756D01*
D11*
X1896781Y-19315876D02*
X1782495Y-19315876D01*
X1839638Y-19315876D02*
X1839638Y-19115876D01*
X1839638Y-19115876D02*
X1820590Y-19144448D01*
X1820590Y-19144448D02*
X1801543Y-19163495D01*
X1801543Y-19163495D02*
X1782495Y-19173019D01*
X1982495Y-19296829D02*
X1992019Y-19306352D01*
X1992019Y-19306352D02*
X1982495Y-19315876D01*
X1982495Y-19315876D02*
X1972971Y-19306352D01*
X1972971Y-19306352D02*
X1982495Y-19296829D01*
X1982495Y-19296829D02*
X1982495Y-19315876D01*
X2115829Y-19115876D02*
X2134876Y-19115876D01*
X2134876Y-19115876D02*
X2153924Y-19125400D01*
X2153924Y-19125400D02*
X2163448Y-19134924D01*
X2163448Y-19134924D02*
X2172971Y-19153971D01*
X2172971Y-19153971D02*
X2182495Y-19192067D01*
X2182495Y-19192067D02*
X2182495Y-19239686D01*
X2182495Y-19239686D02*
X2172971Y-19277781D01*
X2172971Y-19277781D02*
X2163448Y-19296829D01*
X2163448Y-19296829D02*
X2153924Y-19306352D01*
X2153924Y-19306352D02*
X2134876Y-19315876D01*
X2134876Y-19315876D02*
X2115829Y-19315876D01*
X2115829Y-19315876D02*
X2096781Y-19306352D01*
X2096781Y-19306352D02*
X2087257Y-19296829D01*
X2087257Y-19296829D02*
X2077733Y-19277781D01*
X2077733Y-19277781D02*
X2068209Y-19239686D01*
X2068209Y-19239686D02*
X2068209Y-19192067D01*
X2068209Y-19192067D02*
X2077733Y-19153971D01*
X2077733Y-19153971D02*
X2087257Y-19134924D01*
X2087257Y-19134924D02*
X2096781Y-19125400D01*
X2096781Y-19125400D02*
X2115829Y-19115876D01*
X2306305Y-19115876D02*
X2325352Y-19115876D01*
X2325352Y-19115876D02*
X2344400Y-19125400D01*
X2344400Y-19125400D02*
X2353924Y-19134924D01*
X2353924Y-19134924D02*
X2363448Y-19153971D01*
X2363448Y-19153971D02*
X2372971Y-19192067D01*
X2372971Y-19192067D02*
X2372971Y-19239686D01*
X2372971Y-19239686D02*
X2363448Y-19277781D01*
X2363448Y-19277781D02*
X2353924Y-19296829D01*
X2353924Y-19296829D02*
X2344400Y-19306352D01*
X2344400Y-19306352D02*
X2325352Y-19315876D01*
X2325352Y-19315876D02*
X2306305Y-19315876D01*
X2306305Y-19315876D02*
X2287257Y-19306352D01*
X2287257Y-19306352D02*
X2277733Y-19296829D01*
X2277733Y-19296829D02*
X2268210Y-19277781D01*
X2268210Y-19277781D02*
X2258686Y-19239686D01*
X2258686Y-19239686D02*
X2258686Y-19192067D01*
X2258686Y-19192067D02*
X2268210Y-19153971D01*
X2268210Y-19153971D02*
X2277733Y-19134924D01*
X2277733Y-19134924D02*
X2287257Y-19125400D01*
X2287257Y-19125400D02*
X2306305Y-19115876D01*
X2496781Y-19115876D02*
X2515829Y-19115876D01*
X2515829Y-19115876D02*
X2534876Y-19125400D01*
X2534876Y-19125400D02*
X2544400Y-19134924D01*
X2544400Y-19134924D02*
X2553924Y-19153971D01*
X2553924Y-19153971D02*
X2563448Y-19192067D01*
X2563448Y-19192067D02*
X2563448Y-19239686D01*
X2563448Y-19239686D02*
X2553924Y-19277781D01*
X2553924Y-19277781D02*
X2544400Y-19296829D01*
X2544400Y-19296829D02*
X2534876Y-19306352D01*
X2534876Y-19306352D02*
X2515829Y-19315876D01*
X2515829Y-19315876D02*
X2496781Y-19315876D01*
X2496781Y-19315876D02*
X2477733Y-19306352D01*
X2477733Y-19306352D02*
X2468210Y-19296829D01*
X2468210Y-19296829D02*
X2458686Y-19277781D01*
X2458686Y-19277781D02*
X2449162Y-19239686D01*
X2449162Y-19239686D02*
X2449162Y-19192067D01*
X2449162Y-19192067D02*
X2458686Y-19153971D01*
X2458686Y-19153971D02*
X2468210Y-19134924D01*
X2468210Y-19134924D02*
X2477733Y-19125400D01*
X2477733Y-19125400D02*
X2496781Y-19115876D01*
X2649162Y-19315876D02*
X2649162Y-19182543D01*
X2649162Y-19201590D02*
X2658686Y-19192067D01*
X2658686Y-19192067D02*
X2677733Y-19182543D01*
X2677733Y-19182543D02*
X2706305Y-19182543D01*
X2706305Y-19182543D02*
X2725352Y-19192067D01*
X2725352Y-19192067D02*
X2734876Y-19211114D01*
X2734876Y-19211114D02*
X2734876Y-19315876D01*
X2734876Y-19211114D02*
X2744400Y-19192067D01*
X2744400Y-19192067D02*
X2763448Y-19182543D01*
X2763448Y-19182543D02*
X2792019Y-19182543D01*
X2792019Y-19182543D02*
X2811067Y-19192067D01*
X2811067Y-19192067D02*
X2820590Y-19211114D01*
X2820590Y-19211114D02*
X2820590Y-19315876D01*
X2915829Y-19315876D02*
X2915829Y-19182543D01*
X2915829Y-19201590D02*
X2925352Y-19192067D01*
X2925352Y-19192067D02*
X2944400Y-19182543D01*
X2944400Y-19182543D02*
X2972971Y-19182543D01*
X2972971Y-19182543D02*
X2992019Y-19192067D01*
X2992019Y-19192067D02*
X3001543Y-19211114D01*
X3001543Y-19211114D02*
X3001543Y-19315876D01*
X3001543Y-19211114D02*
X3011067Y-19192067D01*
X3011067Y-19192067D02*
X3030114Y-19182543D01*
X3030114Y-19182543D02*
X3058686Y-19182543D01*
X3058686Y-19182543D02*
X3077733Y-19192067D01*
X3077733Y-19192067D02*
X3087257Y-19211114D01*
X3087257Y-19211114D02*
X3087257Y-19315876D01*
X3445352Y-19106352D02*
X3273924Y-19363495D01*
X3670114Y-19115876D02*
X3689162Y-19115876D01*
X3689162Y-19115876D02*
X3708210Y-19125400D01*
X3708210Y-19125400D02*
X3717733Y-19134924D01*
X3717733Y-19134924D02*
X3727257Y-19153971D01*
X3727257Y-19153971D02*
X3736781Y-19192067D01*
X3736781Y-19192067D02*
X3736781Y-19239686D01*
X3736781Y-19239686D02*
X3727257Y-19277781D01*
X3727257Y-19277781D02*
X3717733Y-19296829D01*
X3717733Y-19296829D02*
X3708210Y-19306352D01*
X3708210Y-19306352D02*
X3689162Y-19315876D01*
X3689162Y-19315876D02*
X3670114Y-19315876D01*
X3670114Y-19315876D02*
X3651067Y-19306352D01*
X3651067Y-19306352D02*
X3641543Y-19296829D01*
X3641543Y-19296829D02*
X3632019Y-19277781D01*
X3632019Y-19277781D02*
X3622495Y-19239686D01*
X3622495Y-19239686D02*
X3622495Y-19192067D01*
X3622495Y-19192067D02*
X3632019Y-19153971D01*
X3632019Y-19153971D02*
X3641543Y-19134924D01*
X3641543Y-19134924D02*
X3651067Y-19125400D01*
X3651067Y-19125400D02*
X3670114Y-19115876D01*
X3822495Y-19296829D02*
X3832019Y-19306352D01*
X3832019Y-19306352D02*
X3822495Y-19315876D01*
X3822495Y-19315876D02*
X3812971Y-19306352D01*
X3812971Y-19306352D02*
X3822495Y-19296829D01*
X3822495Y-19296829D02*
X3822495Y-19315876D01*
X3955829Y-19115876D02*
X3974876Y-19115876D01*
X3974876Y-19115876D02*
X3993924Y-19125400D01*
X3993924Y-19125400D02*
X4003448Y-19134924D01*
X4003448Y-19134924D02*
X4012971Y-19153971D01*
X4012971Y-19153971D02*
X4022495Y-19192067D01*
X4022495Y-19192067D02*
X4022495Y-19239686D01*
X4022495Y-19239686D02*
X4012971Y-19277781D01*
X4012971Y-19277781D02*
X4003448Y-19296829D01*
X4003448Y-19296829D02*
X3993924Y-19306352D01*
X3993924Y-19306352D02*
X3974876Y-19315876D01*
X3974876Y-19315876D02*
X3955829Y-19315876D01*
X3955829Y-19315876D02*
X3936781Y-19306352D01*
X3936781Y-19306352D02*
X3927257Y-19296829D01*
X3927257Y-19296829D02*
X3917733Y-19277781D01*
X3917733Y-19277781D02*
X3908210Y-19239686D01*
X3908210Y-19239686D02*
X3908210Y-19192067D01*
X3908210Y-19192067D02*
X3917733Y-19153971D01*
X3917733Y-19153971D02*
X3927257Y-19134924D01*
X3927257Y-19134924D02*
X3936781Y-19125400D01*
X3936781Y-19125400D02*
X3955829Y-19115876D01*
X4089162Y-19115876D02*
X4212972Y-19115876D01*
X4212972Y-19115876D02*
X4146305Y-19192067D01*
X4146305Y-19192067D02*
X4174876Y-19192067D01*
X4174876Y-19192067D02*
X4193924Y-19201590D01*
X4193924Y-19201590D02*
X4203448Y-19211114D01*
X4203448Y-19211114D02*
X4212972Y-19230162D01*
X4212972Y-19230162D02*
X4212972Y-19277781D01*
X4212972Y-19277781D02*
X4203448Y-19296829D01*
X4203448Y-19296829D02*
X4193924Y-19306352D01*
X4193924Y-19306352D02*
X4174876Y-19315876D01*
X4174876Y-19315876D02*
X4117733Y-19315876D01*
X4117733Y-19315876D02*
X4098686Y-19306352D01*
X4098686Y-19306352D02*
X4089162Y-19296829D01*
X4308210Y-19315876D02*
X4346305Y-19315876D01*
X4346305Y-19315876D02*
X4365353Y-19306352D01*
X4365353Y-19306352D02*
X4374876Y-19296829D01*
X4374876Y-19296829D02*
X4393924Y-19268257D01*
X4393924Y-19268257D02*
X4403448Y-19230162D01*
X4403448Y-19230162D02*
X4403448Y-19153971D01*
X4403448Y-19153971D02*
X4393924Y-19134924D01*
X4393924Y-19134924D02*
X4384400Y-19125400D01*
X4384400Y-19125400D02*
X4365353Y-19115876D01*
X4365353Y-19115876D02*
X4327257Y-19115876D01*
X4327257Y-19115876D02*
X4308210Y-19125400D01*
X4308210Y-19125400D02*
X4298686Y-19134924D01*
X4298686Y-19134924D02*
X4289162Y-19153971D01*
X4289162Y-19153971D02*
X4289162Y-19201590D01*
X4289162Y-19201590D02*
X4298686Y-19220638D01*
X4298686Y-19220638D02*
X4308210Y-19230162D01*
X4308210Y-19230162D02*
X4327257Y-19239686D01*
X4327257Y-19239686D02*
X4365353Y-19239686D01*
X4365353Y-19239686D02*
X4384400Y-19230162D01*
X4384400Y-19230162D02*
X4393924Y-19220638D01*
X4393924Y-19220638D02*
X4403448Y-19201590D01*
X4574876Y-19182543D02*
X4574876Y-19315876D01*
X4527257Y-19106352D02*
X4479638Y-19249210D01*
X4479638Y-19249210D02*
X4603448Y-19249210D01*
X4670114Y-19115876D02*
X4670114Y-19153971D01*
X4746305Y-19115876D02*
X4746305Y-19153971D01*
X5009162Y-19392067D02*
X4999638Y-19382543D01*
X4999638Y-19382543D02*
X4980591Y-19353971D01*
X4980591Y-19353971D02*
X4971067Y-19334924D01*
X4971067Y-19334924D02*
X4961543Y-19306352D01*
X4961543Y-19306352D02*
X4952019Y-19258733D01*
X4952019Y-19258733D02*
X4952019Y-19220638D01*
X4952019Y-19220638D02*
X4961543Y-19173019D01*
X4961543Y-19173019D02*
X4971067Y-19144448D01*
X4971067Y-19144448D02*
X4980591Y-19125400D01*
X4980591Y-19125400D02*
X4999638Y-19096829D01*
X4999638Y-19096829D02*
X5009162Y-19087305D01*
X5190114Y-19315876D02*
X5075829Y-19315876D01*
X5132972Y-19315876D02*
X5132972Y-19115876D01*
X5132972Y-19115876D02*
X5113924Y-19144448D01*
X5113924Y-19144448D02*
X5094876Y-19163495D01*
X5094876Y-19163495D02*
X5075829Y-19173019D01*
X5304400Y-19201590D02*
X5285353Y-19192067D01*
X5285353Y-19192067D02*
X5275829Y-19182543D01*
X5275829Y-19182543D02*
X5266305Y-19163495D01*
X5266305Y-19163495D02*
X5266305Y-19153971D01*
X5266305Y-19153971D02*
X5275829Y-19134924D01*
X5275829Y-19134924D02*
X5285353Y-19125400D01*
X5285353Y-19125400D02*
X5304400Y-19115876D01*
X5304400Y-19115876D02*
X5342495Y-19115876D01*
X5342495Y-19115876D02*
X5361543Y-19125400D01*
X5361543Y-19125400D02*
X5371067Y-19134924D01*
X5371067Y-19134924D02*
X5380591Y-19153971D01*
X5380591Y-19153971D02*
X5380591Y-19163495D01*
X5380591Y-19163495D02*
X5371067Y-19182543D01*
X5371067Y-19182543D02*
X5361543Y-19192067D01*
X5361543Y-19192067D02*
X5342495Y-19201590D01*
X5342495Y-19201590D02*
X5304400Y-19201590D01*
X5304400Y-19201590D02*
X5285353Y-19211114D01*
X5285353Y-19211114D02*
X5275829Y-19220638D01*
X5275829Y-19220638D02*
X5266305Y-19239686D01*
X5266305Y-19239686D02*
X5266305Y-19277781D01*
X5266305Y-19277781D02*
X5275829Y-19296829D01*
X5275829Y-19296829D02*
X5285353Y-19306352D01*
X5285353Y-19306352D02*
X5304400Y-19315876D01*
X5304400Y-19315876D02*
X5342495Y-19315876D01*
X5342495Y-19315876D02*
X5361543Y-19306352D01*
X5361543Y-19306352D02*
X5371067Y-19296829D01*
X5371067Y-19296829D02*
X5380591Y-19277781D01*
X5380591Y-19277781D02*
X5380591Y-19239686D01*
X5380591Y-19239686D02*
X5371067Y-19220638D01*
X5371067Y-19220638D02*
X5361543Y-19211114D01*
X5361543Y-19211114D02*
X5342495Y-19201590D01*
X5447257Y-19115876D02*
X5571067Y-19115876D01*
X5571067Y-19115876D02*
X5504400Y-19192067D01*
X5504400Y-19192067D02*
X5532972Y-19192067D01*
X5532972Y-19192067D02*
X5552019Y-19201590D01*
X5552019Y-19201590D02*
X5561543Y-19211114D01*
X5561543Y-19211114D02*
X5571067Y-19230162D01*
X5571067Y-19230162D02*
X5571067Y-19277781D01*
X5571067Y-19277781D02*
X5561543Y-19296829D01*
X5561543Y-19296829D02*
X5552019Y-19306352D01*
X5552019Y-19306352D02*
X5532972Y-19315876D01*
X5532972Y-19315876D02*
X5475829Y-19315876D01*
X5475829Y-19315876D02*
X5456781Y-19306352D01*
X5456781Y-19306352D02*
X5447257Y-19296829D01*
X5776781Y-19315876D02*
X5776781Y-19115876D01*
X5862495Y-19315876D02*
X5862495Y-19211114D01*
X5862495Y-19211114D02*
X5852972Y-19192067D01*
X5852972Y-19192067D02*
X5833924Y-19182543D01*
X5833924Y-19182543D02*
X5805352Y-19182543D01*
X5805352Y-19182543D02*
X5786305Y-19192067D01*
X5786305Y-19192067D02*
X5776781Y-19201590D01*
X5986305Y-19315876D02*
X5967257Y-19306352D01*
X5967257Y-19306352D02*
X5957733Y-19296829D01*
X5957733Y-19296829D02*
X5948210Y-19277781D01*
X5948210Y-19277781D02*
X5948210Y-19220638D01*
X5948210Y-19220638D02*
X5957733Y-19201590D01*
X5957733Y-19201590D02*
X5967257Y-19192067D01*
X5967257Y-19192067D02*
X5986305Y-19182543D01*
X5986305Y-19182543D02*
X6014876Y-19182543D01*
X6014876Y-19182543D02*
X6033924Y-19192067D01*
X6033924Y-19192067D02*
X6043448Y-19201590D01*
X6043448Y-19201590D02*
X6052972Y-19220638D01*
X6052972Y-19220638D02*
X6052972Y-19277781D01*
X6052972Y-19277781D02*
X6043448Y-19296829D01*
X6043448Y-19296829D02*
X6033924Y-19306352D01*
X6033924Y-19306352D02*
X6014876Y-19315876D01*
X6014876Y-19315876D02*
X5986305Y-19315876D01*
X6167257Y-19315876D02*
X6148210Y-19306352D01*
X6148210Y-19306352D02*
X6138686Y-19287305D01*
X6138686Y-19287305D02*
X6138686Y-19115876D01*
X6319638Y-19306352D02*
X6300591Y-19315876D01*
X6300591Y-19315876D02*
X6262495Y-19315876D01*
X6262495Y-19315876D02*
X6243448Y-19306352D01*
X6243448Y-19306352D02*
X6233924Y-19287305D01*
X6233924Y-19287305D02*
X6233924Y-19211114D01*
X6233924Y-19211114D02*
X6243448Y-19192067D01*
X6243448Y-19192067D02*
X6262495Y-19182543D01*
X6262495Y-19182543D02*
X6300591Y-19182543D01*
X6300591Y-19182543D02*
X6319638Y-19192067D01*
X6319638Y-19192067D02*
X6329162Y-19211114D01*
X6329162Y-19211114D02*
X6329162Y-19230162D01*
X6329162Y-19230162D02*
X6233924Y-19249210D01*
X6405353Y-19306352D02*
X6424400Y-19315876D01*
X6424400Y-19315876D02*
X6462495Y-19315876D01*
X6462495Y-19315876D02*
X6481543Y-19306352D01*
X6481543Y-19306352D02*
X6491067Y-19287305D01*
X6491067Y-19287305D02*
X6491067Y-19277781D01*
X6491067Y-19277781D02*
X6481543Y-19258733D01*
X6481543Y-19258733D02*
X6462495Y-19249210D01*
X6462495Y-19249210D02*
X6433924Y-19249210D01*
X6433924Y-19249210D02*
X6414876Y-19239686D01*
X6414876Y-19239686D02*
X6405353Y-19220638D01*
X6405353Y-19220638D02*
X6405353Y-19211114D01*
X6405353Y-19211114D02*
X6414876Y-19192067D01*
X6414876Y-19192067D02*
X6433924Y-19182543D01*
X6433924Y-19182543D02*
X6462495Y-19182543D01*
X6462495Y-19182543D02*
X6481543Y-19192067D01*
X6557734Y-19392067D02*
X6567257Y-19382543D01*
X6567257Y-19382543D02*
X6586305Y-19353971D01*
X6586305Y-19353971D02*
X6595829Y-19334924D01*
X6595829Y-19334924D02*
X6605353Y-19306352D01*
X6605353Y-19306352D02*
X6614876Y-19258733D01*
X6614876Y-19258733D02*
X6614876Y-19220638D01*
X6614876Y-19220638D02*
X6605353Y-19173019D01*
X6605353Y-19173019D02*
X6595829Y-19144448D01*
X6595829Y-19144448D02*
X6586305Y-19125400D01*
X6586305Y-19125400D02*
X6567257Y-19096829D01*
X6567257Y-19096829D02*
X6557734Y-19087305D01*
D15*
X1484400Y-19566400D02*
X1544400Y-19506400D01*
X1484400Y-19446400D01*
X1424400Y-19506400D01*
X1484400Y-19566400D01*
D11*
X1896781Y-19579876D02*
X1782495Y-19579876D01*
X1839638Y-19579876D02*
X1839638Y-19379876D01*
X1839638Y-19379876D02*
X1820590Y-19408448D01*
X1820590Y-19408448D02*
X1801543Y-19427495D01*
X1801543Y-19427495D02*
X1782495Y-19437019D01*
X1982495Y-19560829D02*
X1992019Y-19570352D01*
X1992019Y-19570352D02*
X1982495Y-19579876D01*
X1982495Y-19579876D02*
X1972971Y-19570352D01*
X1972971Y-19570352D02*
X1982495Y-19560829D01*
X1982495Y-19560829D02*
X1982495Y-19579876D01*
X2068209Y-19398924D02*
X2077733Y-19389400D01*
X2077733Y-19389400D02*
X2096781Y-19379876D01*
X2096781Y-19379876D02*
X2144400Y-19379876D01*
X2144400Y-19379876D02*
X2163448Y-19389400D01*
X2163448Y-19389400D02*
X2172971Y-19398924D01*
X2172971Y-19398924D02*
X2182495Y-19417971D01*
X2182495Y-19417971D02*
X2182495Y-19437019D01*
X2182495Y-19437019D02*
X2172971Y-19465590D01*
X2172971Y-19465590D02*
X2058686Y-19579876D01*
X2058686Y-19579876D02*
X2182495Y-19579876D01*
X2306305Y-19379876D02*
X2325352Y-19379876D01*
X2325352Y-19379876D02*
X2344400Y-19389400D01*
X2344400Y-19389400D02*
X2353924Y-19398924D01*
X2353924Y-19398924D02*
X2363448Y-19417971D01*
X2363448Y-19417971D02*
X2372971Y-19456067D01*
X2372971Y-19456067D02*
X2372971Y-19503686D01*
X2372971Y-19503686D02*
X2363448Y-19541781D01*
X2363448Y-19541781D02*
X2353924Y-19560829D01*
X2353924Y-19560829D02*
X2344400Y-19570352D01*
X2344400Y-19570352D02*
X2325352Y-19579876D01*
X2325352Y-19579876D02*
X2306305Y-19579876D01*
X2306305Y-19579876D02*
X2287257Y-19570352D01*
X2287257Y-19570352D02*
X2277733Y-19560829D01*
X2277733Y-19560829D02*
X2268210Y-19541781D01*
X2268210Y-19541781D02*
X2258686Y-19503686D01*
X2258686Y-19503686D02*
X2258686Y-19456067D01*
X2258686Y-19456067D02*
X2268210Y-19417971D01*
X2268210Y-19417971D02*
X2277733Y-19398924D01*
X2277733Y-19398924D02*
X2287257Y-19389400D01*
X2287257Y-19389400D02*
X2306305Y-19379876D01*
X2496781Y-19379876D02*
X2515829Y-19379876D01*
X2515829Y-19379876D02*
X2534876Y-19389400D01*
X2534876Y-19389400D02*
X2544400Y-19398924D01*
X2544400Y-19398924D02*
X2553924Y-19417971D01*
X2553924Y-19417971D02*
X2563448Y-19456067D01*
X2563448Y-19456067D02*
X2563448Y-19503686D01*
X2563448Y-19503686D02*
X2553924Y-19541781D01*
X2553924Y-19541781D02*
X2544400Y-19560829D01*
X2544400Y-19560829D02*
X2534876Y-19570352D01*
X2534876Y-19570352D02*
X2515829Y-19579876D01*
X2515829Y-19579876D02*
X2496781Y-19579876D01*
X2496781Y-19579876D02*
X2477733Y-19570352D01*
X2477733Y-19570352D02*
X2468210Y-19560829D01*
X2468210Y-19560829D02*
X2458686Y-19541781D01*
X2458686Y-19541781D02*
X2449162Y-19503686D01*
X2449162Y-19503686D02*
X2449162Y-19456067D01*
X2449162Y-19456067D02*
X2458686Y-19417971D01*
X2458686Y-19417971D02*
X2468210Y-19398924D01*
X2468210Y-19398924D02*
X2477733Y-19389400D01*
X2477733Y-19389400D02*
X2496781Y-19379876D01*
X2649162Y-19579876D02*
X2649162Y-19446543D01*
X2649162Y-19465590D02*
X2658686Y-19456067D01*
X2658686Y-19456067D02*
X2677733Y-19446543D01*
X2677733Y-19446543D02*
X2706305Y-19446543D01*
X2706305Y-19446543D02*
X2725352Y-19456067D01*
X2725352Y-19456067D02*
X2734876Y-19475114D01*
X2734876Y-19475114D02*
X2734876Y-19579876D01*
X2734876Y-19475114D02*
X2744400Y-19456067D01*
X2744400Y-19456067D02*
X2763448Y-19446543D01*
X2763448Y-19446543D02*
X2792019Y-19446543D01*
X2792019Y-19446543D02*
X2811067Y-19456067D01*
X2811067Y-19456067D02*
X2820590Y-19475114D01*
X2820590Y-19475114D02*
X2820590Y-19579876D01*
X2915829Y-19579876D02*
X2915829Y-19446543D01*
X2915829Y-19465590D02*
X2925352Y-19456067D01*
X2925352Y-19456067D02*
X2944400Y-19446543D01*
X2944400Y-19446543D02*
X2972971Y-19446543D01*
X2972971Y-19446543D02*
X2992019Y-19456067D01*
X2992019Y-19456067D02*
X3001543Y-19475114D01*
X3001543Y-19475114D02*
X3001543Y-19579876D01*
X3001543Y-19475114D02*
X3011067Y-19456067D01*
X3011067Y-19456067D02*
X3030114Y-19446543D01*
X3030114Y-19446543D02*
X3058686Y-19446543D01*
X3058686Y-19446543D02*
X3077733Y-19456067D01*
X3077733Y-19456067D02*
X3087257Y-19475114D01*
X3087257Y-19475114D02*
X3087257Y-19579876D01*
X3445352Y-19370352D02*
X3273924Y-19627495D01*
X3670114Y-19379876D02*
X3689162Y-19379876D01*
X3689162Y-19379876D02*
X3708210Y-19389400D01*
X3708210Y-19389400D02*
X3717733Y-19398924D01*
X3717733Y-19398924D02*
X3727257Y-19417971D01*
X3727257Y-19417971D02*
X3736781Y-19456067D01*
X3736781Y-19456067D02*
X3736781Y-19503686D01*
X3736781Y-19503686D02*
X3727257Y-19541781D01*
X3727257Y-19541781D02*
X3717733Y-19560829D01*
X3717733Y-19560829D02*
X3708210Y-19570352D01*
X3708210Y-19570352D02*
X3689162Y-19579876D01*
X3689162Y-19579876D02*
X3670114Y-19579876D01*
X3670114Y-19579876D02*
X3651067Y-19570352D01*
X3651067Y-19570352D02*
X3641543Y-19560829D01*
X3641543Y-19560829D02*
X3632019Y-19541781D01*
X3632019Y-19541781D02*
X3622495Y-19503686D01*
X3622495Y-19503686D02*
X3622495Y-19456067D01*
X3622495Y-19456067D02*
X3632019Y-19417971D01*
X3632019Y-19417971D02*
X3641543Y-19398924D01*
X3641543Y-19398924D02*
X3651067Y-19389400D01*
X3651067Y-19389400D02*
X3670114Y-19379876D01*
X3822495Y-19560829D02*
X3832019Y-19570352D01*
X3832019Y-19570352D02*
X3822495Y-19579876D01*
X3822495Y-19579876D02*
X3812971Y-19570352D01*
X3812971Y-19570352D02*
X3822495Y-19560829D01*
X3822495Y-19560829D02*
X3822495Y-19579876D01*
X3955829Y-19379876D02*
X3974876Y-19379876D01*
X3974876Y-19379876D02*
X3993924Y-19389400D01*
X3993924Y-19389400D02*
X4003448Y-19398924D01*
X4003448Y-19398924D02*
X4012971Y-19417971D01*
X4012971Y-19417971D02*
X4022495Y-19456067D01*
X4022495Y-19456067D02*
X4022495Y-19503686D01*
X4022495Y-19503686D02*
X4012971Y-19541781D01*
X4012971Y-19541781D02*
X4003448Y-19560829D01*
X4003448Y-19560829D02*
X3993924Y-19570352D01*
X3993924Y-19570352D02*
X3974876Y-19579876D01*
X3974876Y-19579876D02*
X3955829Y-19579876D01*
X3955829Y-19579876D02*
X3936781Y-19570352D01*
X3936781Y-19570352D02*
X3927257Y-19560829D01*
X3927257Y-19560829D02*
X3917733Y-19541781D01*
X3917733Y-19541781D02*
X3908210Y-19503686D01*
X3908210Y-19503686D02*
X3908210Y-19456067D01*
X3908210Y-19456067D02*
X3917733Y-19417971D01*
X3917733Y-19417971D02*
X3927257Y-19398924D01*
X3927257Y-19398924D02*
X3936781Y-19389400D01*
X3936781Y-19389400D02*
X3955829Y-19379876D01*
X4193924Y-19446543D02*
X4193924Y-19579876D01*
X4146305Y-19370352D02*
X4098686Y-19513210D01*
X4098686Y-19513210D02*
X4222495Y-19513210D01*
X4279638Y-19379876D02*
X4412972Y-19379876D01*
X4412972Y-19379876D02*
X4327257Y-19579876D01*
X4479638Y-19398924D02*
X4489162Y-19389400D01*
X4489162Y-19389400D02*
X4508210Y-19379876D01*
X4508210Y-19379876D02*
X4555829Y-19379876D01*
X4555829Y-19379876D02*
X4574876Y-19389400D01*
X4574876Y-19389400D02*
X4584400Y-19398924D01*
X4584400Y-19398924D02*
X4593924Y-19417971D01*
X4593924Y-19417971D02*
X4593924Y-19437019D01*
X4593924Y-19437019D02*
X4584400Y-19465590D01*
X4584400Y-19465590D02*
X4470114Y-19579876D01*
X4470114Y-19579876D02*
X4593924Y-19579876D01*
X4670114Y-19379876D02*
X4670114Y-19417971D01*
X4746305Y-19379876D02*
X4746305Y-19417971D01*
X5009162Y-19656067D02*
X4999638Y-19646543D01*
X4999638Y-19646543D02*
X4980591Y-19617971D01*
X4980591Y-19617971D02*
X4971067Y-19598924D01*
X4971067Y-19598924D02*
X4961543Y-19570352D01*
X4961543Y-19570352D02*
X4952019Y-19522733D01*
X4952019Y-19522733D02*
X4952019Y-19484638D01*
X4952019Y-19484638D02*
X4961543Y-19437019D01*
X4961543Y-19437019D02*
X4971067Y-19408448D01*
X4971067Y-19408448D02*
X4980591Y-19389400D01*
X4980591Y-19389400D02*
X4999638Y-19360829D01*
X4999638Y-19360829D02*
X5009162Y-19351305D01*
X5171067Y-19446543D02*
X5171067Y-19579876D01*
X5123448Y-19370352D02*
X5075829Y-19513210D01*
X5075829Y-19513210D02*
X5199638Y-19513210D01*
X5395829Y-19579876D02*
X5395829Y-19379876D01*
X5481543Y-19579876D02*
X5481543Y-19475114D01*
X5481543Y-19475114D02*
X5472019Y-19456067D01*
X5472019Y-19456067D02*
X5452972Y-19446543D01*
X5452972Y-19446543D02*
X5424400Y-19446543D01*
X5424400Y-19446543D02*
X5405353Y-19456067D01*
X5405353Y-19456067D02*
X5395829Y-19465590D01*
X5605352Y-19579876D02*
X5586305Y-19570352D01*
X5586305Y-19570352D02*
X5576781Y-19560829D01*
X5576781Y-19560829D02*
X5567257Y-19541781D01*
X5567257Y-19541781D02*
X5567257Y-19484638D01*
X5567257Y-19484638D02*
X5576781Y-19465590D01*
X5576781Y-19465590D02*
X5586305Y-19456067D01*
X5586305Y-19456067D02*
X5605352Y-19446543D01*
X5605352Y-19446543D02*
X5633924Y-19446543D01*
X5633924Y-19446543D02*
X5652972Y-19456067D01*
X5652972Y-19456067D02*
X5662495Y-19465590D01*
X5662495Y-19465590D02*
X5672019Y-19484638D01*
X5672019Y-19484638D02*
X5672019Y-19541781D01*
X5672019Y-19541781D02*
X5662495Y-19560829D01*
X5662495Y-19560829D02*
X5652972Y-19570352D01*
X5652972Y-19570352D02*
X5633924Y-19579876D01*
X5633924Y-19579876D02*
X5605352Y-19579876D01*
X5786305Y-19579876D02*
X5767257Y-19570352D01*
X5767257Y-19570352D02*
X5757733Y-19551305D01*
X5757733Y-19551305D02*
X5757733Y-19379876D01*
X5938686Y-19570352D02*
X5919638Y-19579876D01*
X5919638Y-19579876D02*
X5881543Y-19579876D01*
X5881543Y-19579876D02*
X5862495Y-19570352D01*
X5862495Y-19570352D02*
X5852972Y-19551305D01*
X5852972Y-19551305D02*
X5852972Y-19475114D01*
X5852972Y-19475114D02*
X5862495Y-19456067D01*
X5862495Y-19456067D02*
X5881543Y-19446543D01*
X5881543Y-19446543D02*
X5919638Y-19446543D01*
X5919638Y-19446543D02*
X5938686Y-19456067D01*
X5938686Y-19456067D02*
X5948210Y-19475114D01*
X5948210Y-19475114D02*
X5948210Y-19494162D01*
X5948210Y-19494162D02*
X5852972Y-19513210D01*
X6024400Y-19570352D02*
X6043448Y-19579876D01*
X6043448Y-19579876D02*
X6081543Y-19579876D01*
X6081543Y-19579876D02*
X6100591Y-19570352D01*
X6100591Y-19570352D02*
X6110114Y-19551305D01*
X6110114Y-19551305D02*
X6110114Y-19541781D01*
X6110114Y-19541781D02*
X6100591Y-19522733D01*
X6100591Y-19522733D02*
X6081543Y-19513210D01*
X6081543Y-19513210D02*
X6052972Y-19513210D01*
X6052972Y-19513210D02*
X6033924Y-19503686D01*
X6033924Y-19503686D02*
X6024400Y-19484638D01*
X6024400Y-19484638D02*
X6024400Y-19475114D01*
X6024400Y-19475114D02*
X6033924Y-19456067D01*
X6033924Y-19456067D02*
X6052972Y-19446543D01*
X6052972Y-19446543D02*
X6081543Y-19446543D01*
X6081543Y-19446543D02*
X6100591Y-19456067D01*
X6176781Y-19656067D02*
X6186305Y-19646543D01*
X6186305Y-19646543D02*
X6205353Y-19617971D01*
X6205353Y-19617971D02*
X6214876Y-19598924D01*
X6214876Y-19598924D02*
X6224400Y-19570352D01*
X6224400Y-19570352D02*
X6233924Y-19522733D01*
X6233924Y-19522733D02*
X6233924Y-19484638D01*
X6233924Y-19484638D02*
X6224400Y-19437019D01*
X6224400Y-19437019D02*
X6214876Y-19408448D01*
X6214876Y-19408448D02*
X6205353Y-19389400D01*
X6205353Y-19389400D02*
X6186305Y-19360829D01*
X6186305Y-19360829D02*
X6176781Y-19351305D01*
D16*
X1419400Y-19707900D02*
X1544400Y-19832900D01*
X1544400Y-19707900D02*
X1419400Y-19832900D01*
X1544400Y-19770400D02*
G75*
G03*
X1544400Y-19770400I-62500J0D01*
G01*
D11*
X1896781Y-19843876D02*
X1782495Y-19843876D01*
X1839638Y-19843876D02*
X1839638Y-19643876D01*
X1839638Y-19643876D02*
X1820590Y-19672448D01*
X1820590Y-19672448D02*
X1801543Y-19691495D01*
X1801543Y-19691495D02*
X1782495Y-19701019D01*
X1982495Y-19824829D02*
X1992019Y-19834352D01*
X1992019Y-19834352D02*
X1982495Y-19843876D01*
X1982495Y-19843876D02*
X1972971Y-19834352D01*
X1972971Y-19834352D02*
X1982495Y-19824829D01*
X1982495Y-19824829D02*
X1982495Y-19843876D01*
X2068209Y-19662924D02*
X2077733Y-19653400D01*
X2077733Y-19653400D02*
X2096781Y-19643876D01*
X2096781Y-19643876D02*
X2144400Y-19643876D01*
X2144400Y-19643876D02*
X2163448Y-19653400D01*
X2163448Y-19653400D02*
X2172971Y-19662924D01*
X2172971Y-19662924D02*
X2182495Y-19681971D01*
X2182495Y-19681971D02*
X2182495Y-19701019D01*
X2182495Y-19701019D02*
X2172971Y-19729590D01*
X2172971Y-19729590D02*
X2058686Y-19843876D01*
X2058686Y-19843876D02*
X2182495Y-19843876D01*
X2363448Y-19643876D02*
X2268210Y-19643876D01*
X2268210Y-19643876D02*
X2258686Y-19739114D01*
X2258686Y-19739114D02*
X2268210Y-19729590D01*
X2268210Y-19729590D02*
X2287257Y-19720067D01*
X2287257Y-19720067D02*
X2334876Y-19720067D01*
X2334876Y-19720067D02*
X2353924Y-19729590D01*
X2353924Y-19729590D02*
X2363448Y-19739114D01*
X2363448Y-19739114D02*
X2372971Y-19758162D01*
X2372971Y-19758162D02*
X2372971Y-19805781D01*
X2372971Y-19805781D02*
X2363448Y-19824829D01*
X2363448Y-19824829D02*
X2353924Y-19834352D01*
X2353924Y-19834352D02*
X2334876Y-19843876D01*
X2334876Y-19843876D02*
X2287257Y-19843876D01*
X2287257Y-19843876D02*
X2268210Y-19834352D01*
X2268210Y-19834352D02*
X2258686Y-19824829D01*
X2496781Y-19643876D02*
X2515829Y-19643876D01*
X2515829Y-19643876D02*
X2534876Y-19653400D01*
X2534876Y-19653400D02*
X2544400Y-19662924D01*
X2544400Y-19662924D02*
X2553924Y-19681971D01*
X2553924Y-19681971D02*
X2563448Y-19720067D01*
X2563448Y-19720067D02*
X2563448Y-19767686D01*
X2563448Y-19767686D02*
X2553924Y-19805781D01*
X2553924Y-19805781D02*
X2544400Y-19824829D01*
X2544400Y-19824829D02*
X2534876Y-19834352D01*
X2534876Y-19834352D02*
X2515829Y-19843876D01*
X2515829Y-19843876D02*
X2496781Y-19843876D01*
X2496781Y-19843876D02*
X2477733Y-19834352D01*
X2477733Y-19834352D02*
X2468210Y-19824829D01*
X2468210Y-19824829D02*
X2458686Y-19805781D01*
X2458686Y-19805781D02*
X2449162Y-19767686D01*
X2449162Y-19767686D02*
X2449162Y-19720067D01*
X2449162Y-19720067D02*
X2458686Y-19681971D01*
X2458686Y-19681971D02*
X2468210Y-19662924D01*
X2468210Y-19662924D02*
X2477733Y-19653400D01*
X2477733Y-19653400D02*
X2496781Y-19643876D01*
X2649162Y-19843876D02*
X2649162Y-19710543D01*
X2649162Y-19729590D02*
X2658686Y-19720067D01*
X2658686Y-19720067D02*
X2677733Y-19710543D01*
X2677733Y-19710543D02*
X2706305Y-19710543D01*
X2706305Y-19710543D02*
X2725352Y-19720067D01*
X2725352Y-19720067D02*
X2734876Y-19739114D01*
X2734876Y-19739114D02*
X2734876Y-19843876D01*
X2734876Y-19739114D02*
X2744400Y-19720067D01*
X2744400Y-19720067D02*
X2763448Y-19710543D01*
X2763448Y-19710543D02*
X2792019Y-19710543D01*
X2792019Y-19710543D02*
X2811067Y-19720067D01*
X2811067Y-19720067D02*
X2820590Y-19739114D01*
X2820590Y-19739114D02*
X2820590Y-19843876D01*
X2915829Y-19843876D02*
X2915829Y-19710543D01*
X2915829Y-19729590D02*
X2925352Y-19720067D01*
X2925352Y-19720067D02*
X2944400Y-19710543D01*
X2944400Y-19710543D02*
X2972971Y-19710543D01*
X2972971Y-19710543D02*
X2992019Y-19720067D01*
X2992019Y-19720067D02*
X3001543Y-19739114D01*
X3001543Y-19739114D02*
X3001543Y-19843876D01*
X3001543Y-19739114D02*
X3011067Y-19720067D01*
X3011067Y-19720067D02*
X3030114Y-19710543D01*
X3030114Y-19710543D02*
X3058686Y-19710543D01*
X3058686Y-19710543D02*
X3077733Y-19720067D01*
X3077733Y-19720067D02*
X3087257Y-19739114D01*
X3087257Y-19739114D02*
X3087257Y-19843876D01*
X3445352Y-19634352D02*
X3273924Y-19891495D01*
X3670114Y-19643876D02*
X3689162Y-19643876D01*
X3689162Y-19643876D02*
X3708210Y-19653400D01*
X3708210Y-19653400D02*
X3717733Y-19662924D01*
X3717733Y-19662924D02*
X3727257Y-19681971D01*
X3727257Y-19681971D02*
X3736781Y-19720067D01*
X3736781Y-19720067D02*
X3736781Y-19767686D01*
X3736781Y-19767686D02*
X3727257Y-19805781D01*
X3727257Y-19805781D02*
X3717733Y-19824829D01*
X3717733Y-19824829D02*
X3708210Y-19834352D01*
X3708210Y-19834352D02*
X3689162Y-19843876D01*
X3689162Y-19843876D02*
X3670114Y-19843876D01*
X3670114Y-19843876D02*
X3651067Y-19834352D01*
X3651067Y-19834352D02*
X3641543Y-19824829D01*
X3641543Y-19824829D02*
X3632019Y-19805781D01*
X3632019Y-19805781D02*
X3622495Y-19767686D01*
X3622495Y-19767686D02*
X3622495Y-19720067D01*
X3622495Y-19720067D02*
X3632019Y-19681971D01*
X3632019Y-19681971D02*
X3641543Y-19662924D01*
X3641543Y-19662924D02*
X3651067Y-19653400D01*
X3651067Y-19653400D02*
X3670114Y-19643876D01*
X3822495Y-19824829D02*
X3832019Y-19834352D01*
X3832019Y-19834352D02*
X3822495Y-19843876D01*
X3822495Y-19843876D02*
X3812971Y-19834352D01*
X3812971Y-19834352D02*
X3822495Y-19824829D01*
X3822495Y-19824829D02*
X3822495Y-19843876D01*
X3955829Y-19643876D02*
X3974876Y-19643876D01*
X3974876Y-19643876D02*
X3993924Y-19653400D01*
X3993924Y-19653400D02*
X4003448Y-19662924D01*
X4003448Y-19662924D02*
X4012971Y-19681971D01*
X4012971Y-19681971D02*
X4022495Y-19720067D01*
X4022495Y-19720067D02*
X4022495Y-19767686D01*
X4022495Y-19767686D02*
X4012971Y-19805781D01*
X4012971Y-19805781D02*
X4003448Y-19824829D01*
X4003448Y-19824829D02*
X3993924Y-19834352D01*
X3993924Y-19834352D02*
X3974876Y-19843876D01*
X3974876Y-19843876D02*
X3955829Y-19843876D01*
X3955829Y-19843876D02*
X3936781Y-19834352D01*
X3936781Y-19834352D02*
X3927257Y-19824829D01*
X3927257Y-19824829D02*
X3917733Y-19805781D01*
X3917733Y-19805781D02*
X3908210Y-19767686D01*
X3908210Y-19767686D02*
X3908210Y-19720067D01*
X3908210Y-19720067D02*
X3917733Y-19681971D01*
X3917733Y-19681971D02*
X3927257Y-19662924D01*
X3927257Y-19662924D02*
X3936781Y-19653400D01*
X3936781Y-19653400D02*
X3955829Y-19643876D01*
X4193924Y-19710543D02*
X4193924Y-19843876D01*
X4146305Y-19634352D02*
X4098686Y-19777210D01*
X4098686Y-19777210D02*
X4222495Y-19777210D01*
X4308210Y-19843876D02*
X4346305Y-19843876D01*
X4346305Y-19843876D02*
X4365353Y-19834352D01*
X4365353Y-19834352D02*
X4374876Y-19824829D01*
X4374876Y-19824829D02*
X4393924Y-19796257D01*
X4393924Y-19796257D02*
X4403448Y-19758162D01*
X4403448Y-19758162D02*
X4403448Y-19681971D01*
X4403448Y-19681971D02*
X4393924Y-19662924D01*
X4393924Y-19662924D02*
X4384400Y-19653400D01*
X4384400Y-19653400D02*
X4365353Y-19643876D01*
X4365353Y-19643876D02*
X4327257Y-19643876D01*
X4327257Y-19643876D02*
X4308210Y-19653400D01*
X4308210Y-19653400D02*
X4298686Y-19662924D01*
X4298686Y-19662924D02*
X4289162Y-19681971D01*
X4289162Y-19681971D02*
X4289162Y-19729590D01*
X4289162Y-19729590D02*
X4298686Y-19748638D01*
X4298686Y-19748638D02*
X4308210Y-19758162D01*
X4308210Y-19758162D02*
X4327257Y-19767686D01*
X4327257Y-19767686D02*
X4365353Y-19767686D01*
X4365353Y-19767686D02*
X4384400Y-19758162D01*
X4384400Y-19758162D02*
X4393924Y-19748638D01*
X4393924Y-19748638D02*
X4403448Y-19729590D01*
X4479638Y-19662924D02*
X4489162Y-19653400D01*
X4489162Y-19653400D02*
X4508210Y-19643876D01*
X4508210Y-19643876D02*
X4555829Y-19643876D01*
X4555829Y-19643876D02*
X4574876Y-19653400D01*
X4574876Y-19653400D02*
X4584400Y-19662924D01*
X4584400Y-19662924D02*
X4593924Y-19681971D01*
X4593924Y-19681971D02*
X4593924Y-19701019D01*
X4593924Y-19701019D02*
X4584400Y-19729590D01*
X4584400Y-19729590D02*
X4470114Y-19843876D01*
X4470114Y-19843876D02*
X4593924Y-19843876D01*
X4670114Y-19643876D02*
X4670114Y-19681971D01*
X4746305Y-19643876D02*
X4746305Y-19681971D01*
X5009162Y-19920067D02*
X4999638Y-19910543D01*
X4999638Y-19910543D02*
X4980591Y-19881971D01*
X4980591Y-19881971D02*
X4971067Y-19862924D01*
X4971067Y-19862924D02*
X4961543Y-19834352D01*
X4961543Y-19834352D02*
X4952019Y-19786733D01*
X4952019Y-19786733D02*
X4952019Y-19748638D01*
X4952019Y-19748638D02*
X4961543Y-19701019D01*
X4961543Y-19701019D02*
X4971067Y-19672448D01*
X4971067Y-19672448D02*
X4980591Y-19653400D01*
X4980591Y-19653400D02*
X4999638Y-19624829D01*
X4999638Y-19624829D02*
X5009162Y-19615305D01*
X5171067Y-19710543D02*
X5171067Y-19843876D01*
X5123448Y-19634352D02*
X5075829Y-19777210D01*
X5075829Y-19777210D02*
X5199638Y-19777210D01*
X5395829Y-19843876D02*
X5395829Y-19643876D01*
X5481543Y-19843876D02*
X5481543Y-19739114D01*
X5481543Y-19739114D02*
X5472019Y-19720067D01*
X5472019Y-19720067D02*
X5452972Y-19710543D01*
X5452972Y-19710543D02*
X5424400Y-19710543D01*
X5424400Y-19710543D02*
X5405353Y-19720067D01*
X5405353Y-19720067D02*
X5395829Y-19729590D01*
X5605352Y-19843876D02*
X5586305Y-19834352D01*
X5586305Y-19834352D02*
X5576781Y-19824829D01*
X5576781Y-19824829D02*
X5567257Y-19805781D01*
X5567257Y-19805781D02*
X5567257Y-19748638D01*
X5567257Y-19748638D02*
X5576781Y-19729590D01*
X5576781Y-19729590D02*
X5586305Y-19720067D01*
X5586305Y-19720067D02*
X5605352Y-19710543D01*
X5605352Y-19710543D02*
X5633924Y-19710543D01*
X5633924Y-19710543D02*
X5652972Y-19720067D01*
X5652972Y-19720067D02*
X5662495Y-19729590D01*
X5662495Y-19729590D02*
X5672019Y-19748638D01*
X5672019Y-19748638D02*
X5672019Y-19805781D01*
X5672019Y-19805781D02*
X5662495Y-19824829D01*
X5662495Y-19824829D02*
X5652972Y-19834352D01*
X5652972Y-19834352D02*
X5633924Y-19843876D01*
X5633924Y-19843876D02*
X5605352Y-19843876D01*
X5786305Y-19843876D02*
X5767257Y-19834352D01*
X5767257Y-19834352D02*
X5757733Y-19815305D01*
X5757733Y-19815305D02*
X5757733Y-19643876D01*
X5938686Y-19834352D02*
X5919638Y-19843876D01*
X5919638Y-19843876D02*
X5881543Y-19843876D01*
X5881543Y-19843876D02*
X5862495Y-19834352D01*
X5862495Y-19834352D02*
X5852972Y-19815305D01*
X5852972Y-19815305D02*
X5852972Y-19739114D01*
X5852972Y-19739114D02*
X5862495Y-19720067D01*
X5862495Y-19720067D02*
X5881543Y-19710543D01*
X5881543Y-19710543D02*
X5919638Y-19710543D01*
X5919638Y-19710543D02*
X5938686Y-19720067D01*
X5938686Y-19720067D02*
X5948210Y-19739114D01*
X5948210Y-19739114D02*
X5948210Y-19758162D01*
X5948210Y-19758162D02*
X5852972Y-19777210D01*
X6024400Y-19834352D02*
X6043448Y-19843876D01*
X6043448Y-19843876D02*
X6081543Y-19843876D01*
X6081543Y-19843876D02*
X6100591Y-19834352D01*
X6100591Y-19834352D02*
X6110114Y-19815305D01*
X6110114Y-19815305D02*
X6110114Y-19805781D01*
X6110114Y-19805781D02*
X6100591Y-19786733D01*
X6100591Y-19786733D02*
X6081543Y-19777210D01*
X6081543Y-19777210D02*
X6052972Y-19777210D01*
X6052972Y-19777210D02*
X6033924Y-19767686D01*
X6033924Y-19767686D02*
X6024400Y-19748638D01*
X6024400Y-19748638D02*
X6024400Y-19739114D01*
X6024400Y-19739114D02*
X6033924Y-19720067D01*
X6033924Y-19720067D02*
X6052972Y-19710543D01*
X6052972Y-19710543D02*
X6081543Y-19710543D01*
X6081543Y-19710543D02*
X6100591Y-19720067D01*
X6176781Y-19920067D02*
X6186305Y-19910543D01*
X6186305Y-19910543D02*
X6205353Y-19881971D01*
X6205353Y-19881971D02*
X6214876Y-19862924D01*
X6214876Y-19862924D02*
X6224400Y-19834352D01*
X6224400Y-19834352D02*
X6233924Y-19786733D01*
X6233924Y-19786733D02*
X6233924Y-19748638D01*
X6233924Y-19748638D02*
X6224400Y-19701019D01*
X6224400Y-19701019D02*
X6214876Y-19672448D01*
X6214876Y-19672448D02*
X6205353Y-19653400D01*
X6205353Y-19653400D02*
X6186305Y-19624829D01*
X6186305Y-19624829D02*
X6176781Y-19615305D01*
D17*
X1390400Y-19957400D02*
X1544400Y-20111400D01*
X1544400Y-19957400D02*
X1390400Y-20111400D01*
X1467400Y-19957400D02*
X1467400Y-20111400D01*
X1390400Y-20034400D02*
X1544400Y-20034400D01*
D11*
X1896781Y-20107876D02*
X1782495Y-20107876D01*
X1839638Y-20107876D02*
X1839638Y-19907876D01*
X1839638Y-19907876D02*
X1820590Y-19936448D01*
X1820590Y-19936448D02*
X1801543Y-19955495D01*
X1801543Y-19955495D02*
X1782495Y-19965019D01*
X1982495Y-20088829D02*
X1992019Y-20098352D01*
X1992019Y-20098352D02*
X1982495Y-20107876D01*
X1982495Y-20107876D02*
X1972971Y-20098352D01*
X1972971Y-20098352D02*
X1982495Y-20088829D01*
X1982495Y-20088829D02*
X1982495Y-20107876D01*
X2172971Y-19907876D02*
X2077733Y-19907876D01*
X2077733Y-19907876D02*
X2068209Y-20003114D01*
X2068209Y-20003114D02*
X2077733Y-19993590D01*
X2077733Y-19993590D02*
X2096781Y-19984067D01*
X2096781Y-19984067D02*
X2144400Y-19984067D01*
X2144400Y-19984067D02*
X2163448Y-19993590D01*
X2163448Y-19993590D02*
X2172971Y-20003114D01*
X2172971Y-20003114D02*
X2182495Y-20022162D01*
X2182495Y-20022162D02*
X2182495Y-20069781D01*
X2182495Y-20069781D02*
X2172971Y-20088829D01*
X2172971Y-20088829D02*
X2163448Y-20098352D01*
X2163448Y-20098352D02*
X2144400Y-20107876D01*
X2144400Y-20107876D02*
X2096781Y-20107876D01*
X2096781Y-20107876D02*
X2077733Y-20098352D01*
X2077733Y-20098352D02*
X2068209Y-20088829D01*
X2353924Y-19974543D02*
X2353924Y-20107876D01*
X2306305Y-19898352D02*
X2258686Y-20041210D01*
X2258686Y-20041210D02*
X2382495Y-20041210D01*
X2496781Y-19907876D02*
X2515829Y-19907876D01*
X2515829Y-19907876D02*
X2534876Y-19917400D01*
X2534876Y-19917400D02*
X2544400Y-19926924D01*
X2544400Y-19926924D02*
X2553924Y-19945971D01*
X2553924Y-19945971D02*
X2563448Y-19984067D01*
X2563448Y-19984067D02*
X2563448Y-20031686D01*
X2563448Y-20031686D02*
X2553924Y-20069781D01*
X2553924Y-20069781D02*
X2544400Y-20088829D01*
X2544400Y-20088829D02*
X2534876Y-20098352D01*
X2534876Y-20098352D02*
X2515829Y-20107876D01*
X2515829Y-20107876D02*
X2496781Y-20107876D01*
X2496781Y-20107876D02*
X2477733Y-20098352D01*
X2477733Y-20098352D02*
X2468210Y-20088829D01*
X2468210Y-20088829D02*
X2458686Y-20069781D01*
X2458686Y-20069781D02*
X2449162Y-20031686D01*
X2449162Y-20031686D02*
X2449162Y-19984067D01*
X2449162Y-19984067D02*
X2458686Y-19945971D01*
X2458686Y-19945971D02*
X2468210Y-19926924D01*
X2468210Y-19926924D02*
X2477733Y-19917400D01*
X2477733Y-19917400D02*
X2496781Y-19907876D01*
X2649162Y-20107876D02*
X2649162Y-19974543D01*
X2649162Y-19993590D02*
X2658686Y-19984067D01*
X2658686Y-19984067D02*
X2677733Y-19974543D01*
X2677733Y-19974543D02*
X2706305Y-19974543D01*
X2706305Y-19974543D02*
X2725352Y-19984067D01*
X2725352Y-19984067D02*
X2734876Y-20003114D01*
X2734876Y-20003114D02*
X2734876Y-20107876D01*
X2734876Y-20003114D02*
X2744400Y-19984067D01*
X2744400Y-19984067D02*
X2763448Y-19974543D01*
X2763448Y-19974543D02*
X2792019Y-19974543D01*
X2792019Y-19974543D02*
X2811067Y-19984067D01*
X2811067Y-19984067D02*
X2820590Y-20003114D01*
X2820590Y-20003114D02*
X2820590Y-20107876D01*
X2915829Y-20107876D02*
X2915829Y-19974543D01*
X2915829Y-19993590D02*
X2925352Y-19984067D01*
X2925352Y-19984067D02*
X2944400Y-19974543D01*
X2944400Y-19974543D02*
X2972971Y-19974543D01*
X2972971Y-19974543D02*
X2992019Y-19984067D01*
X2992019Y-19984067D02*
X3001543Y-20003114D01*
X3001543Y-20003114D02*
X3001543Y-20107876D01*
X3001543Y-20003114D02*
X3011067Y-19984067D01*
X3011067Y-19984067D02*
X3030114Y-19974543D01*
X3030114Y-19974543D02*
X3058686Y-19974543D01*
X3058686Y-19974543D02*
X3077733Y-19984067D01*
X3077733Y-19984067D02*
X3087257Y-20003114D01*
X3087257Y-20003114D02*
X3087257Y-20107876D01*
X3445352Y-19898352D02*
X3273924Y-20155495D01*
X3670114Y-19907876D02*
X3689162Y-19907876D01*
X3689162Y-19907876D02*
X3708210Y-19917400D01*
X3708210Y-19917400D02*
X3717733Y-19926924D01*
X3717733Y-19926924D02*
X3727257Y-19945971D01*
X3727257Y-19945971D02*
X3736781Y-19984067D01*
X3736781Y-19984067D02*
X3736781Y-20031686D01*
X3736781Y-20031686D02*
X3727257Y-20069781D01*
X3727257Y-20069781D02*
X3717733Y-20088829D01*
X3717733Y-20088829D02*
X3708210Y-20098352D01*
X3708210Y-20098352D02*
X3689162Y-20107876D01*
X3689162Y-20107876D02*
X3670114Y-20107876D01*
X3670114Y-20107876D02*
X3651067Y-20098352D01*
X3651067Y-20098352D02*
X3641543Y-20088829D01*
X3641543Y-20088829D02*
X3632019Y-20069781D01*
X3632019Y-20069781D02*
X3622495Y-20031686D01*
X3622495Y-20031686D02*
X3622495Y-19984067D01*
X3622495Y-19984067D02*
X3632019Y-19945971D01*
X3632019Y-19945971D02*
X3641543Y-19926924D01*
X3641543Y-19926924D02*
X3651067Y-19917400D01*
X3651067Y-19917400D02*
X3670114Y-19907876D01*
X3822495Y-20088829D02*
X3832019Y-20098352D01*
X3832019Y-20098352D02*
X3822495Y-20107876D01*
X3822495Y-20107876D02*
X3812971Y-20098352D01*
X3812971Y-20098352D02*
X3822495Y-20088829D01*
X3822495Y-20088829D02*
X3822495Y-20107876D01*
X3955829Y-19907876D02*
X3974876Y-19907876D01*
X3974876Y-19907876D02*
X3993924Y-19917400D01*
X3993924Y-19917400D02*
X4003448Y-19926924D01*
X4003448Y-19926924D02*
X4012971Y-19945971D01*
X4012971Y-19945971D02*
X4022495Y-19984067D01*
X4022495Y-19984067D02*
X4022495Y-20031686D01*
X4022495Y-20031686D02*
X4012971Y-20069781D01*
X4012971Y-20069781D02*
X4003448Y-20088829D01*
X4003448Y-20088829D02*
X3993924Y-20098352D01*
X3993924Y-20098352D02*
X3974876Y-20107876D01*
X3974876Y-20107876D02*
X3955829Y-20107876D01*
X3955829Y-20107876D02*
X3936781Y-20098352D01*
X3936781Y-20098352D02*
X3927257Y-20088829D01*
X3927257Y-20088829D02*
X3917733Y-20069781D01*
X3917733Y-20069781D02*
X3908210Y-20031686D01*
X3908210Y-20031686D02*
X3908210Y-19984067D01*
X3908210Y-19984067D02*
X3917733Y-19945971D01*
X3917733Y-19945971D02*
X3927257Y-19926924D01*
X3927257Y-19926924D02*
X3936781Y-19917400D01*
X3936781Y-19917400D02*
X3955829Y-19907876D01*
X4193924Y-19907876D02*
X4155829Y-19907876D01*
X4155829Y-19907876D02*
X4136781Y-19917400D01*
X4136781Y-19917400D02*
X4127257Y-19926924D01*
X4127257Y-19926924D02*
X4108210Y-19955495D01*
X4108210Y-19955495D02*
X4098686Y-19993590D01*
X4098686Y-19993590D02*
X4098686Y-20069781D01*
X4098686Y-20069781D02*
X4108210Y-20088829D01*
X4108210Y-20088829D02*
X4117733Y-20098352D01*
X4117733Y-20098352D02*
X4136781Y-20107876D01*
X4136781Y-20107876D02*
X4174876Y-20107876D01*
X4174876Y-20107876D02*
X4193924Y-20098352D01*
X4193924Y-20098352D02*
X4203448Y-20088829D01*
X4203448Y-20088829D02*
X4212972Y-20069781D01*
X4212972Y-20069781D02*
X4212972Y-20022162D01*
X4212972Y-20022162D02*
X4203448Y-20003114D01*
X4203448Y-20003114D02*
X4193924Y-19993590D01*
X4193924Y-19993590D02*
X4174876Y-19984067D01*
X4174876Y-19984067D02*
X4136781Y-19984067D01*
X4136781Y-19984067D02*
X4117733Y-19993590D01*
X4117733Y-19993590D02*
X4108210Y-20003114D01*
X4108210Y-20003114D02*
X4098686Y-20022162D01*
X4336781Y-19907876D02*
X4355829Y-19907876D01*
X4355829Y-19907876D02*
X4374876Y-19917400D01*
X4374876Y-19917400D02*
X4384400Y-19926924D01*
X4384400Y-19926924D02*
X4393924Y-19945971D01*
X4393924Y-19945971D02*
X4403448Y-19984067D01*
X4403448Y-19984067D02*
X4403448Y-20031686D01*
X4403448Y-20031686D02*
X4393924Y-20069781D01*
X4393924Y-20069781D02*
X4384400Y-20088829D01*
X4384400Y-20088829D02*
X4374876Y-20098352D01*
X4374876Y-20098352D02*
X4355829Y-20107876D01*
X4355829Y-20107876D02*
X4336781Y-20107876D01*
X4336781Y-20107876D02*
X4317733Y-20098352D01*
X4317733Y-20098352D02*
X4308210Y-20088829D01*
X4308210Y-20088829D02*
X4298686Y-20069781D01*
X4298686Y-20069781D02*
X4289162Y-20031686D01*
X4289162Y-20031686D02*
X4289162Y-19984067D01*
X4289162Y-19984067D02*
X4298686Y-19945971D01*
X4298686Y-19945971D02*
X4308210Y-19926924D01*
X4308210Y-19926924D02*
X4317733Y-19917400D01*
X4317733Y-19917400D02*
X4336781Y-19907876D01*
X4574876Y-19907876D02*
X4536781Y-19907876D01*
X4536781Y-19907876D02*
X4517733Y-19917400D01*
X4517733Y-19917400D02*
X4508210Y-19926924D01*
X4508210Y-19926924D02*
X4489162Y-19955495D01*
X4489162Y-19955495D02*
X4479638Y-19993590D01*
X4479638Y-19993590D02*
X4479638Y-20069781D01*
X4479638Y-20069781D02*
X4489162Y-20088829D01*
X4489162Y-20088829D02*
X4498686Y-20098352D01*
X4498686Y-20098352D02*
X4517733Y-20107876D01*
X4517733Y-20107876D02*
X4555829Y-20107876D01*
X4555829Y-20107876D02*
X4574876Y-20098352D01*
X4574876Y-20098352D02*
X4584400Y-20088829D01*
X4584400Y-20088829D02*
X4593924Y-20069781D01*
X4593924Y-20069781D02*
X4593924Y-20022162D01*
X4593924Y-20022162D02*
X4584400Y-20003114D01*
X4584400Y-20003114D02*
X4574876Y-19993590D01*
X4574876Y-19993590D02*
X4555829Y-19984067D01*
X4555829Y-19984067D02*
X4517733Y-19984067D01*
X4517733Y-19984067D02*
X4498686Y-19993590D01*
X4498686Y-19993590D02*
X4489162Y-20003114D01*
X4489162Y-20003114D02*
X4479638Y-20022162D01*
X4670114Y-19907876D02*
X4670114Y-19945971D01*
X4746305Y-19907876D02*
X4746305Y-19945971D01*
X5009162Y-20184067D02*
X4999638Y-20174543D01*
X4999638Y-20174543D02*
X4980591Y-20145971D01*
X4980591Y-20145971D02*
X4971067Y-20126924D01*
X4971067Y-20126924D02*
X4961543Y-20098352D01*
X4961543Y-20098352D02*
X4952019Y-20050733D01*
X4952019Y-20050733D02*
X4952019Y-20012638D01*
X4952019Y-20012638D02*
X4961543Y-19965019D01*
X4961543Y-19965019D02*
X4971067Y-19936448D01*
X4971067Y-19936448D02*
X4980591Y-19917400D01*
X4980591Y-19917400D02*
X4999638Y-19888829D01*
X4999638Y-19888829D02*
X5009162Y-19879305D01*
X5171067Y-19907876D02*
X5132972Y-19907876D01*
X5132972Y-19907876D02*
X5113924Y-19917400D01*
X5113924Y-19917400D02*
X5104400Y-19926924D01*
X5104400Y-19926924D02*
X5085353Y-19955495D01*
X5085353Y-19955495D02*
X5075829Y-19993590D01*
X5075829Y-19993590D02*
X5075829Y-20069781D01*
X5075829Y-20069781D02*
X5085353Y-20088829D01*
X5085353Y-20088829D02*
X5094876Y-20098352D01*
X5094876Y-20098352D02*
X5113924Y-20107876D01*
X5113924Y-20107876D02*
X5152019Y-20107876D01*
X5152019Y-20107876D02*
X5171067Y-20098352D01*
X5171067Y-20098352D02*
X5180591Y-20088829D01*
X5180591Y-20088829D02*
X5190114Y-20069781D01*
X5190114Y-20069781D02*
X5190114Y-20022162D01*
X5190114Y-20022162D02*
X5180591Y-20003114D01*
X5180591Y-20003114D02*
X5171067Y-19993590D01*
X5171067Y-19993590D02*
X5152019Y-19984067D01*
X5152019Y-19984067D02*
X5113924Y-19984067D01*
X5113924Y-19984067D02*
X5094876Y-19993590D01*
X5094876Y-19993590D02*
X5085353Y-20003114D01*
X5085353Y-20003114D02*
X5075829Y-20022162D01*
X5395829Y-20107876D02*
X5395829Y-19907876D01*
X5481543Y-20107876D02*
X5481543Y-20003114D01*
X5481543Y-20003114D02*
X5472019Y-19984067D01*
X5472019Y-19984067D02*
X5452972Y-19974543D01*
X5452972Y-19974543D02*
X5424400Y-19974543D01*
X5424400Y-19974543D02*
X5405353Y-19984067D01*
X5405353Y-19984067D02*
X5395829Y-19993590D01*
X5605352Y-20107876D02*
X5586305Y-20098352D01*
X5586305Y-20098352D02*
X5576781Y-20088829D01*
X5576781Y-20088829D02*
X5567257Y-20069781D01*
X5567257Y-20069781D02*
X5567257Y-20012638D01*
X5567257Y-20012638D02*
X5576781Y-19993590D01*
X5576781Y-19993590D02*
X5586305Y-19984067D01*
X5586305Y-19984067D02*
X5605352Y-19974543D01*
X5605352Y-19974543D02*
X5633924Y-19974543D01*
X5633924Y-19974543D02*
X5652972Y-19984067D01*
X5652972Y-19984067D02*
X5662495Y-19993590D01*
X5662495Y-19993590D02*
X5672019Y-20012638D01*
X5672019Y-20012638D02*
X5672019Y-20069781D01*
X5672019Y-20069781D02*
X5662495Y-20088829D01*
X5662495Y-20088829D02*
X5652972Y-20098352D01*
X5652972Y-20098352D02*
X5633924Y-20107876D01*
X5633924Y-20107876D02*
X5605352Y-20107876D01*
X5786305Y-20107876D02*
X5767257Y-20098352D01*
X5767257Y-20098352D02*
X5757733Y-20079305D01*
X5757733Y-20079305D02*
X5757733Y-19907876D01*
X5938686Y-20098352D02*
X5919638Y-20107876D01*
X5919638Y-20107876D02*
X5881543Y-20107876D01*
X5881543Y-20107876D02*
X5862495Y-20098352D01*
X5862495Y-20098352D02*
X5852972Y-20079305D01*
X5852972Y-20079305D02*
X5852972Y-20003114D01*
X5852972Y-20003114D02*
X5862495Y-19984067D01*
X5862495Y-19984067D02*
X5881543Y-19974543D01*
X5881543Y-19974543D02*
X5919638Y-19974543D01*
X5919638Y-19974543D02*
X5938686Y-19984067D01*
X5938686Y-19984067D02*
X5948210Y-20003114D01*
X5948210Y-20003114D02*
X5948210Y-20022162D01*
X5948210Y-20022162D02*
X5852972Y-20041210D01*
X6024400Y-20098352D02*
X6043448Y-20107876D01*
X6043448Y-20107876D02*
X6081543Y-20107876D01*
X6081543Y-20107876D02*
X6100591Y-20098352D01*
X6100591Y-20098352D02*
X6110114Y-20079305D01*
X6110114Y-20079305D02*
X6110114Y-20069781D01*
X6110114Y-20069781D02*
X6100591Y-20050733D01*
X6100591Y-20050733D02*
X6081543Y-20041210D01*
X6081543Y-20041210D02*
X6052972Y-20041210D01*
X6052972Y-20041210D02*
X6033924Y-20031686D01*
X6033924Y-20031686D02*
X6024400Y-20012638D01*
X6024400Y-20012638D02*
X6024400Y-20003114D01*
X6024400Y-20003114D02*
X6033924Y-19984067D01*
X6033924Y-19984067D02*
X6052972Y-19974543D01*
X6052972Y-19974543D02*
X6081543Y-19974543D01*
X6081543Y-19974543D02*
X6100591Y-19984067D01*
X6176781Y-20184067D02*
X6186305Y-20174543D01*
X6186305Y-20174543D02*
X6205353Y-20145971D01*
X6205353Y-20145971D02*
X6214876Y-20126924D01*
X6214876Y-20126924D02*
X6224400Y-20098352D01*
X6224400Y-20098352D02*
X6233924Y-20050733D01*
X6233924Y-20050733D02*
X6233924Y-20012638D01*
X6233924Y-20012638D02*
X6224400Y-19965019D01*
X6224400Y-19965019D02*
X6214876Y-19936448D01*
X6214876Y-19936448D02*
X6205353Y-19917400D01*
X6205353Y-19917400D02*
X6186305Y-19888829D01*
X6186305Y-19888829D02*
X6176781Y-19879305D01*
X1344400Y-20208400D02*
X1544400Y-20408400D01*
X1544400Y-20208400D02*
X1344400Y-20408400D01*
X1515111Y-20379111D02*
X1515111Y-20237689D01*
X1373689Y-20237689D01*
X1373689Y-20379111D01*
X1515111Y-20379111D01*
X1782495Y-20200924D02*
X1792019Y-20191400D01*
X1792019Y-20191400D02*
X1811067Y-20181876D01*
X1811067Y-20181876D02*
X1858686Y-20181876D01*
X1858686Y-20181876D02*
X1877733Y-20191400D01*
X1877733Y-20191400D02*
X1887257Y-20200924D01*
X1887257Y-20200924D02*
X1896781Y-20219971D01*
X1896781Y-20219971D02*
X1896781Y-20239019D01*
X1896781Y-20239019D02*
X1887257Y-20267590D01*
X1887257Y-20267590D02*
X1772971Y-20381876D01*
X1772971Y-20381876D02*
X1896781Y-20381876D01*
X1982495Y-20362829D02*
X1992019Y-20372352D01*
X1992019Y-20372352D02*
X1982495Y-20381876D01*
X1982495Y-20381876D02*
X1972971Y-20372352D01*
X1972971Y-20372352D02*
X1982495Y-20362829D01*
X1982495Y-20362829D02*
X1982495Y-20381876D01*
X2115829Y-20181876D02*
X2134876Y-20181876D01*
X2134876Y-20181876D02*
X2153924Y-20191400D01*
X2153924Y-20191400D02*
X2163448Y-20200924D01*
X2163448Y-20200924D02*
X2172971Y-20219971D01*
X2172971Y-20219971D02*
X2182495Y-20258067D01*
X2182495Y-20258067D02*
X2182495Y-20305686D01*
X2182495Y-20305686D02*
X2172971Y-20343781D01*
X2172971Y-20343781D02*
X2163448Y-20362829D01*
X2163448Y-20362829D02*
X2153924Y-20372352D01*
X2153924Y-20372352D02*
X2134876Y-20381876D01*
X2134876Y-20381876D02*
X2115829Y-20381876D01*
X2115829Y-20381876D02*
X2096781Y-20372352D01*
X2096781Y-20372352D02*
X2087257Y-20362829D01*
X2087257Y-20362829D02*
X2077733Y-20343781D01*
X2077733Y-20343781D02*
X2068209Y-20305686D01*
X2068209Y-20305686D02*
X2068209Y-20258067D01*
X2068209Y-20258067D02*
X2077733Y-20219971D01*
X2077733Y-20219971D02*
X2087257Y-20200924D01*
X2087257Y-20200924D02*
X2096781Y-20191400D01*
X2096781Y-20191400D02*
X2115829Y-20181876D01*
X2306305Y-20181876D02*
X2325352Y-20181876D01*
X2325352Y-20181876D02*
X2344400Y-20191400D01*
X2344400Y-20191400D02*
X2353924Y-20200924D01*
X2353924Y-20200924D02*
X2363448Y-20219971D01*
X2363448Y-20219971D02*
X2372971Y-20258067D01*
X2372971Y-20258067D02*
X2372971Y-20305686D01*
X2372971Y-20305686D02*
X2363448Y-20343781D01*
X2363448Y-20343781D02*
X2353924Y-20362829D01*
X2353924Y-20362829D02*
X2344400Y-20372352D01*
X2344400Y-20372352D02*
X2325352Y-20381876D01*
X2325352Y-20381876D02*
X2306305Y-20381876D01*
X2306305Y-20381876D02*
X2287257Y-20372352D01*
X2287257Y-20372352D02*
X2277733Y-20362829D01*
X2277733Y-20362829D02*
X2268210Y-20343781D01*
X2268210Y-20343781D02*
X2258686Y-20305686D01*
X2258686Y-20305686D02*
X2258686Y-20258067D01*
X2258686Y-20258067D02*
X2268210Y-20219971D01*
X2268210Y-20219971D02*
X2277733Y-20200924D01*
X2277733Y-20200924D02*
X2287257Y-20191400D01*
X2287257Y-20191400D02*
X2306305Y-20181876D01*
X2496781Y-20181876D02*
X2515829Y-20181876D01*
X2515829Y-20181876D02*
X2534876Y-20191400D01*
X2534876Y-20191400D02*
X2544400Y-20200924D01*
X2544400Y-20200924D02*
X2553924Y-20219971D01*
X2553924Y-20219971D02*
X2563448Y-20258067D01*
X2563448Y-20258067D02*
X2563448Y-20305686D01*
X2563448Y-20305686D02*
X2553924Y-20343781D01*
X2553924Y-20343781D02*
X2544400Y-20362829D01*
X2544400Y-20362829D02*
X2534876Y-20372352D01*
X2534876Y-20372352D02*
X2515829Y-20381876D01*
X2515829Y-20381876D02*
X2496781Y-20381876D01*
X2496781Y-20381876D02*
X2477733Y-20372352D01*
X2477733Y-20372352D02*
X2468210Y-20362829D01*
X2468210Y-20362829D02*
X2458686Y-20343781D01*
X2458686Y-20343781D02*
X2449162Y-20305686D01*
X2449162Y-20305686D02*
X2449162Y-20258067D01*
X2449162Y-20258067D02*
X2458686Y-20219971D01*
X2458686Y-20219971D02*
X2468210Y-20200924D01*
X2468210Y-20200924D02*
X2477733Y-20191400D01*
X2477733Y-20191400D02*
X2496781Y-20181876D01*
X2649162Y-20381876D02*
X2649162Y-20248543D01*
X2649162Y-20267590D02*
X2658686Y-20258067D01*
X2658686Y-20258067D02*
X2677733Y-20248543D01*
X2677733Y-20248543D02*
X2706305Y-20248543D01*
X2706305Y-20248543D02*
X2725352Y-20258067D01*
X2725352Y-20258067D02*
X2734876Y-20277114D01*
X2734876Y-20277114D02*
X2734876Y-20381876D01*
X2734876Y-20277114D02*
X2744400Y-20258067D01*
X2744400Y-20258067D02*
X2763448Y-20248543D01*
X2763448Y-20248543D02*
X2792019Y-20248543D01*
X2792019Y-20248543D02*
X2811067Y-20258067D01*
X2811067Y-20258067D02*
X2820590Y-20277114D01*
X2820590Y-20277114D02*
X2820590Y-20381876D01*
X2915829Y-20381876D02*
X2915829Y-20248543D01*
X2915829Y-20267590D02*
X2925352Y-20258067D01*
X2925352Y-20258067D02*
X2944400Y-20248543D01*
X2944400Y-20248543D02*
X2972971Y-20248543D01*
X2972971Y-20248543D02*
X2992019Y-20258067D01*
X2992019Y-20258067D02*
X3001543Y-20277114D01*
X3001543Y-20277114D02*
X3001543Y-20381876D01*
X3001543Y-20277114D02*
X3011067Y-20258067D01*
X3011067Y-20258067D02*
X3030114Y-20248543D01*
X3030114Y-20248543D02*
X3058686Y-20248543D01*
X3058686Y-20248543D02*
X3077733Y-20258067D01*
X3077733Y-20258067D02*
X3087257Y-20277114D01*
X3087257Y-20277114D02*
X3087257Y-20381876D01*
X3445352Y-20172352D02*
X3273924Y-20429495D01*
X3670114Y-20181876D02*
X3689162Y-20181876D01*
X3689162Y-20181876D02*
X3708210Y-20191400D01*
X3708210Y-20191400D02*
X3717733Y-20200924D01*
X3717733Y-20200924D02*
X3727257Y-20219971D01*
X3727257Y-20219971D02*
X3736781Y-20258067D01*
X3736781Y-20258067D02*
X3736781Y-20305686D01*
X3736781Y-20305686D02*
X3727257Y-20343781D01*
X3727257Y-20343781D02*
X3717733Y-20362829D01*
X3717733Y-20362829D02*
X3708210Y-20372352D01*
X3708210Y-20372352D02*
X3689162Y-20381876D01*
X3689162Y-20381876D02*
X3670114Y-20381876D01*
X3670114Y-20381876D02*
X3651067Y-20372352D01*
X3651067Y-20372352D02*
X3641543Y-20362829D01*
X3641543Y-20362829D02*
X3632019Y-20343781D01*
X3632019Y-20343781D02*
X3622495Y-20305686D01*
X3622495Y-20305686D02*
X3622495Y-20258067D01*
X3622495Y-20258067D02*
X3632019Y-20219971D01*
X3632019Y-20219971D02*
X3641543Y-20200924D01*
X3641543Y-20200924D02*
X3651067Y-20191400D01*
X3651067Y-20191400D02*
X3670114Y-20181876D01*
X3822495Y-20362829D02*
X3832019Y-20372352D01*
X3832019Y-20372352D02*
X3822495Y-20381876D01*
X3822495Y-20381876D02*
X3812971Y-20372352D01*
X3812971Y-20372352D02*
X3822495Y-20362829D01*
X3822495Y-20362829D02*
X3822495Y-20381876D01*
X3955829Y-20181876D02*
X3974876Y-20181876D01*
X3974876Y-20181876D02*
X3993924Y-20191400D01*
X3993924Y-20191400D02*
X4003448Y-20200924D01*
X4003448Y-20200924D02*
X4012971Y-20219971D01*
X4012971Y-20219971D02*
X4022495Y-20258067D01*
X4022495Y-20258067D02*
X4022495Y-20305686D01*
X4022495Y-20305686D02*
X4012971Y-20343781D01*
X4012971Y-20343781D02*
X4003448Y-20362829D01*
X4003448Y-20362829D02*
X3993924Y-20372352D01*
X3993924Y-20372352D02*
X3974876Y-20381876D01*
X3974876Y-20381876D02*
X3955829Y-20381876D01*
X3955829Y-20381876D02*
X3936781Y-20372352D01*
X3936781Y-20372352D02*
X3927257Y-20362829D01*
X3927257Y-20362829D02*
X3917733Y-20343781D01*
X3917733Y-20343781D02*
X3908210Y-20305686D01*
X3908210Y-20305686D02*
X3908210Y-20258067D01*
X3908210Y-20258067D02*
X3917733Y-20219971D01*
X3917733Y-20219971D02*
X3927257Y-20200924D01*
X3927257Y-20200924D02*
X3936781Y-20191400D01*
X3936781Y-20191400D02*
X3955829Y-20181876D01*
X4089162Y-20181876D02*
X4222495Y-20181876D01*
X4222495Y-20181876D02*
X4136781Y-20381876D01*
X4327257Y-20267590D02*
X4308210Y-20258067D01*
X4308210Y-20258067D02*
X4298686Y-20248543D01*
X4298686Y-20248543D02*
X4289162Y-20229495D01*
X4289162Y-20229495D02*
X4289162Y-20219971D01*
X4289162Y-20219971D02*
X4298686Y-20200924D01*
X4298686Y-20200924D02*
X4308210Y-20191400D01*
X4308210Y-20191400D02*
X4327257Y-20181876D01*
X4327257Y-20181876D02*
X4365353Y-20181876D01*
X4365353Y-20181876D02*
X4384400Y-20191400D01*
X4384400Y-20191400D02*
X4393924Y-20200924D01*
X4393924Y-20200924D02*
X4403448Y-20219971D01*
X4403448Y-20219971D02*
X4403448Y-20229495D01*
X4403448Y-20229495D02*
X4393924Y-20248543D01*
X4393924Y-20248543D02*
X4384400Y-20258067D01*
X4384400Y-20258067D02*
X4365353Y-20267590D01*
X4365353Y-20267590D02*
X4327257Y-20267590D01*
X4327257Y-20267590D02*
X4308210Y-20277114D01*
X4308210Y-20277114D02*
X4298686Y-20286638D01*
X4298686Y-20286638D02*
X4289162Y-20305686D01*
X4289162Y-20305686D02*
X4289162Y-20343781D01*
X4289162Y-20343781D02*
X4298686Y-20362829D01*
X4298686Y-20362829D02*
X4308210Y-20372352D01*
X4308210Y-20372352D02*
X4327257Y-20381876D01*
X4327257Y-20381876D02*
X4365353Y-20381876D01*
X4365353Y-20381876D02*
X4384400Y-20372352D01*
X4384400Y-20372352D02*
X4393924Y-20362829D01*
X4393924Y-20362829D02*
X4403448Y-20343781D01*
X4403448Y-20343781D02*
X4403448Y-20305686D01*
X4403448Y-20305686D02*
X4393924Y-20286638D01*
X4393924Y-20286638D02*
X4384400Y-20277114D01*
X4384400Y-20277114D02*
X4365353Y-20267590D01*
X4470114Y-20181876D02*
X4603448Y-20181876D01*
X4603448Y-20181876D02*
X4517733Y-20381876D01*
X4670114Y-20181876D02*
X4670114Y-20219971D01*
X4746305Y-20181876D02*
X4746305Y-20219971D01*
X5009162Y-20458067D02*
X4999638Y-20448543D01*
X4999638Y-20448543D02*
X4980591Y-20419971D01*
X4980591Y-20419971D02*
X4971067Y-20400924D01*
X4971067Y-20400924D02*
X4961543Y-20372352D01*
X4961543Y-20372352D02*
X4952019Y-20324733D01*
X4952019Y-20324733D02*
X4952019Y-20286638D01*
X4952019Y-20286638D02*
X4961543Y-20239019D01*
X4961543Y-20239019D02*
X4971067Y-20210448D01*
X4971067Y-20210448D02*
X4980591Y-20191400D01*
X4980591Y-20191400D02*
X4999638Y-20162829D01*
X4999638Y-20162829D02*
X5009162Y-20153305D01*
X5171067Y-20181876D02*
X5132972Y-20181876D01*
X5132972Y-20181876D02*
X5113924Y-20191400D01*
X5113924Y-20191400D02*
X5104400Y-20200924D01*
X5104400Y-20200924D02*
X5085353Y-20229495D01*
X5085353Y-20229495D02*
X5075829Y-20267590D01*
X5075829Y-20267590D02*
X5075829Y-20343781D01*
X5075829Y-20343781D02*
X5085353Y-20362829D01*
X5085353Y-20362829D02*
X5094876Y-20372352D01*
X5094876Y-20372352D02*
X5113924Y-20381876D01*
X5113924Y-20381876D02*
X5152019Y-20381876D01*
X5152019Y-20381876D02*
X5171067Y-20372352D01*
X5171067Y-20372352D02*
X5180591Y-20362829D01*
X5180591Y-20362829D02*
X5190114Y-20343781D01*
X5190114Y-20343781D02*
X5190114Y-20296162D01*
X5190114Y-20296162D02*
X5180591Y-20277114D01*
X5180591Y-20277114D02*
X5171067Y-20267590D01*
X5171067Y-20267590D02*
X5152019Y-20258067D01*
X5152019Y-20258067D02*
X5113924Y-20258067D01*
X5113924Y-20258067D02*
X5094876Y-20267590D01*
X5094876Y-20267590D02*
X5085353Y-20277114D01*
X5085353Y-20277114D02*
X5075829Y-20296162D01*
X5395829Y-20381876D02*
X5395829Y-20181876D01*
X5481543Y-20381876D02*
X5481543Y-20277114D01*
X5481543Y-20277114D02*
X5472019Y-20258067D01*
X5472019Y-20258067D02*
X5452972Y-20248543D01*
X5452972Y-20248543D02*
X5424400Y-20248543D01*
X5424400Y-20248543D02*
X5405353Y-20258067D01*
X5405353Y-20258067D02*
X5395829Y-20267590D01*
X5605352Y-20381876D02*
X5586305Y-20372352D01*
X5586305Y-20372352D02*
X5576781Y-20362829D01*
X5576781Y-20362829D02*
X5567257Y-20343781D01*
X5567257Y-20343781D02*
X5567257Y-20286638D01*
X5567257Y-20286638D02*
X5576781Y-20267590D01*
X5576781Y-20267590D02*
X5586305Y-20258067D01*
X5586305Y-20258067D02*
X5605352Y-20248543D01*
X5605352Y-20248543D02*
X5633924Y-20248543D01*
X5633924Y-20248543D02*
X5652972Y-20258067D01*
X5652972Y-20258067D02*
X5662495Y-20267590D01*
X5662495Y-20267590D02*
X5672019Y-20286638D01*
X5672019Y-20286638D02*
X5672019Y-20343781D01*
X5672019Y-20343781D02*
X5662495Y-20362829D01*
X5662495Y-20362829D02*
X5652972Y-20372352D01*
X5652972Y-20372352D02*
X5633924Y-20381876D01*
X5633924Y-20381876D02*
X5605352Y-20381876D01*
X5786305Y-20381876D02*
X5767257Y-20372352D01*
X5767257Y-20372352D02*
X5757733Y-20353305D01*
X5757733Y-20353305D02*
X5757733Y-20181876D01*
X5938686Y-20372352D02*
X5919638Y-20381876D01*
X5919638Y-20381876D02*
X5881543Y-20381876D01*
X5881543Y-20381876D02*
X5862495Y-20372352D01*
X5862495Y-20372352D02*
X5852972Y-20353305D01*
X5852972Y-20353305D02*
X5852972Y-20277114D01*
X5852972Y-20277114D02*
X5862495Y-20258067D01*
X5862495Y-20258067D02*
X5881543Y-20248543D01*
X5881543Y-20248543D02*
X5919638Y-20248543D01*
X5919638Y-20248543D02*
X5938686Y-20258067D01*
X5938686Y-20258067D02*
X5948210Y-20277114D01*
X5948210Y-20277114D02*
X5948210Y-20296162D01*
X5948210Y-20296162D02*
X5852972Y-20315210D01*
X6024400Y-20372352D02*
X6043448Y-20381876D01*
X6043448Y-20381876D02*
X6081543Y-20381876D01*
X6081543Y-20381876D02*
X6100591Y-20372352D01*
X6100591Y-20372352D02*
X6110114Y-20353305D01*
X6110114Y-20353305D02*
X6110114Y-20343781D01*
X6110114Y-20343781D02*
X6100591Y-20324733D01*
X6100591Y-20324733D02*
X6081543Y-20315210D01*
X6081543Y-20315210D02*
X6052972Y-20315210D01*
X6052972Y-20315210D02*
X6033924Y-20305686D01*
X6033924Y-20305686D02*
X6024400Y-20286638D01*
X6024400Y-20286638D02*
X6024400Y-20277114D01*
X6024400Y-20277114D02*
X6033924Y-20258067D01*
X6033924Y-20258067D02*
X6052972Y-20248543D01*
X6052972Y-20248543D02*
X6081543Y-20248543D01*
X6081543Y-20248543D02*
X6100591Y-20258067D01*
X6176781Y-20458067D02*
X6186305Y-20448543D01*
X6186305Y-20448543D02*
X6205353Y-20419971D01*
X6205353Y-20419971D02*
X6214876Y-20400924D01*
X6214876Y-20400924D02*
X6224400Y-20372352D01*
X6224400Y-20372352D02*
X6233924Y-20324733D01*
X6233924Y-20324733D02*
X6233924Y-20286638D01*
X6233924Y-20286638D02*
X6224400Y-20239019D01*
X6224400Y-20239019D02*
X6214876Y-20210448D01*
X6214876Y-20210448D02*
X6205353Y-20191400D01*
X6205353Y-20191400D02*
X6186305Y-20162829D01*
X6186305Y-20162829D02*
X6176781Y-20153305D01*
M02*
