G04 #@! TF.GenerationSoftware,KiCad,Pcbnew,(7.99.0-200-gad838e3d73)*
G04 #@! TF.CreationDate,2024-04-01T14:09:53+07:00*
G04 #@! TF.ProjectId,WMS,574d532e-6b69-4636-9164-5f7063625858,rev?*
G04 #@! TF.SameCoordinates,Original*
G04 #@! TF.FileFunction,Paste,Top*
G04 #@! TF.FilePolarity,Positive*
%FSLAX46Y46*%
G04 Gerber Fmt 4.6, Leading zero omitted, Abs format (unit mm)*
G04 Created by KiCad (PCBNEW (7.99.0-200-gad838e3d73)) date 2024-04-01 14:09:53*
%MOMM*%
%LPD*%
G01*
G04 APERTURE LIST*
G04 Aperture macros list*
%AMRoundRect*
0 Rectangle with rounded corners*
0 $1 Rounding radius*
0 $2 $3 $4 $5 $6 $7 $8 $9 X,Y pos of 4 corners*
0 Add a 4 corners polygon primitive as box body*
4,1,4,$2,$3,$4,$5,$6,$7,$8,$9,$2,$3,0*
0 Add four circle primitives for the rounded corners*
1,1,$1+$1,$2,$3*
1,1,$1+$1,$4,$5*
1,1,$1+$1,$6,$7*
1,1,$1+$1,$8,$9*
0 Add four rect primitives between the rounded corners*
20,1,$1+$1,$2,$3,$4,$5,0*
20,1,$1+$1,$4,$5,$6,$7,0*
20,1,$1+$1,$6,$7,$8,$9,0*
20,1,$1+$1,$8,$9,$2,$3,0*%
G04 Aperture macros list end*
%ADD10RoundRect,0.250000X-0.262500X-0.450000X0.262500X-0.450000X0.262500X0.450000X-0.262500X0.450000X0*%
%ADD11RoundRect,0.250000X0.450000X-0.262500X0.450000X0.262500X-0.450000X0.262500X-0.450000X-0.262500X0*%
%ADD12R,7.340000X6.350000*%
%ADD13R,1.100000X0.300000*%
%ADD14R,3.100000X2.300000*%
%ADD15RoundRect,0.150000X0.150000X0.625000X-0.150000X0.625000X-0.150000X-0.625000X0.150000X-0.625000X0*%
%ADD16RoundRect,0.250000X0.350000X0.650000X-0.350000X0.650000X-0.350000X-0.650000X0.350000X-0.650000X0*%
G04 APERTURE END LIST*
D10*
X166370000Y-50215800D03*
X168195000Y-50215800D03*
D11*
X192963800Y-110515400D03*
X192963800Y-108690400D03*
D12*
X76406999Y-64744599D03*
X155066999Y-64744599D03*
D10*
X157991800Y-50114200D03*
X159816800Y-50114200D03*
D13*
X164083999Y-61029199D03*
X164083999Y-61529199D03*
X164083999Y-62029199D03*
X164083999Y-62529199D03*
X164083999Y-63029199D03*
X164083999Y-63529199D03*
X164083999Y-64029199D03*
X164083999Y-64529199D03*
X164083999Y-65029199D03*
X164083999Y-65529199D03*
X164083999Y-66029199D03*
X164083999Y-66529199D03*
X164083999Y-67029199D03*
X164083999Y-67529199D03*
X164083999Y-68029199D03*
X164083999Y-68529199D03*
X164083999Y-69029199D03*
X164083999Y-69529199D03*
X164083999Y-70029199D03*
X164083999Y-70529199D03*
D14*
X165783999Y-72199199D03*
X165783999Y-59359199D03*
D15*
X182221000Y-68040000D03*
X181221000Y-68040000D03*
X180221000Y-68040000D03*
X179221000Y-68040000D03*
D16*
X183521000Y-64165000D03*
X177921000Y-64165000D03*
D11*
X182549800Y-98345000D03*
X182549800Y-96520000D03*
X208254600Y-98294200D03*
X208254600Y-96469200D03*
M02*
