G04 #@! TF.GenerationSoftware,KiCad,Pcbnew,(7.99.0-200-gad838e3d73)*
G04 #@! TF.CreationDate,2024-04-01T14:09:54+07:00*
G04 #@! TF.ProjectId,WMS,574d532e-6b69-4636-9164-5f7063625858,rev?*
G04 #@! TF.SameCoordinates,Original*
G04 #@! TF.FileFunction,Soldermask,Top*
G04 #@! TF.FilePolarity,Negative*
%FSLAX46Y46*%
G04 Gerber Fmt 4.6, Leading zero omitted, Abs format (unit mm)*
G04 Created by KiCad (PCBNEW (7.99.0-200-gad838e3d73)) date 2024-04-01 14:09:54*
%MOMM*%
%LPD*%
G01*
G04 APERTURE LIST*
G04 Aperture macros list*
%AMRoundRect*
0 Rectangle with rounded corners*
0 $1 Rounding radius*
0 $2 $3 $4 $5 $6 $7 $8 $9 X,Y pos of 4 corners*
0 Add a 4 corners polygon primitive as box body*
4,1,4,$2,$3,$4,$5,$6,$7,$8,$9,$2,$3,0*
0 Add four circle primitives for the rounded corners*
1,1,$1+$1,$2,$3*
1,1,$1+$1,$4,$5*
1,1,$1+$1,$6,$7*
1,1,$1+$1,$8,$9*
0 Add four rect primitives between the rounded corners*
20,1,$1+$1,$2,$3,$4,$5,0*
20,1,$1+$1,$4,$5,$6,$7,0*
20,1,$1+$1,$6,$7,$8,$9,0*
20,1,$1+$1,$8,$9,$2,$3,0*%
G04 Aperture macros list end*
%ADD10RoundRect,0.250000X-0.262500X-0.450000X0.262500X-0.450000X0.262500X0.450000X-0.262500X0.450000X0*%
%ADD11R,5.000000X3.500000*%
%ADD12RoundRect,0.250000X0.450000X-0.262500X0.450000X0.262500X-0.450000X0.262500X-0.450000X-0.262500X0*%
%ADD13C,2.390000*%
%ADD14C,3.450000*%
%ADD15R,7.340000X6.350000*%
%ADD16C,2.200000*%
%ADD17R,1.700000X1.700000*%
%ADD18O,1.700000X1.700000*%
%ADD19R,1.100000X0.300000*%
%ADD20R,3.100000X2.300000*%
%ADD21RoundRect,0.150000X0.150000X0.625000X-0.150000X0.625000X-0.150000X-0.625000X0.150000X-0.625000X0*%
%ADD22RoundRect,0.250000X0.350000X0.650000X-0.350000X0.650000X-0.350000X-0.650000X0.350000X-0.650000X0*%
%ADD23C,1.700000*%
%ADD24R,2.800000X2.800000*%
%ADD25O,4.000000X2.800000*%
%ADD26O,3.048000X1.850000*%
%ADD27R,2.000000X2.000000*%
%ADD28C,2.000000*%
%ADD29O,1.600000X2.000000*%
%ADD30R,1.800000X1.800000*%
%ADD31C,1.800000*%
G04 APERTURE END LIST*
D10*
X166370000Y-50215800D03*
X168195000Y-50215800D03*
D11*
X160019999Y-89965999D03*
X160019999Y-96415999D03*
X129019999Y-96415999D03*
X129019999Y-89915999D03*
D12*
X192963800Y-110515400D03*
X192963800Y-108690400D03*
D13*
X79807000Y-56744600D03*
D14*
X88137000Y-72744600D03*
X143337000Y-56744600D03*
D15*
X76406999Y-64744599D03*
X155066999Y-64744599D03*
D10*
X157991800Y-50114200D03*
X159816800Y-50114200D03*
D16*
X185674000Y-75311000D03*
D17*
X75183999Y-108457999D03*
D18*
X77723999Y-108457999D03*
X80263999Y-108457999D03*
X82803999Y-108457999D03*
X85343999Y-108457999D03*
X87883999Y-108457999D03*
X90423999Y-108457999D03*
X92963999Y-108457999D03*
X95503999Y-108457999D03*
X98043999Y-108457999D03*
X100583999Y-108457999D03*
X103123999Y-108457999D03*
X105663999Y-108457999D03*
X108203999Y-108457999D03*
X110743999Y-108457999D03*
X113283999Y-108457999D03*
X115823999Y-108457999D03*
X118363999Y-108457999D03*
X120903999Y-108457999D03*
X123443999Y-108457999D03*
X125983999Y-108457999D03*
X128523999Y-108457999D03*
X131063999Y-108457999D03*
X133603999Y-108457999D03*
X136143999Y-108457999D03*
X138683999Y-108457999D03*
X141223999Y-108457999D03*
X143763999Y-108457999D03*
X146303999Y-108457999D03*
X148843999Y-108457999D03*
X151383999Y-108457999D03*
X153923999Y-108457999D03*
X156463999Y-108457999D03*
X159003999Y-108457999D03*
X161543999Y-108457999D03*
X164083999Y-108457999D03*
X166623999Y-108457999D03*
X169163999Y-108457999D03*
X171703999Y-108457999D03*
X174243999Y-108457999D03*
D19*
X164083999Y-61029199D03*
X164083999Y-61529199D03*
X164083999Y-62029199D03*
X164083999Y-62529199D03*
X164083999Y-63029199D03*
X164083999Y-63529199D03*
X164083999Y-64029199D03*
X164083999Y-64529199D03*
X164083999Y-65029199D03*
X164083999Y-65529199D03*
X164083999Y-66029199D03*
X164083999Y-66529199D03*
X164083999Y-67029199D03*
X164083999Y-67529199D03*
X164083999Y-68029199D03*
X164083999Y-68529199D03*
X164083999Y-69029199D03*
X164083999Y-69529199D03*
X164083999Y-70029199D03*
X164083999Y-70529199D03*
D20*
X165783999Y-72199199D03*
X165783999Y-59359199D03*
D17*
X184403999Y-108457999D03*
D18*
X181863999Y-108457999D03*
X179323999Y-108457999D03*
D16*
X210312000Y-109474000D03*
X121564400Y-48691800D03*
D21*
X182221000Y-68040000D03*
X181221000Y-68040000D03*
X180221000Y-68040000D03*
X179221000Y-68040000D03*
D22*
X183521000Y-64165000D03*
X177921000Y-64165000D03*
D12*
X182549800Y-98345000D03*
X182549800Y-96520000D03*
X208254600Y-98294200D03*
X208254600Y-96469200D03*
D23*
X75184000Y-81788000D03*
D18*
X77723999Y-81787999D03*
X80263999Y-81787999D03*
X82803999Y-81787999D03*
X85343999Y-81787999D03*
X87883999Y-81787999D03*
X90423999Y-81787999D03*
X92963999Y-81787999D03*
X95503999Y-81787999D03*
X98043999Y-81787999D03*
X100583999Y-81787999D03*
X103123999Y-81787999D03*
X105663999Y-81787999D03*
X108203999Y-81787999D03*
X110743999Y-81787999D03*
X113283999Y-81787999D03*
X115823999Y-81787999D03*
X118363999Y-81787999D03*
X120903999Y-81787999D03*
X123443999Y-81787999D03*
X125983999Y-81787999D03*
X128523999Y-81787999D03*
X131063999Y-81787999D03*
X133603999Y-81787999D03*
X136143999Y-81787999D03*
X138683999Y-81787999D03*
X141223999Y-81787999D03*
X143763999Y-81787999D03*
X146303999Y-81787999D03*
X148843999Y-81787999D03*
X151383999Y-81787999D03*
X153923999Y-81787999D03*
X156463999Y-81787999D03*
X159003999Y-81787999D03*
X161543999Y-81787999D03*
X164083999Y-81787999D03*
X166623999Y-81787999D03*
X169163999Y-81787999D03*
X171703999Y-81787999D03*
X174243999Y-81787999D03*
X174243999Y-104647999D03*
X171703999Y-104647999D03*
X169163999Y-104647999D03*
X166623999Y-104647999D03*
X164083999Y-104647999D03*
X161543999Y-104647999D03*
X159003999Y-104647999D03*
X156463999Y-104647999D03*
X153923999Y-104647999D03*
X151383999Y-104647999D03*
X148843999Y-104647999D03*
X146303999Y-104647999D03*
X143763999Y-104647999D03*
X141223999Y-104647999D03*
X138683999Y-104647999D03*
X136143999Y-104647999D03*
X133603999Y-104647999D03*
X131063999Y-104647999D03*
X128523999Y-104647999D03*
X125983999Y-104647999D03*
X123443999Y-104647999D03*
X120903999Y-104647999D03*
X118363999Y-104647999D03*
X115823999Y-104647999D03*
X113283999Y-104647999D03*
X110743999Y-104647999D03*
X108203999Y-104647999D03*
X105663999Y-104647999D03*
X103123999Y-104647999D03*
X100583999Y-104647999D03*
X98043999Y-104647999D03*
X95503999Y-104647999D03*
X92963999Y-104647999D03*
X90423999Y-104647999D03*
X87883999Y-104647999D03*
X85343999Y-104647999D03*
X82803999Y-104647999D03*
X80263999Y-104647999D03*
X77723999Y-104647999D03*
D23*
X75184000Y-104648000D03*
D18*
X179323999Y-104647999D03*
X181863999Y-104647999D03*
D17*
X184403999Y-104647999D03*
D16*
X87426800Y-114858800D03*
D17*
X105663999Y-112013999D03*
D18*
X108203999Y-112013999D03*
X110743999Y-112013999D03*
X113283999Y-112013999D03*
X115823999Y-112013999D03*
X118363999Y-112013999D03*
X120903999Y-112013999D03*
X123443999Y-112013999D03*
X125983999Y-112013999D03*
X128523999Y-112013999D03*
X131063999Y-112013999D03*
X133603999Y-112013999D03*
X136143999Y-112013999D03*
X138683999Y-112013999D03*
X141223999Y-112013999D03*
X143763999Y-112013999D03*
X146303999Y-112013999D03*
X148843999Y-112013999D03*
D24*
X74929999Y-86359999D03*
X74929999Y-100559999D03*
X97829999Y-86359999D03*
X97829999Y-100859999D03*
X97829999Y-89859999D03*
X97829999Y-97459999D03*
D17*
X75183999Y-77977999D03*
D18*
X77723999Y-77977999D03*
X80263999Y-77977999D03*
X82803999Y-77977999D03*
X85343999Y-77977999D03*
X87883999Y-77977999D03*
X90423999Y-77977999D03*
X92963999Y-77977999D03*
X95503999Y-77977999D03*
X98043999Y-77977999D03*
X100583999Y-77977999D03*
X103123999Y-77977999D03*
X105663999Y-77977999D03*
X108203999Y-77977999D03*
X110743999Y-77977999D03*
X113283999Y-77977999D03*
X115823999Y-77977999D03*
X118363999Y-77977999D03*
X120903999Y-77977999D03*
X123443999Y-77977999D03*
X125983999Y-77977999D03*
X128523999Y-77977999D03*
X131063999Y-77977999D03*
X133603999Y-77977999D03*
X136143999Y-77977999D03*
X138683999Y-77977999D03*
X141223999Y-77977999D03*
X143763999Y-77977999D03*
X146303999Y-77977999D03*
X148843999Y-77977999D03*
X151383999Y-77977999D03*
X153923999Y-77977999D03*
X156463999Y-77977999D03*
X159003999Y-77977999D03*
X161543999Y-77977999D03*
X164083999Y-77977999D03*
X166623999Y-77977999D03*
X169163999Y-77977999D03*
X171703999Y-77977999D03*
X174243999Y-77977999D03*
D25*
X116331999Y-89456799D03*
X116331999Y-94156799D03*
X116331999Y-98856799D03*
X121131999Y-89456799D03*
X121131999Y-94156799D03*
X121131999Y-98856799D03*
D26*
X185724799Y-93080199D03*
X173224799Y-93080199D03*
X185724799Y-98080199D03*
X173224799Y-98080199D03*
D27*
X181447599Y-59207399D03*
D28*
X173847600Y-59207400D03*
D25*
X106857799Y-98932999D03*
X106857799Y-94432999D03*
X106857799Y-89932999D03*
D29*
X146469599Y-50258399D03*
X143929599Y-50258399D03*
X141389599Y-50258399D03*
X138849599Y-50258399D03*
D26*
X217782799Y-93094799D03*
X205282799Y-93094799D03*
X217782799Y-98094799D03*
X205282799Y-98094799D03*
D30*
X170205399Y-50037999D03*
D31*
X172745400Y-50038000D03*
D30*
X161797999Y-50114199D03*
D31*
X164338000Y-50114200D03*
D26*
X201755399Y-105587799D03*
X189255399Y-105587799D03*
X201755399Y-110587799D03*
X189255399Y-110587799D03*
D28*
X198322000Y-83424200D03*
X191822000Y-83424200D03*
X198322000Y-87924200D03*
X191822000Y-87924200D03*
M02*
