M48
; DRILL file {KiCad (7.99.0-200-gad838e3d73)} date Mon Apr  1 14:10:08 2024
; FORMAT={-:-/ absolute / metric / decimal}
; #@! TF.CreationDate,2024-04-01T14:10:08+07:00
; #@! TF.GenerationSoftware,Kicad,Pcbnew,(7.99.0-200-gad838e3d73)
; #@! TF.FileFunction,Plated,1,2,PTH
FMAT,2
METRIC
; #@! TA.AperFunction,Plated,PTH,ViaDrill
T1C0.400
; #@! TA.AperFunction,Plated,PTH,ComponentDrill
T2C0.900
; #@! TA.AperFunction,Plated,PTH,ComponentDrill
T3C1.000
; #@! TA.AperFunction,Plated,PTH,ComponentDrill
T4C1.100
; #@! TA.AperFunction,Plated,PTH,ComponentDrill
T5C1.250
; #@! TA.AperFunction,Plated,PTH,ComponentDrill
T6C1.300
; #@! TA.AperFunction,Plated,PTH,ComponentDrill
T7C1.540
%
G90
G05
T1
X88.138Y-99.949
X91.567Y-86.665
X110.033Y-88.595
X113.919Y-86.919
X125.324Y-87.452
X135.331Y-93.599
X153.264Y-52.959
X153.289Y-51.41
X157.353Y-52.857
X157.404Y-54.204
X162.992Y-100.736
X165.583Y-95.783
X171.018Y-95.783
X174.244Y-86.436
X175.92Y-84.125
X176.632Y-85.09
X176.682Y-75.286
X178.206Y-81.305
X178.943Y-78.08
X178.943Y-80.213
X178.968Y-74.27
X183.464Y-81.686
X183.515Y-83.414
X183.921Y-79.959
X202.565Y-90.399
X214.351Y-90.932
X215.468Y-88.417
T2
X161.798Y-50.114
X164.338Y-50.114
X170.205Y-50.038
X172.745Y-50.038
T3
X75.184Y-77.978
X75.184Y-81.788
X75.184Y-104.648
X75.184Y-108.458
X77.724Y-77.978
X77.724Y-81.788
X77.724Y-104.648
X77.724Y-108.458
X80.264Y-77.978
X80.264Y-81.788
X80.264Y-104.648
X80.264Y-108.458
X82.804Y-77.978
X82.804Y-81.788
X82.804Y-104.648
X82.804Y-108.458
X85.344Y-77.978
X85.344Y-81.788
X85.344Y-104.648
X85.344Y-108.458
X87.884Y-77.978
X87.884Y-81.788
X87.884Y-104.648
X87.884Y-108.458
X90.424Y-77.978
X90.424Y-81.788
X90.424Y-104.648
X90.424Y-108.458
X92.964Y-77.978
X92.964Y-81.788
X92.964Y-104.648
X92.964Y-108.458
X95.504Y-77.978
X95.504Y-81.788
X95.504Y-104.648
X95.504Y-108.458
X98.044Y-77.978
X98.044Y-81.788
X98.044Y-104.648
X98.044Y-108.458
X100.584Y-77.978
X100.584Y-81.788
X100.584Y-104.648
X100.584Y-108.458
X103.124Y-77.978
X103.124Y-81.788
X103.124Y-104.648
X103.124Y-108.458
X105.664Y-77.978
X105.664Y-81.788
X105.664Y-104.648
X105.664Y-108.458
X105.664Y-112.014
X108.204Y-77.978
X108.204Y-81.788
X108.204Y-104.648
X108.204Y-108.458
X108.204Y-112.014
X110.744Y-77.978
X110.744Y-81.788
X110.744Y-104.648
X110.744Y-108.458
X110.744Y-112.014
X113.284Y-77.978
X113.284Y-81.788
X113.284Y-104.648
X113.284Y-108.458
X113.284Y-112.014
X115.824Y-77.978
X115.824Y-81.788
X115.824Y-104.648
X115.824Y-108.458
X115.824Y-112.014
X118.364Y-77.978
X118.364Y-81.788
X118.364Y-104.648
X118.364Y-108.458
X118.364Y-112.014
X120.904Y-77.978
X120.904Y-81.788
X120.904Y-104.648
X120.904Y-108.458
X120.904Y-112.014
X123.444Y-77.978
X123.444Y-81.788
X123.444Y-104.648
X123.444Y-108.458
X123.444Y-112.014
X125.984Y-77.978
X125.984Y-81.788
X125.984Y-104.648
X125.984Y-108.458
X125.984Y-112.014
X128.524Y-77.978
X128.524Y-81.788
X128.524Y-104.648
X128.524Y-108.458
X128.524Y-112.014
X131.064Y-77.978
X131.064Y-81.788
X131.064Y-104.648
X131.064Y-108.458
X131.064Y-112.014
X133.604Y-77.978
X133.604Y-81.788
X133.604Y-104.648
X133.604Y-108.458
X133.604Y-112.014
X136.144Y-77.978
X136.144Y-81.788
X136.144Y-104.648
X136.144Y-108.458
X136.144Y-112.014
X138.684Y-77.978
X138.684Y-81.788
X138.684Y-104.648
X138.684Y-108.458
X138.684Y-112.014
X138.85Y-50.258
X141.224Y-77.978
X141.224Y-81.788
X141.224Y-104.648
X141.224Y-108.458
X141.224Y-112.014
X141.39Y-50.258
X143.764Y-77.978
X143.764Y-81.788
X143.764Y-104.648
X143.764Y-108.458
X143.764Y-112.014
X143.93Y-50.258
X146.304Y-77.978
X146.304Y-81.788
X146.304Y-104.648
X146.304Y-108.458
X146.304Y-112.014
X146.47Y-50.258
X148.844Y-77.978
X148.844Y-81.788
X148.844Y-104.648
X148.844Y-108.458
X148.844Y-112.014
X151.384Y-77.978
X151.384Y-81.788
X151.384Y-104.648
X151.384Y-108.458
X153.924Y-77.978
X153.924Y-81.788
X153.924Y-104.648
X153.924Y-108.458
X156.464Y-77.978
X156.464Y-81.788
X156.464Y-104.648
X156.464Y-108.458
X159.004Y-77.978
X159.004Y-81.788
X159.004Y-104.648
X159.004Y-108.458
X161.544Y-77.978
X161.544Y-81.788
X161.544Y-104.648
X161.544Y-108.458
X164.084Y-77.978
X164.084Y-81.788
X164.084Y-104.648
X164.084Y-108.458
X166.624Y-77.978
X166.624Y-81.788
X166.624Y-104.648
X166.624Y-108.458
X169.164Y-77.978
X169.164Y-81.788
X169.164Y-104.648
X169.164Y-108.458
X171.704Y-77.978
X171.704Y-81.788
X171.704Y-104.648
X171.704Y-108.458
X173.848Y-59.207
X174.244Y-77.978
X174.244Y-81.788
X174.244Y-104.648
X174.244Y-108.458
X179.324Y-104.648
X179.324Y-108.458
X181.448Y-59.207
X181.864Y-104.648
X181.864Y-108.458
X184.404Y-104.648
X184.404Y-108.458
T4
X191.822Y-83.424
X191.822Y-87.924
X198.322Y-83.424
X198.322Y-87.924
T5
X129.02Y-89.916
X129.02Y-96.416
X160.02Y-89.966
X160.02Y-96.416
T6
X173.225Y-93.08
X173.225Y-98.08
X185.725Y-93.08
X185.725Y-98.08
X189.255Y-105.588
X189.255Y-110.588
X201.755Y-105.588
X201.755Y-110.588
X205.283Y-93.095
X205.283Y-98.095
X217.783Y-93.095
X217.783Y-98.095
T7
X74.93Y-86.36
X74.93Y-100.56
X97.83Y-86.36
X97.83Y-89.86
X97.83Y-97.46
X97.83Y-100.86
T6
X106.258Y-89.933G85X107.458Y-89.933
G05
X106.258Y-94.433G85X107.458Y-94.433
G05
X106.258Y-98.933G85X107.458Y-98.933
G05
X116.932Y-89.457G85X115.732Y-89.457
G05
X116.932Y-94.157G85X115.732Y-94.157
G05
X116.932Y-98.857G85X115.732Y-98.857
G05
X121.732Y-89.457G85X120.532Y-89.457
G05
X121.732Y-94.157G85X120.532Y-94.157
G05
X121.732Y-98.857G85X120.532Y-98.857
G05
T0
M30
