%TF.GenerationSoftware,KiCad,Pcbnew,(7.99.0-200-gad838e3d73)*%
%TF.CreationDate,2024-04-01T14:10:15+07:00*%
%TF.ProjectId,WMS,574d532e-6b69-4636-9164-5f7063625858,rev?*%
%TF.SameCoordinates,Original*%
%TF.FileFunction,Drillmap*%
%TF.FilePolarity,Positive*%
%FSLAX45Y45*%
G04 Gerber Fmt 4.5, Leading zero omitted, Abs format (unit mm)*
G04 Created by KiCad (PCBNEW (7.99.0-200-gad838e3d73)) date 2024-04-01 14:10:15*
%MOMM*%
%LPD*%
G01*
G04 APERTURE LIST*
%ADD10C,0.100000*%
%ADD11C,0.200000*%
%ADD12C,0.040000*%
%ADD13C,0.090000*%
%ADD14C,0.110000*%
%ADD15C,0.125000*%
%ADD16C,0.130000*%
%ADD17C,0.154000*%
G04 APERTURE END LIST*
D10*
X6639906Y-8652138D02*
G75*
G03*
X10271379Y-11468100I2191293J-923662D01*
G01*
X11495503Y-4364380D02*
X10947400Y-4912360D01*
X10947400Y-4912360D02*
X6776720Y-4910480D01*
X21868327Y-4910480D02*
X17924780Y-4907280D01*
X22008030Y-5050180D02*
G75*
G03*
X21868327Y-4910480I-139700J0D01*
G01*
X15184120Y-11468100D02*
X18379440Y-11468100D01*
X18379440Y-11468100D02*
G75*
G03*
X22010913Y-8652138I1440180J1892300D01*
G01*
X6639906Y-8652138D02*
X6637020Y-5050180D01*
X6776720Y-4910480D02*
G75*
G03*
X6637020Y-5050180I0J-139700D01*
G01*
X22010913Y-8652138D02*
X22008027Y-5050180D01*
X11495503Y-4364380D02*
X17325340Y-4358640D01*
X17325340Y-4358640D02*
X17353280Y-4358640D01*
X10271379Y-11468100D02*
X15184120Y-11468100D01*
X17924780Y-4907280D02*
X17353280Y-4358640D01*
D11*
D12*
X8793800Y-9974900D02*
X8833800Y-10014900D01*
X8833800Y-9974900D02*
X8793800Y-10014900D01*
X9136700Y-8646480D02*
X9176700Y-8686480D01*
X9176700Y-8646480D02*
X9136700Y-8686480D01*
X10983280Y-8839520D02*
X11023280Y-8879520D01*
X11023280Y-8839520D02*
X10983280Y-8879520D01*
X11371900Y-8671880D02*
X11411900Y-8711880D01*
X11411900Y-8671880D02*
X11371900Y-8711880D01*
X12512360Y-8725220D02*
X12552360Y-8765220D01*
X12552360Y-8725220D02*
X12512360Y-8765220D01*
X13513120Y-9339900D02*
X13553120Y-9379900D01*
X13553120Y-9339900D02*
X13513120Y-9379900D01*
X15306360Y-5275900D02*
X15346360Y-5315900D01*
X15346360Y-5275900D02*
X15306360Y-5315900D01*
X15308900Y-5120960D02*
X15348900Y-5160960D01*
X15348900Y-5120960D02*
X15308900Y-5160960D01*
X15715300Y-5265740D02*
X15755300Y-5305740D01*
X15755300Y-5265740D02*
X15715300Y-5305740D01*
X15720380Y-5400360D02*
X15760380Y-5440360D01*
X15760380Y-5400360D02*
X15720380Y-5440360D01*
X16279180Y-10053640D02*
X16319180Y-10093640D01*
X16319180Y-10053640D02*
X16279180Y-10093640D01*
X16538260Y-9558340D02*
X16578260Y-9598340D01*
X16578260Y-9558340D02*
X16538260Y-9598340D01*
X17081820Y-9558340D02*
X17121820Y-9598340D01*
X17121820Y-9558340D02*
X17081820Y-9598340D01*
X17404400Y-8623620D02*
X17444400Y-8663620D01*
X17444400Y-8623620D02*
X17404400Y-8663620D01*
X17572040Y-8392480D02*
X17612040Y-8432480D01*
X17612040Y-8392480D02*
X17572040Y-8432480D01*
X17643160Y-8489000D02*
X17683160Y-8529000D01*
X17683160Y-8489000D02*
X17643160Y-8529000D01*
X17648240Y-7508560D02*
X17688240Y-7548560D01*
X17688240Y-7508560D02*
X17648240Y-7548560D01*
X17800640Y-8110540D02*
X17840640Y-8150540D01*
X17840640Y-8110540D02*
X17800640Y-8150540D01*
X17874300Y-7787960D02*
X17914300Y-7827960D01*
X17914300Y-7787960D02*
X17874300Y-7827960D01*
X17874300Y-8001320D02*
X17914300Y-8041320D01*
X17914300Y-8001320D02*
X17874300Y-8041320D01*
X17876840Y-7406960D02*
X17916840Y-7446960D01*
X17916840Y-7406960D02*
X17876840Y-7446960D01*
X18326420Y-8148640D02*
X18366420Y-8188640D01*
X18366420Y-8148640D02*
X18326420Y-8188640D01*
X18331500Y-8321360D02*
X18371500Y-8361360D01*
X18371500Y-8321360D02*
X18331500Y-8361360D01*
X18372140Y-7975920D02*
X18412140Y-8015920D01*
X18412140Y-7975920D02*
X18372140Y-8015920D01*
X20236500Y-9019860D02*
X20276500Y-9059860D01*
X20276500Y-9019860D02*
X20236500Y-9059860D01*
X21415060Y-9073200D02*
X21455060Y-9113200D01*
X21455060Y-9073200D02*
X21415060Y-9113200D01*
X21526820Y-8821740D02*
X21566820Y-8861740D01*
X21566820Y-8821740D02*
X21526820Y-8861740D01*
D13*
X16224800Y-5011420D02*
G75*
G03*
X16224800Y-5011420I-45000J0D01*
G01*
X16478800Y-5011420D02*
G75*
G03*
X16478800Y-5011420I-45000J0D01*
G01*
X17065540Y-5003800D02*
G75*
G03*
X17065540Y-5003800I-45000J0D01*
G01*
X17319540Y-5003800D02*
G75*
G03*
X17319540Y-5003800I-45000J0D01*
G01*
D10*
X7518400Y-7747800D02*
X7518400Y-7847800D01*
X7468400Y-7797800D02*
X7568400Y-7797800D01*
X7518400Y-8128800D02*
X7518400Y-8228800D01*
X7468400Y-8178800D02*
X7568400Y-8178800D01*
X7518400Y-10414800D02*
X7518400Y-10514800D01*
X7468400Y-10464800D02*
X7568400Y-10464800D01*
X7518400Y-10795800D02*
X7518400Y-10895800D01*
X7468400Y-10845800D02*
X7568400Y-10845800D01*
X7772400Y-7747800D02*
X7772400Y-7847800D01*
X7722400Y-7797800D02*
X7822400Y-7797800D01*
X7772400Y-8128800D02*
X7772400Y-8228800D01*
X7722400Y-8178800D02*
X7822400Y-8178800D01*
X7772400Y-10414800D02*
X7772400Y-10514800D01*
X7722400Y-10464800D02*
X7822400Y-10464800D01*
X7772400Y-10795800D02*
X7772400Y-10895800D01*
X7722400Y-10845800D02*
X7822400Y-10845800D01*
X8026400Y-7747800D02*
X8026400Y-7847800D01*
X7976400Y-7797800D02*
X8076400Y-7797800D01*
X8026400Y-8128800D02*
X8026400Y-8228800D01*
X7976400Y-8178800D02*
X8076400Y-8178800D01*
X8026400Y-10414800D02*
X8026400Y-10514800D01*
X7976400Y-10464800D02*
X8076400Y-10464800D01*
X8026400Y-10795800D02*
X8026400Y-10895800D01*
X7976400Y-10845800D02*
X8076400Y-10845800D01*
X8280400Y-7747800D02*
X8280400Y-7847800D01*
X8230400Y-7797800D02*
X8330400Y-7797800D01*
X8280400Y-8128800D02*
X8280400Y-8228800D01*
X8230400Y-8178800D02*
X8330400Y-8178800D01*
X8280400Y-10414800D02*
X8280400Y-10514800D01*
X8230400Y-10464800D02*
X8330400Y-10464800D01*
X8280400Y-10795800D02*
X8280400Y-10895800D01*
X8230400Y-10845800D02*
X8330400Y-10845800D01*
X8534400Y-7747800D02*
X8534400Y-7847800D01*
X8484400Y-7797800D02*
X8584400Y-7797800D01*
X8534400Y-8128800D02*
X8534400Y-8228800D01*
X8484400Y-8178800D02*
X8584400Y-8178800D01*
X8534400Y-10414800D02*
X8534400Y-10514800D01*
X8484400Y-10464800D02*
X8584400Y-10464800D01*
X8534400Y-10795800D02*
X8534400Y-10895800D01*
X8484400Y-10845800D02*
X8584400Y-10845800D01*
X8788400Y-7747800D02*
X8788400Y-7847800D01*
X8738400Y-7797800D02*
X8838400Y-7797800D01*
X8788400Y-8128800D02*
X8788400Y-8228800D01*
X8738400Y-8178800D02*
X8838400Y-8178800D01*
X8788400Y-10414800D02*
X8788400Y-10514800D01*
X8738400Y-10464800D02*
X8838400Y-10464800D01*
X8788400Y-10795800D02*
X8788400Y-10895800D01*
X8738400Y-10845800D02*
X8838400Y-10845800D01*
X9042400Y-7747800D02*
X9042400Y-7847800D01*
X8992400Y-7797800D02*
X9092400Y-7797800D01*
X9042400Y-8128800D02*
X9042400Y-8228800D01*
X8992400Y-8178800D02*
X9092400Y-8178800D01*
X9042400Y-10414800D02*
X9042400Y-10514800D01*
X8992400Y-10464800D02*
X9092400Y-10464800D01*
X9042400Y-10795800D02*
X9042400Y-10895800D01*
X8992400Y-10845800D02*
X9092400Y-10845800D01*
X9296400Y-7747800D02*
X9296400Y-7847800D01*
X9246400Y-7797800D02*
X9346400Y-7797800D01*
X9296400Y-8128800D02*
X9296400Y-8228800D01*
X9246400Y-8178800D02*
X9346400Y-8178800D01*
X9296400Y-10414800D02*
X9296400Y-10514800D01*
X9246400Y-10464800D02*
X9346400Y-10464800D01*
X9296400Y-10795800D02*
X9296400Y-10895800D01*
X9246400Y-10845800D02*
X9346400Y-10845800D01*
X9550400Y-7747800D02*
X9550400Y-7847800D01*
X9500400Y-7797800D02*
X9600400Y-7797800D01*
X9550400Y-8128800D02*
X9550400Y-8228800D01*
X9500400Y-8178800D02*
X9600400Y-8178800D01*
X9550400Y-10414800D02*
X9550400Y-10514800D01*
X9500400Y-10464800D02*
X9600400Y-10464800D01*
X9550400Y-10795800D02*
X9550400Y-10895800D01*
X9500400Y-10845800D02*
X9600400Y-10845800D01*
X9804400Y-7747800D02*
X9804400Y-7847800D01*
X9754400Y-7797800D02*
X9854400Y-7797800D01*
X9804400Y-8128800D02*
X9804400Y-8228800D01*
X9754400Y-8178800D02*
X9854400Y-8178800D01*
X9804400Y-10414800D02*
X9804400Y-10514800D01*
X9754400Y-10464800D02*
X9854400Y-10464800D01*
X9804400Y-10795800D02*
X9804400Y-10895800D01*
X9754400Y-10845800D02*
X9854400Y-10845800D01*
X10058400Y-7747800D02*
X10058400Y-7847800D01*
X10008400Y-7797800D02*
X10108400Y-7797800D01*
X10058400Y-8128800D02*
X10058400Y-8228800D01*
X10008400Y-8178800D02*
X10108400Y-8178800D01*
X10058400Y-10414800D02*
X10058400Y-10514800D01*
X10008400Y-10464800D02*
X10108400Y-10464800D01*
X10058400Y-10795800D02*
X10058400Y-10895800D01*
X10008400Y-10845800D02*
X10108400Y-10845800D01*
X10312400Y-7747800D02*
X10312400Y-7847800D01*
X10262400Y-7797800D02*
X10362400Y-7797800D01*
X10312400Y-8128800D02*
X10312400Y-8228800D01*
X10262400Y-8178800D02*
X10362400Y-8178800D01*
X10312400Y-10414800D02*
X10312400Y-10514800D01*
X10262400Y-10464800D02*
X10362400Y-10464800D01*
X10312400Y-10795800D02*
X10312400Y-10895800D01*
X10262400Y-10845800D02*
X10362400Y-10845800D01*
X10566400Y-7747800D02*
X10566400Y-7847800D01*
X10516400Y-7797800D02*
X10616400Y-7797800D01*
X10566400Y-8128800D02*
X10566400Y-8228800D01*
X10516400Y-8178800D02*
X10616400Y-8178800D01*
X10566400Y-10414800D02*
X10566400Y-10514800D01*
X10516400Y-10464800D02*
X10616400Y-10464800D01*
X10566400Y-10795800D02*
X10566400Y-10895800D01*
X10516400Y-10845800D02*
X10616400Y-10845800D01*
X10566400Y-11151400D02*
X10566400Y-11251400D01*
X10516400Y-11201400D02*
X10616400Y-11201400D01*
X10820400Y-7747800D02*
X10820400Y-7847800D01*
X10770400Y-7797800D02*
X10870400Y-7797800D01*
X10820400Y-8128800D02*
X10820400Y-8228800D01*
X10770400Y-8178800D02*
X10870400Y-8178800D01*
X10820400Y-10414800D02*
X10820400Y-10514800D01*
X10770400Y-10464800D02*
X10870400Y-10464800D01*
X10820400Y-10795800D02*
X10820400Y-10895800D01*
X10770400Y-10845800D02*
X10870400Y-10845800D01*
X10820400Y-11151400D02*
X10820400Y-11251400D01*
X10770400Y-11201400D02*
X10870400Y-11201400D01*
X11074400Y-7747800D02*
X11074400Y-7847800D01*
X11024400Y-7797800D02*
X11124400Y-7797800D01*
X11074400Y-8128800D02*
X11074400Y-8228800D01*
X11024400Y-8178800D02*
X11124400Y-8178800D01*
X11074400Y-10414800D02*
X11074400Y-10514800D01*
X11024400Y-10464800D02*
X11124400Y-10464800D01*
X11074400Y-10795800D02*
X11074400Y-10895800D01*
X11024400Y-10845800D02*
X11124400Y-10845800D01*
X11074400Y-11151400D02*
X11074400Y-11251400D01*
X11024400Y-11201400D02*
X11124400Y-11201400D01*
X11328400Y-7747800D02*
X11328400Y-7847800D01*
X11278400Y-7797800D02*
X11378400Y-7797800D01*
X11328400Y-8128800D02*
X11328400Y-8228800D01*
X11278400Y-8178800D02*
X11378400Y-8178800D01*
X11328400Y-10414800D02*
X11328400Y-10514800D01*
X11278400Y-10464800D02*
X11378400Y-10464800D01*
X11328400Y-10795800D02*
X11328400Y-10895800D01*
X11278400Y-10845800D02*
X11378400Y-10845800D01*
X11328400Y-11151400D02*
X11328400Y-11251400D01*
X11278400Y-11201400D02*
X11378400Y-11201400D01*
X11582400Y-7747800D02*
X11582400Y-7847800D01*
X11532400Y-7797800D02*
X11632400Y-7797800D01*
X11582400Y-8128800D02*
X11582400Y-8228800D01*
X11532400Y-8178800D02*
X11632400Y-8178800D01*
X11582400Y-10414800D02*
X11582400Y-10514800D01*
X11532400Y-10464800D02*
X11632400Y-10464800D01*
X11582400Y-10795800D02*
X11582400Y-10895800D01*
X11532400Y-10845800D02*
X11632400Y-10845800D01*
X11582400Y-11151400D02*
X11582400Y-11251400D01*
X11532400Y-11201400D02*
X11632400Y-11201400D01*
X11836400Y-7747800D02*
X11836400Y-7847800D01*
X11786400Y-7797800D02*
X11886400Y-7797800D01*
X11836400Y-8128800D02*
X11836400Y-8228800D01*
X11786400Y-8178800D02*
X11886400Y-8178800D01*
X11836400Y-10414800D02*
X11836400Y-10514800D01*
X11786400Y-10464800D02*
X11886400Y-10464800D01*
X11836400Y-10795800D02*
X11836400Y-10895800D01*
X11786400Y-10845800D02*
X11886400Y-10845800D01*
X11836400Y-11151400D02*
X11836400Y-11251400D01*
X11786400Y-11201400D02*
X11886400Y-11201400D01*
X12090400Y-7747800D02*
X12090400Y-7847800D01*
X12040400Y-7797800D02*
X12140400Y-7797800D01*
X12090400Y-8128800D02*
X12090400Y-8228800D01*
X12040400Y-8178800D02*
X12140400Y-8178800D01*
X12090400Y-10414800D02*
X12090400Y-10514800D01*
X12040400Y-10464800D02*
X12140400Y-10464800D01*
X12090400Y-10795800D02*
X12090400Y-10895800D01*
X12040400Y-10845800D02*
X12140400Y-10845800D01*
X12090400Y-11151400D02*
X12090400Y-11251400D01*
X12040400Y-11201400D02*
X12140400Y-11201400D01*
X12344400Y-7747800D02*
X12344400Y-7847800D01*
X12294400Y-7797800D02*
X12394400Y-7797800D01*
X12344400Y-8128800D02*
X12344400Y-8228800D01*
X12294400Y-8178800D02*
X12394400Y-8178800D01*
X12344400Y-10414800D02*
X12344400Y-10514800D01*
X12294400Y-10464800D02*
X12394400Y-10464800D01*
X12344400Y-10795800D02*
X12344400Y-10895800D01*
X12294400Y-10845800D02*
X12394400Y-10845800D01*
X12344400Y-11151400D02*
X12344400Y-11251400D01*
X12294400Y-11201400D02*
X12394400Y-11201400D01*
X12598400Y-7747800D02*
X12598400Y-7847800D01*
X12548400Y-7797800D02*
X12648400Y-7797800D01*
X12598400Y-8128800D02*
X12598400Y-8228800D01*
X12548400Y-8178800D02*
X12648400Y-8178800D01*
X12598400Y-10414800D02*
X12598400Y-10514800D01*
X12548400Y-10464800D02*
X12648400Y-10464800D01*
X12598400Y-10795800D02*
X12598400Y-10895800D01*
X12548400Y-10845800D02*
X12648400Y-10845800D01*
X12598400Y-11151400D02*
X12598400Y-11251400D01*
X12548400Y-11201400D02*
X12648400Y-11201400D01*
X12852400Y-7747800D02*
X12852400Y-7847800D01*
X12802400Y-7797800D02*
X12902400Y-7797800D01*
X12852400Y-8128800D02*
X12852400Y-8228800D01*
X12802400Y-8178800D02*
X12902400Y-8178800D01*
X12852400Y-10414800D02*
X12852400Y-10514800D01*
X12802400Y-10464800D02*
X12902400Y-10464800D01*
X12852400Y-10795800D02*
X12852400Y-10895800D01*
X12802400Y-10845800D02*
X12902400Y-10845800D01*
X12852400Y-11151400D02*
X12852400Y-11251400D01*
X12802400Y-11201400D02*
X12902400Y-11201400D01*
X13106400Y-7747800D02*
X13106400Y-7847800D01*
X13056400Y-7797800D02*
X13156400Y-7797800D01*
X13106400Y-8128800D02*
X13106400Y-8228800D01*
X13056400Y-8178800D02*
X13156400Y-8178800D01*
X13106400Y-10414800D02*
X13106400Y-10514800D01*
X13056400Y-10464800D02*
X13156400Y-10464800D01*
X13106400Y-10795800D02*
X13106400Y-10895800D01*
X13056400Y-10845800D02*
X13156400Y-10845800D01*
X13106400Y-11151400D02*
X13106400Y-11251400D01*
X13056400Y-11201400D02*
X13156400Y-11201400D01*
X13360400Y-7747800D02*
X13360400Y-7847800D01*
X13310400Y-7797800D02*
X13410400Y-7797800D01*
X13360400Y-8128800D02*
X13360400Y-8228800D01*
X13310400Y-8178800D02*
X13410400Y-8178800D01*
X13360400Y-10414800D02*
X13360400Y-10514800D01*
X13310400Y-10464800D02*
X13410400Y-10464800D01*
X13360400Y-10795800D02*
X13360400Y-10895800D01*
X13310400Y-10845800D02*
X13410400Y-10845800D01*
X13360400Y-11151400D02*
X13360400Y-11251400D01*
X13310400Y-11201400D02*
X13410400Y-11201400D01*
X13614400Y-7747800D02*
X13614400Y-7847800D01*
X13564400Y-7797800D02*
X13664400Y-7797800D01*
X13614400Y-8128800D02*
X13614400Y-8228800D01*
X13564400Y-8178800D02*
X13664400Y-8178800D01*
X13614400Y-10414800D02*
X13614400Y-10514800D01*
X13564400Y-10464800D02*
X13664400Y-10464800D01*
X13614400Y-10795800D02*
X13614400Y-10895800D01*
X13564400Y-10845800D02*
X13664400Y-10845800D01*
X13614400Y-11151400D02*
X13614400Y-11251400D01*
X13564400Y-11201400D02*
X13664400Y-11201400D01*
X13868400Y-7747800D02*
X13868400Y-7847800D01*
X13818400Y-7797800D02*
X13918400Y-7797800D01*
X13868400Y-8128800D02*
X13868400Y-8228800D01*
X13818400Y-8178800D02*
X13918400Y-8178800D01*
X13868400Y-10414800D02*
X13868400Y-10514800D01*
X13818400Y-10464800D02*
X13918400Y-10464800D01*
X13868400Y-10795800D02*
X13868400Y-10895800D01*
X13818400Y-10845800D02*
X13918400Y-10845800D01*
X13868400Y-11151400D02*
X13868400Y-11251400D01*
X13818400Y-11201400D02*
X13918400Y-11201400D01*
X13884960Y-4975840D02*
X13884960Y-5075840D01*
X13834960Y-5025840D02*
X13934960Y-5025840D01*
X14122400Y-7747800D02*
X14122400Y-7847800D01*
X14072400Y-7797800D02*
X14172400Y-7797800D01*
X14122400Y-8128800D02*
X14122400Y-8228800D01*
X14072400Y-8178800D02*
X14172400Y-8178800D01*
X14122400Y-10414800D02*
X14122400Y-10514800D01*
X14072400Y-10464800D02*
X14172400Y-10464800D01*
X14122400Y-10795800D02*
X14122400Y-10895800D01*
X14072400Y-10845800D02*
X14172400Y-10845800D01*
X14122400Y-11151400D02*
X14122400Y-11251400D01*
X14072400Y-11201400D02*
X14172400Y-11201400D01*
X14138960Y-4975840D02*
X14138960Y-5075840D01*
X14088960Y-5025840D02*
X14188960Y-5025840D01*
X14376400Y-7747800D02*
X14376400Y-7847800D01*
X14326400Y-7797800D02*
X14426400Y-7797800D01*
X14376400Y-8128800D02*
X14376400Y-8228800D01*
X14326400Y-8178800D02*
X14426400Y-8178800D01*
X14376400Y-10414800D02*
X14376400Y-10514800D01*
X14326400Y-10464800D02*
X14426400Y-10464800D01*
X14376400Y-10795800D02*
X14376400Y-10895800D01*
X14326400Y-10845800D02*
X14426400Y-10845800D01*
X14376400Y-11151400D02*
X14376400Y-11251400D01*
X14326400Y-11201400D02*
X14426400Y-11201400D01*
X14392960Y-4975840D02*
X14392960Y-5075840D01*
X14342960Y-5025840D02*
X14442960Y-5025840D01*
X14630400Y-7747800D02*
X14630400Y-7847800D01*
X14580400Y-7797800D02*
X14680400Y-7797800D01*
X14630400Y-8128800D02*
X14630400Y-8228800D01*
X14580400Y-8178800D02*
X14680400Y-8178800D01*
X14630400Y-10414800D02*
X14630400Y-10514800D01*
X14580400Y-10464800D02*
X14680400Y-10464800D01*
X14630400Y-10795800D02*
X14630400Y-10895800D01*
X14580400Y-10845800D02*
X14680400Y-10845800D01*
X14630400Y-11151400D02*
X14630400Y-11251400D01*
X14580400Y-11201400D02*
X14680400Y-11201400D01*
X14646960Y-4975840D02*
X14646960Y-5075840D01*
X14596960Y-5025840D02*
X14696960Y-5025840D01*
X14884400Y-7747800D02*
X14884400Y-7847800D01*
X14834400Y-7797800D02*
X14934400Y-7797800D01*
X14884400Y-8128800D02*
X14884400Y-8228800D01*
X14834400Y-8178800D02*
X14934400Y-8178800D01*
X14884400Y-10414800D02*
X14884400Y-10514800D01*
X14834400Y-10464800D02*
X14934400Y-10464800D01*
X14884400Y-10795800D02*
X14884400Y-10895800D01*
X14834400Y-10845800D02*
X14934400Y-10845800D01*
X14884400Y-11151400D02*
X14884400Y-11251400D01*
X14834400Y-11201400D02*
X14934400Y-11201400D01*
X15138400Y-7747800D02*
X15138400Y-7847800D01*
X15088400Y-7797800D02*
X15188400Y-7797800D01*
X15138400Y-8128800D02*
X15138400Y-8228800D01*
X15088400Y-8178800D02*
X15188400Y-8178800D01*
X15138400Y-10414800D02*
X15138400Y-10514800D01*
X15088400Y-10464800D02*
X15188400Y-10464800D01*
X15138400Y-10795800D02*
X15138400Y-10895800D01*
X15088400Y-10845800D02*
X15188400Y-10845800D01*
X15392400Y-7747800D02*
X15392400Y-7847800D01*
X15342400Y-7797800D02*
X15442400Y-7797800D01*
X15392400Y-8128800D02*
X15392400Y-8228800D01*
X15342400Y-8178800D02*
X15442400Y-8178800D01*
X15392400Y-10414800D02*
X15392400Y-10514800D01*
X15342400Y-10464800D02*
X15442400Y-10464800D01*
X15392400Y-10795800D02*
X15392400Y-10895800D01*
X15342400Y-10845800D02*
X15442400Y-10845800D01*
X15646400Y-7747800D02*
X15646400Y-7847800D01*
X15596400Y-7797800D02*
X15696400Y-7797800D01*
X15646400Y-8128800D02*
X15646400Y-8228800D01*
X15596400Y-8178800D02*
X15696400Y-8178800D01*
X15646400Y-10414800D02*
X15646400Y-10514800D01*
X15596400Y-10464800D02*
X15696400Y-10464800D01*
X15646400Y-10795800D02*
X15646400Y-10895800D01*
X15596400Y-10845800D02*
X15696400Y-10845800D01*
X15900400Y-7747800D02*
X15900400Y-7847800D01*
X15850400Y-7797800D02*
X15950400Y-7797800D01*
X15900400Y-8128800D02*
X15900400Y-8228800D01*
X15850400Y-8178800D02*
X15950400Y-8178800D01*
X15900400Y-10414800D02*
X15900400Y-10514800D01*
X15850400Y-10464800D02*
X15950400Y-10464800D01*
X15900400Y-10795800D02*
X15900400Y-10895800D01*
X15850400Y-10845800D02*
X15950400Y-10845800D01*
X16154400Y-7747800D02*
X16154400Y-7847800D01*
X16104400Y-7797800D02*
X16204400Y-7797800D01*
X16154400Y-8128800D02*
X16154400Y-8228800D01*
X16104400Y-8178800D02*
X16204400Y-8178800D01*
X16154400Y-10414800D02*
X16154400Y-10514800D01*
X16104400Y-10464800D02*
X16204400Y-10464800D01*
X16154400Y-10795800D02*
X16154400Y-10895800D01*
X16104400Y-10845800D02*
X16204400Y-10845800D01*
X16408400Y-7747800D02*
X16408400Y-7847800D01*
X16358400Y-7797800D02*
X16458400Y-7797800D01*
X16408400Y-8128800D02*
X16408400Y-8228800D01*
X16358400Y-8178800D02*
X16458400Y-8178800D01*
X16408400Y-10414800D02*
X16408400Y-10514800D01*
X16358400Y-10464800D02*
X16458400Y-10464800D01*
X16408400Y-10795800D02*
X16408400Y-10895800D01*
X16358400Y-10845800D02*
X16458400Y-10845800D01*
X16662400Y-7747800D02*
X16662400Y-7847800D01*
X16612400Y-7797800D02*
X16712400Y-7797800D01*
X16662400Y-8128800D02*
X16662400Y-8228800D01*
X16612400Y-8178800D02*
X16712400Y-8178800D01*
X16662400Y-10414800D02*
X16662400Y-10514800D01*
X16612400Y-10464800D02*
X16712400Y-10464800D01*
X16662400Y-10795800D02*
X16662400Y-10895800D01*
X16612400Y-10845800D02*
X16712400Y-10845800D01*
X16916400Y-7747800D02*
X16916400Y-7847800D01*
X16866400Y-7797800D02*
X16966400Y-7797800D01*
X16916400Y-8128800D02*
X16916400Y-8228800D01*
X16866400Y-8178800D02*
X16966400Y-8178800D01*
X16916400Y-10414800D02*
X16916400Y-10514800D01*
X16866400Y-10464800D02*
X16966400Y-10464800D01*
X16916400Y-10795800D02*
X16916400Y-10895800D01*
X16866400Y-10845800D02*
X16966400Y-10845800D01*
X17170400Y-7747800D02*
X17170400Y-7847800D01*
X17120400Y-7797800D02*
X17220400Y-7797800D01*
X17170400Y-8128800D02*
X17170400Y-8228800D01*
X17120400Y-8178800D02*
X17220400Y-8178800D01*
X17170400Y-10414800D02*
X17170400Y-10514800D01*
X17120400Y-10464800D02*
X17220400Y-10464800D01*
X17170400Y-10795800D02*
X17170400Y-10895800D01*
X17120400Y-10845800D02*
X17220400Y-10845800D01*
X17384760Y-5870740D02*
X17384760Y-5970740D01*
X17334760Y-5920740D02*
X17434760Y-5920740D01*
X17424400Y-7747800D02*
X17424400Y-7847800D01*
X17374400Y-7797800D02*
X17474400Y-7797800D01*
X17424400Y-8128800D02*
X17424400Y-8228800D01*
X17374400Y-8178800D02*
X17474400Y-8178800D01*
X17424400Y-10414800D02*
X17424400Y-10514800D01*
X17374400Y-10464800D02*
X17474400Y-10464800D01*
X17424400Y-10795800D02*
X17424400Y-10895800D01*
X17374400Y-10845800D02*
X17474400Y-10845800D01*
X17932400Y-10414800D02*
X17932400Y-10514800D01*
X17882400Y-10464800D02*
X17982400Y-10464800D01*
X17932400Y-10795800D02*
X17932400Y-10895800D01*
X17882400Y-10845800D02*
X17982400Y-10845800D01*
X18144760Y-5870740D02*
X18144760Y-5970740D01*
X18094760Y-5920740D02*
X18194760Y-5920740D01*
X18186400Y-10414800D02*
X18186400Y-10514800D01*
X18136400Y-10464800D02*
X18236400Y-10464800D01*
X18186400Y-10795800D02*
X18186400Y-10895800D01*
X18136400Y-10845800D02*
X18236400Y-10845800D01*
X18440400Y-10414800D02*
X18440400Y-10514800D01*
X18390400Y-10464800D02*
X18490400Y-10464800D01*
X18440400Y-10795800D02*
X18440400Y-10895800D01*
X18390400Y-10845800D02*
X18490400Y-10845800D01*
D14*
X19221091Y-8381311D02*
X19221091Y-8303529D01*
X19143309Y-8303529D01*
X19143309Y-8381311D01*
X19221091Y-8381311D01*
X19221091Y-8831311D02*
X19221091Y-8753529D01*
X19143309Y-8753529D01*
X19143309Y-8831311D01*
X19221091Y-8831311D01*
X19871091Y-8381311D02*
X19871091Y-8303529D01*
X19793309Y-8303529D01*
X19793309Y-8381311D01*
X19871091Y-8381311D01*
X19871091Y-8831311D02*
X19871091Y-8753529D01*
X19793309Y-8753529D01*
X19793309Y-8831311D01*
X19871091Y-8831311D01*
D15*
X12902000Y-9054100D02*
X12964500Y-8991600D01*
X12902000Y-8929100D01*
X12839500Y-8991600D01*
X12902000Y-9054100D01*
X12902000Y-9704100D02*
X12964500Y-9641600D01*
X12902000Y-9579100D01*
X12839500Y-9641600D01*
X12902000Y-9704100D01*
X16002000Y-9059100D02*
X16064500Y-8996600D01*
X16002000Y-8934100D01*
X15939500Y-8996600D01*
X16002000Y-9059100D01*
X16002000Y-9704100D02*
X16064500Y-9641600D01*
X16002000Y-9579100D01*
X15939500Y-9641600D01*
X16002000Y-9704100D01*
D16*
X10620780Y-8928300D02*
X10750780Y-9058300D01*
X10750780Y-8928300D02*
X10620780Y-9058300D01*
X10750780Y-8993300D02*
G75*
G03*
X10750780Y-8993300I-65000J0D01*
G01*
D11*
X10625780Y-9058300D02*
X10745780Y-9058300D01*
X10745780Y-9058300D02*
G75*
G03*
X10745780Y-8928300I0J65000D01*
G01*
X10745780Y-8928300D02*
X10625780Y-8928300D01*
X10625780Y-8928300D02*
G75*
G03*
X10625780Y-9058300I0J-65000D01*
G01*
D16*
X10620780Y-9378300D02*
X10750780Y-9508300D01*
X10750780Y-9378300D02*
X10620780Y-9508300D01*
X10750780Y-9443300D02*
G75*
G03*
X10750780Y-9443300I-65000J0D01*
G01*
D11*
X10625780Y-9508300D02*
X10745780Y-9508300D01*
X10745780Y-9508300D02*
G75*
G03*
X10745780Y-9378300I0J65000D01*
G01*
X10745780Y-9378300D02*
X10625780Y-9378300D01*
X10625780Y-9378300D02*
G75*
G03*
X10625780Y-9508300I0J-65000D01*
G01*
D16*
X10620780Y-9828300D02*
X10750780Y-9958300D01*
X10750780Y-9828300D02*
X10620780Y-9958300D01*
X10750780Y-9893300D02*
G75*
G03*
X10750780Y-9893300I-65000J0D01*
G01*
D11*
X10625780Y-9958300D02*
X10745780Y-9958300D01*
X10745780Y-9958300D02*
G75*
G03*
X10745780Y-9828300I0J65000D01*
G01*
X10745780Y-9828300D02*
X10625780Y-9828300D01*
X10625780Y-9828300D02*
G75*
G03*
X10625780Y-9958300I0J-65000D01*
G01*
D16*
X11568200Y-8880680D02*
X11698200Y-9010680D01*
X11698200Y-8880680D02*
X11568200Y-9010680D01*
X11698200Y-8945680D02*
G75*
G03*
X11698200Y-8945680I-65000J0D01*
G01*
D11*
X11693200Y-8880680D02*
X11573200Y-8880680D01*
X11573200Y-8880680D02*
G75*
G03*
X11573200Y-9010680I0J-65000D01*
G01*
X11573200Y-9010680D02*
X11693200Y-9010680D01*
X11693200Y-9010680D02*
G75*
G03*
X11693200Y-8880680I0J65000D01*
G01*
D16*
X11568200Y-9350680D02*
X11698200Y-9480680D01*
X11698200Y-9350680D02*
X11568200Y-9480680D01*
X11698200Y-9415680D02*
G75*
G03*
X11698200Y-9415680I-65000J0D01*
G01*
D11*
X11693200Y-9350680D02*
X11573200Y-9350680D01*
X11573200Y-9350680D02*
G75*
G03*
X11573200Y-9480680I0J-65000D01*
G01*
X11573200Y-9480680D02*
X11693200Y-9480680D01*
X11693200Y-9480680D02*
G75*
G03*
X11693200Y-9350680I0J65000D01*
G01*
D16*
X11568200Y-9820680D02*
X11698200Y-9950680D01*
X11698200Y-9820680D02*
X11568200Y-9950680D01*
X11698200Y-9885680D02*
G75*
G03*
X11698200Y-9885680I-65000J0D01*
G01*
D11*
X11693200Y-9820680D02*
X11573200Y-9820680D01*
X11573200Y-9820680D02*
G75*
G03*
X11573200Y-9950680I0J-65000D01*
G01*
X11573200Y-9950680D02*
X11693200Y-9950680D01*
X11693200Y-9950680D02*
G75*
G03*
X11693200Y-9820680I0J65000D01*
G01*
D16*
X12048200Y-8880680D02*
X12178200Y-9010680D01*
X12178200Y-8880680D02*
X12048200Y-9010680D01*
X12178200Y-8945680D02*
G75*
G03*
X12178200Y-8945680I-65000J0D01*
G01*
D11*
X12173200Y-8880680D02*
X12053200Y-8880680D01*
X12053200Y-8880680D02*
G75*
G03*
X12053200Y-9010680I0J-65000D01*
G01*
X12053200Y-9010680D02*
X12173200Y-9010680D01*
X12173200Y-9010680D02*
G75*
G03*
X12173200Y-8880680I0J65000D01*
G01*
D16*
X12048200Y-9350680D02*
X12178200Y-9480680D01*
X12178200Y-9350680D02*
X12048200Y-9480680D01*
X12178200Y-9415680D02*
G75*
G03*
X12178200Y-9415680I-65000J0D01*
G01*
D11*
X12173200Y-9350680D02*
X12053200Y-9350680D01*
X12053200Y-9350680D02*
G75*
G03*
X12053200Y-9480680I0J-65000D01*
G01*
X12053200Y-9480680D02*
X12173200Y-9480680D01*
X12173200Y-9480680D02*
G75*
G03*
X12173200Y-9350680I0J65000D01*
G01*
D16*
X12048200Y-9820680D02*
X12178200Y-9950680D01*
X12178200Y-9820680D02*
X12048200Y-9950680D01*
X12178200Y-9885680D02*
G75*
G03*
X12178200Y-9885680I-65000J0D01*
G01*
D11*
X12173200Y-9820680D02*
X12053200Y-9820680D01*
X12053200Y-9820680D02*
G75*
G03*
X12053200Y-9950680I0J-65000D01*
G01*
X12053200Y-9950680D02*
X12173200Y-9950680D01*
X12173200Y-9950680D02*
G75*
G03*
X12173200Y-9820680I0J65000D01*
G01*
D16*
X17257480Y-9243020D02*
X17387480Y-9373020D01*
X17387480Y-9243020D02*
X17257480Y-9373020D01*
X17387480Y-9308020D02*
G75*
G03*
X17387480Y-9308020I-65000J0D01*
G01*
X17257480Y-9743020D02*
X17387480Y-9873020D01*
X17387480Y-9743020D02*
X17257480Y-9873020D01*
X17387480Y-9808020D02*
G75*
G03*
X17387480Y-9808020I-65000J0D01*
G01*
X18507480Y-9243020D02*
X18637480Y-9373020D01*
X18637480Y-9243020D02*
X18507480Y-9373020D01*
X18637480Y-9308020D02*
G75*
G03*
X18637480Y-9308020I-65000J0D01*
G01*
X18507480Y-9743020D02*
X18637480Y-9873020D01*
X18637480Y-9743020D02*
X18507480Y-9873020D01*
X18637480Y-9808020D02*
G75*
G03*
X18637480Y-9808020I-65000J0D01*
G01*
X18860540Y-10493780D02*
X18990540Y-10623780D01*
X18990540Y-10493780D02*
X18860540Y-10623780D01*
X18990540Y-10558780D02*
G75*
G03*
X18990540Y-10558780I-65000J0D01*
G01*
X18860540Y-10993780D02*
X18990540Y-11123780D01*
X18990540Y-10993780D02*
X18860540Y-11123780D01*
X18990540Y-11058780D02*
G75*
G03*
X18990540Y-11058780I-65000J0D01*
G01*
X20110540Y-10493780D02*
X20240540Y-10623780D01*
X20240540Y-10493780D02*
X20110540Y-10623780D01*
X20240540Y-10558780D02*
G75*
G03*
X20240540Y-10558780I-65000J0D01*
G01*
X20110540Y-10993780D02*
X20240540Y-11123780D01*
X20240540Y-10993780D02*
X20110540Y-11123780D01*
X20240540Y-11058780D02*
G75*
G03*
X20240540Y-11058780I-65000J0D01*
G01*
X20463280Y-9244480D02*
X20593280Y-9374480D01*
X20593280Y-9244480D02*
X20463280Y-9374480D01*
X20593280Y-9309480D02*
G75*
G03*
X20593280Y-9309480I-65000J0D01*
G01*
X20463280Y-9744480D02*
X20593280Y-9874480D01*
X20593280Y-9744480D02*
X20463280Y-9874480D01*
X20593280Y-9809480D02*
G75*
G03*
X20593280Y-9809480I-65000J0D01*
G01*
X21713280Y-9244480D02*
X21843280Y-9374480D01*
X21843280Y-9244480D02*
X21713280Y-9374480D01*
X21843280Y-9309480D02*
G75*
G03*
X21843280Y-9309480I-65000J0D01*
G01*
X21713280Y-9744480D02*
X21843280Y-9874480D01*
X21843280Y-9744480D02*
X21713280Y-9874480D01*
X21843280Y-9809480D02*
G75*
G03*
X21843280Y-9809480I-65000J0D01*
G01*
D17*
X7416000Y-8559000D02*
X7570000Y-8713000D01*
X7570000Y-8559000D02*
X7416000Y-8713000D01*
X7493000Y-8559000D02*
X7493000Y-8713000D01*
X7416000Y-8636000D02*
X7570000Y-8636000D01*
X7416000Y-9979000D02*
X7570000Y-10133000D01*
X7570000Y-9979000D02*
X7416000Y-10133000D01*
X7493000Y-9979000D02*
X7493000Y-10133000D01*
X7416000Y-10056000D02*
X7570000Y-10056000D01*
X9706000Y-8559000D02*
X9860000Y-8713000D01*
X9860000Y-8559000D02*
X9706000Y-8713000D01*
X9783000Y-8559000D02*
X9783000Y-8713000D01*
X9706000Y-8636000D02*
X9860000Y-8636000D01*
X9706000Y-8909000D02*
X9860000Y-9063000D01*
X9860000Y-8909000D02*
X9706000Y-9063000D01*
X9783000Y-8909000D02*
X9783000Y-9063000D01*
X9706000Y-8986000D02*
X9860000Y-8986000D01*
X9706000Y-9669000D02*
X9860000Y-9823000D01*
X9860000Y-9669000D02*
X9706000Y-9823000D01*
X9783000Y-9669000D02*
X9783000Y-9823000D01*
X9706000Y-9746000D02*
X9860000Y-9746000D01*
X9706000Y-10009000D02*
X9860000Y-10163000D01*
X9860000Y-10009000D02*
X9706000Y-10163000D01*
X9783000Y-10009000D02*
X9783000Y-10163000D01*
X9706000Y-10086000D02*
X9860000Y-10086000D01*
D11*
X6695811Y-12252283D02*
X6695811Y-12052283D01*
X6695811Y-12052283D02*
X6743430Y-12052283D01*
X6743430Y-12052283D02*
X6772002Y-12061807D01*
X6772002Y-12061807D02*
X6791049Y-12080855D01*
X6791049Y-12080855D02*
X6800573Y-12099902D01*
X6800573Y-12099902D02*
X6810097Y-12137997D01*
X6810097Y-12137997D02*
X6810097Y-12166569D01*
X6810097Y-12166569D02*
X6800573Y-12204664D01*
X6800573Y-12204664D02*
X6791049Y-12223712D01*
X6791049Y-12223712D02*
X6772002Y-12242759D01*
X6772002Y-12242759D02*
X6743430Y-12252283D01*
X6743430Y-12252283D02*
X6695811Y-12252283D01*
X6895811Y-12252283D02*
X6895811Y-12118950D01*
X6895811Y-12157045D02*
X6905335Y-12137997D01*
X6905335Y-12137997D02*
X6914859Y-12128474D01*
X6914859Y-12128474D02*
X6933906Y-12118950D01*
X6933906Y-12118950D02*
X6952954Y-12118950D01*
X7019621Y-12252283D02*
X7019621Y-12118950D01*
X7019621Y-12052283D02*
X7010097Y-12061807D01*
X7010097Y-12061807D02*
X7019621Y-12071331D01*
X7019621Y-12071331D02*
X7029144Y-12061807D01*
X7029144Y-12061807D02*
X7019621Y-12052283D01*
X7019621Y-12052283D02*
X7019621Y-12071331D01*
X7143430Y-12252283D02*
X7124382Y-12242759D01*
X7124382Y-12242759D02*
X7114859Y-12223712D01*
X7114859Y-12223712D02*
X7114859Y-12052283D01*
X7248192Y-12252283D02*
X7229144Y-12242759D01*
X7229144Y-12242759D02*
X7219621Y-12223712D01*
X7219621Y-12223712D02*
X7219621Y-12052283D01*
X7444382Y-12252283D02*
X7444382Y-12052283D01*
X7444382Y-12052283D02*
X7511049Y-12195140D01*
X7511049Y-12195140D02*
X7577716Y-12052283D01*
X7577716Y-12052283D02*
X7577716Y-12252283D01*
X7758668Y-12252283D02*
X7758668Y-12147521D01*
X7758668Y-12147521D02*
X7749144Y-12128474D01*
X7749144Y-12128474D02*
X7730097Y-12118950D01*
X7730097Y-12118950D02*
X7692001Y-12118950D01*
X7692001Y-12118950D02*
X7672954Y-12128474D01*
X7758668Y-12242759D02*
X7739621Y-12252283D01*
X7739621Y-12252283D02*
X7692001Y-12252283D01*
X7692001Y-12252283D02*
X7672954Y-12242759D01*
X7672954Y-12242759D02*
X7663430Y-12223712D01*
X7663430Y-12223712D02*
X7663430Y-12204664D01*
X7663430Y-12204664D02*
X7672954Y-12185616D01*
X7672954Y-12185616D02*
X7692001Y-12176093D01*
X7692001Y-12176093D02*
X7739621Y-12176093D01*
X7739621Y-12176093D02*
X7758668Y-12166569D01*
X7853906Y-12118950D02*
X7853906Y-12318950D01*
X7853906Y-12128474D02*
X7872954Y-12118950D01*
X7872954Y-12118950D02*
X7911049Y-12118950D01*
X7911049Y-12118950D02*
X7930097Y-12128474D01*
X7930097Y-12128474D02*
X7939621Y-12137997D01*
X7939621Y-12137997D02*
X7949144Y-12157045D01*
X7949144Y-12157045D02*
X7949144Y-12214188D01*
X7949144Y-12214188D02*
X7939621Y-12233235D01*
X7939621Y-12233235D02*
X7930097Y-12242759D01*
X7930097Y-12242759D02*
X7911049Y-12252283D01*
X7911049Y-12252283D02*
X7872954Y-12252283D01*
X7872954Y-12252283D02*
X7853906Y-12242759D01*
X8034859Y-12233235D02*
X8044382Y-12242759D01*
X8044382Y-12242759D02*
X8034859Y-12252283D01*
X8034859Y-12252283D02*
X8025335Y-12242759D01*
X8025335Y-12242759D02*
X8034859Y-12233235D01*
X8034859Y-12233235D02*
X8034859Y-12252283D01*
X8034859Y-12128474D02*
X8044382Y-12137997D01*
X8044382Y-12137997D02*
X8034859Y-12147521D01*
X8034859Y-12147521D02*
X8025335Y-12137997D01*
X8025335Y-12137997D02*
X8034859Y-12128474D01*
X8034859Y-12128474D02*
X8034859Y-12147521D01*
D12*
X6408192Y-12578807D02*
X6448192Y-12618807D01*
X6448192Y-12578807D02*
X6408192Y-12618807D01*
D11*
X6733906Y-12472283D02*
X6752954Y-12472283D01*
X6752954Y-12472283D02*
X6772002Y-12481807D01*
X6772002Y-12481807D02*
X6781525Y-12491331D01*
X6781525Y-12491331D02*
X6791049Y-12510378D01*
X6791049Y-12510378D02*
X6800573Y-12548474D01*
X6800573Y-12548474D02*
X6800573Y-12596093D01*
X6800573Y-12596093D02*
X6791049Y-12634188D01*
X6791049Y-12634188D02*
X6781525Y-12653235D01*
X6781525Y-12653235D02*
X6772002Y-12662759D01*
X6772002Y-12662759D02*
X6752954Y-12672283D01*
X6752954Y-12672283D02*
X6733906Y-12672283D01*
X6733906Y-12672283D02*
X6714859Y-12662759D01*
X6714859Y-12662759D02*
X6705335Y-12653235D01*
X6705335Y-12653235D02*
X6695811Y-12634188D01*
X6695811Y-12634188D02*
X6686287Y-12596093D01*
X6686287Y-12596093D02*
X6686287Y-12548474D01*
X6686287Y-12548474D02*
X6695811Y-12510378D01*
X6695811Y-12510378D02*
X6705335Y-12491331D01*
X6705335Y-12491331D02*
X6714859Y-12481807D01*
X6714859Y-12481807D02*
X6733906Y-12472283D01*
X6886287Y-12653235D02*
X6895811Y-12662759D01*
X6895811Y-12662759D02*
X6886287Y-12672283D01*
X6886287Y-12672283D02*
X6876763Y-12662759D01*
X6876763Y-12662759D02*
X6886287Y-12653235D01*
X6886287Y-12653235D02*
X6886287Y-12672283D01*
X7067240Y-12538950D02*
X7067240Y-12672283D01*
X7019621Y-12462759D02*
X6972002Y-12605616D01*
X6972002Y-12605616D02*
X7095811Y-12605616D01*
X7210097Y-12472283D02*
X7229144Y-12472283D01*
X7229144Y-12472283D02*
X7248192Y-12481807D01*
X7248192Y-12481807D02*
X7257716Y-12491331D01*
X7257716Y-12491331D02*
X7267240Y-12510378D01*
X7267240Y-12510378D02*
X7276763Y-12548474D01*
X7276763Y-12548474D02*
X7276763Y-12596093D01*
X7276763Y-12596093D02*
X7267240Y-12634188D01*
X7267240Y-12634188D02*
X7257716Y-12653235D01*
X7257716Y-12653235D02*
X7248192Y-12662759D01*
X7248192Y-12662759D02*
X7229144Y-12672283D01*
X7229144Y-12672283D02*
X7210097Y-12672283D01*
X7210097Y-12672283D02*
X7191049Y-12662759D01*
X7191049Y-12662759D02*
X7181525Y-12653235D01*
X7181525Y-12653235D02*
X7172002Y-12634188D01*
X7172002Y-12634188D02*
X7162478Y-12596093D01*
X7162478Y-12596093D02*
X7162478Y-12548474D01*
X7162478Y-12548474D02*
X7172002Y-12510378D01*
X7172002Y-12510378D02*
X7181525Y-12491331D01*
X7181525Y-12491331D02*
X7191049Y-12481807D01*
X7191049Y-12481807D02*
X7210097Y-12472283D01*
X7400573Y-12472283D02*
X7419621Y-12472283D01*
X7419621Y-12472283D02*
X7438668Y-12481807D01*
X7438668Y-12481807D02*
X7448192Y-12491331D01*
X7448192Y-12491331D02*
X7457716Y-12510378D01*
X7457716Y-12510378D02*
X7467240Y-12548474D01*
X7467240Y-12548474D02*
X7467240Y-12596093D01*
X7467240Y-12596093D02*
X7457716Y-12634188D01*
X7457716Y-12634188D02*
X7448192Y-12653235D01*
X7448192Y-12653235D02*
X7438668Y-12662759D01*
X7438668Y-12662759D02*
X7419621Y-12672283D01*
X7419621Y-12672283D02*
X7400573Y-12672283D01*
X7400573Y-12672283D02*
X7381525Y-12662759D01*
X7381525Y-12662759D02*
X7372002Y-12653235D01*
X7372002Y-12653235D02*
X7362478Y-12634188D01*
X7362478Y-12634188D02*
X7352954Y-12596093D01*
X7352954Y-12596093D02*
X7352954Y-12548474D01*
X7352954Y-12548474D02*
X7362478Y-12510378D01*
X7362478Y-12510378D02*
X7372002Y-12491331D01*
X7372002Y-12491331D02*
X7381525Y-12481807D01*
X7381525Y-12481807D02*
X7400573Y-12472283D01*
X7552954Y-12672283D02*
X7552954Y-12538950D01*
X7552954Y-12557997D02*
X7562478Y-12548474D01*
X7562478Y-12548474D02*
X7581525Y-12538950D01*
X7581525Y-12538950D02*
X7610097Y-12538950D01*
X7610097Y-12538950D02*
X7629144Y-12548474D01*
X7629144Y-12548474D02*
X7638668Y-12567521D01*
X7638668Y-12567521D02*
X7638668Y-12672283D01*
X7638668Y-12567521D02*
X7648192Y-12548474D01*
X7648192Y-12548474D02*
X7667240Y-12538950D01*
X7667240Y-12538950D02*
X7695811Y-12538950D01*
X7695811Y-12538950D02*
X7714859Y-12548474D01*
X7714859Y-12548474D02*
X7724383Y-12567521D01*
X7724383Y-12567521D02*
X7724383Y-12672283D01*
X7819621Y-12672283D02*
X7819621Y-12538950D01*
X7819621Y-12557997D02*
X7829144Y-12548474D01*
X7829144Y-12548474D02*
X7848192Y-12538950D01*
X7848192Y-12538950D02*
X7876764Y-12538950D01*
X7876764Y-12538950D02*
X7895811Y-12548474D01*
X7895811Y-12548474D02*
X7905335Y-12567521D01*
X7905335Y-12567521D02*
X7905335Y-12672283D01*
X7905335Y-12567521D02*
X7914859Y-12548474D01*
X7914859Y-12548474D02*
X7933906Y-12538950D01*
X7933906Y-12538950D02*
X7962478Y-12538950D01*
X7962478Y-12538950D02*
X7981525Y-12548474D01*
X7981525Y-12548474D02*
X7991049Y-12567521D01*
X7991049Y-12567521D02*
X7991049Y-12672283D01*
X8349144Y-12462759D02*
X8177716Y-12719902D01*
X8573906Y-12472283D02*
X8592954Y-12472283D01*
X8592954Y-12472283D02*
X8612002Y-12481807D01*
X8612002Y-12481807D02*
X8621526Y-12491331D01*
X8621526Y-12491331D02*
X8631049Y-12510378D01*
X8631049Y-12510378D02*
X8640573Y-12548474D01*
X8640573Y-12548474D02*
X8640573Y-12596093D01*
X8640573Y-12596093D02*
X8631049Y-12634188D01*
X8631049Y-12634188D02*
X8621526Y-12653235D01*
X8621526Y-12653235D02*
X8612002Y-12662759D01*
X8612002Y-12662759D02*
X8592954Y-12672283D01*
X8592954Y-12672283D02*
X8573906Y-12672283D01*
X8573906Y-12672283D02*
X8554859Y-12662759D01*
X8554859Y-12662759D02*
X8545335Y-12653235D01*
X8545335Y-12653235D02*
X8535811Y-12634188D01*
X8535811Y-12634188D02*
X8526287Y-12596093D01*
X8526287Y-12596093D02*
X8526287Y-12548474D01*
X8526287Y-12548474D02*
X8535811Y-12510378D01*
X8535811Y-12510378D02*
X8545335Y-12491331D01*
X8545335Y-12491331D02*
X8554859Y-12481807D01*
X8554859Y-12481807D02*
X8573906Y-12472283D01*
X8726287Y-12653235D02*
X8735811Y-12662759D01*
X8735811Y-12662759D02*
X8726287Y-12672283D01*
X8726287Y-12672283D02*
X8716764Y-12662759D01*
X8716764Y-12662759D02*
X8726287Y-12653235D01*
X8726287Y-12653235D02*
X8726287Y-12672283D01*
X8859621Y-12472283D02*
X8878668Y-12472283D01*
X8878668Y-12472283D02*
X8897716Y-12481807D01*
X8897716Y-12481807D02*
X8907240Y-12491331D01*
X8907240Y-12491331D02*
X8916764Y-12510378D01*
X8916764Y-12510378D02*
X8926287Y-12548474D01*
X8926287Y-12548474D02*
X8926287Y-12596093D01*
X8926287Y-12596093D02*
X8916764Y-12634188D01*
X8916764Y-12634188D02*
X8907240Y-12653235D01*
X8907240Y-12653235D02*
X8897716Y-12662759D01*
X8897716Y-12662759D02*
X8878668Y-12672283D01*
X8878668Y-12672283D02*
X8859621Y-12672283D01*
X8859621Y-12672283D02*
X8840573Y-12662759D01*
X8840573Y-12662759D02*
X8831049Y-12653235D01*
X8831049Y-12653235D02*
X8821526Y-12634188D01*
X8821526Y-12634188D02*
X8812002Y-12596093D01*
X8812002Y-12596093D02*
X8812002Y-12548474D01*
X8812002Y-12548474D02*
X8821526Y-12510378D01*
X8821526Y-12510378D02*
X8831049Y-12491331D01*
X8831049Y-12491331D02*
X8840573Y-12481807D01*
X8840573Y-12481807D02*
X8859621Y-12472283D01*
X9116764Y-12672283D02*
X9002478Y-12672283D01*
X9059621Y-12672283D02*
X9059621Y-12472283D01*
X9059621Y-12472283D02*
X9040573Y-12500855D01*
X9040573Y-12500855D02*
X9021526Y-12519902D01*
X9021526Y-12519902D02*
X9002478Y-12529426D01*
X9297716Y-12472283D02*
X9202478Y-12472283D01*
X9202478Y-12472283D02*
X9192954Y-12567521D01*
X9192954Y-12567521D02*
X9202478Y-12557997D01*
X9202478Y-12557997D02*
X9221526Y-12548474D01*
X9221526Y-12548474D02*
X9269145Y-12548474D01*
X9269145Y-12548474D02*
X9288192Y-12557997D01*
X9288192Y-12557997D02*
X9297716Y-12567521D01*
X9297716Y-12567521D02*
X9307240Y-12586569D01*
X9307240Y-12586569D02*
X9307240Y-12634188D01*
X9307240Y-12634188D02*
X9297716Y-12653235D01*
X9297716Y-12653235D02*
X9288192Y-12662759D01*
X9288192Y-12662759D02*
X9269145Y-12672283D01*
X9269145Y-12672283D02*
X9221526Y-12672283D01*
X9221526Y-12672283D02*
X9202478Y-12662759D01*
X9202478Y-12662759D02*
X9192954Y-12653235D01*
X9373907Y-12472283D02*
X9507240Y-12472283D01*
X9507240Y-12472283D02*
X9421526Y-12672283D01*
X9573907Y-12472283D02*
X9573907Y-12510378D01*
X9650097Y-12472283D02*
X9650097Y-12510378D01*
X9912954Y-12748474D02*
X9903430Y-12738950D01*
X9903430Y-12738950D02*
X9884383Y-12710378D01*
X9884383Y-12710378D02*
X9874859Y-12691331D01*
X9874859Y-12691331D02*
X9865335Y-12662759D01*
X9865335Y-12662759D02*
X9855811Y-12615140D01*
X9855811Y-12615140D02*
X9855811Y-12577045D01*
X9855811Y-12577045D02*
X9865335Y-12529426D01*
X9865335Y-12529426D02*
X9874859Y-12500855D01*
X9874859Y-12500855D02*
X9884383Y-12481807D01*
X9884383Y-12481807D02*
X9903430Y-12453235D01*
X9903430Y-12453235D02*
X9912954Y-12443712D01*
X9979621Y-12491331D02*
X9989145Y-12481807D01*
X9989145Y-12481807D02*
X10008192Y-12472283D01*
X10008192Y-12472283D02*
X10055811Y-12472283D01*
X10055811Y-12472283D02*
X10074859Y-12481807D01*
X10074859Y-12481807D02*
X10084383Y-12491331D01*
X10084383Y-12491331D02*
X10093907Y-12510378D01*
X10093907Y-12510378D02*
X10093907Y-12529426D01*
X10093907Y-12529426D02*
X10084383Y-12557997D01*
X10084383Y-12557997D02*
X9970097Y-12672283D01*
X9970097Y-12672283D02*
X10093907Y-12672283D01*
X10160573Y-12472283D02*
X10293907Y-12472283D01*
X10293907Y-12472283D02*
X10208192Y-12672283D01*
X10490097Y-12672283D02*
X10490097Y-12472283D01*
X10575811Y-12672283D02*
X10575811Y-12567521D01*
X10575811Y-12567521D02*
X10566288Y-12548474D01*
X10566288Y-12548474D02*
X10547240Y-12538950D01*
X10547240Y-12538950D02*
X10518668Y-12538950D01*
X10518668Y-12538950D02*
X10499621Y-12548474D01*
X10499621Y-12548474D02*
X10490097Y-12557997D01*
X10699621Y-12672283D02*
X10680573Y-12662759D01*
X10680573Y-12662759D02*
X10671049Y-12653235D01*
X10671049Y-12653235D02*
X10661526Y-12634188D01*
X10661526Y-12634188D02*
X10661526Y-12577045D01*
X10661526Y-12577045D02*
X10671049Y-12557997D01*
X10671049Y-12557997D02*
X10680573Y-12548474D01*
X10680573Y-12548474D02*
X10699621Y-12538950D01*
X10699621Y-12538950D02*
X10728192Y-12538950D01*
X10728192Y-12538950D02*
X10747240Y-12548474D01*
X10747240Y-12548474D02*
X10756764Y-12557997D01*
X10756764Y-12557997D02*
X10766288Y-12577045D01*
X10766288Y-12577045D02*
X10766288Y-12634188D01*
X10766288Y-12634188D02*
X10756764Y-12653235D01*
X10756764Y-12653235D02*
X10747240Y-12662759D01*
X10747240Y-12662759D02*
X10728192Y-12672283D01*
X10728192Y-12672283D02*
X10699621Y-12672283D01*
X10880573Y-12672283D02*
X10861526Y-12662759D01*
X10861526Y-12662759D02*
X10852002Y-12643712D01*
X10852002Y-12643712D02*
X10852002Y-12472283D01*
X11032954Y-12662759D02*
X11013907Y-12672283D01*
X11013907Y-12672283D02*
X10975811Y-12672283D01*
X10975811Y-12672283D02*
X10956764Y-12662759D01*
X10956764Y-12662759D02*
X10947240Y-12643712D01*
X10947240Y-12643712D02*
X10947240Y-12567521D01*
X10947240Y-12567521D02*
X10956764Y-12548474D01*
X10956764Y-12548474D02*
X10975811Y-12538950D01*
X10975811Y-12538950D02*
X11013907Y-12538950D01*
X11013907Y-12538950D02*
X11032954Y-12548474D01*
X11032954Y-12548474D02*
X11042478Y-12567521D01*
X11042478Y-12567521D02*
X11042478Y-12586569D01*
X11042478Y-12586569D02*
X10947240Y-12605616D01*
X11118669Y-12662759D02*
X11137716Y-12672283D01*
X11137716Y-12672283D02*
X11175811Y-12672283D01*
X11175811Y-12672283D02*
X11194859Y-12662759D01*
X11194859Y-12662759D02*
X11204383Y-12643712D01*
X11204383Y-12643712D02*
X11204383Y-12634188D01*
X11204383Y-12634188D02*
X11194859Y-12615140D01*
X11194859Y-12615140D02*
X11175811Y-12605616D01*
X11175811Y-12605616D02*
X11147240Y-12605616D01*
X11147240Y-12605616D02*
X11128192Y-12596093D01*
X11128192Y-12596093D02*
X11118669Y-12577045D01*
X11118669Y-12577045D02*
X11118669Y-12567521D01*
X11118669Y-12567521D02*
X11128192Y-12548474D01*
X11128192Y-12548474D02*
X11147240Y-12538950D01*
X11147240Y-12538950D02*
X11175811Y-12538950D01*
X11175811Y-12538950D02*
X11194859Y-12548474D01*
X11271049Y-12748474D02*
X11280573Y-12738950D01*
X11280573Y-12738950D02*
X11299621Y-12710378D01*
X11299621Y-12710378D02*
X11309145Y-12691331D01*
X11309145Y-12691331D02*
X11318668Y-12662759D01*
X11318668Y-12662759D02*
X11328192Y-12615140D01*
X11328192Y-12615140D02*
X11328192Y-12577045D01*
X11328192Y-12577045D02*
X11318668Y-12529426D01*
X11318668Y-12529426D02*
X11309145Y-12500855D01*
X11309145Y-12500855D02*
X11299621Y-12481807D01*
X11299621Y-12481807D02*
X11280573Y-12453235D01*
X11280573Y-12453235D02*
X11271049Y-12443712D01*
D13*
X6448192Y-12862807D02*
G75*
G03*
X6448192Y-12862807I-45000J0D01*
G01*
D11*
X6733906Y-12736283D02*
X6752954Y-12736283D01*
X6752954Y-12736283D02*
X6772002Y-12745807D01*
X6772002Y-12745807D02*
X6781525Y-12755331D01*
X6781525Y-12755331D02*
X6791049Y-12774378D01*
X6791049Y-12774378D02*
X6800573Y-12812474D01*
X6800573Y-12812474D02*
X6800573Y-12860093D01*
X6800573Y-12860093D02*
X6791049Y-12898188D01*
X6791049Y-12898188D02*
X6781525Y-12917235D01*
X6781525Y-12917235D02*
X6772002Y-12926759D01*
X6772002Y-12926759D02*
X6752954Y-12936283D01*
X6752954Y-12936283D02*
X6733906Y-12936283D01*
X6733906Y-12936283D02*
X6714859Y-12926759D01*
X6714859Y-12926759D02*
X6705335Y-12917235D01*
X6705335Y-12917235D02*
X6695811Y-12898188D01*
X6695811Y-12898188D02*
X6686287Y-12860093D01*
X6686287Y-12860093D02*
X6686287Y-12812474D01*
X6686287Y-12812474D02*
X6695811Y-12774378D01*
X6695811Y-12774378D02*
X6705335Y-12755331D01*
X6705335Y-12755331D02*
X6714859Y-12745807D01*
X6714859Y-12745807D02*
X6733906Y-12736283D01*
X6886287Y-12917235D02*
X6895811Y-12926759D01*
X6895811Y-12926759D02*
X6886287Y-12936283D01*
X6886287Y-12936283D02*
X6876763Y-12926759D01*
X6876763Y-12926759D02*
X6886287Y-12917235D01*
X6886287Y-12917235D02*
X6886287Y-12936283D01*
X6991049Y-12936283D02*
X7029144Y-12936283D01*
X7029144Y-12936283D02*
X7048192Y-12926759D01*
X7048192Y-12926759D02*
X7057716Y-12917235D01*
X7057716Y-12917235D02*
X7076763Y-12888664D01*
X7076763Y-12888664D02*
X7086287Y-12850569D01*
X7086287Y-12850569D02*
X7086287Y-12774378D01*
X7086287Y-12774378D02*
X7076763Y-12755331D01*
X7076763Y-12755331D02*
X7067240Y-12745807D01*
X7067240Y-12745807D02*
X7048192Y-12736283D01*
X7048192Y-12736283D02*
X7010097Y-12736283D01*
X7010097Y-12736283D02*
X6991049Y-12745807D01*
X6991049Y-12745807D02*
X6981525Y-12755331D01*
X6981525Y-12755331D02*
X6972002Y-12774378D01*
X6972002Y-12774378D02*
X6972002Y-12821997D01*
X6972002Y-12821997D02*
X6981525Y-12841045D01*
X6981525Y-12841045D02*
X6991049Y-12850569D01*
X6991049Y-12850569D02*
X7010097Y-12860093D01*
X7010097Y-12860093D02*
X7048192Y-12860093D01*
X7048192Y-12860093D02*
X7067240Y-12850569D01*
X7067240Y-12850569D02*
X7076763Y-12841045D01*
X7076763Y-12841045D02*
X7086287Y-12821997D01*
X7210097Y-12736283D02*
X7229144Y-12736283D01*
X7229144Y-12736283D02*
X7248192Y-12745807D01*
X7248192Y-12745807D02*
X7257716Y-12755331D01*
X7257716Y-12755331D02*
X7267240Y-12774378D01*
X7267240Y-12774378D02*
X7276763Y-12812474D01*
X7276763Y-12812474D02*
X7276763Y-12860093D01*
X7276763Y-12860093D02*
X7267240Y-12898188D01*
X7267240Y-12898188D02*
X7257716Y-12917235D01*
X7257716Y-12917235D02*
X7248192Y-12926759D01*
X7248192Y-12926759D02*
X7229144Y-12936283D01*
X7229144Y-12936283D02*
X7210097Y-12936283D01*
X7210097Y-12936283D02*
X7191049Y-12926759D01*
X7191049Y-12926759D02*
X7181525Y-12917235D01*
X7181525Y-12917235D02*
X7172002Y-12898188D01*
X7172002Y-12898188D02*
X7162478Y-12860093D01*
X7162478Y-12860093D02*
X7162478Y-12812474D01*
X7162478Y-12812474D02*
X7172002Y-12774378D01*
X7172002Y-12774378D02*
X7181525Y-12755331D01*
X7181525Y-12755331D02*
X7191049Y-12745807D01*
X7191049Y-12745807D02*
X7210097Y-12736283D01*
X7400573Y-12736283D02*
X7419621Y-12736283D01*
X7419621Y-12736283D02*
X7438668Y-12745807D01*
X7438668Y-12745807D02*
X7448192Y-12755331D01*
X7448192Y-12755331D02*
X7457716Y-12774378D01*
X7457716Y-12774378D02*
X7467240Y-12812474D01*
X7467240Y-12812474D02*
X7467240Y-12860093D01*
X7467240Y-12860093D02*
X7457716Y-12898188D01*
X7457716Y-12898188D02*
X7448192Y-12917235D01*
X7448192Y-12917235D02*
X7438668Y-12926759D01*
X7438668Y-12926759D02*
X7419621Y-12936283D01*
X7419621Y-12936283D02*
X7400573Y-12936283D01*
X7400573Y-12936283D02*
X7381525Y-12926759D01*
X7381525Y-12926759D02*
X7372002Y-12917235D01*
X7372002Y-12917235D02*
X7362478Y-12898188D01*
X7362478Y-12898188D02*
X7352954Y-12860093D01*
X7352954Y-12860093D02*
X7352954Y-12812474D01*
X7352954Y-12812474D02*
X7362478Y-12774378D01*
X7362478Y-12774378D02*
X7372002Y-12755331D01*
X7372002Y-12755331D02*
X7381525Y-12745807D01*
X7381525Y-12745807D02*
X7400573Y-12736283D01*
X7552954Y-12936283D02*
X7552954Y-12802950D01*
X7552954Y-12821997D02*
X7562478Y-12812474D01*
X7562478Y-12812474D02*
X7581525Y-12802950D01*
X7581525Y-12802950D02*
X7610097Y-12802950D01*
X7610097Y-12802950D02*
X7629144Y-12812474D01*
X7629144Y-12812474D02*
X7638668Y-12831521D01*
X7638668Y-12831521D02*
X7638668Y-12936283D01*
X7638668Y-12831521D02*
X7648192Y-12812474D01*
X7648192Y-12812474D02*
X7667240Y-12802950D01*
X7667240Y-12802950D02*
X7695811Y-12802950D01*
X7695811Y-12802950D02*
X7714859Y-12812474D01*
X7714859Y-12812474D02*
X7724383Y-12831521D01*
X7724383Y-12831521D02*
X7724383Y-12936283D01*
X7819621Y-12936283D02*
X7819621Y-12802950D01*
X7819621Y-12821997D02*
X7829144Y-12812474D01*
X7829144Y-12812474D02*
X7848192Y-12802950D01*
X7848192Y-12802950D02*
X7876764Y-12802950D01*
X7876764Y-12802950D02*
X7895811Y-12812474D01*
X7895811Y-12812474D02*
X7905335Y-12831521D01*
X7905335Y-12831521D02*
X7905335Y-12936283D01*
X7905335Y-12831521D02*
X7914859Y-12812474D01*
X7914859Y-12812474D02*
X7933906Y-12802950D01*
X7933906Y-12802950D02*
X7962478Y-12802950D01*
X7962478Y-12802950D02*
X7981525Y-12812474D01*
X7981525Y-12812474D02*
X7991049Y-12831521D01*
X7991049Y-12831521D02*
X7991049Y-12936283D01*
X8349144Y-12726759D02*
X8177716Y-12983902D01*
X8573906Y-12736283D02*
X8592954Y-12736283D01*
X8592954Y-12736283D02*
X8612002Y-12745807D01*
X8612002Y-12745807D02*
X8621526Y-12755331D01*
X8621526Y-12755331D02*
X8631049Y-12774378D01*
X8631049Y-12774378D02*
X8640573Y-12812474D01*
X8640573Y-12812474D02*
X8640573Y-12860093D01*
X8640573Y-12860093D02*
X8631049Y-12898188D01*
X8631049Y-12898188D02*
X8621526Y-12917235D01*
X8621526Y-12917235D02*
X8612002Y-12926759D01*
X8612002Y-12926759D02*
X8592954Y-12936283D01*
X8592954Y-12936283D02*
X8573906Y-12936283D01*
X8573906Y-12936283D02*
X8554859Y-12926759D01*
X8554859Y-12926759D02*
X8545335Y-12917235D01*
X8545335Y-12917235D02*
X8535811Y-12898188D01*
X8535811Y-12898188D02*
X8526287Y-12860093D01*
X8526287Y-12860093D02*
X8526287Y-12812474D01*
X8526287Y-12812474D02*
X8535811Y-12774378D01*
X8535811Y-12774378D02*
X8545335Y-12755331D01*
X8545335Y-12755331D02*
X8554859Y-12745807D01*
X8554859Y-12745807D02*
X8573906Y-12736283D01*
X8726287Y-12917235D02*
X8735811Y-12926759D01*
X8735811Y-12926759D02*
X8726287Y-12936283D01*
X8726287Y-12936283D02*
X8716764Y-12926759D01*
X8716764Y-12926759D02*
X8726287Y-12917235D01*
X8726287Y-12917235D02*
X8726287Y-12936283D01*
X8859621Y-12736283D02*
X8878668Y-12736283D01*
X8878668Y-12736283D02*
X8897716Y-12745807D01*
X8897716Y-12745807D02*
X8907240Y-12755331D01*
X8907240Y-12755331D02*
X8916764Y-12774378D01*
X8916764Y-12774378D02*
X8926287Y-12812474D01*
X8926287Y-12812474D02*
X8926287Y-12860093D01*
X8926287Y-12860093D02*
X8916764Y-12898188D01*
X8916764Y-12898188D02*
X8907240Y-12917235D01*
X8907240Y-12917235D02*
X8897716Y-12926759D01*
X8897716Y-12926759D02*
X8878668Y-12936283D01*
X8878668Y-12936283D02*
X8859621Y-12936283D01*
X8859621Y-12936283D02*
X8840573Y-12926759D01*
X8840573Y-12926759D02*
X8831049Y-12917235D01*
X8831049Y-12917235D02*
X8821526Y-12898188D01*
X8821526Y-12898188D02*
X8812002Y-12860093D01*
X8812002Y-12860093D02*
X8812002Y-12812474D01*
X8812002Y-12812474D02*
X8821526Y-12774378D01*
X8821526Y-12774378D02*
X8831049Y-12755331D01*
X8831049Y-12755331D02*
X8840573Y-12745807D01*
X8840573Y-12745807D02*
X8859621Y-12736283D01*
X8992954Y-12736283D02*
X9116764Y-12736283D01*
X9116764Y-12736283D02*
X9050097Y-12812474D01*
X9050097Y-12812474D02*
X9078668Y-12812474D01*
X9078668Y-12812474D02*
X9097716Y-12821997D01*
X9097716Y-12821997D02*
X9107240Y-12831521D01*
X9107240Y-12831521D02*
X9116764Y-12850569D01*
X9116764Y-12850569D02*
X9116764Y-12898188D01*
X9116764Y-12898188D02*
X9107240Y-12917235D01*
X9107240Y-12917235D02*
X9097716Y-12926759D01*
X9097716Y-12926759D02*
X9078668Y-12936283D01*
X9078668Y-12936283D02*
X9021526Y-12936283D01*
X9021526Y-12936283D02*
X9002478Y-12926759D01*
X9002478Y-12926759D02*
X8992954Y-12917235D01*
X9297716Y-12736283D02*
X9202478Y-12736283D01*
X9202478Y-12736283D02*
X9192954Y-12831521D01*
X9192954Y-12831521D02*
X9202478Y-12821997D01*
X9202478Y-12821997D02*
X9221526Y-12812474D01*
X9221526Y-12812474D02*
X9269145Y-12812474D01*
X9269145Y-12812474D02*
X9288192Y-12821997D01*
X9288192Y-12821997D02*
X9297716Y-12831521D01*
X9297716Y-12831521D02*
X9307240Y-12850569D01*
X9307240Y-12850569D02*
X9307240Y-12898188D01*
X9307240Y-12898188D02*
X9297716Y-12917235D01*
X9297716Y-12917235D02*
X9288192Y-12926759D01*
X9288192Y-12926759D02*
X9269145Y-12936283D01*
X9269145Y-12936283D02*
X9221526Y-12936283D01*
X9221526Y-12936283D02*
X9202478Y-12926759D01*
X9202478Y-12926759D02*
X9192954Y-12917235D01*
X9478668Y-12802950D02*
X9478668Y-12936283D01*
X9431049Y-12726759D02*
X9383430Y-12869616D01*
X9383430Y-12869616D02*
X9507240Y-12869616D01*
X9573907Y-12736283D02*
X9573907Y-12774378D01*
X9650097Y-12736283D02*
X9650097Y-12774378D01*
X9912954Y-13012474D02*
X9903430Y-13002950D01*
X9903430Y-13002950D02*
X9884383Y-12974378D01*
X9884383Y-12974378D02*
X9874859Y-12955331D01*
X9874859Y-12955331D02*
X9865335Y-12926759D01*
X9865335Y-12926759D02*
X9855811Y-12879140D01*
X9855811Y-12879140D02*
X9855811Y-12841045D01*
X9855811Y-12841045D02*
X9865335Y-12793426D01*
X9865335Y-12793426D02*
X9874859Y-12764855D01*
X9874859Y-12764855D02*
X9884383Y-12745807D01*
X9884383Y-12745807D02*
X9903430Y-12717235D01*
X9903430Y-12717235D02*
X9912954Y-12707712D01*
X10074859Y-12802950D02*
X10074859Y-12936283D01*
X10027240Y-12726759D02*
X9979621Y-12869616D01*
X9979621Y-12869616D02*
X10103430Y-12869616D01*
X10299621Y-12936283D02*
X10299621Y-12736283D01*
X10385335Y-12936283D02*
X10385335Y-12831521D01*
X10385335Y-12831521D02*
X10375811Y-12812474D01*
X10375811Y-12812474D02*
X10356764Y-12802950D01*
X10356764Y-12802950D02*
X10328192Y-12802950D01*
X10328192Y-12802950D02*
X10309145Y-12812474D01*
X10309145Y-12812474D02*
X10299621Y-12821997D01*
X10509145Y-12936283D02*
X10490097Y-12926759D01*
X10490097Y-12926759D02*
X10480573Y-12917235D01*
X10480573Y-12917235D02*
X10471049Y-12898188D01*
X10471049Y-12898188D02*
X10471049Y-12841045D01*
X10471049Y-12841045D02*
X10480573Y-12821997D01*
X10480573Y-12821997D02*
X10490097Y-12812474D01*
X10490097Y-12812474D02*
X10509145Y-12802950D01*
X10509145Y-12802950D02*
X10537716Y-12802950D01*
X10537716Y-12802950D02*
X10556764Y-12812474D01*
X10556764Y-12812474D02*
X10566288Y-12821997D01*
X10566288Y-12821997D02*
X10575811Y-12841045D01*
X10575811Y-12841045D02*
X10575811Y-12898188D01*
X10575811Y-12898188D02*
X10566288Y-12917235D01*
X10566288Y-12917235D02*
X10556764Y-12926759D01*
X10556764Y-12926759D02*
X10537716Y-12936283D01*
X10537716Y-12936283D02*
X10509145Y-12936283D01*
X10690097Y-12936283D02*
X10671049Y-12926759D01*
X10671049Y-12926759D02*
X10661526Y-12907712D01*
X10661526Y-12907712D02*
X10661526Y-12736283D01*
X10842478Y-12926759D02*
X10823430Y-12936283D01*
X10823430Y-12936283D02*
X10785335Y-12936283D01*
X10785335Y-12936283D02*
X10766288Y-12926759D01*
X10766288Y-12926759D02*
X10756764Y-12907712D01*
X10756764Y-12907712D02*
X10756764Y-12831521D01*
X10756764Y-12831521D02*
X10766288Y-12812474D01*
X10766288Y-12812474D02*
X10785335Y-12802950D01*
X10785335Y-12802950D02*
X10823430Y-12802950D01*
X10823430Y-12802950D02*
X10842478Y-12812474D01*
X10842478Y-12812474D02*
X10852002Y-12831521D01*
X10852002Y-12831521D02*
X10852002Y-12850569D01*
X10852002Y-12850569D02*
X10756764Y-12869616D01*
X10928192Y-12926759D02*
X10947240Y-12936283D01*
X10947240Y-12936283D02*
X10985335Y-12936283D01*
X10985335Y-12936283D02*
X11004383Y-12926759D01*
X11004383Y-12926759D02*
X11013907Y-12907712D01*
X11013907Y-12907712D02*
X11013907Y-12898188D01*
X11013907Y-12898188D02*
X11004383Y-12879140D01*
X11004383Y-12879140D02*
X10985335Y-12869616D01*
X10985335Y-12869616D02*
X10956764Y-12869616D01*
X10956764Y-12869616D02*
X10937716Y-12860093D01*
X10937716Y-12860093D02*
X10928192Y-12841045D01*
X10928192Y-12841045D02*
X10928192Y-12831521D01*
X10928192Y-12831521D02*
X10937716Y-12812474D01*
X10937716Y-12812474D02*
X10956764Y-12802950D01*
X10956764Y-12802950D02*
X10985335Y-12802950D01*
X10985335Y-12802950D02*
X11004383Y-12812474D01*
X11080573Y-13012474D02*
X11090097Y-13002950D01*
X11090097Y-13002950D02*
X11109145Y-12974378D01*
X11109145Y-12974378D02*
X11118669Y-12955331D01*
X11118669Y-12955331D02*
X11128192Y-12926759D01*
X11128192Y-12926759D02*
X11137716Y-12879140D01*
X11137716Y-12879140D02*
X11137716Y-12841045D01*
X11137716Y-12841045D02*
X11128192Y-12793426D01*
X11128192Y-12793426D02*
X11118669Y-12764855D01*
X11118669Y-12764855D02*
X11109145Y-12745807D01*
X11109145Y-12745807D02*
X11090097Y-12717235D01*
X11090097Y-12717235D02*
X11080573Y-12707712D01*
D10*
X6398192Y-13076807D02*
X6398192Y-13176807D01*
X6348192Y-13126807D02*
X6448192Y-13126807D01*
D11*
X6800573Y-13200283D02*
X6686287Y-13200283D01*
X6743430Y-13200283D02*
X6743430Y-13000283D01*
X6743430Y-13000283D02*
X6724382Y-13028855D01*
X6724382Y-13028855D02*
X6705335Y-13047902D01*
X6705335Y-13047902D02*
X6686287Y-13057426D01*
X6886287Y-13181235D02*
X6895811Y-13190759D01*
X6895811Y-13190759D02*
X6886287Y-13200283D01*
X6886287Y-13200283D02*
X6876763Y-13190759D01*
X6876763Y-13190759D02*
X6886287Y-13181235D01*
X6886287Y-13181235D02*
X6886287Y-13200283D01*
X7019621Y-13000283D02*
X7038668Y-13000283D01*
X7038668Y-13000283D02*
X7057716Y-13009807D01*
X7057716Y-13009807D02*
X7067240Y-13019331D01*
X7067240Y-13019331D02*
X7076763Y-13038378D01*
X7076763Y-13038378D02*
X7086287Y-13076474D01*
X7086287Y-13076474D02*
X7086287Y-13124093D01*
X7086287Y-13124093D02*
X7076763Y-13162188D01*
X7076763Y-13162188D02*
X7067240Y-13181235D01*
X7067240Y-13181235D02*
X7057716Y-13190759D01*
X7057716Y-13190759D02*
X7038668Y-13200283D01*
X7038668Y-13200283D02*
X7019621Y-13200283D01*
X7019621Y-13200283D02*
X7000573Y-13190759D01*
X7000573Y-13190759D02*
X6991049Y-13181235D01*
X6991049Y-13181235D02*
X6981525Y-13162188D01*
X6981525Y-13162188D02*
X6972002Y-13124093D01*
X6972002Y-13124093D02*
X6972002Y-13076474D01*
X6972002Y-13076474D02*
X6981525Y-13038378D01*
X6981525Y-13038378D02*
X6991049Y-13019331D01*
X6991049Y-13019331D02*
X7000573Y-13009807D01*
X7000573Y-13009807D02*
X7019621Y-13000283D01*
X7210097Y-13000283D02*
X7229144Y-13000283D01*
X7229144Y-13000283D02*
X7248192Y-13009807D01*
X7248192Y-13009807D02*
X7257716Y-13019331D01*
X7257716Y-13019331D02*
X7267240Y-13038378D01*
X7267240Y-13038378D02*
X7276763Y-13076474D01*
X7276763Y-13076474D02*
X7276763Y-13124093D01*
X7276763Y-13124093D02*
X7267240Y-13162188D01*
X7267240Y-13162188D02*
X7257716Y-13181235D01*
X7257716Y-13181235D02*
X7248192Y-13190759D01*
X7248192Y-13190759D02*
X7229144Y-13200283D01*
X7229144Y-13200283D02*
X7210097Y-13200283D01*
X7210097Y-13200283D02*
X7191049Y-13190759D01*
X7191049Y-13190759D02*
X7181525Y-13181235D01*
X7181525Y-13181235D02*
X7172002Y-13162188D01*
X7172002Y-13162188D02*
X7162478Y-13124093D01*
X7162478Y-13124093D02*
X7162478Y-13076474D01*
X7162478Y-13076474D02*
X7172002Y-13038378D01*
X7172002Y-13038378D02*
X7181525Y-13019331D01*
X7181525Y-13019331D02*
X7191049Y-13009807D01*
X7191049Y-13009807D02*
X7210097Y-13000283D01*
X7400573Y-13000283D02*
X7419621Y-13000283D01*
X7419621Y-13000283D02*
X7438668Y-13009807D01*
X7438668Y-13009807D02*
X7448192Y-13019331D01*
X7448192Y-13019331D02*
X7457716Y-13038378D01*
X7457716Y-13038378D02*
X7467240Y-13076474D01*
X7467240Y-13076474D02*
X7467240Y-13124093D01*
X7467240Y-13124093D02*
X7457716Y-13162188D01*
X7457716Y-13162188D02*
X7448192Y-13181235D01*
X7448192Y-13181235D02*
X7438668Y-13190759D01*
X7438668Y-13190759D02*
X7419621Y-13200283D01*
X7419621Y-13200283D02*
X7400573Y-13200283D01*
X7400573Y-13200283D02*
X7381525Y-13190759D01*
X7381525Y-13190759D02*
X7372002Y-13181235D01*
X7372002Y-13181235D02*
X7362478Y-13162188D01*
X7362478Y-13162188D02*
X7352954Y-13124093D01*
X7352954Y-13124093D02*
X7352954Y-13076474D01*
X7352954Y-13076474D02*
X7362478Y-13038378D01*
X7362478Y-13038378D02*
X7372002Y-13019331D01*
X7372002Y-13019331D02*
X7381525Y-13009807D01*
X7381525Y-13009807D02*
X7400573Y-13000283D01*
X7552954Y-13200283D02*
X7552954Y-13066950D01*
X7552954Y-13085997D02*
X7562478Y-13076474D01*
X7562478Y-13076474D02*
X7581525Y-13066950D01*
X7581525Y-13066950D02*
X7610097Y-13066950D01*
X7610097Y-13066950D02*
X7629144Y-13076474D01*
X7629144Y-13076474D02*
X7638668Y-13095521D01*
X7638668Y-13095521D02*
X7638668Y-13200283D01*
X7638668Y-13095521D02*
X7648192Y-13076474D01*
X7648192Y-13076474D02*
X7667240Y-13066950D01*
X7667240Y-13066950D02*
X7695811Y-13066950D01*
X7695811Y-13066950D02*
X7714859Y-13076474D01*
X7714859Y-13076474D02*
X7724383Y-13095521D01*
X7724383Y-13095521D02*
X7724383Y-13200283D01*
X7819621Y-13200283D02*
X7819621Y-13066950D01*
X7819621Y-13085997D02*
X7829144Y-13076474D01*
X7829144Y-13076474D02*
X7848192Y-13066950D01*
X7848192Y-13066950D02*
X7876764Y-13066950D01*
X7876764Y-13066950D02*
X7895811Y-13076474D01*
X7895811Y-13076474D02*
X7905335Y-13095521D01*
X7905335Y-13095521D02*
X7905335Y-13200283D01*
X7905335Y-13095521D02*
X7914859Y-13076474D01*
X7914859Y-13076474D02*
X7933906Y-13066950D01*
X7933906Y-13066950D02*
X7962478Y-13066950D01*
X7962478Y-13066950D02*
X7981525Y-13076474D01*
X7981525Y-13076474D02*
X7991049Y-13095521D01*
X7991049Y-13095521D02*
X7991049Y-13200283D01*
X8349144Y-12990759D02*
X8177716Y-13247902D01*
X8573906Y-13000283D02*
X8592954Y-13000283D01*
X8592954Y-13000283D02*
X8612002Y-13009807D01*
X8612002Y-13009807D02*
X8621526Y-13019331D01*
X8621526Y-13019331D02*
X8631049Y-13038378D01*
X8631049Y-13038378D02*
X8640573Y-13076474D01*
X8640573Y-13076474D02*
X8640573Y-13124093D01*
X8640573Y-13124093D02*
X8631049Y-13162188D01*
X8631049Y-13162188D02*
X8621526Y-13181235D01*
X8621526Y-13181235D02*
X8612002Y-13190759D01*
X8612002Y-13190759D02*
X8592954Y-13200283D01*
X8592954Y-13200283D02*
X8573906Y-13200283D01*
X8573906Y-13200283D02*
X8554859Y-13190759D01*
X8554859Y-13190759D02*
X8545335Y-13181235D01*
X8545335Y-13181235D02*
X8535811Y-13162188D01*
X8535811Y-13162188D02*
X8526287Y-13124093D01*
X8526287Y-13124093D02*
X8526287Y-13076474D01*
X8526287Y-13076474D02*
X8535811Y-13038378D01*
X8535811Y-13038378D02*
X8545335Y-13019331D01*
X8545335Y-13019331D02*
X8554859Y-13009807D01*
X8554859Y-13009807D02*
X8573906Y-13000283D01*
X8726287Y-13181235D02*
X8735811Y-13190759D01*
X8735811Y-13190759D02*
X8726287Y-13200283D01*
X8726287Y-13200283D02*
X8716764Y-13190759D01*
X8716764Y-13190759D02*
X8726287Y-13181235D01*
X8726287Y-13181235D02*
X8726287Y-13200283D01*
X8859621Y-13000283D02*
X8878668Y-13000283D01*
X8878668Y-13000283D02*
X8897716Y-13009807D01*
X8897716Y-13009807D02*
X8907240Y-13019331D01*
X8907240Y-13019331D02*
X8916764Y-13038378D01*
X8916764Y-13038378D02*
X8926287Y-13076474D01*
X8926287Y-13076474D02*
X8926287Y-13124093D01*
X8926287Y-13124093D02*
X8916764Y-13162188D01*
X8916764Y-13162188D02*
X8907240Y-13181235D01*
X8907240Y-13181235D02*
X8897716Y-13190759D01*
X8897716Y-13190759D02*
X8878668Y-13200283D01*
X8878668Y-13200283D02*
X8859621Y-13200283D01*
X8859621Y-13200283D02*
X8840573Y-13190759D01*
X8840573Y-13190759D02*
X8831049Y-13181235D01*
X8831049Y-13181235D02*
X8821526Y-13162188D01*
X8821526Y-13162188D02*
X8812002Y-13124093D01*
X8812002Y-13124093D02*
X8812002Y-13076474D01*
X8812002Y-13076474D02*
X8821526Y-13038378D01*
X8821526Y-13038378D02*
X8831049Y-13019331D01*
X8831049Y-13019331D02*
X8840573Y-13009807D01*
X8840573Y-13009807D02*
X8859621Y-13000283D01*
X8992954Y-13000283D02*
X9116764Y-13000283D01*
X9116764Y-13000283D02*
X9050097Y-13076474D01*
X9050097Y-13076474D02*
X9078668Y-13076474D01*
X9078668Y-13076474D02*
X9097716Y-13085997D01*
X9097716Y-13085997D02*
X9107240Y-13095521D01*
X9107240Y-13095521D02*
X9116764Y-13114569D01*
X9116764Y-13114569D02*
X9116764Y-13162188D01*
X9116764Y-13162188D02*
X9107240Y-13181235D01*
X9107240Y-13181235D02*
X9097716Y-13190759D01*
X9097716Y-13190759D02*
X9078668Y-13200283D01*
X9078668Y-13200283D02*
X9021526Y-13200283D01*
X9021526Y-13200283D02*
X9002478Y-13190759D01*
X9002478Y-13190759D02*
X8992954Y-13181235D01*
X9212002Y-13200283D02*
X9250097Y-13200283D01*
X9250097Y-13200283D02*
X9269145Y-13190759D01*
X9269145Y-13190759D02*
X9278668Y-13181235D01*
X9278668Y-13181235D02*
X9297716Y-13152664D01*
X9297716Y-13152664D02*
X9307240Y-13114569D01*
X9307240Y-13114569D02*
X9307240Y-13038378D01*
X9307240Y-13038378D02*
X9297716Y-13019331D01*
X9297716Y-13019331D02*
X9288192Y-13009807D01*
X9288192Y-13009807D02*
X9269145Y-13000283D01*
X9269145Y-13000283D02*
X9231049Y-13000283D01*
X9231049Y-13000283D02*
X9212002Y-13009807D01*
X9212002Y-13009807D02*
X9202478Y-13019331D01*
X9202478Y-13019331D02*
X9192954Y-13038378D01*
X9192954Y-13038378D02*
X9192954Y-13085997D01*
X9192954Y-13085997D02*
X9202478Y-13105045D01*
X9202478Y-13105045D02*
X9212002Y-13114569D01*
X9212002Y-13114569D02*
X9231049Y-13124093D01*
X9231049Y-13124093D02*
X9269145Y-13124093D01*
X9269145Y-13124093D02*
X9288192Y-13114569D01*
X9288192Y-13114569D02*
X9297716Y-13105045D01*
X9297716Y-13105045D02*
X9307240Y-13085997D01*
X9478668Y-13066950D02*
X9478668Y-13200283D01*
X9431049Y-12990759D02*
X9383430Y-13133616D01*
X9383430Y-13133616D02*
X9507240Y-13133616D01*
X9573907Y-13000283D02*
X9573907Y-13038378D01*
X9650097Y-13000283D02*
X9650097Y-13038378D01*
X9912954Y-13276474D02*
X9903430Y-13266950D01*
X9903430Y-13266950D02*
X9884383Y-13238378D01*
X9884383Y-13238378D02*
X9874859Y-13219331D01*
X9874859Y-13219331D02*
X9865335Y-13190759D01*
X9865335Y-13190759D02*
X9855811Y-13143140D01*
X9855811Y-13143140D02*
X9855811Y-13105045D01*
X9855811Y-13105045D02*
X9865335Y-13057426D01*
X9865335Y-13057426D02*
X9874859Y-13028855D01*
X9874859Y-13028855D02*
X9884383Y-13009807D01*
X9884383Y-13009807D02*
X9903430Y-12981235D01*
X9903430Y-12981235D02*
X9912954Y-12971712D01*
X10093907Y-13200283D02*
X9979621Y-13200283D01*
X10036764Y-13200283D02*
X10036764Y-13000283D01*
X10036764Y-13000283D02*
X10017716Y-13028855D01*
X10017716Y-13028855D02*
X9998668Y-13047902D01*
X9998668Y-13047902D02*
X9979621Y-13057426D01*
X10189145Y-13200283D02*
X10227240Y-13200283D01*
X10227240Y-13200283D02*
X10246288Y-13190759D01*
X10246288Y-13190759D02*
X10255811Y-13181235D01*
X10255811Y-13181235D02*
X10274859Y-13152664D01*
X10274859Y-13152664D02*
X10284383Y-13114569D01*
X10284383Y-13114569D02*
X10284383Y-13038378D01*
X10284383Y-13038378D02*
X10274859Y-13019331D01*
X10274859Y-13019331D02*
X10265335Y-13009807D01*
X10265335Y-13009807D02*
X10246288Y-13000283D01*
X10246288Y-13000283D02*
X10208192Y-13000283D01*
X10208192Y-13000283D02*
X10189145Y-13009807D01*
X10189145Y-13009807D02*
X10179621Y-13019331D01*
X10179621Y-13019331D02*
X10170097Y-13038378D01*
X10170097Y-13038378D02*
X10170097Y-13085997D01*
X10170097Y-13085997D02*
X10179621Y-13105045D01*
X10179621Y-13105045D02*
X10189145Y-13114569D01*
X10189145Y-13114569D02*
X10208192Y-13124093D01*
X10208192Y-13124093D02*
X10246288Y-13124093D01*
X10246288Y-13124093D02*
X10265335Y-13114569D01*
X10265335Y-13114569D02*
X10274859Y-13105045D01*
X10274859Y-13105045D02*
X10284383Y-13085997D01*
X10408192Y-13000283D02*
X10427240Y-13000283D01*
X10427240Y-13000283D02*
X10446288Y-13009807D01*
X10446288Y-13009807D02*
X10455811Y-13019331D01*
X10455811Y-13019331D02*
X10465335Y-13038378D01*
X10465335Y-13038378D02*
X10474859Y-13076474D01*
X10474859Y-13076474D02*
X10474859Y-13124093D01*
X10474859Y-13124093D02*
X10465335Y-13162188D01*
X10465335Y-13162188D02*
X10455811Y-13181235D01*
X10455811Y-13181235D02*
X10446288Y-13190759D01*
X10446288Y-13190759D02*
X10427240Y-13200283D01*
X10427240Y-13200283D02*
X10408192Y-13200283D01*
X10408192Y-13200283D02*
X10389145Y-13190759D01*
X10389145Y-13190759D02*
X10379621Y-13181235D01*
X10379621Y-13181235D02*
X10370097Y-13162188D01*
X10370097Y-13162188D02*
X10360573Y-13124093D01*
X10360573Y-13124093D02*
X10360573Y-13076474D01*
X10360573Y-13076474D02*
X10370097Y-13038378D01*
X10370097Y-13038378D02*
X10379621Y-13019331D01*
X10379621Y-13019331D02*
X10389145Y-13009807D01*
X10389145Y-13009807D02*
X10408192Y-13000283D01*
X10680573Y-13200283D02*
X10680573Y-13000283D01*
X10766288Y-13200283D02*
X10766288Y-13095521D01*
X10766288Y-13095521D02*
X10756764Y-13076474D01*
X10756764Y-13076474D02*
X10737716Y-13066950D01*
X10737716Y-13066950D02*
X10709145Y-13066950D01*
X10709145Y-13066950D02*
X10690097Y-13076474D01*
X10690097Y-13076474D02*
X10680573Y-13085997D01*
X10890097Y-13200283D02*
X10871049Y-13190759D01*
X10871049Y-13190759D02*
X10861526Y-13181235D01*
X10861526Y-13181235D02*
X10852002Y-13162188D01*
X10852002Y-13162188D02*
X10852002Y-13105045D01*
X10852002Y-13105045D02*
X10861526Y-13085997D01*
X10861526Y-13085997D02*
X10871049Y-13076474D01*
X10871049Y-13076474D02*
X10890097Y-13066950D01*
X10890097Y-13066950D02*
X10918669Y-13066950D01*
X10918669Y-13066950D02*
X10937716Y-13076474D01*
X10937716Y-13076474D02*
X10947240Y-13085997D01*
X10947240Y-13085997D02*
X10956764Y-13105045D01*
X10956764Y-13105045D02*
X10956764Y-13162188D01*
X10956764Y-13162188D02*
X10947240Y-13181235D01*
X10947240Y-13181235D02*
X10937716Y-13190759D01*
X10937716Y-13190759D02*
X10918669Y-13200283D01*
X10918669Y-13200283D02*
X10890097Y-13200283D01*
X11071049Y-13200283D02*
X11052002Y-13190759D01*
X11052002Y-13190759D02*
X11042478Y-13171712D01*
X11042478Y-13171712D02*
X11042478Y-13000283D01*
X11223430Y-13190759D02*
X11204383Y-13200283D01*
X11204383Y-13200283D02*
X11166288Y-13200283D01*
X11166288Y-13200283D02*
X11147240Y-13190759D01*
X11147240Y-13190759D02*
X11137716Y-13171712D01*
X11137716Y-13171712D02*
X11137716Y-13095521D01*
X11137716Y-13095521D02*
X11147240Y-13076474D01*
X11147240Y-13076474D02*
X11166288Y-13066950D01*
X11166288Y-13066950D02*
X11204383Y-13066950D01*
X11204383Y-13066950D02*
X11223430Y-13076474D01*
X11223430Y-13076474D02*
X11232954Y-13095521D01*
X11232954Y-13095521D02*
X11232954Y-13114569D01*
X11232954Y-13114569D02*
X11137716Y-13133616D01*
X11309145Y-13190759D02*
X11328192Y-13200283D01*
X11328192Y-13200283D02*
X11366287Y-13200283D01*
X11366287Y-13200283D02*
X11385335Y-13190759D01*
X11385335Y-13190759D02*
X11394859Y-13171712D01*
X11394859Y-13171712D02*
X11394859Y-13162188D01*
X11394859Y-13162188D02*
X11385335Y-13143140D01*
X11385335Y-13143140D02*
X11366287Y-13133616D01*
X11366287Y-13133616D02*
X11337716Y-13133616D01*
X11337716Y-13133616D02*
X11318668Y-13124093D01*
X11318668Y-13124093D02*
X11309145Y-13105045D01*
X11309145Y-13105045D02*
X11309145Y-13095521D01*
X11309145Y-13095521D02*
X11318668Y-13076474D01*
X11318668Y-13076474D02*
X11337716Y-13066950D01*
X11337716Y-13066950D02*
X11366287Y-13066950D01*
X11366287Y-13066950D02*
X11385335Y-13076474D01*
X11461526Y-13276474D02*
X11471049Y-13266950D01*
X11471049Y-13266950D02*
X11490097Y-13238378D01*
X11490097Y-13238378D02*
X11499621Y-13219331D01*
X11499621Y-13219331D02*
X11509145Y-13190759D01*
X11509145Y-13190759D02*
X11518668Y-13143140D01*
X11518668Y-13143140D02*
X11518668Y-13105045D01*
X11518668Y-13105045D02*
X11509145Y-13057426D01*
X11509145Y-13057426D02*
X11499621Y-13028855D01*
X11499621Y-13028855D02*
X11490097Y-13009807D01*
X11490097Y-13009807D02*
X11471049Y-12981235D01*
X11471049Y-12981235D02*
X11461526Y-12971712D01*
D14*
X6432083Y-13429698D02*
X6432083Y-13351916D01*
X6354301Y-13351916D01*
X6354301Y-13429698D01*
X6432083Y-13429698D01*
D11*
X6800573Y-13464283D02*
X6686287Y-13464283D01*
X6743430Y-13464283D02*
X6743430Y-13264283D01*
X6743430Y-13264283D02*
X6724382Y-13292855D01*
X6724382Y-13292855D02*
X6705335Y-13311902D01*
X6705335Y-13311902D02*
X6686287Y-13321426D01*
X6886287Y-13445235D02*
X6895811Y-13454759D01*
X6895811Y-13454759D02*
X6886287Y-13464283D01*
X6886287Y-13464283D02*
X6876763Y-13454759D01*
X6876763Y-13454759D02*
X6886287Y-13445235D01*
X6886287Y-13445235D02*
X6886287Y-13464283D01*
X7086287Y-13464283D02*
X6972002Y-13464283D01*
X7029144Y-13464283D02*
X7029144Y-13264283D01*
X7029144Y-13264283D02*
X7010097Y-13292855D01*
X7010097Y-13292855D02*
X6991049Y-13311902D01*
X6991049Y-13311902D02*
X6972002Y-13321426D01*
X7210097Y-13264283D02*
X7229144Y-13264283D01*
X7229144Y-13264283D02*
X7248192Y-13273807D01*
X7248192Y-13273807D02*
X7257716Y-13283331D01*
X7257716Y-13283331D02*
X7267240Y-13302378D01*
X7267240Y-13302378D02*
X7276763Y-13340474D01*
X7276763Y-13340474D02*
X7276763Y-13388093D01*
X7276763Y-13388093D02*
X7267240Y-13426188D01*
X7267240Y-13426188D02*
X7257716Y-13445235D01*
X7257716Y-13445235D02*
X7248192Y-13454759D01*
X7248192Y-13454759D02*
X7229144Y-13464283D01*
X7229144Y-13464283D02*
X7210097Y-13464283D01*
X7210097Y-13464283D02*
X7191049Y-13454759D01*
X7191049Y-13454759D02*
X7181525Y-13445235D01*
X7181525Y-13445235D02*
X7172002Y-13426188D01*
X7172002Y-13426188D02*
X7162478Y-13388093D01*
X7162478Y-13388093D02*
X7162478Y-13340474D01*
X7162478Y-13340474D02*
X7172002Y-13302378D01*
X7172002Y-13302378D02*
X7181525Y-13283331D01*
X7181525Y-13283331D02*
X7191049Y-13273807D01*
X7191049Y-13273807D02*
X7210097Y-13264283D01*
X7400573Y-13264283D02*
X7419621Y-13264283D01*
X7419621Y-13264283D02*
X7438668Y-13273807D01*
X7438668Y-13273807D02*
X7448192Y-13283331D01*
X7448192Y-13283331D02*
X7457716Y-13302378D01*
X7457716Y-13302378D02*
X7467240Y-13340474D01*
X7467240Y-13340474D02*
X7467240Y-13388093D01*
X7467240Y-13388093D02*
X7457716Y-13426188D01*
X7457716Y-13426188D02*
X7448192Y-13445235D01*
X7448192Y-13445235D02*
X7438668Y-13454759D01*
X7438668Y-13454759D02*
X7419621Y-13464283D01*
X7419621Y-13464283D02*
X7400573Y-13464283D01*
X7400573Y-13464283D02*
X7381525Y-13454759D01*
X7381525Y-13454759D02*
X7372002Y-13445235D01*
X7372002Y-13445235D02*
X7362478Y-13426188D01*
X7362478Y-13426188D02*
X7352954Y-13388093D01*
X7352954Y-13388093D02*
X7352954Y-13340474D01*
X7352954Y-13340474D02*
X7362478Y-13302378D01*
X7362478Y-13302378D02*
X7372002Y-13283331D01*
X7372002Y-13283331D02*
X7381525Y-13273807D01*
X7381525Y-13273807D02*
X7400573Y-13264283D01*
X7552954Y-13464283D02*
X7552954Y-13330950D01*
X7552954Y-13349997D02*
X7562478Y-13340474D01*
X7562478Y-13340474D02*
X7581525Y-13330950D01*
X7581525Y-13330950D02*
X7610097Y-13330950D01*
X7610097Y-13330950D02*
X7629144Y-13340474D01*
X7629144Y-13340474D02*
X7638668Y-13359521D01*
X7638668Y-13359521D02*
X7638668Y-13464283D01*
X7638668Y-13359521D02*
X7648192Y-13340474D01*
X7648192Y-13340474D02*
X7667240Y-13330950D01*
X7667240Y-13330950D02*
X7695811Y-13330950D01*
X7695811Y-13330950D02*
X7714859Y-13340474D01*
X7714859Y-13340474D02*
X7724383Y-13359521D01*
X7724383Y-13359521D02*
X7724383Y-13464283D01*
X7819621Y-13464283D02*
X7819621Y-13330950D01*
X7819621Y-13349997D02*
X7829144Y-13340474D01*
X7829144Y-13340474D02*
X7848192Y-13330950D01*
X7848192Y-13330950D02*
X7876764Y-13330950D01*
X7876764Y-13330950D02*
X7895811Y-13340474D01*
X7895811Y-13340474D02*
X7905335Y-13359521D01*
X7905335Y-13359521D02*
X7905335Y-13464283D01*
X7905335Y-13359521D02*
X7914859Y-13340474D01*
X7914859Y-13340474D02*
X7933906Y-13330950D01*
X7933906Y-13330950D02*
X7962478Y-13330950D01*
X7962478Y-13330950D02*
X7981525Y-13340474D01*
X7981525Y-13340474D02*
X7991049Y-13359521D01*
X7991049Y-13359521D02*
X7991049Y-13464283D01*
X8349144Y-13254759D02*
X8177716Y-13511902D01*
X8573906Y-13264283D02*
X8592954Y-13264283D01*
X8592954Y-13264283D02*
X8612002Y-13273807D01*
X8612002Y-13273807D02*
X8621526Y-13283331D01*
X8621526Y-13283331D02*
X8631049Y-13302378D01*
X8631049Y-13302378D02*
X8640573Y-13340474D01*
X8640573Y-13340474D02*
X8640573Y-13388093D01*
X8640573Y-13388093D02*
X8631049Y-13426188D01*
X8631049Y-13426188D02*
X8621526Y-13445235D01*
X8621526Y-13445235D02*
X8612002Y-13454759D01*
X8612002Y-13454759D02*
X8592954Y-13464283D01*
X8592954Y-13464283D02*
X8573906Y-13464283D01*
X8573906Y-13464283D02*
X8554859Y-13454759D01*
X8554859Y-13454759D02*
X8545335Y-13445235D01*
X8545335Y-13445235D02*
X8535811Y-13426188D01*
X8535811Y-13426188D02*
X8526287Y-13388093D01*
X8526287Y-13388093D02*
X8526287Y-13340474D01*
X8526287Y-13340474D02*
X8535811Y-13302378D01*
X8535811Y-13302378D02*
X8545335Y-13283331D01*
X8545335Y-13283331D02*
X8554859Y-13273807D01*
X8554859Y-13273807D02*
X8573906Y-13264283D01*
X8726287Y-13445235D02*
X8735811Y-13454759D01*
X8735811Y-13454759D02*
X8726287Y-13464283D01*
X8726287Y-13464283D02*
X8716764Y-13454759D01*
X8716764Y-13454759D02*
X8726287Y-13445235D01*
X8726287Y-13445235D02*
X8726287Y-13464283D01*
X8859621Y-13264283D02*
X8878668Y-13264283D01*
X8878668Y-13264283D02*
X8897716Y-13273807D01*
X8897716Y-13273807D02*
X8907240Y-13283331D01*
X8907240Y-13283331D02*
X8916764Y-13302378D01*
X8916764Y-13302378D02*
X8926287Y-13340474D01*
X8926287Y-13340474D02*
X8926287Y-13388093D01*
X8926287Y-13388093D02*
X8916764Y-13426188D01*
X8916764Y-13426188D02*
X8907240Y-13445235D01*
X8907240Y-13445235D02*
X8897716Y-13454759D01*
X8897716Y-13454759D02*
X8878668Y-13464283D01*
X8878668Y-13464283D02*
X8859621Y-13464283D01*
X8859621Y-13464283D02*
X8840573Y-13454759D01*
X8840573Y-13454759D02*
X8831049Y-13445235D01*
X8831049Y-13445235D02*
X8821526Y-13426188D01*
X8821526Y-13426188D02*
X8812002Y-13388093D01*
X8812002Y-13388093D02*
X8812002Y-13340474D01*
X8812002Y-13340474D02*
X8821526Y-13302378D01*
X8821526Y-13302378D02*
X8831049Y-13283331D01*
X8831049Y-13283331D02*
X8840573Y-13273807D01*
X8840573Y-13273807D02*
X8859621Y-13264283D01*
X9097716Y-13330950D02*
X9097716Y-13464283D01*
X9050097Y-13254759D02*
X9002478Y-13397616D01*
X9002478Y-13397616D02*
X9126287Y-13397616D01*
X9183430Y-13264283D02*
X9307240Y-13264283D01*
X9307240Y-13264283D02*
X9240573Y-13340474D01*
X9240573Y-13340474D02*
X9269145Y-13340474D01*
X9269145Y-13340474D02*
X9288192Y-13349997D01*
X9288192Y-13349997D02*
X9297716Y-13359521D01*
X9297716Y-13359521D02*
X9307240Y-13378569D01*
X9307240Y-13378569D02*
X9307240Y-13426188D01*
X9307240Y-13426188D02*
X9297716Y-13445235D01*
X9297716Y-13445235D02*
X9288192Y-13454759D01*
X9288192Y-13454759D02*
X9269145Y-13464283D01*
X9269145Y-13464283D02*
X9212002Y-13464283D01*
X9212002Y-13464283D02*
X9192954Y-13454759D01*
X9192954Y-13454759D02*
X9183430Y-13445235D01*
X9373907Y-13264283D02*
X9497716Y-13264283D01*
X9497716Y-13264283D02*
X9431049Y-13340474D01*
X9431049Y-13340474D02*
X9459621Y-13340474D01*
X9459621Y-13340474D02*
X9478668Y-13349997D01*
X9478668Y-13349997D02*
X9488192Y-13359521D01*
X9488192Y-13359521D02*
X9497716Y-13378569D01*
X9497716Y-13378569D02*
X9497716Y-13426188D01*
X9497716Y-13426188D02*
X9488192Y-13445235D01*
X9488192Y-13445235D02*
X9478668Y-13454759D01*
X9478668Y-13454759D02*
X9459621Y-13464283D01*
X9459621Y-13464283D02*
X9402478Y-13464283D01*
X9402478Y-13464283D02*
X9383430Y-13454759D01*
X9383430Y-13454759D02*
X9373907Y-13445235D01*
X9573907Y-13264283D02*
X9573907Y-13302378D01*
X9650097Y-13264283D02*
X9650097Y-13302378D01*
X9912954Y-13540474D02*
X9903430Y-13530950D01*
X9903430Y-13530950D02*
X9884383Y-13502378D01*
X9884383Y-13502378D02*
X9874859Y-13483331D01*
X9874859Y-13483331D02*
X9865335Y-13454759D01*
X9865335Y-13454759D02*
X9855811Y-13407140D01*
X9855811Y-13407140D02*
X9855811Y-13369045D01*
X9855811Y-13369045D02*
X9865335Y-13321426D01*
X9865335Y-13321426D02*
X9874859Y-13292855D01*
X9874859Y-13292855D02*
X9884383Y-13273807D01*
X9884383Y-13273807D02*
X9903430Y-13245235D01*
X9903430Y-13245235D02*
X9912954Y-13235712D01*
X10074859Y-13330950D02*
X10074859Y-13464283D01*
X10027240Y-13254759D02*
X9979621Y-13397616D01*
X9979621Y-13397616D02*
X10103430Y-13397616D01*
X10299621Y-13464283D02*
X10299621Y-13264283D01*
X10385335Y-13464283D02*
X10385335Y-13359521D01*
X10385335Y-13359521D02*
X10375811Y-13340474D01*
X10375811Y-13340474D02*
X10356764Y-13330950D01*
X10356764Y-13330950D02*
X10328192Y-13330950D01*
X10328192Y-13330950D02*
X10309145Y-13340474D01*
X10309145Y-13340474D02*
X10299621Y-13349997D01*
X10509145Y-13464283D02*
X10490097Y-13454759D01*
X10490097Y-13454759D02*
X10480573Y-13445235D01*
X10480573Y-13445235D02*
X10471049Y-13426188D01*
X10471049Y-13426188D02*
X10471049Y-13369045D01*
X10471049Y-13369045D02*
X10480573Y-13349997D01*
X10480573Y-13349997D02*
X10490097Y-13340474D01*
X10490097Y-13340474D02*
X10509145Y-13330950D01*
X10509145Y-13330950D02*
X10537716Y-13330950D01*
X10537716Y-13330950D02*
X10556764Y-13340474D01*
X10556764Y-13340474D02*
X10566288Y-13349997D01*
X10566288Y-13349997D02*
X10575811Y-13369045D01*
X10575811Y-13369045D02*
X10575811Y-13426188D01*
X10575811Y-13426188D02*
X10566288Y-13445235D01*
X10566288Y-13445235D02*
X10556764Y-13454759D01*
X10556764Y-13454759D02*
X10537716Y-13464283D01*
X10537716Y-13464283D02*
X10509145Y-13464283D01*
X10690097Y-13464283D02*
X10671049Y-13454759D01*
X10671049Y-13454759D02*
X10661526Y-13435712D01*
X10661526Y-13435712D02*
X10661526Y-13264283D01*
X10842478Y-13454759D02*
X10823430Y-13464283D01*
X10823430Y-13464283D02*
X10785335Y-13464283D01*
X10785335Y-13464283D02*
X10766288Y-13454759D01*
X10766288Y-13454759D02*
X10756764Y-13435712D01*
X10756764Y-13435712D02*
X10756764Y-13359521D01*
X10756764Y-13359521D02*
X10766288Y-13340474D01*
X10766288Y-13340474D02*
X10785335Y-13330950D01*
X10785335Y-13330950D02*
X10823430Y-13330950D01*
X10823430Y-13330950D02*
X10842478Y-13340474D01*
X10842478Y-13340474D02*
X10852002Y-13359521D01*
X10852002Y-13359521D02*
X10852002Y-13378569D01*
X10852002Y-13378569D02*
X10756764Y-13397616D01*
X10928192Y-13454759D02*
X10947240Y-13464283D01*
X10947240Y-13464283D02*
X10985335Y-13464283D01*
X10985335Y-13464283D02*
X11004383Y-13454759D01*
X11004383Y-13454759D02*
X11013907Y-13435712D01*
X11013907Y-13435712D02*
X11013907Y-13426188D01*
X11013907Y-13426188D02*
X11004383Y-13407140D01*
X11004383Y-13407140D02*
X10985335Y-13397616D01*
X10985335Y-13397616D02*
X10956764Y-13397616D01*
X10956764Y-13397616D02*
X10937716Y-13388093D01*
X10937716Y-13388093D02*
X10928192Y-13369045D01*
X10928192Y-13369045D02*
X10928192Y-13359521D01*
X10928192Y-13359521D02*
X10937716Y-13340474D01*
X10937716Y-13340474D02*
X10956764Y-13330950D01*
X10956764Y-13330950D02*
X10985335Y-13330950D01*
X10985335Y-13330950D02*
X11004383Y-13340474D01*
X11080573Y-13540474D02*
X11090097Y-13530950D01*
X11090097Y-13530950D02*
X11109145Y-13502378D01*
X11109145Y-13502378D02*
X11118669Y-13483331D01*
X11118669Y-13483331D02*
X11128192Y-13454759D01*
X11128192Y-13454759D02*
X11137716Y-13407140D01*
X11137716Y-13407140D02*
X11137716Y-13369045D01*
X11137716Y-13369045D02*
X11128192Y-13321426D01*
X11128192Y-13321426D02*
X11118669Y-13292855D01*
X11118669Y-13292855D02*
X11109145Y-13273807D01*
X11109145Y-13273807D02*
X11090097Y-13245235D01*
X11090097Y-13245235D02*
X11080573Y-13235712D01*
D15*
X6385692Y-13717307D02*
X6448192Y-13654807D01*
X6385692Y-13592307D01*
X6323192Y-13654807D01*
X6385692Y-13717307D01*
D11*
X6800573Y-13728283D02*
X6686287Y-13728283D01*
X6743430Y-13728283D02*
X6743430Y-13528283D01*
X6743430Y-13528283D02*
X6724382Y-13556855D01*
X6724382Y-13556855D02*
X6705335Y-13575902D01*
X6705335Y-13575902D02*
X6686287Y-13585426D01*
X6886287Y-13709235D02*
X6895811Y-13718759D01*
X6895811Y-13718759D02*
X6886287Y-13728283D01*
X6886287Y-13728283D02*
X6876763Y-13718759D01*
X6876763Y-13718759D02*
X6886287Y-13709235D01*
X6886287Y-13709235D02*
X6886287Y-13728283D01*
X6972002Y-13547331D02*
X6981525Y-13537807D01*
X6981525Y-13537807D02*
X7000573Y-13528283D01*
X7000573Y-13528283D02*
X7048192Y-13528283D01*
X7048192Y-13528283D02*
X7067240Y-13537807D01*
X7067240Y-13537807D02*
X7076763Y-13547331D01*
X7076763Y-13547331D02*
X7086287Y-13566378D01*
X7086287Y-13566378D02*
X7086287Y-13585426D01*
X7086287Y-13585426D02*
X7076763Y-13613997D01*
X7076763Y-13613997D02*
X6962478Y-13728283D01*
X6962478Y-13728283D02*
X7086287Y-13728283D01*
X7267240Y-13528283D02*
X7172002Y-13528283D01*
X7172002Y-13528283D02*
X7162478Y-13623521D01*
X7162478Y-13623521D02*
X7172002Y-13613997D01*
X7172002Y-13613997D02*
X7191049Y-13604474D01*
X7191049Y-13604474D02*
X7238668Y-13604474D01*
X7238668Y-13604474D02*
X7257716Y-13613997D01*
X7257716Y-13613997D02*
X7267240Y-13623521D01*
X7267240Y-13623521D02*
X7276763Y-13642569D01*
X7276763Y-13642569D02*
X7276763Y-13690188D01*
X7276763Y-13690188D02*
X7267240Y-13709235D01*
X7267240Y-13709235D02*
X7257716Y-13718759D01*
X7257716Y-13718759D02*
X7238668Y-13728283D01*
X7238668Y-13728283D02*
X7191049Y-13728283D01*
X7191049Y-13728283D02*
X7172002Y-13718759D01*
X7172002Y-13718759D02*
X7162478Y-13709235D01*
X7400573Y-13528283D02*
X7419621Y-13528283D01*
X7419621Y-13528283D02*
X7438668Y-13537807D01*
X7438668Y-13537807D02*
X7448192Y-13547331D01*
X7448192Y-13547331D02*
X7457716Y-13566378D01*
X7457716Y-13566378D02*
X7467240Y-13604474D01*
X7467240Y-13604474D02*
X7467240Y-13652093D01*
X7467240Y-13652093D02*
X7457716Y-13690188D01*
X7457716Y-13690188D02*
X7448192Y-13709235D01*
X7448192Y-13709235D02*
X7438668Y-13718759D01*
X7438668Y-13718759D02*
X7419621Y-13728283D01*
X7419621Y-13728283D02*
X7400573Y-13728283D01*
X7400573Y-13728283D02*
X7381525Y-13718759D01*
X7381525Y-13718759D02*
X7372002Y-13709235D01*
X7372002Y-13709235D02*
X7362478Y-13690188D01*
X7362478Y-13690188D02*
X7352954Y-13652093D01*
X7352954Y-13652093D02*
X7352954Y-13604474D01*
X7352954Y-13604474D02*
X7362478Y-13566378D01*
X7362478Y-13566378D02*
X7372002Y-13547331D01*
X7372002Y-13547331D02*
X7381525Y-13537807D01*
X7381525Y-13537807D02*
X7400573Y-13528283D01*
X7552954Y-13728283D02*
X7552954Y-13594950D01*
X7552954Y-13613997D02*
X7562478Y-13604474D01*
X7562478Y-13604474D02*
X7581525Y-13594950D01*
X7581525Y-13594950D02*
X7610097Y-13594950D01*
X7610097Y-13594950D02*
X7629144Y-13604474D01*
X7629144Y-13604474D02*
X7638668Y-13623521D01*
X7638668Y-13623521D02*
X7638668Y-13728283D01*
X7638668Y-13623521D02*
X7648192Y-13604474D01*
X7648192Y-13604474D02*
X7667240Y-13594950D01*
X7667240Y-13594950D02*
X7695811Y-13594950D01*
X7695811Y-13594950D02*
X7714859Y-13604474D01*
X7714859Y-13604474D02*
X7724383Y-13623521D01*
X7724383Y-13623521D02*
X7724383Y-13728283D01*
X7819621Y-13728283D02*
X7819621Y-13594950D01*
X7819621Y-13613997D02*
X7829144Y-13604474D01*
X7829144Y-13604474D02*
X7848192Y-13594950D01*
X7848192Y-13594950D02*
X7876764Y-13594950D01*
X7876764Y-13594950D02*
X7895811Y-13604474D01*
X7895811Y-13604474D02*
X7905335Y-13623521D01*
X7905335Y-13623521D02*
X7905335Y-13728283D01*
X7905335Y-13623521D02*
X7914859Y-13604474D01*
X7914859Y-13604474D02*
X7933906Y-13594950D01*
X7933906Y-13594950D02*
X7962478Y-13594950D01*
X7962478Y-13594950D02*
X7981525Y-13604474D01*
X7981525Y-13604474D02*
X7991049Y-13623521D01*
X7991049Y-13623521D02*
X7991049Y-13728283D01*
X8349144Y-13518759D02*
X8177716Y-13775902D01*
X8573906Y-13528283D02*
X8592954Y-13528283D01*
X8592954Y-13528283D02*
X8612002Y-13537807D01*
X8612002Y-13537807D02*
X8621526Y-13547331D01*
X8621526Y-13547331D02*
X8631049Y-13566378D01*
X8631049Y-13566378D02*
X8640573Y-13604474D01*
X8640573Y-13604474D02*
X8640573Y-13652093D01*
X8640573Y-13652093D02*
X8631049Y-13690188D01*
X8631049Y-13690188D02*
X8621526Y-13709235D01*
X8621526Y-13709235D02*
X8612002Y-13718759D01*
X8612002Y-13718759D02*
X8592954Y-13728283D01*
X8592954Y-13728283D02*
X8573906Y-13728283D01*
X8573906Y-13728283D02*
X8554859Y-13718759D01*
X8554859Y-13718759D02*
X8545335Y-13709235D01*
X8545335Y-13709235D02*
X8535811Y-13690188D01*
X8535811Y-13690188D02*
X8526287Y-13652093D01*
X8526287Y-13652093D02*
X8526287Y-13604474D01*
X8526287Y-13604474D02*
X8535811Y-13566378D01*
X8535811Y-13566378D02*
X8545335Y-13547331D01*
X8545335Y-13547331D02*
X8554859Y-13537807D01*
X8554859Y-13537807D02*
X8573906Y-13528283D01*
X8726287Y-13709235D02*
X8735811Y-13718759D01*
X8735811Y-13718759D02*
X8726287Y-13728283D01*
X8726287Y-13728283D02*
X8716764Y-13718759D01*
X8716764Y-13718759D02*
X8726287Y-13709235D01*
X8726287Y-13709235D02*
X8726287Y-13728283D01*
X8859621Y-13528283D02*
X8878668Y-13528283D01*
X8878668Y-13528283D02*
X8897716Y-13537807D01*
X8897716Y-13537807D02*
X8907240Y-13547331D01*
X8907240Y-13547331D02*
X8916764Y-13566378D01*
X8916764Y-13566378D02*
X8926287Y-13604474D01*
X8926287Y-13604474D02*
X8926287Y-13652093D01*
X8926287Y-13652093D02*
X8916764Y-13690188D01*
X8916764Y-13690188D02*
X8907240Y-13709235D01*
X8907240Y-13709235D02*
X8897716Y-13718759D01*
X8897716Y-13718759D02*
X8878668Y-13728283D01*
X8878668Y-13728283D02*
X8859621Y-13728283D01*
X8859621Y-13728283D02*
X8840573Y-13718759D01*
X8840573Y-13718759D02*
X8831049Y-13709235D01*
X8831049Y-13709235D02*
X8821526Y-13690188D01*
X8821526Y-13690188D02*
X8812002Y-13652093D01*
X8812002Y-13652093D02*
X8812002Y-13604474D01*
X8812002Y-13604474D02*
X8821526Y-13566378D01*
X8821526Y-13566378D02*
X8831049Y-13547331D01*
X8831049Y-13547331D02*
X8840573Y-13537807D01*
X8840573Y-13537807D02*
X8859621Y-13528283D01*
X9097716Y-13594950D02*
X9097716Y-13728283D01*
X9050097Y-13518759D02*
X9002478Y-13661616D01*
X9002478Y-13661616D02*
X9126287Y-13661616D01*
X9212002Y-13728283D02*
X9250097Y-13728283D01*
X9250097Y-13728283D02*
X9269145Y-13718759D01*
X9269145Y-13718759D02*
X9278668Y-13709235D01*
X9278668Y-13709235D02*
X9297716Y-13680664D01*
X9297716Y-13680664D02*
X9307240Y-13642569D01*
X9307240Y-13642569D02*
X9307240Y-13566378D01*
X9307240Y-13566378D02*
X9297716Y-13547331D01*
X9297716Y-13547331D02*
X9288192Y-13537807D01*
X9288192Y-13537807D02*
X9269145Y-13528283D01*
X9269145Y-13528283D02*
X9231049Y-13528283D01*
X9231049Y-13528283D02*
X9212002Y-13537807D01*
X9212002Y-13537807D02*
X9202478Y-13547331D01*
X9202478Y-13547331D02*
X9192954Y-13566378D01*
X9192954Y-13566378D02*
X9192954Y-13613997D01*
X9192954Y-13613997D02*
X9202478Y-13633045D01*
X9202478Y-13633045D02*
X9212002Y-13642569D01*
X9212002Y-13642569D02*
X9231049Y-13652093D01*
X9231049Y-13652093D02*
X9269145Y-13652093D01*
X9269145Y-13652093D02*
X9288192Y-13642569D01*
X9288192Y-13642569D02*
X9297716Y-13633045D01*
X9297716Y-13633045D02*
X9307240Y-13613997D01*
X9383430Y-13547331D02*
X9392954Y-13537807D01*
X9392954Y-13537807D02*
X9412002Y-13528283D01*
X9412002Y-13528283D02*
X9459621Y-13528283D01*
X9459621Y-13528283D02*
X9478668Y-13537807D01*
X9478668Y-13537807D02*
X9488192Y-13547331D01*
X9488192Y-13547331D02*
X9497716Y-13566378D01*
X9497716Y-13566378D02*
X9497716Y-13585426D01*
X9497716Y-13585426D02*
X9488192Y-13613997D01*
X9488192Y-13613997D02*
X9373907Y-13728283D01*
X9373907Y-13728283D02*
X9497716Y-13728283D01*
X9573907Y-13528283D02*
X9573907Y-13566378D01*
X9650097Y-13528283D02*
X9650097Y-13566378D01*
X9912954Y-13804474D02*
X9903430Y-13794950D01*
X9903430Y-13794950D02*
X9884383Y-13766378D01*
X9884383Y-13766378D02*
X9874859Y-13747331D01*
X9874859Y-13747331D02*
X9865335Y-13718759D01*
X9865335Y-13718759D02*
X9855811Y-13671140D01*
X9855811Y-13671140D02*
X9855811Y-13633045D01*
X9855811Y-13633045D02*
X9865335Y-13585426D01*
X9865335Y-13585426D02*
X9874859Y-13556855D01*
X9874859Y-13556855D02*
X9884383Y-13537807D01*
X9884383Y-13537807D02*
X9903430Y-13509235D01*
X9903430Y-13509235D02*
X9912954Y-13499712D01*
X10074859Y-13594950D02*
X10074859Y-13728283D01*
X10027240Y-13518759D02*
X9979621Y-13661616D01*
X9979621Y-13661616D02*
X10103430Y-13661616D01*
X10299621Y-13728283D02*
X10299621Y-13528283D01*
X10385335Y-13728283D02*
X10385335Y-13623521D01*
X10385335Y-13623521D02*
X10375811Y-13604474D01*
X10375811Y-13604474D02*
X10356764Y-13594950D01*
X10356764Y-13594950D02*
X10328192Y-13594950D01*
X10328192Y-13594950D02*
X10309145Y-13604474D01*
X10309145Y-13604474D02*
X10299621Y-13613997D01*
X10509145Y-13728283D02*
X10490097Y-13718759D01*
X10490097Y-13718759D02*
X10480573Y-13709235D01*
X10480573Y-13709235D02*
X10471049Y-13690188D01*
X10471049Y-13690188D02*
X10471049Y-13633045D01*
X10471049Y-13633045D02*
X10480573Y-13613997D01*
X10480573Y-13613997D02*
X10490097Y-13604474D01*
X10490097Y-13604474D02*
X10509145Y-13594950D01*
X10509145Y-13594950D02*
X10537716Y-13594950D01*
X10537716Y-13594950D02*
X10556764Y-13604474D01*
X10556764Y-13604474D02*
X10566288Y-13613997D01*
X10566288Y-13613997D02*
X10575811Y-13633045D01*
X10575811Y-13633045D02*
X10575811Y-13690188D01*
X10575811Y-13690188D02*
X10566288Y-13709235D01*
X10566288Y-13709235D02*
X10556764Y-13718759D01*
X10556764Y-13718759D02*
X10537716Y-13728283D01*
X10537716Y-13728283D02*
X10509145Y-13728283D01*
X10690097Y-13728283D02*
X10671049Y-13718759D01*
X10671049Y-13718759D02*
X10661526Y-13699712D01*
X10661526Y-13699712D02*
X10661526Y-13528283D01*
X10842478Y-13718759D02*
X10823430Y-13728283D01*
X10823430Y-13728283D02*
X10785335Y-13728283D01*
X10785335Y-13728283D02*
X10766288Y-13718759D01*
X10766288Y-13718759D02*
X10756764Y-13699712D01*
X10756764Y-13699712D02*
X10756764Y-13623521D01*
X10756764Y-13623521D02*
X10766288Y-13604474D01*
X10766288Y-13604474D02*
X10785335Y-13594950D01*
X10785335Y-13594950D02*
X10823430Y-13594950D01*
X10823430Y-13594950D02*
X10842478Y-13604474D01*
X10842478Y-13604474D02*
X10852002Y-13623521D01*
X10852002Y-13623521D02*
X10852002Y-13642569D01*
X10852002Y-13642569D02*
X10756764Y-13661616D01*
X10928192Y-13718759D02*
X10947240Y-13728283D01*
X10947240Y-13728283D02*
X10985335Y-13728283D01*
X10985335Y-13728283D02*
X11004383Y-13718759D01*
X11004383Y-13718759D02*
X11013907Y-13699712D01*
X11013907Y-13699712D02*
X11013907Y-13690188D01*
X11013907Y-13690188D02*
X11004383Y-13671140D01*
X11004383Y-13671140D02*
X10985335Y-13661616D01*
X10985335Y-13661616D02*
X10956764Y-13661616D01*
X10956764Y-13661616D02*
X10937716Y-13652093D01*
X10937716Y-13652093D02*
X10928192Y-13633045D01*
X10928192Y-13633045D02*
X10928192Y-13623521D01*
X10928192Y-13623521D02*
X10937716Y-13604474D01*
X10937716Y-13604474D02*
X10956764Y-13594950D01*
X10956764Y-13594950D02*
X10985335Y-13594950D01*
X10985335Y-13594950D02*
X11004383Y-13604474D01*
X11080573Y-13804474D02*
X11090097Y-13794950D01*
X11090097Y-13794950D02*
X11109145Y-13766378D01*
X11109145Y-13766378D02*
X11118669Y-13747331D01*
X11118669Y-13747331D02*
X11128192Y-13718759D01*
X11128192Y-13718759D02*
X11137716Y-13671140D01*
X11137716Y-13671140D02*
X11137716Y-13633045D01*
X11137716Y-13633045D02*
X11128192Y-13585426D01*
X11128192Y-13585426D02*
X11118669Y-13556855D01*
X11118669Y-13556855D02*
X11109145Y-13537807D01*
X11109145Y-13537807D02*
X11090097Y-13509235D01*
X11090097Y-13509235D02*
X11080573Y-13499712D01*
D16*
X6318192Y-13853807D02*
X6448192Y-13983807D01*
X6448192Y-13853807D02*
X6318192Y-13983807D01*
X6448192Y-13918807D02*
G75*
G03*
X6448192Y-13918807I-65000J0D01*
G01*
D11*
X6800573Y-13992283D02*
X6686287Y-13992283D01*
X6743430Y-13992283D02*
X6743430Y-13792283D01*
X6743430Y-13792283D02*
X6724382Y-13820855D01*
X6724382Y-13820855D02*
X6705335Y-13839902D01*
X6705335Y-13839902D02*
X6686287Y-13849426D01*
X6886287Y-13973235D02*
X6895811Y-13982759D01*
X6895811Y-13982759D02*
X6886287Y-13992283D01*
X6886287Y-13992283D02*
X6876763Y-13982759D01*
X6876763Y-13982759D02*
X6886287Y-13973235D01*
X6886287Y-13973235D02*
X6886287Y-13992283D01*
X6962478Y-13792283D02*
X7086287Y-13792283D01*
X7086287Y-13792283D02*
X7019621Y-13868474D01*
X7019621Y-13868474D02*
X7048192Y-13868474D01*
X7048192Y-13868474D02*
X7067240Y-13877997D01*
X7067240Y-13877997D02*
X7076763Y-13887521D01*
X7076763Y-13887521D02*
X7086287Y-13906569D01*
X7086287Y-13906569D02*
X7086287Y-13954188D01*
X7086287Y-13954188D02*
X7076763Y-13973235D01*
X7076763Y-13973235D02*
X7067240Y-13982759D01*
X7067240Y-13982759D02*
X7048192Y-13992283D01*
X7048192Y-13992283D02*
X6991049Y-13992283D01*
X6991049Y-13992283D02*
X6972002Y-13982759D01*
X6972002Y-13982759D02*
X6962478Y-13973235D01*
X7210097Y-13792283D02*
X7229144Y-13792283D01*
X7229144Y-13792283D02*
X7248192Y-13801807D01*
X7248192Y-13801807D02*
X7257716Y-13811331D01*
X7257716Y-13811331D02*
X7267240Y-13830378D01*
X7267240Y-13830378D02*
X7276763Y-13868474D01*
X7276763Y-13868474D02*
X7276763Y-13916093D01*
X7276763Y-13916093D02*
X7267240Y-13954188D01*
X7267240Y-13954188D02*
X7257716Y-13973235D01*
X7257716Y-13973235D02*
X7248192Y-13982759D01*
X7248192Y-13982759D02*
X7229144Y-13992283D01*
X7229144Y-13992283D02*
X7210097Y-13992283D01*
X7210097Y-13992283D02*
X7191049Y-13982759D01*
X7191049Y-13982759D02*
X7181525Y-13973235D01*
X7181525Y-13973235D02*
X7172002Y-13954188D01*
X7172002Y-13954188D02*
X7162478Y-13916093D01*
X7162478Y-13916093D02*
X7162478Y-13868474D01*
X7162478Y-13868474D02*
X7172002Y-13830378D01*
X7172002Y-13830378D02*
X7181525Y-13811331D01*
X7181525Y-13811331D02*
X7191049Y-13801807D01*
X7191049Y-13801807D02*
X7210097Y-13792283D01*
X7400573Y-13792283D02*
X7419621Y-13792283D01*
X7419621Y-13792283D02*
X7438668Y-13801807D01*
X7438668Y-13801807D02*
X7448192Y-13811331D01*
X7448192Y-13811331D02*
X7457716Y-13830378D01*
X7457716Y-13830378D02*
X7467240Y-13868474D01*
X7467240Y-13868474D02*
X7467240Y-13916093D01*
X7467240Y-13916093D02*
X7457716Y-13954188D01*
X7457716Y-13954188D02*
X7448192Y-13973235D01*
X7448192Y-13973235D02*
X7438668Y-13982759D01*
X7438668Y-13982759D02*
X7419621Y-13992283D01*
X7419621Y-13992283D02*
X7400573Y-13992283D01*
X7400573Y-13992283D02*
X7381525Y-13982759D01*
X7381525Y-13982759D02*
X7372002Y-13973235D01*
X7372002Y-13973235D02*
X7362478Y-13954188D01*
X7362478Y-13954188D02*
X7352954Y-13916093D01*
X7352954Y-13916093D02*
X7352954Y-13868474D01*
X7352954Y-13868474D02*
X7362478Y-13830378D01*
X7362478Y-13830378D02*
X7372002Y-13811331D01*
X7372002Y-13811331D02*
X7381525Y-13801807D01*
X7381525Y-13801807D02*
X7400573Y-13792283D01*
X7552954Y-13992283D02*
X7552954Y-13858950D01*
X7552954Y-13877997D02*
X7562478Y-13868474D01*
X7562478Y-13868474D02*
X7581525Y-13858950D01*
X7581525Y-13858950D02*
X7610097Y-13858950D01*
X7610097Y-13858950D02*
X7629144Y-13868474D01*
X7629144Y-13868474D02*
X7638668Y-13887521D01*
X7638668Y-13887521D02*
X7638668Y-13992283D01*
X7638668Y-13887521D02*
X7648192Y-13868474D01*
X7648192Y-13868474D02*
X7667240Y-13858950D01*
X7667240Y-13858950D02*
X7695811Y-13858950D01*
X7695811Y-13858950D02*
X7714859Y-13868474D01*
X7714859Y-13868474D02*
X7724383Y-13887521D01*
X7724383Y-13887521D02*
X7724383Y-13992283D01*
X7819621Y-13992283D02*
X7819621Y-13858950D01*
X7819621Y-13877997D02*
X7829144Y-13868474D01*
X7829144Y-13868474D02*
X7848192Y-13858950D01*
X7848192Y-13858950D02*
X7876764Y-13858950D01*
X7876764Y-13858950D02*
X7895811Y-13868474D01*
X7895811Y-13868474D02*
X7905335Y-13887521D01*
X7905335Y-13887521D02*
X7905335Y-13992283D01*
X7905335Y-13887521D02*
X7914859Y-13868474D01*
X7914859Y-13868474D02*
X7933906Y-13858950D01*
X7933906Y-13858950D02*
X7962478Y-13858950D01*
X7962478Y-13858950D02*
X7981525Y-13868474D01*
X7981525Y-13868474D02*
X7991049Y-13887521D01*
X7991049Y-13887521D02*
X7991049Y-13992283D01*
X8349144Y-13782759D02*
X8177716Y-14039902D01*
X8573906Y-13792283D02*
X8592954Y-13792283D01*
X8592954Y-13792283D02*
X8612002Y-13801807D01*
X8612002Y-13801807D02*
X8621526Y-13811331D01*
X8621526Y-13811331D02*
X8631049Y-13830378D01*
X8631049Y-13830378D02*
X8640573Y-13868474D01*
X8640573Y-13868474D02*
X8640573Y-13916093D01*
X8640573Y-13916093D02*
X8631049Y-13954188D01*
X8631049Y-13954188D02*
X8621526Y-13973235D01*
X8621526Y-13973235D02*
X8612002Y-13982759D01*
X8612002Y-13982759D02*
X8592954Y-13992283D01*
X8592954Y-13992283D02*
X8573906Y-13992283D01*
X8573906Y-13992283D02*
X8554859Y-13982759D01*
X8554859Y-13982759D02*
X8545335Y-13973235D01*
X8545335Y-13973235D02*
X8535811Y-13954188D01*
X8535811Y-13954188D02*
X8526287Y-13916093D01*
X8526287Y-13916093D02*
X8526287Y-13868474D01*
X8526287Y-13868474D02*
X8535811Y-13830378D01*
X8535811Y-13830378D02*
X8545335Y-13811331D01*
X8545335Y-13811331D02*
X8554859Y-13801807D01*
X8554859Y-13801807D02*
X8573906Y-13792283D01*
X8726287Y-13973235D02*
X8735811Y-13982759D01*
X8735811Y-13982759D02*
X8726287Y-13992283D01*
X8726287Y-13992283D02*
X8716764Y-13982759D01*
X8716764Y-13982759D02*
X8726287Y-13973235D01*
X8726287Y-13973235D02*
X8726287Y-13992283D01*
X8859621Y-13792283D02*
X8878668Y-13792283D01*
X8878668Y-13792283D02*
X8897716Y-13801807D01*
X8897716Y-13801807D02*
X8907240Y-13811331D01*
X8907240Y-13811331D02*
X8916764Y-13830378D01*
X8916764Y-13830378D02*
X8926287Y-13868474D01*
X8926287Y-13868474D02*
X8926287Y-13916093D01*
X8926287Y-13916093D02*
X8916764Y-13954188D01*
X8916764Y-13954188D02*
X8907240Y-13973235D01*
X8907240Y-13973235D02*
X8897716Y-13982759D01*
X8897716Y-13982759D02*
X8878668Y-13992283D01*
X8878668Y-13992283D02*
X8859621Y-13992283D01*
X8859621Y-13992283D02*
X8840573Y-13982759D01*
X8840573Y-13982759D02*
X8831049Y-13973235D01*
X8831049Y-13973235D02*
X8821526Y-13954188D01*
X8821526Y-13954188D02*
X8812002Y-13916093D01*
X8812002Y-13916093D02*
X8812002Y-13868474D01*
X8812002Y-13868474D02*
X8821526Y-13830378D01*
X8821526Y-13830378D02*
X8831049Y-13811331D01*
X8831049Y-13811331D02*
X8840573Y-13801807D01*
X8840573Y-13801807D02*
X8859621Y-13792283D01*
X9107240Y-13792283D02*
X9012002Y-13792283D01*
X9012002Y-13792283D02*
X9002478Y-13887521D01*
X9002478Y-13887521D02*
X9012002Y-13877997D01*
X9012002Y-13877997D02*
X9031049Y-13868474D01*
X9031049Y-13868474D02*
X9078668Y-13868474D01*
X9078668Y-13868474D02*
X9097716Y-13877997D01*
X9097716Y-13877997D02*
X9107240Y-13887521D01*
X9107240Y-13887521D02*
X9116764Y-13906569D01*
X9116764Y-13906569D02*
X9116764Y-13954188D01*
X9116764Y-13954188D02*
X9107240Y-13973235D01*
X9107240Y-13973235D02*
X9097716Y-13982759D01*
X9097716Y-13982759D02*
X9078668Y-13992283D01*
X9078668Y-13992283D02*
X9031049Y-13992283D01*
X9031049Y-13992283D02*
X9012002Y-13982759D01*
X9012002Y-13982759D02*
X9002478Y-13973235D01*
X9307240Y-13992283D02*
X9192954Y-13992283D01*
X9250097Y-13992283D02*
X9250097Y-13792283D01*
X9250097Y-13792283D02*
X9231049Y-13820855D01*
X9231049Y-13820855D02*
X9212002Y-13839902D01*
X9212002Y-13839902D02*
X9192954Y-13849426D01*
X9383430Y-13811331D02*
X9392954Y-13801807D01*
X9392954Y-13801807D02*
X9412002Y-13792283D01*
X9412002Y-13792283D02*
X9459621Y-13792283D01*
X9459621Y-13792283D02*
X9478668Y-13801807D01*
X9478668Y-13801807D02*
X9488192Y-13811331D01*
X9488192Y-13811331D02*
X9497716Y-13830378D01*
X9497716Y-13830378D02*
X9497716Y-13849426D01*
X9497716Y-13849426D02*
X9488192Y-13877997D01*
X9488192Y-13877997D02*
X9373907Y-13992283D01*
X9373907Y-13992283D02*
X9497716Y-13992283D01*
X9573907Y-13792283D02*
X9573907Y-13830378D01*
X9650097Y-13792283D02*
X9650097Y-13830378D01*
X9912954Y-14068474D02*
X9903430Y-14058950D01*
X9903430Y-14058950D02*
X9884383Y-14030378D01*
X9884383Y-14030378D02*
X9874859Y-14011331D01*
X9874859Y-14011331D02*
X9865335Y-13982759D01*
X9865335Y-13982759D02*
X9855811Y-13935140D01*
X9855811Y-13935140D02*
X9855811Y-13897045D01*
X9855811Y-13897045D02*
X9865335Y-13849426D01*
X9865335Y-13849426D02*
X9874859Y-13820855D01*
X9874859Y-13820855D02*
X9884383Y-13801807D01*
X9884383Y-13801807D02*
X9903430Y-13773235D01*
X9903430Y-13773235D02*
X9912954Y-13763712D01*
X10093907Y-13992283D02*
X9979621Y-13992283D01*
X10036764Y-13992283D02*
X10036764Y-13792283D01*
X10036764Y-13792283D02*
X10017716Y-13820855D01*
X10017716Y-13820855D02*
X9998668Y-13839902D01*
X9998668Y-13839902D02*
X9979621Y-13849426D01*
X10170097Y-13811331D02*
X10179621Y-13801807D01*
X10179621Y-13801807D02*
X10198668Y-13792283D01*
X10198668Y-13792283D02*
X10246288Y-13792283D01*
X10246288Y-13792283D02*
X10265335Y-13801807D01*
X10265335Y-13801807D02*
X10274859Y-13811331D01*
X10274859Y-13811331D02*
X10284383Y-13830378D01*
X10284383Y-13830378D02*
X10284383Y-13849426D01*
X10284383Y-13849426D02*
X10274859Y-13877997D01*
X10274859Y-13877997D02*
X10160573Y-13992283D01*
X10160573Y-13992283D02*
X10284383Y-13992283D01*
X10490097Y-13992283D02*
X10490097Y-13792283D01*
X10575811Y-13992283D02*
X10575811Y-13887521D01*
X10575811Y-13887521D02*
X10566288Y-13868474D01*
X10566288Y-13868474D02*
X10547240Y-13858950D01*
X10547240Y-13858950D02*
X10518668Y-13858950D01*
X10518668Y-13858950D02*
X10499621Y-13868474D01*
X10499621Y-13868474D02*
X10490097Y-13877997D01*
X10699621Y-13992283D02*
X10680573Y-13982759D01*
X10680573Y-13982759D02*
X10671049Y-13973235D01*
X10671049Y-13973235D02*
X10661526Y-13954188D01*
X10661526Y-13954188D02*
X10661526Y-13897045D01*
X10661526Y-13897045D02*
X10671049Y-13877997D01*
X10671049Y-13877997D02*
X10680573Y-13868474D01*
X10680573Y-13868474D02*
X10699621Y-13858950D01*
X10699621Y-13858950D02*
X10728192Y-13858950D01*
X10728192Y-13858950D02*
X10747240Y-13868474D01*
X10747240Y-13868474D02*
X10756764Y-13877997D01*
X10756764Y-13877997D02*
X10766288Y-13897045D01*
X10766288Y-13897045D02*
X10766288Y-13954188D01*
X10766288Y-13954188D02*
X10756764Y-13973235D01*
X10756764Y-13973235D02*
X10747240Y-13982759D01*
X10747240Y-13982759D02*
X10728192Y-13992283D01*
X10728192Y-13992283D02*
X10699621Y-13992283D01*
X10880573Y-13992283D02*
X10861526Y-13982759D01*
X10861526Y-13982759D02*
X10852002Y-13963712D01*
X10852002Y-13963712D02*
X10852002Y-13792283D01*
X11032954Y-13982759D02*
X11013907Y-13992283D01*
X11013907Y-13992283D02*
X10975811Y-13992283D01*
X10975811Y-13992283D02*
X10956764Y-13982759D01*
X10956764Y-13982759D02*
X10947240Y-13963712D01*
X10947240Y-13963712D02*
X10947240Y-13887521D01*
X10947240Y-13887521D02*
X10956764Y-13868474D01*
X10956764Y-13868474D02*
X10975811Y-13858950D01*
X10975811Y-13858950D02*
X11013907Y-13858950D01*
X11013907Y-13858950D02*
X11032954Y-13868474D01*
X11032954Y-13868474D02*
X11042478Y-13887521D01*
X11042478Y-13887521D02*
X11042478Y-13906569D01*
X11042478Y-13906569D02*
X10947240Y-13925616D01*
X11118669Y-13982759D02*
X11137716Y-13992283D01*
X11137716Y-13992283D02*
X11175811Y-13992283D01*
X11175811Y-13992283D02*
X11194859Y-13982759D01*
X11194859Y-13982759D02*
X11204383Y-13963712D01*
X11204383Y-13963712D02*
X11204383Y-13954188D01*
X11204383Y-13954188D02*
X11194859Y-13935140D01*
X11194859Y-13935140D02*
X11175811Y-13925616D01*
X11175811Y-13925616D02*
X11147240Y-13925616D01*
X11147240Y-13925616D02*
X11128192Y-13916093D01*
X11128192Y-13916093D02*
X11118669Y-13897045D01*
X11118669Y-13897045D02*
X11118669Y-13887521D01*
X11118669Y-13887521D02*
X11128192Y-13868474D01*
X11128192Y-13868474D02*
X11147240Y-13858950D01*
X11147240Y-13858950D02*
X11175811Y-13858950D01*
X11175811Y-13858950D02*
X11194859Y-13868474D01*
X11410097Y-13916093D02*
X11562478Y-13916093D01*
X11486288Y-13992283D02*
X11486288Y-13839902D01*
X11787240Y-13992283D02*
X11825335Y-13992283D01*
X11825335Y-13992283D02*
X11844383Y-13982759D01*
X11844383Y-13982759D02*
X11853907Y-13973235D01*
X11853907Y-13973235D02*
X11872954Y-13944664D01*
X11872954Y-13944664D02*
X11882478Y-13906569D01*
X11882478Y-13906569D02*
X11882478Y-13830378D01*
X11882478Y-13830378D02*
X11872954Y-13811331D01*
X11872954Y-13811331D02*
X11863430Y-13801807D01*
X11863430Y-13801807D02*
X11844383Y-13792283D01*
X11844383Y-13792283D02*
X11806287Y-13792283D01*
X11806287Y-13792283D02*
X11787240Y-13801807D01*
X11787240Y-13801807D02*
X11777716Y-13811331D01*
X11777716Y-13811331D02*
X11768192Y-13830378D01*
X11768192Y-13830378D02*
X11768192Y-13877997D01*
X11768192Y-13877997D02*
X11777716Y-13897045D01*
X11777716Y-13897045D02*
X11787240Y-13906569D01*
X11787240Y-13906569D02*
X11806287Y-13916093D01*
X11806287Y-13916093D02*
X11844383Y-13916093D01*
X11844383Y-13916093D02*
X11863430Y-13906569D01*
X11863430Y-13906569D02*
X11872954Y-13897045D01*
X11872954Y-13897045D02*
X11882478Y-13877997D01*
X12078668Y-13982759D02*
X12097716Y-13992283D01*
X12097716Y-13992283D02*
X12135811Y-13992283D01*
X12135811Y-13992283D02*
X12154859Y-13982759D01*
X12154859Y-13982759D02*
X12164383Y-13963712D01*
X12164383Y-13963712D02*
X12164383Y-13954188D01*
X12164383Y-13954188D02*
X12154859Y-13935140D01*
X12154859Y-13935140D02*
X12135811Y-13925616D01*
X12135811Y-13925616D02*
X12107240Y-13925616D01*
X12107240Y-13925616D02*
X12088192Y-13916093D01*
X12088192Y-13916093D02*
X12078668Y-13897045D01*
X12078668Y-13897045D02*
X12078668Y-13887521D01*
X12078668Y-13887521D02*
X12088192Y-13868474D01*
X12088192Y-13868474D02*
X12107240Y-13858950D01*
X12107240Y-13858950D02*
X12135811Y-13858950D01*
X12135811Y-13858950D02*
X12154859Y-13868474D01*
X12278668Y-13992283D02*
X12259621Y-13982759D01*
X12259621Y-13982759D02*
X12250097Y-13963712D01*
X12250097Y-13963712D02*
X12250097Y-13792283D01*
X12383430Y-13992283D02*
X12364383Y-13982759D01*
X12364383Y-13982759D02*
X12354859Y-13973235D01*
X12354859Y-13973235D02*
X12345335Y-13954188D01*
X12345335Y-13954188D02*
X12345335Y-13897045D01*
X12345335Y-13897045D02*
X12354859Y-13877997D01*
X12354859Y-13877997D02*
X12364383Y-13868474D01*
X12364383Y-13868474D02*
X12383430Y-13858950D01*
X12383430Y-13858950D02*
X12412002Y-13858950D01*
X12412002Y-13858950D02*
X12431049Y-13868474D01*
X12431049Y-13868474D02*
X12440573Y-13877997D01*
X12440573Y-13877997D02*
X12450097Y-13897045D01*
X12450097Y-13897045D02*
X12450097Y-13954188D01*
X12450097Y-13954188D02*
X12440573Y-13973235D01*
X12440573Y-13973235D02*
X12431049Y-13982759D01*
X12431049Y-13982759D02*
X12412002Y-13992283D01*
X12412002Y-13992283D02*
X12383430Y-13992283D01*
X12507240Y-13858950D02*
X12583430Y-13858950D01*
X12535811Y-13792283D02*
X12535811Y-13963712D01*
X12535811Y-13963712D02*
X12545335Y-13982759D01*
X12545335Y-13982759D02*
X12564383Y-13992283D01*
X12564383Y-13992283D02*
X12583430Y-13992283D01*
X12640573Y-13982759D02*
X12659621Y-13992283D01*
X12659621Y-13992283D02*
X12697716Y-13992283D01*
X12697716Y-13992283D02*
X12716764Y-13982759D01*
X12716764Y-13982759D02*
X12726288Y-13963712D01*
X12726288Y-13963712D02*
X12726288Y-13954188D01*
X12726288Y-13954188D02*
X12716764Y-13935140D01*
X12716764Y-13935140D02*
X12697716Y-13925616D01*
X12697716Y-13925616D02*
X12669145Y-13925616D01*
X12669145Y-13925616D02*
X12650097Y-13916093D01*
X12650097Y-13916093D02*
X12640573Y-13897045D01*
X12640573Y-13897045D02*
X12640573Y-13887521D01*
X12640573Y-13887521D02*
X12650097Y-13868474D01*
X12650097Y-13868474D02*
X12669145Y-13858950D01*
X12669145Y-13858950D02*
X12697716Y-13858950D01*
X12697716Y-13858950D02*
X12716764Y-13868474D01*
X12792954Y-14068474D02*
X12802478Y-14058950D01*
X12802478Y-14058950D02*
X12821526Y-14030378D01*
X12821526Y-14030378D02*
X12831049Y-14011331D01*
X12831049Y-14011331D02*
X12840573Y-13982759D01*
X12840573Y-13982759D02*
X12850097Y-13935140D01*
X12850097Y-13935140D02*
X12850097Y-13897045D01*
X12850097Y-13897045D02*
X12840573Y-13849426D01*
X12840573Y-13849426D02*
X12831049Y-13820855D01*
X12831049Y-13820855D02*
X12821526Y-13801807D01*
X12821526Y-13801807D02*
X12802478Y-13773235D01*
X12802478Y-13773235D02*
X12792954Y-13763712D01*
D17*
X6294192Y-14105807D02*
X6448192Y-14259807D01*
X6448192Y-14105807D02*
X6294192Y-14259807D01*
X6371192Y-14105807D02*
X6371192Y-14259807D01*
X6294192Y-14182807D02*
X6448192Y-14182807D01*
D11*
X6800573Y-14256283D02*
X6686287Y-14256283D01*
X6743430Y-14256283D02*
X6743430Y-14056283D01*
X6743430Y-14056283D02*
X6724382Y-14084855D01*
X6724382Y-14084855D02*
X6705335Y-14103902D01*
X6705335Y-14103902D02*
X6686287Y-14113426D01*
X6886287Y-14237235D02*
X6895811Y-14246759D01*
X6895811Y-14246759D02*
X6886287Y-14256283D01*
X6886287Y-14256283D02*
X6876763Y-14246759D01*
X6876763Y-14246759D02*
X6886287Y-14237235D01*
X6886287Y-14237235D02*
X6886287Y-14256283D01*
X7076763Y-14056283D02*
X6981525Y-14056283D01*
X6981525Y-14056283D02*
X6972002Y-14151521D01*
X6972002Y-14151521D02*
X6981525Y-14141997D01*
X6981525Y-14141997D02*
X7000573Y-14132474D01*
X7000573Y-14132474D02*
X7048192Y-14132474D01*
X7048192Y-14132474D02*
X7067240Y-14141997D01*
X7067240Y-14141997D02*
X7076763Y-14151521D01*
X7076763Y-14151521D02*
X7086287Y-14170569D01*
X7086287Y-14170569D02*
X7086287Y-14218188D01*
X7086287Y-14218188D02*
X7076763Y-14237235D01*
X7076763Y-14237235D02*
X7067240Y-14246759D01*
X7067240Y-14246759D02*
X7048192Y-14256283D01*
X7048192Y-14256283D02*
X7000573Y-14256283D01*
X7000573Y-14256283D02*
X6981525Y-14246759D01*
X6981525Y-14246759D02*
X6972002Y-14237235D01*
X7257716Y-14122950D02*
X7257716Y-14256283D01*
X7210097Y-14046759D02*
X7162478Y-14189616D01*
X7162478Y-14189616D02*
X7286287Y-14189616D01*
X7400573Y-14056283D02*
X7419621Y-14056283D01*
X7419621Y-14056283D02*
X7438668Y-14065807D01*
X7438668Y-14065807D02*
X7448192Y-14075331D01*
X7448192Y-14075331D02*
X7457716Y-14094378D01*
X7457716Y-14094378D02*
X7467240Y-14132474D01*
X7467240Y-14132474D02*
X7467240Y-14180093D01*
X7467240Y-14180093D02*
X7457716Y-14218188D01*
X7457716Y-14218188D02*
X7448192Y-14237235D01*
X7448192Y-14237235D02*
X7438668Y-14246759D01*
X7438668Y-14246759D02*
X7419621Y-14256283D01*
X7419621Y-14256283D02*
X7400573Y-14256283D01*
X7400573Y-14256283D02*
X7381525Y-14246759D01*
X7381525Y-14246759D02*
X7372002Y-14237235D01*
X7372002Y-14237235D02*
X7362478Y-14218188D01*
X7362478Y-14218188D02*
X7352954Y-14180093D01*
X7352954Y-14180093D02*
X7352954Y-14132474D01*
X7352954Y-14132474D02*
X7362478Y-14094378D01*
X7362478Y-14094378D02*
X7372002Y-14075331D01*
X7372002Y-14075331D02*
X7381525Y-14065807D01*
X7381525Y-14065807D02*
X7400573Y-14056283D01*
X7552954Y-14256283D02*
X7552954Y-14122950D01*
X7552954Y-14141997D02*
X7562478Y-14132474D01*
X7562478Y-14132474D02*
X7581525Y-14122950D01*
X7581525Y-14122950D02*
X7610097Y-14122950D01*
X7610097Y-14122950D02*
X7629144Y-14132474D01*
X7629144Y-14132474D02*
X7638668Y-14151521D01*
X7638668Y-14151521D02*
X7638668Y-14256283D01*
X7638668Y-14151521D02*
X7648192Y-14132474D01*
X7648192Y-14132474D02*
X7667240Y-14122950D01*
X7667240Y-14122950D02*
X7695811Y-14122950D01*
X7695811Y-14122950D02*
X7714859Y-14132474D01*
X7714859Y-14132474D02*
X7724383Y-14151521D01*
X7724383Y-14151521D02*
X7724383Y-14256283D01*
X7819621Y-14256283D02*
X7819621Y-14122950D01*
X7819621Y-14141997D02*
X7829144Y-14132474D01*
X7829144Y-14132474D02*
X7848192Y-14122950D01*
X7848192Y-14122950D02*
X7876764Y-14122950D01*
X7876764Y-14122950D02*
X7895811Y-14132474D01*
X7895811Y-14132474D02*
X7905335Y-14151521D01*
X7905335Y-14151521D02*
X7905335Y-14256283D01*
X7905335Y-14151521D02*
X7914859Y-14132474D01*
X7914859Y-14132474D02*
X7933906Y-14122950D01*
X7933906Y-14122950D02*
X7962478Y-14122950D01*
X7962478Y-14122950D02*
X7981525Y-14132474D01*
X7981525Y-14132474D02*
X7991049Y-14151521D01*
X7991049Y-14151521D02*
X7991049Y-14256283D01*
X8349144Y-14046759D02*
X8177716Y-14303902D01*
X8573906Y-14056283D02*
X8592954Y-14056283D01*
X8592954Y-14056283D02*
X8612002Y-14065807D01*
X8612002Y-14065807D02*
X8621526Y-14075331D01*
X8621526Y-14075331D02*
X8631049Y-14094378D01*
X8631049Y-14094378D02*
X8640573Y-14132474D01*
X8640573Y-14132474D02*
X8640573Y-14180093D01*
X8640573Y-14180093D02*
X8631049Y-14218188D01*
X8631049Y-14218188D02*
X8621526Y-14237235D01*
X8621526Y-14237235D02*
X8612002Y-14246759D01*
X8612002Y-14246759D02*
X8592954Y-14256283D01*
X8592954Y-14256283D02*
X8573906Y-14256283D01*
X8573906Y-14256283D02*
X8554859Y-14246759D01*
X8554859Y-14246759D02*
X8545335Y-14237235D01*
X8545335Y-14237235D02*
X8535811Y-14218188D01*
X8535811Y-14218188D02*
X8526287Y-14180093D01*
X8526287Y-14180093D02*
X8526287Y-14132474D01*
X8526287Y-14132474D02*
X8535811Y-14094378D01*
X8535811Y-14094378D02*
X8545335Y-14075331D01*
X8545335Y-14075331D02*
X8554859Y-14065807D01*
X8554859Y-14065807D02*
X8573906Y-14056283D01*
X8726287Y-14237235D02*
X8735811Y-14246759D01*
X8735811Y-14246759D02*
X8726287Y-14256283D01*
X8726287Y-14256283D02*
X8716764Y-14246759D01*
X8716764Y-14246759D02*
X8726287Y-14237235D01*
X8726287Y-14237235D02*
X8726287Y-14256283D01*
X8859621Y-14056283D02*
X8878668Y-14056283D01*
X8878668Y-14056283D02*
X8897716Y-14065807D01*
X8897716Y-14065807D02*
X8907240Y-14075331D01*
X8907240Y-14075331D02*
X8916764Y-14094378D01*
X8916764Y-14094378D02*
X8926287Y-14132474D01*
X8926287Y-14132474D02*
X8926287Y-14180093D01*
X8926287Y-14180093D02*
X8916764Y-14218188D01*
X8916764Y-14218188D02*
X8907240Y-14237235D01*
X8907240Y-14237235D02*
X8897716Y-14246759D01*
X8897716Y-14246759D02*
X8878668Y-14256283D01*
X8878668Y-14256283D02*
X8859621Y-14256283D01*
X8859621Y-14256283D02*
X8840573Y-14246759D01*
X8840573Y-14246759D02*
X8831049Y-14237235D01*
X8831049Y-14237235D02*
X8821526Y-14218188D01*
X8821526Y-14218188D02*
X8812002Y-14180093D01*
X8812002Y-14180093D02*
X8812002Y-14132474D01*
X8812002Y-14132474D02*
X8821526Y-14094378D01*
X8821526Y-14094378D02*
X8831049Y-14075331D01*
X8831049Y-14075331D02*
X8840573Y-14065807D01*
X8840573Y-14065807D02*
X8859621Y-14056283D01*
X9097716Y-14056283D02*
X9059621Y-14056283D01*
X9059621Y-14056283D02*
X9040573Y-14065807D01*
X9040573Y-14065807D02*
X9031049Y-14075331D01*
X9031049Y-14075331D02*
X9012002Y-14103902D01*
X9012002Y-14103902D02*
X9002478Y-14141997D01*
X9002478Y-14141997D02*
X9002478Y-14218188D01*
X9002478Y-14218188D02*
X9012002Y-14237235D01*
X9012002Y-14237235D02*
X9021526Y-14246759D01*
X9021526Y-14246759D02*
X9040573Y-14256283D01*
X9040573Y-14256283D02*
X9078668Y-14256283D01*
X9078668Y-14256283D02*
X9097716Y-14246759D01*
X9097716Y-14246759D02*
X9107240Y-14237235D01*
X9107240Y-14237235D02*
X9116764Y-14218188D01*
X9116764Y-14218188D02*
X9116764Y-14170569D01*
X9116764Y-14170569D02*
X9107240Y-14151521D01*
X9107240Y-14151521D02*
X9097716Y-14141997D01*
X9097716Y-14141997D02*
X9078668Y-14132474D01*
X9078668Y-14132474D02*
X9040573Y-14132474D01*
X9040573Y-14132474D02*
X9021526Y-14141997D01*
X9021526Y-14141997D02*
X9012002Y-14151521D01*
X9012002Y-14151521D02*
X9002478Y-14170569D01*
X9240573Y-14056283D02*
X9259621Y-14056283D01*
X9259621Y-14056283D02*
X9278668Y-14065807D01*
X9278668Y-14065807D02*
X9288192Y-14075331D01*
X9288192Y-14075331D02*
X9297716Y-14094378D01*
X9297716Y-14094378D02*
X9307240Y-14132474D01*
X9307240Y-14132474D02*
X9307240Y-14180093D01*
X9307240Y-14180093D02*
X9297716Y-14218188D01*
X9297716Y-14218188D02*
X9288192Y-14237235D01*
X9288192Y-14237235D02*
X9278668Y-14246759D01*
X9278668Y-14246759D02*
X9259621Y-14256283D01*
X9259621Y-14256283D02*
X9240573Y-14256283D01*
X9240573Y-14256283D02*
X9221526Y-14246759D01*
X9221526Y-14246759D02*
X9212002Y-14237235D01*
X9212002Y-14237235D02*
X9202478Y-14218188D01*
X9202478Y-14218188D02*
X9192954Y-14180093D01*
X9192954Y-14180093D02*
X9192954Y-14132474D01*
X9192954Y-14132474D02*
X9202478Y-14094378D01*
X9202478Y-14094378D02*
X9212002Y-14075331D01*
X9212002Y-14075331D02*
X9221526Y-14065807D01*
X9221526Y-14065807D02*
X9240573Y-14056283D01*
X9478668Y-14056283D02*
X9440573Y-14056283D01*
X9440573Y-14056283D02*
X9421526Y-14065807D01*
X9421526Y-14065807D02*
X9412002Y-14075331D01*
X9412002Y-14075331D02*
X9392954Y-14103902D01*
X9392954Y-14103902D02*
X9383430Y-14141997D01*
X9383430Y-14141997D02*
X9383430Y-14218188D01*
X9383430Y-14218188D02*
X9392954Y-14237235D01*
X9392954Y-14237235D02*
X9402478Y-14246759D01*
X9402478Y-14246759D02*
X9421526Y-14256283D01*
X9421526Y-14256283D02*
X9459621Y-14256283D01*
X9459621Y-14256283D02*
X9478668Y-14246759D01*
X9478668Y-14246759D02*
X9488192Y-14237235D01*
X9488192Y-14237235D02*
X9497716Y-14218188D01*
X9497716Y-14218188D02*
X9497716Y-14170569D01*
X9497716Y-14170569D02*
X9488192Y-14151521D01*
X9488192Y-14151521D02*
X9478668Y-14141997D01*
X9478668Y-14141997D02*
X9459621Y-14132474D01*
X9459621Y-14132474D02*
X9421526Y-14132474D01*
X9421526Y-14132474D02*
X9402478Y-14141997D01*
X9402478Y-14141997D02*
X9392954Y-14151521D01*
X9392954Y-14151521D02*
X9383430Y-14170569D01*
X9573907Y-14056283D02*
X9573907Y-14094378D01*
X9650097Y-14056283D02*
X9650097Y-14094378D01*
X9912954Y-14332474D02*
X9903430Y-14322950D01*
X9903430Y-14322950D02*
X9884383Y-14294378D01*
X9884383Y-14294378D02*
X9874859Y-14275331D01*
X9874859Y-14275331D02*
X9865335Y-14246759D01*
X9865335Y-14246759D02*
X9855811Y-14199140D01*
X9855811Y-14199140D02*
X9855811Y-14161045D01*
X9855811Y-14161045D02*
X9865335Y-14113426D01*
X9865335Y-14113426D02*
X9874859Y-14084855D01*
X9874859Y-14084855D02*
X9884383Y-14065807D01*
X9884383Y-14065807D02*
X9903430Y-14037235D01*
X9903430Y-14037235D02*
X9912954Y-14027712D01*
X10074859Y-14056283D02*
X10036764Y-14056283D01*
X10036764Y-14056283D02*
X10017716Y-14065807D01*
X10017716Y-14065807D02*
X10008192Y-14075331D01*
X10008192Y-14075331D02*
X9989145Y-14103902D01*
X9989145Y-14103902D02*
X9979621Y-14141997D01*
X9979621Y-14141997D02*
X9979621Y-14218188D01*
X9979621Y-14218188D02*
X9989145Y-14237235D01*
X9989145Y-14237235D02*
X9998668Y-14246759D01*
X9998668Y-14246759D02*
X10017716Y-14256283D01*
X10017716Y-14256283D02*
X10055811Y-14256283D01*
X10055811Y-14256283D02*
X10074859Y-14246759D01*
X10074859Y-14246759D02*
X10084383Y-14237235D01*
X10084383Y-14237235D02*
X10093907Y-14218188D01*
X10093907Y-14218188D02*
X10093907Y-14170569D01*
X10093907Y-14170569D02*
X10084383Y-14151521D01*
X10084383Y-14151521D02*
X10074859Y-14141997D01*
X10074859Y-14141997D02*
X10055811Y-14132474D01*
X10055811Y-14132474D02*
X10017716Y-14132474D01*
X10017716Y-14132474D02*
X9998668Y-14141997D01*
X9998668Y-14141997D02*
X9989145Y-14151521D01*
X9989145Y-14151521D02*
X9979621Y-14170569D01*
X10299621Y-14256283D02*
X10299621Y-14056283D01*
X10385335Y-14256283D02*
X10385335Y-14151521D01*
X10385335Y-14151521D02*
X10375811Y-14132474D01*
X10375811Y-14132474D02*
X10356764Y-14122950D01*
X10356764Y-14122950D02*
X10328192Y-14122950D01*
X10328192Y-14122950D02*
X10309145Y-14132474D01*
X10309145Y-14132474D02*
X10299621Y-14141997D01*
X10509145Y-14256283D02*
X10490097Y-14246759D01*
X10490097Y-14246759D02*
X10480573Y-14237235D01*
X10480573Y-14237235D02*
X10471049Y-14218188D01*
X10471049Y-14218188D02*
X10471049Y-14161045D01*
X10471049Y-14161045D02*
X10480573Y-14141997D01*
X10480573Y-14141997D02*
X10490097Y-14132474D01*
X10490097Y-14132474D02*
X10509145Y-14122950D01*
X10509145Y-14122950D02*
X10537716Y-14122950D01*
X10537716Y-14122950D02*
X10556764Y-14132474D01*
X10556764Y-14132474D02*
X10566288Y-14141997D01*
X10566288Y-14141997D02*
X10575811Y-14161045D01*
X10575811Y-14161045D02*
X10575811Y-14218188D01*
X10575811Y-14218188D02*
X10566288Y-14237235D01*
X10566288Y-14237235D02*
X10556764Y-14246759D01*
X10556764Y-14246759D02*
X10537716Y-14256283D01*
X10537716Y-14256283D02*
X10509145Y-14256283D01*
X10690097Y-14256283D02*
X10671049Y-14246759D01*
X10671049Y-14246759D02*
X10661526Y-14227712D01*
X10661526Y-14227712D02*
X10661526Y-14056283D01*
X10842478Y-14246759D02*
X10823430Y-14256283D01*
X10823430Y-14256283D02*
X10785335Y-14256283D01*
X10785335Y-14256283D02*
X10766288Y-14246759D01*
X10766288Y-14246759D02*
X10756764Y-14227712D01*
X10756764Y-14227712D02*
X10756764Y-14151521D01*
X10756764Y-14151521D02*
X10766288Y-14132474D01*
X10766288Y-14132474D02*
X10785335Y-14122950D01*
X10785335Y-14122950D02*
X10823430Y-14122950D01*
X10823430Y-14122950D02*
X10842478Y-14132474D01*
X10842478Y-14132474D02*
X10852002Y-14151521D01*
X10852002Y-14151521D02*
X10852002Y-14170569D01*
X10852002Y-14170569D02*
X10756764Y-14189616D01*
X10928192Y-14246759D02*
X10947240Y-14256283D01*
X10947240Y-14256283D02*
X10985335Y-14256283D01*
X10985335Y-14256283D02*
X11004383Y-14246759D01*
X11004383Y-14246759D02*
X11013907Y-14227712D01*
X11013907Y-14227712D02*
X11013907Y-14218188D01*
X11013907Y-14218188D02*
X11004383Y-14199140D01*
X11004383Y-14199140D02*
X10985335Y-14189616D01*
X10985335Y-14189616D02*
X10956764Y-14189616D01*
X10956764Y-14189616D02*
X10937716Y-14180093D01*
X10937716Y-14180093D02*
X10928192Y-14161045D01*
X10928192Y-14161045D02*
X10928192Y-14151521D01*
X10928192Y-14151521D02*
X10937716Y-14132474D01*
X10937716Y-14132474D02*
X10956764Y-14122950D01*
X10956764Y-14122950D02*
X10985335Y-14122950D01*
X10985335Y-14122950D02*
X11004383Y-14132474D01*
X11080573Y-14332474D02*
X11090097Y-14322950D01*
X11090097Y-14322950D02*
X11109145Y-14294378D01*
X11109145Y-14294378D02*
X11118669Y-14275331D01*
X11118669Y-14275331D02*
X11128192Y-14246759D01*
X11128192Y-14246759D02*
X11137716Y-14199140D01*
X11137716Y-14199140D02*
X11137716Y-14161045D01*
X11137716Y-14161045D02*
X11128192Y-14113426D01*
X11128192Y-14113426D02*
X11118669Y-14084855D01*
X11118669Y-14084855D02*
X11109145Y-14065807D01*
X11109145Y-14065807D02*
X11090097Y-14037235D01*
X11090097Y-14037235D02*
X11080573Y-14027712D01*
M02*
