%TF.GenerationSoftware,KiCad,Pcbnew,(7.99.0-200-gad838e3d73)*%
%TF.CreationDate,2024-03-11T18:46:40+07:00*%
%TF.ProjectId,WMS,574d532e-6b69-4636-9164-5f7063625858,rev?*%
%TF.SameCoordinates,Original*%
%TF.FileFunction,Paste,Top*%
%TF.FilePolarity,Positive*%
%FSLAX46Y46*%
G04 Gerber Fmt 4.6, Leading zero omitted, Abs format (unit mm)*
G04 Created by KiCad (PCBNEW (7.99.0-200-gad838e3d73)) date 2024-03-11 18:46:40*
%MOMM*%
%LPD*%
G01*
G04 APERTURE LIST*
G04 Aperture macros list*
%AMRoundRect*
0 Rectangle with rounded corners*
0 $1 Rounding radius*
0 $2 $3 $4 $5 $6 $7 $8 $9 X,Y pos of 4 corners*
0 Add a 4 corners polygon primitive as box body*
4,1,4,$2,$3,$4,$5,$6,$7,$8,$9,$2,$3,0*
0 Add four circle primitives for the rounded corners*
1,1,$1+$1,$2,$3*
1,1,$1+$1,$4,$5*
1,1,$1+$1,$6,$7*
1,1,$1+$1,$8,$9*
0 Add four rect primitives between the rounded corners*
20,1,$1+$1,$2,$3,$4,$5,0*
20,1,$1+$1,$4,$5,$6,$7,0*
20,1,$1+$1,$6,$7,$8,$9,0*
20,1,$1+$1,$8,$9,$2,$3,0*%
G04 Aperture macros list end*
%ADD10R,7.340000X6.350000*%
%ADD11RoundRect,0.250000X-0.262500X-0.450000X0.262500X-0.450000X0.262500X0.450000X-0.262500X0.450000X0*%
%ADD12R,2.000000X2.000000*%
%ADD13RoundRect,0.250000X0.262500X0.450000X-0.262500X0.450000X-0.262500X-0.450000X0.262500X-0.450000X0*%
%ADD14R,1.100000X0.300000*%
%ADD15R,3.100000X2.300000*%
%ADD16RoundRect,0.150000X-0.150000X-0.625000X0.150000X-0.625000X0.150000X0.625000X-0.150000X0.625000X0*%
%ADD17RoundRect,0.250000X-0.350000X-0.650000X0.350000X-0.650000X0.350000X0.650000X-0.350000X0.650000X0*%
G04 APERTURE END LIST*
D10*
%TO.C,BT1*%
X155066999Y-64744599D03*
X76406999Y-64744599D03*
%TD*%
D11*
%TO.C,R1*%
X176991000Y-97891600D03*
X178816000Y-97891600D03*
%TD*%
D12*
%TO.C,BZ1*%
X117149999Y-89743399D03*
X117149999Y-96743399D03*
X124149999Y-96743399D03*
X124149999Y-89743399D03*
%TD*%
D13*
%TO.C,R3*%
X199419200Y-106222800D03*
X201244200Y-106222800D03*
%TD*%
D11*
%TO.C,R2*%
X167085000Y-97485200D03*
X168910000Y-97485200D03*
%TD*%
D14*
%TO.C,U1*%
X164058599Y-61046599D03*
X164058599Y-61546599D03*
X164058599Y-62046599D03*
X164058599Y-62546599D03*
X164058599Y-63046599D03*
X164058599Y-63546599D03*
X164058599Y-64046599D03*
X164058599Y-64546599D03*
X164058599Y-65046599D03*
X164058599Y-65546599D03*
X164058599Y-66046599D03*
X164058599Y-66546599D03*
X164058599Y-67046599D03*
X164058599Y-67546599D03*
X164058599Y-68046599D03*
X164058599Y-68546599D03*
X164058599Y-69046599D03*
X164058599Y-69546599D03*
X164058599Y-70046599D03*
X164058599Y-70546599D03*
D15*
X165758599Y-72216599D03*
X165758599Y-59376599D03*
%TD*%
D16*
%TO.C,U4*%
X176808000Y-87052400D03*
X177808000Y-87052400D03*
X178808000Y-87052400D03*
X179808000Y-87052400D03*
D17*
X175508000Y-90927400D03*
X181108000Y-90927400D03*
%TD*%
D11*
%TO.C,R4*%
X197561200Y-90906600D03*
X199386200Y-90906600D03*
%TD*%
M02*
