M48
; DRILL file {KiCad (7.99.0-200-gad838e3d73)} date Mon Mar 11 18:14:07 2024
; FORMAT={-:-/ absolute / inch / decimal}
; #@! TF.CreationDate,2024-03-11T18:14:07+07:00
; #@! TF.GenerationSoftware,Kicad,Pcbnew,(7.99.0-200-gad838e3d73)
; #@! TF.FileFunction,Plated,1,2,PTH
FMAT,2
INCH
; #@! TA.AperFunction,Plated,PTH,ViaDrill
T1C0.0157
; #@! TA.AperFunction,Plated,PTH,ComponentDrill
T2C0.0354
; #@! TA.AperFunction,Plated,PTH,ComponentDrill
T3C0.0394
; #@! TA.AperFunction,Plated,PTH,ComponentDrill
T4C0.0433
; #@! TA.AperFunction,Plated,PTH,ComponentDrill
T5C0.0492
; #@! TA.AperFunction,Plated,PTH,ComponentDrill
T6C0.0512
; #@! TA.AperFunction,Plated,PTH,ComponentDrill
T7C0.0606
%
G90
G05
T1
X3.109Y-2.731
X3.49Y-3.766
X3.681Y-3.75
X3.956Y-3.889
X4.004Y-3.515
X4.157Y-2.296
X4.271Y-2.902
X4.737Y-2.303
X5.934Y-3.916
X5.962Y-4.37
X6.128Y-3.814
X6.376Y-3.924
X6.716Y-3.702
X6.814Y-2.812
X7.048Y-3.109
X7.076Y-3.348
X7.142Y-3.082
X7.352Y-3.008
X7.512Y-3.244
X7.542Y-3.149
X7.777Y-3.487
X7.79Y-3.153
T2
X6.75Y-3.838
X6.85Y-3.838
X7.1238Y-3.854
X7.2238Y-3.854
T3
X2.96Y-3.07
X2.96Y-3.22
X2.96Y-4.12
X2.96Y-4.27
X3.06Y-3.07
X3.06Y-3.22
X3.06Y-4.12
X3.06Y-4.27
X3.16Y-3.07
X3.16Y-3.22
X3.16Y-4.12
X3.16Y-4.27
X3.26Y-3.07
X3.26Y-3.22
X3.26Y-4.12
X3.26Y-4.27
X3.36Y-3.07
X3.36Y-3.22
X3.36Y-4.12
X3.36Y-4.27
X3.46Y-3.07
X3.46Y-3.22
X3.46Y-4.12
X3.46Y-4.27
X3.56Y-3.07
X3.56Y-3.22
X3.56Y-4.12
X3.56Y-4.27
X3.66Y-3.07
X3.66Y-3.22
X3.66Y-4.12
X3.66Y-4.27
X3.76Y-3.07
X3.76Y-3.22
X3.76Y-4.12
X3.76Y-4.27
X3.86Y-3.07
X3.86Y-3.22
X3.86Y-4.12
X3.86Y-4.27
X3.96Y-3.07
X3.96Y-3.22
X3.96Y-4.12
X3.96Y-4.27
X4.06Y-3.07
X4.06Y-3.22
X4.06Y-4.12
X4.06Y-4.27
X4.15Y-3.55
X4.15Y-3.8
X4.16Y-3.07
X4.16Y-3.22
X4.16Y-4.12
X4.16Y-4.27
X4.16Y-4.41
X4.25Y-3.55
X4.25Y-3.8
X4.26Y-3.07
X4.26Y-3.22
X4.26Y-4.12
X4.26Y-4.27
X4.26Y-4.41
X4.35Y-3.55
X4.35Y-3.8
X4.36Y-3.07
X4.36Y-3.22
X4.36Y-4.12
X4.36Y-4.27
X4.36Y-4.41
X4.46Y-3.07
X4.46Y-3.22
X4.46Y-4.12
X4.46Y-4.27
X4.46Y-4.41
X4.56Y-3.07
X4.56Y-3.22
X4.56Y-4.12
X4.56Y-4.27
X4.56Y-4.41
X4.66Y-3.07
X4.66Y-3.22
X4.66Y-4.12
X4.66Y-4.27
X4.66Y-4.41
X4.76Y-3.07
X4.76Y-3.22
X4.76Y-4.12
X4.76Y-4.27
X4.76Y-4.41
X4.86Y-3.07
X4.86Y-3.22
X4.86Y-4.12
X4.86Y-4.27
X4.86Y-4.41
X4.96Y-3.07
X4.96Y-3.22
X4.96Y-4.12
X4.96Y-4.27
X4.96Y-4.41
X5.06Y-3.07
X5.06Y-3.22
X5.06Y-4.12
X5.06Y-4.27
X5.06Y-4.41
X5.16Y-3.07
X5.16Y-3.22
X5.16Y-4.12
X5.16Y-4.27
X5.16Y-4.41
X5.26Y-3.07
X5.26Y-3.22
X5.26Y-4.12
X5.26Y-4.27
X5.26Y-4.41
X5.36Y-3.07
X5.36Y-3.22
X5.36Y-4.12
X5.36Y-4.27
X5.36Y-4.41
X5.46Y-3.07
X5.46Y-3.22
X5.46Y-4.12
X5.46Y-4.27
X5.46Y-4.41
X5.56Y-3.07
X5.56Y-3.22
X5.56Y-4.12
X5.56Y-4.27
X5.56Y-4.41
X5.66Y-3.07
X5.66Y-3.22
X5.66Y-4.12
X5.66Y-4.27
X5.66Y-4.41
X5.76Y-3.07
X5.76Y-3.22
X5.76Y-4.12
X5.76Y-4.27
X5.76Y-4.41
X5.86Y-3.07
X5.86Y-3.22
X5.86Y-4.12
X5.86Y-4.27
X5.86Y-4.41
X5.96Y-3.07
X5.96Y-3.22
X5.96Y-4.12
X5.96Y-4.27
X6.06Y-3.07
X6.06Y-3.22
X6.06Y-4.12
X6.06Y-4.27
X6.16Y-3.07
X6.16Y-3.22
X6.16Y-4.12
X6.16Y-4.27
X6.26Y-3.07
X6.26Y-3.22
X6.26Y-4.12
X6.26Y-4.27
X6.36Y-3.07
X6.36Y-3.22
X6.36Y-4.12
X6.36Y-4.27
X6.46Y-3.07
X6.46Y-3.22
X6.46Y-4.12
X6.46Y-4.27
X6.5Y-3.55
X6.56Y-3.07
X6.56Y-3.22
X6.56Y-4.12
X6.56Y-4.27
X6.6Y-3.55
X6.66Y-3.07
X6.66Y-3.22
X6.66Y-4.12
X6.66Y-4.27
X6.7Y-3.55
X6.76Y-3.07
X6.76Y-3.22
X6.76Y-4.12
X6.76Y-4.27
X6.8Y-3.55
X6.86Y-3.07
X6.86Y-3.22
X6.86Y-4.12
X6.86Y-4.27
X7.06Y-4.12
X7.06Y-4.27
X7.16Y-4.12
X7.16Y-4.27
X7.26Y-4.12
X7.26Y-4.27
T4
X7.422Y-3.4014
X7.422Y-3.5786
X7.678Y-3.4014
X7.678Y-3.5786
T5
X5.0795Y-3.54
X5.0795Y-3.7959
X6.3Y-3.542
X6.3Y-3.7959
T6
X7.43Y-3.7916
X7.43Y-3.9884
X7.9221Y-3.7916
X7.9221Y-3.9884
T7
X2.95Y-3.4
X2.95Y-3.9591
X3.8516Y-3.4
X3.8516Y-3.5378
X3.8516Y-3.837
X3.8516Y-3.9709
T0
M30
