%TF.GenerationSoftware,KiCad,Pcbnew,(7.99.0-200-gad838e3d73)*%
%TF.CreationDate,2024-03-07T11:40:56+07:00*%
%TF.ProjectId,WMS_PCB2,574d535f-5043-4423-922e-6b696361645f,rev?*%
%TF.SameCoordinates,Original*%
%TF.FileFunction,Legend,Bot*%
%TF.FilePolarity,Positive*%
%FSLAX46Y46*%
G04 Gerber Fmt 4.6, Leading zero omitted, Abs format (unit mm)*
G04 Created by KiCad (PCBNEW (7.99.0-200-gad838e3d73)) date 2024-03-07 11:40:56*
%MOMM*%
%LPD*%
G01*
G04 APERTURE LIST*
%ADD10C,0.200000*%
%ADD11C,0.300000*%
%ADD12C,0.100000*%
%ADD13C,0.150000*%
%ADD14C,0.212500*%
%ADD15C,0.120000*%
G04 APERTURE END LIST*
D10*
X240501619Y-94535714D02*
X240501619Y-95011904D01*
X240501619Y-95011904D02*
X241501619Y-95011904D01*
X241025428Y-94202380D02*
X241025428Y-93869047D01*
X240501619Y-93726190D02*
X240501619Y-94202380D01*
X240501619Y-94202380D02*
X241501619Y-94202380D01*
X241501619Y-94202380D02*
X241501619Y-93726190D01*
X240501619Y-93297618D02*
X241501619Y-93297618D01*
X241501619Y-93297618D02*
X241501619Y-93059523D01*
X241501619Y-93059523D02*
X241454000Y-92916666D01*
X241454000Y-92916666D02*
X241358761Y-92821428D01*
X241358761Y-92821428D02*
X241263523Y-92773809D01*
X241263523Y-92773809D02*
X241073047Y-92726190D01*
X241073047Y-92726190D02*
X240930190Y-92726190D01*
X240930190Y-92726190D02*
X240739714Y-92773809D01*
X240739714Y-92773809D02*
X240644476Y-92821428D01*
X240644476Y-92821428D02*
X240549238Y-92916666D01*
X240549238Y-92916666D02*
X240501619Y-93059523D01*
X240501619Y-93059523D02*
X240501619Y-93297618D01*
X240406380Y-92535714D02*
X240406380Y-91773809D01*
X241454000Y-91011904D02*
X241501619Y-91107142D01*
X241501619Y-91107142D02*
X241501619Y-91249999D01*
X241501619Y-91249999D02*
X241454000Y-91392856D01*
X241454000Y-91392856D02*
X241358761Y-91488094D01*
X241358761Y-91488094D02*
X241263523Y-91535713D01*
X241263523Y-91535713D02*
X241073047Y-91583332D01*
X241073047Y-91583332D02*
X240930190Y-91583332D01*
X240930190Y-91583332D02*
X240739714Y-91535713D01*
X240739714Y-91535713D02*
X240644476Y-91488094D01*
X240644476Y-91488094D02*
X240549238Y-91392856D01*
X240549238Y-91392856D02*
X240501619Y-91249999D01*
X240501619Y-91249999D02*
X240501619Y-91154761D01*
X240501619Y-91154761D02*
X240549238Y-91011904D01*
X240549238Y-91011904D02*
X240596857Y-90964285D01*
X240596857Y-90964285D02*
X240930190Y-90964285D01*
X240930190Y-90964285D02*
X240930190Y-91154761D01*
X233389619Y-94789714D02*
X233389619Y-95265904D01*
X233389619Y-95265904D02*
X234389619Y-95265904D01*
X233913428Y-94456380D02*
X233913428Y-94123047D01*
X233389619Y-93980190D02*
X233389619Y-94456380D01*
X233389619Y-94456380D02*
X234389619Y-94456380D01*
X234389619Y-94456380D02*
X234389619Y-93980190D01*
X233389619Y-93551618D02*
X234389619Y-93551618D01*
X234389619Y-93551618D02*
X234389619Y-93313523D01*
X234389619Y-93313523D02*
X234342000Y-93170666D01*
X234342000Y-93170666D02*
X234246761Y-93075428D01*
X234246761Y-93075428D02*
X234151523Y-93027809D01*
X234151523Y-93027809D02*
X233961047Y-92980190D01*
X233961047Y-92980190D02*
X233818190Y-92980190D01*
X233818190Y-92980190D02*
X233627714Y-93027809D01*
X233627714Y-93027809D02*
X233532476Y-93075428D01*
X233532476Y-93075428D02*
X233437238Y-93170666D01*
X233437238Y-93170666D02*
X233389619Y-93313523D01*
X233389619Y-93313523D02*
X233389619Y-93551618D01*
X233294380Y-92789714D02*
X233294380Y-92027809D01*
X233389619Y-91218285D02*
X233865809Y-91551618D01*
X233389619Y-91789713D02*
X234389619Y-91789713D01*
X234389619Y-91789713D02*
X234389619Y-91408761D01*
X234389619Y-91408761D02*
X234342000Y-91313523D01*
X234342000Y-91313523D02*
X234294380Y-91265904D01*
X234294380Y-91265904D02*
X234199142Y-91218285D01*
X234199142Y-91218285D02*
X234056285Y-91218285D01*
X234056285Y-91218285D02*
X233961047Y-91265904D01*
X233961047Y-91265904D02*
X233913428Y-91313523D01*
X233913428Y-91313523D02*
X233865809Y-91408761D01*
X233865809Y-91408761D02*
X233865809Y-91789713D01*
D11*
G36*
X199563146Y-91586278D02*
G01*
X199659412Y-91682544D01*
X199716285Y-91910035D01*
X199716285Y-92373107D01*
X199659412Y-92600597D01*
X199563146Y-92696863D01*
X199473731Y-92741571D01*
X199258838Y-92741571D01*
X199169426Y-92696865D01*
X199073158Y-92600597D01*
X199016285Y-92373105D01*
X199016285Y-91910037D01*
X199073158Y-91682544D01*
X199169425Y-91586277D01*
X199258838Y-91541571D01*
X199473732Y-91541571D01*
X199563146Y-91586278D01*
G37*
G36*
X195501999Y-92741571D02*
G01*
X195319199Y-92741571D01*
X195161597Y-92689037D01*
X195060991Y-92588431D01*
X195007812Y-92482075D01*
X194944856Y-92230250D01*
X194944856Y-92052892D01*
X195007810Y-91801071D01*
X195060991Y-91694711D01*
X195161597Y-91594104D01*
X195319197Y-91541571D01*
X195501999Y-91541571D01*
X195501999Y-92741571D01*
G37*
G36*
X200816286Y-93882286D02*
G01*
X193394856Y-93882286D01*
X193394856Y-92242365D01*
X194638652Y-92242365D01*
X194644856Y-92267181D01*
X194644856Y-92270282D01*
X194650074Y-92288055D01*
X194714282Y-92544887D01*
X194712423Y-92562116D01*
X194724756Y-92586783D01*
X194725994Y-92591732D01*
X194734367Y-92606004D01*
X194795137Y-92727543D01*
X194800503Y-92752207D01*
X194829723Y-92781427D01*
X194857880Y-92811698D01*
X194860720Y-92812424D01*
X194968795Y-92920499D01*
X194991352Y-92948516D01*
X195020430Y-92958208D01*
X195047339Y-92972902D01*
X195061475Y-92971890D01*
X195229581Y-93027926D01*
X195250812Y-93041571D01*
X195292124Y-93041571D01*
X195333449Y-93043066D01*
X195335971Y-93041571D01*
X195641268Y-93041571D01*
X195674248Y-93046313D01*
X195704554Y-93032472D01*
X195736519Y-93023087D01*
X195743993Y-93014461D01*
X195754375Y-93009720D01*
X195772387Y-92981692D01*
X195794204Y-92956514D01*
X195795828Y-92945216D01*
X195801999Y-92935615D01*
X195801999Y-92913820D01*
X196140114Y-92913820D01*
X196176707Y-92993947D01*
X196250812Y-93041571D01*
X196998411Y-93041571D01*
X197031391Y-93046313D01*
X197061697Y-93032472D01*
X197093662Y-93023087D01*
X197101136Y-93014461D01*
X197111518Y-93009720D01*
X197129530Y-92981692D01*
X197151347Y-92956514D01*
X197152971Y-92945216D01*
X197159142Y-92935615D01*
X197159142Y-92913820D01*
X197354400Y-92913820D01*
X197390993Y-92993947D01*
X197465098Y-93041571D01*
X198212697Y-93041571D01*
X198245677Y-93046313D01*
X198275983Y-93032472D01*
X198307948Y-93023087D01*
X198315422Y-93014461D01*
X198325804Y-93009720D01*
X198343816Y-92981692D01*
X198365633Y-92956514D01*
X198367257Y-92945216D01*
X198373428Y-92935615D01*
X198373428Y-92902302D01*
X198378170Y-92869322D01*
X198373428Y-92858939D01*
X198373428Y-92385223D01*
X198710081Y-92385223D01*
X198716285Y-92410039D01*
X198716285Y-92413139D01*
X198721503Y-92430910D01*
X198791627Y-92711402D01*
X198800504Y-92752207D01*
X198818059Y-92769762D01*
X198830624Y-92791179D01*
X198848569Y-92800272D01*
X198961204Y-92912907D01*
X198974094Y-92934609D01*
X199011064Y-92953094D01*
X199047340Y-92972902D01*
X199050262Y-92972693D01*
X199149122Y-93022123D01*
X199179384Y-93041571D01*
X199210037Y-93041571D01*
X199240209Y-93047001D01*
X199253301Y-93041571D01*
X199501066Y-93041571D01*
X199536830Y-93045432D01*
X199564245Y-93031724D01*
X199593662Y-93023087D01*
X199602943Y-93012375D01*
X199702261Y-92962716D01*
X199726922Y-92957352D01*
X199756133Y-92928140D01*
X199786413Y-92899975D01*
X199787139Y-92897134D01*
X199899291Y-92784982D01*
X199929696Y-92756394D01*
X199935717Y-92732309D01*
X199947617Y-92710516D01*
X199946181Y-92690449D01*
X200005818Y-92451901D01*
X200016285Y-92435615D01*
X200016285Y-92410035D01*
X200017037Y-92407027D01*
X200016285Y-92388522D01*
X200016285Y-91916258D01*
X200022489Y-91897920D01*
X200016285Y-91873104D01*
X200016285Y-91870003D01*
X200011066Y-91852229D01*
X199940944Y-91571742D01*
X199932067Y-91530935D01*
X199914511Y-91513379D01*
X199901947Y-91491963D01*
X199884001Y-91482869D01*
X199771364Y-91370232D01*
X199758476Y-91348533D01*
X199721522Y-91330056D01*
X199685231Y-91310239D01*
X199682306Y-91310448D01*
X199583444Y-91261016D01*
X199553186Y-91241571D01*
X199522535Y-91241571D01*
X199492361Y-91236141D01*
X199479269Y-91241571D01*
X199231503Y-91241571D01*
X199195739Y-91237710D01*
X199168323Y-91251418D01*
X199138908Y-91260055D01*
X199129626Y-91270766D01*
X199030311Y-91320424D01*
X199005649Y-91325790D01*
X198976428Y-91355010D01*
X198946158Y-91383167D01*
X198945431Y-91386007D01*
X198833279Y-91498159D01*
X198802875Y-91526748D01*
X198796854Y-91550831D01*
X198784953Y-91572626D01*
X198786388Y-91592693D01*
X198726751Y-91831240D01*
X198716285Y-91847527D01*
X198716285Y-91873106D01*
X198715533Y-91876114D01*
X198716285Y-91894619D01*
X198716285Y-92366884D01*
X198710081Y-92385223D01*
X198373428Y-92385223D01*
X198373428Y-91370003D01*
X198354944Y-91307051D01*
X198288371Y-91249366D01*
X198201179Y-91236829D01*
X198121052Y-91273422D01*
X198073428Y-91347527D01*
X198073428Y-92741571D01*
X197487574Y-92741571D01*
X197424622Y-92760055D01*
X197366937Y-92826628D01*
X197354400Y-92913820D01*
X197159142Y-92913820D01*
X197159142Y-92902302D01*
X197163884Y-92869322D01*
X197159142Y-92858939D01*
X197159142Y-92116588D01*
X197163884Y-92083608D01*
X197159142Y-92073225D01*
X197159142Y-91402302D01*
X197163884Y-91369322D01*
X197150043Y-91339015D01*
X197140658Y-91307051D01*
X197132032Y-91299576D01*
X197127291Y-91289195D01*
X197099263Y-91271182D01*
X197074085Y-91249366D01*
X197062787Y-91247741D01*
X197053186Y-91241571D01*
X197019873Y-91241571D01*
X196986893Y-91236829D01*
X196976510Y-91241571D01*
X196273288Y-91241571D01*
X196210336Y-91260055D01*
X196152651Y-91326628D01*
X196140114Y-91413820D01*
X196176707Y-91493947D01*
X196250812Y-91541571D01*
X196859142Y-91541571D01*
X196859142Y-91955857D01*
X196487574Y-91955857D01*
X196424622Y-91974341D01*
X196366937Y-92040914D01*
X196354400Y-92128106D01*
X196390993Y-92208233D01*
X196465098Y-92255857D01*
X196859142Y-92255857D01*
X196859142Y-92741571D01*
X196273288Y-92741571D01*
X196210336Y-92760055D01*
X196152651Y-92826628D01*
X196140114Y-92913820D01*
X195801999Y-92913820D01*
X195801999Y-92902302D01*
X195806741Y-92869322D01*
X195801999Y-92858939D01*
X195801999Y-91402302D01*
X195806741Y-91369322D01*
X195792900Y-91339015D01*
X195783515Y-91307051D01*
X195774889Y-91299576D01*
X195770148Y-91289195D01*
X195742120Y-91271182D01*
X195716942Y-91249366D01*
X195705644Y-91247741D01*
X195696043Y-91241571D01*
X195662730Y-91241571D01*
X195629750Y-91236829D01*
X195619367Y-91241571D01*
X195313660Y-91241571D01*
X195289205Y-91235341D01*
X195250012Y-91248405D01*
X195210336Y-91260055D01*
X195208416Y-91262270D01*
X195040797Y-91318143D01*
X195005648Y-91325790D01*
X194983973Y-91347464D01*
X194958798Y-91364961D01*
X194953380Y-91378057D01*
X194844945Y-91486492D01*
X194823246Y-91499381D01*
X194804770Y-91536332D01*
X194784952Y-91572626D01*
X194785161Y-91575550D01*
X194744069Y-91657734D01*
X194731445Y-91669605D01*
X194724756Y-91696360D01*
X194722475Y-91700923D01*
X194719543Y-91717210D01*
X194655322Y-91974097D01*
X194644856Y-91990384D01*
X194644856Y-92015964D01*
X194644104Y-92018972D01*
X194644856Y-92037477D01*
X194644856Y-92224026D01*
X194638652Y-92242365D01*
X193394856Y-92242365D01*
X193394856Y-90303714D01*
X200816286Y-90303714D01*
X200816286Y-93882286D01*
G37*
D10*
X243819428Y-80708571D02*
X243771809Y-80565714D01*
X243771809Y-80565714D02*
X243724190Y-80518095D01*
X243724190Y-80518095D02*
X243628952Y-80470476D01*
X243628952Y-80470476D02*
X243486095Y-80470476D01*
X243486095Y-80470476D02*
X243390857Y-80518095D01*
X243390857Y-80518095D02*
X243343238Y-80565714D01*
X243343238Y-80565714D02*
X243295619Y-80660952D01*
X243295619Y-80660952D02*
X243295619Y-81041904D01*
X243295619Y-81041904D02*
X244295619Y-81041904D01*
X244295619Y-81041904D02*
X244295619Y-80708571D01*
X244295619Y-80708571D02*
X244248000Y-80613333D01*
X244248000Y-80613333D02*
X244200380Y-80565714D01*
X244200380Y-80565714D02*
X244105142Y-80518095D01*
X244105142Y-80518095D02*
X244009904Y-80518095D01*
X244009904Y-80518095D02*
X243914666Y-80565714D01*
X243914666Y-80565714D02*
X243867047Y-80613333D01*
X243867047Y-80613333D02*
X243819428Y-80708571D01*
X243819428Y-80708571D02*
X243819428Y-81041904D01*
X243962285Y-79613333D02*
X243295619Y-79613333D01*
X243962285Y-80041904D02*
X243438476Y-80041904D01*
X243438476Y-80041904D02*
X243343238Y-79994285D01*
X243343238Y-79994285D02*
X243295619Y-79899047D01*
X243295619Y-79899047D02*
X243295619Y-79756190D01*
X243295619Y-79756190D02*
X243343238Y-79660952D01*
X243343238Y-79660952D02*
X243390857Y-79613333D01*
X243962285Y-79232380D02*
X243962285Y-78708571D01*
X243962285Y-78708571D02*
X243295619Y-79232380D01*
X243295619Y-79232380D02*
X243295619Y-78708571D01*
X243962285Y-78422856D02*
X243962285Y-77899047D01*
X243962285Y-77899047D02*
X243295619Y-78422856D01*
X243295619Y-78422856D02*
X243295619Y-77899047D01*
X243343238Y-77137142D02*
X243295619Y-77232380D01*
X243295619Y-77232380D02*
X243295619Y-77422856D01*
X243295619Y-77422856D02*
X243343238Y-77518094D01*
X243343238Y-77518094D02*
X243438476Y-77565713D01*
X243438476Y-77565713D02*
X243819428Y-77565713D01*
X243819428Y-77565713D02*
X243914666Y-77518094D01*
X243914666Y-77518094D02*
X243962285Y-77422856D01*
X243962285Y-77422856D02*
X243962285Y-77232380D01*
X243962285Y-77232380D02*
X243914666Y-77137142D01*
X243914666Y-77137142D02*
X243819428Y-77089523D01*
X243819428Y-77089523D02*
X243724190Y-77089523D01*
X243724190Y-77089523D02*
X243628952Y-77565713D01*
X243295619Y-76660951D02*
X243962285Y-76660951D01*
X243771809Y-76660951D02*
X243867047Y-76613332D01*
X243867047Y-76613332D02*
X243914666Y-76565713D01*
X243914666Y-76565713D02*
X243962285Y-76470475D01*
X243962285Y-76470475D02*
X243962285Y-76375237D01*
D12*
%TO.C,U4*%
X218503428Y-83983214D02*
X218074857Y-83983214D01*
X218289142Y-83983214D02*
X218289142Y-84733214D01*
X218289142Y-84733214D02*
X218217714Y-84626071D01*
X218217714Y-84626071D02*
X218146285Y-84554642D01*
X218146285Y-84554642D02*
X218074857Y-84518928D01*
X219757619Y-85444809D02*
X220043333Y-85444809D01*
X219900476Y-84944809D02*
X219900476Y-85444809D01*
X220162380Y-85444809D02*
X220495713Y-84944809D01*
X220495713Y-85444809D02*
X220162380Y-84944809D01*
X218797142Y-85444809D02*
X218559047Y-85444809D01*
X218559047Y-85444809D02*
X218535238Y-85206714D01*
X218535238Y-85206714D02*
X218559047Y-85230523D01*
X218559047Y-85230523D02*
X218606666Y-85254333D01*
X218606666Y-85254333D02*
X218725714Y-85254333D01*
X218725714Y-85254333D02*
X218773333Y-85230523D01*
X218773333Y-85230523D02*
X218797142Y-85206714D01*
X218797142Y-85206714D02*
X218820952Y-85159095D01*
X218820952Y-85159095D02*
X218820952Y-85040047D01*
X218820952Y-85040047D02*
X218797142Y-84992428D01*
X218797142Y-84992428D02*
X218773333Y-84968619D01*
X218773333Y-84968619D02*
X218725714Y-84944809D01*
X218725714Y-84944809D02*
X218606666Y-84944809D01*
X218606666Y-84944809D02*
X218559047Y-84968619D01*
X218559047Y-84968619D02*
X218535238Y-84992428D01*
X218963809Y-85444809D02*
X219130475Y-84944809D01*
X219130475Y-84944809D02*
X219297142Y-85444809D01*
X222630952Y-85421000D02*
X222583333Y-85444809D01*
X222583333Y-85444809D02*
X222511904Y-85444809D01*
X222511904Y-85444809D02*
X222440476Y-85421000D01*
X222440476Y-85421000D02*
X222392857Y-85373380D01*
X222392857Y-85373380D02*
X222369047Y-85325761D01*
X222369047Y-85325761D02*
X222345238Y-85230523D01*
X222345238Y-85230523D02*
X222345238Y-85159095D01*
X222345238Y-85159095D02*
X222369047Y-85063857D01*
X222369047Y-85063857D02*
X222392857Y-85016238D01*
X222392857Y-85016238D02*
X222440476Y-84968619D01*
X222440476Y-84968619D02*
X222511904Y-84944809D01*
X222511904Y-84944809D02*
X222559523Y-84944809D01*
X222559523Y-84944809D02*
X222630952Y-84968619D01*
X222630952Y-84968619D02*
X222654761Y-84992428D01*
X222654761Y-84992428D02*
X222654761Y-85159095D01*
X222654761Y-85159095D02*
X222559523Y-85159095D01*
X222869047Y-84944809D02*
X222869047Y-85444809D01*
X222869047Y-85444809D02*
X223154761Y-84944809D01*
X223154761Y-84944809D02*
X223154761Y-85444809D01*
X223392857Y-84944809D02*
X223392857Y-85444809D01*
X223392857Y-85444809D02*
X223511905Y-85444809D01*
X223511905Y-85444809D02*
X223583333Y-85421000D01*
X223583333Y-85421000D02*
X223630952Y-85373380D01*
X223630952Y-85373380D02*
X223654762Y-85325761D01*
X223654762Y-85325761D02*
X223678571Y-85230523D01*
X223678571Y-85230523D02*
X223678571Y-85159095D01*
X223678571Y-85159095D02*
X223654762Y-85063857D01*
X223654762Y-85063857D02*
X223630952Y-85016238D01*
X223630952Y-85016238D02*
X223583333Y-84968619D01*
X223583333Y-84968619D02*
X223511905Y-84944809D01*
X223511905Y-84944809D02*
X223392857Y-84944809D01*
D10*
X225742571Y-77744571D02*
X225599714Y-77792190D01*
X225599714Y-77792190D02*
X225552095Y-77839809D01*
X225552095Y-77839809D02*
X225504476Y-77935047D01*
X225504476Y-77935047D02*
X225504476Y-78077904D01*
X225504476Y-78077904D02*
X225552095Y-78173142D01*
X225552095Y-78173142D02*
X225599714Y-78220761D01*
X225599714Y-78220761D02*
X225694952Y-78268380D01*
X225694952Y-78268380D02*
X226075904Y-78268380D01*
X226075904Y-78268380D02*
X226075904Y-77268380D01*
X226075904Y-77268380D02*
X225742571Y-77268380D01*
X225742571Y-77268380D02*
X225647333Y-77316000D01*
X225647333Y-77316000D02*
X225599714Y-77363619D01*
X225599714Y-77363619D02*
X225552095Y-77458857D01*
X225552095Y-77458857D02*
X225552095Y-77554095D01*
X225552095Y-77554095D02*
X225599714Y-77649333D01*
X225599714Y-77649333D02*
X225647333Y-77696952D01*
X225647333Y-77696952D02*
X225742571Y-77744571D01*
X225742571Y-77744571D02*
X226075904Y-77744571D01*
X224647333Y-78268380D02*
X224647333Y-77744571D01*
X224647333Y-77744571D02*
X224694952Y-77649333D01*
X224694952Y-77649333D02*
X224790190Y-77601714D01*
X224790190Y-77601714D02*
X224980666Y-77601714D01*
X224980666Y-77601714D02*
X225075904Y-77649333D01*
X224647333Y-78220761D02*
X224742571Y-78268380D01*
X224742571Y-78268380D02*
X224980666Y-78268380D01*
X224980666Y-78268380D02*
X225075904Y-78220761D01*
X225075904Y-78220761D02*
X225123523Y-78125523D01*
X225123523Y-78125523D02*
X225123523Y-78030285D01*
X225123523Y-78030285D02*
X225075904Y-77935047D01*
X225075904Y-77935047D02*
X224980666Y-77887428D01*
X224980666Y-77887428D02*
X224742571Y-77887428D01*
X224742571Y-77887428D02*
X224647333Y-77839809D01*
X224171142Y-78268380D02*
X224171142Y-77601714D01*
X224171142Y-77792190D02*
X224123523Y-77696952D01*
X224123523Y-77696952D02*
X224075904Y-77649333D01*
X224075904Y-77649333D02*
X223980666Y-77601714D01*
X223980666Y-77601714D02*
X223885428Y-77601714D01*
X223123523Y-78220761D02*
X223218761Y-78268380D01*
X223218761Y-78268380D02*
X223409237Y-78268380D01*
X223409237Y-78268380D02*
X223504475Y-78220761D01*
X223504475Y-78220761D02*
X223552094Y-78173142D01*
X223552094Y-78173142D02*
X223599713Y-78077904D01*
X223599713Y-78077904D02*
X223599713Y-77792190D01*
X223599713Y-77792190D02*
X223552094Y-77696952D01*
X223552094Y-77696952D02*
X223504475Y-77649333D01*
X223504475Y-77649333D02*
X223409237Y-77601714D01*
X223409237Y-77601714D02*
X223218761Y-77601714D01*
X223218761Y-77601714D02*
X223123523Y-77649333D01*
X222552094Y-78268380D02*
X222647332Y-78220761D01*
X222647332Y-78220761D02*
X222694951Y-78173142D01*
X222694951Y-78173142D02*
X222742570Y-78077904D01*
X222742570Y-78077904D02*
X222742570Y-77792190D01*
X222742570Y-77792190D02*
X222694951Y-77696952D01*
X222694951Y-77696952D02*
X222647332Y-77649333D01*
X222647332Y-77649333D02*
X222552094Y-77601714D01*
X222552094Y-77601714D02*
X222409237Y-77601714D01*
X222409237Y-77601714D02*
X222313999Y-77649333D01*
X222313999Y-77649333D02*
X222266380Y-77696952D01*
X222266380Y-77696952D02*
X222218761Y-77792190D01*
X222218761Y-77792190D02*
X222218761Y-78077904D01*
X222218761Y-78077904D02*
X222266380Y-78173142D01*
X222266380Y-78173142D02*
X222313999Y-78220761D01*
X222313999Y-78220761D02*
X222409237Y-78268380D01*
X222409237Y-78268380D02*
X222552094Y-78268380D01*
X221361618Y-78268380D02*
X221361618Y-77268380D01*
X221361618Y-78220761D02*
X221456856Y-78268380D01*
X221456856Y-78268380D02*
X221647332Y-78268380D01*
X221647332Y-78268380D02*
X221742570Y-78220761D01*
X221742570Y-78220761D02*
X221790189Y-78173142D01*
X221790189Y-78173142D02*
X221837808Y-78077904D01*
X221837808Y-78077904D02*
X221837808Y-77792190D01*
X221837808Y-77792190D02*
X221790189Y-77696952D01*
X221790189Y-77696952D02*
X221742570Y-77649333D01*
X221742570Y-77649333D02*
X221647332Y-77601714D01*
X221647332Y-77601714D02*
X221456856Y-77601714D01*
X221456856Y-77601714D02*
X221361618Y-77649333D01*
X220504475Y-78220761D02*
X220599713Y-78268380D01*
X220599713Y-78268380D02*
X220790189Y-78268380D01*
X220790189Y-78268380D02*
X220885427Y-78220761D01*
X220885427Y-78220761D02*
X220933046Y-78125523D01*
X220933046Y-78125523D02*
X220933046Y-77744571D01*
X220933046Y-77744571D02*
X220885427Y-77649333D01*
X220885427Y-77649333D02*
X220790189Y-77601714D01*
X220790189Y-77601714D02*
X220599713Y-77601714D01*
X220599713Y-77601714D02*
X220504475Y-77649333D01*
X220504475Y-77649333D02*
X220456856Y-77744571D01*
X220456856Y-77744571D02*
X220456856Y-77839809D01*
X220456856Y-77839809D02*
X220933046Y-77935047D01*
X219475903Y-78220761D02*
X219333046Y-78268380D01*
X219333046Y-78268380D02*
X219094951Y-78268380D01*
X219094951Y-78268380D02*
X218999713Y-78220761D01*
X218999713Y-78220761D02*
X218952094Y-78173142D01*
X218952094Y-78173142D02*
X218904475Y-78077904D01*
X218904475Y-78077904D02*
X218904475Y-77982666D01*
X218904475Y-77982666D02*
X218952094Y-77887428D01*
X218952094Y-77887428D02*
X218999713Y-77839809D01*
X218999713Y-77839809D02*
X219094951Y-77792190D01*
X219094951Y-77792190D02*
X219285427Y-77744571D01*
X219285427Y-77744571D02*
X219380665Y-77696952D01*
X219380665Y-77696952D02*
X219428284Y-77649333D01*
X219428284Y-77649333D02*
X219475903Y-77554095D01*
X219475903Y-77554095D02*
X219475903Y-77458857D01*
X219475903Y-77458857D02*
X219428284Y-77363619D01*
X219428284Y-77363619D02*
X219380665Y-77316000D01*
X219380665Y-77316000D02*
X219285427Y-77268380D01*
X219285427Y-77268380D02*
X219047332Y-77268380D01*
X219047332Y-77268380D02*
X218904475Y-77316000D01*
X218047332Y-78220761D02*
X218142570Y-78268380D01*
X218142570Y-78268380D02*
X218333046Y-78268380D01*
X218333046Y-78268380D02*
X218428284Y-78220761D01*
X218428284Y-78220761D02*
X218475903Y-78173142D01*
X218475903Y-78173142D02*
X218523522Y-78077904D01*
X218523522Y-78077904D02*
X218523522Y-77792190D01*
X218523522Y-77792190D02*
X218475903Y-77696952D01*
X218475903Y-77696952D02*
X218428284Y-77649333D01*
X218428284Y-77649333D02*
X218333046Y-77601714D01*
X218333046Y-77601714D02*
X218142570Y-77601714D01*
X218142570Y-77601714D02*
X218047332Y-77649333D01*
X217190189Y-78268380D02*
X217190189Y-77744571D01*
X217190189Y-77744571D02*
X217237808Y-77649333D01*
X217237808Y-77649333D02*
X217333046Y-77601714D01*
X217333046Y-77601714D02*
X217523522Y-77601714D01*
X217523522Y-77601714D02*
X217618760Y-77649333D01*
X217190189Y-78220761D02*
X217285427Y-78268380D01*
X217285427Y-78268380D02*
X217523522Y-78268380D01*
X217523522Y-78268380D02*
X217618760Y-78220761D01*
X217618760Y-78220761D02*
X217666379Y-78125523D01*
X217666379Y-78125523D02*
X217666379Y-78030285D01*
X217666379Y-78030285D02*
X217618760Y-77935047D01*
X217618760Y-77935047D02*
X217523522Y-77887428D01*
X217523522Y-77887428D02*
X217285427Y-77887428D01*
X217285427Y-77887428D02*
X217190189Y-77839809D01*
X216713998Y-77601714D02*
X216713998Y-78268380D01*
X216713998Y-77696952D02*
X216666379Y-77649333D01*
X216666379Y-77649333D02*
X216571141Y-77601714D01*
X216571141Y-77601714D02*
X216428284Y-77601714D01*
X216428284Y-77601714D02*
X216333046Y-77649333D01*
X216333046Y-77649333D02*
X216285427Y-77744571D01*
X216285427Y-77744571D02*
X216285427Y-78268380D01*
X215809236Y-77601714D02*
X215809236Y-78268380D01*
X215809236Y-77696952D02*
X215761617Y-77649333D01*
X215761617Y-77649333D02*
X215666379Y-77601714D01*
X215666379Y-77601714D02*
X215523522Y-77601714D01*
X215523522Y-77601714D02*
X215428284Y-77649333D01*
X215428284Y-77649333D02*
X215380665Y-77744571D01*
X215380665Y-77744571D02*
X215380665Y-78268380D01*
X214523522Y-78220761D02*
X214618760Y-78268380D01*
X214618760Y-78268380D02*
X214809236Y-78268380D01*
X214809236Y-78268380D02*
X214904474Y-78220761D01*
X214904474Y-78220761D02*
X214952093Y-78125523D01*
X214952093Y-78125523D02*
X214952093Y-77744571D01*
X214952093Y-77744571D02*
X214904474Y-77649333D01*
X214904474Y-77649333D02*
X214809236Y-77601714D01*
X214809236Y-77601714D02*
X214618760Y-77601714D01*
X214618760Y-77601714D02*
X214523522Y-77649333D01*
X214523522Y-77649333D02*
X214475903Y-77744571D01*
X214475903Y-77744571D02*
X214475903Y-77839809D01*
X214475903Y-77839809D02*
X214952093Y-77935047D01*
X214047331Y-78268380D02*
X214047331Y-77601714D01*
X214047331Y-77792190D02*
X213999712Y-77696952D01*
X213999712Y-77696952D02*
X213952093Y-77649333D01*
X213952093Y-77649333D02*
X213856855Y-77601714D01*
X213856855Y-77601714D02*
X213761617Y-77601714D01*
D12*
X221384761Y-84944809D02*
X221218095Y-85182904D01*
X221099047Y-84944809D02*
X221099047Y-85444809D01*
X221099047Y-85444809D02*
X221289523Y-85444809D01*
X221289523Y-85444809D02*
X221337142Y-85421000D01*
X221337142Y-85421000D02*
X221360952Y-85397190D01*
X221360952Y-85397190D02*
X221384761Y-85349571D01*
X221384761Y-85349571D02*
X221384761Y-85278142D01*
X221384761Y-85278142D02*
X221360952Y-85230523D01*
X221360952Y-85230523D02*
X221337142Y-85206714D01*
X221337142Y-85206714D02*
X221289523Y-85182904D01*
X221289523Y-85182904D02*
X221099047Y-85182904D01*
X221551428Y-85444809D02*
X221884761Y-84944809D01*
X221884761Y-85444809D02*
X221551428Y-84944809D01*
D13*
%TO.C,BZ1*%
X240928951Y-76948428D02*
X240167047Y-76948428D01*
X240547999Y-77329380D02*
X240547999Y-76567476D01*
D14*
%TO.C,Brd1*%
X196642380Y-73847101D02*
X196723333Y-73806624D01*
X196723333Y-73806624D02*
X196844761Y-73806624D01*
X196844761Y-73806624D02*
X196966190Y-73847101D01*
X196966190Y-73847101D02*
X197047142Y-73928053D01*
X197047142Y-73928053D02*
X197087619Y-74009005D01*
X197087619Y-74009005D02*
X197128095Y-74170910D01*
X197128095Y-74170910D02*
X197128095Y-74292339D01*
X197128095Y-74292339D02*
X197087619Y-74454243D01*
X197087619Y-74454243D02*
X197047142Y-74535196D01*
X197047142Y-74535196D02*
X196966190Y-74616148D01*
X196966190Y-74616148D02*
X196844761Y-74656624D01*
X196844761Y-74656624D02*
X196763809Y-74656624D01*
X196763809Y-74656624D02*
X196642380Y-74616148D01*
X196642380Y-74616148D02*
X196601904Y-74575672D01*
X196601904Y-74575672D02*
X196601904Y-74292339D01*
X196601904Y-74292339D02*
X196763809Y-74292339D01*
X196237619Y-74656624D02*
X196237619Y-73806624D01*
X196237619Y-73806624D02*
X195751904Y-74656624D01*
X195751904Y-74656624D02*
X195751904Y-73806624D01*
X195347143Y-74656624D02*
X195347143Y-73806624D01*
X195347143Y-73806624D02*
X195144762Y-73806624D01*
X195144762Y-73806624D02*
X195023333Y-73847101D01*
X195023333Y-73847101D02*
X194942381Y-73928053D01*
X194942381Y-73928053D02*
X194901904Y-74009005D01*
X194901904Y-74009005D02*
X194861428Y-74170910D01*
X194861428Y-74170910D02*
X194861428Y-74292339D01*
X194861428Y-74292339D02*
X194901904Y-74454243D01*
X194901904Y-74454243D02*
X194942381Y-74535196D01*
X194942381Y-74535196D02*
X195023333Y-74616148D01*
X195023333Y-74616148D02*
X195144762Y-74656624D01*
X195144762Y-74656624D02*
X195347143Y-74656624D01*
X197128095Y-79696148D02*
X197006666Y-79736624D01*
X197006666Y-79736624D02*
X196804285Y-79736624D01*
X196804285Y-79736624D02*
X196723333Y-79696148D01*
X196723333Y-79696148D02*
X196682857Y-79655672D01*
X196682857Y-79655672D02*
X196642380Y-79574720D01*
X196642380Y-79574720D02*
X196642380Y-79493767D01*
X196642380Y-79493767D02*
X196682857Y-79412815D01*
X196682857Y-79412815D02*
X196723333Y-79372339D01*
X196723333Y-79372339D02*
X196804285Y-79331862D01*
X196804285Y-79331862D02*
X196966190Y-79291386D01*
X196966190Y-79291386D02*
X197047142Y-79250910D01*
X197047142Y-79250910D02*
X197087619Y-79210434D01*
X197087619Y-79210434D02*
X197128095Y-79129481D01*
X197128095Y-79129481D02*
X197128095Y-79048529D01*
X197128095Y-79048529D02*
X197087619Y-78967577D01*
X197087619Y-78967577D02*
X197047142Y-78927101D01*
X197047142Y-78927101D02*
X196966190Y-78886624D01*
X196966190Y-78886624D02*
X196763809Y-78886624D01*
X196763809Y-78886624D02*
X196642380Y-78927101D01*
X195792380Y-79655672D02*
X195832856Y-79696148D01*
X195832856Y-79696148D02*
X195954285Y-79736624D01*
X195954285Y-79736624D02*
X196035237Y-79736624D01*
X196035237Y-79736624D02*
X196156666Y-79696148D01*
X196156666Y-79696148D02*
X196237618Y-79615196D01*
X196237618Y-79615196D02*
X196278095Y-79534243D01*
X196278095Y-79534243D02*
X196318571Y-79372339D01*
X196318571Y-79372339D02*
X196318571Y-79250910D01*
X196318571Y-79250910D02*
X196278095Y-79089005D01*
X196278095Y-79089005D02*
X196237618Y-79008053D01*
X196237618Y-79008053D02*
X196156666Y-78927101D01*
X196156666Y-78927101D02*
X196035237Y-78886624D01*
X196035237Y-78886624D02*
X195954285Y-78886624D01*
X195954285Y-78886624D02*
X195832856Y-78927101D01*
X195832856Y-78927101D02*
X195792380Y-78967577D01*
X195023333Y-79736624D02*
X195428095Y-79736624D01*
X195428095Y-79736624D02*
X195428095Y-78886624D01*
X196682857Y-76372024D02*
X197087619Y-76372024D01*
X197087619Y-76372024D02*
X197128095Y-76776786D01*
X197128095Y-76776786D02*
X197087619Y-76736310D01*
X197087619Y-76736310D02*
X197006666Y-76695834D01*
X197006666Y-76695834D02*
X196804285Y-76695834D01*
X196804285Y-76695834D02*
X196723333Y-76736310D01*
X196723333Y-76736310D02*
X196682857Y-76776786D01*
X196682857Y-76776786D02*
X196642380Y-76857739D01*
X196642380Y-76857739D02*
X196642380Y-77060120D01*
X196642380Y-77060120D02*
X196682857Y-77141072D01*
X196682857Y-77141072D02*
X196723333Y-77181548D01*
X196723333Y-77181548D02*
X196804285Y-77222024D01*
X196804285Y-77222024D02*
X197006666Y-77222024D01*
X197006666Y-77222024D02*
X197087619Y-77181548D01*
X197087619Y-77181548D02*
X197128095Y-77141072D01*
X196399523Y-76372024D02*
X196116190Y-77222024D01*
X196116190Y-77222024D02*
X195832856Y-76372024D01*
X197178895Y-82210748D02*
X197057466Y-82251224D01*
X197057466Y-82251224D02*
X196855085Y-82251224D01*
X196855085Y-82251224D02*
X196774133Y-82210748D01*
X196774133Y-82210748D02*
X196733657Y-82170272D01*
X196733657Y-82170272D02*
X196693180Y-82089320D01*
X196693180Y-82089320D02*
X196693180Y-82008367D01*
X196693180Y-82008367D02*
X196733657Y-81927415D01*
X196733657Y-81927415D02*
X196774133Y-81886939D01*
X196774133Y-81886939D02*
X196855085Y-81846462D01*
X196855085Y-81846462D02*
X197016990Y-81805986D01*
X197016990Y-81805986D02*
X197097942Y-81765510D01*
X197097942Y-81765510D02*
X197138419Y-81725034D01*
X197138419Y-81725034D02*
X197178895Y-81644081D01*
X197178895Y-81644081D02*
X197178895Y-81563129D01*
X197178895Y-81563129D02*
X197138419Y-81482177D01*
X197138419Y-81482177D02*
X197097942Y-81441701D01*
X197097942Y-81441701D02*
X197016990Y-81401224D01*
X197016990Y-81401224D02*
X196814609Y-81401224D01*
X196814609Y-81401224D02*
X196693180Y-81441701D01*
X196328895Y-82251224D02*
X196328895Y-81401224D01*
X196328895Y-81401224D02*
X196126514Y-81401224D01*
X196126514Y-81401224D02*
X196005085Y-81441701D01*
X196005085Y-81441701D02*
X195924133Y-81522653D01*
X195924133Y-81522653D02*
X195883656Y-81603605D01*
X195883656Y-81603605D02*
X195843180Y-81765510D01*
X195843180Y-81765510D02*
X195843180Y-81886939D01*
X195843180Y-81886939D02*
X195883656Y-82048843D01*
X195883656Y-82048843D02*
X195924133Y-82129796D01*
X195924133Y-82129796D02*
X196005085Y-82210748D01*
X196005085Y-82210748D02*
X196126514Y-82251224D01*
X196126514Y-82251224D02*
X196328895Y-82251224D01*
X195519371Y-82008367D02*
X195114609Y-82008367D01*
X195600323Y-82251224D02*
X195316990Y-81401224D01*
X195316990Y-81401224D02*
X195033656Y-82251224D01*
D15*
%TO.C,U4*%
X217870000Y-81073000D02*
X217870000Y-83573000D01*
X217870000Y-83573000D02*
X218920000Y-83573000D01*
X218920000Y-83573000D02*
X218920000Y-84563000D01*
X219040000Y-79103000D02*
X222920000Y-79103000D01*
X224090000Y-81073000D02*
X224090000Y-83573000D01*
X224090000Y-83573000D02*
X223040000Y-83573000D01*
%TO.C,R2*%
X236574000Y-89792436D02*
X236574000Y-90246564D01*
X235104000Y-89792436D02*
X235104000Y-90246564D01*
%TO.C,BZ1*%
X242838000Y-79502000D02*
G75*
G03*
X242838000Y-79502000I-6100000J0D01*
G01*
%TO.C,Brd1*%
X197925000Y-73089000D02*
X200338000Y-73089000D01*
X197925000Y-73089000D02*
X197925000Y-82868000D01*
X200338000Y-82868000D02*
X200338000Y-73089000D01*
X197925000Y-82868000D02*
X200338000Y-82868000D01*
%TO.C,D1*%
X239802000Y-91912000D02*
X239802000Y-94597000D01*
X237882000Y-91912000D02*
X239802000Y-91912000D01*
X237882000Y-94597000D02*
X237882000Y-91912000D01*
%TO.C,D2*%
X236762000Y-91912000D02*
X236762000Y-94597000D01*
X234842000Y-91912000D02*
X236762000Y-91912000D01*
X234842000Y-94597000D02*
X234842000Y-91912000D01*
%TO.C,R1*%
X239622000Y-89839436D02*
X239622000Y-90293564D01*
X238152000Y-89839436D02*
X238152000Y-90293564D01*
%TD*%
M02*
