%TF.GenerationSoftware,KiCad,Pcbnew,(7.99.0-200-gad838e3d73)*%
%TF.CreationDate,2024-03-07T11:40:56+07:00*%
%TF.ProjectId,WMS_PCB2,574d535f-5043-4423-922e-6b696361645f,rev?*%
%TF.SameCoordinates,Original*%
%TF.FileFunction,Copper,L2,Bot*%
%TF.FilePolarity,Positive*%
%FSLAX46Y46*%
G04 Gerber Fmt 4.6, Leading zero omitted, Abs format (unit mm)*
G04 Created by KiCad (PCBNEW (7.99.0-200-gad838e3d73)) date 2024-03-07 11:40:56*
%MOMM*%
%LPD*%
G01*
G04 APERTURE LIST*
G04 Aperture macros list*
%AMRoundRect*
0 Rectangle with rounded corners*
0 $1 Rounding radius*
0 $2 $3 $4 $5 $6 $7 $8 $9 X,Y pos of 4 corners*
0 Add a 4 corners polygon primitive as box body*
4,1,4,$2,$3,$4,$5,$6,$7,$8,$9,$2,$3,0*
0 Add four circle primitives for the rounded corners*
1,1,$1+$1,$2,$3*
1,1,$1+$1,$4,$5*
1,1,$1+$1,$6,$7*
1,1,$1+$1,$8,$9*
0 Add four rect primitives between the rounded corners*
20,1,$1+$1,$2,$3,$4,$5,0*
20,1,$1+$1,$4,$5,$6,$7,0*
20,1,$1+$1,$6,$7,$8,$9,0*
20,1,$1+$1,$8,$9,$2,$3,0*%
G04 Aperture macros list end*
%TA.AperFunction,ComponentPad*%
%ADD10C,2.000000*%
%TD*%
%TA.AperFunction,ComponentPad*%
%ADD11C,1.700000*%
%TD*%
%TA.AperFunction,ComponentPad*%
%ADD12RoundRect,0.250000X-0.350000X-0.350000X0.350000X-0.350000X0.350000X0.350000X-0.350000X0.350000X0*%
%TD*%
%TA.AperFunction,ComponentPad*%
%ADD13C,1.200000*%
%TD*%
%TA.AperFunction,SMDPad,CuDef*%
%ADD14RoundRect,0.150000X-0.150000X-0.625000X0.150000X-0.625000X0.150000X0.625000X-0.150000X0.625000X0*%
%TD*%
%TA.AperFunction,SMDPad,CuDef*%
%ADD15RoundRect,0.250000X-0.350000X-0.650000X0.350000X-0.650000X0.350000X0.650000X-0.350000X0.650000X0*%
%TD*%
%TA.AperFunction,SMDPad,CuDef*%
%ADD16RoundRect,0.250000X-0.450000X0.262500X-0.450000X-0.262500X0.450000X-0.262500X0.450000X0.262500X0*%
%TD*%
%TA.AperFunction,ComponentPad*%
%ADD17R,2.000000X2.000000*%
%TD*%
%TA.AperFunction,ComponentPad*%
%ADD18O,2.000000X1.600000*%
%TD*%
%TA.AperFunction,SMDPad,CuDef*%
%ADD19RoundRect,0.243750X-0.456250X0.243750X-0.456250X-0.243750X0.456250X-0.243750X0.456250X0.243750X0*%
%TD*%
%TA.AperFunction,ViaPad*%
%ADD20C,0.800000*%
%TD*%
%TA.AperFunction,Conductor*%
%ADD21C,0.400000*%
%TD*%
%TA.AperFunction,Conductor*%
%ADD22C,0.250000*%
%TD*%
G04 APERTURE END LIST*
D10*
%TO.P,SW1,1,A*%
%TO.N,/PCB1 : Subsistem Data Processing\u002C Gateway\u002C Power/POWER_BUTTON_OUT*%
X232462000Y-99858000D03*
X238962000Y-99858000D03*
%TO.P,SW1,2,B*%
%TO.N,P13_4*%
X232462000Y-104358000D03*
X238962000Y-104358000D03*
%TD*%
%TO.P,SW4,*%
%TO.N,*%
X215360000Y-70582500D03*
X215360000Y-64582500D03*
X203360000Y-70582500D03*
X203360000Y-64582500D03*
D11*
%TO.P,SW4,1,A*%
%TO.N,/PCB1 : Subsistem Data Processing\u002C Gateway\u002C Power/POWER_RFID*%
X213360000Y-68832500D03*
%TO.P,SW4,2,B*%
%TO.N,/PCB1 : Subsistem Data Processing\u002C Gateway\u002C Power/POWER_BUTTON_OUT*%
X209360000Y-68832500D03*
%TO.P,SW4,3,C*%
%TO.N,/PCB1 : Subsistem Data Processing\u002C Gateway\u002C Power/POWER_BARCODE*%
X205360000Y-68832500D03*
%TD*%
D10*
%TO.P,SW3,1,A*%
%TO.N,/PCB1 : Subsistem Data Processing\u002C Gateway\u002C Power/POWER_BUTTON_OUT*%
X242114000Y-99858000D03*
X248614000Y-99858000D03*
%TO.P,SW3,2,B*%
%TO.N,P13_6*%
X242114000Y-104358000D03*
X248614000Y-104358000D03*
%TD*%
D12*
%TO.P,J5,1,Pin_1*%
%TO.N,+5V*%
X218186000Y-100330000D03*
D13*
%TO.P,J5,2,Pin_2*%
%TO.N,GND*%
X218186000Y-102330000D03*
%TO.P,J5,3,Pin_3*%
%TO.N,P12_0*%
X220186000Y-100330000D03*
%TO.P,J5,4,Pin_4*%
%TO.N,P12_1*%
X220186000Y-102330000D03*
%TO.P,J5,5,Pin_5*%
%TO.N,P9_1*%
X222186000Y-100330000D03*
%TO.P,J5,6,Pin_6*%
%TO.N,P9_0*%
X222186000Y-102330000D03*
%TO.P,J5,7,Pin_7*%
%TO.N,P6_0*%
X224186000Y-100330000D03*
%TO.P,J5,8,Pin_8*%
%TO.N,P6_1*%
X224186000Y-102330000D03*
%TO.P,J5,9,Pin_9*%
%TO.N,P9_2*%
X226186000Y-100330000D03*
%TO.P,J5,10,Pin_10*%
%TO.N,P9_4*%
X226186000Y-102330000D03*
%TO.P,J5,11,Pin_11*%
%TO.N,P12_3*%
X228186000Y-100330000D03*
%TO.P,J5,12,Pin_12*%
%TO.N,unconnected-(J5-Pin_12-Pad12)*%
X228186000Y-102330000D03*
%TD*%
D14*
%TO.P,U4,1,5V*%
%TO.N,/PCB1 : Subsistem Data Processing\u002C Gateway\u002C Power/POWER_BARCODE*%
X219480000Y-83788000D03*
%TO.P,U4,2,GND*%
%TO.N,GND*%
X220480000Y-83788000D03*
%TO.P,U4,3,TX*%
%TO.N,P9_1*%
X221480000Y-83788000D03*
%TO.P,U4,4,RX*%
%TO.N,P9_0*%
X222480000Y-83788000D03*
D15*
%TO.P,U4,MP*%
%TO.N,N/C*%
X218180000Y-79913000D03*
X223780000Y-79913000D03*
%TD*%
D16*
%TO.P,R2,1*%
%TO.N,GND*%
X235839000Y-89107000D03*
%TO.P,R2,2*%
%TO.N,Net-(D2-K)*%
X235839000Y-90932000D03*
%TD*%
D17*
%TO.P,BZ1,1,+*%
%TO.N,P12_3*%
X240537999Y-79501999D03*
D10*
%TO.P,BZ1,2,-*%
%TO.N,GND*%
X232938000Y-79502000D03*
%TD*%
D18*
%TO.P,Brd1,1,GND*%
%TO.N,GND*%
X199135999Y-74167999D03*
%TO.P,Brd1,2,VCC*%
%TO.N,+5V*%
X199135999Y-76707999D03*
%TO.P,Brd1,3,SCL*%
%TO.N,P6_0*%
X199135999Y-79247999D03*
%TO.P,Brd1,4,SDA*%
%TO.N,P6_1*%
X199135999Y-81787999D03*
%TD*%
D19*
%TO.P,D1,1,K*%
%TO.N,Net-(D1-K)*%
X238842000Y-92659500D03*
%TO.P,D1,2,A*%
%TO.N,P9_2*%
X238842000Y-94534500D03*
%TD*%
%TO.P,D2,1,K*%
%TO.N,Net-(D2-K)*%
X235802000Y-92659500D03*
%TO.P,D2,2,A*%
%TO.N,P9_4*%
X235802000Y-94534500D03*
%TD*%
D16*
%TO.P,R1,1*%
%TO.N,GND*%
X238887000Y-89154000D03*
%TO.P,R1,2*%
%TO.N,Net-(D1-K)*%
X238887000Y-90979000D03*
%TD*%
D20*
%TO.N,GND*%
X220599000Y-93726000D03*
X218567000Y-96266000D03*
%TO.N,P9_2*%
X234188000Y-82677000D03*
%TO.N,P9_0*%
X211836000Y-94742000D03*
X217424000Y-94742000D03*
X214376000Y-94742000D03*
X222504000Y-90043000D03*
X221488000Y-106553000D03*
%TO.N,P9_1*%
X221488000Y-92964000D03*
%TO.N,P12_0*%
X210820000Y-92710000D03*
X205740000Y-92710000D03*
X214630000Y-92710000D03*
%TD*%
D21*
%TO.N,P6_0*%
X219710000Y-93980000D02*
X223520000Y-97790000D01*
X223520000Y-97790000D02*
X223520000Y-99664000D01*
X223520000Y-99664000D02*
X224186000Y-100330000D01*
X212598000Y-79248000D02*
X219710000Y-86360000D01*
X199136000Y-79248000D02*
X212598000Y-79248000D01*
X219710000Y-86360000D02*
X219710000Y-93980000D01*
%TO.N,P6_1*%
X224186000Y-103474000D02*
X224186000Y-102330000D01*
X213360000Y-102870000D02*
X215900000Y-105410000D01*
X199136000Y-81788000D02*
X210058000Y-81788000D01*
X222250000Y-105410000D02*
X224186000Y-103474000D01*
X213360000Y-85090000D02*
X213360000Y-102870000D01*
X215900000Y-105410000D02*
X222250000Y-105410000D01*
X210058000Y-81788000D02*
X213360000Y-85090000D01*
%TO.N,Net-(D1-K)*%
X238887000Y-90979000D02*
X238887000Y-92614500D01*
X238887000Y-92614500D02*
X238842000Y-92659500D01*
%TO.N,P9_2*%
X242062000Y-86995000D02*
X237744000Y-82677000D01*
X237744000Y-82677000D02*
X234188000Y-82677000D01*
X240491500Y-94534500D02*
X242316000Y-92710000D01*
X242316000Y-92710000D02*
X242316000Y-87249000D01*
X242316000Y-87249000D02*
X242062000Y-86995000D01*
X238842000Y-94534500D02*
X240491500Y-94534500D01*
%TO.N,Net-(D2-K)*%
X235802000Y-90969000D02*
X235802000Y-92659500D01*
X235839000Y-90932000D02*
X235802000Y-90969000D01*
%TO.N,P9_4*%
X229108000Y-104521000D02*
X227203000Y-104521000D01*
X235802000Y-94534500D02*
X234569000Y-95767500D01*
X226314000Y-102458000D02*
X226186000Y-102330000D01*
X234569000Y-95767500D02*
X234569000Y-100965000D01*
X234569000Y-100965000D02*
X233680000Y-101854000D01*
X226314000Y-103632000D02*
X226314000Y-102458000D01*
X233680000Y-101854000D02*
X231775000Y-101854000D01*
X227203000Y-104521000D02*
X226314000Y-103632000D01*
X231775000Y-101854000D02*
X229108000Y-104521000D01*
%TO.N,P9_0*%
X207899000Y-98933000D02*
X215900000Y-106934000D01*
X209296000Y-94742000D02*
X207899000Y-96139000D01*
X211836000Y-94742000D02*
X209296000Y-94742000D01*
X217424000Y-94742000D02*
X214376000Y-94742000D01*
X221107000Y-106934000D02*
X221488000Y-106553000D01*
X222480000Y-90019000D02*
X222504000Y-90043000D01*
X215900000Y-106934000D02*
X221107000Y-106934000D01*
X222480000Y-83788000D02*
X222480000Y-90019000D01*
X207899000Y-96139000D02*
X207899000Y-98933000D01*
%TO.N,P9_1*%
X221615000Y-92964000D02*
X221488000Y-92837000D01*
X221480000Y-83788000D02*
X221480000Y-92829000D01*
X221480000Y-92829000D02*
X221488000Y-92837000D01*
X221488000Y-92964000D02*
X221615000Y-92964000D01*
X221488000Y-92837000D02*
X221488000Y-92964000D01*
D22*
%TO.N,P12_0*%
X214630000Y-92710000D02*
X217170000Y-92710000D01*
X217170000Y-92710000D02*
X220186000Y-95726000D01*
X205740000Y-92710000D02*
X210820000Y-92710000D01*
X220186000Y-95726000D02*
X220186000Y-100330000D01*
D21*
%TO.N,/PCB1 : Subsistem Data Processing\u002C Gateway\u002C Power/POWER_BUTTON_OUT*%
X217997500Y-77470000D02*
X224790000Y-77470000D01*
X209360000Y-68832500D02*
X217997500Y-77470000D01*
X232462000Y-85142000D02*
X232462000Y-99858000D01*
X224790000Y-77470000D02*
X232462000Y-85142000D01*
%TO.N,/PCB1 : Subsistem Data Processing\u002C Gateway\u002C Power/POWER_BARCODE*%
X219480000Y-83788000D02*
X205360000Y-69668000D01*
X205360000Y-69668000D02*
X205360000Y-68832500D01*
%TD*%
%TA.AperFunction,Conductor*%
%TO.N,GND*%
G36*
X250439883Y-62747939D02*
G01*
X250480111Y-62774819D01*
X255995181Y-68289888D01*
X256022061Y-68330116D01*
X256031500Y-68377569D01*
X256031500Y-110946431D01*
X256022061Y-110993884D01*
X255995181Y-111034112D01*
X251242111Y-115787181D01*
X251201883Y-115814061D01*
X251154430Y-115823500D01*
X238811570Y-115823500D01*
X238764117Y-115814061D01*
X238723889Y-115787181D01*
X233680708Y-110744000D01*
X245786341Y-110744000D01*
X245806937Y-110979408D01*
X245808336Y-110984630D01*
X245808337Y-110984634D01*
X245866694Y-111202430D01*
X245866697Y-111202438D01*
X245868097Y-111207663D01*
X245967965Y-111421829D01*
X246103505Y-111615401D01*
X246270599Y-111782495D01*
X246464171Y-111918035D01*
X246678337Y-112017903D01*
X246906592Y-112079063D01*
X247083034Y-112094500D01*
X247198258Y-112094500D01*
X247200966Y-112094500D01*
X247377408Y-112079063D01*
X247605663Y-112017903D01*
X247819829Y-111918035D01*
X248013401Y-111782495D01*
X248180495Y-111615401D01*
X248316035Y-111421830D01*
X248415903Y-111207663D01*
X248477063Y-110979408D01*
X248497659Y-110744000D01*
X248477063Y-110508592D01*
X248415903Y-110280337D01*
X248316035Y-110066171D01*
X248180495Y-109872599D01*
X248013401Y-109705505D01*
X247819829Y-109569965D01*
X247605663Y-109470097D01*
X247600438Y-109468697D01*
X247600430Y-109468694D01*
X247382634Y-109410337D01*
X247382630Y-109410336D01*
X247377408Y-109408937D01*
X247372020Y-109408465D01*
X247372017Y-109408465D01*
X247203664Y-109393736D01*
X247203662Y-109393735D01*
X247200966Y-109393500D01*
X247083034Y-109393500D01*
X247080338Y-109393735D01*
X247080335Y-109393736D01*
X246911982Y-109408465D01*
X246911977Y-109408465D01*
X246906592Y-109408937D01*
X246901371Y-109410335D01*
X246901365Y-109410337D01*
X246683569Y-109468694D01*
X246683557Y-109468698D01*
X246678337Y-109470097D01*
X246673432Y-109472383D01*
X246673427Y-109472386D01*
X246469081Y-109567675D01*
X246469077Y-109567677D01*
X246464171Y-109569965D01*
X246459738Y-109573068D01*
X246459731Y-109573073D01*
X246275034Y-109702399D01*
X246275029Y-109702402D01*
X246270599Y-109705505D01*
X246266775Y-109709328D01*
X246266769Y-109709334D01*
X246107336Y-109868767D01*
X246107330Y-109868773D01*
X246103505Y-109872599D01*
X246100406Y-109877023D01*
X246100399Y-109877033D01*
X245971066Y-110061740D01*
X245971061Y-110061747D01*
X245967965Y-110066170D01*
X245965683Y-110071061D01*
X245965678Y-110071072D01*
X245870386Y-110275427D01*
X245870383Y-110275432D01*
X245868097Y-110280337D01*
X245866698Y-110285557D01*
X245866694Y-110285569D01*
X245808337Y-110503365D01*
X245808335Y-110503371D01*
X245806937Y-110508592D01*
X245786341Y-110744000D01*
X233680708Y-110744000D01*
X230387010Y-107450302D01*
X230378423Y-107441715D01*
X230378383Y-107441617D01*
X230378284Y-107441576D01*
X230378000Y-107441458D01*
X230377899Y-107441500D01*
X222176425Y-107441500D01*
X222118976Y-107427389D01*
X222074602Y-107388268D01*
X222053403Y-107333040D01*
X222060203Y-107274276D01*
X222092323Y-107227012D01*
X222093871Y-107225888D01*
X222220533Y-107085216D01*
X222315179Y-106921284D01*
X222373674Y-106741256D01*
X222393460Y-106553000D01*
X222373674Y-106364744D01*
X222336841Y-106251387D01*
X222334142Y-106184363D01*
X222366743Y-106125739D01*
X222419196Y-106096019D01*
X222418864Y-106095143D01*
X222418872Y-106095140D01*
X222428332Y-106091551D01*
X222449959Y-106085522D01*
X222459932Y-106083695D01*
X222514808Y-106058996D01*
X222521673Y-106056152D01*
X222577930Y-106034818D01*
X222586264Y-106029064D01*
X222605821Y-106018034D01*
X222615057Y-106013878D01*
X222662413Y-105976775D01*
X222668420Y-105972355D01*
X222717929Y-105938183D01*
X222757822Y-105893151D01*
X222762924Y-105887731D01*
X224663731Y-103986924D01*
X224669151Y-103981822D01*
X224714183Y-103941929D01*
X224748362Y-103892410D01*
X224752779Y-103886407D01*
X224789877Y-103839057D01*
X224794030Y-103829826D01*
X224805058Y-103810272D01*
X224810818Y-103801930D01*
X224832149Y-103745680D01*
X224835014Y-103738766D01*
X224856614Y-103690776D01*
X224856614Y-103690773D01*
X224859694Y-103683932D01*
X224861518Y-103673974D01*
X224867548Y-103652340D01*
X224871140Y-103642872D01*
X224878389Y-103583165D01*
X224879516Y-103575762D01*
X224890357Y-103516606D01*
X224886726Y-103456578D01*
X224886500Y-103449091D01*
X224886500Y-103235319D01*
X224897065Y-103185233D01*
X224926962Y-103143682D01*
X224974135Y-103100678D01*
X225002764Y-103074579D01*
X225074812Y-102979172D01*
X225087046Y-102962972D01*
X225130728Y-102926698D01*
X225186000Y-102913698D01*
X225241272Y-102926698D01*
X225284954Y-102962972D01*
X225365774Y-103069996D01*
X225365778Y-103070000D01*
X225369236Y-103074579D01*
X225373472Y-103078440D01*
X225373476Y-103078445D01*
X225475227Y-103171203D01*
X225519959Y-103211981D01*
X225554777Y-103233539D01*
X225597829Y-103278627D01*
X225613500Y-103338966D01*
X225613500Y-103607079D01*
X225613274Y-103614567D01*
X225610094Y-103667118D01*
X225610094Y-103667126D01*
X225609642Y-103674606D01*
X225610993Y-103681982D01*
X225610994Y-103681987D01*
X225620483Y-103733771D01*
X225621610Y-103741171D01*
X225627955Y-103793425D01*
X225627956Y-103793430D01*
X225628860Y-103800872D01*
X225631519Y-103807885D01*
X225631521Y-103807891D01*
X225632450Y-103810340D01*
X225638475Y-103831952D01*
X225638951Y-103834551D01*
X225638954Y-103834560D01*
X225640305Y-103841932D01*
X225643382Y-103848769D01*
X225643383Y-103848772D01*
X225664991Y-103896784D01*
X225667857Y-103903702D01*
X225689182Y-103959930D01*
X225693442Y-103966102D01*
X225693445Y-103966107D01*
X225694937Y-103968268D01*
X225705959Y-103987810D01*
X225707039Y-103990210D01*
X225707044Y-103990219D01*
X225710122Y-103997057D01*
X225714745Y-104002958D01*
X225714747Y-104002961D01*
X225747216Y-104044404D01*
X225751636Y-104050410D01*
X225785817Y-104099929D01*
X225830847Y-104139822D01*
X225836282Y-104144939D01*
X226690059Y-104998716D01*
X226695193Y-105004170D01*
X226735071Y-105049183D01*
X226784577Y-105083355D01*
X226790597Y-105087785D01*
X226837943Y-105124878D01*
X226844779Y-105127954D01*
X226844785Y-105127958D01*
X226847179Y-105129035D01*
X226866733Y-105140063D01*
X226875070Y-105145818D01*
X226931288Y-105167138D01*
X226931296Y-105167141D01*
X226938217Y-105170007D01*
X226993069Y-105194695D01*
X227003041Y-105196522D01*
X227024656Y-105202547D01*
X227034128Y-105206140D01*
X227091831Y-105213146D01*
X227093815Y-105213387D01*
X227101222Y-105214514D01*
X227160394Y-105225358D01*
X227220433Y-105221725D01*
X227227921Y-105221500D01*
X229083079Y-105221500D01*
X229090566Y-105221725D01*
X229150606Y-105225358D01*
X229209782Y-105214513D01*
X229217181Y-105213387D01*
X229276872Y-105206140D01*
X229286332Y-105202551D01*
X229307959Y-105196522D01*
X229317932Y-105194695D01*
X229372808Y-105169996D01*
X229379673Y-105167152D01*
X229435930Y-105145818D01*
X229444264Y-105140064D01*
X229463821Y-105129034D01*
X229473057Y-105124878D01*
X229520413Y-105087775D01*
X229526420Y-105083355D01*
X229575929Y-105049183D01*
X229615822Y-105004151D01*
X229620924Y-104998731D01*
X230816959Y-103802696D01*
X230872214Y-103770693D01*
X230936071Y-103770429D01*
X230991591Y-103801976D01*
X231024052Y-103856967D01*
X231024844Y-103920819D01*
X230978151Y-104105203D01*
X230978148Y-104105215D01*
X230976892Y-104110179D01*
X230976468Y-104115288D01*
X230976467Y-104115298D01*
X230956781Y-104352883D01*
X230956357Y-104358000D01*
X230956781Y-104363117D01*
X230976467Y-104600701D01*
X230976468Y-104600709D01*
X230976892Y-104605821D01*
X230978149Y-104610788D01*
X230978151Y-104610795D01*
X231036678Y-104841910D01*
X231037937Y-104846881D01*
X231039997Y-104851577D01*
X231135766Y-105069910D01*
X231135769Y-105069916D01*
X231137827Y-105074607D01*
X231140627Y-105078893D01*
X231140631Y-105078900D01*
X231233944Y-105221726D01*
X231273836Y-105282785D01*
X231277310Y-105286559D01*
X231277311Y-105286560D01*
X231438784Y-105461967D01*
X231438787Y-105461970D01*
X231442256Y-105465738D01*
X231638491Y-105618474D01*
X231857190Y-105736828D01*
X232092386Y-105817571D01*
X232337665Y-105858500D01*
X232581201Y-105858500D01*
X232586335Y-105858500D01*
X232831614Y-105817571D01*
X233066810Y-105736828D01*
X233285509Y-105618474D01*
X233481744Y-105465738D01*
X233650164Y-105282785D01*
X233786173Y-105074607D01*
X233886063Y-104846881D01*
X233947108Y-104605821D01*
X233967643Y-104358000D01*
X237456357Y-104358000D01*
X237456781Y-104363117D01*
X237476467Y-104600701D01*
X237476468Y-104600709D01*
X237476892Y-104605821D01*
X237478149Y-104610788D01*
X237478151Y-104610795D01*
X237536678Y-104841910D01*
X237537937Y-104846881D01*
X237539997Y-104851577D01*
X237635766Y-105069910D01*
X237635769Y-105069916D01*
X237637827Y-105074607D01*
X237640627Y-105078893D01*
X237640631Y-105078900D01*
X237733944Y-105221726D01*
X237773836Y-105282785D01*
X237777310Y-105286559D01*
X237777311Y-105286560D01*
X237938784Y-105461967D01*
X237938787Y-105461970D01*
X237942256Y-105465738D01*
X238138491Y-105618474D01*
X238357190Y-105736828D01*
X238592386Y-105817571D01*
X238837665Y-105858500D01*
X239081201Y-105858500D01*
X239086335Y-105858500D01*
X239331614Y-105817571D01*
X239566810Y-105736828D01*
X239785509Y-105618474D01*
X239981744Y-105465738D01*
X240150164Y-105282785D01*
X240286173Y-105074607D01*
X240386063Y-104846881D01*
X240417794Y-104721577D01*
X240449597Y-104665065D01*
X240505576Y-104632332D01*
X240570424Y-104632332D01*
X240626403Y-104665065D01*
X240658205Y-104721577D01*
X240689937Y-104846881D01*
X240691997Y-104851577D01*
X240787766Y-105069910D01*
X240787769Y-105069916D01*
X240789827Y-105074607D01*
X240792627Y-105078893D01*
X240792631Y-105078900D01*
X240885944Y-105221726D01*
X240925836Y-105282785D01*
X240929310Y-105286559D01*
X240929311Y-105286560D01*
X241090784Y-105461967D01*
X241090787Y-105461970D01*
X241094256Y-105465738D01*
X241290491Y-105618474D01*
X241509190Y-105736828D01*
X241744386Y-105817571D01*
X241989665Y-105858500D01*
X242233201Y-105858500D01*
X242238335Y-105858500D01*
X242483614Y-105817571D01*
X242718810Y-105736828D01*
X242937509Y-105618474D01*
X243133744Y-105465738D01*
X243302164Y-105282785D01*
X243438173Y-105074607D01*
X243538063Y-104846881D01*
X243599108Y-104605821D01*
X243619643Y-104358000D01*
X247108357Y-104358000D01*
X247108781Y-104363117D01*
X247128467Y-104600701D01*
X247128468Y-104600709D01*
X247128892Y-104605821D01*
X247130149Y-104610788D01*
X247130151Y-104610795D01*
X247188678Y-104841910D01*
X247189937Y-104846881D01*
X247191997Y-104851577D01*
X247287766Y-105069910D01*
X247287769Y-105069916D01*
X247289827Y-105074607D01*
X247292627Y-105078893D01*
X247292631Y-105078900D01*
X247385944Y-105221726D01*
X247425836Y-105282785D01*
X247429310Y-105286559D01*
X247429311Y-105286560D01*
X247590784Y-105461967D01*
X247590787Y-105461970D01*
X247594256Y-105465738D01*
X247790491Y-105618474D01*
X248009190Y-105736828D01*
X248244386Y-105817571D01*
X248489665Y-105858500D01*
X248733201Y-105858500D01*
X248738335Y-105858500D01*
X248983614Y-105817571D01*
X249218810Y-105736828D01*
X249437509Y-105618474D01*
X249633744Y-105465738D01*
X249802164Y-105282785D01*
X249938173Y-105074607D01*
X250038063Y-104846881D01*
X250099108Y-104605821D01*
X250119643Y-104358000D01*
X250099108Y-104110179D01*
X250038063Y-103869119D01*
X249938173Y-103641393D01*
X249802164Y-103433215D01*
X249699247Y-103321417D01*
X249637215Y-103254032D01*
X249637211Y-103254029D01*
X249633744Y-103250262D01*
X249437509Y-103097526D01*
X249432180Y-103094642D01*
X249223316Y-102981610D01*
X249223310Y-102981607D01*
X249218810Y-102979172D01*
X249213969Y-102977510D01*
X249213962Y-102977507D01*
X248988465Y-102900094D01*
X248988461Y-102900093D01*
X248983614Y-102898429D01*
X248947328Y-102892374D01*
X248743398Y-102858344D01*
X248743387Y-102858343D01*
X248738335Y-102857500D01*
X248489665Y-102857500D01*
X248484613Y-102858343D01*
X248484601Y-102858344D01*
X248249443Y-102897585D01*
X248249441Y-102897585D01*
X248244386Y-102898429D01*
X248239541Y-102900092D01*
X248239534Y-102900094D01*
X248014037Y-102977507D01*
X248014026Y-102977511D01*
X248009190Y-102979172D01*
X248004693Y-102981605D01*
X248004683Y-102981610D01*
X247795002Y-103095084D01*
X247794995Y-103095088D01*
X247790491Y-103097526D01*
X247786448Y-103100672D01*
X247786440Y-103100678D01*
X247598304Y-103247111D01*
X247594256Y-103250262D01*
X247590793Y-103254023D01*
X247590784Y-103254032D01*
X247429311Y-103429439D01*
X247429305Y-103429446D01*
X247425836Y-103433215D01*
X247423031Y-103437506D01*
X247423028Y-103437512D01*
X247292631Y-103637099D01*
X247292624Y-103637111D01*
X247289827Y-103641393D01*
X247287772Y-103646077D01*
X247287766Y-103646089D01*
X247198862Y-103848772D01*
X247189937Y-103869119D01*
X247188679Y-103874084D01*
X247188678Y-103874089D01*
X247130151Y-104105204D01*
X247130149Y-104105213D01*
X247128892Y-104110179D01*
X247128468Y-104115288D01*
X247128467Y-104115298D01*
X247108781Y-104352883D01*
X247108357Y-104358000D01*
X243619643Y-104358000D01*
X243599108Y-104110179D01*
X243538063Y-103869119D01*
X243438173Y-103641393D01*
X243302164Y-103433215D01*
X243199247Y-103321417D01*
X243137215Y-103254032D01*
X243137211Y-103254029D01*
X243133744Y-103250262D01*
X242937509Y-103097526D01*
X242932180Y-103094642D01*
X242723316Y-102981610D01*
X242723310Y-102981607D01*
X242718810Y-102979172D01*
X242713969Y-102977510D01*
X242713962Y-102977507D01*
X242488465Y-102900094D01*
X242488461Y-102900093D01*
X242483614Y-102898429D01*
X242447328Y-102892374D01*
X242243398Y-102858344D01*
X242243387Y-102858343D01*
X242238335Y-102857500D01*
X241989665Y-102857500D01*
X241984613Y-102858343D01*
X241984601Y-102858344D01*
X241749443Y-102897585D01*
X241749441Y-102897585D01*
X241744386Y-102898429D01*
X241739541Y-102900092D01*
X241739534Y-102900094D01*
X241514037Y-102977507D01*
X241514026Y-102977511D01*
X241509190Y-102979172D01*
X241504693Y-102981605D01*
X241504683Y-102981610D01*
X241295002Y-103095084D01*
X241294995Y-103095088D01*
X241290491Y-103097526D01*
X241286448Y-103100672D01*
X241286440Y-103100678D01*
X241098304Y-103247111D01*
X241094256Y-103250262D01*
X241090793Y-103254023D01*
X241090784Y-103254032D01*
X240929311Y-103429439D01*
X240929305Y-103429446D01*
X240925836Y-103433215D01*
X240923031Y-103437506D01*
X240923028Y-103437512D01*
X240792631Y-103637099D01*
X240792624Y-103637111D01*
X240789827Y-103641393D01*
X240787772Y-103646077D01*
X240787766Y-103646089D01*
X240698862Y-103848772D01*
X240689937Y-103869119D01*
X240688679Y-103874084D01*
X240688678Y-103874089D01*
X240658206Y-103994421D01*
X240626403Y-104050934D01*
X240570423Y-104083667D01*
X240505577Y-104083667D01*
X240449597Y-104050934D01*
X240417794Y-103994421D01*
X240410624Y-103966107D01*
X240386063Y-103869119D01*
X240286173Y-103641393D01*
X240150164Y-103433215D01*
X240047247Y-103321417D01*
X239985215Y-103254032D01*
X239985211Y-103254029D01*
X239981744Y-103250262D01*
X239785509Y-103097526D01*
X239780180Y-103094642D01*
X239571316Y-102981610D01*
X239571310Y-102981607D01*
X239566810Y-102979172D01*
X239561969Y-102977510D01*
X239561962Y-102977507D01*
X239336465Y-102900094D01*
X239336461Y-102900093D01*
X239331614Y-102898429D01*
X239295328Y-102892374D01*
X239091398Y-102858344D01*
X239091387Y-102858343D01*
X239086335Y-102857500D01*
X238837665Y-102857500D01*
X238832613Y-102858343D01*
X238832601Y-102858344D01*
X238597443Y-102897585D01*
X238597441Y-102897585D01*
X238592386Y-102898429D01*
X238587541Y-102900092D01*
X238587534Y-102900094D01*
X238362037Y-102977507D01*
X238362026Y-102977511D01*
X238357190Y-102979172D01*
X238352693Y-102981605D01*
X238352683Y-102981610D01*
X238143002Y-103095084D01*
X238142995Y-103095088D01*
X238138491Y-103097526D01*
X238134448Y-103100672D01*
X238134440Y-103100678D01*
X237946304Y-103247111D01*
X237942256Y-103250262D01*
X237938793Y-103254023D01*
X237938784Y-103254032D01*
X237777311Y-103429439D01*
X237777305Y-103429446D01*
X237773836Y-103433215D01*
X237771031Y-103437506D01*
X237771028Y-103437512D01*
X237640631Y-103637099D01*
X237640624Y-103637111D01*
X237637827Y-103641393D01*
X237635772Y-103646077D01*
X237635766Y-103646089D01*
X237546862Y-103848772D01*
X237537937Y-103869119D01*
X237536679Y-103874084D01*
X237536678Y-103874089D01*
X237478151Y-104105204D01*
X237478149Y-104105213D01*
X237476892Y-104110179D01*
X237476468Y-104115288D01*
X237476467Y-104115298D01*
X237456781Y-104352883D01*
X237456357Y-104358000D01*
X233967643Y-104358000D01*
X233947108Y-104110179D01*
X233886063Y-103869119D01*
X233786173Y-103641393D01*
X233650164Y-103433215D01*
X233547247Y-103321417D01*
X233485215Y-103254032D01*
X233485211Y-103254029D01*
X233481744Y-103250262D01*
X233285509Y-103097526D01*
X233280180Y-103094642D01*
X233071316Y-102981610D01*
X233071310Y-102981607D01*
X233066810Y-102979172D01*
X233061969Y-102977510D01*
X233061962Y-102977507D01*
X232836465Y-102900094D01*
X232836461Y-102900093D01*
X232831614Y-102898429D01*
X232795328Y-102892374D01*
X232591398Y-102858344D01*
X232591387Y-102858343D01*
X232586335Y-102857500D01*
X232337665Y-102857500D01*
X232332613Y-102858343D01*
X232332601Y-102858344D01*
X232097443Y-102897585D01*
X232097441Y-102897585D01*
X232092386Y-102898429D01*
X232087544Y-102900091D01*
X232087541Y-102900092D01*
X232034134Y-102918427D01*
X231968424Y-102922506D01*
X231909888Y-102892374D01*
X231875027Y-102836526D01*
X231873667Y-102770704D01*
X231906188Y-102713467D01*
X232028840Y-102590815D01*
X232069065Y-102563939D01*
X232116518Y-102554500D01*
X233655079Y-102554500D01*
X233662566Y-102554725D01*
X233722606Y-102558358D01*
X233781782Y-102547513D01*
X233789181Y-102546387D01*
X233848872Y-102539140D01*
X233858332Y-102535551D01*
X233879959Y-102529522D01*
X233889932Y-102527695D01*
X233944808Y-102502996D01*
X233951673Y-102500152D01*
X234007930Y-102478818D01*
X234016264Y-102473064D01*
X234035821Y-102462034D01*
X234045057Y-102457878D01*
X234092413Y-102420775D01*
X234098420Y-102416355D01*
X234147929Y-102382183D01*
X234187822Y-102337151D01*
X234192924Y-102331731D01*
X235046731Y-101477924D01*
X235052151Y-101472822D01*
X235097183Y-101432929D01*
X235131355Y-101383420D01*
X235135775Y-101377413D01*
X235172878Y-101330057D01*
X235177034Y-101320821D01*
X235188064Y-101301264D01*
X235193818Y-101292930D01*
X235215145Y-101236690D01*
X235218010Y-101229776D01*
X235242695Y-101174931D01*
X235244522Y-101164957D01*
X235250548Y-101143340D01*
X235254140Y-101133872D01*
X235261386Y-101074184D01*
X235262514Y-101066776D01*
X235263680Y-101060415D01*
X235273358Y-101007606D01*
X235269725Y-100947566D01*
X235269500Y-100940079D01*
X235269500Y-99858000D01*
X237456357Y-99858000D01*
X237456781Y-99863117D01*
X237476467Y-100100701D01*
X237476468Y-100100709D01*
X237476892Y-100105821D01*
X237478149Y-100110788D01*
X237478151Y-100110795D01*
X237532216Y-100324291D01*
X237537937Y-100346881D01*
X237539997Y-100351577D01*
X237635766Y-100569910D01*
X237635769Y-100569916D01*
X237637827Y-100574607D01*
X237640627Y-100578893D01*
X237640631Y-100578900D01*
X237703314Y-100674843D01*
X237773836Y-100782785D01*
X237777310Y-100786559D01*
X237777311Y-100786560D01*
X237938784Y-100961967D01*
X237938787Y-100961970D01*
X237942256Y-100965738D01*
X238138491Y-101118474D01*
X238357190Y-101236828D01*
X238592386Y-101317571D01*
X238837665Y-101358500D01*
X239081201Y-101358500D01*
X239086335Y-101358500D01*
X239331614Y-101317571D01*
X239566810Y-101236828D01*
X239785509Y-101118474D01*
X239981744Y-100965738D01*
X240150164Y-100782785D01*
X240286173Y-100574607D01*
X240386063Y-100346881D01*
X240417794Y-100221577D01*
X240449597Y-100165065D01*
X240505576Y-100132332D01*
X240570424Y-100132332D01*
X240626403Y-100165065D01*
X240658205Y-100221577D01*
X240689937Y-100346881D01*
X240691997Y-100351577D01*
X240787766Y-100569910D01*
X240787769Y-100569916D01*
X240789827Y-100574607D01*
X240792627Y-100578893D01*
X240792631Y-100578900D01*
X240855314Y-100674843D01*
X240925836Y-100782785D01*
X240929310Y-100786559D01*
X240929311Y-100786560D01*
X241090784Y-100961967D01*
X241090787Y-100961970D01*
X241094256Y-100965738D01*
X241290491Y-101118474D01*
X241509190Y-101236828D01*
X241744386Y-101317571D01*
X241989665Y-101358500D01*
X242233201Y-101358500D01*
X242238335Y-101358500D01*
X242483614Y-101317571D01*
X242718810Y-101236828D01*
X242937509Y-101118474D01*
X243133744Y-100965738D01*
X243302164Y-100782785D01*
X243438173Y-100574607D01*
X243538063Y-100346881D01*
X243599108Y-100105821D01*
X243619643Y-99858000D01*
X247108357Y-99858000D01*
X247108781Y-99863117D01*
X247128467Y-100100701D01*
X247128468Y-100100709D01*
X247128892Y-100105821D01*
X247130149Y-100110788D01*
X247130151Y-100110795D01*
X247184216Y-100324291D01*
X247189937Y-100346881D01*
X247191997Y-100351577D01*
X247287766Y-100569910D01*
X247287769Y-100569916D01*
X247289827Y-100574607D01*
X247292627Y-100578893D01*
X247292631Y-100578900D01*
X247355314Y-100674843D01*
X247425836Y-100782785D01*
X247429310Y-100786559D01*
X247429311Y-100786560D01*
X247590784Y-100961967D01*
X247590787Y-100961970D01*
X247594256Y-100965738D01*
X247790491Y-101118474D01*
X248009190Y-101236828D01*
X248244386Y-101317571D01*
X248489665Y-101358500D01*
X248733201Y-101358500D01*
X248738335Y-101358500D01*
X248983614Y-101317571D01*
X249218810Y-101236828D01*
X249437509Y-101118474D01*
X249633744Y-100965738D01*
X249802164Y-100782785D01*
X249938173Y-100574607D01*
X250038063Y-100346881D01*
X250099108Y-100105821D01*
X250119643Y-99858000D01*
X250099108Y-99610179D01*
X250038063Y-99369119D01*
X249950366Y-99169190D01*
X249940233Y-99146089D01*
X249940232Y-99146087D01*
X249938173Y-99141393D01*
X249934356Y-99135551D01*
X249866740Y-99032057D01*
X249802164Y-98933215D01*
X249633744Y-98750262D01*
X249437509Y-98597526D01*
X249426339Y-98591481D01*
X249223316Y-98481610D01*
X249223310Y-98481607D01*
X249218810Y-98479172D01*
X249213969Y-98477510D01*
X249213962Y-98477507D01*
X248988465Y-98400094D01*
X248988461Y-98400093D01*
X248983614Y-98398429D01*
X248974768Y-98396952D01*
X248743398Y-98358344D01*
X248743387Y-98358343D01*
X248738335Y-98357500D01*
X248489665Y-98357500D01*
X248484613Y-98358343D01*
X248484601Y-98358344D01*
X248249443Y-98397585D01*
X248249441Y-98397585D01*
X248244386Y-98398429D01*
X248239541Y-98400092D01*
X248239534Y-98400094D01*
X248014037Y-98477507D01*
X248014026Y-98477511D01*
X248009190Y-98479172D01*
X248004693Y-98481605D01*
X248004683Y-98481610D01*
X247795002Y-98595084D01*
X247794995Y-98595088D01*
X247790491Y-98597526D01*
X247786448Y-98600672D01*
X247786440Y-98600678D01*
X247598304Y-98747111D01*
X247594256Y-98750262D01*
X247590793Y-98754023D01*
X247590784Y-98754032D01*
X247429311Y-98929439D01*
X247429305Y-98929446D01*
X247425836Y-98933215D01*
X247423031Y-98937506D01*
X247423028Y-98937512D01*
X247292631Y-99137099D01*
X247292624Y-99137111D01*
X247289827Y-99141393D01*
X247287772Y-99146077D01*
X247287766Y-99146089D01*
X247197693Y-99351436D01*
X247189937Y-99369119D01*
X247188679Y-99374084D01*
X247188678Y-99374089D01*
X247130151Y-99605204D01*
X247130149Y-99605213D01*
X247128892Y-99610179D01*
X247128468Y-99615288D01*
X247128467Y-99615298D01*
X247117457Y-99748179D01*
X247108357Y-99858000D01*
X243619643Y-99858000D01*
X243599108Y-99610179D01*
X243538063Y-99369119D01*
X243450366Y-99169190D01*
X243440233Y-99146089D01*
X243440232Y-99146087D01*
X243438173Y-99141393D01*
X243434356Y-99135551D01*
X243366740Y-99032057D01*
X243302164Y-98933215D01*
X243133744Y-98750262D01*
X242937509Y-98597526D01*
X242926339Y-98591481D01*
X242723316Y-98481610D01*
X242723310Y-98481607D01*
X242718810Y-98479172D01*
X242713969Y-98477510D01*
X242713962Y-98477507D01*
X242488465Y-98400094D01*
X242488461Y-98400093D01*
X242483614Y-98398429D01*
X242474768Y-98396952D01*
X242243398Y-98358344D01*
X242243387Y-98358343D01*
X242238335Y-98357500D01*
X241989665Y-98357500D01*
X241984613Y-98358343D01*
X241984601Y-98358344D01*
X241749443Y-98397585D01*
X241749441Y-98397585D01*
X241744386Y-98398429D01*
X241739541Y-98400092D01*
X241739534Y-98400094D01*
X241514037Y-98477507D01*
X241514026Y-98477511D01*
X241509190Y-98479172D01*
X241504693Y-98481605D01*
X241504683Y-98481610D01*
X241295002Y-98595084D01*
X241294995Y-98595088D01*
X241290491Y-98597526D01*
X241286448Y-98600672D01*
X241286440Y-98600678D01*
X241098304Y-98747111D01*
X241094256Y-98750262D01*
X241090793Y-98754023D01*
X241090784Y-98754032D01*
X240929311Y-98929439D01*
X240929305Y-98929446D01*
X240925836Y-98933215D01*
X240923031Y-98937506D01*
X240923028Y-98937512D01*
X240792631Y-99137099D01*
X240792624Y-99137111D01*
X240789827Y-99141393D01*
X240787772Y-99146077D01*
X240787766Y-99146089D01*
X240697693Y-99351436D01*
X240689937Y-99369119D01*
X240688679Y-99374084D01*
X240688678Y-99374089D01*
X240658206Y-99494421D01*
X240626403Y-99550934D01*
X240570423Y-99583667D01*
X240505577Y-99583667D01*
X240449597Y-99550934D01*
X240417794Y-99494421D01*
X240405660Y-99446506D01*
X240386063Y-99369119D01*
X240298366Y-99169190D01*
X240288233Y-99146089D01*
X240288232Y-99146087D01*
X240286173Y-99141393D01*
X240282356Y-99135551D01*
X240214740Y-99032057D01*
X240150164Y-98933215D01*
X239981744Y-98750262D01*
X239785509Y-98597526D01*
X239774339Y-98591481D01*
X239571316Y-98481610D01*
X239571310Y-98481607D01*
X239566810Y-98479172D01*
X239561969Y-98477510D01*
X239561962Y-98477507D01*
X239336465Y-98400094D01*
X239336461Y-98400093D01*
X239331614Y-98398429D01*
X239322768Y-98396952D01*
X239091398Y-98358344D01*
X239091387Y-98358343D01*
X239086335Y-98357500D01*
X238837665Y-98357500D01*
X238832613Y-98358343D01*
X238832601Y-98358344D01*
X238597443Y-98397585D01*
X238597441Y-98397585D01*
X238592386Y-98398429D01*
X238587541Y-98400092D01*
X238587534Y-98400094D01*
X238362037Y-98477507D01*
X238362026Y-98477511D01*
X238357190Y-98479172D01*
X238352693Y-98481605D01*
X238352683Y-98481610D01*
X238143002Y-98595084D01*
X238142995Y-98595088D01*
X238138491Y-98597526D01*
X238134448Y-98600672D01*
X238134440Y-98600678D01*
X237946304Y-98747111D01*
X237942256Y-98750262D01*
X237938793Y-98754023D01*
X237938784Y-98754032D01*
X237777311Y-98929439D01*
X237777305Y-98929446D01*
X237773836Y-98933215D01*
X237771031Y-98937506D01*
X237771028Y-98937512D01*
X237640631Y-99137099D01*
X237640624Y-99137111D01*
X237637827Y-99141393D01*
X237635772Y-99146077D01*
X237635766Y-99146089D01*
X237545693Y-99351436D01*
X237537937Y-99369119D01*
X237536679Y-99374084D01*
X237536678Y-99374089D01*
X237478151Y-99605204D01*
X237478149Y-99605213D01*
X237476892Y-99610179D01*
X237476468Y-99615288D01*
X237476467Y-99615298D01*
X237465457Y-99748179D01*
X237456357Y-99858000D01*
X235269500Y-99858000D01*
X235269500Y-96109019D01*
X235278939Y-96061566D01*
X235305819Y-96021338D01*
X235768338Y-95558819D01*
X235808566Y-95531939D01*
X235856019Y-95522500D01*
X236304699Y-95522500D01*
X236307848Y-95522500D01*
X236409775Y-95512087D01*
X236574925Y-95457362D01*
X236723003Y-95366026D01*
X236846026Y-95243003D01*
X236937362Y-95094925D01*
X236992087Y-94929775D01*
X237002500Y-94827848D01*
X237002500Y-94241152D01*
X236992087Y-94139225D01*
X236937362Y-93974075D01*
X236846026Y-93825997D01*
X236723003Y-93702974D01*
X236716851Y-93699179D01*
X236711191Y-93694704D01*
X236712812Y-93692653D01*
X236679056Y-93657324D01*
X236663393Y-93596872D01*
X236679180Y-93536452D01*
X236712833Y-93501373D01*
X236711191Y-93499296D01*
X236716849Y-93494821D01*
X236723003Y-93491026D01*
X236846026Y-93368003D01*
X236937362Y-93219925D01*
X236992087Y-93054775D01*
X237002500Y-92952848D01*
X237002500Y-92366152D01*
X236992087Y-92264225D01*
X236937362Y-92099075D01*
X236846026Y-91950997D01*
X236807629Y-91912600D01*
X236775535Y-91857012D01*
X236775535Y-91792825D01*
X236807626Y-91737241D01*
X236881712Y-91663156D01*
X236973814Y-91513834D01*
X237028999Y-91347297D01*
X237039500Y-91244509D01*
X237039499Y-90619492D01*
X237028999Y-90516703D01*
X236973814Y-90350166D01*
X236907552Y-90242738D01*
X236885502Y-90206988D01*
X236885500Y-90206985D01*
X236881712Y-90200844D01*
X236787695Y-90106827D01*
X236755601Y-90051239D01*
X236755601Y-89987052D01*
X236787695Y-89931464D01*
X236876209Y-89842950D01*
X236885109Y-89831694D01*
X236969567Y-89694766D01*
X236975629Y-89681767D01*
X237026375Y-89528625D01*
X237029194Y-89515458D01*
X237038680Y-89422609D01*
X237039000Y-89416332D01*
X237039000Y-89373326D01*
X237035549Y-89360450D01*
X237022674Y-89357000D01*
X234655327Y-89357000D01*
X234642451Y-89360450D01*
X234639001Y-89373326D01*
X234639001Y-89416329D01*
X234639321Y-89422611D01*
X234648805Y-89515459D01*
X234651623Y-89528622D01*
X234702370Y-89681767D01*
X234708432Y-89694766D01*
X234792890Y-89831694D01*
X234801794Y-89842955D01*
X234890304Y-89931465D01*
X234922398Y-89987052D01*
X234922398Y-90051239D01*
X234890305Y-90106826D01*
X234796288Y-90200844D01*
X234792503Y-90206980D01*
X234792497Y-90206988D01*
X234707977Y-90344019D01*
X234704186Y-90350166D01*
X234701915Y-90357017D01*
X234701914Y-90357021D01*
X234686340Y-90404021D01*
X234649001Y-90516703D01*
X234648313Y-90523433D01*
X234648312Y-90523440D01*
X234638819Y-90616359D01*
X234638818Y-90616377D01*
X234638500Y-90619491D01*
X234638500Y-90622638D01*
X234638500Y-90622639D01*
X234638500Y-91241358D01*
X234638500Y-91241377D01*
X234638501Y-91244508D01*
X234638820Y-91247640D01*
X234638821Y-91247641D01*
X234648312Y-91340561D01*
X234648313Y-91340569D01*
X234649001Y-91347297D01*
X234651129Y-91353719D01*
X234651130Y-91353723D01*
X234666705Y-91400725D01*
X234704186Y-91513834D01*
X234707977Y-91519980D01*
X234792497Y-91657011D01*
X234792500Y-91657015D01*
X234796288Y-91663156D01*
X234801393Y-91668261D01*
X234833370Y-91700238D01*
X234865464Y-91755825D01*
X234865464Y-91820012D01*
X234833371Y-91875600D01*
X234763080Y-91945890D01*
X234763076Y-91945894D01*
X234757974Y-91950997D01*
X234754183Y-91957142D01*
X234754179Y-91957148D01*
X234670430Y-92092926D01*
X234670427Y-92092931D01*
X234666638Y-92099075D01*
X234664367Y-92105926D01*
X234664366Y-92105930D01*
X234614043Y-92257796D01*
X234611913Y-92264225D01*
X234611225Y-92270955D01*
X234611224Y-92270962D01*
X234601819Y-92363020D01*
X234601818Y-92363038D01*
X234601500Y-92366152D01*
X234601500Y-92952848D01*
X234601818Y-92955962D01*
X234601819Y-92955979D01*
X234611224Y-93048037D01*
X234611225Y-93048042D01*
X234611913Y-93054775D01*
X234614042Y-93061202D01*
X234614043Y-93061203D01*
X234654370Y-93182904D01*
X234666638Y-93219925D01*
X234670429Y-93226072D01*
X234670430Y-93226073D01*
X234743649Y-93344780D01*
X234757974Y-93368003D01*
X234880997Y-93491026D01*
X234887148Y-93494820D01*
X234892809Y-93499296D01*
X234891174Y-93501363D01*
X234924838Y-93536486D01*
X234940606Y-93596872D01*
X234924962Y-93657290D01*
X234891195Y-93692663D01*
X234892809Y-93694704D01*
X234887146Y-93699180D01*
X234880997Y-93702974D01*
X234875890Y-93708080D01*
X234875886Y-93708084D01*
X234763084Y-93820886D01*
X234763080Y-93820890D01*
X234757974Y-93825997D01*
X234754183Y-93832142D01*
X234754179Y-93832148D01*
X234670430Y-93967926D01*
X234670427Y-93967931D01*
X234666638Y-93974075D01*
X234664367Y-93980926D01*
X234664366Y-93980930D01*
X234619217Y-94117182D01*
X234611913Y-94139225D01*
X234611225Y-94145955D01*
X234611224Y-94145962D01*
X234601819Y-94238020D01*
X234601818Y-94238038D01*
X234601500Y-94241152D01*
X234601500Y-94244301D01*
X234601500Y-94692981D01*
X234592061Y-94740434D01*
X234565181Y-94780662D01*
X234091290Y-95254551D01*
X234085838Y-95259684D01*
X234046431Y-95294596D01*
X234046425Y-95294602D01*
X234040817Y-95299571D01*
X234036560Y-95305736D01*
X234036551Y-95305748D01*
X234006649Y-95349068D01*
X234002213Y-95355097D01*
X233969749Y-95396535D01*
X233969743Y-95396543D01*
X233965122Y-95402443D01*
X233962044Y-95409280D01*
X233962043Y-95409283D01*
X233960962Y-95411685D01*
X233949940Y-95431227D01*
X233948441Y-95433398D01*
X233948437Y-95433404D01*
X233944182Y-95439570D01*
X233941526Y-95446570D01*
X233941522Y-95446580D01*
X233922853Y-95495805D01*
X233919989Y-95502719D01*
X233898382Y-95550729D01*
X233898379Y-95550735D01*
X233895305Y-95557568D01*
X233893953Y-95564939D01*
X233893951Y-95564949D01*
X233893474Y-95567553D01*
X233887456Y-95589143D01*
X233886519Y-95591614D01*
X233886517Y-95591619D01*
X233883860Y-95598628D01*
X233882956Y-95606065D01*
X233882956Y-95606069D01*
X233876610Y-95658327D01*
X233875483Y-95665726D01*
X233865994Y-95717510D01*
X233865993Y-95717518D01*
X233864642Y-95724894D01*
X233865094Y-95732373D01*
X233865094Y-95732381D01*
X233868274Y-95784933D01*
X233868500Y-95792421D01*
X233868500Y-98853223D01*
X233853554Y-98912242D01*
X233812319Y-98957033D01*
X233754736Y-98976800D01*
X233694685Y-98966777D01*
X233650808Y-98932622D01*
X233650164Y-98933215D01*
X233485215Y-98754032D01*
X233485211Y-98754029D01*
X233481744Y-98750262D01*
X233285509Y-98597526D01*
X233227482Y-98566123D01*
X233179977Y-98520543D01*
X233162500Y-98457069D01*
X233162500Y-88887674D01*
X237687000Y-88887674D01*
X237690450Y-88900549D01*
X237703326Y-88904000D01*
X238620674Y-88904000D01*
X238633549Y-88900549D01*
X238637000Y-88887674D01*
X239137000Y-88887674D01*
X239140450Y-88900549D01*
X239153326Y-88904000D01*
X240070673Y-88904000D01*
X240083548Y-88900549D01*
X240086999Y-88887674D01*
X240086999Y-88844671D01*
X240086678Y-88838388D01*
X240077194Y-88745540D01*
X240074376Y-88732377D01*
X240023629Y-88579232D01*
X240017567Y-88566233D01*
X239933109Y-88429305D01*
X239924205Y-88418044D01*
X239810455Y-88304294D01*
X239799194Y-88295390D01*
X239662266Y-88210932D01*
X239649267Y-88204870D01*
X239496125Y-88154124D01*
X239482958Y-88151305D01*
X239390109Y-88141819D01*
X239383832Y-88141500D01*
X239153326Y-88141500D01*
X239140450Y-88144950D01*
X239137000Y-88157826D01*
X239137000Y-88887674D01*
X238637000Y-88887674D01*
X238637000Y-88157827D01*
X238633549Y-88144951D01*
X238620674Y-88141501D01*
X238390171Y-88141501D01*
X238383888Y-88141821D01*
X238291040Y-88151305D01*
X238277877Y-88154123D01*
X238124732Y-88204870D01*
X238111733Y-88210932D01*
X237974805Y-88295390D01*
X237963544Y-88304294D01*
X237849794Y-88418044D01*
X237840890Y-88429305D01*
X237756432Y-88566233D01*
X237750370Y-88579232D01*
X237699624Y-88732374D01*
X237696805Y-88745541D01*
X237687319Y-88838390D01*
X237687000Y-88844668D01*
X237687000Y-88887674D01*
X233162500Y-88887674D01*
X233162500Y-88840674D01*
X234639000Y-88840674D01*
X234642450Y-88853549D01*
X234655326Y-88857000D01*
X235572674Y-88857000D01*
X235585549Y-88853549D01*
X235589000Y-88840674D01*
X236089000Y-88840674D01*
X236092450Y-88853549D01*
X236105326Y-88857000D01*
X237022673Y-88857000D01*
X237035548Y-88853549D01*
X237038999Y-88840674D01*
X237038999Y-88797671D01*
X237038678Y-88791388D01*
X237029194Y-88698540D01*
X237026376Y-88685377D01*
X236975629Y-88532232D01*
X236969567Y-88519233D01*
X236885109Y-88382305D01*
X236876205Y-88371044D01*
X236762455Y-88257294D01*
X236751194Y-88248390D01*
X236614266Y-88163932D01*
X236601267Y-88157870D01*
X236448125Y-88107124D01*
X236434958Y-88104305D01*
X236342109Y-88094819D01*
X236335832Y-88094500D01*
X236105326Y-88094500D01*
X236092450Y-88097950D01*
X236089000Y-88110826D01*
X236089000Y-88840674D01*
X235589000Y-88840674D01*
X235589000Y-88110827D01*
X235585549Y-88097951D01*
X235572674Y-88094501D01*
X235342171Y-88094501D01*
X235335888Y-88094821D01*
X235243040Y-88104305D01*
X235229877Y-88107123D01*
X235076732Y-88157870D01*
X235063733Y-88163932D01*
X234926805Y-88248390D01*
X234915544Y-88257294D01*
X234801794Y-88371044D01*
X234792890Y-88382305D01*
X234708432Y-88519233D01*
X234702370Y-88532232D01*
X234651624Y-88685374D01*
X234648805Y-88698541D01*
X234639319Y-88791390D01*
X234639000Y-88797668D01*
X234639000Y-88840674D01*
X233162500Y-88840674D01*
X233162500Y-85166909D01*
X233162726Y-85159422D01*
X233165904Y-85106881D01*
X233166357Y-85099394D01*
X233155516Y-85040235D01*
X233154389Y-85032830D01*
X233151710Y-85010770D01*
X233147140Y-84973128D01*
X233144480Y-84966116D01*
X233144480Y-84966113D01*
X233143547Y-84963653D01*
X233137520Y-84942035D01*
X233135694Y-84932068D01*
X233111012Y-84877228D01*
X233108145Y-84870306D01*
X233091048Y-84825223D01*
X233086818Y-84814070D01*
X233082556Y-84807896D01*
X233082552Y-84807888D01*
X233081058Y-84805724D01*
X233070032Y-84786175D01*
X233068956Y-84783785D01*
X233065877Y-84776943D01*
X233059718Y-84769082D01*
X233028788Y-84729602D01*
X233024349Y-84723569D01*
X232994442Y-84680241D01*
X232994441Y-84680240D01*
X232990183Y-84674071D01*
X232945170Y-84634193D01*
X232939716Y-84629059D01*
X230987657Y-82677000D01*
X233282540Y-82677000D01*
X233283219Y-82683460D01*
X233301646Y-82858795D01*
X233301647Y-82858803D01*
X233302326Y-82865256D01*
X233304331Y-82871428D01*
X233304333Y-82871435D01*
X233358813Y-83039105D01*
X233360821Y-83045284D01*
X233364068Y-83050908D01*
X233364069Y-83050910D01*
X233366050Y-83054342D01*
X233455467Y-83209216D01*
X233582129Y-83349888D01*
X233587387Y-83353708D01*
X233587388Y-83353709D01*
X233652729Y-83401182D01*
X233735270Y-83461151D01*
X233908197Y-83538144D01*
X234093354Y-83577500D01*
X234276143Y-83577500D01*
X234282646Y-83577500D01*
X234467803Y-83538144D01*
X234640730Y-83461151D01*
X234723273Y-83401179D01*
X234757837Y-83383569D01*
X234796155Y-83377500D01*
X237402481Y-83377500D01*
X237449934Y-83386939D01*
X237490162Y-83413819D01*
X241579181Y-87502838D01*
X241606061Y-87543066D01*
X241615500Y-87590519D01*
X241615500Y-92368481D01*
X241606061Y-92415934D01*
X241579181Y-92456162D01*
X240237662Y-93797681D01*
X240197434Y-93824561D01*
X240149981Y-93834000D01*
X239945391Y-93834000D01*
X239897938Y-93824561D01*
X239857710Y-93797681D01*
X239768113Y-93708084D01*
X239768113Y-93708083D01*
X239763003Y-93702974D01*
X239756851Y-93699179D01*
X239751191Y-93694704D01*
X239752812Y-93692653D01*
X239719056Y-93657324D01*
X239703393Y-93596872D01*
X239719180Y-93536452D01*
X239752833Y-93501373D01*
X239751191Y-93499296D01*
X239756849Y-93494821D01*
X239763003Y-93491026D01*
X239886026Y-93368003D01*
X239977362Y-93219925D01*
X240032087Y-93054775D01*
X240042500Y-92952848D01*
X240042500Y-92366152D01*
X240032087Y-92264225D01*
X239977362Y-92099075D01*
X239886026Y-91950997D01*
X239875129Y-91940100D01*
X239843035Y-91884512D01*
X239843035Y-91820325D01*
X239875128Y-91764739D01*
X239929712Y-91710156D01*
X240021814Y-91560834D01*
X240076999Y-91394297D01*
X240087500Y-91291509D01*
X240087499Y-90666492D01*
X240076999Y-90563703D01*
X240021814Y-90397166D01*
X239929712Y-90247844D01*
X239835694Y-90153826D01*
X239803601Y-90098239D01*
X239803601Y-90034052D01*
X239835695Y-89978464D01*
X239924209Y-89889950D01*
X239933109Y-89878694D01*
X240017567Y-89741766D01*
X240023629Y-89728767D01*
X240074375Y-89575625D01*
X240077194Y-89562458D01*
X240086680Y-89469609D01*
X240087000Y-89463332D01*
X240087000Y-89420326D01*
X240083549Y-89407450D01*
X240070674Y-89404000D01*
X237703327Y-89404000D01*
X237690451Y-89407450D01*
X237687001Y-89420326D01*
X237687001Y-89463329D01*
X237687321Y-89469611D01*
X237696805Y-89562459D01*
X237699623Y-89575622D01*
X237750370Y-89728767D01*
X237756432Y-89741766D01*
X237840890Y-89878694D01*
X237849794Y-89889955D01*
X237938304Y-89978465D01*
X237970398Y-90034052D01*
X237970398Y-90098239D01*
X237938305Y-90153827D01*
X237844288Y-90247844D01*
X237840503Y-90253980D01*
X237840497Y-90253988D01*
X237776947Y-90357021D01*
X237752186Y-90397166D01*
X237749915Y-90404017D01*
X237749914Y-90404021D01*
X237699131Y-90557274D01*
X237697001Y-90563703D01*
X237696313Y-90570433D01*
X237696312Y-90570440D01*
X237686819Y-90663359D01*
X237686818Y-90663377D01*
X237686500Y-90666491D01*
X237686500Y-90669638D01*
X237686500Y-90669639D01*
X237686500Y-91288358D01*
X237686500Y-91288377D01*
X237686501Y-91291508D01*
X237686820Y-91294640D01*
X237686821Y-91294641D01*
X237696312Y-91387561D01*
X237696313Y-91387569D01*
X237697001Y-91394297D01*
X237752186Y-91560834D01*
X237755977Y-91566980D01*
X237840497Y-91704011D01*
X237840500Y-91704015D01*
X237844288Y-91710156D01*
X237849392Y-91715260D01*
X237849393Y-91715261D01*
X237853870Y-91719738D01*
X237885964Y-91775325D01*
X237885964Y-91839512D01*
X237853871Y-91895099D01*
X237803084Y-91945886D01*
X237803080Y-91945890D01*
X237797974Y-91950997D01*
X237794183Y-91957142D01*
X237794179Y-91957148D01*
X237710430Y-92092926D01*
X237710427Y-92092931D01*
X237706638Y-92099075D01*
X237704367Y-92105926D01*
X237704366Y-92105930D01*
X237654043Y-92257796D01*
X237651913Y-92264225D01*
X237651225Y-92270955D01*
X237651224Y-92270962D01*
X237641819Y-92363020D01*
X237641818Y-92363038D01*
X237641500Y-92366152D01*
X237641500Y-92952848D01*
X237641818Y-92955962D01*
X237641819Y-92955979D01*
X237651224Y-93048037D01*
X237651225Y-93048042D01*
X237651913Y-93054775D01*
X237654042Y-93061202D01*
X237654043Y-93061203D01*
X237694370Y-93182904D01*
X237706638Y-93219925D01*
X237710429Y-93226072D01*
X237710430Y-93226073D01*
X237783649Y-93344780D01*
X237797974Y-93368003D01*
X237920997Y-93491026D01*
X237927148Y-93494820D01*
X237932809Y-93499296D01*
X237931174Y-93501363D01*
X237964838Y-93536486D01*
X237980606Y-93596872D01*
X237964962Y-93657290D01*
X237931195Y-93692663D01*
X237932809Y-93694704D01*
X237927146Y-93699180D01*
X237920997Y-93702974D01*
X237915890Y-93708080D01*
X237915886Y-93708084D01*
X237803084Y-93820886D01*
X237803080Y-93820890D01*
X237797974Y-93825997D01*
X237794183Y-93832142D01*
X237794179Y-93832148D01*
X237710430Y-93967926D01*
X237710427Y-93967931D01*
X237706638Y-93974075D01*
X237704367Y-93980926D01*
X237704366Y-93980930D01*
X237659217Y-94117182D01*
X237651913Y-94139225D01*
X237651225Y-94145955D01*
X237651224Y-94145962D01*
X237641819Y-94238020D01*
X237641818Y-94238038D01*
X237641500Y-94241152D01*
X237641500Y-94827848D01*
X237641818Y-94830962D01*
X237641819Y-94830979D01*
X237651224Y-94923037D01*
X237651225Y-94923042D01*
X237651913Y-94929775D01*
X237706638Y-95094925D01*
X237710429Y-95101072D01*
X237710430Y-95101073D01*
X237793037Y-95235000D01*
X237797974Y-95243003D01*
X237920997Y-95366026D01*
X238069075Y-95457362D01*
X238234225Y-95512087D01*
X238336152Y-95522500D01*
X239344699Y-95522500D01*
X239347848Y-95522500D01*
X239449775Y-95512087D01*
X239614925Y-95457362D01*
X239763003Y-95366026D01*
X239857710Y-95271318D01*
X239897938Y-95244439D01*
X239945391Y-95235000D01*
X240466579Y-95235000D01*
X240474066Y-95235225D01*
X240534106Y-95238858D01*
X240593282Y-95228013D01*
X240600681Y-95226887D01*
X240660372Y-95219640D01*
X240669832Y-95216051D01*
X240691459Y-95210022D01*
X240701432Y-95208195D01*
X240756308Y-95183496D01*
X240763173Y-95180652D01*
X240819430Y-95159318D01*
X240827764Y-95153564D01*
X240847321Y-95142534D01*
X240856557Y-95138378D01*
X240903913Y-95101275D01*
X240909920Y-95096855D01*
X240959429Y-95062683D01*
X240999322Y-95017651D01*
X241004424Y-95012231D01*
X242793731Y-93222924D01*
X242799151Y-93217822D01*
X242844183Y-93177929D01*
X242878362Y-93128411D01*
X242882789Y-93122396D01*
X242912941Y-93083910D01*
X242919878Y-93075056D01*
X242924034Y-93065820D01*
X242935061Y-93046269D01*
X242940818Y-93037930D01*
X242962147Y-92981686D01*
X242965001Y-92974795D01*
X242989695Y-92919931D01*
X242991522Y-92909957D01*
X242997548Y-92888340D01*
X243001140Y-92878872D01*
X243008386Y-92819184D01*
X243009514Y-92811776D01*
X243020358Y-92752606D01*
X243016725Y-92692566D01*
X243016500Y-92685079D01*
X243016500Y-87273910D01*
X243016726Y-87266423D01*
X243019904Y-87213881D01*
X243020357Y-87206394D01*
X243009516Y-87147235D01*
X243008389Y-87139830D01*
X243008118Y-87137602D01*
X243001140Y-87080128D01*
X242998480Y-87073116D01*
X242998480Y-87073113D01*
X242997547Y-87070653D01*
X242991520Y-87049035D01*
X242989694Y-87039068D01*
X242965010Y-86984223D01*
X242962143Y-86977301D01*
X242943477Y-86928082D01*
X242940818Y-86921070D01*
X242935061Y-86912730D01*
X242924036Y-86893181D01*
X242922957Y-86890784D01*
X242922956Y-86890783D01*
X242919878Y-86883943D01*
X242882785Y-86836597D01*
X242878355Y-86830577D01*
X242844183Y-86781071D01*
X242799170Y-86741193D01*
X242793716Y-86736059D01*
X238256939Y-82199282D01*
X238251822Y-82193847D01*
X238211929Y-82148817D01*
X238162410Y-82114636D01*
X238156404Y-82110216D01*
X238114961Y-82077747D01*
X238114958Y-82077745D01*
X238109057Y-82073122D01*
X238102219Y-82070044D01*
X238102210Y-82070039D01*
X238099810Y-82068959D01*
X238080268Y-82057937D01*
X238078107Y-82056445D01*
X238078102Y-82056442D01*
X238071930Y-82052182D01*
X238015702Y-82030857D01*
X238008784Y-82027991D01*
X237960772Y-82006383D01*
X237960769Y-82006382D01*
X237953932Y-82003305D01*
X237946560Y-82001954D01*
X237946551Y-82001951D01*
X237943952Y-82001475D01*
X237922340Y-81995450D01*
X237919891Y-81994521D01*
X237919885Y-81994519D01*
X237912872Y-81991860D01*
X237905430Y-81990956D01*
X237905425Y-81990955D01*
X237853171Y-81984610D01*
X237845771Y-81983483D01*
X237793987Y-81973994D01*
X237793982Y-81973993D01*
X237786606Y-81972642D01*
X237779126Y-81973094D01*
X237779118Y-81973094D01*
X237726567Y-81976274D01*
X237719079Y-81976500D01*
X234796155Y-81976500D01*
X234757837Y-81970431D01*
X234723273Y-81952820D01*
X234640730Y-81892849D01*
X234634792Y-81890205D01*
X234473745Y-81818501D01*
X234473740Y-81818499D01*
X234467803Y-81815856D01*
X234461444Y-81814504D01*
X234461440Y-81814503D01*
X234289008Y-81777852D01*
X234289005Y-81777851D01*
X234282646Y-81776500D01*
X234093354Y-81776500D01*
X234086995Y-81777851D01*
X234086991Y-81777852D01*
X233914559Y-81814503D01*
X233914552Y-81814505D01*
X233908197Y-81815856D01*
X233902262Y-81818498D01*
X233902254Y-81818501D01*
X233741207Y-81890205D01*
X233741202Y-81890207D01*
X233735270Y-81892849D01*
X233730016Y-81896665D01*
X233730011Y-81896669D01*
X233587388Y-82000290D01*
X233587381Y-82000295D01*
X233582129Y-82004112D01*
X233577784Y-82008937D01*
X233577779Y-82008942D01*
X233459813Y-82139956D01*
X233459808Y-82139962D01*
X233455467Y-82144784D01*
X233452222Y-82150404D01*
X233452218Y-82150410D01*
X233364069Y-82303089D01*
X233364066Y-82303094D01*
X233360821Y-82308716D01*
X233358815Y-82314888D01*
X233358813Y-82314894D01*
X233304333Y-82482564D01*
X233304331Y-82482573D01*
X233302326Y-82488744D01*
X233301648Y-82495194D01*
X233301646Y-82495204D01*
X233287780Y-82627139D01*
X233282540Y-82677000D01*
X230987657Y-82677000D01*
X229035905Y-80725248D01*
X232073749Y-80725248D01*
X232081855Y-80736439D01*
X232110717Y-80758903D01*
X232119279Y-80764496D01*
X232328885Y-80877929D01*
X232338239Y-80882032D01*
X232563656Y-80959417D01*
X232573568Y-80961928D01*
X232808643Y-81001155D01*
X232818839Y-81002000D01*
X233057161Y-81002000D01*
X233067356Y-81001155D01*
X233302431Y-80961928D01*
X233312343Y-80959417D01*
X233537760Y-80882032D01*
X233547114Y-80877929D01*
X233756723Y-80764495D01*
X233765281Y-80758903D01*
X233794146Y-80736437D01*
X233802250Y-80725250D01*
X233795589Y-80713142D01*
X233629025Y-80546578D01*
X239037500Y-80546578D01*
X239037501Y-80549872D01*
X239037853Y-80553150D01*
X239037854Y-80553161D01*
X239043079Y-80601768D01*
X239043080Y-80601773D01*
X239043909Y-80609483D01*
X239046619Y-80616749D01*
X239046620Y-80616753D01*
X239061793Y-80657432D01*
X239094204Y-80744331D01*
X239099518Y-80751430D01*
X239099519Y-80751431D01*
X239109299Y-80764496D01*
X239180454Y-80859546D01*
X239295669Y-80945796D01*
X239430517Y-80996091D01*
X239490127Y-81002500D01*
X241585872Y-81002499D01*
X241645483Y-80996091D01*
X241780331Y-80945796D01*
X241895546Y-80859546D01*
X241981796Y-80744331D01*
X242032091Y-80609483D01*
X242038500Y-80549873D01*
X242038499Y-78454128D01*
X242032091Y-78394517D01*
X241981796Y-78259669D01*
X241895546Y-78144454D01*
X241859449Y-78117432D01*
X241787431Y-78063519D01*
X241787430Y-78063518D01*
X241780331Y-78058204D01*
X241645483Y-78007909D01*
X241637770Y-78007079D01*
X241637767Y-78007079D01*
X241589180Y-78001855D01*
X241589169Y-78001854D01*
X241585873Y-78001500D01*
X241582550Y-78001500D01*
X239493439Y-78001500D01*
X239493420Y-78001500D01*
X239490128Y-78001501D01*
X239486850Y-78001853D01*
X239486838Y-78001854D01*
X239438231Y-78007079D01*
X239438225Y-78007080D01*
X239430517Y-78007909D01*
X239423252Y-78010618D01*
X239423246Y-78010620D01*
X239303980Y-78055104D01*
X239303978Y-78055104D01*
X239295669Y-78058204D01*
X239288572Y-78063516D01*
X239288568Y-78063519D01*
X239187550Y-78139141D01*
X239187546Y-78139144D01*
X239180454Y-78144454D01*
X239175144Y-78151546D01*
X239175141Y-78151550D01*
X239099519Y-78252568D01*
X239099516Y-78252572D01*
X239094204Y-78259669D01*
X239091104Y-78267978D01*
X239091104Y-78267980D01*
X239046620Y-78387247D01*
X239046619Y-78387250D01*
X239043909Y-78394517D01*
X239043079Y-78402227D01*
X239043079Y-78402232D01*
X239037855Y-78450819D01*
X239037854Y-78450831D01*
X239037500Y-78454127D01*
X239037500Y-78457448D01*
X239037500Y-78457449D01*
X239037500Y-80546560D01*
X239037500Y-80546578D01*
X233629025Y-80546578D01*
X232949542Y-79867095D01*
X232938000Y-79860431D01*
X232926457Y-79867095D01*
X232080408Y-80713143D01*
X232073749Y-80725248D01*
X229035905Y-80725248D01*
X227817774Y-79507117D01*
X231433283Y-79507117D01*
X231452962Y-79744618D01*
X231454646Y-79754712D01*
X231513153Y-79985747D01*
X231516472Y-79995414D01*
X231612208Y-80213673D01*
X231617070Y-80222656D01*
X231706999Y-80360304D01*
X231714963Y-80368024D01*
X231724345Y-80362100D01*
X232572904Y-79513542D01*
X232579568Y-79502000D01*
X232579567Y-79501999D01*
X233296431Y-79501999D01*
X233303095Y-79513542D01*
X234151653Y-80362100D01*
X234161034Y-80368024D01*
X234169002Y-80360299D01*
X234258924Y-80222664D01*
X234263792Y-80213669D01*
X234359527Y-79995414D01*
X234362846Y-79985747D01*
X234421353Y-79754712D01*
X234423037Y-79744618D01*
X234442717Y-79507117D01*
X234442717Y-79496883D01*
X234423037Y-79259381D01*
X234421353Y-79249287D01*
X234362846Y-79018252D01*
X234359527Y-79008585D01*
X234263792Y-78790330D01*
X234258924Y-78781335D01*
X234169002Y-78643699D01*
X234161034Y-78635974D01*
X234151653Y-78641898D01*
X233303095Y-79490457D01*
X233296431Y-79501999D01*
X232579567Y-79501999D01*
X232572904Y-79490457D01*
X231724345Y-78641898D01*
X231714964Y-78635974D01*
X231706997Y-78643699D01*
X231617072Y-78781338D01*
X231612207Y-78790328D01*
X231516472Y-79008585D01*
X231513153Y-79018252D01*
X231454646Y-79249287D01*
X231452962Y-79259381D01*
X231433283Y-79496883D01*
X231433283Y-79507117D01*
X227817774Y-79507117D01*
X226589406Y-78278749D01*
X232073748Y-78278749D01*
X232080408Y-78290855D01*
X232926457Y-79136904D01*
X232938000Y-79143568D01*
X232949542Y-79136904D01*
X233795590Y-78290855D01*
X233802250Y-78278749D01*
X233794143Y-78267559D01*
X233765286Y-78245099D01*
X233756719Y-78239503D01*
X233547114Y-78126070D01*
X233537760Y-78121967D01*
X233312343Y-78044582D01*
X233302431Y-78042071D01*
X233067356Y-78002844D01*
X233057161Y-78002000D01*
X232818839Y-78002000D01*
X232808643Y-78002844D01*
X232573568Y-78042071D01*
X232563656Y-78044582D01*
X232338239Y-78121967D01*
X232328885Y-78126070D01*
X232119276Y-78239504D01*
X232110717Y-78245096D01*
X232081854Y-78267560D01*
X232073748Y-78278749D01*
X226589406Y-78278749D01*
X225302939Y-76992282D01*
X225297822Y-76986847D01*
X225257929Y-76941817D01*
X225208410Y-76907636D01*
X225202404Y-76903216D01*
X225160961Y-76870747D01*
X225160958Y-76870745D01*
X225155057Y-76866122D01*
X225148219Y-76863044D01*
X225148210Y-76863039D01*
X225145810Y-76861959D01*
X225126268Y-76850937D01*
X225124107Y-76849445D01*
X225124102Y-76849442D01*
X225117930Y-76845182D01*
X225061702Y-76823857D01*
X225054784Y-76820991D01*
X225006772Y-76799383D01*
X225006769Y-76799382D01*
X224999932Y-76796305D01*
X224992560Y-76794954D01*
X224992551Y-76794951D01*
X224989952Y-76794475D01*
X224968340Y-76788450D01*
X224965891Y-76787521D01*
X224965885Y-76787519D01*
X224958872Y-76784860D01*
X224951430Y-76783956D01*
X224951425Y-76783955D01*
X224899171Y-76777610D01*
X224891771Y-76776483D01*
X224839987Y-76766994D01*
X224839982Y-76766993D01*
X224832606Y-76765642D01*
X224825126Y-76766094D01*
X224825118Y-76766094D01*
X224772567Y-76769274D01*
X224765079Y-76769500D01*
X218339019Y-76769500D01*
X218291566Y-76760061D01*
X218251338Y-76733181D01*
X215054157Y-73536000D01*
X226901215Y-73536000D01*
X226901894Y-73542460D01*
X226919223Y-73707341D01*
X226919224Y-73707348D01*
X226919903Y-73713803D01*
X226975150Y-73883835D01*
X227064541Y-74038665D01*
X227184170Y-74171526D01*
X227328807Y-74276612D01*
X227492133Y-74349329D01*
X227498491Y-74350680D01*
X227498493Y-74350681D01*
X227534085Y-74358246D01*
X227667009Y-74386500D01*
X227839288Y-74386500D01*
X227845791Y-74386500D01*
X228020667Y-74349329D01*
X228183993Y-74276612D01*
X228328630Y-74171526D01*
X228448259Y-74038665D01*
X228537650Y-73883835D01*
X228592897Y-73713803D01*
X228611585Y-73536000D01*
X228592897Y-73358197D01*
X228537650Y-73188165D01*
X228448259Y-73033335D01*
X228328630Y-72900474D01*
X228183993Y-72795388D01*
X228124064Y-72768706D01*
X228026605Y-72725314D01*
X228026598Y-72725311D01*
X228020667Y-72722671D01*
X228014314Y-72721320D01*
X228014306Y-72721318D01*
X227852153Y-72686852D01*
X227852150Y-72686851D01*
X227845791Y-72685500D01*
X227667009Y-72685500D01*
X227660650Y-72686851D01*
X227660646Y-72686852D01*
X227498493Y-72721318D01*
X227498482Y-72721321D01*
X227492133Y-72722671D01*
X227486204Y-72725310D01*
X227486194Y-72725314D01*
X227334742Y-72792745D01*
X227334734Y-72792749D01*
X227328808Y-72795388D01*
X227323559Y-72799201D01*
X227323553Y-72799205D01*
X227189423Y-72896656D01*
X227189414Y-72896663D01*
X227184170Y-72900474D01*
X227179826Y-72905297D01*
X227179823Y-72905301D01*
X227068887Y-73028507D01*
X227068882Y-73028513D01*
X227064541Y-73033335D01*
X227061296Y-73038955D01*
X227061292Y-73038961D01*
X226978398Y-73182538D01*
X226978395Y-73182543D01*
X226975150Y-73188165D01*
X226973144Y-73194337D01*
X226973142Y-73194343D01*
X226930575Y-73325352D01*
X226919903Y-73358197D01*
X226919224Y-73364649D01*
X226919223Y-73364658D01*
X226903833Y-73511087D01*
X226901215Y-73536000D01*
X215054157Y-73536000D01*
X210722652Y-69204495D01*
X210690558Y-69148907D01*
X210690559Y-69084719D01*
X210693662Y-69073138D01*
X210693662Y-69073133D01*
X210695063Y-69067908D01*
X210715659Y-68832500D01*
X212004341Y-68832500D01*
X212004813Y-68837895D01*
X212024465Y-69062517D01*
X212024465Y-69062520D01*
X212024937Y-69067908D01*
X212026336Y-69073130D01*
X212026337Y-69073134D01*
X212084694Y-69290930D01*
X212084697Y-69290938D01*
X212086097Y-69296163D01*
X212088385Y-69301070D01*
X212088386Y-69301072D01*
X212183678Y-69505427D01*
X212183681Y-69505433D01*
X212185965Y-69510330D01*
X212189064Y-69514757D01*
X212189066Y-69514759D01*
X212318399Y-69699466D01*
X212318402Y-69699470D01*
X212321505Y-69703901D01*
X212488599Y-69870995D01*
X212682170Y-70006535D01*
X212896337Y-70106403D01*
X213124592Y-70167563D01*
X213360000Y-70188159D01*
X213595408Y-70167563D01*
X213736443Y-70129772D01*
X213800215Y-70129663D01*
X213855610Y-70161264D01*
X213887971Y-70216217D01*
X213888741Y-70279987D01*
X213876152Y-70329700D01*
X213876150Y-70329709D01*
X213874892Y-70334679D01*
X213874468Y-70339788D01*
X213874467Y-70339798D01*
X213864207Y-70463627D01*
X213854357Y-70582500D01*
X213854781Y-70587617D01*
X213874467Y-70825201D01*
X213874468Y-70825209D01*
X213874892Y-70830321D01*
X213876149Y-70835288D01*
X213876151Y-70835295D01*
X213890410Y-70891600D01*
X213935937Y-71071381D01*
X213937997Y-71076077D01*
X214033766Y-71294410D01*
X214033769Y-71294416D01*
X214035827Y-71299107D01*
X214038627Y-71303393D01*
X214038631Y-71303400D01*
X214166675Y-71499385D01*
X214171836Y-71507285D01*
X214175310Y-71511059D01*
X214175311Y-71511060D01*
X214336784Y-71686467D01*
X214336787Y-71686470D01*
X214340256Y-71690238D01*
X214536491Y-71842974D01*
X214755190Y-71961328D01*
X214990386Y-72042071D01*
X215235665Y-72083000D01*
X215479201Y-72083000D01*
X215484335Y-72083000D01*
X215729614Y-72042071D01*
X215964810Y-71961328D01*
X216183509Y-71842974D01*
X216379744Y-71690238D01*
X216548164Y-71507285D01*
X216684173Y-71299107D01*
X216784063Y-71071381D01*
X216845108Y-70830321D01*
X216865643Y-70582500D01*
X216845108Y-70334679D01*
X216784063Y-70093619D01*
X216684173Y-69865893D01*
X216677314Y-69855395D01*
X216673789Y-69850000D01*
X245786341Y-69850000D01*
X245786813Y-69855395D01*
X245788449Y-69874100D01*
X245806937Y-70085408D01*
X245808336Y-70090630D01*
X245808337Y-70090634D01*
X245866694Y-70308430D01*
X245866697Y-70308438D01*
X245868097Y-70313663D01*
X245870385Y-70318570D01*
X245870386Y-70318572D01*
X245880284Y-70339798D01*
X245967965Y-70527829D01*
X246103505Y-70721401D01*
X246270599Y-70888495D01*
X246464171Y-71024035D01*
X246678337Y-71123903D01*
X246906592Y-71185063D01*
X247083034Y-71200500D01*
X247198258Y-71200500D01*
X247200966Y-71200500D01*
X247377408Y-71185063D01*
X247605663Y-71123903D01*
X247819829Y-71024035D01*
X248013401Y-70888495D01*
X248180495Y-70721401D01*
X248316035Y-70527830D01*
X248415903Y-70313663D01*
X248477063Y-70085408D01*
X248497659Y-69850000D01*
X248477063Y-69614592D01*
X248415903Y-69386337D01*
X248316035Y-69172171D01*
X248180495Y-68978599D01*
X248013401Y-68811505D01*
X247819829Y-68675965D01*
X247751908Y-68644292D01*
X247610572Y-68578386D01*
X247610570Y-68578385D01*
X247605663Y-68576097D01*
X247600438Y-68574697D01*
X247600430Y-68574694D01*
X247382634Y-68516337D01*
X247382630Y-68516336D01*
X247377408Y-68514937D01*
X247372020Y-68514465D01*
X247372017Y-68514465D01*
X247203664Y-68499736D01*
X247203662Y-68499735D01*
X247200966Y-68499500D01*
X247083034Y-68499500D01*
X247080338Y-68499735D01*
X247080335Y-68499736D01*
X246911982Y-68514465D01*
X246911977Y-68514465D01*
X246906592Y-68514937D01*
X246901371Y-68516335D01*
X246901365Y-68516337D01*
X246683569Y-68574694D01*
X246683557Y-68574698D01*
X246678337Y-68576097D01*
X246673432Y-68578383D01*
X246673427Y-68578386D01*
X246469081Y-68673675D01*
X246469077Y-68673677D01*
X246464171Y-68675965D01*
X246459738Y-68679068D01*
X246459731Y-68679073D01*
X246275034Y-68808399D01*
X246275029Y-68808402D01*
X246270599Y-68811505D01*
X246266775Y-68815328D01*
X246266769Y-68815334D01*
X246107336Y-68974767D01*
X246107330Y-68974773D01*
X246103505Y-68978599D01*
X246100406Y-68983023D01*
X246100399Y-68983033D01*
X245971066Y-69167740D01*
X245971061Y-69167747D01*
X245967965Y-69172170D01*
X245965683Y-69177061D01*
X245965678Y-69177072D01*
X245870386Y-69381427D01*
X245870383Y-69381432D01*
X245868097Y-69386337D01*
X245866698Y-69391557D01*
X245866694Y-69391569D01*
X245808337Y-69609365D01*
X245808335Y-69609371D01*
X245806937Y-69614592D01*
X245806465Y-69619977D01*
X245806465Y-69619982D01*
X245799511Y-69699466D01*
X245786341Y-69850000D01*
X216673789Y-69850000D01*
X216582238Y-69709869D01*
X216548164Y-69657715D01*
X216503655Y-69609365D01*
X216383215Y-69478532D01*
X216383211Y-69478529D01*
X216379744Y-69474762D01*
X216183509Y-69322026D01*
X216178997Y-69319584D01*
X215969316Y-69206110D01*
X215969310Y-69206107D01*
X215964810Y-69203672D01*
X215959969Y-69202010D01*
X215959962Y-69202007D01*
X215734465Y-69124594D01*
X215734461Y-69124593D01*
X215729614Y-69122929D01*
X215720768Y-69121452D01*
X215489398Y-69082844D01*
X215489387Y-69082843D01*
X215484335Y-69082000D01*
X215235665Y-69082000D01*
X215230613Y-69082843D01*
X215230601Y-69082844D01*
X214995443Y-69122085D01*
X214995441Y-69122085D01*
X214990386Y-69122929D01*
X214985544Y-69124591D01*
X214985541Y-69124592D01*
X214861370Y-69167220D01*
X214800557Y-69172223D01*
X214744721Y-69147616D01*
X214707381Y-69099356D01*
X214697580Y-69039133D01*
X214715659Y-68832500D01*
X214695063Y-68597092D01*
X214633903Y-68368837D01*
X214534035Y-68154671D01*
X214398495Y-67961099D01*
X214231401Y-67794005D01*
X214226970Y-67790902D01*
X214226966Y-67790899D01*
X214042259Y-67661566D01*
X214042257Y-67661564D01*
X214037830Y-67658465D01*
X214032933Y-67656181D01*
X214032927Y-67656178D01*
X213828572Y-67560886D01*
X213828570Y-67560885D01*
X213823663Y-67558597D01*
X213818438Y-67557197D01*
X213818430Y-67557194D01*
X213600634Y-67498837D01*
X213600630Y-67498836D01*
X213595408Y-67497437D01*
X213590020Y-67496965D01*
X213590017Y-67496965D01*
X213365395Y-67477313D01*
X213360000Y-67476841D01*
X213354605Y-67477313D01*
X213129982Y-67496965D01*
X213129977Y-67496965D01*
X213124592Y-67497437D01*
X213119371Y-67498835D01*
X213119365Y-67498837D01*
X212901569Y-67557194D01*
X212901557Y-67557198D01*
X212896337Y-67558597D01*
X212891432Y-67560883D01*
X212891427Y-67560886D01*
X212687081Y-67656175D01*
X212687077Y-67656177D01*
X212682171Y-67658465D01*
X212677738Y-67661568D01*
X212677731Y-67661573D01*
X212493034Y-67790899D01*
X212493029Y-67790902D01*
X212488599Y-67794005D01*
X212484775Y-67797828D01*
X212484769Y-67797834D01*
X212325334Y-67957269D01*
X212325328Y-67957275D01*
X212321505Y-67961099D01*
X212318402Y-67965529D01*
X212318399Y-67965534D01*
X212189073Y-68150231D01*
X212189068Y-68150238D01*
X212185965Y-68154671D01*
X212183677Y-68159577D01*
X212183675Y-68159581D01*
X212088386Y-68363927D01*
X212088383Y-68363932D01*
X212086097Y-68368837D01*
X212084698Y-68374057D01*
X212084694Y-68374069D01*
X212026337Y-68591865D01*
X212026335Y-68591871D01*
X212024937Y-68597092D01*
X212024465Y-68602477D01*
X212024465Y-68602482D01*
X212018036Y-68675965D01*
X212004341Y-68832500D01*
X210715659Y-68832500D01*
X210695063Y-68597092D01*
X210633903Y-68368837D01*
X210534035Y-68154671D01*
X210398495Y-67961099D01*
X210231401Y-67794005D01*
X210226970Y-67790902D01*
X210226966Y-67790899D01*
X210042259Y-67661566D01*
X210042257Y-67661564D01*
X210037830Y-67658465D01*
X210032933Y-67656181D01*
X210032927Y-67656178D01*
X209828572Y-67560886D01*
X209828570Y-67560885D01*
X209823663Y-67558597D01*
X209818438Y-67557197D01*
X209818430Y-67557194D01*
X209600634Y-67498837D01*
X209600630Y-67498836D01*
X209595408Y-67497437D01*
X209590020Y-67496965D01*
X209590017Y-67496965D01*
X209365395Y-67477313D01*
X209360000Y-67476841D01*
X209354605Y-67477313D01*
X209129982Y-67496965D01*
X209129977Y-67496965D01*
X209124592Y-67497437D01*
X209119371Y-67498835D01*
X209119365Y-67498837D01*
X208901569Y-67557194D01*
X208901557Y-67557198D01*
X208896337Y-67558597D01*
X208891432Y-67560883D01*
X208891427Y-67560886D01*
X208687081Y-67656175D01*
X208687077Y-67656177D01*
X208682171Y-67658465D01*
X208677738Y-67661568D01*
X208677731Y-67661573D01*
X208493034Y-67790899D01*
X208493029Y-67790902D01*
X208488599Y-67794005D01*
X208484775Y-67797828D01*
X208484769Y-67797834D01*
X208325334Y-67957269D01*
X208325328Y-67957275D01*
X208321505Y-67961099D01*
X208318402Y-67965529D01*
X208318399Y-67965534D01*
X208189073Y-68150231D01*
X208189068Y-68150238D01*
X208185965Y-68154671D01*
X208183677Y-68159577D01*
X208183675Y-68159581D01*
X208088386Y-68363927D01*
X208088383Y-68363932D01*
X208086097Y-68368837D01*
X208084698Y-68374057D01*
X208084694Y-68374069D01*
X208026337Y-68591865D01*
X208026335Y-68591871D01*
X208024937Y-68597092D01*
X208024465Y-68602477D01*
X208024465Y-68602482D01*
X208018036Y-68675965D01*
X208004341Y-68832500D01*
X208004813Y-68837895D01*
X208024465Y-69062517D01*
X208024465Y-69062520D01*
X208024937Y-69067908D01*
X208026336Y-69073130D01*
X208026337Y-69073134D01*
X208084694Y-69290930D01*
X208084697Y-69290938D01*
X208086097Y-69296163D01*
X208088385Y-69301070D01*
X208088386Y-69301072D01*
X208183678Y-69505427D01*
X208183681Y-69505433D01*
X208185965Y-69510330D01*
X208189064Y-69514757D01*
X208189066Y-69514759D01*
X208318399Y-69699466D01*
X208318402Y-69699470D01*
X208321505Y-69703901D01*
X208488599Y-69870995D01*
X208682170Y-70006535D01*
X208896337Y-70106403D01*
X209124592Y-70167563D01*
X209360000Y-70188159D01*
X209595408Y-70167563D01*
X209600633Y-70166162D01*
X209600638Y-70166162D01*
X209612219Y-70163059D01*
X209676407Y-70163058D01*
X209731995Y-70195152D01*
X217484559Y-77947716D01*
X217489693Y-77953170D01*
X217524593Y-77992565D01*
X217524597Y-77992568D01*
X217529571Y-77998183D01*
X217535747Y-78002446D01*
X217579074Y-78032353D01*
X217585105Y-78036791D01*
X217595104Y-78044625D01*
X217632444Y-78073878D01*
X217641680Y-78078034D01*
X217661227Y-78089059D01*
X217669570Y-78094818D01*
X217723159Y-78115141D01*
X217725798Y-78116142D01*
X217732720Y-78119009D01*
X217787569Y-78143695D01*
X217797541Y-78145522D01*
X217819156Y-78151547D01*
X217828628Y-78155140D01*
X217886331Y-78162146D01*
X217888315Y-78162387D01*
X217895722Y-78163514D01*
X217954894Y-78174358D01*
X218014933Y-78170725D01*
X218022421Y-78170500D01*
X224448481Y-78170500D01*
X224495934Y-78179939D01*
X224536162Y-78206819D01*
X231725181Y-85395838D01*
X231752061Y-85436066D01*
X231761500Y-85483519D01*
X231761500Y-98457069D01*
X231744023Y-98520543D01*
X231696517Y-98566124D01*
X231643002Y-98595084D01*
X231642995Y-98595088D01*
X231638491Y-98597526D01*
X231634448Y-98600672D01*
X231634440Y-98600678D01*
X231446304Y-98747111D01*
X231442256Y-98750262D01*
X231438793Y-98754023D01*
X231438784Y-98754032D01*
X231277311Y-98929439D01*
X231277305Y-98929446D01*
X231273836Y-98933215D01*
X231271031Y-98937506D01*
X231271028Y-98937512D01*
X231140631Y-99137099D01*
X231140624Y-99137111D01*
X231137827Y-99141393D01*
X231135772Y-99146077D01*
X231135766Y-99146089D01*
X231045693Y-99351436D01*
X231037937Y-99369119D01*
X231036679Y-99374084D01*
X231036678Y-99374089D01*
X230978151Y-99605204D01*
X230978149Y-99605213D01*
X230976892Y-99610179D01*
X230976468Y-99615288D01*
X230976467Y-99615298D01*
X230965457Y-99748179D01*
X230956357Y-99858000D01*
X230956781Y-99863117D01*
X230976467Y-100100701D01*
X230976468Y-100100709D01*
X230976892Y-100105821D01*
X230978149Y-100110788D01*
X230978151Y-100110795D01*
X231032216Y-100324291D01*
X231037937Y-100346881D01*
X231039997Y-100351577D01*
X231135766Y-100569910D01*
X231135769Y-100569916D01*
X231137827Y-100574607D01*
X231140627Y-100578893D01*
X231140631Y-100578900D01*
X231203314Y-100674843D01*
X231273836Y-100782785D01*
X231277310Y-100786559D01*
X231277311Y-100786560D01*
X231438784Y-100961967D01*
X231438787Y-100961970D01*
X231442256Y-100965738D01*
X231497271Y-101008558D01*
X231536262Y-101060415D01*
X231543725Y-101124868D01*
X231517617Y-101184267D01*
X231465084Y-101222349D01*
X231454080Y-101226522D01*
X231454070Y-101226527D01*
X231447070Y-101229182D01*
X231440904Y-101233437D01*
X231440894Y-101233443D01*
X231438717Y-101234946D01*
X231419195Y-101245957D01*
X231416788Y-101247040D01*
X231416778Y-101247045D01*
X231409944Y-101250122D01*
X231404043Y-101254744D01*
X231404038Y-101254748D01*
X231362608Y-101287206D01*
X231356580Y-101291642D01*
X231313246Y-101321554D01*
X231313242Y-101321556D01*
X231307071Y-101325817D01*
X231302101Y-101331426D01*
X231302094Y-101331433D01*
X231267177Y-101370846D01*
X231262044Y-101376298D01*
X228854162Y-103784181D01*
X228813934Y-103811061D01*
X228766481Y-103820500D01*
X227544519Y-103820500D01*
X227497066Y-103811061D01*
X227456838Y-103784181D01*
X227050819Y-103378162D01*
X227023939Y-103337934D01*
X227014500Y-103290481D01*
X227014500Y-103100599D01*
X227020928Y-103061194D01*
X227039545Y-103025874D01*
X227061680Y-102996560D01*
X227087046Y-102962971D01*
X227130726Y-102926698D01*
X227185998Y-102913698D01*
X227241270Y-102926697D01*
X227284953Y-102962971D01*
X227357500Y-103059038D01*
X227369236Y-103074579D01*
X227373472Y-103078440D01*
X227373476Y-103078445D01*
X227475227Y-103171203D01*
X227519959Y-103211981D01*
X227693363Y-103319348D01*
X227883544Y-103393024D01*
X228084024Y-103430500D01*
X228282247Y-103430500D01*
X228287976Y-103430500D01*
X228488456Y-103393024D01*
X228678637Y-103319348D01*
X228852041Y-103211981D01*
X229002764Y-103074579D01*
X229125673Y-102911821D01*
X229216582Y-102729250D01*
X229272397Y-102533083D01*
X229291215Y-102330000D01*
X229272397Y-102126917D01*
X229216582Y-101930750D01*
X229125673Y-101748179D01*
X229077176Y-101683959D01*
X229006221Y-101589998D01*
X229006217Y-101589994D01*
X229002764Y-101585421D01*
X228998527Y-101581558D01*
X228998523Y-101581554D01*
X228856275Y-101451879D01*
X228856276Y-101451879D01*
X228852041Y-101448019D01*
X228847170Y-101445003D01*
X228847169Y-101445002D01*
X228831704Y-101435427D01*
X228788652Y-101390339D01*
X228772981Y-101330000D01*
X228788652Y-101269661D01*
X228831704Y-101224573D01*
X228835296Y-101222349D01*
X228852041Y-101211981D01*
X229002764Y-101074579D01*
X229125673Y-100911821D01*
X229216582Y-100729250D01*
X229272397Y-100533083D01*
X229291215Y-100330000D01*
X229272397Y-100126917D01*
X229216582Y-99930750D01*
X229125673Y-99748179D01*
X229059586Y-99660666D01*
X229006221Y-99589998D01*
X229006217Y-99589994D01*
X229002764Y-99585421D01*
X228998527Y-99581558D01*
X228998523Y-99581554D01*
X228856275Y-99451879D01*
X228856276Y-99451879D01*
X228852041Y-99448019D01*
X228847171Y-99445004D01*
X228847169Y-99445002D01*
X228683511Y-99343670D01*
X228683512Y-99343670D01*
X228678637Y-99340652D01*
X228673294Y-99338582D01*
X228493803Y-99269047D01*
X228493798Y-99269045D01*
X228488456Y-99266976D01*
X228456113Y-99260930D01*
X228293605Y-99230552D01*
X228293602Y-99230551D01*
X228287976Y-99229500D01*
X228084024Y-99229500D01*
X228078398Y-99230551D01*
X228078394Y-99230552D01*
X227889181Y-99265922D01*
X227889178Y-99265922D01*
X227883544Y-99266976D01*
X227878203Y-99269044D01*
X227878196Y-99269047D01*
X227698705Y-99338582D01*
X227698700Y-99338584D01*
X227693363Y-99340652D01*
X227688491Y-99343668D01*
X227688488Y-99343670D01*
X227524830Y-99445002D01*
X227524822Y-99445007D01*
X227519959Y-99448019D01*
X227515728Y-99451875D01*
X227515724Y-99451879D01*
X227373476Y-99581554D01*
X227373466Y-99581564D01*
X227369236Y-99585421D01*
X227365787Y-99589987D01*
X227365778Y-99589998D01*
X227284954Y-99697028D01*
X227241271Y-99733301D01*
X227186000Y-99746301D01*
X227130729Y-99733301D01*
X227087046Y-99697028D01*
X227006221Y-99589998D01*
X227006217Y-99589994D01*
X227002764Y-99585421D01*
X226998527Y-99581558D01*
X226998523Y-99581554D01*
X226856275Y-99451879D01*
X226856276Y-99451879D01*
X226852041Y-99448019D01*
X226847171Y-99445004D01*
X226847169Y-99445002D01*
X226683511Y-99343670D01*
X226683512Y-99343670D01*
X226678637Y-99340652D01*
X226673294Y-99338582D01*
X226493803Y-99269047D01*
X226493798Y-99269045D01*
X226488456Y-99266976D01*
X226456113Y-99260930D01*
X226293605Y-99230552D01*
X226293602Y-99230551D01*
X226287976Y-99229500D01*
X226084024Y-99229500D01*
X226078398Y-99230551D01*
X226078394Y-99230552D01*
X225889181Y-99265922D01*
X225889178Y-99265922D01*
X225883544Y-99266976D01*
X225878203Y-99269044D01*
X225878196Y-99269047D01*
X225698705Y-99338582D01*
X225698700Y-99338584D01*
X225693363Y-99340652D01*
X225688491Y-99343668D01*
X225688488Y-99343670D01*
X225524830Y-99445002D01*
X225524822Y-99445007D01*
X225519959Y-99448019D01*
X225515728Y-99451875D01*
X225515724Y-99451879D01*
X225373476Y-99581554D01*
X225373466Y-99581564D01*
X225369236Y-99585421D01*
X225365787Y-99589987D01*
X225365778Y-99589998D01*
X225284954Y-99697028D01*
X225241271Y-99733301D01*
X225186000Y-99746301D01*
X225130729Y-99733301D01*
X225087046Y-99697028D01*
X225006221Y-99589998D01*
X225006217Y-99589994D01*
X225002764Y-99585421D01*
X224998527Y-99581558D01*
X224998523Y-99581554D01*
X224856275Y-99451879D01*
X224856276Y-99451879D01*
X224852041Y-99448019D01*
X224847171Y-99445004D01*
X224847169Y-99445002D01*
X224683511Y-99343670D01*
X224683512Y-99343670D01*
X224678637Y-99340652D01*
X224673294Y-99338582D01*
X224493803Y-99269047D01*
X224493798Y-99269045D01*
X224488456Y-99266976D01*
X224321714Y-99235806D01*
X224269773Y-99212872D01*
X224233500Y-99169190D01*
X224220500Y-99113918D01*
X224220500Y-97814921D01*
X224220726Y-97807433D01*
X224223905Y-97754881D01*
X224224358Y-97747394D01*
X224213514Y-97688221D01*
X224212387Y-97680815D01*
X224212146Y-97678831D01*
X224205140Y-97621128D01*
X224201547Y-97611656D01*
X224195522Y-97590041D01*
X224193695Y-97580069D01*
X224169009Y-97525220D01*
X224166142Y-97518298D01*
X224147480Y-97469090D01*
X224144818Y-97462070D01*
X224139059Y-97453727D01*
X224128033Y-97434177D01*
X224126956Y-97431784D01*
X224123878Y-97424944D01*
X224086791Y-97377605D01*
X224082353Y-97371574D01*
X224052446Y-97328247D01*
X224048183Y-97322071D01*
X224042568Y-97317097D01*
X224042565Y-97317093D01*
X224003170Y-97282193D01*
X223997716Y-97277059D01*
X222856657Y-96136000D01*
X226901215Y-96136000D01*
X226901894Y-96142460D01*
X226919223Y-96307341D01*
X226919224Y-96307348D01*
X226919903Y-96313803D01*
X226975150Y-96483835D01*
X227064541Y-96638665D01*
X227184170Y-96771526D01*
X227328807Y-96876612D01*
X227492133Y-96949329D01*
X227498491Y-96950680D01*
X227498493Y-96950681D01*
X227534085Y-96958246D01*
X227667009Y-96986500D01*
X227839288Y-96986500D01*
X227845791Y-96986500D01*
X228020667Y-96949329D01*
X228183993Y-96876612D01*
X228328630Y-96771526D01*
X228448259Y-96638665D01*
X228537650Y-96483835D01*
X228592897Y-96313803D01*
X228611585Y-96136000D01*
X228592897Y-95958197D01*
X228537650Y-95788165D01*
X228448259Y-95633335D01*
X228443553Y-95628109D01*
X228356961Y-95531939D01*
X228328630Y-95500474D01*
X228269292Y-95457362D01*
X228189247Y-95399205D01*
X228189245Y-95399203D01*
X228183993Y-95395388D01*
X228124064Y-95368706D01*
X228026605Y-95325314D01*
X228026598Y-95325311D01*
X228020667Y-95322671D01*
X228014314Y-95321320D01*
X228014306Y-95321318D01*
X227852153Y-95286852D01*
X227852150Y-95286851D01*
X227845791Y-95285500D01*
X227667009Y-95285500D01*
X227660650Y-95286851D01*
X227660646Y-95286852D01*
X227498493Y-95321318D01*
X227498482Y-95321321D01*
X227492133Y-95322671D01*
X227486204Y-95325310D01*
X227486194Y-95325314D01*
X227334742Y-95392745D01*
X227334734Y-95392749D01*
X227328808Y-95395388D01*
X227323559Y-95399201D01*
X227323553Y-95399205D01*
X227189423Y-95496656D01*
X227189414Y-95496663D01*
X227184170Y-95500474D01*
X227179826Y-95505297D01*
X227179823Y-95505301D01*
X227068887Y-95628507D01*
X227068882Y-95628513D01*
X227064541Y-95633335D01*
X227061296Y-95638955D01*
X227061292Y-95638961D01*
X226978398Y-95782538D01*
X226978395Y-95782543D01*
X226975150Y-95788165D01*
X226973144Y-95794337D01*
X226973142Y-95794343D01*
X226926969Y-95936449D01*
X226919903Y-95958197D01*
X226919224Y-95964649D01*
X226919223Y-95964658D01*
X226909449Y-96057657D01*
X226901215Y-96136000D01*
X222856657Y-96136000D01*
X220446819Y-93726162D01*
X220419939Y-93685934D01*
X220410500Y-93638481D01*
X220410500Y-93344780D01*
X220429803Y-93278337D01*
X220481703Y-93232581D01*
X220550042Y-93221758D01*
X220613541Y-93249237D01*
X220652430Y-93306461D01*
X220660821Y-93332284D01*
X220664068Y-93337908D01*
X220664069Y-93337910D01*
X220752068Y-93490330D01*
X220755467Y-93496216D01*
X220759811Y-93501041D01*
X220759813Y-93501043D01*
X220857151Y-93609147D01*
X220882129Y-93636888D01*
X221035270Y-93748151D01*
X221208197Y-93825144D01*
X221393354Y-93864500D01*
X221576143Y-93864500D01*
X221582646Y-93864500D01*
X221767803Y-93825144D01*
X221940730Y-93748151D01*
X222093871Y-93636888D01*
X222220533Y-93496216D01*
X222315179Y-93332284D01*
X222373674Y-93152256D01*
X222393460Y-92964000D01*
X222373674Y-92775744D01*
X222315179Y-92595716D01*
X222220533Y-92431784D01*
X222212350Y-92422696D01*
X222188736Y-92384162D01*
X222180500Y-92339724D01*
X222180500Y-91047983D01*
X222192579Y-90994600D01*
X222226464Y-90951617D01*
X222275552Y-90927409D01*
X222330280Y-90926693D01*
X222402988Y-90942147D01*
X222402989Y-90942147D01*
X222409354Y-90943500D01*
X222592143Y-90943500D01*
X222598646Y-90943500D01*
X222783803Y-90904144D01*
X222956730Y-90827151D01*
X223109871Y-90715888D01*
X223236533Y-90575216D01*
X223331179Y-90411284D01*
X223389674Y-90231256D01*
X223409460Y-90043000D01*
X223399567Y-89948872D01*
X223390353Y-89861204D01*
X223390352Y-89861203D01*
X223389674Y-89854744D01*
X223385843Y-89842955D01*
X223348741Y-89728767D01*
X223331179Y-89674716D01*
X223236533Y-89510784D01*
X223212350Y-89483926D01*
X223188736Y-89445392D01*
X223180500Y-89400954D01*
X223180500Y-84793969D01*
X223197768Y-84730848D01*
X223202073Y-84723569D01*
X223231744Y-84673398D01*
X223277598Y-84515569D01*
X223280500Y-84478694D01*
X223280500Y-83097306D01*
X223277598Y-83060431D01*
X223231744Y-82902602D01*
X223148081Y-82761135D01*
X223031865Y-82644919D01*
X223025151Y-82640948D01*
X223025148Y-82640946D01*
X222897113Y-82565227D01*
X222897111Y-82565226D01*
X222890398Y-82561256D01*
X222882905Y-82559079D01*
X222738657Y-82517170D01*
X222738650Y-82517168D01*
X222732569Y-82515402D01*
X222726258Y-82514905D01*
X222726251Y-82514904D01*
X222698128Y-82512691D01*
X222698114Y-82512690D01*
X222695694Y-82512500D01*
X222264306Y-82512500D01*
X222261886Y-82512690D01*
X222261871Y-82512691D01*
X222233748Y-82514904D01*
X222233739Y-82514905D01*
X222227431Y-82515402D01*
X222221351Y-82517168D01*
X222221342Y-82517170D01*
X222077094Y-82559079D01*
X222077091Y-82559080D01*
X222069602Y-82561256D01*
X222062890Y-82565225D01*
X222062884Y-82565228D01*
X222043119Y-82576917D01*
X221980000Y-82594184D01*
X221916881Y-82576917D01*
X221897115Y-82565228D01*
X221897112Y-82565226D01*
X221890398Y-82561256D01*
X221882905Y-82559079D01*
X221738657Y-82517170D01*
X221738650Y-82517168D01*
X221732569Y-82515402D01*
X221726258Y-82514905D01*
X221726251Y-82514904D01*
X221698128Y-82512691D01*
X221698114Y-82512690D01*
X221695694Y-82512500D01*
X221264306Y-82512500D01*
X221261886Y-82512690D01*
X221261871Y-82512691D01*
X221233748Y-82514904D01*
X221233739Y-82514905D01*
X221227431Y-82515402D01*
X221221351Y-82517168D01*
X221221342Y-82517170D01*
X221077094Y-82559079D01*
X221077091Y-82559080D01*
X221069602Y-82561256D01*
X221062888Y-82565226D01*
X221062887Y-82565227D01*
X221042628Y-82577208D01*
X220979507Y-82594475D01*
X220916387Y-82577207D01*
X220896908Y-82565687D01*
X220882705Y-82559541D01*
X220740776Y-82518307D01*
X220733706Y-82519713D01*
X220730000Y-82532856D01*
X220730000Y-82878953D01*
X220725076Y-82913548D01*
X220684170Y-83054342D01*
X220684168Y-83054351D01*
X220682402Y-83060431D01*
X220681905Y-83066739D01*
X220681904Y-83066748D01*
X220679691Y-83094871D01*
X220679690Y-83094886D01*
X220679500Y-83097306D01*
X220679500Y-84478694D01*
X220679690Y-84481114D01*
X220679691Y-84481128D01*
X220681904Y-84509251D01*
X220681905Y-84509258D01*
X220682402Y-84515569D01*
X220684168Y-84521650D01*
X220684170Y-84521657D01*
X220725076Y-84662452D01*
X220730000Y-84697047D01*
X220730000Y-85043144D01*
X220734124Y-85057767D01*
X220739672Y-85062896D01*
X220769107Y-85104259D01*
X220779500Y-85153952D01*
X220779500Y-92359571D01*
X220773431Y-92397888D01*
X220757065Y-92430008D01*
X220755467Y-92431784D01*
X220752223Y-92437402D01*
X220752217Y-92437411D01*
X220664069Y-92590089D01*
X220664066Y-92590094D01*
X220660821Y-92595716D01*
X220658815Y-92601888D01*
X220658813Y-92601894D01*
X220652431Y-92621538D01*
X220613541Y-92678763D01*
X220550042Y-92706242D01*
X220481703Y-92695419D01*
X220429803Y-92649663D01*
X220410500Y-92583220D01*
X220410500Y-86384921D01*
X220410726Y-86377433D01*
X220413905Y-86324881D01*
X220414358Y-86317394D01*
X220403514Y-86258221D01*
X220402387Y-86250815D01*
X220402146Y-86248831D01*
X220395140Y-86191128D01*
X220391547Y-86181656D01*
X220385522Y-86160041D01*
X220383695Y-86150069D01*
X220359007Y-86095217D01*
X220356141Y-86088296D01*
X220337479Y-86039088D01*
X220334818Y-86032070D01*
X220329063Y-86023733D01*
X220318035Y-86004179D01*
X220316958Y-86001785D01*
X220316954Y-86001779D01*
X220313878Y-85994943D01*
X220276785Y-85947597D01*
X220272355Y-85941577D01*
X220238183Y-85892071D01*
X220193170Y-85852193D01*
X220187716Y-85847059D01*
X219615542Y-85274885D01*
X219585595Y-85226442D01*
X219580461Y-85169722D01*
X219601224Y-85116690D01*
X219643503Y-85078532D01*
X219695735Y-85064032D01*
X219695694Y-85063500D01*
X219732569Y-85060598D01*
X219890398Y-85014744D01*
X219917366Y-84998794D01*
X219980488Y-84981525D01*
X220043610Y-84998792D01*
X220063089Y-85010311D01*
X220077294Y-85016458D01*
X220219223Y-85057692D01*
X220226293Y-85056286D01*
X220230000Y-85043144D01*
X220230000Y-84697047D01*
X220234924Y-84662452D01*
X220275829Y-84521657D01*
X220277598Y-84515569D01*
X220280500Y-84478694D01*
X220280500Y-83097306D01*
X220277598Y-83060431D01*
X220234923Y-82913547D01*
X220230000Y-82878953D01*
X220230000Y-82532856D01*
X220226293Y-82519713D01*
X220219223Y-82518307D01*
X220077294Y-82559541D01*
X220063086Y-82565689D01*
X220043608Y-82577208D01*
X219980489Y-82594474D01*
X219917371Y-82577207D01*
X219897115Y-82565228D01*
X219897112Y-82565226D01*
X219890398Y-82561256D01*
X219882905Y-82559079D01*
X219738657Y-82517170D01*
X219738650Y-82517168D01*
X219732569Y-82515402D01*
X219726258Y-82514905D01*
X219726251Y-82514904D01*
X219698128Y-82512691D01*
X219698114Y-82512690D01*
X219695694Y-82512500D01*
X219264306Y-82512500D01*
X219261891Y-82512689D01*
X219261866Y-82512691D01*
X219257187Y-82513060D01*
X219204541Y-82505777D01*
X219159779Y-82477123D01*
X218207836Y-81525180D01*
X218177586Y-81475817D01*
X218173044Y-81418101D01*
X218195199Y-81364614D01*
X218239222Y-81327014D01*
X218295517Y-81313499D01*
X218576859Y-81313499D01*
X218580008Y-81313499D01*
X218682797Y-81302999D01*
X218849334Y-81247814D01*
X218998656Y-81155712D01*
X219122712Y-81031656D01*
X219214814Y-80882334D01*
X219269999Y-80715797D01*
X219280500Y-80613009D01*
X219280500Y-80609878D01*
X222679500Y-80609878D01*
X222679501Y-80613008D01*
X222679820Y-80616140D01*
X222679821Y-80616141D01*
X222689312Y-80709061D01*
X222689313Y-80709069D01*
X222690001Y-80715797D01*
X222692129Y-80722219D01*
X222692130Y-80722223D01*
X222693133Y-80725250D01*
X222745186Y-80882334D01*
X222748977Y-80888480D01*
X222833497Y-81025511D01*
X222833500Y-81025515D01*
X222837288Y-81031656D01*
X222961344Y-81155712D01*
X222967485Y-81159500D01*
X222967488Y-81159502D01*
X223024558Y-81194702D01*
X223110666Y-81247814D01*
X223277203Y-81302999D01*
X223379991Y-81313500D01*
X224180008Y-81313499D01*
X224282797Y-81302999D01*
X224449334Y-81247814D01*
X224598656Y-81155712D01*
X224722712Y-81031656D01*
X224814814Y-80882334D01*
X224869999Y-80715797D01*
X224880500Y-80613009D01*
X224880499Y-79212992D01*
X224869999Y-79110203D01*
X224814814Y-78943666D01*
X224761702Y-78857558D01*
X224726502Y-78800488D01*
X224726500Y-78800485D01*
X224722712Y-78794344D01*
X224598656Y-78670288D01*
X224592515Y-78666500D01*
X224592511Y-78666497D01*
X224455480Y-78581977D01*
X224449334Y-78578186D01*
X224432099Y-78572475D01*
X224289225Y-78525131D01*
X224289224Y-78525130D01*
X224282797Y-78523001D01*
X224276064Y-78522313D01*
X224276059Y-78522312D01*
X224183140Y-78512819D01*
X224183123Y-78512818D01*
X224180009Y-78512500D01*
X224176860Y-78512500D01*
X223383141Y-78512500D01*
X223383121Y-78512500D01*
X223379992Y-78512501D01*
X223376860Y-78512820D01*
X223376858Y-78512821D01*
X223283938Y-78522312D01*
X223283928Y-78522313D01*
X223277203Y-78523001D01*
X223270781Y-78525128D01*
X223270776Y-78525130D01*
X223117521Y-78575914D01*
X223117517Y-78575915D01*
X223110666Y-78578186D01*
X223104522Y-78581975D01*
X223104519Y-78581977D01*
X222967488Y-78666497D01*
X222967480Y-78666503D01*
X222961344Y-78670288D01*
X222956242Y-78675389D01*
X222956238Y-78675393D01*
X222842393Y-78789238D01*
X222842389Y-78789242D01*
X222837288Y-78794344D01*
X222833503Y-78800480D01*
X222833497Y-78800488D01*
X222748977Y-78937519D01*
X222745186Y-78943666D01*
X222742915Y-78950517D01*
X222742914Y-78950521D01*
X222692131Y-79103774D01*
X222690001Y-79110203D01*
X222689313Y-79116933D01*
X222689312Y-79116940D01*
X222679819Y-79209859D01*
X222679818Y-79209877D01*
X222679500Y-79212991D01*
X222679500Y-79216138D01*
X222679500Y-79216139D01*
X222679500Y-80609859D01*
X222679500Y-80609878D01*
X219280500Y-80609878D01*
X219280499Y-79212992D01*
X219269999Y-79110203D01*
X219214814Y-78943666D01*
X219161702Y-78857558D01*
X219126502Y-78800488D01*
X219126500Y-78800485D01*
X219122712Y-78794344D01*
X218998656Y-78670288D01*
X218992515Y-78666500D01*
X218992511Y-78666497D01*
X218855480Y-78581977D01*
X218849334Y-78578186D01*
X218832099Y-78572475D01*
X218689225Y-78525131D01*
X218689224Y-78525130D01*
X218682797Y-78523001D01*
X218676064Y-78522313D01*
X218676059Y-78522312D01*
X218583140Y-78512819D01*
X218583123Y-78512818D01*
X218580009Y-78512500D01*
X218576860Y-78512500D01*
X217783141Y-78512500D01*
X217783121Y-78512500D01*
X217779992Y-78512501D01*
X217776860Y-78512820D01*
X217776858Y-78512821D01*
X217683938Y-78522312D01*
X217683928Y-78522313D01*
X217677203Y-78523001D01*
X217670781Y-78525128D01*
X217670776Y-78525130D01*
X217517521Y-78575914D01*
X217517517Y-78575915D01*
X217510666Y-78578186D01*
X217504522Y-78581975D01*
X217504519Y-78581977D01*
X217367488Y-78666497D01*
X217367480Y-78666503D01*
X217361344Y-78670288D01*
X217356242Y-78675389D01*
X217356238Y-78675393D01*
X217242393Y-78789238D01*
X217242389Y-78789242D01*
X217237288Y-78794344D01*
X217233503Y-78800480D01*
X217233497Y-78800488D01*
X217148977Y-78937519D01*
X217145186Y-78943666D01*
X217142915Y-78950517D01*
X217142914Y-78950521D01*
X217092131Y-79103774D01*
X217090001Y-79110203D01*
X217089313Y-79116933D01*
X217089312Y-79116940D01*
X217079819Y-79209859D01*
X217079818Y-79209877D01*
X217079500Y-79212991D01*
X217079500Y-79216139D01*
X217079500Y-79216140D01*
X217079500Y-80097482D01*
X217065985Y-80153777D01*
X217028385Y-80197800D01*
X216974898Y-80219955D01*
X216917182Y-80215413D01*
X216867819Y-80185163D01*
X211693303Y-75010647D01*
X206467152Y-69784495D01*
X206437127Y-69735817D01*
X206432142Y-69678842D01*
X206453259Y-69625690D01*
X206530928Y-69514767D01*
X206534035Y-69510330D01*
X206633903Y-69296163D01*
X206695063Y-69067908D01*
X206715659Y-68832500D01*
X206695063Y-68597092D01*
X206633903Y-68368837D01*
X206534035Y-68154671D01*
X206398495Y-67961099D01*
X206231401Y-67794005D01*
X206226970Y-67790902D01*
X206226966Y-67790899D01*
X206042259Y-67661566D01*
X206042257Y-67661564D01*
X206037830Y-67658465D01*
X206032933Y-67656181D01*
X206032927Y-67656178D01*
X205828572Y-67560886D01*
X205828570Y-67560885D01*
X205823663Y-67558597D01*
X205818438Y-67557197D01*
X205818430Y-67557194D01*
X205600634Y-67498837D01*
X205600630Y-67498836D01*
X205595408Y-67497437D01*
X205590020Y-67496965D01*
X205590017Y-67496965D01*
X205365395Y-67477313D01*
X205360000Y-67476841D01*
X205354605Y-67477313D01*
X205129982Y-67496965D01*
X205129977Y-67496965D01*
X205124592Y-67497437D01*
X205119371Y-67498835D01*
X205119365Y-67498837D01*
X204901569Y-67557194D01*
X204901557Y-67557198D01*
X204896337Y-67558597D01*
X204891432Y-67560883D01*
X204891427Y-67560886D01*
X204687081Y-67656175D01*
X204687077Y-67656177D01*
X204682171Y-67658465D01*
X204677738Y-67661568D01*
X204677731Y-67661573D01*
X204493034Y-67790899D01*
X204493029Y-67790902D01*
X204488599Y-67794005D01*
X204484775Y-67797828D01*
X204484769Y-67797834D01*
X204325334Y-67957269D01*
X204325328Y-67957275D01*
X204321505Y-67961099D01*
X204318402Y-67965529D01*
X204318399Y-67965534D01*
X204189073Y-68150231D01*
X204189068Y-68150238D01*
X204185965Y-68154671D01*
X204183677Y-68159577D01*
X204183675Y-68159581D01*
X204088386Y-68363927D01*
X204088383Y-68363932D01*
X204086097Y-68368837D01*
X204084698Y-68374057D01*
X204084694Y-68374069D01*
X204026337Y-68591865D01*
X204026335Y-68591871D01*
X204024937Y-68597092D01*
X204024465Y-68602477D01*
X204024465Y-68602482D01*
X204018036Y-68675965D01*
X204004341Y-68832500D01*
X204004813Y-68837895D01*
X204004813Y-68837896D01*
X204022419Y-69039131D01*
X204012618Y-69099357D01*
X203975278Y-69147616D01*
X203919442Y-69172223D01*
X203858629Y-69167219D01*
X203734469Y-69124595D01*
X203734460Y-69124592D01*
X203729614Y-69122929D01*
X203720768Y-69121452D01*
X203489398Y-69082844D01*
X203489387Y-69082843D01*
X203484335Y-69082000D01*
X203235665Y-69082000D01*
X203230613Y-69082843D01*
X203230601Y-69082844D01*
X202995443Y-69122085D01*
X202995441Y-69122085D01*
X202990386Y-69122929D01*
X202985541Y-69124592D01*
X202985534Y-69124594D01*
X202760037Y-69202007D01*
X202760026Y-69202011D01*
X202755190Y-69203672D01*
X202750693Y-69206105D01*
X202750683Y-69206110D01*
X202541002Y-69319584D01*
X202540995Y-69319588D01*
X202536491Y-69322026D01*
X202532448Y-69325172D01*
X202532440Y-69325178D01*
X202344304Y-69471611D01*
X202340256Y-69474762D01*
X202336793Y-69478523D01*
X202336784Y-69478532D01*
X202175311Y-69653939D01*
X202175305Y-69653946D01*
X202171836Y-69657715D01*
X202169031Y-69662006D01*
X202169028Y-69662012D01*
X202038631Y-69861599D01*
X202038624Y-69861611D01*
X202035827Y-69865893D01*
X202033772Y-69870577D01*
X202033766Y-69870589D01*
X201937997Y-70088922D01*
X201935937Y-70093619D01*
X201934679Y-70098584D01*
X201934678Y-70098589D01*
X201876151Y-70329704D01*
X201876149Y-70329713D01*
X201874892Y-70334679D01*
X201874468Y-70339788D01*
X201874467Y-70339798D01*
X201864207Y-70463627D01*
X201854357Y-70582500D01*
X201854781Y-70587617D01*
X201874467Y-70825201D01*
X201874468Y-70825209D01*
X201874892Y-70830321D01*
X201876149Y-70835288D01*
X201876151Y-70835295D01*
X201890410Y-70891600D01*
X201935937Y-71071381D01*
X201937997Y-71076077D01*
X202033766Y-71294410D01*
X202033769Y-71294416D01*
X202035827Y-71299107D01*
X202038627Y-71303393D01*
X202038631Y-71303400D01*
X202166675Y-71499385D01*
X202171836Y-71507285D01*
X202175310Y-71511059D01*
X202175311Y-71511060D01*
X202336784Y-71686467D01*
X202336787Y-71686470D01*
X202340256Y-71690238D01*
X202536491Y-71842974D01*
X202755190Y-71961328D01*
X202990386Y-72042071D01*
X203235665Y-72083000D01*
X203479201Y-72083000D01*
X203484335Y-72083000D01*
X203729614Y-72042071D01*
X203964810Y-71961328D01*
X204183509Y-71842974D01*
X204379744Y-71690238D01*
X204548164Y-71507285D01*
X204684173Y-71299107D01*
X204784063Y-71071381D01*
X204845108Y-70830321D01*
X204865643Y-70582500D01*
X204855792Y-70463627D01*
X204865405Y-70404517D01*
X204901599Y-70356806D01*
X204955932Y-70331622D01*
X205015732Y-70334839D01*
X205067047Y-70365704D01*
X211850607Y-77149263D01*
X218643181Y-83941837D01*
X218670061Y-83982065D01*
X218679500Y-84029518D01*
X218679500Y-84039481D01*
X218665985Y-84095776D01*
X218628385Y-84139799D01*
X218574898Y-84161954D01*
X218517182Y-84157412D01*
X218467819Y-84127162D01*
X213110939Y-78770282D01*
X213105822Y-78764847D01*
X213065929Y-78719817D01*
X213016410Y-78685636D01*
X213010404Y-78681216D01*
X212968961Y-78648747D01*
X212968958Y-78648745D01*
X212963057Y-78644122D01*
X212956219Y-78641044D01*
X212956210Y-78641039D01*
X212953810Y-78639959D01*
X212934268Y-78628937D01*
X212932107Y-78627445D01*
X212932102Y-78627442D01*
X212925930Y-78623182D01*
X212869702Y-78601857D01*
X212862784Y-78598991D01*
X212814772Y-78577383D01*
X212814769Y-78577382D01*
X212807932Y-78574305D01*
X212800560Y-78572954D01*
X212800551Y-78572951D01*
X212797952Y-78572475D01*
X212776340Y-78566450D01*
X212773891Y-78565521D01*
X212773885Y-78565519D01*
X212766872Y-78562860D01*
X212759430Y-78561956D01*
X212759425Y-78561955D01*
X212707171Y-78555610D01*
X212699771Y-78554483D01*
X212647987Y-78544994D01*
X212647982Y-78544993D01*
X212640606Y-78543642D01*
X212633126Y-78544094D01*
X212633118Y-78544094D01*
X212580567Y-78547274D01*
X212573079Y-78547500D01*
X200497673Y-78547500D01*
X200440416Y-78533489D01*
X200396098Y-78494623D01*
X200339152Y-78413296D01*
X200336047Y-78408861D01*
X200175139Y-78247953D01*
X200078004Y-78179939D01*
X199993173Y-78120540D01*
X199993171Y-78120539D01*
X199988734Y-78117432D01*
X199930724Y-78090381D01*
X199878549Y-78044625D01*
X199859130Y-77978000D01*
X199878549Y-77911375D01*
X199930725Y-77865618D01*
X199988734Y-77838568D01*
X200175139Y-77708047D01*
X200336047Y-77547139D01*
X200466568Y-77360734D01*
X200562739Y-77154496D01*
X200621635Y-76934692D01*
X200641468Y-76708000D01*
X200621635Y-76481308D01*
X200562739Y-76261504D01*
X200466568Y-76055266D01*
X200336047Y-75868861D01*
X200175139Y-75707953D01*
X199988734Y-75577432D01*
X199983831Y-75575145D01*
X199983823Y-75575141D01*
X199930134Y-75550106D01*
X199877958Y-75504349D01*
X199858539Y-75437723D01*
X199877959Y-75371098D01*
X199930135Y-75325341D01*
X199983585Y-75300417D01*
X199992912Y-75295032D01*
X200170381Y-75170767D01*
X200178647Y-75163830D01*
X200331830Y-75010647D01*
X200338767Y-75002381D01*
X200463032Y-74824912D01*
X200468420Y-74815580D01*
X200559977Y-74619234D01*
X200563669Y-74609092D01*
X200611179Y-74431780D01*
X200611547Y-74420551D01*
X200600605Y-74418000D01*
X197671395Y-74418000D01*
X197660452Y-74420551D01*
X197660820Y-74431780D01*
X197708330Y-74609092D01*
X197712022Y-74619234D01*
X197803579Y-74815580D01*
X197808967Y-74824912D01*
X197933232Y-75002381D01*
X197940169Y-75010647D01*
X198093352Y-75163830D01*
X198101618Y-75170767D01*
X198279087Y-75295032D01*
X198288423Y-75300422D01*
X198341864Y-75325342D01*
X198394040Y-75371098D01*
X198413460Y-75437723D01*
X198394041Y-75504348D01*
X198341865Y-75550106D01*
X198283266Y-75577432D01*
X198278833Y-75580535D01*
X198278826Y-75580540D01*
X198101296Y-75704847D01*
X198101291Y-75704850D01*
X198096861Y-75707953D01*
X198093037Y-75711776D01*
X198093031Y-75711782D01*
X197939782Y-75865031D01*
X197939776Y-75865037D01*
X197935953Y-75868861D01*
X197932850Y-75873291D01*
X197932847Y-75873296D01*
X197808540Y-76050826D01*
X197808535Y-76050833D01*
X197805432Y-76055266D01*
X197803144Y-76060172D01*
X197803142Y-76060176D01*
X197711550Y-76256594D01*
X197711547Y-76256599D01*
X197709261Y-76261504D01*
X197707862Y-76266724D01*
X197707858Y-76266736D01*
X197651764Y-76476083D01*
X197651762Y-76476094D01*
X197650365Y-76481308D01*
X197630532Y-76708000D01*
X197631004Y-76713395D01*
X197647999Y-76907655D01*
X197650365Y-76934692D01*
X197651762Y-76939907D01*
X197651764Y-76939916D01*
X197707858Y-77149263D01*
X197707861Y-77149271D01*
X197709261Y-77154496D01*
X197805432Y-77360734D01*
X197935953Y-77547139D01*
X198096861Y-77708047D01*
X198283266Y-77838568D01*
X198288172Y-77840855D01*
X198288176Y-77840858D01*
X198341274Y-77865618D01*
X198393450Y-77911375D01*
X198412869Y-77978000D01*
X198393450Y-78044625D01*
X198341274Y-78090382D01*
X198288176Y-78115141D01*
X198288163Y-78115148D01*
X198283266Y-78117432D01*
X198278833Y-78120535D01*
X198278826Y-78120540D01*
X198101296Y-78244847D01*
X198101291Y-78244850D01*
X198096861Y-78247953D01*
X198093037Y-78251776D01*
X198093031Y-78251782D01*
X197939782Y-78405031D01*
X197939776Y-78405037D01*
X197935953Y-78408861D01*
X197932850Y-78413291D01*
X197932847Y-78413296D01*
X197808540Y-78590826D01*
X197808535Y-78590833D01*
X197805432Y-78595266D01*
X197803144Y-78600172D01*
X197803142Y-78600176D01*
X197711550Y-78796594D01*
X197711547Y-78796599D01*
X197709261Y-78801504D01*
X197707862Y-78806724D01*
X197707858Y-78806736D01*
X197651764Y-79016083D01*
X197651762Y-79016094D01*
X197650365Y-79021308D01*
X197649893Y-79026693D01*
X197649893Y-79026698D01*
X197633869Y-79209858D01*
X197630532Y-79248000D01*
X197650365Y-79474692D01*
X197651762Y-79479907D01*
X197651764Y-79479916D01*
X197707858Y-79689263D01*
X197707861Y-79689271D01*
X197709261Y-79694496D01*
X197805432Y-79900734D01*
X197935953Y-80087139D01*
X198096861Y-80248047D01*
X198283266Y-80378568D01*
X198288172Y-80380855D01*
X198288176Y-80380858D01*
X198341274Y-80405618D01*
X198393450Y-80451375D01*
X198412869Y-80518000D01*
X198393450Y-80584625D01*
X198341274Y-80630382D01*
X198288176Y-80655141D01*
X198288163Y-80655148D01*
X198283266Y-80657432D01*
X198278833Y-80660535D01*
X198278826Y-80660540D01*
X198101296Y-80784847D01*
X198101291Y-80784850D01*
X198096861Y-80787953D01*
X198093037Y-80791776D01*
X198093031Y-80791782D01*
X197939782Y-80945031D01*
X197939776Y-80945037D01*
X197935953Y-80948861D01*
X197932850Y-80953291D01*
X197932847Y-80953296D01*
X197808540Y-81130826D01*
X197808535Y-81130833D01*
X197805432Y-81135266D01*
X197803144Y-81140172D01*
X197803142Y-81140176D01*
X197711550Y-81336594D01*
X197711547Y-81336599D01*
X197709261Y-81341504D01*
X197707862Y-81346724D01*
X197707858Y-81346736D01*
X197651764Y-81556083D01*
X197651762Y-81556094D01*
X197650365Y-81561308D01*
X197630532Y-81788000D01*
X197631004Y-81793395D01*
X197649368Y-82003305D01*
X197650365Y-82014692D01*
X197651762Y-82019907D01*
X197651764Y-82019916D01*
X197707858Y-82229263D01*
X197707861Y-82229271D01*
X197709261Y-82234496D01*
X197805432Y-82440734D01*
X197808539Y-82445171D01*
X197808540Y-82445173D01*
X197859749Y-82518307D01*
X197935953Y-82627139D01*
X198096861Y-82788047D01*
X198283266Y-82918568D01*
X198489504Y-83014739D01*
X198494734Y-83016140D01*
X198494736Y-83016141D01*
X198603500Y-83045284D01*
X198709308Y-83073635D01*
X198879216Y-83088500D01*
X199390075Y-83088500D01*
X199392784Y-83088500D01*
X199562692Y-83073635D01*
X199782496Y-83014739D01*
X199988734Y-82918568D01*
X200175139Y-82788047D01*
X200336047Y-82627139D01*
X200396098Y-82541377D01*
X200440416Y-82502511D01*
X200497673Y-82488500D01*
X209716481Y-82488500D01*
X209763934Y-82497939D01*
X209804162Y-82524819D01*
X212623181Y-85343838D01*
X212650061Y-85384066D01*
X212659500Y-85431519D01*
X212659500Y-93987783D01*
X212645388Y-94045234D01*
X212606264Y-94089609D01*
X212551032Y-94110806D01*
X212492266Y-94104002D01*
X212452338Y-94076860D01*
X212451050Y-94078291D01*
X212446219Y-94073941D01*
X212441871Y-94069112D01*
X212436613Y-94065292D01*
X212436611Y-94065290D01*
X212293988Y-93961669D01*
X212293987Y-93961668D01*
X212288730Y-93957849D01*
X212282792Y-93955205D01*
X212121745Y-93883501D01*
X212121740Y-93883499D01*
X212115803Y-93880856D01*
X212109444Y-93879504D01*
X212109440Y-93879503D01*
X211937008Y-93842852D01*
X211937005Y-93842851D01*
X211930646Y-93841500D01*
X211741354Y-93841500D01*
X211734995Y-93842851D01*
X211734991Y-93842852D01*
X211562559Y-93879503D01*
X211562552Y-93879505D01*
X211556197Y-93880856D01*
X211550262Y-93883498D01*
X211550254Y-93883501D01*
X211389207Y-93955205D01*
X211389202Y-93955207D01*
X211383270Y-93957849D01*
X211300726Y-94017820D01*
X211266163Y-94035431D01*
X211227845Y-94041500D01*
X209320910Y-94041500D01*
X209313423Y-94041274D01*
X209260881Y-94038095D01*
X209260873Y-94038095D01*
X209253394Y-94037643D01*
X209246019Y-94038994D01*
X209246009Y-94038995D01*
X209194242Y-94048481D01*
X209186843Y-94049608D01*
X209134567Y-94055956D01*
X209134561Y-94055957D01*
X209127128Y-94056860D01*
X209120123Y-94059516D01*
X209120112Y-94059519D01*
X209117639Y-94060457D01*
X209096041Y-94066478D01*
X209093451Y-94066952D01*
X209093444Y-94066954D01*
X209086068Y-94068306D01*
X209063910Y-94078278D01*
X209031234Y-94092984D01*
X209024318Y-94095848D01*
X208975088Y-94114519D01*
X208975078Y-94114523D01*
X208968070Y-94117182D01*
X208961899Y-94121441D01*
X208961894Y-94121444D01*
X208959722Y-94122944D01*
X208940187Y-94133962D01*
X208937784Y-94135043D01*
X208937777Y-94135047D01*
X208930943Y-94138123D01*
X208925043Y-94142745D01*
X208925040Y-94142747D01*
X208883595Y-94175216D01*
X208877566Y-94179651D01*
X208834249Y-94209551D01*
X208834241Y-94209557D01*
X208828071Y-94213817D01*
X208823101Y-94219426D01*
X208823094Y-94219433D01*
X208788184Y-94258838D01*
X208783051Y-94264290D01*
X207421290Y-95626051D01*
X207415838Y-95631184D01*
X207376431Y-95666096D01*
X207376425Y-95666102D01*
X207370817Y-95671071D01*
X207366560Y-95677236D01*
X207366551Y-95677248D01*
X207336649Y-95720568D01*
X207332213Y-95726597D01*
X207299749Y-95768035D01*
X207299743Y-95768043D01*
X207295122Y-95773943D01*
X207292044Y-95780780D01*
X207292043Y-95780783D01*
X207290962Y-95783185D01*
X207279940Y-95802727D01*
X207278441Y-95804898D01*
X207278437Y-95804904D01*
X207274182Y-95811070D01*
X207271526Y-95818070D01*
X207271522Y-95818080D01*
X207252853Y-95867305D01*
X207249989Y-95874219D01*
X207228382Y-95922229D01*
X207228379Y-95922235D01*
X207225305Y-95929068D01*
X207223953Y-95936439D01*
X207223951Y-95936449D01*
X207223474Y-95939053D01*
X207217456Y-95960643D01*
X207216519Y-95963114D01*
X207216517Y-95963119D01*
X207213860Y-95970128D01*
X207212956Y-95977565D01*
X207212956Y-95977569D01*
X207206610Y-96029827D01*
X207205483Y-96037226D01*
X207195994Y-96089010D01*
X207195993Y-96089018D01*
X207194642Y-96096394D01*
X207195094Y-96103873D01*
X207195094Y-96103881D01*
X207198274Y-96156433D01*
X207198500Y-96163921D01*
X207198500Y-98908079D01*
X207198274Y-98915567D01*
X207195094Y-98968118D01*
X207195094Y-98968126D01*
X207194642Y-98975606D01*
X207195993Y-98982982D01*
X207195994Y-98982987D01*
X207205483Y-99034771D01*
X207206610Y-99042171D01*
X207212955Y-99094425D01*
X207212956Y-99094430D01*
X207213860Y-99101872D01*
X207216519Y-99108885D01*
X207216521Y-99108891D01*
X207217450Y-99111340D01*
X207223475Y-99132952D01*
X207223951Y-99135551D01*
X207223954Y-99135560D01*
X207225305Y-99142932D01*
X207228382Y-99149769D01*
X207228383Y-99149772D01*
X207249991Y-99197784D01*
X207252857Y-99204702D01*
X207274182Y-99260930D01*
X207278442Y-99267102D01*
X207278445Y-99267107D01*
X207279937Y-99269268D01*
X207290959Y-99288810D01*
X207292039Y-99291210D01*
X207292044Y-99291219D01*
X207295122Y-99298057D01*
X207299745Y-99303958D01*
X207299747Y-99303961D01*
X207332216Y-99345404D01*
X207336636Y-99351410D01*
X207370817Y-99400929D01*
X207415847Y-99440822D01*
X207421282Y-99445939D01*
X215205162Y-107229819D01*
X215235412Y-107279182D01*
X215239954Y-107336898D01*
X215217799Y-107390385D01*
X215173776Y-107427985D01*
X215117481Y-107441500D01*
X199136099Y-107441500D01*
X199136000Y-107441459D01*
X199135617Y-107441616D01*
X199135617Y-107441617D01*
X199135459Y-107442000D01*
X199135500Y-107442099D01*
X199135500Y-107454025D01*
X199135500Y-112978431D01*
X199126061Y-113025884D01*
X199099181Y-113066112D01*
X194854111Y-117311181D01*
X194813883Y-117338061D01*
X194766430Y-117347500D01*
X188519570Y-117347500D01*
X188472117Y-117338061D01*
X188431889Y-117311181D01*
X181864708Y-110744000D01*
X188128341Y-110744000D01*
X188148937Y-110979408D01*
X188150336Y-110984630D01*
X188150337Y-110984634D01*
X188208694Y-111202430D01*
X188208697Y-111202438D01*
X188210097Y-111207663D01*
X188309965Y-111421829D01*
X188445505Y-111615401D01*
X188612599Y-111782495D01*
X188806171Y-111918035D01*
X189020337Y-112017903D01*
X189248592Y-112079063D01*
X189425034Y-112094500D01*
X189540258Y-112094500D01*
X189542966Y-112094500D01*
X189719408Y-112079063D01*
X189947663Y-112017903D01*
X190161829Y-111918035D01*
X190355401Y-111782495D01*
X190522495Y-111615401D01*
X190658035Y-111421830D01*
X190757903Y-111207663D01*
X190819063Y-110979408D01*
X190839659Y-110744000D01*
X190819063Y-110508592D01*
X190757903Y-110280337D01*
X190658035Y-110066171D01*
X190522495Y-109872599D01*
X190355401Y-109705505D01*
X190161829Y-109569965D01*
X189947663Y-109470097D01*
X189942438Y-109468697D01*
X189942430Y-109468694D01*
X189724634Y-109410337D01*
X189724630Y-109410336D01*
X189719408Y-109408937D01*
X189714020Y-109408465D01*
X189714017Y-109408465D01*
X189545664Y-109393736D01*
X189545662Y-109393735D01*
X189542966Y-109393500D01*
X189425034Y-109393500D01*
X189422338Y-109393735D01*
X189422335Y-109393736D01*
X189253982Y-109408465D01*
X189253977Y-109408465D01*
X189248592Y-109408937D01*
X189243371Y-109410335D01*
X189243365Y-109410337D01*
X189025569Y-109468694D01*
X189025557Y-109468698D01*
X189020337Y-109470097D01*
X189015432Y-109472383D01*
X189015427Y-109472386D01*
X188811081Y-109567675D01*
X188811077Y-109567677D01*
X188806171Y-109569965D01*
X188801738Y-109573068D01*
X188801731Y-109573073D01*
X188617034Y-109702399D01*
X188617029Y-109702402D01*
X188612599Y-109705505D01*
X188608775Y-109709328D01*
X188608769Y-109709334D01*
X188449336Y-109868767D01*
X188449330Y-109868773D01*
X188445505Y-109872599D01*
X188442406Y-109877023D01*
X188442399Y-109877033D01*
X188313066Y-110061740D01*
X188313061Y-110061747D01*
X188309965Y-110066170D01*
X188307683Y-110071061D01*
X188307678Y-110071072D01*
X188212386Y-110275427D01*
X188212383Y-110275432D01*
X188210097Y-110280337D01*
X188208698Y-110285557D01*
X188208694Y-110285569D01*
X188150337Y-110503365D01*
X188150335Y-110503371D01*
X188148937Y-110508592D01*
X188128341Y-110744000D01*
X181864708Y-110744000D01*
X179106819Y-107986111D01*
X179079939Y-107945883D01*
X179070500Y-107898430D01*
X179070500Y-96136000D01*
X201401215Y-96136000D01*
X201401894Y-96142460D01*
X201419223Y-96307341D01*
X201419224Y-96307348D01*
X201419903Y-96313803D01*
X201475150Y-96483835D01*
X201564541Y-96638665D01*
X201684170Y-96771526D01*
X201828807Y-96876612D01*
X201992133Y-96949329D01*
X201998491Y-96950680D01*
X201998493Y-96950681D01*
X202034085Y-96958246D01*
X202167009Y-96986500D01*
X202339288Y-96986500D01*
X202345791Y-96986500D01*
X202520667Y-96949329D01*
X202683993Y-96876612D01*
X202828630Y-96771526D01*
X202948259Y-96638665D01*
X203037650Y-96483835D01*
X203092897Y-96313803D01*
X203111585Y-96136000D01*
X203092897Y-95958197D01*
X203037650Y-95788165D01*
X202948259Y-95633335D01*
X202943553Y-95628109D01*
X202856961Y-95531939D01*
X202828630Y-95500474D01*
X202769292Y-95457362D01*
X202689247Y-95399205D01*
X202689245Y-95399203D01*
X202683993Y-95395388D01*
X202624064Y-95368706D01*
X202526605Y-95325314D01*
X202526598Y-95325311D01*
X202520667Y-95322671D01*
X202514314Y-95321320D01*
X202514306Y-95321318D01*
X202352153Y-95286852D01*
X202352150Y-95286851D01*
X202345791Y-95285500D01*
X202167009Y-95285500D01*
X202160650Y-95286851D01*
X202160646Y-95286852D01*
X201998493Y-95321318D01*
X201998482Y-95321321D01*
X201992133Y-95322671D01*
X201986204Y-95325310D01*
X201986194Y-95325314D01*
X201834742Y-95392745D01*
X201834734Y-95392749D01*
X201828808Y-95395388D01*
X201823559Y-95399201D01*
X201823553Y-95399205D01*
X201689423Y-95496656D01*
X201689414Y-95496663D01*
X201684170Y-95500474D01*
X201679826Y-95505297D01*
X201679823Y-95505301D01*
X201568887Y-95628507D01*
X201568882Y-95628513D01*
X201564541Y-95633335D01*
X201561296Y-95638955D01*
X201561292Y-95638961D01*
X201478398Y-95782538D01*
X201478395Y-95782543D01*
X201475150Y-95788165D01*
X201473144Y-95794337D01*
X201473142Y-95794343D01*
X201426969Y-95936449D01*
X201419903Y-95958197D01*
X201419224Y-95964649D01*
X201419223Y-95964658D01*
X201409449Y-96057657D01*
X201401215Y-96136000D01*
X179070500Y-96136000D01*
X179070500Y-92710000D01*
X204834540Y-92710000D01*
X204835219Y-92716460D01*
X204853646Y-92891795D01*
X204853647Y-92891803D01*
X204854326Y-92898256D01*
X204856331Y-92904428D01*
X204856333Y-92904435D01*
X204909551Y-93068220D01*
X204912821Y-93078284D01*
X204916068Y-93083908D01*
X204916069Y-93083910D01*
X204996338Y-93222941D01*
X205007467Y-93242216D01*
X205011811Y-93247041D01*
X205011813Y-93247043D01*
X205125864Y-93373709D01*
X205134129Y-93382888D01*
X205287270Y-93494151D01*
X205460197Y-93571144D01*
X205645354Y-93610500D01*
X205828143Y-93610500D01*
X205834646Y-93610500D01*
X206019803Y-93571144D01*
X206192730Y-93494151D01*
X206345871Y-93382888D01*
X206351601Y-93376523D01*
X206353271Y-93375310D01*
X206355050Y-93373709D01*
X206355218Y-93373895D01*
X206393315Y-93346219D01*
X206443748Y-93335500D01*
X210116252Y-93335500D01*
X210166685Y-93346219D01*
X210204781Y-93373895D01*
X210204950Y-93373709D01*
X210206728Y-93375310D01*
X210208398Y-93376523D01*
X210214129Y-93382888D01*
X210367270Y-93494151D01*
X210540197Y-93571144D01*
X210725354Y-93610500D01*
X210908143Y-93610500D01*
X210914646Y-93610500D01*
X211099803Y-93571144D01*
X211272730Y-93494151D01*
X211425871Y-93382888D01*
X211552533Y-93242216D01*
X211647179Y-93078284D01*
X211705674Y-92898256D01*
X211725460Y-92710000D01*
X211705674Y-92521744D01*
X211647179Y-92341716D01*
X211552533Y-92177784D01*
X211543117Y-92167327D01*
X211430220Y-92041942D01*
X211430219Y-92041941D01*
X211425871Y-92037112D01*
X211420613Y-92033292D01*
X211420611Y-92033290D01*
X211277988Y-91929669D01*
X211277987Y-91929668D01*
X211272730Y-91925849D01*
X211242973Y-91912600D01*
X211105745Y-91851501D01*
X211105740Y-91851499D01*
X211099803Y-91848856D01*
X211093444Y-91847504D01*
X211093440Y-91847503D01*
X210921008Y-91810852D01*
X210921005Y-91810851D01*
X210914646Y-91809500D01*
X210725354Y-91809500D01*
X210718995Y-91810851D01*
X210718991Y-91810852D01*
X210546559Y-91847503D01*
X210546552Y-91847505D01*
X210540197Y-91848856D01*
X210534262Y-91851498D01*
X210534254Y-91851501D01*
X210373207Y-91923205D01*
X210373202Y-91923207D01*
X210367270Y-91925849D01*
X210362016Y-91929665D01*
X210362011Y-91929669D01*
X210219388Y-92033290D01*
X210219381Y-92033295D01*
X210214129Y-92037112D01*
X210209780Y-92041941D01*
X210209781Y-92041941D01*
X210208399Y-92043476D01*
X210206728Y-92044689D01*
X210204950Y-92046291D01*
X210204781Y-92046104D01*
X210166685Y-92073781D01*
X210116252Y-92084500D01*
X206443748Y-92084500D01*
X206393315Y-92073781D01*
X206355218Y-92046104D01*
X206355050Y-92046291D01*
X206353271Y-92044689D01*
X206351601Y-92043476D01*
X206345871Y-92037112D01*
X206340613Y-92033292D01*
X206340611Y-92033290D01*
X206197988Y-91929669D01*
X206197987Y-91929668D01*
X206192730Y-91925849D01*
X206162973Y-91912600D01*
X206025745Y-91851501D01*
X206025740Y-91851499D01*
X206019803Y-91848856D01*
X206013444Y-91847504D01*
X206013440Y-91847503D01*
X205841008Y-91810852D01*
X205841005Y-91810851D01*
X205834646Y-91809500D01*
X205645354Y-91809500D01*
X205638995Y-91810851D01*
X205638991Y-91810852D01*
X205466559Y-91847503D01*
X205466552Y-91847505D01*
X205460197Y-91848856D01*
X205454262Y-91851498D01*
X205454254Y-91851501D01*
X205293207Y-91923205D01*
X205293202Y-91923207D01*
X205287270Y-91925849D01*
X205282016Y-91929665D01*
X205282011Y-91929669D01*
X205139388Y-92033290D01*
X205139381Y-92033295D01*
X205134129Y-92037112D01*
X205129784Y-92041937D01*
X205129779Y-92041942D01*
X205011813Y-92172956D01*
X205011808Y-92172962D01*
X205007467Y-92177784D01*
X205004222Y-92183404D01*
X205004218Y-92183410D01*
X204916069Y-92336089D01*
X204916066Y-92336094D01*
X204912821Y-92341716D01*
X204910815Y-92347888D01*
X204910813Y-92347894D01*
X204856333Y-92515564D01*
X204856331Y-92515573D01*
X204854326Y-92521744D01*
X204853648Y-92528194D01*
X204853646Y-92528204D01*
X204837823Y-92678763D01*
X204834540Y-92710000D01*
X179070500Y-92710000D01*
X179070500Y-74219570D01*
X179079939Y-74172117D01*
X179106819Y-74131889D01*
X179323260Y-73915448D01*
X197660452Y-73915448D01*
X197671395Y-73918000D01*
X198869674Y-73918000D01*
X198882549Y-73914549D01*
X198886000Y-73901674D01*
X199386000Y-73901674D01*
X199389450Y-73914549D01*
X199402326Y-73918000D01*
X200600605Y-73918000D01*
X200611547Y-73915448D01*
X200611179Y-73904219D01*
X200563669Y-73726907D01*
X200559977Y-73716765D01*
X200475685Y-73536000D01*
X201401215Y-73536000D01*
X201401894Y-73542460D01*
X201419223Y-73707341D01*
X201419224Y-73707348D01*
X201419903Y-73713803D01*
X201475150Y-73883835D01*
X201564541Y-74038665D01*
X201684170Y-74171526D01*
X201828807Y-74276612D01*
X201992133Y-74349329D01*
X201998491Y-74350680D01*
X201998493Y-74350681D01*
X202034085Y-74358246D01*
X202167009Y-74386500D01*
X202339288Y-74386500D01*
X202345791Y-74386500D01*
X202520667Y-74349329D01*
X202683993Y-74276612D01*
X202828630Y-74171526D01*
X202948259Y-74038665D01*
X203037650Y-73883835D01*
X203092897Y-73713803D01*
X203111585Y-73536000D01*
X203092897Y-73358197D01*
X203037650Y-73188165D01*
X202948259Y-73033335D01*
X202828630Y-72900474D01*
X202683993Y-72795388D01*
X202624064Y-72768706D01*
X202526605Y-72725314D01*
X202526598Y-72725311D01*
X202520667Y-72722671D01*
X202514314Y-72721320D01*
X202514306Y-72721318D01*
X202352153Y-72686852D01*
X202352150Y-72686851D01*
X202345791Y-72685500D01*
X202167009Y-72685500D01*
X202160650Y-72686851D01*
X202160646Y-72686852D01*
X201998493Y-72721318D01*
X201998482Y-72721321D01*
X201992133Y-72722671D01*
X201986204Y-72725310D01*
X201986194Y-72725314D01*
X201834742Y-72792745D01*
X201834734Y-72792749D01*
X201828808Y-72795388D01*
X201823559Y-72799201D01*
X201823553Y-72799205D01*
X201689423Y-72896656D01*
X201689414Y-72896663D01*
X201684170Y-72900474D01*
X201679826Y-72905297D01*
X201679823Y-72905301D01*
X201568887Y-73028507D01*
X201568882Y-73028513D01*
X201564541Y-73033335D01*
X201561296Y-73038955D01*
X201561292Y-73038961D01*
X201478398Y-73182538D01*
X201478395Y-73182543D01*
X201475150Y-73188165D01*
X201473144Y-73194337D01*
X201473142Y-73194343D01*
X201430575Y-73325352D01*
X201419903Y-73358197D01*
X201419224Y-73364649D01*
X201419223Y-73364658D01*
X201403833Y-73511087D01*
X201401215Y-73536000D01*
X200475685Y-73536000D01*
X200468420Y-73520419D01*
X200463032Y-73511087D01*
X200338767Y-73333618D01*
X200331830Y-73325352D01*
X200178647Y-73172169D01*
X200170381Y-73165232D01*
X199992912Y-73040967D01*
X199983580Y-73035579D01*
X199787231Y-72944020D01*
X199777097Y-72940332D01*
X199567837Y-72884260D01*
X199557206Y-72882386D01*
X199399972Y-72868630D01*
X199389450Y-72871450D01*
X199386000Y-72884326D01*
X199386000Y-73901674D01*
X198886000Y-73901674D01*
X198886000Y-72884326D01*
X198882549Y-72871450D01*
X198872027Y-72868630D01*
X198714793Y-72882386D01*
X198704162Y-72884260D01*
X198494902Y-72940332D01*
X198484768Y-72944020D01*
X198288419Y-73035579D01*
X198279087Y-73040967D01*
X198101618Y-73165232D01*
X198093352Y-73172169D01*
X197940169Y-73325352D01*
X197933232Y-73333618D01*
X197808967Y-73511087D01*
X197803579Y-73520419D01*
X197712022Y-73716765D01*
X197708330Y-73726907D01*
X197660820Y-73904219D01*
X197660452Y-73915448D01*
X179323260Y-73915448D01*
X180553208Y-72685500D01*
X183388707Y-69850000D01*
X188128341Y-69850000D01*
X188128813Y-69855395D01*
X188130449Y-69874100D01*
X188148937Y-70085408D01*
X188150336Y-70090630D01*
X188150337Y-70090634D01*
X188208694Y-70308430D01*
X188208697Y-70308438D01*
X188210097Y-70313663D01*
X188212385Y-70318570D01*
X188212386Y-70318572D01*
X188222284Y-70339798D01*
X188309965Y-70527829D01*
X188445505Y-70721401D01*
X188612599Y-70888495D01*
X188806171Y-71024035D01*
X189020337Y-71123903D01*
X189248592Y-71185063D01*
X189425034Y-71200500D01*
X189540258Y-71200500D01*
X189542966Y-71200500D01*
X189719408Y-71185063D01*
X189947663Y-71123903D01*
X190161829Y-71024035D01*
X190355401Y-70888495D01*
X190522495Y-70721401D01*
X190658035Y-70527830D01*
X190757903Y-70313663D01*
X190819063Y-70085408D01*
X190839659Y-69850000D01*
X190819063Y-69614592D01*
X190757903Y-69386337D01*
X190658035Y-69172171D01*
X190522495Y-68978599D01*
X190355401Y-68811505D01*
X190161829Y-68675965D01*
X190093908Y-68644292D01*
X189952572Y-68578386D01*
X189952570Y-68578385D01*
X189947663Y-68576097D01*
X189942438Y-68574697D01*
X189942430Y-68574694D01*
X189724634Y-68516337D01*
X189724630Y-68516336D01*
X189719408Y-68514937D01*
X189714020Y-68514465D01*
X189714017Y-68514465D01*
X189545664Y-68499736D01*
X189545662Y-68499735D01*
X189542966Y-68499500D01*
X189425034Y-68499500D01*
X189422338Y-68499735D01*
X189422335Y-68499736D01*
X189253982Y-68514465D01*
X189253977Y-68514465D01*
X189248592Y-68514937D01*
X189243371Y-68516335D01*
X189243365Y-68516337D01*
X189025569Y-68574694D01*
X189025557Y-68574698D01*
X189020337Y-68576097D01*
X189015432Y-68578383D01*
X189015427Y-68578386D01*
X188811081Y-68673675D01*
X188811077Y-68673677D01*
X188806171Y-68675965D01*
X188801738Y-68679068D01*
X188801731Y-68679073D01*
X188617034Y-68808399D01*
X188617029Y-68808402D01*
X188612599Y-68811505D01*
X188608775Y-68815328D01*
X188608769Y-68815334D01*
X188449336Y-68974767D01*
X188449330Y-68974773D01*
X188445505Y-68978599D01*
X188442406Y-68983023D01*
X188442399Y-68983033D01*
X188313066Y-69167740D01*
X188313061Y-69167747D01*
X188309965Y-69172170D01*
X188307683Y-69177061D01*
X188307678Y-69177072D01*
X188212386Y-69381427D01*
X188212383Y-69381432D01*
X188210097Y-69386337D01*
X188208698Y-69391557D01*
X188208694Y-69391569D01*
X188150337Y-69609365D01*
X188150335Y-69609371D01*
X188148937Y-69614592D01*
X188148465Y-69619977D01*
X188148465Y-69619982D01*
X188141511Y-69699466D01*
X188128341Y-69850000D01*
X183388707Y-69850000D01*
X188656206Y-64582500D01*
X201854357Y-64582500D01*
X201854781Y-64587617D01*
X201874467Y-64825201D01*
X201874468Y-64825209D01*
X201874892Y-64830321D01*
X201876149Y-64835288D01*
X201876151Y-64835295D01*
X201934678Y-65066410D01*
X201935937Y-65071381D01*
X201937997Y-65076077D01*
X202033766Y-65294410D01*
X202033769Y-65294416D01*
X202035827Y-65299107D01*
X202038627Y-65303393D01*
X202038631Y-65303400D01*
X202166675Y-65499385D01*
X202171836Y-65507285D01*
X202175310Y-65511059D01*
X202175311Y-65511060D01*
X202336784Y-65686467D01*
X202336787Y-65686470D01*
X202340256Y-65690238D01*
X202536491Y-65842974D01*
X202755190Y-65961328D01*
X202990386Y-66042071D01*
X203235665Y-66083000D01*
X203479201Y-66083000D01*
X203484335Y-66083000D01*
X203729614Y-66042071D01*
X203964810Y-65961328D01*
X204183509Y-65842974D01*
X204379744Y-65690238D01*
X204548164Y-65507285D01*
X204684173Y-65299107D01*
X204784063Y-65071381D01*
X204845108Y-64830321D01*
X204865643Y-64582500D01*
X213854357Y-64582500D01*
X213854781Y-64587617D01*
X213874467Y-64825201D01*
X213874468Y-64825209D01*
X213874892Y-64830321D01*
X213876149Y-64835288D01*
X213876151Y-64835295D01*
X213934678Y-65066410D01*
X213935937Y-65071381D01*
X213937997Y-65076077D01*
X214033766Y-65294410D01*
X214033769Y-65294416D01*
X214035827Y-65299107D01*
X214038627Y-65303393D01*
X214038631Y-65303400D01*
X214166675Y-65499385D01*
X214171836Y-65507285D01*
X214175310Y-65511059D01*
X214175311Y-65511060D01*
X214336784Y-65686467D01*
X214336787Y-65686470D01*
X214340256Y-65690238D01*
X214536491Y-65842974D01*
X214755190Y-65961328D01*
X214990386Y-66042071D01*
X215235665Y-66083000D01*
X215479201Y-66083000D01*
X215484335Y-66083000D01*
X215729614Y-66042071D01*
X215964810Y-65961328D01*
X216183509Y-65842974D01*
X216379744Y-65690238D01*
X216548164Y-65507285D01*
X216684173Y-65299107D01*
X216784063Y-65071381D01*
X216845108Y-64830321D01*
X216865643Y-64582500D01*
X216845108Y-64334679D01*
X216784063Y-64093619D01*
X216684173Y-63865893D01*
X216548164Y-63657715D01*
X216379744Y-63474762D01*
X216183509Y-63322026D01*
X216178997Y-63319584D01*
X215969316Y-63206110D01*
X215969310Y-63206107D01*
X215964810Y-63203672D01*
X215959969Y-63202010D01*
X215959962Y-63202007D01*
X215734465Y-63124594D01*
X215734461Y-63124593D01*
X215729614Y-63122929D01*
X215720768Y-63121452D01*
X215489398Y-63082844D01*
X215489387Y-63082843D01*
X215484335Y-63082000D01*
X215235665Y-63082000D01*
X215230613Y-63082843D01*
X215230601Y-63082844D01*
X214995443Y-63122085D01*
X214995441Y-63122085D01*
X214990386Y-63122929D01*
X214985541Y-63124592D01*
X214985534Y-63124594D01*
X214760037Y-63202007D01*
X214760026Y-63202011D01*
X214755190Y-63203672D01*
X214750693Y-63206105D01*
X214750683Y-63206110D01*
X214541002Y-63319584D01*
X214540995Y-63319588D01*
X214536491Y-63322026D01*
X214532448Y-63325172D01*
X214532440Y-63325178D01*
X214344304Y-63471611D01*
X214340256Y-63474762D01*
X214336793Y-63478523D01*
X214336784Y-63478532D01*
X214175311Y-63653939D01*
X214175305Y-63653946D01*
X214171836Y-63657715D01*
X214169031Y-63662006D01*
X214169028Y-63662012D01*
X214038631Y-63861599D01*
X214038624Y-63861611D01*
X214035827Y-63865893D01*
X214033772Y-63870577D01*
X214033766Y-63870589D01*
X213937997Y-64088922D01*
X213935937Y-64093619D01*
X213934679Y-64098584D01*
X213934678Y-64098589D01*
X213876151Y-64329704D01*
X213876149Y-64329713D01*
X213874892Y-64334679D01*
X213874468Y-64339788D01*
X213874467Y-64339798D01*
X213854781Y-64577383D01*
X213854357Y-64582500D01*
X204865643Y-64582500D01*
X204845108Y-64334679D01*
X204784063Y-64093619D01*
X204684173Y-63865893D01*
X204548164Y-63657715D01*
X204379744Y-63474762D01*
X204183509Y-63322026D01*
X204178997Y-63319584D01*
X203969316Y-63206110D01*
X203969310Y-63206107D01*
X203964810Y-63203672D01*
X203959969Y-63202010D01*
X203959962Y-63202007D01*
X203734465Y-63124594D01*
X203734461Y-63124593D01*
X203729614Y-63122929D01*
X203720768Y-63121452D01*
X203489398Y-63082844D01*
X203489387Y-63082843D01*
X203484335Y-63082000D01*
X203235665Y-63082000D01*
X203230613Y-63082843D01*
X203230601Y-63082844D01*
X202995443Y-63122085D01*
X202995441Y-63122085D01*
X202990386Y-63122929D01*
X202985541Y-63124592D01*
X202985534Y-63124594D01*
X202760037Y-63202007D01*
X202760026Y-63202011D01*
X202755190Y-63203672D01*
X202750693Y-63206105D01*
X202750683Y-63206110D01*
X202541002Y-63319584D01*
X202540995Y-63319588D01*
X202536491Y-63322026D01*
X202532448Y-63325172D01*
X202532440Y-63325178D01*
X202344304Y-63471611D01*
X202340256Y-63474762D01*
X202336793Y-63478523D01*
X202336784Y-63478532D01*
X202175311Y-63653939D01*
X202175305Y-63653946D01*
X202171836Y-63657715D01*
X202169031Y-63662006D01*
X202169028Y-63662012D01*
X202038631Y-63861599D01*
X202038624Y-63861611D01*
X202035827Y-63865893D01*
X202033772Y-63870577D01*
X202033766Y-63870589D01*
X201937997Y-64088922D01*
X201935937Y-64093619D01*
X201934679Y-64098584D01*
X201934678Y-64098589D01*
X201876151Y-64329704D01*
X201876149Y-64329713D01*
X201874892Y-64334679D01*
X201874468Y-64339788D01*
X201874467Y-64339798D01*
X201854781Y-64577383D01*
X201854357Y-64582500D01*
X188656206Y-64582500D01*
X189992282Y-63246424D01*
X189992284Y-63246424D01*
X190463888Y-62774818D01*
X190504116Y-62747939D01*
X190551569Y-62738500D01*
X191007901Y-62738500D01*
X191008099Y-62738500D01*
X250392430Y-62738500D01*
X250439883Y-62747939D01*
G37*
%TD.AperFunction*%
%TA.AperFunction,Conductor*%
G36*
X218446797Y-94893748D02*
G01*
X218500820Y-94925411D01*
X219524181Y-95948772D01*
X219551061Y-95989000D01*
X219560500Y-96036453D01*
X219560500Y-99356322D01*
X219547576Y-99411441D01*
X219518580Y-99446506D01*
X219519959Y-99448019D01*
X219373473Y-99581557D01*
X219373465Y-99581565D01*
X219369236Y-99585421D01*
X219365785Y-99589990D01*
X219364133Y-99591803D01*
X219317240Y-99623908D01*
X219260949Y-99631721D01*
X219207085Y-99613602D01*
X219166961Y-99573356D01*
X219132502Y-99517488D01*
X219132500Y-99517485D01*
X219128712Y-99511344D01*
X219004656Y-99387288D01*
X218998515Y-99383500D01*
X218998511Y-99383497D01*
X218882804Y-99312130D01*
X218855334Y-99295186D01*
X218843335Y-99291210D01*
X218695225Y-99242131D01*
X218695224Y-99242130D01*
X218688797Y-99240001D01*
X218682064Y-99239313D01*
X218682059Y-99239312D01*
X218589140Y-99229819D01*
X218589123Y-99229818D01*
X218586009Y-99229500D01*
X218582860Y-99229500D01*
X217789141Y-99229500D01*
X217789121Y-99229500D01*
X217785992Y-99229501D01*
X217782860Y-99229820D01*
X217782858Y-99229821D01*
X217689938Y-99239312D01*
X217689928Y-99239313D01*
X217683203Y-99240001D01*
X217676781Y-99242128D01*
X217676776Y-99242130D01*
X217523521Y-99292914D01*
X217523517Y-99292915D01*
X217516666Y-99295186D01*
X217510522Y-99298975D01*
X217510519Y-99298977D01*
X217373488Y-99383497D01*
X217373480Y-99383503D01*
X217367344Y-99387288D01*
X217362242Y-99392389D01*
X217362238Y-99392393D01*
X217248393Y-99506238D01*
X217248389Y-99506242D01*
X217243288Y-99511344D01*
X217239503Y-99517480D01*
X217239497Y-99517488D01*
X217173858Y-99623908D01*
X217151186Y-99660666D01*
X217148915Y-99667517D01*
X217148914Y-99667521D01*
X217127117Y-99733301D01*
X217096001Y-99827203D01*
X217095313Y-99833933D01*
X217095312Y-99833940D01*
X217085819Y-99926859D01*
X217085818Y-99926877D01*
X217085500Y-99929991D01*
X217085500Y-99933138D01*
X217085500Y-99933139D01*
X217085500Y-100726858D01*
X217085500Y-100726877D01*
X217085501Y-100730008D01*
X217085820Y-100733140D01*
X217085821Y-100733141D01*
X217095312Y-100826061D01*
X217095313Y-100826069D01*
X217096001Y-100832797D01*
X217098129Y-100839219D01*
X217098130Y-100839223D01*
X217127117Y-100926698D01*
X217151186Y-100999334D01*
X217154977Y-101005480D01*
X217239497Y-101142511D01*
X217239500Y-101142515D01*
X217243288Y-101148656D01*
X217367344Y-101272712D01*
X217373485Y-101276500D01*
X217373488Y-101276502D01*
X217437371Y-101315905D01*
X217516666Y-101364814D01*
X217575069Y-101384167D01*
X217623742Y-101414189D01*
X218174457Y-101964904D01*
X218186000Y-101971568D01*
X218197542Y-101964904D01*
X218748255Y-101414190D01*
X218796927Y-101384168D01*
X218855334Y-101364814D01*
X219004656Y-101272712D01*
X219128712Y-101148656D01*
X219166962Y-101086641D01*
X219207086Y-101046397D01*
X219260951Y-101028278D01*
X219317243Y-101036093D01*
X219364136Y-101068199D01*
X219365778Y-101070001D01*
X219369236Y-101074579D01*
X219519959Y-101211981D01*
X219536704Y-101222349D01*
X219540297Y-101224574D01*
X219583348Y-101269662D01*
X219599018Y-101330000D01*
X219583348Y-101390338D01*
X219540297Y-101435426D01*
X219536295Y-101437904D01*
X219519959Y-101448019D01*
X219515728Y-101451875D01*
X219515724Y-101451879D01*
X219373476Y-101581554D01*
X219373466Y-101581564D01*
X219369236Y-101585421D01*
X219365783Y-101589993D01*
X219365778Y-101589999D01*
X219274317Y-101711113D01*
X219223985Y-101750456D01*
X219160747Y-101759522D01*
X219142986Y-101752455D01*
X219124579Y-101751175D01*
X219110889Y-101758662D01*
X218551096Y-102318456D01*
X218544431Y-102330000D01*
X218551095Y-102341542D01*
X219110890Y-102901337D01*
X219124580Y-102908825D01*
X219142963Y-102907549D01*
X219160754Y-102900473D01*
X219223987Y-102909542D01*
X219274315Y-102948883D01*
X219365778Y-103070001D01*
X219365783Y-103070006D01*
X219369236Y-103074579D01*
X219373472Y-103078440D01*
X219373476Y-103078445D01*
X219475227Y-103171203D01*
X219519959Y-103211981D01*
X219693363Y-103319348D01*
X219883544Y-103393024D01*
X220084024Y-103430500D01*
X220282247Y-103430500D01*
X220287976Y-103430500D01*
X220488456Y-103393024D01*
X220678637Y-103319348D01*
X220852041Y-103211981D01*
X221002764Y-103074579D01*
X221074812Y-102979172D01*
X221087046Y-102962972D01*
X221130728Y-102926698D01*
X221186000Y-102913698D01*
X221241272Y-102926698D01*
X221284954Y-102962972D01*
X221365774Y-103069996D01*
X221365778Y-103070000D01*
X221369236Y-103074579D01*
X221373472Y-103078440D01*
X221373476Y-103078445D01*
X221475227Y-103171203D01*
X221519959Y-103211981D01*
X221693363Y-103319348D01*
X221883544Y-103393024D01*
X222084024Y-103430500D01*
X222282247Y-103430500D01*
X222287976Y-103430500D01*
X222488456Y-103393024D01*
X222678637Y-103319348D01*
X222852041Y-103211981D01*
X223002764Y-103074579D01*
X223074812Y-102979172D01*
X223087046Y-102962972D01*
X223130728Y-102926698D01*
X223186000Y-102913698D01*
X223241272Y-102926698D01*
X223284954Y-102962972D01*
X223365774Y-103069996D01*
X223365778Y-103070000D01*
X223369236Y-103074579D01*
X223373477Y-103078445D01*
X223373478Y-103078446D01*
X223391243Y-103094642D01*
X223426433Y-103150512D01*
X223427958Y-103216523D01*
X223395384Y-103273958D01*
X221996162Y-104673181D01*
X221955934Y-104700061D01*
X221908481Y-104709500D01*
X216241519Y-104709500D01*
X216194066Y-104700061D01*
X216153838Y-104673181D01*
X214744435Y-103263778D01*
X217609298Y-103263778D01*
X217617235Y-103271624D01*
X217688712Y-103315880D01*
X217698929Y-103320968D01*
X217878333Y-103390469D01*
X217889318Y-103393594D01*
X218078440Y-103428947D01*
X218089799Y-103430000D01*
X218282201Y-103430000D01*
X218293559Y-103428947D01*
X218482681Y-103393594D01*
X218493666Y-103390469D01*
X218673071Y-103320968D01*
X218683284Y-103315882D01*
X218754764Y-103271623D01*
X218762701Y-103263778D01*
X218756771Y-103254324D01*
X218197542Y-102695095D01*
X218186000Y-102688431D01*
X218174456Y-102695096D01*
X217615228Y-103254323D01*
X217609298Y-103263778D01*
X214744435Y-103263778D01*
X214096819Y-102616162D01*
X214069939Y-102575934D01*
X214060500Y-102528481D01*
X214060500Y-102335709D01*
X217081816Y-102335709D01*
X217099568Y-102527282D01*
X217101666Y-102538504D01*
X217154314Y-102723545D01*
X217158445Y-102734208D01*
X217242645Y-102903305D01*
X217248944Y-102907988D01*
X217261111Y-102901334D01*
X217820904Y-102341542D01*
X217827568Y-102329999D01*
X217820904Y-102318457D01*
X217261112Y-101758665D01*
X217248945Y-101752011D01*
X217242643Y-101756698D01*
X217158445Y-101925791D01*
X217154314Y-101936454D01*
X217101666Y-102121495D01*
X217099568Y-102132717D01*
X217081816Y-102324291D01*
X217081816Y-102335709D01*
X214060500Y-102335709D01*
X214060500Y-95748683D01*
X214072579Y-95695300D01*
X214106464Y-95652317D01*
X214155553Y-95628109D01*
X214210281Y-95627393D01*
X214281354Y-95642500D01*
X214464143Y-95642500D01*
X214470646Y-95642500D01*
X214655803Y-95603144D01*
X214828730Y-95526151D01*
X214911273Y-95466179D01*
X214945837Y-95448569D01*
X214984155Y-95442500D01*
X216815845Y-95442500D01*
X216854163Y-95448569D01*
X216888726Y-95466179D01*
X216971270Y-95526151D01*
X217144197Y-95603144D01*
X217329354Y-95642500D01*
X217512143Y-95642500D01*
X217518646Y-95642500D01*
X217703803Y-95603144D01*
X217876730Y-95526151D01*
X218029871Y-95414888D01*
X218156533Y-95274216D01*
X218251179Y-95110284D01*
X218295209Y-94974772D01*
X218328967Y-94922036D01*
X218384191Y-94892518D01*
X218446797Y-94893748D01*
G37*
%TD.AperFunction*%
%TD*%
M02*
