M48
; DRILL file {KiCad (7.99.0-200-gad838e3d73)} date Fri Mar 15 16:28:43 2024
; FORMAT={-:-/ absolute / metric / decimal}
; #@! TF.CreationDate,2024-03-15T16:28:43+07:00
; #@! TF.GenerationSoftware,Kicad,Pcbnew,(7.99.0-200-gad838e3d73)
; #@! TF.FileFunction,Plated,1,2,PTH
FMAT,2
METRIC
; #@! TA.AperFunction,Plated,PTH,ViaDrill
T1C0.400
; #@! TA.AperFunction,Plated,PTH,ComponentDrill
T2C0.900
; #@! TA.AperFunction,Plated,PTH,ComponentDrill
T3C1.000
; #@! TA.AperFunction,Plated,PTH,ComponentDrill
T4C1.100
; #@! TA.AperFunction,Plated,PTH,ComponentDrill
T5C1.250
; #@! TA.AperFunction,Plated,PTH,ComponentDrill
T6C1.300
; #@! TA.AperFunction,Plated,PTH,ComponentDrill
T7C1.540
%
G90
G05
T1
X77.673Y-92.862
X78.969Y-69.367
X83.718Y-92.151
X83.922Y-65.938
X88.646Y-95.656
X93.497Y-95.25
X100.482Y-98.781
X101.702Y-89.281
X105.588Y-58.318
X108.483Y-73.711
X120.32Y-58.496
X144.221Y-95.758
X149.987Y-94.539
X150.724Y-99.466
X151.435Y-110.998
X153.645Y-101.422
X155.651Y-96.876
X161.95Y-99.67
X163.246Y-85.547
X168.351Y-99.365
X170.586Y-94.031
X171.602Y-101.625
X173.076Y-71.425
X177.724Y-101.651
X179.019Y-78.969
X179.705Y-84.43
X181.407Y-78.283
X181.559Y-89.306
X183.871Y-81.712
X185.649Y-87.351
X186.131Y-102.87
X186.893Y-75.108
X197.866Y-80.086
X199.06Y-86.995
T2
X105.896Y-94.896
X105.896Y-98.196
X108.396Y-94.896
X108.396Y-98.196
X110.896Y-94.896
X110.896Y-98.196
X171.45Y-97.485
X173.99Y-97.485
X180.945Y-97.892
X183.485Y-97.892
T3
X75.184Y-77.978
X75.184Y-81.788
X75.184Y-104.648
X75.184Y-108.458
X77.724Y-77.978
X77.724Y-81.788
X77.724Y-104.648
X77.724Y-108.458
X80.264Y-77.978
X80.264Y-81.788
X80.264Y-104.648
X80.264Y-108.458
X82.804Y-77.978
X82.804Y-81.788
X82.804Y-104.648
X82.804Y-108.458
X85.344Y-77.978
X85.344Y-81.788
X85.344Y-104.648
X85.344Y-108.458
X87.884Y-77.978
X87.884Y-81.788
X87.884Y-104.648
X87.884Y-108.458
X90.424Y-77.978
X90.424Y-81.788
X90.424Y-104.648
X90.424Y-108.458
X92.964Y-77.978
X92.964Y-81.788
X92.964Y-104.648
X92.964Y-108.458
X95.504Y-77.978
X95.504Y-81.788
X95.504Y-104.648
X95.504Y-108.458
X98.044Y-77.978
X98.044Y-81.788
X98.044Y-104.648
X98.044Y-108.458
X100.584Y-77.978
X100.584Y-81.788
X100.584Y-104.648
X100.584Y-108.458
X103.124Y-77.978
X103.124Y-81.788
X103.124Y-104.648
X103.124Y-108.458
X105.41Y-90.17
X105.664Y-77.978
X105.664Y-81.788
X105.664Y-104.648
X105.664Y-108.458
X105.664Y-112.014
X107.95Y-90.17
X108.204Y-77.978
X108.204Y-81.788
X108.204Y-104.648
X108.204Y-108.458
X108.204Y-112.014
X110.49Y-90.17
X110.744Y-77.978
X110.744Y-81.788
X110.744Y-104.648
X110.744Y-108.458
X110.744Y-112.014
X113.284Y-77.978
X113.284Y-81.788
X113.284Y-104.648
X113.284Y-108.458
X113.284Y-112.014
X115.824Y-77.978
X115.824Y-81.788
X115.824Y-104.648
X115.824Y-108.458
X115.824Y-112.014
X118.364Y-77.978
X118.364Y-81.788
X118.364Y-104.648
X118.364Y-108.458
X118.364Y-112.014
X120.904Y-77.978
X120.904Y-81.788
X120.904Y-104.648
X120.904Y-108.458
X120.904Y-112.014
X123.444Y-77.978
X123.444Y-81.788
X123.444Y-104.648
X123.444Y-108.458
X123.444Y-112.014
X125.984Y-77.978
X125.984Y-81.788
X125.984Y-104.648
X125.984Y-108.458
X125.984Y-112.014
X128.524Y-77.978
X128.524Y-81.788
X128.524Y-104.648
X128.524Y-108.458
X128.524Y-112.014
X131.064Y-77.978
X131.064Y-81.788
X131.064Y-104.648
X131.064Y-108.458
X131.064Y-112.014
X133.604Y-77.978
X133.604Y-81.788
X133.604Y-104.648
X133.604Y-108.458
X133.604Y-112.014
X136.144Y-77.978
X136.144Y-81.788
X136.144Y-104.648
X136.144Y-108.458
X136.144Y-112.014
X138.684Y-77.978
X138.684Y-81.788
X138.684Y-104.648
X138.684Y-108.458
X138.684Y-112.014
X141.224Y-77.978
X141.224Y-81.788
X141.224Y-104.648
X141.224Y-108.458
X141.224Y-112.014
X143.764Y-77.978
X143.764Y-81.788
X143.764Y-104.648
X143.764Y-108.458
X143.764Y-112.014
X146.304Y-77.978
X146.304Y-81.788
X146.304Y-104.648
X146.304Y-108.458
X146.304Y-112.014
X148.844Y-77.978
X148.844Y-81.788
X148.844Y-104.648
X148.844Y-108.458
X148.844Y-112.014
X151.384Y-77.978
X151.384Y-81.788
X151.384Y-104.648
X151.384Y-108.458
X153.924Y-77.978
X153.924Y-81.788
X153.924Y-104.648
X153.924Y-108.458
X156.464Y-77.978
X156.464Y-81.788
X156.464Y-104.648
X156.464Y-108.458
X159.004Y-77.978
X159.004Y-81.788
X159.004Y-104.648
X159.004Y-108.458
X161.544Y-77.978
X161.544Y-81.788
X161.544Y-104.648
X161.544Y-108.458
X164.084Y-77.978
X164.084Y-81.788
X164.084Y-104.648
X164.084Y-108.458
X165.1Y-90.17
X166.624Y-77.978
X166.624Y-81.788
X166.624Y-104.648
X166.624Y-108.458
X167.64Y-90.17
X169.164Y-77.978
X169.164Y-81.788
X169.164Y-104.648
X169.164Y-108.458
X170.18Y-90.17
X171.704Y-77.978
X171.704Y-81.788
X171.704Y-104.648
X171.704Y-108.458
X172.72Y-90.17
X174.244Y-77.978
X174.244Y-81.788
X174.244Y-104.648
X174.244Y-108.458
X179.324Y-104.648
X179.324Y-108.458
X181.864Y-104.648
X181.864Y-108.458
X184.404Y-104.648
X184.404Y-108.458
T4
X188.445Y-81.073
X188.445Y-85.573
X190.299Y-88.896
X190.299Y-93.396
X194.945Y-81.073
X194.945Y-85.573
X196.799Y-88.896
X196.799Y-93.396
T5
X129.02Y-89.916
X129.02Y-96.416
X160.02Y-89.966
X160.02Y-96.416
T6
X189.049Y-98.81
X189.049Y-103.81
X201.549Y-98.81
X201.549Y-103.81
T7
X74.93Y-86.36
X74.93Y-100.56
X97.83Y-86.36
X97.83Y-89.86
X97.83Y-97.46
X97.83Y-100.86
T0
M30
