%TF.GenerationSoftware,KiCad,Pcbnew,(7.99.0-200-gad838e3d73)*%
%TF.CreationDate,2024-03-11T18:14:08+07:00*%
%TF.ProjectId,WMS,574d532e-6b69-4636-9164-5f7063625858,rev?*%
%TF.SameCoordinates,Original*%
%TF.FileFunction,Drillmap*%
%TF.FilePolarity,Positive*%
%FSLAX45Y45*%
G04 Gerber Fmt 4.5, Leading zero omitted, Abs format (unit mm)*
G04 Created by KiCad (PCBNEW (7.99.0-200-gad838e3d73)) date 2024-03-11 18:14:08*
%MOMM*%
%LPD*%
G01*
G04 APERTURE LIST*
%ADD10C,0.100000*%
%ADD11C,0.200000*%
%ADD12C,0.220000*%
%ADD13C,0.239000*%
%ADD14C,0.345000*%
G04 APERTURE END LIST*
D10*
X6487160Y-5189220D02*
X20701000Y-5189220D01*
X20701000Y-5189220D02*
X20701000Y-11607800D01*
X20701000Y-11607800D02*
X6487160Y-11607800D01*
X6487160Y-11607800D02*
X6487160Y-5189220D01*
D11*
D12*
X6753080Y-5429740D02*
X6973080Y-5649740D01*
X6973080Y-5429740D02*
X6753080Y-5649740D01*
X6791180Y-11078700D02*
X7011180Y-11298700D01*
X7011180Y-11078700D02*
X6791180Y-11298700D01*
X20217620Y-8213580D02*
X20437620Y-8433580D01*
X20437620Y-8213580D02*
X20217620Y-8433580D01*
X20232860Y-11187920D02*
X20452860Y-11407920D01*
X20452860Y-11187920D02*
X20232860Y-11407920D01*
D13*
X7702500Y-5677000D02*
G75*
G03*
X7702500Y-5677000I-119500J0D01*
G01*
D14*
X8416000Y-7104500D02*
X8416000Y-7449500D01*
X8243500Y-7277000D02*
X8588500Y-7277000D01*
X13936000Y-5504500D02*
X13936000Y-5849500D01*
X13763500Y-5677000D02*
X14108500Y-5677000D01*
D11*
X6729779Y-11906276D02*
X6729779Y-11706276D01*
X6729779Y-11706276D02*
X6777398Y-11706276D01*
X6777398Y-11706276D02*
X6805969Y-11715800D01*
X6805969Y-11715800D02*
X6825017Y-11734848D01*
X6825017Y-11734848D02*
X6834541Y-11753895D01*
X6834541Y-11753895D02*
X6844065Y-11791990D01*
X6844065Y-11791990D02*
X6844065Y-11820562D01*
X6844065Y-11820562D02*
X6834541Y-11858657D01*
X6834541Y-11858657D02*
X6825017Y-11877705D01*
X6825017Y-11877705D02*
X6805969Y-11896752D01*
X6805969Y-11896752D02*
X6777398Y-11906276D01*
X6777398Y-11906276D02*
X6729779Y-11906276D01*
X6929779Y-11906276D02*
X6929779Y-11772943D01*
X6929779Y-11811038D02*
X6939303Y-11791990D01*
X6939303Y-11791990D02*
X6948827Y-11782467D01*
X6948827Y-11782467D02*
X6967874Y-11772943D01*
X6967874Y-11772943D02*
X6986922Y-11772943D01*
X7053588Y-11906276D02*
X7053588Y-11772943D01*
X7053588Y-11706276D02*
X7044065Y-11715800D01*
X7044065Y-11715800D02*
X7053588Y-11725324D01*
X7053588Y-11725324D02*
X7063112Y-11715800D01*
X7063112Y-11715800D02*
X7053588Y-11706276D01*
X7053588Y-11706276D02*
X7053588Y-11725324D01*
X7177398Y-11906276D02*
X7158350Y-11896752D01*
X7158350Y-11896752D02*
X7148827Y-11877705D01*
X7148827Y-11877705D02*
X7148827Y-11706276D01*
X7282160Y-11906276D02*
X7263112Y-11896752D01*
X7263112Y-11896752D02*
X7253588Y-11877705D01*
X7253588Y-11877705D02*
X7253588Y-11706276D01*
X7478350Y-11906276D02*
X7478350Y-11706276D01*
X7478350Y-11706276D02*
X7545017Y-11849133D01*
X7545017Y-11849133D02*
X7611684Y-11706276D01*
X7611684Y-11706276D02*
X7611684Y-11906276D01*
X7792636Y-11906276D02*
X7792636Y-11801514D01*
X7792636Y-11801514D02*
X7783112Y-11782467D01*
X7783112Y-11782467D02*
X7764065Y-11772943D01*
X7764065Y-11772943D02*
X7725969Y-11772943D01*
X7725969Y-11772943D02*
X7706922Y-11782467D01*
X7792636Y-11896752D02*
X7773588Y-11906276D01*
X7773588Y-11906276D02*
X7725969Y-11906276D01*
X7725969Y-11906276D02*
X7706922Y-11896752D01*
X7706922Y-11896752D02*
X7697398Y-11877705D01*
X7697398Y-11877705D02*
X7697398Y-11858657D01*
X7697398Y-11858657D02*
X7706922Y-11839609D01*
X7706922Y-11839609D02*
X7725969Y-11830086D01*
X7725969Y-11830086D02*
X7773588Y-11830086D01*
X7773588Y-11830086D02*
X7792636Y-11820562D01*
X7887874Y-11772943D02*
X7887874Y-11972943D01*
X7887874Y-11782467D02*
X7906922Y-11772943D01*
X7906922Y-11772943D02*
X7945017Y-11772943D01*
X7945017Y-11772943D02*
X7964065Y-11782467D01*
X7964065Y-11782467D02*
X7973588Y-11791990D01*
X7973588Y-11791990D02*
X7983112Y-11811038D01*
X7983112Y-11811038D02*
X7983112Y-11868181D01*
X7983112Y-11868181D02*
X7973588Y-11887228D01*
X7973588Y-11887228D02*
X7964065Y-11896752D01*
X7964065Y-11896752D02*
X7945017Y-11906276D01*
X7945017Y-11906276D02*
X7906922Y-11906276D01*
X7906922Y-11906276D02*
X7887874Y-11896752D01*
X8068827Y-11887228D02*
X8078350Y-11896752D01*
X8078350Y-11896752D02*
X8068827Y-11906276D01*
X8068827Y-11906276D02*
X8059303Y-11896752D01*
X8059303Y-11896752D02*
X8068827Y-11887228D01*
X8068827Y-11887228D02*
X8068827Y-11906276D01*
X8068827Y-11782467D02*
X8078350Y-11791990D01*
X8078350Y-11791990D02*
X8068827Y-11801514D01*
X8068827Y-11801514D02*
X8059303Y-11791990D01*
X8059303Y-11791990D02*
X8068827Y-11782467D01*
X8068827Y-11782467D02*
X8068827Y-11801514D01*
X6282160Y-12152800D02*
X6482160Y-12352800D01*
X6482160Y-12152800D02*
X6282160Y-12352800D01*
X6720255Y-12145324D02*
X6729779Y-12135800D01*
X6729779Y-12135800D02*
X6748827Y-12126276D01*
X6748827Y-12126276D02*
X6796446Y-12126276D01*
X6796446Y-12126276D02*
X6815493Y-12135800D01*
X6815493Y-12135800D02*
X6825017Y-12145324D01*
X6825017Y-12145324D02*
X6834541Y-12164371D01*
X6834541Y-12164371D02*
X6834541Y-12183419D01*
X6834541Y-12183419D02*
X6825017Y-12211990D01*
X6825017Y-12211990D02*
X6710731Y-12326276D01*
X6710731Y-12326276D02*
X6834541Y-12326276D01*
X6920255Y-12307228D02*
X6929779Y-12316752D01*
X6929779Y-12316752D02*
X6920255Y-12326276D01*
X6920255Y-12326276D02*
X6910731Y-12316752D01*
X6910731Y-12316752D02*
X6920255Y-12307228D01*
X6920255Y-12307228D02*
X6920255Y-12326276D01*
X7005969Y-12145324D02*
X7015493Y-12135800D01*
X7015493Y-12135800D02*
X7034541Y-12126276D01*
X7034541Y-12126276D02*
X7082160Y-12126276D01*
X7082160Y-12126276D02*
X7101208Y-12135800D01*
X7101208Y-12135800D02*
X7110731Y-12145324D01*
X7110731Y-12145324D02*
X7120255Y-12164371D01*
X7120255Y-12164371D02*
X7120255Y-12183419D01*
X7120255Y-12183419D02*
X7110731Y-12211990D01*
X7110731Y-12211990D02*
X6996446Y-12326276D01*
X6996446Y-12326276D02*
X7120255Y-12326276D01*
X7244065Y-12126276D02*
X7263112Y-12126276D01*
X7263112Y-12126276D02*
X7282160Y-12135800D01*
X7282160Y-12135800D02*
X7291684Y-12145324D01*
X7291684Y-12145324D02*
X7301208Y-12164371D01*
X7301208Y-12164371D02*
X7310731Y-12202467D01*
X7310731Y-12202467D02*
X7310731Y-12250086D01*
X7310731Y-12250086D02*
X7301208Y-12288181D01*
X7301208Y-12288181D02*
X7291684Y-12307228D01*
X7291684Y-12307228D02*
X7282160Y-12316752D01*
X7282160Y-12316752D02*
X7263112Y-12326276D01*
X7263112Y-12326276D02*
X7244065Y-12326276D01*
X7244065Y-12326276D02*
X7225017Y-12316752D01*
X7225017Y-12316752D02*
X7215493Y-12307228D01*
X7215493Y-12307228D02*
X7205969Y-12288181D01*
X7205969Y-12288181D02*
X7196446Y-12250086D01*
X7196446Y-12250086D02*
X7196446Y-12202467D01*
X7196446Y-12202467D02*
X7205969Y-12164371D01*
X7205969Y-12164371D02*
X7215493Y-12145324D01*
X7215493Y-12145324D02*
X7225017Y-12135800D01*
X7225017Y-12135800D02*
X7244065Y-12126276D01*
X7434541Y-12126276D02*
X7453589Y-12126276D01*
X7453589Y-12126276D02*
X7472636Y-12135800D01*
X7472636Y-12135800D02*
X7482160Y-12145324D01*
X7482160Y-12145324D02*
X7491684Y-12164371D01*
X7491684Y-12164371D02*
X7501208Y-12202467D01*
X7501208Y-12202467D02*
X7501208Y-12250086D01*
X7501208Y-12250086D02*
X7491684Y-12288181D01*
X7491684Y-12288181D02*
X7482160Y-12307228D01*
X7482160Y-12307228D02*
X7472636Y-12316752D01*
X7472636Y-12316752D02*
X7453589Y-12326276D01*
X7453589Y-12326276D02*
X7434541Y-12326276D01*
X7434541Y-12326276D02*
X7415493Y-12316752D01*
X7415493Y-12316752D02*
X7405969Y-12307228D01*
X7405969Y-12307228D02*
X7396446Y-12288181D01*
X7396446Y-12288181D02*
X7386922Y-12250086D01*
X7386922Y-12250086D02*
X7386922Y-12202467D01*
X7386922Y-12202467D02*
X7396446Y-12164371D01*
X7396446Y-12164371D02*
X7405969Y-12145324D01*
X7405969Y-12145324D02*
X7415493Y-12135800D01*
X7415493Y-12135800D02*
X7434541Y-12126276D01*
X7586922Y-12326276D02*
X7586922Y-12192943D01*
X7586922Y-12211990D02*
X7596446Y-12202467D01*
X7596446Y-12202467D02*
X7615493Y-12192943D01*
X7615493Y-12192943D02*
X7644065Y-12192943D01*
X7644065Y-12192943D02*
X7663112Y-12202467D01*
X7663112Y-12202467D02*
X7672636Y-12221514D01*
X7672636Y-12221514D02*
X7672636Y-12326276D01*
X7672636Y-12221514D02*
X7682160Y-12202467D01*
X7682160Y-12202467D02*
X7701208Y-12192943D01*
X7701208Y-12192943D02*
X7729779Y-12192943D01*
X7729779Y-12192943D02*
X7748827Y-12202467D01*
X7748827Y-12202467D02*
X7758350Y-12221514D01*
X7758350Y-12221514D02*
X7758350Y-12326276D01*
X7853589Y-12326276D02*
X7853589Y-12192943D01*
X7853589Y-12211990D02*
X7863112Y-12202467D01*
X7863112Y-12202467D02*
X7882160Y-12192943D01*
X7882160Y-12192943D02*
X7910731Y-12192943D01*
X7910731Y-12192943D02*
X7929779Y-12202467D01*
X7929779Y-12202467D02*
X7939303Y-12221514D01*
X7939303Y-12221514D02*
X7939303Y-12326276D01*
X7939303Y-12221514D02*
X7948827Y-12202467D01*
X7948827Y-12202467D02*
X7967874Y-12192943D01*
X7967874Y-12192943D02*
X7996446Y-12192943D01*
X7996446Y-12192943D02*
X8015493Y-12202467D01*
X8015493Y-12202467D02*
X8025017Y-12221514D01*
X8025017Y-12221514D02*
X8025017Y-12326276D01*
X8383112Y-12116752D02*
X8211684Y-12373895D01*
X8607874Y-12126276D02*
X8626922Y-12126276D01*
X8626922Y-12126276D02*
X8645970Y-12135800D01*
X8645970Y-12135800D02*
X8655493Y-12145324D01*
X8655493Y-12145324D02*
X8665017Y-12164371D01*
X8665017Y-12164371D02*
X8674541Y-12202467D01*
X8674541Y-12202467D02*
X8674541Y-12250086D01*
X8674541Y-12250086D02*
X8665017Y-12288181D01*
X8665017Y-12288181D02*
X8655493Y-12307228D01*
X8655493Y-12307228D02*
X8645970Y-12316752D01*
X8645970Y-12316752D02*
X8626922Y-12326276D01*
X8626922Y-12326276D02*
X8607874Y-12326276D01*
X8607874Y-12326276D02*
X8588827Y-12316752D01*
X8588827Y-12316752D02*
X8579303Y-12307228D01*
X8579303Y-12307228D02*
X8569779Y-12288181D01*
X8569779Y-12288181D02*
X8560255Y-12250086D01*
X8560255Y-12250086D02*
X8560255Y-12202467D01*
X8560255Y-12202467D02*
X8569779Y-12164371D01*
X8569779Y-12164371D02*
X8579303Y-12145324D01*
X8579303Y-12145324D02*
X8588827Y-12135800D01*
X8588827Y-12135800D02*
X8607874Y-12126276D01*
X8760255Y-12307228D02*
X8769779Y-12316752D01*
X8769779Y-12316752D02*
X8760255Y-12326276D01*
X8760255Y-12326276D02*
X8750732Y-12316752D01*
X8750732Y-12316752D02*
X8760255Y-12307228D01*
X8760255Y-12307228D02*
X8760255Y-12326276D01*
X8893589Y-12126276D02*
X8912636Y-12126276D01*
X8912636Y-12126276D02*
X8931684Y-12135800D01*
X8931684Y-12135800D02*
X8941208Y-12145324D01*
X8941208Y-12145324D02*
X8950732Y-12164371D01*
X8950732Y-12164371D02*
X8960255Y-12202467D01*
X8960255Y-12202467D02*
X8960255Y-12250086D01*
X8960255Y-12250086D02*
X8950732Y-12288181D01*
X8950732Y-12288181D02*
X8941208Y-12307228D01*
X8941208Y-12307228D02*
X8931684Y-12316752D01*
X8931684Y-12316752D02*
X8912636Y-12326276D01*
X8912636Y-12326276D02*
X8893589Y-12326276D01*
X8893589Y-12326276D02*
X8874541Y-12316752D01*
X8874541Y-12316752D02*
X8865017Y-12307228D01*
X8865017Y-12307228D02*
X8855493Y-12288181D01*
X8855493Y-12288181D02*
X8845970Y-12250086D01*
X8845970Y-12250086D02*
X8845970Y-12202467D01*
X8845970Y-12202467D02*
X8855493Y-12164371D01*
X8855493Y-12164371D02*
X8865017Y-12145324D01*
X8865017Y-12145324D02*
X8874541Y-12135800D01*
X8874541Y-12135800D02*
X8893589Y-12126276D01*
X9074541Y-12211990D02*
X9055493Y-12202467D01*
X9055493Y-12202467D02*
X9045970Y-12192943D01*
X9045970Y-12192943D02*
X9036446Y-12173895D01*
X9036446Y-12173895D02*
X9036446Y-12164371D01*
X9036446Y-12164371D02*
X9045970Y-12145324D01*
X9045970Y-12145324D02*
X9055493Y-12135800D01*
X9055493Y-12135800D02*
X9074541Y-12126276D01*
X9074541Y-12126276D02*
X9112636Y-12126276D01*
X9112636Y-12126276D02*
X9131684Y-12135800D01*
X9131684Y-12135800D02*
X9141208Y-12145324D01*
X9141208Y-12145324D02*
X9150732Y-12164371D01*
X9150732Y-12164371D02*
X9150732Y-12173895D01*
X9150732Y-12173895D02*
X9141208Y-12192943D01*
X9141208Y-12192943D02*
X9131684Y-12202467D01*
X9131684Y-12202467D02*
X9112636Y-12211990D01*
X9112636Y-12211990D02*
X9074541Y-12211990D01*
X9074541Y-12211990D02*
X9055493Y-12221514D01*
X9055493Y-12221514D02*
X9045970Y-12231038D01*
X9045970Y-12231038D02*
X9036446Y-12250086D01*
X9036446Y-12250086D02*
X9036446Y-12288181D01*
X9036446Y-12288181D02*
X9045970Y-12307228D01*
X9045970Y-12307228D02*
X9055493Y-12316752D01*
X9055493Y-12316752D02*
X9074541Y-12326276D01*
X9074541Y-12326276D02*
X9112636Y-12326276D01*
X9112636Y-12326276D02*
X9131684Y-12316752D01*
X9131684Y-12316752D02*
X9141208Y-12307228D01*
X9141208Y-12307228D02*
X9150732Y-12288181D01*
X9150732Y-12288181D02*
X9150732Y-12250086D01*
X9150732Y-12250086D02*
X9141208Y-12231038D01*
X9141208Y-12231038D02*
X9131684Y-12221514D01*
X9131684Y-12221514D02*
X9112636Y-12211990D01*
X9322160Y-12126276D02*
X9284065Y-12126276D01*
X9284065Y-12126276D02*
X9265017Y-12135800D01*
X9265017Y-12135800D02*
X9255493Y-12145324D01*
X9255493Y-12145324D02*
X9236446Y-12173895D01*
X9236446Y-12173895D02*
X9226922Y-12211990D01*
X9226922Y-12211990D02*
X9226922Y-12288181D01*
X9226922Y-12288181D02*
X9236446Y-12307228D01*
X9236446Y-12307228D02*
X9245970Y-12316752D01*
X9245970Y-12316752D02*
X9265017Y-12326276D01*
X9265017Y-12326276D02*
X9303113Y-12326276D01*
X9303113Y-12326276D02*
X9322160Y-12316752D01*
X9322160Y-12316752D02*
X9331684Y-12307228D01*
X9331684Y-12307228D02*
X9341208Y-12288181D01*
X9341208Y-12288181D02*
X9341208Y-12240562D01*
X9341208Y-12240562D02*
X9331684Y-12221514D01*
X9331684Y-12221514D02*
X9322160Y-12211990D01*
X9322160Y-12211990D02*
X9303113Y-12202467D01*
X9303113Y-12202467D02*
X9265017Y-12202467D01*
X9265017Y-12202467D02*
X9245970Y-12211990D01*
X9245970Y-12211990D02*
X9236446Y-12221514D01*
X9236446Y-12221514D02*
X9226922Y-12240562D01*
X9512636Y-12126276D02*
X9474541Y-12126276D01*
X9474541Y-12126276D02*
X9455493Y-12135800D01*
X9455493Y-12135800D02*
X9445970Y-12145324D01*
X9445970Y-12145324D02*
X9426922Y-12173895D01*
X9426922Y-12173895D02*
X9417398Y-12211990D01*
X9417398Y-12211990D02*
X9417398Y-12288181D01*
X9417398Y-12288181D02*
X9426922Y-12307228D01*
X9426922Y-12307228D02*
X9436446Y-12316752D01*
X9436446Y-12316752D02*
X9455493Y-12326276D01*
X9455493Y-12326276D02*
X9493589Y-12326276D01*
X9493589Y-12326276D02*
X9512636Y-12316752D01*
X9512636Y-12316752D02*
X9522160Y-12307228D01*
X9522160Y-12307228D02*
X9531684Y-12288181D01*
X9531684Y-12288181D02*
X9531684Y-12240562D01*
X9531684Y-12240562D02*
X9522160Y-12221514D01*
X9522160Y-12221514D02*
X9512636Y-12211990D01*
X9512636Y-12211990D02*
X9493589Y-12202467D01*
X9493589Y-12202467D02*
X9455493Y-12202467D01*
X9455493Y-12202467D02*
X9436446Y-12211990D01*
X9436446Y-12211990D02*
X9426922Y-12221514D01*
X9426922Y-12221514D02*
X9417398Y-12240562D01*
X9607874Y-12126276D02*
X9607874Y-12164371D01*
X9684065Y-12126276D02*
X9684065Y-12164371D01*
X9946922Y-12402467D02*
X9937398Y-12392943D01*
X9937398Y-12392943D02*
X9918351Y-12364371D01*
X9918351Y-12364371D02*
X9908827Y-12345324D01*
X9908827Y-12345324D02*
X9899303Y-12316752D01*
X9899303Y-12316752D02*
X9889779Y-12269133D01*
X9889779Y-12269133D02*
X9889779Y-12231038D01*
X9889779Y-12231038D02*
X9899303Y-12183419D01*
X9899303Y-12183419D02*
X9908827Y-12154848D01*
X9908827Y-12154848D02*
X9918351Y-12135800D01*
X9918351Y-12135800D02*
X9937398Y-12107228D01*
X9937398Y-12107228D02*
X9946922Y-12097705D01*
X10108827Y-12192943D02*
X10108827Y-12326276D01*
X10061208Y-12116752D02*
X10013589Y-12259609D01*
X10013589Y-12259609D02*
X10137398Y-12259609D01*
X10333589Y-12326276D02*
X10333589Y-12126276D01*
X10419303Y-12326276D02*
X10419303Y-12221514D01*
X10419303Y-12221514D02*
X10409779Y-12202467D01*
X10409779Y-12202467D02*
X10390732Y-12192943D01*
X10390732Y-12192943D02*
X10362160Y-12192943D01*
X10362160Y-12192943D02*
X10343113Y-12202467D01*
X10343113Y-12202467D02*
X10333589Y-12211990D01*
X10543113Y-12326276D02*
X10524065Y-12316752D01*
X10524065Y-12316752D02*
X10514541Y-12307228D01*
X10514541Y-12307228D02*
X10505017Y-12288181D01*
X10505017Y-12288181D02*
X10505017Y-12231038D01*
X10505017Y-12231038D02*
X10514541Y-12211990D01*
X10514541Y-12211990D02*
X10524065Y-12202467D01*
X10524065Y-12202467D02*
X10543113Y-12192943D01*
X10543113Y-12192943D02*
X10571684Y-12192943D01*
X10571684Y-12192943D02*
X10590732Y-12202467D01*
X10590732Y-12202467D02*
X10600255Y-12211990D01*
X10600255Y-12211990D02*
X10609779Y-12231038D01*
X10609779Y-12231038D02*
X10609779Y-12288181D01*
X10609779Y-12288181D02*
X10600255Y-12307228D01*
X10600255Y-12307228D02*
X10590732Y-12316752D01*
X10590732Y-12316752D02*
X10571684Y-12326276D01*
X10571684Y-12326276D02*
X10543113Y-12326276D01*
X10724065Y-12326276D02*
X10705017Y-12316752D01*
X10705017Y-12316752D02*
X10695494Y-12297705D01*
X10695494Y-12297705D02*
X10695494Y-12126276D01*
X10876446Y-12316752D02*
X10857398Y-12326276D01*
X10857398Y-12326276D02*
X10819303Y-12326276D01*
X10819303Y-12326276D02*
X10800255Y-12316752D01*
X10800255Y-12316752D02*
X10790732Y-12297705D01*
X10790732Y-12297705D02*
X10790732Y-12221514D01*
X10790732Y-12221514D02*
X10800255Y-12202467D01*
X10800255Y-12202467D02*
X10819303Y-12192943D01*
X10819303Y-12192943D02*
X10857398Y-12192943D01*
X10857398Y-12192943D02*
X10876446Y-12202467D01*
X10876446Y-12202467D02*
X10885970Y-12221514D01*
X10885970Y-12221514D02*
X10885970Y-12240562D01*
X10885970Y-12240562D02*
X10790732Y-12259609D01*
X10962160Y-12316752D02*
X10981208Y-12326276D01*
X10981208Y-12326276D02*
X11019303Y-12326276D01*
X11019303Y-12326276D02*
X11038351Y-12316752D01*
X11038351Y-12316752D02*
X11047875Y-12297705D01*
X11047875Y-12297705D02*
X11047875Y-12288181D01*
X11047875Y-12288181D02*
X11038351Y-12269133D01*
X11038351Y-12269133D02*
X11019303Y-12259609D01*
X11019303Y-12259609D02*
X10990732Y-12259609D01*
X10990732Y-12259609D02*
X10971684Y-12250086D01*
X10971684Y-12250086D02*
X10962160Y-12231038D01*
X10962160Y-12231038D02*
X10962160Y-12221514D01*
X10962160Y-12221514D02*
X10971684Y-12202467D01*
X10971684Y-12202467D02*
X10990732Y-12192943D01*
X10990732Y-12192943D02*
X11019303Y-12192943D01*
X11019303Y-12192943D02*
X11038351Y-12202467D01*
X11114541Y-12402467D02*
X11124065Y-12392943D01*
X11124065Y-12392943D02*
X11143113Y-12364371D01*
X11143113Y-12364371D02*
X11152636Y-12345324D01*
X11152636Y-12345324D02*
X11162160Y-12316752D01*
X11162160Y-12316752D02*
X11171684Y-12269133D01*
X11171684Y-12269133D02*
X11171684Y-12231038D01*
X11171684Y-12231038D02*
X11162160Y-12183419D01*
X11162160Y-12183419D02*
X11152636Y-12154848D01*
X11152636Y-12154848D02*
X11143113Y-12135800D01*
X11143113Y-12135800D02*
X11124065Y-12107228D01*
X11124065Y-12107228D02*
X11114541Y-12097705D01*
X11444065Y-12402467D02*
X11434541Y-12392943D01*
X11434541Y-12392943D02*
X11415493Y-12364371D01*
X11415493Y-12364371D02*
X11405970Y-12345324D01*
X11405970Y-12345324D02*
X11396446Y-12316752D01*
X11396446Y-12316752D02*
X11386922Y-12269133D01*
X11386922Y-12269133D02*
X11386922Y-12231038D01*
X11386922Y-12231038D02*
X11396446Y-12183419D01*
X11396446Y-12183419D02*
X11405970Y-12154848D01*
X11405970Y-12154848D02*
X11415493Y-12135800D01*
X11415493Y-12135800D02*
X11434541Y-12107228D01*
X11434541Y-12107228D02*
X11444065Y-12097705D01*
X11520255Y-12192943D02*
X11520255Y-12326276D01*
X11520255Y-12211990D02*
X11529779Y-12202467D01*
X11529779Y-12202467D02*
X11548827Y-12192943D01*
X11548827Y-12192943D02*
X11577398Y-12192943D01*
X11577398Y-12192943D02*
X11596446Y-12202467D01*
X11596446Y-12202467D02*
X11605970Y-12221514D01*
X11605970Y-12221514D02*
X11605970Y-12326276D01*
X11729779Y-12326276D02*
X11710732Y-12316752D01*
X11710732Y-12316752D02*
X11701208Y-12307228D01*
X11701208Y-12307228D02*
X11691684Y-12288181D01*
X11691684Y-12288181D02*
X11691684Y-12231038D01*
X11691684Y-12231038D02*
X11701208Y-12211990D01*
X11701208Y-12211990D02*
X11710732Y-12202467D01*
X11710732Y-12202467D02*
X11729779Y-12192943D01*
X11729779Y-12192943D02*
X11758351Y-12192943D01*
X11758351Y-12192943D02*
X11777398Y-12202467D01*
X11777398Y-12202467D02*
X11786922Y-12211990D01*
X11786922Y-12211990D02*
X11796446Y-12231038D01*
X11796446Y-12231038D02*
X11796446Y-12288181D01*
X11796446Y-12288181D02*
X11786922Y-12307228D01*
X11786922Y-12307228D02*
X11777398Y-12316752D01*
X11777398Y-12316752D02*
X11758351Y-12326276D01*
X11758351Y-12326276D02*
X11729779Y-12326276D01*
X11853589Y-12192943D02*
X11929779Y-12192943D01*
X11882160Y-12126276D02*
X11882160Y-12297705D01*
X11882160Y-12297705D02*
X11891684Y-12316752D01*
X11891684Y-12316752D02*
X11910732Y-12326276D01*
X11910732Y-12326276D02*
X11929779Y-12326276D01*
X12116446Y-12192943D02*
X12116446Y-12392943D01*
X12116446Y-12202467D02*
X12135493Y-12192943D01*
X12135493Y-12192943D02*
X12173589Y-12192943D01*
X12173589Y-12192943D02*
X12192636Y-12202467D01*
X12192636Y-12202467D02*
X12202160Y-12211990D01*
X12202160Y-12211990D02*
X12211684Y-12231038D01*
X12211684Y-12231038D02*
X12211684Y-12288181D01*
X12211684Y-12288181D02*
X12202160Y-12307228D01*
X12202160Y-12307228D02*
X12192636Y-12316752D01*
X12192636Y-12316752D02*
X12173589Y-12326276D01*
X12173589Y-12326276D02*
X12135493Y-12326276D01*
X12135493Y-12326276D02*
X12116446Y-12316752D01*
X12325970Y-12326276D02*
X12306922Y-12316752D01*
X12306922Y-12316752D02*
X12297398Y-12297705D01*
X12297398Y-12297705D02*
X12297398Y-12126276D01*
X12487874Y-12326276D02*
X12487874Y-12221514D01*
X12487874Y-12221514D02*
X12478351Y-12202467D01*
X12478351Y-12202467D02*
X12459303Y-12192943D01*
X12459303Y-12192943D02*
X12421208Y-12192943D01*
X12421208Y-12192943D02*
X12402160Y-12202467D01*
X12487874Y-12316752D02*
X12468827Y-12326276D01*
X12468827Y-12326276D02*
X12421208Y-12326276D01*
X12421208Y-12326276D02*
X12402160Y-12316752D01*
X12402160Y-12316752D02*
X12392636Y-12297705D01*
X12392636Y-12297705D02*
X12392636Y-12278657D01*
X12392636Y-12278657D02*
X12402160Y-12259609D01*
X12402160Y-12259609D02*
X12421208Y-12250086D01*
X12421208Y-12250086D02*
X12468827Y-12250086D01*
X12468827Y-12250086D02*
X12487874Y-12240562D01*
X12554541Y-12192943D02*
X12630732Y-12192943D01*
X12583113Y-12126276D02*
X12583113Y-12297705D01*
X12583113Y-12297705D02*
X12592636Y-12316752D01*
X12592636Y-12316752D02*
X12611684Y-12326276D01*
X12611684Y-12326276D02*
X12630732Y-12326276D01*
X12773589Y-12316752D02*
X12754541Y-12326276D01*
X12754541Y-12326276D02*
X12716446Y-12326276D01*
X12716446Y-12326276D02*
X12697398Y-12316752D01*
X12697398Y-12316752D02*
X12687874Y-12297705D01*
X12687874Y-12297705D02*
X12687874Y-12221514D01*
X12687874Y-12221514D02*
X12697398Y-12202467D01*
X12697398Y-12202467D02*
X12716446Y-12192943D01*
X12716446Y-12192943D02*
X12754541Y-12192943D01*
X12754541Y-12192943D02*
X12773589Y-12202467D01*
X12773589Y-12202467D02*
X12783113Y-12221514D01*
X12783113Y-12221514D02*
X12783113Y-12240562D01*
X12783113Y-12240562D02*
X12687874Y-12259609D01*
X12954541Y-12326276D02*
X12954541Y-12126276D01*
X12954541Y-12316752D02*
X12935494Y-12326276D01*
X12935494Y-12326276D02*
X12897398Y-12326276D01*
X12897398Y-12326276D02*
X12878351Y-12316752D01*
X12878351Y-12316752D02*
X12868827Y-12307228D01*
X12868827Y-12307228D02*
X12859303Y-12288181D01*
X12859303Y-12288181D02*
X12859303Y-12231038D01*
X12859303Y-12231038D02*
X12868827Y-12211990D01*
X12868827Y-12211990D02*
X12878351Y-12202467D01*
X12878351Y-12202467D02*
X12897398Y-12192943D01*
X12897398Y-12192943D02*
X12935494Y-12192943D01*
X12935494Y-12192943D02*
X12954541Y-12202467D01*
X13030732Y-12402467D02*
X13040255Y-12392943D01*
X13040255Y-12392943D02*
X13059303Y-12364371D01*
X13059303Y-12364371D02*
X13068827Y-12345324D01*
X13068827Y-12345324D02*
X13078351Y-12316752D01*
X13078351Y-12316752D02*
X13087874Y-12269133D01*
X13087874Y-12269133D02*
X13087874Y-12231038D01*
X13087874Y-12231038D02*
X13078351Y-12183419D01*
X13078351Y-12183419D02*
X13068827Y-12154848D01*
X13068827Y-12154848D02*
X13059303Y-12135800D01*
X13059303Y-12135800D02*
X13040255Y-12107228D01*
X13040255Y-12107228D02*
X13030732Y-12097705D01*
X6482160Y-12572800D02*
G75*
G03*
X6482160Y-12572800I-100000J0D01*
G01*
X6720255Y-12465324D02*
X6729779Y-12455800D01*
X6729779Y-12455800D02*
X6748827Y-12446276D01*
X6748827Y-12446276D02*
X6796446Y-12446276D01*
X6796446Y-12446276D02*
X6815493Y-12455800D01*
X6815493Y-12455800D02*
X6825017Y-12465324D01*
X6825017Y-12465324D02*
X6834541Y-12484371D01*
X6834541Y-12484371D02*
X6834541Y-12503419D01*
X6834541Y-12503419D02*
X6825017Y-12531990D01*
X6825017Y-12531990D02*
X6710731Y-12646276D01*
X6710731Y-12646276D02*
X6834541Y-12646276D01*
X6920255Y-12627228D02*
X6929779Y-12636752D01*
X6929779Y-12636752D02*
X6920255Y-12646276D01*
X6920255Y-12646276D02*
X6910731Y-12636752D01*
X6910731Y-12636752D02*
X6920255Y-12627228D01*
X6920255Y-12627228D02*
X6920255Y-12646276D01*
X6996446Y-12446276D02*
X7120255Y-12446276D01*
X7120255Y-12446276D02*
X7053588Y-12522467D01*
X7053588Y-12522467D02*
X7082160Y-12522467D01*
X7082160Y-12522467D02*
X7101208Y-12531990D01*
X7101208Y-12531990D02*
X7110731Y-12541514D01*
X7110731Y-12541514D02*
X7120255Y-12560562D01*
X7120255Y-12560562D02*
X7120255Y-12608181D01*
X7120255Y-12608181D02*
X7110731Y-12627228D01*
X7110731Y-12627228D02*
X7101208Y-12636752D01*
X7101208Y-12636752D02*
X7082160Y-12646276D01*
X7082160Y-12646276D02*
X7025017Y-12646276D01*
X7025017Y-12646276D02*
X7005969Y-12636752D01*
X7005969Y-12636752D02*
X6996446Y-12627228D01*
X7215493Y-12646276D02*
X7253588Y-12646276D01*
X7253588Y-12646276D02*
X7272636Y-12636752D01*
X7272636Y-12636752D02*
X7282160Y-12627228D01*
X7282160Y-12627228D02*
X7301208Y-12598657D01*
X7301208Y-12598657D02*
X7310731Y-12560562D01*
X7310731Y-12560562D02*
X7310731Y-12484371D01*
X7310731Y-12484371D02*
X7301208Y-12465324D01*
X7301208Y-12465324D02*
X7291684Y-12455800D01*
X7291684Y-12455800D02*
X7272636Y-12446276D01*
X7272636Y-12446276D02*
X7234541Y-12446276D01*
X7234541Y-12446276D02*
X7215493Y-12455800D01*
X7215493Y-12455800D02*
X7205969Y-12465324D01*
X7205969Y-12465324D02*
X7196446Y-12484371D01*
X7196446Y-12484371D02*
X7196446Y-12531990D01*
X7196446Y-12531990D02*
X7205969Y-12551038D01*
X7205969Y-12551038D02*
X7215493Y-12560562D01*
X7215493Y-12560562D02*
X7234541Y-12570086D01*
X7234541Y-12570086D02*
X7272636Y-12570086D01*
X7272636Y-12570086D02*
X7291684Y-12560562D01*
X7291684Y-12560562D02*
X7301208Y-12551038D01*
X7301208Y-12551038D02*
X7310731Y-12531990D01*
X7434541Y-12446276D02*
X7453589Y-12446276D01*
X7453589Y-12446276D02*
X7472636Y-12455800D01*
X7472636Y-12455800D02*
X7482160Y-12465324D01*
X7482160Y-12465324D02*
X7491684Y-12484371D01*
X7491684Y-12484371D02*
X7501208Y-12522467D01*
X7501208Y-12522467D02*
X7501208Y-12570086D01*
X7501208Y-12570086D02*
X7491684Y-12608181D01*
X7491684Y-12608181D02*
X7482160Y-12627228D01*
X7482160Y-12627228D02*
X7472636Y-12636752D01*
X7472636Y-12636752D02*
X7453589Y-12646276D01*
X7453589Y-12646276D02*
X7434541Y-12646276D01*
X7434541Y-12646276D02*
X7415493Y-12636752D01*
X7415493Y-12636752D02*
X7405969Y-12627228D01*
X7405969Y-12627228D02*
X7396446Y-12608181D01*
X7396446Y-12608181D02*
X7386922Y-12570086D01*
X7386922Y-12570086D02*
X7386922Y-12522467D01*
X7386922Y-12522467D02*
X7396446Y-12484371D01*
X7396446Y-12484371D02*
X7405969Y-12465324D01*
X7405969Y-12465324D02*
X7415493Y-12455800D01*
X7415493Y-12455800D02*
X7434541Y-12446276D01*
X7586922Y-12646276D02*
X7586922Y-12512943D01*
X7586922Y-12531990D02*
X7596446Y-12522467D01*
X7596446Y-12522467D02*
X7615493Y-12512943D01*
X7615493Y-12512943D02*
X7644065Y-12512943D01*
X7644065Y-12512943D02*
X7663112Y-12522467D01*
X7663112Y-12522467D02*
X7672636Y-12541514D01*
X7672636Y-12541514D02*
X7672636Y-12646276D01*
X7672636Y-12541514D02*
X7682160Y-12522467D01*
X7682160Y-12522467D02*
X7701208Y-12512943D01*
X7701208Y-12512943D02*
X7729779Y-12512943D01*
X7729779Y-12512943D02*
X7748827Y-12522467D01*
X7748827Y-12522467D02*
X7758350Y-12541514D01*
X7758350Y-12541514D02*
X7758350Y-12646276D01*
X7853589Y-12646276D02*
X7853589Y-12512943D01*
X7853589Y-12531990D02*
X7863112Y-12522467D01*
X7863112Y-12522467D02*
X7882160Y-12512943D01*
X7882160Y-12512943D02*
X7910731Y-12512943D01*
X7910731Y-12512943D02*
X7929779Y-12522467D01*
X7929779Y-12522467D02*
X7939303Y-12541514D01*
X7939303Y-12541514D02*
X7939303Y-12646276D01*
X7939303Y-12541514D02*
X7948827Y-12522467D01*
X7948827Y-12522467D02*
X7967874Y-12512943D01*
X7967874Y-12512943D02*
X7996446Y-12512943D01*
X7996446Y-12512943D02*
X8015493Y-12522467D01*
X8015493Y-12522467D02*
X8025017Y-12541514D01*
X8025017Y-12541514D02*
X8025017Y-12646276D01*
X8383112Y-12436752D02*
X8211684Y-12693895D01*
X8607874Y-12446276D02*
X8626922Y-12446276D01*
X8626922Y-12446276D02*
X8645970Y-12455800D01*
X8645970Y-12455800D02*
X8655493Y-12465324D01*
X8655493Y-12465324D02*
X8665017Y-12484371D01*
X8665017Y-12484371D02*
X8674541Y-12522467D01*
X8674541Y-12522467D02*
X8674541Y-12570086D01*
X8674541Y-12570086D02*
X8665017Y-12608181D01*
X8665017Y-12608181D02*
X8655493Y-12627228D01*
X8655493Y-12627228D02*
X8645970Y-12636752D01*
X8645970Y-12636752D02*
X8626922Y-12646276D01*
X8626922Y-12646276D02*
X8607874Y-12646276D01*
X8607874Y-12646276D02*
X8588827Y-12636752D01*
X8588827Y-12636752D02*
X8579303Y-12627228D01*
X8579303Y-12627228D02*
X8569779Y-12608181D01*
X8569779Y-12608181D02*
X8560255Y-12570086D01*
X8560255Y-12570086D02*
X8560255Y-12522467D01*
X8560255Y-12522467D02*
X8569779Y-12484371D01*
X8569779Y-12484371D02*
X8579303Y-12465324D01*
X8579303Y-12465324D02*
X8588827Y-12455800D01*
X8588827Y-12455800D02*
X8607874Y-12446276D01*
X8760255Y-12627228D02*
X8769779Y-12636752D01*
X8769779Y-12636752D02*
X8760255Y-12646276D01*
X8760255Y-12646276D02*
X8750732Y-12636752D01*
X8750732Y-12636752D02*
X8760255Y-12627228D01*
X8760255Y-12627228D02*
X8760255Y-12646276D01*
X8893589Y-12446276D02*
X8912636Y-12446276D01*
X8912636Y-12446276D02*
X8931684Y-12455800D01*
X8931684Y-12455800D02*
X8941208Y-12465324D01*
X8941208Y-12465324D02*
X8950732Y-12484371D01*
X8950732Y-12484371D02*
X8960255Y-12522467D01*
X8960255Y-12522467D02*
X8960255Y-12570086D01*
X8960255Y-12570086D02*
X8950732Y-12608181D01*
X8950732Y-12608181D02*
X8941208Y-12627228D01*
X8941208Y-12627228D02*
X8931684Y-12636752D01*
X8931684Y-12636752D02*
X8912636Y-12646276D01*
X8912636Y-12646276D02*
X8893589Y-12646276D01*
X8893589Y-12646276D02*
X8874541Y-12636752D01*
X8874541Y-12636752D02*
X8865017Y-12627228D01*
X8865017Y-12627228D02*
X8855493Y-12608181D01*
X8855493Y-12608181D02*
X8845970Y-12570086D01*
X8845970Y-12570086D02*
X8845970Y-12522467D01*
X8845970Y-12522467D02*
X8855493Y-12484371D01*
X8855493Y-12484371D02*
X8865017Y-12465324D01*
X8865017Y-12465324D02*
X8874541Y-12455800D01*
X8874541Y-12455800D02*
X8893589Y-12446276D01*
X9055493Y-12646276D02*
X9093589Y-12646276D01*
X9093589Y-12646276D02*
X9112636Y-12636752D01*
X9112636Y-12636752D02*
X9122160Y-12627228D01*
X9122160Y-12627228D02*
X9141208Y-12598657D01*
X9141208Y-12598657D02*
X9150732Y-12560562D01*
X9150732Y-12560562D02*
X9150732Y-12484371D01*
X9150732Y-12484371D02*
X9141208Y-12465324D01*
X9141208Y-12465324D02*
X9131684Y-12455800D01*
X9131684Y-12455800D02*
X9112636Y-12446276D01*
X9112636Y-12446276D02*
X9074541Y-12446276D01*
X9074541Y-12446276D02*
X9055493Y-12455800D01*
X9055493Y-12455800D02*
X9045970Y-12465324D01*
X9045970Y-12465324D02*
X9036446Y-12484371D01*
X9036446Y-12484371D02*
X9036446Y-12531990D01*
X9036446Y-12531990D02*
X9045970Y-12551038D01*
X9045970Y-12551038D02*
X9055493Y-12560562D01*
X9055493Y-12560562D02*
X9074541Y-12570086D01*
X9074541Y-12570086D02*
X9112636Y-12570086D01*
X9112636Y-12570086D02*
X9131684Y-12560562D01*
X9131684Y-12560562D02*
X9141208Y-12551038D01*
X9141208Y-12551038D02*
X9150732Y-12531990D01*
X9322160Y-12512943D02*
X9322160Y-12646276D01*
X9274541Y-12436752D02*
X9226922Y-12579609D01*
X9226922Y-12579609D02*
X9350732Y-12579609D01*
X9531684Y-12646276D02*
X9417398Y-12646276D01*
X9474541Y-12646276D02*
X9474541Y-12446276D01*
X9474541Y-12446276D02*
X9455493Y-12474848D01*
X9455493Y-12474848D02*
X9436446Y-12493895D01*
X9436446Y-12493895D02*
X9417398Y-12503419D01*
X9607874Y-12446276D02*
X9607874Y-12484371D01*
X9684065Y-12446276D02*
X9684065Y-12484371D01*
X9946922Y-12722467D02*
X9937398Y-12712943D01*
X9937398Y-12712943D02*
X9918351Y-12684371D01*
X9918351Y-12684371D02*
X9908827Y-12665324D01*
X9908827Y-12665324D02*
X9899303Y-12636752D01*
X9899303Y-12636752D02*
X9889779Y-12589133D01*
X9889779Y-12589133D02*
X9889779Y-12551038D01*
X9889779Y-12551038D02*
X9899303Y-12503419D01*
X9899303Y-12503419D02*
X9908827Y-12474848D01*
X9908827Y-12474848D02*
X9918351Y-12455800D01*
X9918351Y-12455800D02*
X9937398Y-12427228D01*
X9937398Y-12427228D02*
X9946922Y-12417705D01*
X10127874Y-12646276D02*
X10013589Y-12646276D01*
X10070732Y-12646276D02*
X10070732Y-12446276D01*
X10070732Y-12446276D02*
X10051684Y-12474848D01*
X10051684Y-12474848D02*
X10032636Y-12493895D01*
X10032636Y-12493895D02*
X10013589Y-12503419D01*
X10333589Y-12646276D02*
X10333589Y-12446276D01*
X10419303Y-12646276D02*
X10419303Y-12541514D01*
X10419303Y-12541514D02*
X10409779Y-12522467D01*
X10409779Y-12522467D02*
X10390732Y-12512943D01*
X10390732Y-12512943D02*
X10362160Y-12512943D01*
X10362160Y-12512943D02*
X10343113Y-12522467D01*
X10343113Y-12522467D02*
X10333589Y-12531990D01*
X10543113Y-12646276D02*
X10524065Y-12636752D01*
X10524065Y-12636752D02*
X10514541Y-12627228D01*
X10514541Y-12627228D02*
X10505017Y-12608181D01*
X10505017Y-12608181D02*
X10505017Y-12551038D01*
X10505017Y-12551038D02*
X10514541Y-12531990D01*
X10514541Y-12531990D02*
X10524065Y-12522467D01*
X10524065Y-12522467D02*
X10543113Y-12512943D01*
X10543113Y-12512943D02*
X10571684Y-12512943D01*
X10571684Y-12512943D02*
X10590732Y-12522467D01*
X10590732Y-12522467D02*
X10600255Y-12531990D01*
X10600255Y-12531990D02*
X10609779Y-12551038D01*
X10609779Y-12551038D02*
X10609779Y-12608181D01*
X10609779Y-12608181D02*
X10600255Y-12627228D01*
X10600255Y-12627228D02*
X10590732Y-12636752D01*
X10590732Y-12636752D02*
X10571684Y-12646276D01*
X10571684Y-12646276D02*
X10543113Y-12646276D01*
X10724065Y-12646276D02*
X10705017Y-12636752D01*
X10705017Y-12636752D02*
X10695494Y-12617705D01*
X10695494Y-12617705D02*
X10695494Y-12446276D01*
X10876446Y-12636752D02*
X10857398Y-12646276D01*
X10857398Y-12646276D02*
X10819303Y-12646276D01*
X10819303Y-12646276D02*
X10800255Y-12636752D01*
X10800255Y-12636752D02*
X10790732Y-12617705D01*
X10790732Y-12617705D02*
X10790732Y-12541514D01*
X10790732Y-12541514D02*
X10800255Y-12522467D01*
X10800255Y-12522467D02*
X10819303Y-12512943D01*
X10819303Y-12512943D02*
X10857398Y-12512943D01*
X10857398Y-12512943D02*
X10876446Y-12522467D01*
X10876446Y-12522467D02*
X10885970Y-12541514D01*
X10885970Y-12541514D02*
X10885970Y-12560562D01*
X10885970Y-12560562D02*
X10790732Y-12579609D01*
X10952636Y-12722467D02*
X10962160Y-12712943D01*
X10962160Y-12712943D02*
X10981208Y-12684371D01*
X10981208Y-12684371D02*
X10990732Y-12665324D01*
X10990732Y-12665324D02*
X11000255Y-12636752D01*
X11000255Y-12636752D02*
X11009779Y-12589133D01*
X11009779Y-12589133D02*
X11009779Y-12551038D01*
X11009779Y-12551038D02*
X11000255Y-12503419D01*
X11000255Y-12503419D02*
X10990732Y-12474848D01*
X10990732Y-12474848D02*
X10981208Y-12455800D01*
X10981208Y-12455800D02*
X10962160Y-12427228D01*
X10962160Y-12427228D02*
X10952636Y-12417705D01*
X11282160Y-12722467D02*
X11272636Y-12712943D01*
X11272636Y-12712943D02*
X11253589Y-12684371D01*
X11253589Y-12684371D02*
X11244065Y-12665324D01*
X11244065Y-12665324D02*
X11234541Y-12636752D01*
X11234541Y-12636752D02*
X11225017Y-12589133D01*
X11225017Y-12589133D02*
X11225017Y-12551038D01*
X11225017Y-12551038D02*
X11234541Y-12503419D01*
X11234541Y-12503419D02*
X11244065Y-12474848D01*
X11244065Y-12474848D02*
X11253589Y-12455800D01*
X11253589Y-12455800D02*
X11272636Y-12427228D01*
X11272636Y-12427228D02*
X11282160Y-12417705D01*
X11358351Y-12512943D02*
X11358351Y-12646276D01*
X11358351Y-12531990D02*
X11367874Y-12522467D01*
X11367874Y-12522467D02*
X11386922Y-12512943D01*
X11386922Y-12512943D02*
X11415493Y-12512943D01*
X11415493Y-12512943D02*
X11434541Y-12522467D01*
X11434541Y-12522467D02*
X11444065Y-12541514D01*
X11444065Y-12541514D02*
X11444065Y-12646276D01*
X11567874Y-12646276D02*
X11548827Y-12636752D01*
X11548827Y-12636752D02*
X11539303Y-12627228D01*
X11539303Y-12627228D02*
X11529779Y-12608181D01*
X11529779Y-12608181D02*
X11529779Y-12551038D01*
X11529779Y-12551038D02*
X11539303Y-12531990D01*
X11539303Y-12531990D02*
X11548827Y-12522467D01*
X11548827Y-12522467D02*
X11567874Y-12512943D01*
X11567874Y-12512943D02*
X11596446Y-12512943D01*
X11596446Y-12512943D02*
X11615493Y-12522467D01*
X11615493Y-12522467D02*
X11625017Y-12531990D01*
X11625017Y-12531990D02*
X11634541Y-12551038D01*
X11634541Y-12551038D02*
X11634541Y-12608181D01*
X11634541Y-12608181D02*
X11625017Y-12627228D01*
X11625017Y-12627228D02*
X11615493Y-12636752D01*
X11615493Y-12636752D02*
X11596446Y-12646276D01*
X11596446Y-12646276D02*
X11567874Y-12646276D01*
X11691684Y-12512943D02*
X11767874Y-12512943D01*
X11720255Y-12446276D02*
X11720255Y-12617705D01*
X11720255Y-12617705D02*
X11729779Y-12636752D01*
X11729779Y-12636752D02*
X11748827Y-12646276D01*
X11748827Y-12646276D02*
X11767874Y-12646276D01*
X11954541Y-12512943D02*
X11954541Y-12712943D01*
X11954541Y-12522467D02*
X11973589Y-12512943D01*
X11973589Y-12512943D02*
X12011684Y-12512943D01*
X12011684Y-12512943D02*
X12030732Y-12522467D01*
X12030732Y-12522467D02*
X12040255Y-12531990D01*
X12040255Y-12531990D02*
X12049779Y-12551038D01*
X12049779Y-12551038D02*
X12049779Y-12608181D01*
X12049779Y-12608181D02*
X12040255Y-12627228D01*
X12040255Y-12627228D02*
X12030732Y-12636752D01*
X12030732Y-12636752D02*
X12011684Y-12646276D01*
X12011684Y-12646276D02*
X11973589Y-12646276D01*
X11973589Y-12646276D02*
X11954541Y-12636752D01*
X12164065Y-12646276D02*
X12145017Y-12636752D01*
X12145017Y-12636752D02*
X12135493Y-12617705D01*
X12135493Y-12617705D02*
X12135493Y-12446276D01*
X12325970Y-12646276D02*
X12325970Y-12541514D01*
X12325970Y-12541514D02*
X12316446Y-12522467D01*
X12316446Y-12522467D02*
X12297398Y-12512943D01*
X12297398Y-12512943D02*
X12259303Y-12512943D01*
X12259303Y-12512943D02*
X12240255Y-12522467D01*
X12325970Y-12636752D02*
X12306922Y-12646276D01*
X12306922Y-12646276D02*
X12259303Y-12646276D01*
X12259303Y-12646276D02*
X12240255Y-12636752D01*
X12240255Y-12636752D02*
X12230732Y-12617705D01*
X12230732Y-12617705D02*
X12230732Y-12598657D01*
X12230732Y-12598657D02*
X12240255Y-12579609D01*
X12240255Y-12579609D02*
X12259303Y-12570086D01*
X12259303Y-12570086D02*
X12306922Y-12570086D01*
X12306922Y-12570086D02*
X12325970Y-12560562D01*
X12392636Y-12512943D02*
X12468827Y-12512943D01*
X12421208Y-12446276D02*
X12421208Y-12617705D01*
X12421208Y-12617705D02*
X12430732Y-12636752D01*
X12430732Y-12636752D02*
X12449779Y-12646276D01*
X12449779Y-12646276D02*
X12468827Y-12646276D01*
X12611684Y-12636752D02*
X12592636Y-12646276D01*
X12592636Y-12646276D02*
X12554541Y-12646276D01*
X12554541Y-12646276D02*
X12535493Y-12636752D01*
X12535493Y-12636752D02*
X12525970Y-12617705D01*
X12525970Y-12617705D02*
X12525970Y-12541514D01*
X12525970Y-12541514D02*
X12535493Y-12522467D01*
X12535493Y-12522467D02*
X12554541Y-12512943D01*
X12554541Y-12512943D02*
X12592636Y-12512943D01*
X12592636Y-12512943D02*
X12611684Y-12522467D01*
X12611684Y-12522467D02*
X12621208Y-12541514D01*
X12621208Y-12541514D02*
X12621208Y-12560562D01*
X12621208Y-12560562D02*
X12525970Y-12579609D01*
X12792636Y-12646276D02*
X12792636Y-12446276D01*
X12792636Y-12636752D02*
X12773589Y-12646276D01*
X12773589Y-12646276D02*
X12735493Y-12646276D01*
X12735493Y-12646276D02*
X12716446Y-12636752D01*
X12716446Y-12636752D02*
X12706922Y-12627228D01*
X12706922Y-12627228D02*
X12697398Y-12608181D01*
X12697398Y-12608181D02*
X12697398Y-12551038D01*
X12697398Y-12551038D02*
X12706922Y-12531990D01*
X12706922Y-12531990D02*
X12716446Y-12522467D01*
X12716446Y-12522467D02*
X12735493Y-12512943D01*
X12735493Y-12512943D02*
X12773589Y-12512943D01*
X12773589Y-12512943D02*
X12792636Y-12522467D01*
X12868827Y-12722467D02*
X12878351Y-12712943D01*
X12878351Y-12712943D02*
X12897398Y-12684371D01*
X12897398Y-12684371D02*
X12906922Y-12665324D01*
X12906922Y-12665324D02*
X12916446Y-12636752D01*
X12916446Y-12636752D02*
X12925970Y-12589133D01*
X12925970Y-12589133D02*
X12925970Y-12551038D01*
X12925970Y-12551038D02*
X12916446Y-12503419D01*
X12916446Y-12503419D02*
X12906922Y-12474848D01*
X12906922Y-12474848D02*
X12897398Y-12455800D01*
X12897398Y-12455800D02*
X12878351Y-12427228D01*
X12878351Y-12427228D02*
X12868827Y-12417705D01*
X6382160Y-12792800D02*
X6382160Y-12992800D01*
X6282160Y-12892800D02*
X6482160Y-12892800D01*
X6710731Y-12766276D02*
X6834541Y-12766276D01*
X6834541Y-12766276D02*
X6767874Y-12842467D01*
X6767874Y-12842467D02*
X6796446Y-12842467D01*
X6796446Y-12842467D02*
X6815493Y-12851990D01*
X6815493Y-12851990D02*
X6825017Y-12861514D01*
X6825017Y-12861514D02*
X6834541Y-12880562D01*
X6834541Y-12880562D02*
X6834541Y-12928181D01*
X6834541Y-12928181D02*
X6825017Y-12947228D01*
X6825017Y-12947228D02*
X6815493Y-12956752D01*
X6815493Y-12956752D02*
X6796446Y-12966276D01*
X6796446Y-12966276D02*
X6739303Y-12966276D01*
X6739303Y-12966276D02*
X6720255Y-12956752D01*
X6720255Y-12956752D02*
X6710731Y-12947228D01*
X6920255Y-12947228D02*
X6929779Y-12956752D01*
X6929779Y-12956752D02*
X6920255Y-12966276D01*
X6920255Y-12966276D02*
X6910731Y-12956752D01*
X6910731Y-12956752D02*
X6920255Y-12947228D01*
X6920255Y-12947228D02*
X6920255Y-12966276D01*
X7101208Y-12832943D02*
X7101208Y-12966276D01*
X7053588Y-12756752D02*
X7005969Y-12899609D01*
X7005969Y-12899609D02*
X7129779Y-12899609D01*
X7301208Y-12766276D02*
X7205969Y-12766276D01*
X7205969Y-12766276D02*
X7196446Y-12861514D01*
X7196446Y-12861514D02*
X7205969Y-12851990D01*
X7205969Y-12851990D02*
X7225017Y-12842467D01*
X7225017Y-12842467D02*
X7272636Y-12842467D01*
X7272636Y-12842467D02*
X7291684Y-12851990D01*
X7291684Y-12851990D02*
X7301208Y-12861514D01*
X7301208Y-12861514D02*
X7310731Y-12880562D01*
X7310731Y-12880562D02*
X7310731Y-12928181D01*
X7310731Y-12928181D02*
X7301208Y-12947228D01*
X7301208Y-12947228D02*
X7291684Y-12956752D01*
X7291684Y-12956752D02*
X7272636Y-12966276D01*
X7272636Y-12966276D02*
X7225017Y-12966276D01*
X7225017Y-12966276D02*
X7205969Y-12956752D01*
X7205969Y-12956752D02*
X7196446Y-12947228D01*
X7434541Y-12766276D02*
X7453589Y-12766276D01*
X7453589Y-12766276D02*
X7472636Y-12775800D01*
X7472636Y-12775800D02*
X7482160Y-12785324D01*
X7482160Y-12785324D02*
X7491684Y-12804371D01*
X7491684Y-12804371D02*
X7501208Y-12842467D01*
X7501208Y-12842467D02*
X7501208Y-12890086D01*
X7501208Y-12890086D02*
X7491684Y-12928181D01*
X7491684Y-12928181D02*
X7482160Y-12947228D01*
X7482160Y-12947228D02*
X7472636Y-12956752D01*
X7472636Y-12956752D02*
X7453589Y-12966276D01*
X7453589Y-12966276D02*
X7434541Y-12966276D01*
X7434541Y-12966276D02*
X7415493Y-12956752D01*
X7415493Y-12956752D02*
X7405969Y-12947228D01*
X7405969Y-12947228D02*
X7396446Y-12928181D01*
X7396446Y-12928181D02*
X7386922Y-12890086D01*
X7386922Y-12890086D02*
X7386922Y-12842467D01*
X7386922Y-12842467D02*
X7396446Y-12804371D01*
X7396446Y-12804371D02*
X7405969Y-12785324D01*
X7405969Y-12785324D02*
X7415493Y-12775800D01*
X7415493Y-12775800D02*
X7434541Y-12766276D01*
X7586922Y-12966276D02*
X7586922Y-12832943D01*
X7586922Y-12851990D02*
X7596446Y-12842467D01*
X7596446Y-12842467D02*
X7615493Y-12832943D01*
X7615493Y-12832943D02*
X7644065Y-12832943D01*
X7644065Y-12832943D02*
X7663112Y-12842467D01*
X7663112Y-12842467D02*
X7672636Y-12861514D01*
X7672636Y-12861514D02*
X7672636Y-12966276D01*
X7672636Y-12861514D02*
X7682160Y-12842467D01*
X7682160Y-12842467D02*
X7701208Y-12832943D01*
X7701208Y-12832943D02*
X7729779Y-12832943D01*
X7729779Y-12832943D02*
X7748827Y-12842467D01*
X7748827Y-12842467D02*
X7758350Y-12861514D01*
X7758350Y-12861514D02*
X7758350Y-12966276D01*
X7853589Y-12966276D02*
X7853589Y-12832943D01*
X7853589Y-12851990D02*
X7863112Y-12842467D01*
X7863112Y-12842467D02*
X7882160Y-12832943D01*
X7882160Y-12832943D02*
X7910731Y-12832943D01*
X7910731Y-12832943D02*
X7929779Y-12842467D01*
X7929779Y-12842467D02*
X7939303Y-12861514D01*
X7939303Y-12861514D02*
X7939303Y-12966276D01*
X7939303Y-12861514D02*
X7948827Y-12842467D01*
X7948827Y-12842467D02*
X7967874Y-12832943D01*
X7967874Y-12832943D02*
X7996446Y-12832943D01*
X7996446Y-12832943D02*
X8015493Y-12842467D01*
X8015493Y-12842467D02*
X8025017Y-12861514D01*
X8025017Y-12861514D02*
X8025017Y-12966276D01*
X8383112Y-12756752D02*
X8211684Y-13013895D01*
X8607874Y-12766276D02*
X8626922Y-12766276D01*
X8626922Y-12766276D02*
X8645970Y-12775800D01*
X8645970Y-12775800D02*
X8655493Y-12785324D01*
X8655493Y-12785324D02*
X8665017Y-12804371D01*
X8665017Y-12804371D02*
X8674541Y-12842467D01*
X8674541Y-12842467D02*
X8674541Y-12890086D01*
X8674541Y-12890086D02*
X8665017Y-12928181D01*
X8665017Y-12928181D02*
X8655493Y-12947228D01*
X8655493Y-12947228D02*
X8645970Y-12956752D01*
X8645970Y-12956752D02*
X8626922Y-12966276D01*
X8626922Y-12966276D02*
X8607874Y-12966276D01*
X8607874Y-12966276D02*
X8588827Y-12956752D01*
X8588827Y-12956752D02*
X8579303Y-12947228D01*
X8579303Y-12947228D02*
X8569779Y-12928181D01*
X8569779Y-12928181D02*
X8560255Y-12890086D01*
X8560255Y-12890086D02*
X8560255Y-12842467D01*
X8560255Y-12842467D02*
X8569779Y-12804371D01*
X8569779Y-12804371D02*
X8579303Y-12785324D01*
X8579303Y-12785324D02*
X8588827Y-12775800D01*
X8588827Y-12775800D02*
X8607874Y-12766276D01*
X8760255Y-12947228D02*
X8769779Y-12956752D01*
X8769779Y-12956752D02*
X8760255Y-12966276D01*
X8760255Y-12966276D02*
X8750732Y-12956752D01*
X8750732Y-12956752D02*
X8760255Y-12947228D01*
X8760255Y-12947228D02*
X8760255Y-12966276D01*
X8960255Y-12966276D02*
X8845970Y-12966276D01*
X8903112Y-12966276D02*
X8903112Y-12766276D01*
X8903112Y-12766276D02*
X8884065Y-12794848D01*
X8884065Y-12794848D02*
X8865017Y-12813895D01*
X8865017Y-12813895D02*
X8845970Y-12823419D01*
X9026922Y-12766276D02*
X9150732Y-12766276D01*
X9150732Y-12766276D02*
X9084065Y-12842467D01*
X9084065Y-12842467D02*
X9112636Y-12842467D01*
X9112636Y-12842467D02*
X9131684Y-12851990D01*
X9131684Y-12851990D02*
X9141208Y-12861514D01*
X9141208Y-12861514D02*
X9150732Y-12880562D01*
X9150732Y-12880562D02*
X9150732Y-12928181D01*
X9150732Y-12928181D02*
X9141208Y-12947228D01*
X9141208Y-12947228D02*
X9131684Y-12956752D01*
X9131684Y-12956752D02*
X9112636Y-12966276D01*
X9112636Y-12966276D02*
X9055493Y-12966276D01*
X9055493Y-12966276D02*
X9036446Y-12956752D01*
X9036446Y-12956752D02*
X9026922Y-12947228D01*
X9331684Y-12766276D02*
X9236446Y-12766276D01*
X9236446Y-12766276D02*
X9226922Y-12861514D01*
X9226922Y-12861514D02*
X9236446Y-12851990D01*
X9236446Y-12851990D02*
X9255493Y-12842467D01*
X9255493Y-12842467D02*
X9303113Y-12842467D01*
X9303113Y-12842467D02*
X9322160Y-12851990D01*
X9322160Y-12851990D02*
X9331684Y-12861514D01*
X9331684Y-12861514D02*
X9341208Y-12880562D01*
X9341208Y-12880562D02*
X9341208Y-12928181D01*
X9341208Y-12928181D02*
X9331684Y-12947228D01*
X9331684Y-12947228D02*
X9322160Y-12956752D01*
X9322160Y-12956752D02*
X9303113Y-12966276D01*
X9303113Y-12966276D02*
X9255493Y-12966276D01*
X9255493Y-12966276D02*
X9236446Y-12956752D01*
X9236446Y-12956752D02*
X9226922Y-12947228D01*
X9455493Y-12851990D02*
X9436446Y-12842467D01*
X9436446Y-12842467D02*
X9426922Y-12832943D01*
X9426922Y-12832943D02*
X9417398Y-12813895D01*
X9417398Y-12813895D02*
X9417398Y-12804371D01*
X9417398Y-12804371D02*
X9426922Y-12785324D01*
X9426922Y-12785324D02*
X9436446Y-12775800D01*
X9436446Y-12775800D02*
X9455493Y-12766276D01*
X9455493Y-12766276D02*
X9493589Y-12766276D01*
X9493589Y-12766276D02*
X9512636Y-12775800D01*
X9512636Y-12775800D02*
X9522160Y-12785324D01*
X9522160Y-12785324D02*
X9531684Y-12804371D01*
X9531684Y-12804371D02*
X9531684Y-12813895D01*
X9531684Y-12813895D02*
X9522160Y-12832943D01*
X9522160Y-12832943D02*
X9512636Y-12842467D01*
X9512636Y-12842467D02*
X9493589Y-12851990D01*
X9493589Y-12851990D02*
X9455493Y-12851990D01*
X9455493Y-12851990D02*
X9436446Y-12861514D01*
X9436446Y-12861514D02*
X9426922Y-12871038D01*
X9426922Y-12871038D02*
X9417398Y-12890086D01*
X9417398Y-12890086D02*
X9417398Y-12928181D01*
X9417398Y-12928181D02*
X9426922Y-12947228D01*
X9426922Y-12947228D02*
X9436446Y-12956752D01*
X9436446Y-12956752D02*
X9455493Y-12966276D01*
X9455493Y-12966276D02*
X9493589Y-12966276D01*
X9493589Y-12966276D02*
X9512636Y-12956752D01*
X9512636Y-12956752D02*
X9522160Y-12947228D01*
X9522160Y-12947228D02*
X9531684Y-12928181D01*
X9531684Y-12928181D02*
X9531684Y-12890086D01*
X9531684Y-12890086D02*
X9522160Y-12871038D01*
X9522160Y-12871038D02*
X9512636Y-12861514D01*
X9512636Y-12861514D02*
X9493589Y-12851990D01*
X9607874Y-12766276D02*
X9607874Y-12804371D01*
X9684065Y-12766276D02*
X9684065Y-12804371D01*
X9946922Y-13042467D02*
X9937398Y-13032943D01*
X9937398Y-13032943D02*
X9918351Y-13004371D01*
X9918351Y-13004371D02*
X9908827Y-12985324D01*
X9908827Y-12985324D02*
X9899303Y-12956752D01*
X9899303Y-12956752D02*
X9889779Y-12909133D01*
X9889779Y-12909133D02*
X9889779Y-12871038D01*
X9889779Y-12871038D02*
X9899303Y-12823419D01*
X9899303Y-12823419D02*
X9908827Y-12794848D01*
X9908827Y-12794848D02*
X9918351Y-12775800D01*
X9918351Y-12775800D02*
X9937398Y-12747228D01*
X9937398Y-12747228D02*
X9946922Y-12737705D01*
X10013589Y-12785324D02*
X10023113Y-12775800D01*
X10023113Y-12775800D02*
X10042160Y-12766276D01*
X10042160Y-12766276D02*
X10089779Y-12766276D01*
X10089779Y-12766276D02*
X10108827Y-12775800D01*
X10108827Y-12775800D02*
X10118351Y-12785324D01*
X10118351Y-12785324D02*
X10127874Y-12804371D01*
X10127874Y-12804371D02*
X10127874Y-12823419D01*
X10127874Y-12823419D02*
X10118351Y-12851990D01*
X10118351Y-12851990D02*
X10004065Y-12966276D01*
X10004065Y-12966276D02*
X10127874Y-12966276D01*
X10333589Y-12966276D02*
X10333589Y-12766276D01*
X10419303Y-12966276D02*
X10419303Y-12861514D01*
X10419303Y-12861514D02*
X10409779Y-12842467D01*
X10409779Y-12842467D02*
X10390732Y-12832943D01*
X10390732Y-12832943D02*
X10362160Y-12832943D01*
X10362160Y-12832943D02*
X10343113Y-12842467D01*
X10343113Y-12842467D02*
X10333589Y-12851990D01*
X10543113Y-12966276D02*
X10524065Y-12956752D01*
X10524065Y-12956752D02*
X10514541Y-12947228D01*
X10514541Y-12947228D02*
X10505017Y-12928181D01*
X10505017Y-12928181D02*
X10505017Y-12871038D01*
X10505017Y-12871038D02*
X10514541Y-12851990D01*
X10514541Y-12851990D02*
X10524065Y-12842467D01*
X10524065Y-12842467D02*
X10543113Y-12832943D01*
X10543113Y-12832943D02*
X10571684Y-12832943D01*
X10571684Y-12832943D02*
X10590732Y-12842467D01*
X10590732Y-12842467D02*
X10600255Y-12851990D01*
X10600255Y-12851990D02*
X10609779Y-12871038D01*
X10609779Y-12871038D02*
X10609779Y-12928181D01*
X10609779Y-12928181D02*
X10600255Y-12947228D01*
X10600255Y-12947228D02*
X10590732Y-12956752D01*
X10590732Y-12956752D02*
X10571684Y-12966276D01*
X10571684Y-12966276D02*
X10543113Y-12966276D01*
X10724065Y-12966276D02*
X10705017Y-12956752D01*
X10705017Y-12956752D02*
X10695494Y-12937705D01*
X10695494Y-12937705D02*
X10695494Y-12766276D01*
X10876446Y-12956752D02*
X10857398Y-12966276D01*
X10857398Y-12966276D02*
X10819303Y-12966276D01*
X10819303Y-12966276D02*
X10800255Y-12956752D01*
X10800255Y-12956752D02*
X10790732Y-12937705D01*
X10790732Y-12937705D02*
X10790732Y-12861514D01*
X10790732Y-12861514D02*
X10800255Y-12842467D01*
X10800255Y-12842467D02*
X10819303Y-12832943D01*
X10819303Y-12832943D02*
X10857398Y-12832943D01*
X10857398Y-12832943D02*
X10876446Y-12842467D01*
X10876446Y-12842467D02*
X10885970Y-12861514D01*
X10885970Y-12861514D02*
X10885970Y-12880562D01*
X10885970Y-12880562D02*
X10790732Y-12899609D01*
X10962160Y-12956752D02*
X10981208Y-12966276D01*
X10981208Y-12966276D02*
X11019303Y-12966276D01*
X11019303Y-12966276D02*
X11038351Y-12956752D01*
X11038351Y-12956752D02*
X11047875Y-12937705D01*
X11047875Y-12937705D02*
X11047875Y-12928181D01*
X11047875Y-12928181D02*
X11038351Y-12909133D01*
X11038351Y-12909133D02*
X11019303Y-12899609D01*
X11019303Y-12899609D02*
X10990732Y-12899609D01*
X10990732Y-12899609D02*
X10971684Y-12890086D01*
X10971684Y-12890086D02*
X10962160Y-12871038D01*
X10962160Y-12871038D02*
X10962160Y-12861514D01*
X10962160Y-12861514D02*
X10971684Y-12842467D01*
X10971684Y-12842467D02*
X10990732Y-12832943D01*
X10990732Y-12832943D02*
X11019303Y-12832943D01*
X11019303Y-12832943D02*
X11038351Y-12842467D01*
X11114541Y-13042467D02*
X11124065Y-13032943D01*
X11124065Y-13032943D02*
X11143113Y-13004371D01*
X11143113Y-13004371D02*
X11152636Y-12985324D01*
X11152636Y-12985324D02*
X11162160Y-12956752D01*
X11162160Y-12956752D02*
X11171684Y-12909133D01*
X11171684Y-12909133D02*
X11171684Y-12871038D01*
X11171684Y-12871038D02*
X11162160Y-12823419D01*
X11162160Y-12823419D02*
X11152636Y-12794848D01*
X11152636Y-12794848D02*
X11143113Y-12775800D01*
X11143113Y-12775800D02*
X11124065Y-12747228D01*
X11124065Y-12747228D02*
X11114541Y-12737705D01*
X11444065Y-13042467D02*
X11434541Y-13032943D01*
X11434541Y-13032943D02*
X11415493Y-13004371D01*
X11415493Y-13004371D02*
X11405970Y-12985324D01*
X11405970Y-12985324D02*
X11396446Y-12956752D01*
X11396446Y-12956752D02*
X11386922Y-12909133D01*
X11386922Y-12909133D02*
X11386922Y-12871038D01*
X11386922Y-12871038D02*
X11396446Y-12823419D01*
X11396446Y-12823419D02*
X11405970Y-12794848D01*
X11405970Y-12794848D02*
X11415493Y-12775800D01*
X11415493Y-12775800D02*
X11434541Y-12747228D01*
X11434541Y-12747228D02*
X11444065Y-12737705D01*
X11520255Y-12832943D02*
X11520255Y-12966276D01*
X11520255Y-12851990D02*
X11529779Y-12842467D01*
X11529779Y-12842467D02*
X11548827Y-12832943D01*
X11548827Y-12832943D02*
X11577398Y-12832943D01*
X11577398Y-12832943D02*
X11596446Y-12842467D01*
X11596446Y-12842467D02*
X11605970Y-12861514D01*
X11605970Y-12861514D02*
X11605970Y-12966276D01*
X11729779Y-12966276D02*
X11710732Y-12956752D01*
X11710732Y-12956752D02*
X11701208Y-12947228D01*
X11701208Y-12947228D02*
X11691684Y-12928181D01*
X11691684Y-12928181D02*
X11691684Y-12871038D01*
X11691684Y-12871038D02*
X11701208Y-12851990D01*
X11701208Y-12851990D02*
X11710732Y-12842467D01*
X11710732Y-12842467D02*
X11729779Y-12832943D01*
X11729779Y-12832943D02*
X11758351Y-12832943D01*
X11758351Y-12832943D02*
X11777398Y-12842467D01*
X11777398Y-12842467D02*
X11786922Y-12851990D01*
X11786922Y-12851990D02*
X11796446Y-12871038D01*
X11796446Y-12871038D02*
X11796446Y-12928181D01*
X11796446Y-12928181D02*
X11786922Y-12947228D01*
X11786922Y-12947228D02*
X11777398Y-12956752D01*
X11777398Y-12956752D02*
X11758351Y-12966276D01*
X11758351Y-12966276D02*
X11729779Y-12966276D01*
X11853589Y-12832943D02*
X11929779Y-12832943D01*
X11882160Y-12766276D02*
X11882160Y-12937705D01*
X11882160Y-12937705D02*
X11891684Y-12956752D01*
X11891684Y-12956752D02*
X11910732Y-12966276D01*
X11910732Y-12966276D02*
X11929779Y-12966276D01*
X12116446Y-12832943D02*
X12116446Y-13032943D01*
X12116446Y-12842467D02*
X12135493Y-12832943D01*
X12135493Y-12832943D02*
X12173589Y-12832943D01*
X12173589Y-12832943D02*
X12192636Y-12842467D01*
X12192636Y-12842467D02*
X12202160Y-12851990D01*
X12202160Y-12851990D02*
X12211684Y-12871038D01*
X12211684Y-12871038D02*
X12211684Y-12928181D01*
X12211684Y-12928181D02*
X12202160Y-12947228D01*
X12202160Y-12947228D02*
X12192636Y-12956752D01*
X12192636Y-12956752D02*
X12173589Y-12966276D01*
X12173589Y-12966276D02*
X12135493Y-12966276D01*
X12135493Y-12966276D02*
X12116446Y-12956752D01*
X12325970Y-12966276D02*
X12306922Y-12956752D01*
X12306922Y-12956752D02*
X12297398Y-12937705D01*
X12297398Y-12937705D02*
X12297398Y-12766276D01*
X12487874Y-12966276D02*
X12487874Y-12861514D01*
X12487874Y-12861514D02*
X12478351Y-12842467D01*
X12478351Y-12842467D02*
X12459303Y-12832943D01*
X12459303Y-12832943D02*
X12421208Y-12832943D01*
X12421208Y-12832943D02*
X12402160Y-12842467D01*
X12487874Y-12956752D02*
X12468827Y-12966276D01*
X12468827Y-12966276D02*
X12421208Y-12966276D01*
X12421208Y-12966276D02*
X12402160Y-12956752D01*
X12402160Y-12956752D02*
X12392636Y-12937705D01*
X12392636Y-12937705D02*
X12392636Y-12918657D01*
X12392636Y-12918657D02*
X12402160Y-12899609D01*
X12402160Y-12899609D02*
X12421208Y-12890086D01*
X12421208Y-12890086D02*
X12468827Y-12890086D01*
X12468827Y-12890086D02*
X12487874Y-12880562D01*
X12554541Y-12832943D02*
X12630732Y-12832943D01*
X12583113Y-12766276D02*
X12583113Y-12937705D01*
X12583113Y-12937705D02*
X12592636Y-12956752D01*
X12592636Y-12956752D02*
X12611684Y-12966276D01*
X12611684Y-12966276D02*
X12630732Y-12966276D01*
X12773589Y-12956752D02*
X12754541Y-12966276D01*
X12754541Y-12966276D02*
X12716446Y-12966276D01*
X12716446Y-12966276D02*
X12697398Y-12956752D01*
X12697398Y-12956752D02*
X12687874Y-12937705D01*
X12687874Y-12937705D02*
X12687874Y-12861514D01*
X12687874Y-12861514D02*
X12697398Y-12842467D01*
X12697398Y-12842467D02*
X12716446Y-12832943D01*
X12716446Y-12832943D02*
X12754541Y-12832943D01*
X12754541Y-12832943D02*
X12773589Y-12842467D01*
X12773589Y-12842467D02*
X12783113Y-12861514D01*
X12783113Y-12861514D02*
X12783113Y-12880562D01*
X12783113Y-12880562D02*
X12687874Y-12899609D01*
X12954541Y-12966276D02*
X12954541Y-12766276D01*
X12954541Y-12956752D02*
X12935494Y-12966276D01*
X12935494Y-12966276D02*
X12897398Y-12966276D01*
X12897398Y-12966276D02*
X12878351Y-12956752D01*
X12878351Y-12956752D02*
X12868827Y-12947228D01*
X12868827Y-12947228D02*
X12859303Y-12928181D01*
X12859303Y-12928181D02*
X12859303Y-12871038D01*
X12859303Y-12871038D02*
X12868827Y-12851990D01*
X12868827Y-12851990D02*
X12878351Y-12842467D01*
X12878351Y-12842467D02*
X12897398Y-12832943D01*
X12897398Y-12832943D02*
X12935494Y-12832943D01*
X12935494Y-12832943D02*
X12954541Y-12842467D01*
X13030732Y-13042467D02*
X13040255Y-13032943D01*
X13040255Y-13032943D02*
X13059303Y-13004371D01*
X13059303Y-13004371D02*
X13068827Y-12985324D01*
X13068827Y-12985324D02*
X13078351Y-12956752D01*
X13078351Y-12956752D02*
X13087874Y-12909133D01*
X13087874Y-12909133D02*
X13087874Y-12871038D01*
X13087874Y-12871038D02*
X13078351Y-12823419D01*
X13078351Y-12823419D02*
X13068827Y-12794848D01*
X13068827Y-12794848D02*
X13059303Y-12775800D01*
X13059303Y-12775800D02*
X13040255Y-12747228D01*
X13040255Y-12747228D02*
X13030732Y-12737705D01*
M02*
